<?xml version="1.0" encoding="UTF-8"?>
<svg id="Capa_1" xmlns="http://www.w3.org/2000/svg" version="1.1" xmlns:xlink="http://www.w3.org/1999/xlink" viewBox="0 0 820 778">
  <!-- Generator: Adobe Illustrator 29.4.0, SVG Export Plug-In . SVG Version: 2.1.0 Build 152)  -->
  <defs>
    <style>
      .st0 {
        fill: #f0efea;
      }

      .st1 {
        stroke: #898988;
      }

      .st1, .st2, .st3, .st4, .st5, .st6, .st7, .st8, .st9, .st10, .st11 {
        fill: none;
      }

      .st1, .st2, .st3, .st4, .st5, .st7, .st8, .st9, .st10, .st11 {
        stroke-width: 2px;
      }

      .st2 {
        stroke: #d7a667;
      }

      .st3 {
        stroke: #eacea4;
      }

      .st4 {
        stroke: #82817e;
      }

      .st12 {
        fill: #fff;
      }

      .st13 {
        fill: #dbd8d0;
      }

      .st5 {
        stroke: #dbc4ab;
      }

      .st14 {
        fill: #131311;
      }

      .st15 {
        fill: #d49d48;
      }

      .st7 {
        stroke: #5c5c59;
      }

      .st8 {
        stroke: #77614c;
      }

      .st16 {
        fill: #daaf86;
      }

      .st9 {
        stroke: #c0bfb8;
      }

      .st17 {
        fill: #a5a5a0;
      }

      .st10 {
        stroke: #74582d;
      }

      .st11 {
        stroke: #777671;
      }

      .st18 {
        clip-path: url(#clippath);
      }
    </style>
    <clipPath id="clippath">
      <rect class="st6" width="820" height="778"/>
    </clipPath>
  </defs>
  <g class="st18">
    <g>
      <path class="st1" d="M591.23,0c-11.73.28-23.98,1.37-36.74,3.26-18.23,2.71-35.2,7.63-50.9,14.78-.42.19-.86.29-1.31.3-4.86.08-11.07.09-18.62.02-1.33-.01-2.43.07-3.3.24-2.92.57-5.49.8-8.12,1.77-8.48,3.15-13.83,9.26-16.04,18.32-.1.39-.43,1.85-.98,4.39-.73,3.37-.36,5.77-.34,10.63.05,11.21,7.2,21.9,15.94,28.76,3.09,2.43,6.32,4.51,9.67,6.24.34.17.49.57.35.92-4.7,11.71-8.11,23.82-10.24,36.33-.34,1.99-.14,3.73-.67,5.69-.38,1.43-.53,2.85-.46,4.26.25,4.93-1.01,10.88-.71,16.47.53,9.85.86,15.22.99,16.13.88,6.01,1.06,12.01.55,18-.13,1.61-.93,6.64-2.39,15.11-.43,2.46-.18,4.72-.72,7.03-.32,1.35-.49,3.09-.51,5.24-.03,3.75-.03,7.09.02,10.04,0,.52.08,1.04.22,1.54.95,3.41.53,6.83,1.15,10.42.8,4.66,1.42,8.07,1.85,10.22,2.97,14.76,8.16,28.56,15.58,41.41,4.73,8.2,10.34,15.03,16.82,20.48,16.6,13.95,38.91,16.38,59.92,12.92.42-.07.76-.19,1.02-.38.64-.46,1.14-.48,1.49-.05.07.08.11.17.13.27l4.5,18.55c.06.26-.06.52-.3.63-20.49,9.76-37.35,21.64-50.56,35.63-24.5,25.96-41.55,57.51-54.98,90.98-8.94,22.29-17.26,45.33-24.97,69.1-.1.31-.1.65,0,.96.39,1.27,1.24,2.31,2.55,3.1,5.51,3.34,10.66,6.1,15.45,8.27.32.15.44.53.28.84l-4.46,8.55c-.22.42-.75.56-1.15.32l-34.34-21.1c-.32-.19-.51-.53-.51-.9-.09-208.88-.08-372.07.02-489.56.01-6.23-.43-10.73-1.31-13.48-3.11-9.81-10.09-16.01-20.94-18.6-.58-.14-1.17-.21-1.76-.2-13.98.18-28.35-1.13-42.16-.94-9.4.13-19.85-.71-29.31-.8-8.17-.07-17.39-.31-27.66-.7-9.72-.37-19.72-.02-29.08-.55-14.26-.81-28.37-.22-41.76-1.24-2.92-.22-6.1-.33-9.53-.32-9.22.02-13.51.13-23.78-.61-9.82-.72-23.19.17-32.46-.59-7.45-.61-14.76-.8-21.92-.58-3.61.11-10.76-.12-21.47-.71-5.15-.28-12.65-.35-22.52-.2-1.71.03-6.44-.16-14.17-.57-13.75-.72-28.37-.22-40.83-.76-7.47-.33-12.57-.03-15.3.88C8.05,10.32.41,21.15.39,34c-.11,61.32-.12,234.82-.03,520.5,0,16.08,11.52,29.43,28.14,29.04,21.87-.5,36.71-.1,57.39-1.02,7.21-.33,18.25-.41,33.1-.24,5.14.06,11.19-.16,15.98-.6.37-.03.66.31.58.67-1.03,4.57-.6,9.04-1.53,13.64-.09.47-.14.95-.14,1.44-.01,4.18-.76,7.22-1.04,11.43-.28,4.21-.85,9.5-1.72,15.87-.04.31-.29.55-.61.59-3.85.36-6.19.54-7.01.54-9.85-.01-24.48.06-43.91.21-4.95.03-8.4.59-10.62,4.65-1.68,3.07-2.76,6.67-3.24,10.81-.66,5.72-1.73,11.89-.89,16.94.69,4.13.97,6.36.86,6.69-.1.33-.06.68.12.97.98,1.56,2.24,2.93,3.79,4.12.18.14.4.21.63.21,103.93.03,186.94,0,249.01-.05,3.77,0,10.77-.64,11.8-4.86.15-.63.09-2.63-.18-6.01-.57-7-1.95-14-4.14-21-1.65-5.27-4.46-9.44-8.44-12.5-2.48-1.91-5.26-2.59-8.29-2.48-17.52.64-35.81.84-54.87.59-.38-.01-.67-.36-.59-.74.86-4,1.17-7.89.93-11.67-.05-.87,0-1.74.12-2.6.65-4.22.92-7.43.82-9.63-.11-2.33.1-5.15.61-8.47.42-2.74.51-6.16.28-10.26-.04-.7.53-1.29,1.23-1.26,9.46.3,21.23-1.02,31.33-.94,13.53.09,24.97,0,34.31-.28.29-.01.57.03.84.1l19.96,5.17c.33.09.64.24.91.44,7.95,6.05,15.55,13.19,22.18,19.18,20.43,18.46,40.35,35.88,59.74,52.26,17.06,14.41,39.56,31.6,67.5,51.56.33.23.52.6.53,1,.08,3.29-.19,6.77-.8,10.46-.11.69-.16,1.38-.14,2.08.13,5.48-.88,10.74-.87,16.18,0,4.74-.94,9.2-.87,13.63.03,2.15-.23,4.75-.8,7.81-.12.68-.04,1.37.23,2,1.89,4.27,4.68,4.54,8.39.8" vector-effect="non-scaling-stroke"/>
      <path class="st3" d="M500.97,760.97c1.94.64,3.37,1.06,4.29,1.27,24.43,5.51,50.59,9.5,78.49,11.96,28.88,2.55,54.88,3.45,78.01,2.71,20.05-.65,37.29-1.56,51.74-2.74,28.36-2.32,57-6.95,85.92-13.88" vector-effect="non-scaling-stroke"/>
      <path class="st1" d="M799.42,760.29c.32,2.16,1.7,3.69,4.13,4.58.31.12.66.12.98.02,2.97-.98,4.03-2.86,4.04-6.32.03-9.73.02-17.08-.03-22.07-.07-6,1-14.79.99-22.23,0-7.08-.26-11.34.4-18.59.46-5.07.6-11.09.43-18.08-.22-8.61,1.03-15.17.95-24.01-.05-4.66.08-8.24.39-10.74.97-7.92.14-15.84,1.1-23.65.68-5.6.1-11.04.68-17.06.4-4.22.59-8.48.58-12.78-.02-6.56.74-11.43.91-19.15.14-5.86.94-10.79.84-16.72-.03-2.08.06-4.07.28-5.98.85-7.32.5-13.57,1.23-20.79.63-6.2.14-12.98.83-18.54.7-5.58.17-10.13.89-15.79.91-7.22.81-14.91.96-22.4" vector-effect="non-scaling-stroke"/>
      <path class="st7" d="M591.86,0c.53.29.83.29.9,0" vector-effect="non-scaling-stroke"/>
      <path class="st1" d="M592.9,0c10.33.1,21.38,1,33.13,2.71,12.93,1.88,25.29,4.93,37.07,9.16,16.48,5.9,30.93,15.14,43.35,27.72.17.17.46.11.54-.12.11-.27.09-.58-.04-.92-1.07-2.65-1.37-5.3-.9-7.97.46-2.63,1.76-4.2,3.91-4.73,3.7-.9,6.63.22,8.78,3.35,4.3,6.28,7.27,13.46,8.92,21.54.12.6.62,1.05,1.23,1.11,5.89.59,11.35,2.21,16.36,4.86,1.08.57,2.92,2.35,5.52,5.36.26.3.43.65.52,1.02.6,2.63.09,4.95-1.54,6.96-.22.27-.5.48-.82.62-3.93,1.7-7.94,1.73-12.01.09-.32-.13-.61.23-.41.51,12.72,18.07,18.53,38.23,17.42,60.49-1.04,21.03-6.43,40.89-16.16,59.56-12.73,24.42-28.99,46.53-47.26,68.04-1.99,2.34-4.02,3.83-5.46,5.95-.29.42-.43.91-.42,1.41.33,13.32,2.69,27.52,7.06,42.59.53,1.84.99,3.13,1.37,3.86.16.31.42.55.74.69,18.55,7.91,35.96,16.86,52.24,26.85,12.72,7.81,23.73,15.97,33.04,24.48,19.63,17.94,33.07,39.98,37.85,66.35,1.48,8.13,2.5,17.16,3.07,27.09" vector-effect="non-scaling-stroke"/>
      <path class="st1" d="M820,465.97c-.21.81-.21,1.63,0,2.44" vector-effect="non-scaling-stroke"/>
      <path class="st10" d="M799.42,760.29l4.52-142.19" vector-effect="non-scaling-stroke"/>
      <path class="st8" d="M803.94,618.1l.64-15.89" vector-effect="non-scaling-stroke"/>
      <path class="st10" d="M804.58,602.21c.78-8.61,1.42-18.68,1.92-30.21.9-20.42,2.24-46.08,4.03-76.99,1.03-17.83.91-35.16-.36-51.99-1.23-16.33-6.35-31.87-15.36-46.64-8.18-13.43-20.85-25.75-33.33-35.11-14.31-10.74-30.27-20.44-47.88-29.11-5.29-2.6-11.53-5.54-18.74-8.81-.26-.12-.58,0-.68.28-9.56,24.79-28.15,43.45-51.51,56.01-13.46,7.24-27.25,10.86-41.37,10.87-12.59,0-24.42-4.8-28.91-17.06-.93-2.53-1.34-6.16-1.24-10.9.11-5.3-.01-9.73-.36-13.29-.03-.33-.39-.52-.69-.37-13.3,6.79-25.46,14.13-36.41,23.85-32.34,28.69-50.74,67.42-66.04,106.4-5.49,13.99-11.1,29.38-16.83,46.17-.93,2.71-1.67,5.2-2.23,7.45-.2.82.17,1.68.91,2.1,16.51,9.29,34.03,15.79,52.54,19.5.34.07.66-.18.68-.53,1.7-32.11,4.3-65.77,7.8-101,.23-2.34,2.28-4.08,4.62-3.93h.18c2.32.16,4.05,2.2,3.81,4.51-4.72,45.29-7.43,91.09-9.48,135.46,0,.26.12.5.35.62l45.42,23.71c.37.19.82.08,1.06-.26l37.87-54.21c.31-.45.33-1.03.06-1.5l-1.75-3.03c-.44-.77-.43-1.73.03-2.49,3.22-5.33,7.37-11.94,12.46-19.82,19.71-30.57,39.34-61.19,58.9-91.86,4.84-7.58,9.61-14.71,14.3-21.4,1.26-1.8,3.81-2.12,5.47-.68l.13.12c1.72,1.5,2.07,4.03.84,5.94l-81.42,126.78c-.33.5-.18,1.18.32,1.51,38.31,25.4,74.67,51.48,109.08,78.25.2.15.48.1.61-.11,22.75-37.37,44.54-75.61,65.36-114.7,1.27-2.39,2.74-5.37,5.6-4.3,2.55.95,3.39,2.86,2.51,5.72-.83,2.7-2.08,5.6-3.74,8.71-19.79,37.05-41.01,74.14-63.65,111.29-1.27,2.08-2.3,3.25-3.1,3.52-2.8.94-5.88-.24-8.21-2.13-3.79-3.07-6.86-5.47-9.21-7.2-.38-.28-.93-.21-1.22.17-11.85,15.23-24.02,30.22-36.5,44.95-7.93,9.36-15.39,17.73-22.4,25.11-13.96,14.69-28.69,28.51-47.81,35.35-14.7,5.26-31.9,3.6-46.4-1.83-13.34-5-26.48-12.2-39.43-21.59-.43-.31-1.04-.03-1.07.5l-3.14,46.96" vector-effect="non-scaling-stroke"/>
      <path class="st7" d="M9.49,477.36l-.21,52.42" vector-effect="non-scaling-stroke"/>
      <path class="st11" d="M9.28,529.78c.02,8.66-.04,17.32-.17,25.97-.07,4.65,1.45,8.78,4.54,12.39,5.29,6.19,10.82,6.66,19.46,6.5,15.97-.29,50.13-.94,102.46-1.96,25.67-.5,57.01-.75,86.73-1.6,21.61-.62,27.13-.61,48.84-.76,10.46-.07,24.41-.94,36.42-.89.19,0,.27-.24.12-.35-8.9-6.75-16.54-14.71-22.92-23.88-1.43-2.06-2.72-3.06-4.97-3.53-11.2-2.32-22.66-7.08-30.03-15.98" vector-effect="non-scaling-stroke"/>
      <path class="st7" d="M249.76,525.69c-2.93-3.84-5.22-7.98-6.85-12.42-.19-.52-.7-.85-1.25-.83-6.6.3-15.07.53-25.41.68-85.52,1.25-142.52,2.26-171,3.01-3.21.09-4.82-1.44-4.81-4.57.09-36.13.22-56.16.37-60.08.15-3.53-.04-12.69-.55-27.46-.19-5.26-.11-15.35.24-30.27.26-11.57.23-29.6-.08-54.09-.13-10.2-.16-18.31-.11-24.32.19-20.42-.09-26.73.43-44.86.13-4.36.1-11.21-.08-20.55-.16-8.5-.12-20.98.12-37.43.23-15.59.22-39.81-.05-72.64-.15-18.08-.19-34.16-.12-48.24.09-17.96.28-34.08.59-48.36,0-.61.52-1.1,1.13-1.09l52.19.58" vector-effect="non-scaling-stroke"/>
      <path class="st11" d="M94.52,42.75l280.52,7.05" vector-effect="non-scaling-stroke"/>
      <path class="st7" d="M375.04,49.8c3.12-.05,6.1-.4,6.25,3.77.07,2.24.1,4.05.09,5.43-.3,24.16-.43,54.09-.12,77.37.53,38.65.7,77.11.52,115.38-.02,5.39-.16,10.72-.41,16.01-.49,10.41.2,18.63-.04,28.83-.09,4.24-.13,8.52-.1,12.83.33,53.38.06,99.42.7,149.1" vector-effect="non-scaling-stroke"/>
      <path class="st11" d="M381.93,458.52c-.2,14.13-.22,28.25-.07,42.36.06,5.78,4.79,12.5,8.16,17.36,1.11,1.6,2.72,2.99,4.82,4.18.27.16,4.24,2.46,11.9,6.9.23.14.52-.03.52-.3-.17-32.6-.22-195.36-.16-488.27,0-9.98-6.33-17.98-16.87-18.15-10.71-.18-32.56-.69-65.53-1.54" vector-effect="non-scaling-stroke"/>
      <path class="st7" d="M324.7,21.06l-77.74-1.95" vector-effect="non-scaling-stroke"/>
      <path class="st11" d="M246.96,19.11c-72.73-1.77-145.47-3.53-218.21-5.3-10-.24-18.21,7.13-18.88,17.19-.23,3.43-.34,7.68-.34,12.75-.12,197.81-.19,327.4-.22,388.75-.01,14.89.05,29.85.18,44.86" vector-effect="non-scaling-stroke"/>
      <path class="st9" d="M246.96,19.11l1.72.27c.19.03.23.29.05.37-.8.33-1.71.46-2.74.39-5.45-.39-11.03-.47-16.74-.26-4.64.17-10.66-.38-16.42-.45-24.43-.27-39.22-.51-44.39-.71-12.75-.49-20.46-.72-23.15-.7-8.67.06-16.35-.19-23.06-.74-10.67-.87-22.69.13-33.28-.69-.34-.03-5.99-.2-16.95-.53-13.11-.39-26.61-.81-40.5-1.24-7.99-.25-15.21,1.8-18.93,9.47-1.24,2.56-1.91,5.05-2.01,7.47-.1,2.53-.09,9.86.03,21.99.09,8.97.1,16.3.03,21.99-.27,21.4.08,40.23.01,60.01-.16,44.36-.21,70.69-.14,79,.17,21.92.21,41.31.1,58.17-.15,23.99-.18,43.38-.09,58.17.17,24.73.17,56.59,0,95.58,0,.05.08,6.6.23,19.67.12,10.37-.29,20.71-1.24,31.02" vector-effect="non-scaling-stroke"/>
      <path class="st9" d="M324.7,21.06c-1.57.16-1.56.42.03.79.77.17,1.62.27,2.55.28,7.33.1,15.77.26,25.3.49,3.56.08,6.42.46,9.37.39,2.79-.07,5.13-.07,7.04.01,8.15.34,16.33.23,24.49.86.32.02.64.09.95.2,7.64,2.71,11.46,8.26,11.47,16.67.02,143.09.01,239.21-.02,288.36,0,3.07-.03,6.66-.08,10.78-.13,10.6.22,21.98.12,31.69-.09,7.78-.12,14.75-.1,20.91.14,45.29.19,71.21.16,77.76-.06,11.69,0,24.35.17,37.99.07,5.88-.03,12.03.22,18.89.01.4-.41.66-.76.47l-11.29-6.25c-1.39-.77-2.54-1.9-3.33-3.27l-6.45-11.17c-.98-1.71-1.52-3.64-1.56-5.61-.05-2.53-.1-9.69-.13-21.49-.01-2.53,0-3.97,0-4.31.21-5.49.23-10.74.07-15.75-.04-1.26-.37-1.67-1-1.23" vector-effect="non-scaling-stroke"/>
      <path class="st9" d="M375.04,49.8c.13-.75-.38-1.14-1.53-1.19-4.69-.19-11.09-.33-19.18-.41-7.9-.08-14.29-.2-19.16-.35-36.65-1.19-65.37-2.04-86.17-2.57-7.8-.19-17.28-.22-28.45-.07-4.18.06-8.21-.92-12.57-.89-8.64.07-17.22-.53-25.86-.46-2.36.02-4.77-.07-7.22-.28-5.77-.49-11.61-.67-17.51-.52-4.77.12-8.59-.35-13.57-.15-1.78.07-5.17-.1-10.16-.51-3.19-.26-5.89-.33-8.11-.22-9.7.51-19.39-.13-29.55-.11-.33,0-.64.1-.91.28l-.57.4" vector-effect="non-scaling-stroke"/>
      <path class="st9" d="M249.76,525.69c-.42-.11-.69-.13-.8-.06-.29.19-.33.6-.09.85,6.03,6.19,13.1,10.7,21.21,13.55,3.6,1.26,7.3,2.35,11.1,3.26.71.17,1.34.6,1.75,1.21,5.93,8.76,12.82,16.24,20.66,22.43.71.56.27,1.7-.63,1.65-5.14-.29-10.73-.16-16.76.38-4.83.43-9.31.63-13.42.58-14.96-.15-26.8-.13-35.53.08-18.45.42-30.14.3-45,.83-17.07.6-37.01.53-56.61,1.19-8.17.27-16.54.44-25.13.49-14.53.09-27.7.39-39.51.88-12.78.53-20.34.33-32.99.61-8.37.19-13.26.09-14.68-.28-6.52-1.71-14.02-8.88-13.11-16.33.25-2.08.34-4.31.26-6.69-.22-6.76-.07-13.39-.1-19.29,0-.22-.07-.43-.2-.61-.24-.33-.54-.54-.9-.64" vector-effect="non-scaling-stroke"/>
      <path class="st4" d="M373.17,486.1c.03-1.09-.25-2.13-.25-3.48.19-49.95.03-94.9-.49-134.87-.17-13.39-.08-44.17.28-92.33.15-20.53.07-44.48-.25-71.85-.43-36.35-.31-77.74.34-124.15.01-.58-.46-1.06-1.04-1.05-20.53.15-41.09-.98-59.11-.91-13.28.05-25.59-1.04-38.57-.85-3.73.06-10.62-.13-20.65-.58-11.19-.49-23.74.02-35.15-.73-12.48-.82-22.93-.37-36.12-.97-7.23-.33-16.45-.51-27.66-.54-3.6-.02-7.84-.48-11.95-.56-28.29-.54-56.98-1.22-86.05-2.04-2.2-.06-4.28-.09-6.25-.1-.36,0-.65.29-.65.64.03,74.66.03,142.25,0,202.78,0,17.9-.63,43.7-.57,62.99.15,47.63-.14,84.82.4,132.49.08,7.11.15,25.78.2,56.01,0,.45.36.81.81.8l190.11-3.05c.3-.01.55-.23.58-.52.51-4.35,2.34-7.89,5.47-10.62.75-.65,2.15-1.29,2.97-1.93.29-.23.46-.56.48-.92.42-6.73,1.01-12.17,4.4-17.59,1.71-2.73,3.12-3.58,5.54-5.4.34-.25.55-.65.58-1.07.88-13.43,7.23-22.42,21.32-22.96.39-.02.53-.51.21-.73-10.47-7.01-20.3-14.05-29.47-21.13-5.67-4.37-11.22-9.76-13.95-16.28-5.68-13.55,6.98-22.69,19.28-18.78,6.37,2.03,13.7,6.99,20.14,11,19.05,11.87,36.38,23.06,52.01,33.58,8.84,5.95,16.15,12.98,21.92,21.1,7.53,10.59,14.41,22.16,20.64,34.71.12.25.5.17.51-.11" vector-effect="non-scaling-stroke"/>
      <path class="st8" d="M479.61,124.94l-1.25,7.48c-.02.12.1.22.22.17,7.79-3.41,15.71-3.46,23.75-.15,2.9,1.19,4.96,4.63,3.02,7.63-1.86,2.88-5.45,1.56-8.31.55-6.66-2.33-13.12-1.18-18.76,3.31-.41.33-.66.82-.67,1.34-.28,9.01.2,18.51,1.43,28.52.68,5.56.46,11.34-.51,17.17-1.51,9.11-2.45,14.03-2.93,21.11-.57,8.33.16,18.05,2.18,29.17,3.93,21.65,12.59,43.83,28.47,59.01,11.69,11.17,30.83,14.83,46.49,13.1,16.78-1.85,32.33-6.93,46.66-15.24,1.99-1.15,4.53-.22,5.3,1.94l.07.19c.85,2.36-.12,4.99-2.29,6.25-10.19,5.87-19.66,9.82-28.41,11.86-.45.1-.73.57-.61,1.02,2.65,9.95,4.54,18.57,5.68,25.88.96,6.13,1.31,10.81,1.04,14.03-.35,4.26-.29,7.82.2,10.68.87,5.08,6.17,9.19,11.48,10.58,12.77,3.34,25.81.51,38.29-4.63,24.56-10.1,47.79-30.31,55.95-56.03.16-.51.15-1.06-.04-1.57-6.72-17.89-9.67-37.41-10.22-56-.07-2.45-.07-9.97.02-22.54,0-.58-.55-1-1.11-.84-2.77.77-4.48,1.24-5.15,1.4-3.41.81-14.78,1.11-17.42-2.99-2-3.09.26-7.2,4.08-6.68,3.72.52,7.49,1.71,11.82.9,14.25-2.66,22.8-12.96,28.33-25.93,4.44-10.39,7.14-25.52,1.36-35.73-6.52-11.52-20.27-12.1-30.9-6.23-7.7,4.25-13.21,10.73-16.52,19.46-.45,1.17-1.52,4.36-3.21,9.58-.1.31-.39.53-.72.54-2.95.09-8.11.14-15.48.16-3.53,0-5.53-1.6-6-4.83-.3-2.13-.78-6.16-1.44-12.07-1.17-10.67-8.52-18.79-14.23-28.03-6.23-10.08-9.21-20.92-8.96-32.51" vector-effect="non-scaling-stroke"/>
      <path class="st11" d="M600.31,115.97c.77-10.76,3.99-20.43,9.67-29.01.15-.22-.04-.52-.3-.47-13.88,2.43-25.3,4.49-34.27,6.18-23.64,4.45-47.1,6.37-70.17,3.58-5.31-.64-10.51-1.73-15.6-3.27-.31-.09-.63.07-.75.36-4.14,10.18-7.23,20.71-9.28,31.6" vector-effect="non-scaling-stroke"/>
      <path class="st5" d="M600.31,115.97c-1.24.73-1.61-.44-1.12-3.49,1.25-7.71,3.73-15.06,7.44-22.05.41-.76-.05-1.7-.91-1.85-.73-.13-1.53-.02-2.41.35-.19.08-.38.13-.59.16-10.5,1.45-20.45,3.2-29.86,5.23-4.02.87-7.15,1.03-11.52,1.93-1.66.34-4.56.69-8.7,1.05-3.85.33-7.83.72-11.94,1.17-6.47.69-12,.11-17.87.29-4.53.13-8.98-.09-13.36-.67-7.57-1.01-13.71-2.22-18.42-3.63-.74-.23-1.53.15-1.82.87-2.43,5.97-4.69,12.78-6.79,20.44-.28,1.02-.89,4.12-1.82,9.29-.03.15-.14.26-.29.29-.29.07-.53-.06-.72-.41" vector-effect="non-scaling-stroke"/>
      <path class="st8" d="M270.44,473.34c-2.09-.47-4.07-.12-5.94,1.05-4.15,2.59-5.21,8.32-5.31,12.82-.01.36.31.64.66.58,8.22-1.31,17.89-.34,29.01,2.9,2.24.65,3.52,3,2.86,5.24l-.07.24c-.69,2.32-3.09,3.68-5.43,3.08-9.97-2.55-18.95-3.28-26.94-2.17-4.39.61-9.88,2.71-9,7.91,2.04,11.93,9.1,20.41,20.25,24.5,3.01,1.11,4.81,1.78,5.39,2.02.49.2.96-.33.69-.79l-2.8-4.86c-.33-.56-.84-1-1.45-1.23l-10.03-3.73c-2.24-.84-3.41-3.3-2.64-5.57l.09-.26c.79-2.14,3.16-3.23,5.3-2.45,6.02,2.19,9.84,3.59,11.47,4.18,2.61.95,4.18,2.02,4.72,3.2,2.19,4.76,3.68,7.92,4.49,9.49,10.25,19.87,26.43,36.07,48.1,42.14,4.25,1.19,8.72,2.34,13.41,3.45,1.75.41,3.37,1.23,4.73,2.41,1.04.89,4.26,3.77,9.67,8.62,7.33,6.57,22.17,19.74,44.5,39.5,22.27,19.71,46.2,38.81,67.51,55.22,18.43,14.2,39.59,28.92,61.22,40.58,9.94,5.35,20.31,8.6,31.11,9.74,22.6,2.39,42.27-10.91,57.67-26.48,24.01-24.29,46.47-52.37,67.55-78.44.29-.36.23-.89-.14-1.17-28.87-21.89-58.25-42.78-88.14-62.66-.28-.19-.67-.12-.86.16l-32.14,46.32" vector-effect="non-scaling-stroke"/>
      <path class="st11" d="M569.95,608.88l-5.85,8.25c-.24.35-.13.83.24,1.03l9.64,5.34c1.97,1.09,2.68,3.57,1.58,5.53l-.14.24c-1.17,2.02-3.72,2.75-5.78,1.67-8.47-4.13-14.82-7.39-19.03-9.8-22.14-12.63-47.88-25.25-63.71-33.81-22.63-12.23-42.72-23.57-65.45-37.8-5.11-3.2-15.37-9.66-30.76-19.38-2.69-1.69-4.48-3.04-5.37-4.03-3.28-3.65-6.45-8.49-8.5-12.46-13.43-25.95-19.28-38.9-31.53-56.27-5.36-7.59-12.04-14.07-20.03-19.44-24.91-16.73-46.29-30.4-64.14-41.02-3.82-2.27-10.6-4.71-14.08-1.3-5.35,5.24,9.76,17.43,13.28,20.04,11.96,8.89,24.45,17.64,37.48,26.27.78.51,1.64,1.02,2.59,1.52.41.21.84.37,1.28.48,5.97,1.45,12.48,3.58,19.52,6.39,2.11.84,3.07,3.29,2.1,5.34l-.14.3c-1.03,2.18-3.56,3.19-5.81,2.33-9.84-3.8-18.96-6.09-27.37-6.87-9.55-.89-19.53.39-20.04,12.09,0,.18.14.34.32.33,9.95-.15,20.24,1.67,30.86,5.48,2.1.75,3.22,3.03,2.54,5.15l-.07.22c-.68,2.13-2.9,3.37-5.08,2.84-4.8-1.19-9.13-2.28-13-3.28-4.87-1.27-9.89-1.57-15.06-.92" vector-effect="non-scaling-stroke"/>
      <path class="st5" d="M569.95,608.88c.59.14.8.64.49,1.13-1.39,2.18-2.86,4.26-4.4,6.23-.62.79-.28,1.96.66,2.29,2.93,1.04,12.17,5.32,10.34,9.78-1.78,4.33-4.9,5.38-9.36,3.15-8.74-4.37-16.42-8.51-23.03-12.42-5.94-3.51-11.51-5.73-17.24-9.26-.15-.09-.51-.24-.98-.4-.45-.15-.93-.36-1.44-.63-9.51-5.05-18.86-9.93-28.04-14.64-9.55-4.9-18.82-9.91-27.81-15.02-13.1-7.45-22.93-13.11-29.49-17-8.34-4.95-25.88-15.96-52.62-33.03-.35-.23-.68-.49-.98-.8-3.26-3.31-5.99-6.84-8.2-10.57-2.83-4.82-6.23-11.23-10.2-19.24-1.06-2.13-2.78-5.35-5.16-9.66-.55-1.01-2.25-4.23-5.1-9.68-2.64-5.07-6.77-11.66-12.4-19.78-1.22-1.76-2.73-3.04-3.41-4.58-.24-.53-.56-1.02-.95-1.44-5-5.4-8.05-8.46-9.15-9.18-2.55-1.67-4.16-2.95-4.85-3.85-.11-.13-.23-.25-.37-.34-13.28-8.96-27.32-18.08-42.12-27.35-2.19-1.37-4.32-2.71-6.39-4-10.67-6.66-16.35-10.17-17.03-10.54-3.2-1.72-9.89-5.28-12.67-1.64-.71.93-.97,1.72-.79,2.37,1.12,4.09,3.41,7.66,6.88,10.72,4.45,3.92,10.7,8.62,18.77,14.1,4.09,2.78,8.71,6.05,13.86,9.8,5.33,3.89,10.1,6.99,14.31,9.3.34.19.7.33,1.08.42,6.03,1.57,10.84,2.92,14.43,4.05,2.99.95,5.2,2.14,6.61,3.56,2.57,2.59,1.99,6.76-1.59,8.32-1.49.65-2.92.76-4.28.33-2.1-.67-5.17-1.65-9.2-2.96-8.84-2.87-18.15-3.96-27.92-3.29-2.93.2-5.61,1.7-7.31,4.09l-.92,1.3c-1.31,1.84,0,4.39,2.27,4.38,8.27-.03,17.26,1.77,26.96,5.38.62.23,1.62,1.1,3,2.61.23.25.38.57.44.9.35,2.08,0,3.75-1.08,5-2.13,2.49-5.78,2.1-8.63,1.2-7.67-2.44-15.84-3.99-24.5-4.65" vector-effect="non-scaling-stroke"/>
      <path class="st8" d="M501.12,584.49l1.14-20.58c.02-.36-.23-.68-.59-.75-12.31-2.27-24.33-5.79-36.06-10.58-.39-.16-.84,0-1.05.37l-4.31,7.8c-.4.73-.14,1.65.58,2.05l39.75,21.99c.24.13.53-.03.54-.3" vector-effect="non-scaling-stroke"/>
      <path class="st11" d="M248.84,580.42c.01-.17-.13-.32-.3-.31l-104.02,1.67c-.15,0-.28.12-.29.27l-4.04,43.23c-.02.18.12.33.3.33l105.62-1.01c.16,0,.29-.12.3-.28l2.43-43.9" vector-effect="non-scaling-stroke"/>
      <path class="st7" d="M223.97,634.12c-2.58-.04-5.15-.05-7.72-.04-36.09.15-72.17.17-108.25.07-6.93-.02-16.51.22-28.76.71" vector-effect="non-scaling-stroke"/>
      <path class="st11" d="M79.24,634.86c-1.86-.02-2.95.47-3.26,1.48-2.13,6.97-2.73,15.16-1.8,24.59.03.26.25.46.52.46h246.63c.3,0,.54-.24.55-.53.23-6.86-2.09-26.67-10.95-28.54-.46-.09-2.24-.1-5.34-.02-16.75.45-32.06.75-45.91.89-10.37.1-23.8.89-35.71.93" vector-effect="non-scaling-stroke"/>
      <path class="st9" d="M79.24,634.86c-1.67,1.25-2.65,2.65-2.93,4.2-1.17,6.45-1.6,13-1.31,19.65.03.8.7,1.43,1.5,1.43h243.98c.36,0,.65-.29.64-.65-.15-8.57-2.15-16.19-5.98-22.86-.61-1.06-1.66-1.99-3.16-2.78-.29-.15-.6-.23-.92-.24-2.88-.1-6.4-.1-10.55,0-6.83.17-13.67.29-20.5.37-1.89.02-4.99.17-9.3.45-3.89.26-6.99.39-9.31.4-11.08.06-23.57.07-37.47.03-.17,0-.34-.04-.49-.12l-.3-.15c-.11-.05-.07-.22.05-.23.32-.03.58-.11.78-.24" vector-effect="non-scaling-stroke"/>
      <path class="st4" d="M213.94,243.88c41.78,1.67,77.07-32.43,78.83-76.17,1.76-43.75-30.69-80.57-72.47-82.24-41.78-1.67-77.07,32.43-78.83,76.17-1.76,43.75,30.69,80.57,72.47,82.24" vector-effect="non-scaling-stroke"/>
      <path class="st4" d="M338.33,280.88c0-2.42-1.96-4.38-4.38-4.38H101.65c-2.42,0-4.38,1.96-4.38,4.38v.06c0,2.42,1.96,4.38,4.38,4.38h232.3c2.42,0,4.38-1.96,4.38-4.38v-.06" vector-effect="non-scaling-stroke"/>
      <path class="st4" d="M338.28,319.36c0-2.5-2.02-4.52-4.52-4.52H101.88c-2.5,0-4.52,2.02-4.52,4.52v.08c0,2.5,2.02,4.52,4.52,4.52h231.88c2.5,0,4.52-2.02,4.52-4.52v-.08" vector-effect="non-scaling-stroke"/>
      <path class="st4" d="M338.37,360.86c0-2.47-2.01-4.47-4.48-4.46l-232.12.41c-2.47,0-4.46,2.01-4.46,4.48v.06c0,2.47,2.01,4.47,4.48,4.46l232.12-.41c2.47,0,4.46-2.01,4.46-4.48v-.06" vector-effect="non-scaling-stroke"/>
      <path class="st4" d="M217.31,402.68c-.02-2.62-2.15-4.72-4.77-4.71l-110.46.77c-2.62.01-4.72,2.15-4.71,4.77l.23,33.2c.02,2.62,2.15,4.72,4.77,4.71l110.46-.77c2.62-.01,4.72-2.15,4.71-4.77l-.23-33.2" vector-effect="non-scaling-stroke"/>
      <path class="st11" d="M265.68,213.11c3.39-3.97,6.5-8.57,9.35-13.8,10.86-19.98,12.39-42.05,3.29-63.15-7.55-17.5-22.22-33.11-40.56-38.67-9.11-2.77-18.69-3.64-28.74-2.61-17.81,1.82-34.57,12.83-44.9,26.85-11.3,15.35-15.84,35.2-13.08,54.31,2.13,14.77,8.68,27.3,18.4,38.58.17.2.49.15.6-.09,4.3-9.81,10.16-17.68,19.98-22.85,13.8-7.25,28.22-8.94,43.27-5.07,14.49,3.73,25.77,12.45,31.61,26.38.13.32.56.38.78.12" vector-effect="non-scaling-stroke"/>
      <path class="st7" d="M207.78,234.38c4.97.64,10.22.63,15.75-.02" vector-effect="non-scaling-stroke"/>
      <path class="st11" d="M223.53,234.36c12.01-1.22,23.01-5.7,32.99-13.45.61-.47.84-1.28.57-1.99-8.42-22.77-31.53-29.53-53.52-23.36-13.12,3.68-22.2,12.37-25.95,25.18-.13.47.02.97.4,1.27,8.56,6.81,18.48,10.94,29.76,12.37" vector-effect="non-scaling-stroke"/>
      <path class="st9" d="M223.53,234.36h-.96c-.1,0-.19-.04-.27-.1-.16-.12-.22-.27-.18-.46.04-.16.18-.27.34-.28,1.89-.11,3.06-.21,3.52-.32,6.96-1.66,11.81-3.05,14.55-4.16,5.55-2.27,10.57-5.19,15.06-8.76.34-.27.47-.73.33-1.14-2.37-6.65-6.22-12.09-11.57-16.32-6.98-5.53-15.24-8.32-24.79-8.36-10.61-.04-23.18,2.96-30.82,9.97-4.41,4.05-7.72,9.07-9.92,15.04-.35.95-.03,2.02.79,2.61,5.94,4.3,12.48,7.52,19.62,9.66.01,0,1.39.29,4.13.85,1.63.33,3.1.93,4.42,1.79" vector-effect="non-scaling-stroke"/>
      <path class="st8" d="M542.19,139.67c-.06,2.2,1.68,4.04,3.88,4.1,9.81.28,16.61-.59,22.17,4.74.45.43,1.62,2.07,3.52,4.92.17.26.4.49.67.65,1.62.99,3.28.9,4.97-.28,2.45-1.71,2.8-3.98,1.06-6.82-6.98-11.39-19.29-13.61-32.23-12.01-2.25.28-3.97,2.16-4.03,4.43v.27" vector-effect="non-scaling-stroke"/>
      <path class="st8" d="M490.87,192.99c3.52-.39,5.83-5.62,5.16-11.69-.67-6.07-4.06-10.67-7.58-10.28-3.52.39-5.83,5.62-5.16,11.69.67,6.07,4.06,10.67,7.58,10.28" vector-effect="non-scaling-stroke"/>
      <path class="st8" d="M690.37,177.37c.05-4.5-3.11-6.53-7.4-6.42-9.3.24-16.74,9.11-20.81,16.72-1.6,3-3.52,7.8-.78,10.45,1.95,1.88,5.19,1.24,6.36-.92.28-.52,1.26-2.52,2.93-6,2.01-4.19,8.03-11.19,13.58-10.54,2.15.25,3.47.2,3.98-.15,1.41-1,2.13-2.05,2.14-3.14" vector-effect="non-scaling-stroke"/>
      <path class="st5" d="M506.19,175.33c-1.66,6.03-3.86,11.78-6.61,17.25-2.98,5.96-6.05,11.38-8.26,17.04-1.56,4.01-4.05,10.45-2.74,14.73,1.35,4.43,3.83,7.49,7.43,9.2,3.01,1.43,7.12,2.52,12.34,3.27,1.7.24,3.06.31,4.09.2,3.5-.35,7.34.69,10.25-.68,1.88-.89,2.86-2.76,2.93-5.59.05-1.59-.31-2.14-1.08-1.63" vector-effect="non-scaling-stroke"/>
      <path class="st8" d="M524.54,229.12c-1.09-1.58-2.44-2.41-4.03-2.48-9.11-.43-14.52-.82-16.23-1.19-2.54-.53-5.52-1.65-5.37-4.68.11-2.23.65-4.47,1.61-6.74,1.81-4.29,4.16-9.09,7.05-14.42,3.52-6.5,7.57-15.15,7.3-22.1-.13-3.27-1.67-4.76-4.62-4.49-.79.07-2.14.84-4.06,2.31" vector-effect="non-scaling-stroke"/>
      <path class="st11" d="M524.54,229.12c1.03,3.96-.15,6.18-3.52,6.66-2.64.38-7.48.21-14.52-.52-12.02-1.25-19.93-6.9-16.02-20.19,2.21-7.53,5.46-13.22,10.68-22.94,2.92-5.43,4.6-11.03,5.03-16.8" vector-effect="non-scaling-stroke"/>
      <path class="st8" d="M548.46,197.12c3.58.34,6.9-3.9,7.44-9.48.53-5.57-1.95-10.37-5.53-10.71-3.58-.33-6.9,3.9-7.44,9.48-.53,5.57,1.95,10.37,5.53,10.71" vector-effect="non-scaling-stroke"/>
      <path class="st8" d="M534.62,260.82c-6.77.85-13.14.28-19.11-1.71-1.62-.54-2.84-.73-3.65-.56-3.02.61-4.36,3.9-2.86,6.45.69,1.17,1.88,2.03,3.57,2.59,7.54,2.48,15.26,3.22,23.18,2.23,7.91-.99,15.22-3.61,21.91-7.88,1.51-.95,2.45-2.08,2.82-3.38.83-2.84-1.28-5.7-4.36-5.55-.83.04-1.96.52-3.4,1.44-5.3,3.4-11.33,5.52-18.1,6.37" vector-effect="non-scaling-stroke"/>
      <path class="st11" d="M218.28,181.52c15.72.11,28.55-14.32,28.68-32.23.12-17.91-12.51-32.52-28.22-32.63-15.72-.11-28.55,14.32-28.68,32.23-.12,17.91,12.51,32.52,28.22,32.63" vector-effect="non-scaling-stroke"/>
      <path class="st7" d="M199.07,145.88c-.52,4.1-.13,8.28,1.13,12.11" vector-effect="non-scaling-stroke"/>
      <path class="st11" d="M200.2,157.99c3.34,10.14,12.12,16.06,21.16,14.26,3.68-.73,7.14-2.71,9.95-5.69,3.11-3.3,5.28-7.67,6.22-12.5.72-3.7.68-7.54-.11-11.19-2.06-9.56-8.93-16.44-17.16-17.21-5.16-.49-10.3,1.51-14.3,5.54-3.71,3.74-6.16,8.97-6.89,14.68" vector-effect="non-scaling-stroke"/>
      <path class="st9" d="M200.2,157.99c2.91,6.22,6.92,10.28,12.03,12.17,9.21,3.4,18.72-.85,22.3-10.08,4.79-12.34,2.49-29.86-13.1-32.9-5.08-.99-9.4-.07-12.97,2.77-4.53,3.6-7.66,8.91-9.39,15.93" vector-effect="non-scaling-stroke"/>
      <path class="st2" d="M804.58,602.21c-1.45,5.24-1.67,10.54-.64,15.89" vector-effect="non-scaling-stroke"/>
      <path class="st4" d="M208.6,407.05c0-.25-.21-.46-.46-.46l-101.3.53c-.25,0-.45.2-.46.46l.13,24.5c0,.25.21.46.46.46l101.3-.53c.25,0,.45-.2.46-.46l-.13-24.5" vector-effect="non-scaling-stroke"/>
      <path class="st9" d="M245.43,622.71l2.23-40.37c.04-.79-.61-1.45-1.4-1.42-14.98.65-30.9,1.02-47.76,1.13-5.1.03-11.31,1.04-16.67.86-9.35-.3-18.3-.22-26.85.25-.19.01-.37,0-.56-.04-1.67-.34-3.28-.35-4.85-.02-.38.08-.76.07-1.13-.02l-1.79-.47c-.77-.19-1.53.34-1.6,1.13l-3.7,39.66c-.05.59.41,1.1,1,1.09l102.23-.98c.45,0,.82-.35.85-.8" vector-effect="non-scaling-stroke"/>
    </g>
  </g>
  <path class="st14" d="M591.86,0c.53.29.83.29.9,0h.14c10.33.1,21.38,1,33.13,2.71,12.93,1.88,25.29,4.93,37.07,9.16,16.48,5.9,30.93,15.14,43.35,27.72.17.17.46.11.54-.12.11-.27.09-.58-.04-.92-1.07-2.65-1.37-5.3-.9-7.97.46-2.63,1.76-4.2,3.91-4.73,3.7-.9,6.63.22,8.78,3.35,4.3,6.28,7.27,13.46,8.92,21.54.12.6.62,1.05,1.23,1.11,5.89.59,11.35,2.21,16.36,4.86,1.08.57,2.92,2.35,5.52,5.36.26.3.43.65.52,1.02.6,2.63.09,4.95-1.54,6.96-.22.27-.5.48-.82.62-3.93,1.7-7.94,1.73-12.01.09-.32-.13-.61.23-.41.51,12.72,18.07,18.53,38.23,17.42,60.49-1.04,21.03-6.43,40.89-16.16,59.56-12.73,24.42-28.99,46.53-47.26,68.04-1.99,2.34-4.02,3.83-5.46,5.95-.29.42-.43.91-.42,1.41.33,13.32,2.69,27.52,7.06,42.59.53,1.84.99,3.13,1.37,3.86.16.31.42.55.74.69,18.55,7.91,35.96,16.86,52.24,26.85,12.72,7.81,23.73,15.97,33.04,24.48,19.63,17.94,33.07,39.98,37.85,66.35,1.48,8.13,2.5,17.16,3.07,27.09v7.34c-.21.81-.21,1.63,0,2.44v1.58c-.15,7.49-.05,15.18-.96,22.4-.72,5.66-.19,10.21-.89,15.79-.69,5.56-.2,12.34-.83,18.54-.73,7.22-.38,13.47-1.23,20.79-.22,1.91-.31,3.9-.28,5.98.1,5.93-.7,10.86-.84,16.72-.17,7.72-.93,12.59-.91,19.15.01,4.3-.18,8.56-.58,12.78-.58,6.02,0,11.46-.68,17.06-.96,7.81-.13,15.73-1.1,23.65-.31,2.5-.44,6.08-.39,10.74.08,8.84-1.17,15.4-.95,24.01.17,6.99.03,13.01-.43,18.08-.66,7.25-.4,11.51-.4,18.59,0,7.44-1.06,16.23-.99,22.23.05,4.99.06,12.34.03,22.07-.01,3.46-1.07,5.34-4.04,6.32-.32.1-.67.1-.98-.02-2.43-.89-3.81-2.42-4.13-4.58l4.52-142.19.64-15.89c.78-8.61,1.42-18.68,1.92-30.21.9-20.42,2.24-46.08,4.03-76.99,1.03-17.83.91-35.16-.36-51.99-1.23-16.33-6.35-31.87-15.36-46.64-8.18-13.43-20.85-25.75-33.33-35.11-14.31-10.74-30.27-20.44-47.88-29.11-5.29-2.6-11.53-5.54-18.74-8.81-.26-.12-.58,0-.68.28-9.56,24.79-28.15,43.45-51.51,56.01-13.46,7.24-27.25,10.86-41.37,10.87-12.59,0-24.42-4.8-28.91-17.06-.93-2.53-1.34-6.16-1.24-10.9.11-5.3-.01-9.73-.36-13.29-.03-.33-.39-.52-.69-.37-13.3,6.79-25.46,14.13-36.41,23.85-32.34,28.69-50.74,67.42-66.04,106.4-5.49,13.99-11.1,29.38-16.83,46.17-.93,2.71-1.67,5.2-2.23,7.45-.2.82.17,1.68.91,2.1,16.51,9.29,34.03,15.79,52.54,19.5.34.07.66-.18.68-.53,1.7-32.11,4.3-65.77,7.8-101,.23-2.34,2.28-4.08,4.62-3.93h.18c2.32.16,4.05,2.2,3.81,4.51-4.72,45.29-7.43,91.09-9.48,135.46,0,.26.12.5.35.62l45.42,23.71c.37.19.82.08,1.06-.26l37.87-54.21c.31-.45.33-1.03.06-1.5l-1.75-3.03c-.44-.77-.43-1.73.03-2.49,3.22-5.33,7.37-11.94,12.46-19.82,19.71-30.57,39.34-61.19,58.9-91.86,4.84-7.58,9.61-14.71,14.3-21.4,1.26-1.8,3.81-2.12,5.47-.68l.13.12c1.72,1.5,2.07,4.03.84,5.94l-81.42,126.78c-.33.5-.18,1.18.32,1.51,38.31,25.4,74.67,51.48,109.08,78.25.2.15.48.1.61-.11,22.75-37.37,44.54-75.61,65.36-114.7,1.27-2.39,2.74-5.37,5.6-4.3,2.55.95,3.39,2.86,2.51,5.72-.83,2.7-2.08,5.6-3.74,8.71-19.79,37.05-41.01,74.14-63.65,111.29-1.27,2.08-2.3,3.25-3.1,3.52-2.8.94-5.88-.24-8.21-2.13-3.79-3.07-6.86-5.47-9.21-7.2-.38-.28-.93-.21-1.22.17-11.85,15.23-24.02,30.22-36.5,44.95-7.93,9.36-15.39,17.73-22.4,25.11-13.96,14.69-28.69,28.51-47.81,35.35-14.7,5.26-31.9,3.6-46.4-1.83-13.34-5-26.48-12.2-39.43-21.59-.43-.31-1.04-.03-1.07.5l-3.14,46.96c-3.71,3.74-6.5,3.47-8.39-.8-.27-.63-.35-1.32-.23-2,.57-3.06.83-5.66.8-7.81-.07-4.43.87-8.89.87-13.63,0-5.44,1-10.7.87-16.18-.02-.7.03-1.39.14-2.08.61-3.69.88-7.17.8-10.46,0-.4-.2-.77-.53-1-27.94-19.96-50.44-37.15-67.5-51.56-19.39-16.38-39.31-33.8-59.74-52.26-6.63-5.99-14.23-13.13-22.18-19.18-.27-.2-.58-.35-.91-.44l-19.96-5.17c-.27-.07-.55-.11-.84-.1-9.34.28-20.78.37-34.31.28-10.1-.08-21.87,1.24-31.33.94-.7-.03-1.27.56-1.23,1.26.23,4.1.14,7.52-.28,10.26-.51,3.32-.72,6.14-.61,8.47.1,2.2-.17,5.41-.82,9.63-.13.86-.17,1.73-.12,2.6.24,3.78-.07,7.67-.93,11.67-.08.38.21.73.59.74,19.06.25,37.35.05,54.87-.59,3.03-.11,5.81.57,8.29,2.48,3.98,3.06,6.79,7.23,8.44,12.5,2.19,7,3.57,14,4.14,21,.27,3.38.33,5.38.18,6.01-1.03,4.22-8.03,4.86-11.8,4.86-62.07.06-145.08.08-249.01.05-.23,0-.45-.07-.63-.21-1.55-1.19-2.81-2.56-3.79-4.12-.18-.29-.22-.64-.12-.97.11-.33-.17-2.56-.86-6.69-.84-5.05.23-11.22.89-16.94.48-4.14,1.56-7.74,3.24-10.81,2.22-4.06,5.67-4.62,10.62-4.65,19.43-.15,34.06-.22,43.91-.21.82,0,3.16-.18,7.01-.54.32-.04.57-.28.61-.59.87-6.37,1.44-11.66,1.72-15.87.28-4.21,1.03-7.25,1.04-11.43,0-.49.05-.97.14-1.44.93-4.6.5-9.07,1.53-13.64.08-.36-.21-.7-.58-.67-4.79.44-10.84.66-15.98.6-14.85-.17-25.89-.09-33.1.24-20.68.92-35.52.52-57.39,1.02-16.62.39-28.14-12.96-28.14-29.04-.09-285.68-.08-459.18.03-520.5.02-12.85,7.66-23.68,20.06-27.84,2.73-.91,7.83-1.21,15.3-.88,12.46.54,27.08.04,40.83.76,7.73.41,12.46.6,14.17.57,9.87-.15,17.37-.08,22.52.2,10.71.59,17.86.82,21.47.71,7.16-.22,14.47-.03,21.92.58,9.27.76,22.64-.13,32.46.59,10.27.74,14.56.63,23.78.61,3.43-.01,6.61.1,9.53.32,13.39,1.02,27.5.43,41.76,1.24,9.36.53,19.36.18,29.08.55,10.27.39,19.49.63,27.66.7,9.46.09,19.91.93,29.31.8,13.81-.19,28.18,1.12,42.16.94.59-.01,1.18.06,1.76.2,10.85,2.59,17.83,8.79,20.94,18.6.88,2.75,1.32,7.25,1.31,13.48-.1,117.49-.11,280.68-.02,489.56,0,.37.19.71.51.9l34.34,21.1c.4.24.93.1,1.15-.32l4.46-8.55c.16-.31.04-.69-.28-.84-4.79-2.17-9.94-4.93-15.45-8.27-1.31-.79-2.16-1.83-2.55-3.1-.1-.31-.1-.65,0-.96,7.71-23.77,16.03-46.81,24.97-69.1,13.43-33.47,30.48-65.02,54.98-90.98,13.21-13.99,30.07-25.87,50.56-35.63.24-.11.36-.37.3-.63l-4.5-18.55c-.02-.1-.06-.19-.13-.27-.35-.43-.85-.41-1.49.05-.26.19-.6.31-1.02.38-21.01,3.46-43.32,1.03-59.92-12.92-6.48-5.45-12.09-12.28-16.82-20.48-7.42-12.85-12.61-26.65-15.58-41.41-.43-2.15-1.05-5.56-1.85-10.22-.62-3.59-.2-7.01-1.15-10.42-.14-.5-.21-1.02-.22-1.54-.05-2.95-.05-6.29-.02-10.04.02-2.15.19-3.89.51-5.24.54-2.31.29-4.57.72-7.03,1.46-8.47,2.26-13.5,2.39-15.11.51-5.99.33-11.99-.55-18-.13-.91-.46-6.28-.99-16.13-.3-5.59.96-11.54.71-16.47-.07-1.41.08-2.83.46-4.26.53-1.96.33-3.7.67-5.69,2.13-12.51,5.54-24.62,10.24-36.33.14-.35-.01-.75-.35-.92-3.35-1.73-6.58-3.81-9.67-6.24-8.74-6.86-15.89-17.55-15.94-28.76-.02-4.86-.39-7.26.34-10.63.55-2.54.88-4,.98-4.39,2.21-9.06,7.56-15.17,16.04-18.32,2.63-.97,5.2-1.2,8.12-1.77.87-.17,1.97-.25,3.3-.24,7.55.07,13.76.06,18.62-.02.45-.01.89-.11,1.31-.3,15.7-7.15,32.67-12.07,50.9-14.78,12.76-1.89,25.01-2.98,36.74-3.26h.63ZM9.49,477.36l-.21,52.42c.02,8.66-.04,17.32-.17,25.97-.07,4.65,1.45,8.78,4.54,12.39,5.29,6.19,10.82,6.66,19.46,6.5,15.97-.29,50.13-.94,102.46-1.96,25.67-.5,57.01-.75,86.73-1.6,21.61-.62,27.13-.61,48.84-.76,10.46-.07,24.41-.94,36.42-.89.19,0,.27-.24.12-.35-8.9-6.75-16.54-14.71-22.92-23.88-1.43-2.06-2.72-3.06-4.97-3.53-11.2-2.32-22.66-7.08-30.03-15.98-2.93-3.84-5.22-7.98-6.85-12.42-.19-.52-.7-.85-1.25-.83-6.6.3-15.07.53-25.41.68-85.52,1.25-142.52,2.26-171,3.01-3.21.09-4.82-1.44-4.81-4.57.09-36.13.22-56.16.37-60.08.15-3.53-.04-12.69-.55-27.46-.19-5.26-.11-15.35.24-30.27.26-11.57.23-29.6-.08-54.09-.13-10.2-.16-18.31-.11-24.32.19-20.42-.09-26.73.43-44.86.13-4.36.1-11.21-.08-20.55-.16-8.5-.12-20.98.12-37.43.23-15.59.22-39.81-.05-72.64-.15-18.08-.19-34.16-.12-48.24.09-17.96.28-34.08.59-48.36,0-.61.52-1.1,1.13-1.09l52.19.58,280.52,7.05c3.12-.05,6.1-.4,6.25,3.77.07,2.24.1,4.05.09,5.43-.3,24.16-.43,54.09-.12,77.37.53,38.65.7,77.11.52,115.38-.02,5.39-.16,10.72-.41,16.01-.49,10.41.2,18.63-.04,28.83-.09,4.24-.13,8.52-.1,12.83.33,53.38.06,99.42.7,149.1-.2,14.13-.22,28.25-.07,42.36.06,5.78,4.79,12.5,8.16,17.36,1.11,1.6,2.72,2.99,4.82,4.18.27.16,4.24,2.46,11.9,6.9.23.14.52-.03.52-.3-.17-32.6-.22-195.36-.16-488.27,0-9.98-6.33-17.98-16.87-18.15-10.71-.18-32.56-.69-65.53-1.54l-77.74-1.95c-72.73-1.77-145.47-3.53-218.21-5.3-10-.24-18.21,7.13-18.88,17.19-.23,3.43-.34,7.68-.34,12.75-.12,197.81-.19,327.4-.22,388.75-.01,14.89.05,29.85.18,44.86ZM373.17,486.1c.03-1.09-.25-2.13-.25-3.48.19-49.95.03-94.9-.49-134.87-.17-13.39-.08-44.17.28-92.33.15-20.53.07-44.48-.25-71.85-.43-36.35-.31-77.74.34-124.15.01-.58-.46-1.06-1.04-1.05-20.53.15-41.09-.98-59.11-.91-13.28.05-25.59-1.04-38.57-.85-3.73.06-10.62-.13-20.65-.58-11.19-.49-23.74.02-35.15-.73-12.48-.82-22.93-.37-36.12-.97-7.23-.33-16.45-.51-27.66-.54-3.6-.02-7.84-.48-11.95-.56-28.29-.54-56.98-1.22-86.05-2.04-2.2-.06-4.28-.09-6.25-.1-.36,0-.65.29-.65.64.03,74.66.03,142.25,0,202.78,0,17.9-.63,43.7-.57,62.99.15,47.63-.14,84.82.4,132.49.08,7.11.15,25.78.2,56.01,0,.45.36.81.81.8l190.11-3.05c.3-.01.55-.23.58-.52.51-4.35,2.34-7.89,5.47-10.62.75-.65,2.15-1.29,2.97-1.93.29-.23.46-.56.48-.92.42-6.73,1.01-12.17,4.4-17.59,1.71-2.73,3.12-3.58,5.54-5.4.34-.25.55-.65.58-1.07.88-13.43,7.23-22.42,21.32-22.96.39-.02.53-.51.21-.73-10.47-7.01-20.3-14.05-29.47-21.13-5.67-4.37-11.22-9.76-13.95-16.28-5.68-13.55,6.98-22.69,19.28-18.78,6.37,2.03,13.7,6.99,20.14,11,19.05,11.87,36.38,23.06,52.01,33.58,8.84,5.95,16.15,12.98,21.92,21.1,7.53,10.59,14.41,22.16,20.64,34.71.12.25.5.17.51-.11ZM479.61,124.94l-1.25,7.48c-.02.12.1.22.22.17,7.79-3.41,15.71-3.46,23.75-.15,2.9,1.19,4.96,4.63,3.02,7.63-1.86,2.88-5.45,1.56-8.31.55-6.66-2.33-13.12-1.18-18.76,3.31-.41.33-.66.82-.67,1.34-.28,9.01.2,18.51,1.43,28.52.68,5.56.46,11.34-.51,17.17-1.51,9.11-2.45,14.03-2.93,21.11-.57,8.33.16,18.05,2.18,29.17,3.93,21.65,12.59,43.83,28.47,59.01,11.69,11.17,30.83,14.83,46.49,13.1,16.78-1.85,32.33-6.93,46.66-15.24,1.99-1.15,4.53-.22,5.3,1.94l.07.19c.85,2.36-.12,4.99-2.29,6.25-10.19,5.87-19.66,9.82-28.41,11.86-.45.1-.73.57-.61,1.02,2.65,9.95,4.54,18.57,5.68,25.88.96,6.13,1.31,10.81,1.04,14.03-.35,4.26-.29,7.82.2,10.68.87,5.08,6.17,9.19,11.48,10.58,12.77,3.34,25.81.51,38.29-4.63,24.56-10.1,47.79-30.31,55.95-56.03.16-.51.15-1.06-.04-1.57-6.72-17.89-9.67-37.41-10.22-56-.07-2.45-.07-9.97.02-22.54,0-.58-.55-1-1.11-.84-2.77.77-4.48,1.24-5.15,1.4-3.41.81-14.78,1.11-17.42-2.99-2-3.09.26-7.2,4.08-6.68,3.72.52,7.49,1.71,11.82.9,14.25-2.66,22.8-12.96,28.33-25.93,4.44-10.39,7.14-25.52,1.36-35.73-6.52-11.52-20.27-12.1-30.9-6.23-7.7,4.25-13.21,10.73-16.52,19.46-.45,1.17-1.52,4.36-3.21,9.58-.1.31-.39.53-.72.54-2.95.09-8.11.14-15.48.16-3.53,0-5.53-1.6-6-4.83-.3-2.13-.78-6.16-1.44-12.07-1.17-10.67-8.52-18.79-14.23-28.03-6.23-10.08-9.21-20.92-8.96-32.51.77-10.76,3.99-20.43,9.67-29.01.15-.22-.04-.52-.3-.47-13.88,2.43-25.3,4.49-34.27,6.18-23.64,4.45-47.1,6.37-70.17,3.58-5.31-.64-10.51-1.73-15.6-3.27-.31-.09-.63.07-.75.36-4.14,10.18-7.23,20.71-9.28,31.6ZM270.44,473.34c-2.09-.47-4.07-.12-5.94,1.05-4.15,2.59-5.21,8.32-5.31,12.82-.01.36.31.64.66.58,8.22-1.31,17.89-.34,29.01,2.9,2.24.65,3.52,3,2.86,5.24l-.07.24c-.69,2.32-3.09,3.68-5.43,3.08-9.97-2.55-18.95-3.28-26.94-2.17-4.39.61-9.88,2.71-9,7.91,2.04,11.93,9.1,20.41,20.25,24.5,3.01,1.11,4.81,1.78,5.39,2.02.49.2.96-.33.69-.79l-2.8-4.86c-.33-.56-.84-1-1.45-1.23l-10.03-3.73c-2.24-.84-3.41-3.3-2.64-5.57l.09-.26c.79-2.14,3.16-3.23,5.3-2.45,6.02,2.19,9.84,3.59,11.47,4.18,2.61.95,4.18,2.02,4.72,3.2,2.19,4.76,3.68,7.92,4.49,9.49,10.25,19.87,26.43,36.07,48.1,42.14,4.25,1.19,8.72,2.34,13.41,3.45,1.75.41,3.37,1.23,4.73,2.41,1.04.89,4.26,3.77,9.67,8.62,7.33,6.57,22.17,19.74,44.5,39.5,22.27,19.71,46.2,38.81,67.51,55.22,18.43,14.2,39.59,28.92,61.22,40.58,9.94,5.35,20.31,8.6,31.11,9.74,22.6,2.39,42.27-10.91,57.67-26.48,24.01-24.29,46.47-52.37,67.55-78.44.29-.36.23-.89-.14-1.17-28.87-21.89-58.25-42.78-88.14-62.66-.28-.19-.67-.12-.86.16l-32.14,46.32-5.85,8.25c-.24.35-.13.83.24,1.03l9.64,5.34c1.97,1.09,2.68,3.57,1.58,5.53l-.14.24c-1.17,2.02-3.72,2.75-5.78,1.67-8.47-4.13-14.82-7.39-19.03-9.8-22.14-12.63-47.88-25.25-63.71-33.81-22.63-12.23-42.72-23.57-65.45-37.8-5.11-3.2-15.37-9.66-30.76-19.38-2.69-1.69-4.48-3.04-5.37-4.03-3.28-3.65-6.45-8.49-8.5-12.46-13.43-25.95-19.28-38.9-31.53-56.27-5.36-7.59-12.04-14.07-20.03-19.44-24.91-16.73-46.29-30.4-64.14-41.02-3.82-2.27-10.6-4.71-14.08-1.3-5.35,5.24,9.76,17.43,13.28,20.04,11.96,8.89,24.45,17.64,37.48,26.27.78.51,1.64,1.02,2.59,1.52.41.21.84.37,1.28.48,5.97,1.45,12.48,3.58,19.52,6.39,2.11.84,3.07,3.29,2.1,5.34l-.14.3c-1.03,2.18-3.56,3.19-5.81,2.33-9.84-3.8-18.96-6.09-27.37-6.87-9.55-.89-19.53.39-20.04,12.09,0,.18.14.34.32.33,9.95-.15,20.24,1.67,30.86,5.48,2.1.75,3.22,3.03,2.54,5.15l-.07.22c-.68,2.13-2.9,3.37-5.08,2.84-4.8-1.19-9.13-2.28-13-3.28-4.87-1.27-9.89-1.57-15.06-.92ZM501.12,584.49l1.14-20.58c.02-.36-.23-.68-.59-.75-12.31-2.27-24.33-5.79-36.06-10.58-.39-.16-.84,0-1.05.37l-4.31,7.8c-.4.73-.14,1.65.58,2.05l39.75,21.99c.24.13.53-.03.54-.3ZM248.84,580.42c.01-.17-.13-.32-.3-.31l-104.02,1.67c-.15,0-.28.12-.29.27l-4.04,43.23c-.02.18.12.33.3.33l105.62-1.01c.16,0,.29-.12.3-.28l2.43-43.9ZM223.97,634.12c-2.58-.04-5.15-.05-7.72-.04-36.09.15-72.17.17-108.25.07-6.93-.02-16.51.22-28.76.71-1.86-.02-2.95.47-3.26,1.48-2.13,6.97-2.73,15.16-1.8,24.59.03.26.25.46.52.46h246.63c.3,0,.54-.24.55-.53.23-6.86-2.09-26.67-10.95-28.54-.46-.09-2.24-.1-5.34-.02-16.75.45-32.06.75-45.91.89-10.37.1-23.8.89-35.71.93Z"/>
  <path class="st17" d="M592.76,0c-.07.29-.37.29-.9,0h.9Z"/>
  <path class="st13" d="M246.96,19.11l1.72.27c.19.03.23.29.05.37-.8.33-1.71.46-2.74.39-5.45-.39-11.03-.47-16.74-.26-4.64.17-10.66-.38-16.42-.45-24.43-.27-39.22-.51-44.39-.71-12.75-.49-20.46-.72-23.15-.7-8.67.06-16.35-.19-23.06-.74-10.67-.87-22.69.13-33.28-.69-.34-.03-5.99-.2-16.95-.53-13.11-.39-26.61-.81-40.5-1.24-7.99-.25-15.21,1.8-18.93,9.47-1.24,2.56-1.91,5.05-2.01,7.47-.1,2.53-.09,9.86.03,21.99.09,8.97.1,16.3.03,21.99-.27,21.4.08,40.23.01,60.01-.16,44.36-.21,70.69-.14,79,.17,21.92.21,41.31.1,58.17-.15,23.99-.18,43.38-.09,58.17.17,24.73.17,56.59,0,95.58,0,.05.08,6.6.23,19.67.12,10.37-.29,20.71-1.24,31.02-.13-15.01-.19-29.97-.18-44.86.03-61.35.1-190.94.22-388.75,0-5.07.11-9.32.34-12.75.67-10.06,8.88-17.43,18.88-17.19,72.74,1.77,145.48,3.53,218.21,5.3Z"/>
  <path class="st17" d="M246.96,19.11l77.74,1.95c-1.57.16-1.56.42.03.79.77.17,1.62.27,2.55.28,7.33.1,15.77.26,25.3.49,3.56.08,6.42.46,9.37.39,2.79-.07,5.13-.07,7.04.01,8.15.34,16.33.23,24.49.86.32.02.64.09.95.2,7.64,2.71,11.46,8.26,11.47,16.67.02,143.09.01,239.21-.02,288.36,0,3.07-.03,6.66-.08,10.78-.13,10.6.22,21.98.12,31.69-.09,7.78-.12,14.75-.1,20.91.14,45.29.19,71.21.16,77.76-.06,11.69,0,24.35.17,37.99.07,5.88-.03,12.03.22,18.89.01.4-.41.66-.76.47l-11.29-6.25c-1.39-.77-2.54-1.9-3.33-3.27l-6.45-11.17c-.98-1.71-1.52-3.64-1.56-5.61-.05-2.53-.1-9.69-.13-21.49-.01-2.53,0-3.97,0-4.31.21-5.49.23-10.74.07-15.75-.04-1.26-.37-1.67-1-1.23-.64-49.68-.37-95.72-.7-149.1-.03-4.31,0-8.59.1-12.83.24-10.2-.45-18.42.04-28.83.25-5.29.39-10.62.41-16.01.18-38.27.01-76.73-.52-115.38-.31-23.28-.18-53.21.12-77.37.01-1.38-.02-3.19-.09-5.43-.15-4.17-3.13-3.82-6.25-3.77.13-.75-.38-1.14-1.53-1.19-4.69-.19-11.09-.33-19.18-.41-7.9-.08-14.29-.2-19.16-.35-36.65-1.19-65.37-2.04-86.17-2.57-7.8-.19-17.28-.22-28.45-.07-4.18.06-8.21-.92-12.57-.89-8.64.07-17.22-.53-25.86-.46-2.36.02-4.77-.07-7.22-.28-5.77-.49-11.61-.67-17.51-.52-4.77.12-8.59-.35-13.57-.15-1.78.07-5.17-.1-10.16-.51-3.19-.26-5.89-.33-8.11-.22-9.7.51-19.39-.13-29.55-.11-.33,0-.64.1-.91.28l-.57.4-52.19-.58c-.61,0-1.12.48-1.13,1.09-.31,14.28-.5,30.4-.59,48.36-.07,14.08-.03,30.16.12,48.24.27,32.83.28,57.05.05,72.64-.24,16.45-.28,28.93-.12,37.43.18,9.34.21,16.19.08,20.55-.52,18.13-.24,24.44-.43,44.86-.05,6.01-.02,14.12.11,24.32.31,24.49.34,42.52.08,54.09-.35,14.92-.43,25.01-.24,30.27.51,14.77.7,23.93.55,27.46-.15,3.92-.28,23.95-.37,60.08,0,3.13,1.6,4.66,4.81,4.57,28.48-.75,85.48-1.76,171-3.01,10.34-.15,18.81-.38,25.41-.68.55-.02,1.06.31,1.25.83,1.63,4.44,3.92,8.58,6.85,12.42-.42-.11-.69-.13-.8-.06-.29.19-.33.6-.09.85,6.03,6.19,13.1,10.7,21.21,13.55,3.6,1.26,7.3,2.35,11.1,3.26.71.17,1.34.6,1.75,1.21,5.93,8.76,12.82,16.24,20.66,22.43.71.56.27,1.7-.63,1.65-5.14-.29-10.73-.16-16.76.38-4.83.43-9.31.63-13.42.58-14.96-.15-26.8-.13-35.53.08-18.45.42-30.14.3-45,.83-17.07.6-37.01.53-56.61,1.19-8.17.27-16.54.44-25.13.49-14.53.09-27.7.39-39.51.88-12.78.53-20.34.33-32.99.61-8.37.19-13.26.09-14.68-.28-6.52-1.71-14.02-8.88-13.11-16.33.25-2.08.34-4.31.26-6.69-.22-6.76-.07-13.39-.1-19.29,0-.22-.07-.43-.2-.61-.24-.33-.54-.54-.9-.64l.21-52.42c.95-10.31,1.36-20.65,1.24-31.02-.15-13.07-.23-19.62-.23-19.67.17-38.99.17-70.85,0-95.58-.09-14.79-.06-34.18.09-58.17.11-16.86.07-36.25-.1-58.17-.07-8.31-.02-34.64.14-79,.07-19.78-.28-38.61-.01-60.01.07-5.69.06-13.02-.03-21.99-.12-12.13-.13-19.46-.03-21.99.1-2.42.77-4.91,2.01-7.47,3.72-7.67,10.94-9.72,18.93-9.47,13.89.43,27.39.85,40.5,1.24,10.96.33,16.61.5,16.95.53,10.59.82,22.61-.18,33.28.69,6.71.55,14.39.8,23.06.74,2.69-.02,10.4.21,23.15.7,5.17.2,19.96.44,44.39.71,5.76.07,11.78.62,16.42.45,5.71-.21,11.29-.13,16.74.26,1.03.07,1.94-.06,2.74-.39.18-.08.14-.34-.05-.37l-1.72-.27Z"/>
  <path class="st13" d="M381.93,458.52c.63-.44.96-.03,1,1.23.16,5.01.14,10.26-.07,15.75,0,.34-.02,1.78,0,4.31.03,11.8.08,18.96.13,21.49.04,1.97.58,3.9,1.56,5.61l6.45,11.17c.79,1.37,1.94,2.5,3.33,3.27l11.29,6.25c.35.19.77-.07.76-.47-.25-6.86-.15-13.01-.22-18.89-.17-13.64-.23-26.3-.17-37.99.03-6.55-.02-32.47-.16-77.76-.02-6.16,0-13.13.1-20.91.1-9.71-.25-21.09-.12-31.69.05-4.12.08-7.71.08-10.78.03-49.15.04-145.27.02-288.36,0-8.41-3.83-13.96-11.47-16.67-.31-.11-.63-.18-.95-.2-8.16-.63-16.34-.52-24.49-.86-1.91-.08-4.25-.08-7.04-.01-2.95.07-5.81-.31-9.37-.39-9.53-.23-17.97-.39-25.3-.49-.93,0-1.78-.11-2.55-.28-1.59-.37-1.6-.63-.03-.79,32.97.85,54.82,1.36,65.53,1.54,10.54.17,16.87,8.17,16.87,18.15-.06,292.91-.01,455.67.16,488.27,0,.27-.29.44-.52.3-7.66-4.44-11.63-6.74-11.9-6.9-2.1-1.19-3.71-2.58-4.82-4.18-3.37-4.86-8.1-11.58-8.16-17.36-.15-14.11-.13-28.23.07-42.36Z"/>
  <path class="st13" d="M375.04,49.8l-280.52-7.05.57-.4c.27-.18.58-.28.91-.28,10.16-.02,19.85.62,29.55.11,2.22-.11,4.92-.04,8.11.22,4.99.41,8.38.58,10.16.51,4.98-.2,8.8.27,13.57.15,5.9-.15,11.74.03,17.51.52,2.45.21,4.86.3,7.22.28,8.64-.07,17.22.53,25.86.46,4.36-.03,8.39.95,12.57.89,11.17-.15,20.65-.12,28.45.07,20.8.53,49.52,1.38,86.17,2.57,4.87.15,11.26.27,19.16.35,8.09.08,14.49.22,19.18.41,1.15.05,1.66.44,1.53,1.19Z"/>
  <path class="st0" d="M373.17,486.1c-.01.28-.39.36-.51.11-6.23-12.55-13.11-24.12-20.64-34.71-5.77-8.12-13.08-15.15-21.92-21.1-15.63-10.52-32.96-21.71-52.01-33.58-6.44-4.01-13.77-8.97-20.14-11-12.3-3.91-24.96,5.23-19.28,18.78,2.73,6.52,8.28,11.91,13.95,16.28,9.17,7.08,19,14.12,29.47,21.13.32.22.18.71-.21.73-14.09.54-20.44,9.53-21.32,22.96-.03.42-.24.82-.58,1.07-2.42,1.82-3.83,2.67-5.54,5.4-3.39,5.42-3.98,10.86-4.4,17.59-.02.36-.19.69-.48.92-.82.64-2.22,1.28-2.97,1.93-3.13,2.73-4.96,6.27-5.47,10.62-.03.29-.28.51-.58.52l-190.11,3.05c-.45.01-.81-.35-.81-.8-.05-30.23-.12-48.9-.2-56.01-.54-47.67-.25-84.86-.4-132.49-.06-19.29.56-45.09.57-62.99.04-60.53.04-128.12,0-202.78,0-.35.29-.64.65-.64,1.97,0,4.05.04,6.25.1,29.07.82,57.76,1.5,86.05,2.04,4.11.08,8.35.54,11.95.56,11.21.03,20.43.21,27.66.54,13.19.6,23.64.15,36.12.97,11.41.75,23.96.24,35.15.73,10.03.45,16.92.64,20.65.58,12.98-.19,25.29.9,38.57.85,18.02-.07,38.58,1.06,59.11.91.58,0,1.05.47,1.04,1.05-.65,46.41-.77,87.8-.34,124.15.32,27.37.4,51.32.25,71.85-.36,48.16-.45,78.94-.28,92.33.52,39.97.68,84.92.49,134.87,0,1.35.28,2.39.25,3.48ZM213.94,243.88c41.78,1.67,77.07-32.43,78.83-76.17,1.76-43.75-30.69-80.57-72.47-82.24-41.78-1.67-77.07,32.43-78.83,76.17-1.76,43.75,30.69,80.57,72.47,82.24ZM338.33,280.88c0-2.42-1.96-4.38-4.38-4.38H101.65c-2.42,0-4.38,1.96-4.38,4.38v.06c0,2.42,1.96,4.38,4.38,4.38h232.3c2.42,0,4.38-1.96,4.38-4.38v-.06ZM338.28,319.36c0-2.5-2.02-4.52-4.52-4.52H101.88c-2.5,0-4.52,2.02-4.52,4.52v.08c0,2.5,2.02,4.52,4.52,4.52h231.88c2.5,0,4.52-2.02,4.52-4.52v-.08ZM338.37,360.86c0-2.47-2.01-4.47-4.48-4.46l-232.12.41c-2.47,0-4.46,2.01-4.46,4.48v.06c0,2.47,2.01,4.47,4.48,4.46l232.12-.41c2.47,0,4.46-2.01,4.46-4.48v-.06ZM217.31,402.68c-.02-2.62-2.15-4.72-4.77-4.71l-110.46.77c-2.62.01-4.72,2.15-4.71,4.77l.23,33.2c.02,2.62,2.15,4.72,4.77,4.71l110.46-.77c2.62-.01,4.72-2.15,4.71-4.77l-.23-33.2Z"/>
  <path class="st14" d="M213.94,243.88c-41.78-1.68-74.23-38.5-72.47-82.24,1.76-43.74,37.05-77.84,78.83-76.17,41.78,1.68,74.23,38.5,72.47,82.24-1.76,43.74-37.05,77.84-78.83,76.17ZM265.68,213.11c3.39-3.97,6.5-8.57,9.35-13.8,10.86-19.98,12.39-42.05,3.29-63.15-7.55-17.5-22.22-33.11-40.56-38.67-9.11-2.77-18.69-3.64-28.74-2.61-17.81,1.82-34.57,12.83-44.9,26.85-11.3,15.35-15.84,35.2-13.08,54.31,2.13,14.77,8.68,27.3,18.4,38.58.17.2.49.15.6-.09,4.3-9.81,10.16-17.68,19.98-22.85,13.8-7.25,28.22-8.94,43.27-5.07,14.49,3.73,25.77,12.45,31.61,26.38.13.32.56.38.78.12ZM207.78,234.38c4.97.64,10.22.63,15.75-.02,12.01-1.22,23.01-5.7,32.99-13.45.61-.47.84-1.28.57-1.99-8.42-22.77-31.53-29.53-53.52-23.36-13.12,3.68-22.2,12.37-25.95,25.18-.13.47.02.97.4,1.27,8.56,6.81,18.48,10.94,29.76,12.37Z"/>
  <path class="st13" d="M600.31,115.97c-1.24.73-1.61-.44-1.12-3.49,1.25-7.71,3.73-15.06,7.44-22.05.41-.76-.05-1.7-.91-1.85-.73-.13-1.53-.02-2.41.35-.19.08-.38.13-.59.16-10.5,1.45-20.45,3.2-29.86,5.23-4.02.87-7.15,1.03-11.52,1.93-1.66.34-4.56.69-8.7,1.05-3.85.33-7.83.72-11.94,1.17-6.47.69-12,.11-17.87.29-4.53.13-8.98-.09-13.36-.67-7.57-1.01-13.71-2.22-18.42-3.63-.74-.23-1.53.15-1.82.87-2.43,5.97-4.69,12.78-6.79,20.44-.28,1.02-.89,4.12-1.82,9.29-.03.15-.14.26-.29.29-.29.07-.53-.06-.72-.41,2.05-10.89,5.14-21.42,9.28-31.6.12-.29.44-.45.75-.36,5.09,1.54,10.29,2.63,15.6,3.27,23.07,2.79,46.53.87,70.17-3.58,8.97-1.69,20.39-3.75,34.27-6.18.26-.05.45.25.3.47-5.68,8.58-8.9,18.25-9.67,29.01Z"/>
  <path class="st16" d="M600.31,115.97c-.25,11.59,2.73,22.43,8.96,32.51,5.71,9.24,13.06,17.36,14.23,28.03.66,5.91,1.14,9.94,1.44,12.07.47,3.23,2.47,4.84,6,4.83,7.37-.02,12.53-.07,15.48-.16.33,0,.62-.23.72-.54,1.69-5.22,2.76-8.41,3.21-9.58,3.31-8.73,8.82-15.21,16.52-19.46,10.63-5.87,24.38-5.29,30.9,6.23,5.78,10.21,3.08,25.34-1.36,35.73-5.53,12.97-14.08,23.27-28.33,25.93-4.33.81-8.1-.38-11.82-.9-3.82-.52-6.08,3.59-4.08,6.68,2.64,4.1,14.01,3.8,17.42,2.99.67-.16,2.38-.63,5.15-1.4.56-.16,1.11.26,1.11.84-.09,12.57-.09,20.09-.02,22.54.55,18.59,3.5,38.11,10.22,56,.19.51.2,1.06.04,1.57-8.16,25.72-31.39,45.93-55.95,56.03-12.48,5.14-25.52,7.97-38.29,4.63-5.31-1.39-10.61-5.5-11.48-10.58-.49-2.86-.55-6.42-.2-10.68.27-3.22-.08-7.9-1.04-14.03-1.14-7.31-3.03-15.93-5.68-25.88-.12-.45.16-.92.61-1.02,8.75-2.04,18.22-5.99,28.41-11.86,2.17-1.26,3.14-3.89,2.29-6.25l-.07-.19c-.77-2.16-3.31-3.09-5.3-1.94-14.33,8.31-29.88,13.39-46.66,15.24-15.66,1.73-34.8-1.93-46.49-13.1-15.88-15.18-24.54-37.36-28.47-59.01-2.02-11.12-2.75-20.84-2.18-29.17.48-7.08,1.42-12,2.93-21.11.97-5.83,1.19-11.61.51-17.17-1.23-10.01-1.71-19.51-1.43-28.52.01-.52.26-1.01.67-1.34,5.64-4.49,12.1-5.64,18.76-3.31,2.86,1.01,6.45,2.33,8.31-.55,1.94-3-.12-6.44-3.02-7.63-8.04-3.31-15.96-3.26-23.75.15-.12.05-.24-.05-.22-.17l1.25-7.48c.19.35.43.48.72.41.15-.03.26-.14.29-.29.93-5.17,1.54-8.27,1.82-9.29,2.1-7.66,4.36-14.47,6.79-20.44.29-.72,1.08-1.1,1.82-.87,4.71,1.41,10.85,2.62,18.42,3.63,4.38.58,8.83.8,13.36.67,5.87-.18,11.4.4,17.87-.29,4.11-.45,8.09-.84,11.94-1.17,4.14-.36,7.04-.71,8.7-1.05,4.37-.9,7.5-1.06,11.52-1.93,9.41-2.03,19.36-3.78,29.86-5.23.21-.03.4-.08.59-.16.88-.37,1.68-.48,2.41-.35.86.15,1.32,1.09.91,1.85-3.71,6.99-6.19,14.34-7.44,22.05-.49,3.05-.12,4.22,1.12,3.49ZM542.19,139.67c-.06,2.2,1.68,4.04,3.88,4.1,9.81.28,16.61-.59,22.17,4.74.45.43,1.62,2.07,3.52,4.92.17.26.4.49.67.65,1.62.99,3.28.9,4.97-.28,2.45-1.71,2.8-3.98,1.06-6.82-6.98-11.39-19.29-13.61-32.23-12.01-2.25.28-3.97,2.16-4.03,4.43v.27ZM490.87,192.99c3.52-.39,5.83-5.62,5.16-11.69-.67-6.07-4.06-10.67-7.58-10.28-3.52.39-5.83,5.62-5.16,11.69.67,6.07,4.06,10.67,7.58,10.28ZM690.37,177.37c.05-4.5-3.11-6.53-7.4-6.42-9.3.24-16.74,9.11-20.81,16.72-1.6,3-3.52,7.8-.78,10.45,1.95,1.88,5.19,1.24,6.36-.92.28-.52,1.26-2.52,2.93-6,2.01-4.19,8.03-11.19,13.58-10.54,2.15.25,3.47.2,3.98-.15,1.41-1,2.13-2.05,2.14-3.14ZM506.19,175.33c-1.66,6.03-3.86,11.78-6.61,17.25-2.98,5.96-6.05,11.38-8.26,17.04-1.56,4.01-4.05,10.45-2.74,14.73,1.35,4.43,3.83,7.49,7.43,9.2,3.01,1.43,7.12,2.52,12.34,3.27,1.7.24,3.06.31,4.09.2,3.5-.35,7.34.69,10.25-.68,1.88-.89,2.86-2.76,2.93-5.59.05-1.59-.31-2.14-1.08-1.63-1.09-1.58-2.44-2.41-4.03-2.48-9.11-.43-14.52-.82-16.23-1.19-2.54-.53-5.52-1.65-5.37-4.68.11-2.23.65-4.47,1.61-6.74,1.81-4.29,4.16-9.09,7.05-14.42,3.52-6.5,7.57-15.15,7.3-22.1-.13-3.27-1.67-4.76-4.62-4.49-.79.07-2.14.84-4.06,2.31ZM548.46,197.12c3.58.34,6.9-3.9,7.44-9.48.53-5.57-1.95-10.37-5.53-10.71-3.58-.33-6.9,3.9-7.44,9.48-.53,5.57,1.95,10.37,5.53,10.71ZM534.62,260.82c-6.77.85-13.14.28-19.11-1.71-1.62-.54-2.84-.73-3.65-.56-3.02.61-4.36,3.9-2.86,6.45.69,1.17,1.88,2.03,3.57,2.59,7.54,2.48,15.26,3.22,23.18,2.23,7.91-.99,15.22-3.61,21.91-7.88,1.51-.95,2.45-2.08,2.82-3.38.83-2.84-1.28-5.7-4.36-5.55-.83.04-1.96.52-3.4,1.44-5.3,3.4-11.33,5.52-18.1,6.37Z"/>
  <path class="st13" d="M264.9,212.99c-5.84-13.93-17.12-22.65-31.61-26.38-15.05-3.87-29.47-2.18-43.27,5.07-9.82,5.17-15.68,13.04-19.98,22.85-.11.24-.43.29-.6.09-9.72-11.28-16.27-23.81-18.4-38.58-2.76-19.11,1.78-38.96,13.08-54.31,10.33-14.02,27.09-25.03,44.9-26.85,10.05-1.03,19.63-.16,28.74,2.61,18.34,5.56,33.01,21.17,40.56,38.67,9.1,21.1,7.57,43.17-3.29,63.15-2.85,5.23-5.96,9.83-9.35,13.8-.22.26-.65.2-.78-.12ZM218.28,181.52c15.72.11,28.55-14.32,28.68-32.23.12-17.91-12.51-32.52-28.22-32.63-15.72-.11-28.55,14.32-28.68,32.23-.12,17.91,12.51,32.52,28.22,32.63Z"/>
  <path class="st14" d="M218.28,181.52c-15.71-.11-28.34-14.72-28.22-32.63.13-17.91,12.96-32.34,28.68-32.23,15.71.11,28.34,14.72,28.22,32.63-.13,17.91-12.96,32.34-28.68,32.23ZM199.07,145.88c-.52,4.1-.13,8.28,1.13,12.11,3.34,10.14,12.12,16.06,21.16,14.26,3.68-.73,7.14-2.71,9.95-5.69,3.11-3.3,5.28-7.67,6.22-12.5.72-3.7.68-7.54-.11-11.19-2.06-9.56-8.93-16.44-17.16-17.21-5.16-.49-10.3,1.51-14.3,5.54-3.71,3.74-6.16,8.97-6.89,14.68Z"/>
  <path class="st13" d="M200.2,157.99c2.91,6.22,6.92,10.28,12.03,12.17,9.21,3.4,18.72-.85,22.3-10.08,4.79-12.34,2.49-29.86-13.1-32.9-5.08-.99-9.4-.07-12.97,2.77-4.53,3.6-7.66,8.91-9.39,15.93.73-5.71,3.18-10.94,6.89-14.68,4-4.03,9.14-6.03,14.3-5.54,8.23.77,15.1,7.65,17.16,17.21.79,3.65.83,7.49.11,11.19-.94,4.83-3.11,9.2-6.22,12.5-2.81,2.98-6.27,4.96-9.95,5.69-9.04,1.8-17.82-4.12-21.16-14.26Z"/>
  <path class="st17" d="M200.2,157.99c-1.26-3.83-1.65-8.01-1.13-12.11,1.73-7.02,4.86-12.33,9.39-15.93,3.57-2.84,7.89-3.76,12.97-2.77,15.59,3.04,17.89,20.56,13.1,32.9-3.58,9.23-13.09,13.48-22.3,10.08-5.11-1.89-9.12-5.95-12.03-12.17Z"/>
  <path class="st14" d="M542.19,139.67v-.27c.07-2.27,1.79-4.15,4.04-4.43,12.94-1.6,25.25.62,32.23,12.01,1.74,2.84,1.39,5.11-1.06,6.82-1.69,1.18-3.35,1.27-4.97.28-.27-.16-.5-.39-.67-.65-1.9-2.85-3.07-4.49-3.52-4.92-5.56-5.33-12.36-4.46-22.17-4.74-2.2-.06-3.94-1.9-3.88-4.1Z"/>
  <ellipse class="st14" cx="489.66" cy="182.01" rx="6.41" ry="11.05" transform="translate(-17.02 54.83) rotate(-6.3)"/>
  <path class="st14" d="M690.37,177.37c-.01,1.09-.73,2.14-2.14,3.14-.51.35-1.83.4-3.98.15-5.55-.65-11.57,6.35-13.58,10.54-1.67,3.48-2.65,5.48-2.93,6-1.17,2.16-4.41,2.8-6.36.92-2.74-2.65-.82-7.45.78-10.45,4.07-7.61,11.51-16.48,20.81-16.72,4.29-.11,7.45,1.92,7.4,6.42Z"/>
  <path class="st14" d="M524.54,229.12c1.03,3.96-.15,6.18-3.52,6.66-2.64.38-7.48.21-14.52-.52-12.02-1.25-19.93-6.9-16.02-20.19,2.21-7.53,5.46-13.22,10.68-22.94,2.92-5.43,4.6-11.03,5.03-16.8,1.92-1.47,3.27-2.24,4.06-2.31,2.95-.27,4.49,1.22,4.62,4.49.27,6.95-3.78,15.6-7.3,22.1-2.89,5.33-5.24,10.13-7.05,14.42-.96,2.27-1.5,4.51-1.61,6.74-.15,3.03,2.83,4.15,5.37,4.68,1.71.37,7.12.76,16.23,1.19,1.59.07,2.94.9,4.03,2.48Z"/>
  <path class="st13" d="M506.19,175.33c-.43,5.77-2.11,11.37-5.03,16.8-5.22,9.72-8.47,15.41-10.68,22.94-3.91,13.29,4,18.94,16.02,20.19,7.04.73,11.88.9,14.52.52,3.37-.48,4.55-2.7,3.52-6.66.77-.51,1.13.04,1.08,1.63-.07,2.83-1.05,4.7-2.93,5.59-2.91,1.37-6.75.33-10.25.68-1.03.11-2.39.04-4.09-.2-5.22-.75-9.33-1.84-12.34-3.27-3.6-1.71-6.08-4.77-7.43-9.2-1.31-4.28,1.18-10.72,2.74-14.73,2.21-5.66,5.28-11.08,8.26-17.04,2.75-5.47,4.95-11.22,6.61-17.25Z"/>
  <ellipse class="st14" cx="549.41" cy="187.03" rx="10.14" ry="6.51" transform="translate(311.51 716.4) rotate(-84.6)"/>
  <path class="st13" d="M223.53,234.36h-.96c-.1,0-.19-.04-.27-.1-.16-.12-.22-.27-.18-.46.04-.16.18-.27.34-.28,1.89-.11,3.06-.21,3.52-.32,6.96-1.66,11.81-3.05,14.55-4.16,5.55-2.27,10.57-5.19,15.06-8.76.34-.27.47-.73.33-1.14-2.37-6.65-6.22-12.09-11.57-16.32-6.98-5.53-15.24-8.32-24.79-8.36-10.61-.04-23.18,2.96-30.82,9.97-4.41,4.05-7.72,9.07-9.92,15.04-.35.95-.03,2.02.79,2.61,5.94,4.3,12.48,7.52,19.62,9.66.01,0,1.39.29,4.13.85,1.63.33,3.1.93,4.42,1.79-11.28-1.43-21.2-5.56-29.76-12.37-.38-.3-.53-.8-.4-1.27,3.75-12.81,12.83-21.5,25.95-25.18,21.99-6.17,45.1.59,53.52,23.36.27.71.04,1.52-.57,1.99-9.98,7.75-20.98,12.23-32.99,13.45Z"/>
  <path class="st17" d="M223.53,234.36c-5.53.65-10.78.66-15.75.02-1.32-.86-2.79-1.46-4.42-1.79-2.74-.56-4.12-.84-4.13-.85-7.14-2.14-13.68-5.36-19.62-9.66-.82-.59-1.14-1.66-.79-2.61,2.2-5.97,5.51-10.99,9.92-15.04,7.64-7.01,20.21-10.01,30.82-9.97,9.55.04,17.81,2.83,24.79,8.36,5.35,4.23,9.2,9.67,11.57,16.32.14.41,0,.87-.33,1.14-4.49,3.57-9.51,6.49-15.06,8.76-2.74,1.11-7.59,2.5-14.55,4.16-.46.11-1.63.21-3.52.32-.16,0-.3.12-.34.28-.04.19.02.34.18.46.08.06.17.09.27.09h.96Z"/>
  <path class="st14" d="M535.75,269.82c-7.92.99-15.64.25-23.18-2.23-1.69-.56-2.88-1.42-3.57-2.59-1.5-2.55-.16-5.84,2.86-6.45.81-.17,2.03.02,3.65.56,5.97,1.99,12.34,2.56,19.11,1.71s12.8-2.97,18.1-6.37c1.44-.92,2.57-1.4,3.4-1.44,3.08-.15,5.19,2.71,4.36,5.55-.37,1.3-1.31,2.43-2.82,3.38-6.69,4.27-14,6.89-21.91,7.88Z"/>
  <rect class="st14" x="97.27" y="276.5" width="241.06" height="8.82" rx="4.38" ry="4.38"/>
  <rect class="st14" x="97.36" y="314.84" width="240.92" height="9.12" rx="4.52" ry="4.52"/>
  <path class="st15" d="M804.58,602.21c-1.45,5.24-1.67,10.54-.64,15.89l-4.52,142.19c-28.92,6.93-57.56,11.56-85.92,13.88-14.45,1.18-31.69,2.09-51.74,2.74-23.13.74-49.13-.16-78.01-2.71-27.9-2.46-54.06-6.45-78.49-11.96-.92-.21-2.35-.63-4.29-1.27l3.14-46.96c.03-.53.64-.81,1.07-.5,12.95,9.39,26.09,16.59,39.43,21.59,14.5,5.43,31.7,7.09,46.4,1.83,19.12-6.84,33.85-20.66,47.81-35.35,7.01-7.38,14.47-15.75,22.4-25.11,12.48-14.73,24.65-29.72,36.5-44.95.29-.38.84-.45,1.22-.17,2.35,1.73,5.42,4.13,9.21,7.2,2.33,1.89,5.41,3.07,8.21,2.13.8-.27,1.83-1.44,3.1-3.52,22.64-37.15,43.86-74.24,63.65-111.29,1.66-3.11,2.91-6.01,3.74-8.71.88-2.86.04-4.77-2.51-5.72-2.86-1.07-4.33,1.91-5.6,4.3-20.82,39.09-42.61,77.33-65.36,114.7-.13.21-.41.26-.61.11-34.41-26.77-70.77-52.85-109.08-78.25-.5-.33-.65-1.01-.32-1.51l81.42-126.78c1.23-1.91.88-4.44-.84-5.94l-.13-.12c-1.66-1.44-4.21-1.12-5.47.68-4.69,6.69-9.46,13.82-14.3,21.4-19.56,30.67-39.19,61.29-58.9,91.86-5.09,7.88-9.24,14.49-12.46,19.82-.46.76-.47,1.72-.03,2.49l1.75,3.03c.27.47.25,1.05-.06,1.5l-37.87,54.21c-.24.34-.69.45-1.06.26l-45.42-23.71c-.23-.12-.36-.36-.35-.62,2.05-44.37,4.76-90.17,9.48-135.46.24-2.31-1.49-4.35-3.81-4.5h-.18c-2.34-.16-4.39,1.58-4.62,3.92-3.5,35.23-6.1,68.89-7.8,101-.02.35-.34.6-.68.53-18.51-3.71-36.03-10.21-52.54-19.5-.74-.42-1.11-1.28-.91-2.1.56-2.25,1.3-4.74,2.23-7.45,5.73-16.79,11.34-32.18,16.83-46.17,15.3-38.98,33.7-77.71,66.04-106.4,10.95-9.72,23.11-17.06,36.41-23.85.3-.15.66.04.69.37.35,3.56.47,7.99.36,13.29-.1,4.74.31,8.37,1.24,10.9,4.49,12.26,16.32,17.07,28.91,17.06,14.12-.01,27.91-3.63,41.37-10.87,23.36-12.56,41.95-31.22,51.51-56.01.1-.27.42-.4.68-.28,7.21,3.27,13.45,6.21,18.74,8.81,17.61,8.67,33.57,18.37,47.88,29.11,12.48,9.36,25.15,21.68,33.33,35.11,9.01,14.77,14.13,30.31,15.36,46.64,1.27,16.83,1.39,34.16.36,51.99-1.79,30.91-3.13,56.57-4.03,76.99-.5,11.53-1.14,21.6-1.92,30.21Z"/>
  <rect class="st14" x="97.31" y="356.6" width="241.06" height="9" rx="4.47" ry="4.47" transform="translate(-.63 .38) rotate(-.1)"/>
  <path class="st13" d="M569.95,608.88c.59.14.8.64.49,1.13-1.39,2.18-2.86,4.26-4.4,6.23-.62.79-.28,1.96.66,2.29,2.93,1.04,12.17,5.32,10.34,9.78-1.78,4.33-4.9,5.38-9.36,3.15-8.74-4.37-16.42-8.51-23.03-12.42-5.94-3.51-11.51-5.73-17.24-9.26-.15-.09-.51-.24-.98-.4-.45-.15-.93-.36-1.44-.63-9.51-5.05-18.86-9.93-28.04-14.64-9.55-4.9-18.82-9.91-27.81-15.02-13.1-7.45-22.93-13.11-29.49-17-8.34-4.95-25.88-15.96-52.62-33.03-.35-.23-.68-.49-.98-.8-3.26-3.31-5.99-6.84-8.2-10.57-2.83-4.82-6.23-11.23-10.2-19.24-1.06-2.13-2.78-5.35-5.16-9.66-.55-1.01-2.25-4.23-5.1-9.68-2.64-5.07-6.77-11.66-12.4-19.78-1.22-1.76-2.73-3.04-3.41-4.58-.24-.53-.56-1.02-.95-1.44-5-5.4-8.05-8.46-9.15-9.18-2.55-1.67-4.16-2.95-4.85-3.85-.11-.13-.23-.25-.37-.34-13.28-8.96-27.32-18.08-42.12-27.35-2.19-1.37-4.32-2.71-6.39-4-10.67-6.66-16.35-10.17-17.03-10.54-3.2-1.72-9.89-5.28-12.67-1.64-.71.93-.97,1.72-.79,2.37,1.12,4.09,3.41,7.66,6.88,10.72,4.45,3.92,10.7,8.62,18.77,14.1,4.09,2.78,8.71,6.05,13.86,9.8,5.33,3.89,10.1,6.99,14.31,9.3.34.19.7.33,1.08.42,6.03,1.57,10.84,2.92,14.43,4.05,2.99.95,5.2,2.14,6.61,3.56,2.57,2.59,1.99,6.76-1.59,8.32-1.49.65-2.92.76-4.28.33-2.1-.67-5.17-1.65-9.2-2.96-8.84-2.87-18.15-3.96-27.92-3.29-2.93.2-5.61,1.7-7.31,4.09l-.92,1.3c-1.31,1.84,0,4.39,2.27,4.38,8.27-.03,17.26,1.77,26.96,5.38.62.23,1.62,1.1,3,2.61.23.25.38.57.44.9.35,2.08,0,3.75-1.08,5-2.13,2.49-5.78,2.1-8.63,1.2-7.67-2.44-15.84-3.99-24.5-4.65,5.17-.65,10.19-.35,15.06.92,3.87,1,8.2,2.09,13,3.28,2.18.53,4.4-.71,5.08-2.84l.07-.22c.68-2.12-.44-4.4-2.54-5.15-10.62-3.81-20.91-5.63-30.86-5.48-.18,0-.33-.15-.32-.33.51-11.7,10.49-12.98,20.04-12.09,8.41.78,17.53,3.07,27.37,6.87,2.25.86,4.78-.15,5.81-2.33l.14-.3c.97-2.05,0-4.5-2.1-5.34-7.04-2.81-13.55-4.94-19.52-6.39-.44-.11-.87-.27-1.28-.48-.95-.5-1.81-1.01-2.59-1.52-13.03-8.63-25.52-17.38-37.48-26.27-3.52-2.61-18.63-14.8-13.28-20.04,3.48-3.41,10.26-.97,14.08,1.3,17.85,10.62,39.23,24.29,64.14,41.02,7.99,5.37,14.67,11.85,20.03,19.44,12.25,17.37,18.1,30.32,31.53,56.27,2.05,3.97,5.22,8.81,8.5,12.46.89.99,2.68,2.34,5.37,4.03,15.39,9.72,25.65,16.18,30.76,19.38,22.73,14.23,42.82,25.57,65.45,37.8,15.83,8.56,41.57,21.18,63.71,33.81,4.21,2.41,10.56,5.67,19.03,9.8,2.06,1.08,4.61.35,5.78-1.67l.14-.24c1.1-1.96.39-4.44-1.58-5.53l-9.64-5.34c-.37-.2-.48-.68-.24-1.03l5.85-8.25Z"/>
  <path class="st16" d="M569.95,608.88l32.14-46.32c.19-.28.58-.35.86-.16,29.89,19.88,59.27,40.77,88.14,62.66.37.28.43.81.14,1.17-21.08,26.07-43.54,54.15-67.55,78.44-15.4,15.57-35.07,28.87-57.67,26.48-10.8-1.14-21.17-4.39-31.11-9.74-21.63-11.66-42.79-26.38-61.22-40.58-21.31-16.41-45.24-35.51-67.51-55.22-22.33-19.76-37.17-32.93-44.5-39.5-5.41-4.85-8.63-7.73-9.67-8.62-1.36-1.18-2.98-2-4.73-2.41-4.69-1.11-9.16-2.26-13.41-3.45-21.67-6.07-37.85-22.27-48.1-42.14-.81-1.57-2.3-4.73-4.49-9.49-.54-1.18-2.11-2.25-4.72-3.2-1.63-.59-5.45-1.99-11.47-4.18-2.14-.78-4.51.31-5.3,2.45l-.09.26c-.77,2.27.4,4.73,2.64,5.57l10.03,3.73c.61.23,1.12.67,1.45,1.23l2.8,4.86c.27.46-.2.99-.69.79-.58-.24-2.38-.91-5.39-2.02-11.15-4.09-18.21-12.57-20.25-24.5-.88-5.2,4.61-7.3,9-7.91,7.99-1.11,16.97-.38,26.94,2.17,2.34.6,4.74-.76,5.43-3.08l.07-.24c.66-2.24-.62-4.59-2.86-5.24-11.12-3.24-20.79-4.21-29.01-2.9-.35.06-.67-.22-.66-.58.1-4.5,1.16-10.23,5.31-12.82,1.87-1.17,3.85-1.52,5.94-1.05,8.66.66,16.83,2.21,24.5,4.65,2.85.9,6.5,1.29,8.63-1.2,1.07-1.25,1.43-2.92,1.08-5-.06-.33-.21-.65-.44-.9-1.38-1.51-2.38-2.38-3-2.61-9.7-3.61-18.69-5.41-26.96-5.38-2.26.01-3.58-2.54-2.27-4.38l.92-1.3c1.7-2.39,4.38-3.89,7.31-4.09,9.77-.67,19.08.42,27.92,3.29,4.03,1.31,7.1,2.29,9.2,2.96,1.36.43,2.79.32,4.28-.33,3.58-1.56,4.16-5.73,1.59-8.32-1.41-1.42-3.62-2.61-6.61-3.56-3.59-1.13-8.4-2.48-14.43-4.05-.38-.09-.74-.23-1.08-.42-4.21-2.31-8.98-5.41-14.31-9.3-5.15-3.75-9.77-7.02-13.86-9.8-8.07-5.48-14.32-10.18-18.77-14.1-3.47-3.06-5.76-6.63-6.88-10.72-.18-.65.08-1.44.79-2.37,2.78-3.64,9.47-.08,12.67,1.64.68.37,6.36,3.88,17.03,10.54,2.07,1.29,4.2,2.63,6.39,4,14.8,9.27,28.84,18.39,42.12,27.35.14.09.26.21.37.34.69.9,2.3,2.18,4.85,3.85,1.1.72,4.15,3.78,9.15,9.18.39.42.71.91.95,1.44.68,1.54,2.19,2.82,3.41,4.58,5.63,8.12,9.76,14.71,12.4,19.78,2.85,5.45,4.55,8.67,5.1,9.68,2.38,4.31,4.1,7.53,5.16,9.66,3.97,8.01,7.37,14.42,10.2,19.24,2.21,3.73,4.94,7.26,8.2,10.57.3.31.63.57.98.8,26.74,17.07,44.28,28.08,52.62,33.03,6.56,3.89,16.39,9.55,29.49,17,8.99,5.11,18.26,10.12,27.81,15.02,9.18,4.71,18.53,9.59,28.04,14.64.51.27.99.48,1.44.63.47.16.83.31.98.4,5.73,3.53,11.3,5.75,17.24,9.26,6.61,3.91,14.29,8.05,23.03,12.42,4.46,2.23,7.58,1.18,9.36-3.15,1.83-4.46-7.41-8.74-10.34-9.78-.94-.33-1.28-1.5-.66-2.29,1.54-1.97,3.01-4.05,4.4-6.23.31-.49.1-.99-.49-1.13Z"/>
  <path class="st14" d="M217.54,435.88c.02,2.62-2.08,4.76-4.71,4.77l-110.46.77c-2.62.01-4.75-2.09-4.77-4.71l-.23-33.2c-.02-2.62,2.08-4.76,4.71-4.77l110.46-.77c2.62-.01,4.75,2.09,4.77,4.71l.23,33.2ZM208.6,407.05c0-.25-.21-.46-.46-.46l-101.3.53c-.25,0-.45.2-.46.46l.13,24.5c0,.25.21.46.46.46l101.3-.53c.25,0,.45-.2.46-.46l-.13-24.5Z"/>
  <rect class="st0" x="106.44" y="406.86" width="102.22" height="25.42" rx=".46" ry=".46" transform="translate(-2.19 .83) rotate(-.3)"/>
  <path class="st12" d="M820,465.97v2.44c-.21-.81-.21-1.63,0-2.44Z"/>
  <path class="st13" d="M249.76,525.69c7.37,8.9,18.83,13.66,30.03,15.98,2.25.47,3.54,1.47,4.97,3.53,6.38,9.17,14.02,17.13,22.92,23.88.15.11.07.35-.12.35-12.01-.05-25.96.82-36.42.89-21.71.15-27.23.14-48.84.76-29.72.85-61.06,1.1-86.73,1.6-52.33,1.02-86.49,1.67-102.46,1.96-8.64.16-14.17-.31-19.46-6.5-3.09-3.61-4.61-7.74-4.54-12.39.13-8.65.19-17.31.17-25.97.36.1.66.31.9.64.13.18.2.39.2.61.03,5.9-.12,12.53.1,19.29.08,2.38,0,4.61-.26,6.69-.91,7.45,6.59,14.62,13.11,16.33,1.42.37,6.31.47,14.68.28,12.65-.28,20.21-.08,32.99-.61,11.81-.49,24.98-.79,39.51-.88,8.59-.05,16.96-.22,25.13-.49,19.6-.66,39.54-.59,56.61-1.19,14.86-.53,26.55-.41,45-.83,8.73-.21,20.57-.23,35.53-.08,4.11.05,8.59-.15,13.42-.58,6.03-.54,11.62-.67,16.76-.38.9.05,1.34-1.09.63-1.65-7.84-6.19-14.73-13.67-20.66-22.43-.41-.61-1.04-1.04-1.75-1.21-3.8-.91-7.5-2-11.1-3.26-8.11-2.85-15.18-7.36-21.21-13.55-.24-.25-.2-.66.09-.85.11-.07.38-.05.8.06Z"/>
  <path class="st16" d="M500.58,584.79l-39.75-21.99c-.72-.4-.98-1.32-.58-2.05l4.31-7.8c.21-.37.66-.53,1.05-.37,11.73,4.79,23.75,8.31,36.06,10.58.36.07.61.39.59.75l-1.14,20.58c-.01.27-.3.43-.54.3Z"/>
  <path class="st13" d="M248.84,580.42l-2.43,43.9c-.01.16-.14.28-.3.28l-105.62,1.01c-.18,0-.32-.15-.3-.33l4.04-43.23c.01-.15.14-.27.29-.27l104.02-1.67c.17-.01.31.14.3.31ZM245.43,622.71l2.23-40.37c.04-.79-.61-1.45-1.4-1.42-14.98.65-30.9,1.02-47.76,1.13-5.1.03-11.31,1.04-16.67.86-9.35-.3-18.3-.22-26.85.25-.19.01-.37,0-.56-.04-1.67-.34-3.28-.35-4.85-.02-.38.08-.76.07-1.13-.02l-1.79-.47c-.77-.19-1.53.34-1.6,1.13l-3.7,39.66c-.05.59.41,1.1,1,1.09l102.23-.98c.45,0,.82-.35.85-.8Z"/>
  <path class="st17" d="M245.43,622.71c-.03.45-.4.8-.85.8l-102.23.98c-.59.01-1.05-.5-1-1.09l3.7-39.66c.07-.79.83-1.32,1.6-1.13l1.79.47c.37.09.75.1,1.13.02,1.57-.33,3.18-.32,4.85.02.19.04.37.05.56.04,8.55-.47,17.5-.55,26.85-.25,5.36.18,11.57-.83,16.67-.86,16.86-.11,32.78-.48,47.76-1.13.79-.03,1.44.63,1.4,1.42l-2.23,40.37Z"/>
  <path class="st16" d="M804.58,602.21l-.64,15.89c-1.03-5.35-.81-10.65.64-15.89Z"/>
  <path class="st13" d="M79.24,634.86c-1.67,1.25-2.65,2.65-2.93,4.2-1.17,6.45-1.6,13-1.31,19.65.03.8.7,1.43,1.5,1.43h243.98c.36,0,.65-.29.64-.65-.15-8.57-2.15-16.19-5.98-22.86-.61-1.06-1.66-1.99-3.16-2.78-.29-.15-.6-.23-.92-.24-2.88-.1-6.4-.1-10.55,0-6.83.17-13.67.29-20.5.37-1.89.02-4.99.17-9.3.45-3.89.26-6.99.39-9.31.4-11.08.06-23.57.07-37.47.03-.17,0-.34-.04-.49-.12l-.3-.15c-.11-.05-.07-.22.05-.23.32-.03.58-.11.78-.24,11.91-.04,25.34-.83,35.71-.93,13.85-.14,29.16-.44,45.91-.89,3.1-.08,4.88-.07,5.34.02,8.86,1.87,11.18,21.68,10.95,28.54-.01.29-.25.53-.55.53H74.7c-.27,0-.49-.2-.52-.46-.93-9.43-.33-17.62,1.8-24.59.31-1.01,1.4-1.5,3.26-1.48Z"/>
  <path class="st17" d="M79.24,634.86c12.25-.49,21.83-.73,28.76-.71,36.08.1,72.16.08,108.25-.07,2.57-.01,5.14,0,7.72.04-.2.13-.46.21-.78.24-.12.01-.16.18-.05.23l.3.15c.15.08.32.12.49.12,13.9.04,26.39.03,37.47-.03,2.32-.01,5.42-.14,9.31-.4,4.31-.28,7.41-.43,9.3-.45,6.83-.08,13.67-.2,20.5-.37,4.15-.1,7.67-.1,10.55,0,.32.01.63.09.92.24,1.5.79,2.55,1.72,3.16,2.78,3.83,6.67,5.83,14.29,5.98,22.86.01.36-.28.65-.64.65H76.5c-.8,0-1.47-.63-1.5-1.43-.29-6.65.14-13.2,1.31-19.65.28-1.55,1.26-2.95,2.93-4.2Z"/>
</svg>