<?xml version="1.0" encoding="UTF-8"?>
<svg id="Capa_1" xmlns="http://www.w3.org/2000/svg" version="1.1" xmlns:xlink="http://www.w3.org/1999/xlink" viewBox="0 0 897 632">
  <!-- Generator: Adobe Illustrator 29.4.0, SVG Export Plug-In . SVG Version: 2.1.0 Build 152)  -->
  <defs>
    <style>
      .st0 {
        stroke: #eeedfb;
      }

      .st0, .st1, .st2, .st3, .st4, .st5, .st6, .st7, .st8, .st9, .st10, .st11, .st12, .st13, .st14, .st15, .st16, .st17, .st18, .st19, .st20, .st21, .st22 {
        fill: none;
      }

      .st0, .st1, .st2, .st3, .st4, .st6, .st7, .st8, .st9, .st10, .st11, .st12, .st13, .st14, .st15, .st16, .st17, .st18, .st19, .st20, .st21, .st22 {
        stroke-width: 2px;
      }

      .st23 {
        fill: #7243ff;
      }

      .st24 {
        fill: #040405;
      }

      .st1 {
        stroke: #474b82;
      }

      .st25 {
        fill: #2dc474;
      }

      .st2 {
        stroke: #9999a2;
      }

      .st3 {
        stroke: #482f94;
      }

      .st4 {
        stroke: #8e8d94;
      }

      .st26 {
        fill: #dddaf7;
      }

      .st6 {
        stroke: #7f7e80;
      }

      .st7 {
        stroke: #453682;
      }

      .st8 {
        stroke: #93deb7;
      }

      .st27 {
        fill: #8992ff;
      }

      .st9 {
        stroke: #c1c5fd;
      }

      .st10 {
        stroke: #ebe9f9;
      }

      .st11 {
        stroke: #828282;
      }

      .st12 {
        stroke: #514194;
      }

      .st13 {
        stroke: #7d7b90;
      }

      .st14 {
        stroke: #111017;
      }

      .st28 {
        fill: #1d1b28;
      }

      .st15 {
        stroke: #7c55ff;
      }

      .st16 {
        stroke: #716f7e;
      }

      .st17 {
        stroke: #8b8991;
      }

      .st18 {
        stroke: #bfaffd;
      }

      .st29 {
        fill: #8567ff;
      }

      .st19 {
        stroke: #fcfbfd;
      }

      .st20 {
        stroke: #b69dfd;
      }

      .st30 {
        fill: #393a4a;
      }

      .st31 {
        fill: #f9f7fa;
      }

      .st21 {
        stroke: #3b2482;
      }

      .st32 {
        clip-path: url(#clippath);
      }

      .st22 {
        stroke: #25704e;
      }
    </style>
    <clipPath id="clippath">
      <rect class="st5" width="897" height="632"/>
    </clipPath>
  </defs>
  <g class="st32">
    <g>
      <path class="st0" d="M443.77,0c-49.75,1.65-96.12,13.2-139.09,34.64-32.57,16.25-61.4,37.01-86.5,62.28-44.13,44.42-72.63,97.58-85.5,159.48-.47,2.27-.43,4,.1,5.2" vector-effect="non-scaling-stroke"/>
      <path class="st11" d="M132.78,261.6c-37.37,23.91-74.72,47.87-112.05,71.87-12.14,7.81-19.05,18.81-20.73,33" vector-effect="non-scaling-stroke"/>
      <path class="st0" d="M463.34,0c39.32,1.24,77.37,9.13,114.16,23.66" vector-effect="non-scaling-stroke"/>
      <path class="st10" d="M577.5,23.66c-22.53.37-44.86.49-66.99.36-5.35-.03-8.94.45-10.77,1.44-3.16,1.71-4.74,4.81-4.74,9.29,0,21.82.01,93.32.04,214.5,0,1.37-.45,2.53-1.34,3.47" vector-effect="non-scaling-stroke"/>
      <path class="st16" d="M493.7,252.72c-9.86-10.35-21.66-17.65-35.4-21.91-.35-.11-.65-.34-.86-.64-.82-1.21-1.54-2.77-2.16-4.66-3.35-10.19-6.91-22.42-12.17-30.47-5.83-8.93-13.67-15.18-23.5-18.75-3.34-1.21-11.8-2.74-25.38-4.58-37.32-5.06-61.56-8.38-72.73-9.96-4.35-.61-9.69-.96-16-1.05-12.08-.18-20.62,3.47-31.27,10.3-47.13,30.23-94.28,60.43-141.45,90.6" vector-effect="non-scaling-stroke"/>
      <path class="st4" d="M816.72,632c15.43-1.17,29.46-6.03,42.07-14.58" vector-effect="non-scaling-stroke"/>
      <path class="st11" d="M858.79,617.42c21.6-14.25,36.28-39.12,37.27-65.02.15-3.97.15-8.11,0-12.41-1.15-31.53-21.32-58.6-49.54-71.98-.41-.19-.66-.61-.64-1.06.82-20.9-.11-41.07-6.46-61.1-10.98-34.62-30.96-62.81-59.93-84.57" vector-effect="non-scaling-stroke"/>
      <path class="st0" d="M779.49,321.28l.44-1.89c.09-.38.14-.77.14-1.16-.02-63.28-17.52-121.29-52.5-174.04-1.8-2.72-3.31-4.76-4.53-6.12" vector-effect="non-scaling-stroke"/>
      <path class="st19" d="M723.04,138.07c.12-1.52.15-3.1.1-4.75-.11-3.09-.16-4.66-.16-4.73.01-57.53,0-87.62-.03-90.27-.15-13.27-7.09-14.41-18.46-14.35-8.17.04-47.13.04-116.88,0-1.17,0-2.86-.07-5.05-.22-1.81-.12-3.5-.15-5.06-.09" vector-effect="non-scaling-stroke"/>
      <path class="st10" d="M723.04,138.07c.01,48.66.02,97.22.02,145.68,0,3.52-.16,6.99-.47,10.41" vector-effect="non-scaling-stroke"/>
      <path class="st6" d="M722.59,294.16c-12.64-3.14-25.58-4.91-38.82-5.32" vector-effect="non-scaling-stroke"/>
      <path class="st9" d="M683.77,288.84c4.11-2.87,6.48-5.78,7.12-8.71.59-2.65.88-5.94.88-9.88-.01-31.02-.03-56.94-.08-77.77-.01-2.22-.17-6.43-.5-12.63-.21-4.07-.91-7-2.09-8.79-3.23-4.89-8.34-6-14.09-6.07-6.2-.08-18.03-.08-35.48,0-3.15.02-6.46,1.43-9.95,4.24-4.76,3.83-4.65,13.78-4.64,19.29.05,16.61.09,45.76.11,87.46,0,9.16,7.03,12.16,15.04,13.91.13.03.26.04.39.05l15.87.74" vector-effect="non-scaling-stroke"/>
      <path class="st6" d="M656.35,290.68c-6.71,1.07-12.46,2.13-17.23,3.19-18.87,4.17-36.43,12.32-52.74,22.92" vector-effect="non-scaling-stroke"/>
      <path class="st10" d="M586.38,316.79c-1.98-.64-3.94-.95-5.88-.94-22.21.12-44.44.18-66.69.17" vector-effect="non-scaling-stroke"/>
      <path class="st6" d="M513.81,316.02c.35-5.65.42-11.33.22-17.02-.61-17.31-8.53-33.79-20.33-46.28" vector-effect="non-scaling-stroke"/>
      <path class="st2" d="M633.04,59.16c0-3.43-2.79-6.21-6.22-6.2l-56.32.1c-3.43.01-6.21,2.79-6.2,6.22v1.58c.01,3.43,2.79,6.21,6.22,6.2l56.32-.1c3.43-.01,6.21-2.79,6.2-6.22v-1.58" vector-effect="non-scaling-stroke"/>
      <path class="st2" d="M658.96,93.12c0-5.08-4.13-9.19-9.21-9.17l-76.44.13c-5.07.01-9.18,4.13-9.17,9.21v1.5c.01,5.08,4.13,9.19,9.21,9.17l76.44-.13c5.07-.01,9.18-4.13,9.17-9.21v-1.5" vector-effect="non-scaling-stroke"/>
      <path class="st2" d="M658.93,130.23c0-5.05-4.09-9.14-9.14-9.14h-76.52c-5.05,0-9.14,4.09-9.14,9.14v1.54c0,5.05,4.09,9.14,9.14,9.14h76.52c5.05,0,9.14-4.09,9.14-9.14v-1.54" vector-effect="non-scaling-stroke"/>
      <path class="st9" d="M604.59,276.9l-.08-48.76c-.02-7.2-5.86-13.03-13.07-13.02l-38.66.07c-8.08.02-14.62,6.41-14.61,14.29l.08,46.32c.01,7.87,6.58,14.25,14.67,14.23l38.66-.07c7.2,0,13.03-5.86,13.01-13.06" vector-effect="non-scaling-stroke"/>
      <path class="st16" d="M779.49,321.28c-12.07-8.5-24.57-15.42-37.5-20.76-5.99-2.47-12.45-4.59-19.4-6.36" vector-effect="non-scaling-stroke"/>
      <path class="st16" d="M513.81,316.02c-1.19,8.8-3.9,16.84-8.14,24.13-13.27,22.79-33.08,35.81-59.42,39.08-.53.06-.98.4-1.2.89-2.39,5.49-4.2,9.76-5.45,12.81-3.89,9.54-8.49,16.44-16.08,22.82,0,.01-3.88,2.82-11.6,8.43-58.08,42.23-117.04,84.91-175.61,127.99" vector-effect="non-scaling-stroke"/>
      <path class="st11" d="M236.31,552.17c-14.91,10.85-30.3,22.19-46.17,34.02-5.62,4.19-11.48,7.05-17.59,8.58-6.35,1.59-13.69,1.64-22.02.17-13.24-2.35-21.8-10.54-29.23-21.99-4.23-6.53-20.53-31.94-48.89-76.24-12.65-19.75-21.53-33.05-37.46-57.15-9.86-14.92-19.89-31.29-29.74-47.02-2.81-4.49-4.54-9.8-5.21-15.93" vector-effect="non-scaling-stroke"/>
      <path class="st14" d="M177.63,591.65c2.92-1.03,4.69-1.78,5.31-2.25,7.24-5.45,15.41-11.45,24.51-17.98,2.95-2.12,5.46-4.41,7.96-5.99,3.97-2.51,8.12-5.52,12.46-9.03,1.57-1.27,3.77-2.89,6.59-4.84,3.85-2.67,6.06-4.27,6.63-4.79,2.03-1.83,3.99-3.31,5.89-4.42,1.55-.91,3.52-2.38,5.93-4.39.26-.23.55-.42.86-.57,1.26-.63,1.99-1.03,2.19-1.18,4.01-3.24,7.19-5.05,10.69-8.04,1.17-1.01,2.73-2.09,4.66-3.25,1.87-1.13,2.96-2.75,4.75-3.77,1.09-.63,2.25-1.39,3.47-2.3,10.19-7.61,20.07-14.81,29.63-21.61.3-.21.57-.46.81-.75.67-.83,1.18-1.33,1.53-1.51,2.07-1.07,4.32-2.57,6.73-4.5,2.47-1.97,5.83-4.36,10.1-7.18,2.02-1.33,3.95-3.15,5.68-4.28,3.89-2.52,9.97-6.94,18.25-13.27,1.81-1.39,3.17-2.62,4.06-3.7.21-.26.5-.45.82-.54,1.89-.55,3.48-1.62,4.79-3.21,1.2-1.45,3.04-1.76,4.63-2.85,4.77-3.27,8.77-6.34,11.99-9.23.27-.24.59-.44.93-.58,1.15-.47,2.16-1.1,3.02-1.91,1.57-1.46,3.62-3.36,5.45-4.49,4.64-2.85,10.07-6.61,16.29-11.26.31-.23.99-.87,2.04-1.92.25-.25.53-.45.84-.61,3.32-1.69,5.69-4.24,8.53-5.88,1.95-1.13,4.35-2.88,7.18-5.26.15-.12,2.4-2.44,6.75-6.97,2.9-3.02,5.08-6.37,6.55-10.04,2.26-5.68,5.36-12.17,7.16-16.8.91-2.36,2.16-2.92,4.63-3.2,19.25-2.15,35.18-10.63,47.77-25.43,10.2-11.99,17.1-26.8,17-41.58-.05-5.82.28-10.18-.41-15.24-.43-3.15-.76-5.27-.98-6.35-2.89-14.41-9.88-25.78-19.75-36.34-8.99-9.62-21.14-16.46-33.54-20.42-1.04-.33-1.87-1.09-2.3-2.09-.9-2.11-1.69-4.18-2.36-6.21-1.76-5.29-3.47-10.2-5.13-14.73-2.2-5.99-4.42-10.68-6.65-14.05-5.62-8.48-13.57-14.32-23.85-17.52-2.74-.86-5.26-.56-7.64-1.56-.41-.17-.84-.28-1.28-.33-5.81-.63-9.31-1.08-10.48-1.33-3.81-.82-6.81-1.21-9.01-1.18-2.12.04-4.47-.28-7.05-.96-2.95-.78-6.94-1.2-11.98-1.27-.49-.01-.98-.09-1.45-.25-3.3-1.11-6.85-1.6-10.64-1.49-2.16.07-4.18-.25-6.06-.94-1.17-.43-4.62-.88-10.37-1.35-.39-.03-.78-.14-1.14-.31-.9-.42-1.85-.71-2.85-.87-3.76-.6-6.93-.9-9.5-.91-.7,0-1.4-.12-2.07-.36-3.76-1.36-7.89-1.41-12.18-1.77-1.72-.14-3.54-.15-5.47-.03-3.51.23-6.89.29-10.15.18-.65-.02-1.29.06-1.91.24-3.03.89-5.45,1.5-7.28,1.81-1.79.31-4.39,1.48-7.79,3.53-6.96,4.19-11.43,6.91-13.4,8.16-.26.17-.5.36-.73.57-.67.63-1.39,1.19-2.17,1.68-10.93,6.93-17.87,11.5-20.84,13.72-.33.25-.56.41-.7.5-6.45,4.13-9.98,6.37-10.57,6.74-1.42.88-3.43,2.1-6.04,3.66-3.7,2.21-8.88,5.53-15.55,9.96-2.53,1.69-4.16,2.71-4.88,3.07-2.03,1.03-3.7,2-4.99,2.93-2.12,1.51-4.45,3.05-6.99,4.63-9.35,5.83-18.68,11.73-27.98,17.7-3.61,2.31-7.17,4.7-10.69,7.17-1.73,1.21-3.81,2.59-6.23,4.12-2.49,1.58-4.53,3.01-6.12,4.28-.27.22-.57.4-.88.55-3.68,1.7-6.34,4.36-10.08,6.14-1.96.93-4.08,2.26-6.36,3.97-1.43,1.07-3.5,2.45-6.23,4.14-9.07,5.64-14.79,9.3-17.16,10.97-5.18,3.67-8.48,5.89-9.9,6.66-5.17,2.82-9.82,5.83-13.96,9.02-.38.29-.79.53-1.23.72-2.91,1.27-5.81,3-8.71,5.21-4.13,3.15-7.96,5.13-12.12,8.04-2.73,1.91-6.88,3.85-9.68,5.79-3.17,2.19-5.53,3.75-7.07,4.7-8.34,5.1-16.6,10.65-24.78,16.64-2.59,1.9-4.02,5.24-6.37,7.67-1.15,1.21-2.06,2.47-2.73,3.79-4.19,8.33-5.76,17.22-4.71,26.68.48,4.39,2.1,8.7,4.16,12.23,4.55,7.75,9.61,15.71,15.18,23.87,1.19,1.74,2.01,3.03,2.44,3.87,1.8,3.47,3.67,6.59,6.02,9.79,3.99,5.43,7.04,10.17,9.13,14.24,1.72,3.34,4.85,5.95,6.13,9.27.12.33.33.61.6.83,1.87,1.58,3.4,5.52,5.52,8,.05.06.1.12.14.19l19.4,29.55c.17.26.32.54.44.83.63,1.55,1.69,3.2,3.16,4.97.02.02.04.04.05.07l7.1,10.99c.08.12.15.24.2.37.87,2.06,1.5,3.35,1.87,3.87,3.45,4.79,6.26,9.04,8.42,12.74.48.82,1.17,1.82,2.06,3.01.55.74,1.23,1.75,2.03,3.03,2.83,4.55,4.36,7,4.59,7.35,2.38,3.59,4.4,6.8,6.07,9.62.27.45,1.33,1.82,3.2,4.11.22.27.41.55.58.86,2.49,4.58,5.06,8.63,7.71,12.14.19.25.36.52.51.81,1.97,3.82,3.98,6.91,6.05,9.27.27.31.51.64.71,1,5.49,9.72,12.94,15.71,22.34,17.97,10.05,2.41,20.36,2.51,30.25-.97" vector-effect="non-scaling-stroke"/>
      <path class="st17" d="M217.16,231.75c.05-.13-.09-.11-.42.04" vector-effect="non-scaling-stroke"/>
      <path class="st14" d="M216.74,231.79c-.01-.75-.17-1.07-.47-.96-1.49.5-2.67,1.05-3.54,1.64-3.39,2.32-6.48,4.23-9.29,5.74-2.87,1.55-4.93,3.68-8.08,5.14-.38.17-.74.39-1.07.64-7.93,6.01-17.59,11.15-26.24,16.92-5.46,3.64-8.69,5.8-9.69,6.49-2.48,1.7-5,2.69-7.17,4.37-.91.7-2.66,1.85-5.27,3.46-3.32,2.05-7.18,4.54-11.58,7.46-.29.19-.6.35-.93.48-2.85,1.07-5.1,2.54-6.77,4.39-.24.27-.53.49-.85.66-.79.4-3.25,1.96-7.38,4.67-.88.58-2.07.51-2.68,1.26-.52.63-1.06,1.13-1.63,1.5-13.61,8.81-20.88,13.49-21.81,14.03-1.95,1.12-3.75,2.83-5.67,3.79-1.22.61-2.68,1.48-4.37,2.61-8.5,5.69-14.53,9.55-18.09,11.57-3.8,2.15-6.3,3.71-7.51,4.68-2.77,2.22-4.94,3.73-6.5,4.54-.23.12-2.43,1.59-6.59,4.42-.37.26-3.6,2.16-9.69,5.71-2.67,1.56-4.76,3.39-7.3,5.26-1.42,1.05-3.4,3.57-5.95,7.57-.49.77-.84,1.63-1.04,2.52-.17.75-.8,3.11-1.89,7.08-.55,1.97,1.21,5.14,1.51,7.2.47,3.21,1.61,6.16,3.42,8.87.85,1.26,5.35,8.15,13.52,20.67,6.14,9.4,12.21,18.83,18.2,28.28,7.77,12.27,30.46,47.31,68.06,105.13,5.66,8.71,11.47,17.97,17.43,27.78.22.36.5.69.83.97,2.25,1.91,3.96,4.11,6.82,5.79,3.7,2.18,7.23,3.51,10.6,3.99,5.02.71,9.29-.74,13.48-2.14,2.01-.68,4.34-1.92,6.97-3.72,3.46-2.36,6.21-4.38,8.24-6.05,2.7-2.22,5.42-4.26,8.17-6.11,4.57-3.1,7.61-5.27,9.14-6.5,6.75-5.45,11.04-8.75,12.88-9.92,1.05-.66,2.43-1.76,4.16-3.31,3.06-2.73,7.26-5.01,10.83-7.76.37-.29,2.83-2.05,7.38-5.28,2.46-1.75,7-5.23,13.63-10.42,3.28-2.58,5.95-3.99,8.49-6.16,1.1-.95,3.23-2.48,6.39-4.59,5.76-3.85,11.44-7.87,17.04-12.06,2.45-1.84,4.48-3.28,6.07-4.31,2.13-1.4,4.14-3.03,6.03-4.88.39-.39.82-.73,1.29-1.04,3.46-2.28,6.44-4.42,8.95-6.43,4.18-3.33,7.13-5.49,8.86-6.48,4.45-2.54,8.62-6.35,13.17-9.02,6.28-3.68,10.94-8.02,16.5-11.96,9.18-6.52,13.89-9.86,14.13-10.03,6.03-4.24,11.38-9.78,17.69-13.59,3.54-2.13,7.51-5.82,11.61-8.54,2.82-1.87,6.5-4.84,8.21-6.49.25-.25.53-.45.84-.61,1.93-1.03,3.61-2.27,5.03-3.74.35-.35.73-.67,1.14-.95,4.65-3.08,7.97-5.56,9.95-7.45,1.71-1.63,3.3-4.01,4.77-7.14,2.5-5.33,4.61-10.29,6.34-14.87,7.53-19.93,13.26-33,25.06-60.27,3.23-7.47,5.13-16.5,2.48-24.05" vector-effect="non-scaling-stroke"/>
      <path class="st3" d="M453,292.24l-12.95-42.25c-.11-.35-.38-.62-.74-.72-6.85-1.96-15.49-.37-21.82,1.96-.34.12-.57.46-.55.83l.35,6.7" vector-effect="non-scaling-stroke"/>
      <path class="st12" d="M417.29,258.76c-.29,13.3-6.08,23.44-17.37,30.42-5.41,3.35-11.47,5.06-18.18,5.11-15.51.12-29.33-9.05-34.58-23.47-7.34-20.15,4.97-42.08,25.75-46.97,11.56-2.72,24.35.39,33.24,8.63.3.28.73.38,1.13.26l12.54-3.79" vector-effect="non-scaling-stroke"/>
      <path class="st3" d="M419.82,228.95l13.39-1.1c.38-.03.64-.41.54-.78-.69-2.38-2.39-7.64-5.1-15.77-3.8-11.39-12.04-16.61-23.38-18.11-53.95-7.15-84.97-11.28-93.07-12.39-8.85-1.22-17.1.66-24.74,5.64-12.42,8.09-35.62,22.9-69.6,44.41-.15.09-.38.39-.7.9" vector-effect="non-scaling-stroke"/>
      <path class="st15" d="M419.82,228.95c-.39-.55-.91-.83-1.54-.82-.71,0-1.15-.34-1.3-1.03-3.78-17.15-24.45-21.12-39.24-23.06-16.76-2.19-32.28-4.13-46.57-5.82-9.83-1.17-16.06-1.74-18.69-1.71-6.05.05-12.22,1-18.52,2.85-3.67,1.07-10.44,4.72-20.32,10.93-6.71,4.22-18.78,11.61-36.22,22.17-.37.23-1.09.63-2.15,1.22-2.41,1.35-4,3.02-4.76,5.01" vector-effect="non-scaling-stroke"/>
      <path class="st20" d="M230.51,238.69l-13.35-6.94" vector-effect="non-scaling-stroke"/>
      <path class="st15" d="M417.29,258.76c4.09-.11,10.69-.23,13.98,2.33,1.59,1.24,2.77,2.87,3.54,4.89,3.21,8.4,5.72,17.23,7.53,26.49,2.11,10.81-.04,18.65-4.39,29.05-8.56,20.49-16.83,41.02-24.82,61.61-2.12,5.47-2.23,10.64-.34,15.52" vector-effect="non-scaling-stroke"/>
      <path class="st7" d="M412.79,398.65l-16.85,12.37" vector-effect="non-scaling-stroke"/>
      <path class="st18" d="M395.94,411.02c-6.04-12.19-12.87-23.74-20.48-34.63-8.03-11.5-17.72-24.75-27.75-36.78-8.25-9.91-16.08-18.84-23.5-26.8-27.47-29.47-58.7-54.17-93.7-74.12" vector-effect="non-scaling-stroke"/>
      <path class="st6" d="M216.74,231.79c-.97.47-1.93,1-2.86,1.59-57.85,36.97-117.91,75.52-180.18,115.67-3.96,2.55-6.61,4.53-7.94,5.93-6.03,6.3-7.23,15.29-5.08,23.2.65,2.39,2.98,6.68,6.97,12.87,31.92,49.4,64.24,99.34,96.96,149.83,4.99,7.69,9.11,14.24,12.37,19.63,2.56,4.25,4.72,7.19,6.48,8.82,6.61,6.13,14.27,8.32,22.96,6.57,5.78-1.17,10.79-4.8,16.03-8.7,32.12-23.95,62.7-46.72,101.48-74.77,37.42-27.06,74.76-54.2,112.01-81.41" vector-effect="non-scaling-stroke"/>
      <path class="st21" d="M412.79,398.65c2.12-1.74,3.82-4,5.1-6.77,1.49-3.23,2.88-6.49,4.19-9.78,9.35-23.62,19.09-47.07,29.22-70.35,2.55-5.88,3.12-12.38,1.7-19.51" vector-effect="non-scaling-stroke"/>
      <path class="st13" d="M385.57,243.24c-8.39-2.94-16.97,2.37-19.53,10.51-3.18,10.14,4.25,20.19,14.5,21.05,7.51.64,13.54-3.87,15.05-11.31.06-.29-.22-.54-.5-.43-5.98,2.32-14.79.12-15.74-6.86-.78-5.7,1.31-9.71,6.27-12.03.41-.19.38-.78-.05-.93" vector-effect="non-scaling-stroke"/>
      <path class="st13" d="M463.12,255.17c.01.53.11,1.08.3,1.67,3.2,10.49,6.1,20.01,8.71,28.56,3.16,10.39,2.35,25.04-2.03,35.24-5.84,13.56-10.82,25.18-14.93,34.85-.15.36.18.72.55.61,10.94-3.36,19.92-9.48,26.95-18.36,9.81-12.4,13.3-26.71,10.47-42.94-2.98-17.03-14.5-31.12-29.56-39.9-.21-.12-.47.03-.46.27" vector-effect="non-scaling-stroke"/>
      <path class="st1" d="M683.77,288.84c-8.95-.07-18.09.54-27.42,1.84" vector-effect="non-scaling-stroke"/>
      <path class="st17" d="M216.58,309.55c-.81.61-1.36,1.51-1.52,2.52-8.28,51.46-17.43,101.54-27.45,150.25-1.5,7.3.11,8.95,7.11,10.04,3.72.57,7.07.73,10.05.47,3.66-.32,5.82-2.28,6.48-5.87,6.65-36.49,14.59-78.88,23.83-127.15,1.53-8.03,2.85-15.63,3.96-22.8.32-2.06.33-3.82.04-5.27-.3-1.47-1.41-2.65-2.86-3.04-4.82-1.3-15.16-2.49-19.64.85" vector-effect="non-scaling-stroke"/>
      <path class="st17" d="M272.73,369.58c-.26-20.82-.42-31.82-.49-33-.31-5.81.62-9.22-5.7-10.11-4.4-.62-16.49-1.68-18.35,2.25-.42.89-.62,1.76-.61,2.61.35,39.77-.98,74.32-.63,115.14.03,3.45,1.38,5.46,4.05,6.03,4.95,1.07,10.51.95,16.67-.34,3.51-.74,5.28-2.96,5.29-6.67.03-6.21,0-23.21-.07-50.99-.01-1.47.7-2.78,2.12-3.93,6.1-4.92,12.45-6.8,19.06-5.64,6.67,1.18,7.67,8.22,7.66,13.83,0,26.08,0,41.91.02,47.49.01,3.18,1.34,5.18,3.99,6.01,3.44,1.07,7.64,1.35,12.61.84,7.82-.81,8.51-5.06,8.65-11.85.09-4.91.2-17.6.31-38.07.03-5.91-.07-10.35-.29-13.32-.71-9.38-5.68-19.91-14.03-24.41-12.51-6.75-28.21-4.29-39.64,4.43-.25.19-.62.02-.62-.3" vector-effect="non-scaling-stroke"/>
      <path class="st17" d="M122.47,371.16c-.41,0-.69-.4-.54-.77,4.27-10.87,12.06-17.19,23.35-18.97,5.92-.93,13.83-.39,20.23,2.01,2.93,1.1,5.74,2.53,7.72,2.07,2.78-.65,3.92-2.96,5.85-6,2.59-4.07,4.71-7.96,2.33-12.39-1.53-2.85-6.25-5.23-9.37-6.16-21.93-6.55-45.29-3.23-62.09,12.79-7.87,7.5-13.14,16.39-15.82,26.67-.1.39-.45.66-.86.67-3.4.01-6.76.12-10.09.31-5.16.31-6.23,4.63-5.93,8.86.25,3.44,1.84,5.4,4.79,5.88,2.63.43,5.73.66,9.32.71.21,0,.38.17.38.38v8.91c0,.14-.1.25-.24.26-3.68.31-6.49.46-8.44.45-3.17,0-4.98,1.5-5.42,4.51-.52,3.55-.74,8.96,3.39,10.18,3.42,1.02,8.86.67,13.51.83.5.02.92.37,1.03.85,3.1,13.73,10.09,24.38,20.97,31.94,16.09,11.19,36.44,12.48,55.16,5.84,5.38-1.91,11.28-5.63,9.46-12.35-.79-2.92-1.98-5.96-3.57-9.13-1.74-3.47-4.58-4.42-8.51-2.87-4.66,1.85-9.25,3.07-13.76,3.68-13.96,1.88-28.14-3.16-33.23-17.28-.19-.54.22-1.1.79-1.07,3.97.17,9.27.42,15.88.75,7.13.35,14.1,1.67,16-5.79,1.2-4.71,1.58-9.96-4.8-10.15-7.15-.21-17.71-.53-31.68-.95-.35,0-.63-.3-.63-.66v-8.03c0-.31.25-.56.56-.56h39.3c.65,0,1.28-.26,1.75-.72,2.93-2.93,4.36-6.4,4.27-10.39-.08-3.69-6.11-4.22-8.78-4.26-10.75-.13-21.51-.14-32.28-.05" vector-effect="non-scaling-stroke"/>
      <path class="st14" d="M858.79,617.42c-.63-.13-.9-.38-.83-.76,0-.07.06-.14.12-.18,1.96-1.44,4.31-3.24,7.06-5.41,2.92-2.31,4.29-4.62,6.83-6.92,1.45-1.31,3.06-3.14,4.84-5.48,4.19-5.53,7.44-10.56,9.74-15.09,4.5-8.89,7.27-18.6,8.31-29.13.61-6.22.37-13.42-.74-21.59-.98-7.22-2.92-14.16-5.81-20.81-3.37-7.75-8.09-15.11-14.18-22.1-2.15-2.47-4.69-4.81-7.62-7.03-.17-.13-2.9-2.28-8.19-6.44-3.56-2.8-7.63-5.17-12.2-7.1-1.2-.51-1.76-1.53-1.69-3.08.49-10,.38-19.88-.34-29.63-.33-4.42-1.13-7.35-1.53-11.36-.23-2.22-.77-5.03-1.62-8.43-2.14-8.51-4.64-16.39-7.49-23.65-2.9-7.37-7.7-16.43-11.1-22.35-5.04-8.78-11.36-17.43-18.96-25.96-3.93-4.41-8.51-8.46-12.98-13.06-.93-.96-2.59-2.2-4.98-3.73-.45-.29-.86-.62-1.24-.99-1.88-1.84-5.1-4.82-7.56-6.14-2.6-1.39-4.29-3.05-7.04-4.76-8.92-5.54-18.25-10.34-27.98-14.41-4.45-1.86-8.53-3.28-12.24-4.25-7.33-1.93-11.54-2.95-12.63-3.05-1.02-.09-2.43-.42-4.22-.98-1.55-.49-3.53-.81-5.93-.98-6.24-.45-13.95-2.02-18.4-2.09-6.13-.09-11.42-.61-17.25-.17-17.12,1.27-33.49,4.66-49.1,10.17-3.87,1.37-7.52,2.88-10.95,4.54-5.62,2.73-9.18,4.46-10.68,5.17-.67.31-2.66,1.59-5.96,3.82-.27.18-.55.33-.84.46-2.92,1.28-5.47,2.81-7.64,4.59-5.27,4.31-9.33,7.52-12.18,9.65-3.66,2.73-5.42,5.33-8.5,8.13-.35.31-2.24,2.57-5.67,6.78-2.61,3.19-4.94,5.72-6.97,7.6-.59.54-1.76,2.16-3.52,4.87-.05.09-.21.47-.48,1.16-.25.63-.56,1.21-.93,1.74-2.11,2.97-4.33,5.39-6.21,8.42-5.53,8.91-10.11,17.78-13.73,26.59-6.65,16.17-10.41,32.93-11.28,50.26-.29,5.64.06,14.84.04,22.32,0,.31.03.62.08.93.24,1.39.6,4.39,1.08,9,.73,6.99,2.52,15.8,5.37,26.45,2.22,8.29,5.91,17.25,11.08,26.88,1.73,3.23,3,5.66,3.83,7.31,2.64,5.26,6.28,9.58,9.4,14.32,1.35,2.06,2.7,3.8,4.05,5.23,2.08,2.2,4.4,6.34,7.47,8.22.29.18.54.43.74.71,1.68,2.45,3.4,4.56,5.17,6.32,4.27,4.28,9.75,8.8,16.46,13.56.43.31.84.65,1.22,1.03.89.9,1.45,1.42,1.69,1.55,5.27,2.93,9.58,5.44,12.93,7.53,9.79,6.11,21.53,11.06,30.77,14.96,1.39.59,2.88,1.76,4.46,3.52" vector-effect="non-scaling-stroke"/>
      <path class="st11" d="M632.14,614.1c-5.94-2.03-11.73-4.4-17.37-7.12-5.91-2.84-11.17-5.48-15.78-7.93" vector-effect="non-scaling-stroke"/>
      <path class="st16" d="M598.99,599.05c-19.16-10.67-35.22-24.12-48.19-40.33-21.11-26.4-33.01-56.11-35.7-89.12-.72-8.77-.55-18.78-.14-27.35,1.28-26.59,10-51.13,23.69-74.35,10.91-18.52,24.9-34.11,41.97-46.78,1.91-1.42,3.83-2.86,5.76-4.33" vector-effect="non-scaling-stroke"/>
      <path class="st4" d="M801.59,632c-20.04-1.91-37.28-9.7-51.73-23.39-.52-.49-1.29-.61-1.94-.3-30.33,14.9-67.06,16.66-99.84,9.76-7.65-1.61-12.96-2.93-15.94-3.97" vector-effect="non-scaling-stroke"/>
      <path class="st17" d="M777.7,346.51c-9.17-7.51-18.96-14.07-29.37-19.68" vector-effect="non-scaling-stroke"/>
      <path class="st14" d="M748.33,326.83c-4.05-3.55-9.38-6.51-16-8.86-18.59-6.61-36.74-9.8-54.44-9.57-9.22.12-20.7,1.52-34.43,4.21-4.6.9-8.06,2.36-13.01,3.75-3.25.91-6.43,2.04-9.55,3.4-8.89,3.87-17.58,8.66-26.06,14.38-3.83,2.58-9.47,7.22-16.92,13.91-2.66,2.39-5.24,5.21-7.74,8.46-.98,1.27-3.31,4.32-6.98,9.15-6.03,7.92-11.36,16.92-15.99,27.01-2.68,5.85-5.86,14.5-9.55,25.95-1.21,3.74-1.12,7.48-2.53,11.17-.14.36-.22.74-.25,1.13-.29,4.27-.52,7.49-.67,9.66-.61,8.49-.18,16.94-.12,24.72.03,3.15.29,6.25.8,9.3.61,3.69,1.14,6.75,1.61,9.2,3.7,19.45,11.18,37.3,22.44,53.53,5.74,8.27,11.35,15.15,16.83,20.64,16.81,16.83,36.58,29.11,59.31,36.84,21.59,7.34,44.88,9.37,69.86,6.09,10.65-1.39,20.8-4.27,30.47-8.63,1.41-.64,1.95-2.37,1.15-3.7-1.69-2.81-3.1-5.7-4.24-8.69-4.92-12.93-8.01-25.57-7.1-38.81,1.11-16.23,6.57-33.51,17.17-45.82,6.17-7.16,12.99-15.37,21.39-20.78,12.19-7.87,25.61-12.11,40.24-12.73,6.4-.27,14.36.51,21.71.64.41.01.76-.29.83-.69.75-4.68.65-8.04.51-14.02-.25-10.45-1.75-20.55-4.48-30.3-7.27-25.95-20.26-48.45-38.95-67.5-1.86-1.9-3.84-3.02-5.94-3.36" vector-effect="non-scaling-stroke"/>
      <path class="st6" d="M748.33,326.83c-34.51-18.4-74.78-21.54-112.11-10.86-32.29,9.23-58.73,29.62-76.94,57.83-9,13.95-15.62,28.66-19.85,44.15-2.82,10.33-4.28,21.85-4.37,34.56-.3,41.16,13.79,76.21,42.28,105.15,14.89,15.12,32.95,26.63,54.18,34.53,10.31,3.84,21.68,6.47,34.13,7.9,23.59,2.72,47.95.36,69.76-8.95.34-.14.48-.55.29-.87-15.81-27.26-16.28-60.76-.46-88.03,18.46-31.82,53.78-46.72,89.67-40.9.41.07.79-.24.81-.66.55-13.48-.37-26.48-3.67-39.5-7.39-29.14-22.19-54.73-44.35-74.67" vector-effect="non-scaling-stroke"/>
      <path class="st22" d="M875.38,554.5c4.69-36.09-20.83-69.15-56.99-73.86-36.17-4.7-69.28,20.75-73.97,56.85-4.69,36.09,20.83,69.15,56.99,73.86,36.17,4.7,69.28-20.75,73.97-56.85" vector-effect="non-scaling-stroke"/>
      <path class="st10" d="M649.94,314.91c3.03,0,6.05-.67,9.25-.59,9.1.23,16.33.59,21.69,1.08,37.06,3.45,73.73,20.83,98.21,49.3,21.83,25.38,33.38,58.54,31.95,92.74-.04,1.11.87,2.01,1.98,1.95,3.97-.2,7.32.04,10.03.72.88.22,1.72-.49,1.65-1.4-.32-3.85-.42-7.79-.31-11.8.11-3.93-.18-7.85-.89-11.75-1.64-9-2.8-14.72-3.49-17.15-3.5-12.33-8.54-24.3-15.11-35.93-4.06-7.17-8.23-13.17-12.5-18-1.48-1.67-2.5-3-3.07-4.01-.13-.24-.3-.45-.51-.63-2.87-2.58-5.6-5.26-8.17-8.05-1.69-1.83-3.8-3.7-6.34-5.62-2.25-1.7-4.48-3.39-6.71-5.08-1.06-.81-3.15-2.32-6.28-4.54-6.85-4.85-16.65-9.96-29.39-15.32-8.4-3.53-19.54-6.35-33.42-8.45-2.85-.43-6.07-.24-9.1-.64-4.18-.55-9.24-.39-13.45-.34-2.89.04-5.26.62-7.79.65-2.19.03-4.14.15-5.84.38-5.87.78-10.02,1.41-12.45,1.89-.15.03-.25.17-.24.32.02.15.15.27.3.27" vector-effect="non-scaling-stroke"/>
      <path class="st17" d="M691.07,431.79c-.09-.41-.12-1.09-.11-2.04.08-4.25.16-26.91.24-68,.01-6.78.25-12.39-6.17-15.54-6.64-3.25-14.07.39-16.33,7.06-.35,1.05-.55,4.39-.59,10.02-.19,26.42-.23,54.16-.13,83.21,0,2.65-.26,10.5,1.06,13.86,3.76,9.61,15.03,10.21,22,3.69,7.11-6.65,23.17-21.43,48.16-44.34,3.91-3.58,6.17-5.81,6.78-6.7,3.46-5.04,2.46-11.71-2.27-15.67-3.65-3.04-9.94-3.95-13.69-.54-13.73,12.48-26.46,24.22-38.17,35.23-.27.25-.7.11-.78-.24" vector-effect="non-scaling-stroke"/>
      <path class="st17" d="M583.31,452.91c-.04-4.45-3.69-8.02-8.14-7.98l-14.34.15c-4.45.04-8.02,3.69-7.98,8.14v1.02c.05,4.45,3.7,8.02,8.15,7.98l14.34-.15c4.45-.04,8.02-3.69,7.98-8.14v-1.02" vector-effect="non-scaling-stroke"/>
      <path class="st10" d="M721.75,547.13c-3.25,14.68-2.07,30.95,1.32,45.79.21.92,1.19,1.44,2.07,1.1l8.11-3.1c.63-.24.9-1,.56-1.59-2.88-5.03-5.34-10.78-7.38-17.25-2.52-8.03-4.02-16.34-4.5-24.94,0-.05-.04-.08-.08-.08-.05-.01-.09.03-.1.07" vector-effect="non-scaling-stroke"/>
      <path class="st17" d="M689.58,556.31c-.04-4.48-3.7-8.07-8.18-8.04h-1.48c-4.48.06-8.08,3.72-8.04,8.19l.12,14.02c.04,4.48,3.7,8.07,8.18,8.04h1.48c4.48-.06,8.08-3.72,8.04-8.19l-.12-14.02" vector-effect="non-scaling-stroke"/>
      <path class="st0" d="M598.99,599.05c-43.33,20.52-88.76,31.5-136.29,32.95" vector-effect="non-scaling-stroke"/>
      <path class="st0" d="M444.38,632c-78.69-2.78-148.04-29.39-208.07-79.83" vector-effect="non-scaling-stroke"/>
      <path class="st8" d="M801.12,555.3c-2.22-1.5-6.35-5.93-12.08-11.47-3.19-3.08-5.5-4.89-6.93-5.42-8.05-2.96-14.86,4.1-12.84,11.97.43,1.68,3.29,5.1,4.32,5.81,1.43.97,8.29,7.75,20.59,20.34,3.23,3.3,6.73,4.36,10.52,3.19,1.81-.56,4.64-3.15,8.49-7.77,8.01-9.61,18.88-22.41,32.62-38.38,4.05-4.7,7.47-9.06,3.42-15.01-1.98-2.92-7.47-5.5-11.28-3.77-1.27.57-2.51,1.55-3.72,2.94-11.87,13.65-22.51,26.11-31.92,37.4-.3.35-.81.43-1.19.17" vector-effect="non-scaling-stroke"/>
    </g>
  </g>
  <path class="st26" d="M463.34,0c39.32,1.24,77.37,9.13,114.16,23.66-22.53.37-44.86.49-66.99.36-5.35-.03-8.94.45-10.77,1.44-3.16,1.71-4.74,4.81-4.74,9.29,0,21.82.01,93.32.04,214.5,0,1.37-.45,2.53-1.34,3.47-9.86-10.35-21.66-17.65-35.4-21.91-.35-.11-.65-.34-.86-.64-.82-1.21-1.54-2.77-2.16-4.66-3.35-10.19-6.91-22.42-12.17-30.47-5.83-8.93-13.67-15.18-23.5-18.75-3.34-1.21-11.8-2.74-25.38-4.58-37.32-5.06-61.56-8.38-72.73-9.96-4.35-.61-9.69-.96-16-1.05-12.08-.18-20.62,3.47-31.27,10.3-47.13,30.23-94.28,60.43-141.45,90.6-.53-1.2-.57-2.93-.1-5.2,12.87-61.9,41.37-115.06,85.5-159.48,25.1-25.27,53.93-46.03,86.5-62.28C347.65,13.2,394.02,1.65,443.77,0h19.57Z"/>
  <path class="st31" d="M723.04,138.07c.01,48.66.02,97.22.02,145.68,0,3.52-.16,6.99-.47,10.41-12.64-3.14-25.58-4.91-38.82-5.32,4.11-2.87,6.48-5.78,7.12-8.71.59-2.65.88-5.94.88-9.88-.01-31.02-.03-56.94-.08-77.77-.01-2.22-.17-6.43-.5-12.63-.21-4.07-.91-7-2.09-8.79-3.23-4.89-8.34-6-14.09-6.07-6.2-.08-18.03-.08-35.48,0-3.15.02-6.46,1.43-9.95,4.24-4.76,3.83-4.65,13.78-4.64,19.29.05,16.61.09,45.76.11,87.46,0,9.16,7.03,12.16,15.04,13.91.13.03.26.04.39.05l15.87.74c-6.71,1.07-12.46,2.13-17.23,3.19-18.87,4.17-36.43,12.32-52.74,22.92-1.98-.64-3.94-.95-5.88-.94-22.21.12-44.44.18-66.69.17.35-5.65.42-11.33.22-17.02-.61-17.31-8.53-33.79-20.33-46.28.89-.94,1.34-2.1,1.34-3.47-.03-121.18-.04-192.68-.04-214.5,0-4.48,1.58-7.58,4.74-9.29,1.83-.99,5.42-1.47,10.77-1.44,22.13.13,44.46.01,66.99-.36,1.56-.06,3.25-.03,5.06.09,2.19.15,3.88.22,5.05.22,69.75.04,108.71.04,116.88,0,11.37-.06,18.31,1.08,18.46,14.35.03,2.65.04,32.74.03,90.27,0,.07.05,1.64.16,4.73.05,1.65.02,3.23-.1,4.75ZM633.04,59.16c0-3.43-2.79-6.21-6.22-6.2l-56.32.1c-3.43.01-6.21,2.79-6.2,6.22v1.58c.01,3.43,2.79,6.21,6.22,6.2l56.32-.1c3.43-.01,6.21-2.79,6.2-6.22v-1.58ZM658.96,93.12c0-5.08-4.13-9.19-9.21-9.17l-76.44.13c-5.07.01-9.18,4.13-9.17,9.21v1.5c.01,5.08,4.13,9.19,9.21,9.17l76.44-.13c5.07-.01,9.18-4.13,9.17-9.21v-1.5ZM658.93,130.23c0-5.05-4.09-9.14-9.14-9.14h-76.52c-5.05,0-9.14,4.09-9.14,9.14v1.54c0,5.05,4.09,9.14,9.14,9.14h76.52c5.05,0,9.14-4.09,9.14-9.14v-1.54ZM604.59,276.9l-.08-48.76c-.02-7.2-5.86-13.03-13.07-13.02l-38.66.07c-8.08.02-14.62,6.41-14.61,14.29l.08,46.32c.01,7.87,6.58,14.25,14.67,14.23l38.66-.07c7.2,0,13.03-5.86,13.01-13.06Z"/>
  <rect class="st30" x="564.3" y="53.01" width="68.74" height="14" rx="6.21" ry="6.21" transform="translate(-.1 1.04) rotate(-.1)"/>
  <rect class="st30" x="564.14" y="84.01" width="94.82" height="19.88" rx="9.19" ry="9.19" transform="translate(-.16 1.07) rotate(-.1)"/>
  <rect class="st30" x="564.13" y="121.09" width="94.8" height="19.82" rx="9.14" ry="9.14"/>
  <path class="st26" d="M723.04,138.07c1.22,1.36,2.73,3.4,4.53,6.12,34.98,52.75,52.48,110.76,52.5,174.04,0,.39-.05.78-.14,1.16l-.44,1.89c-12.07-8.5-24.57-15.42-37.5-20.76-5.99-2.47-12.45-4.59-19.4-6.36.31-3.42.47-6.89.47-10.41,0-48.46-.01-97.02-.02-145.68Z"/>
  <path class="st24" d="M493.7,252.72c11.8,12.49,19.72,28.97,20.33,46.28.2,5.69.13,11.37-.22,17.02-1.19,8.8-3.9,16.84-8.14,24.13-13.27,22.79-33.08,35.81-59.42,39.08-.53.06-.98.4-1.2.89-2.39,5.49-4.2,9.76-5.45,12.81-3.89,9.54-8.49,16.44-16.08,22.82,0,.01-3.88,2.82-11.6,8.43-58.08,42.23-117.04,84.91-175.61,127.99-14.91,10.85-30.3,22.19-46.17,34.02-5.62,4.19-11.48,7.05-17.59,8.58-6.35,1.59-13.69,1.64-22.02.17-13.24-2.35-21.8-10.54-29.23-21.99-4.23-6.53-20.53-31.94-48.89-76.24-12.65-19.75-21.53-33.05-37.46-57.15-9.86-14.92-19.89-31.29-29.74-47.02-2.81-4.49-4.54-9.8-5.21-15.93v-10.14c1.68-14.19,8.59-25.19,20.73-33,37.33-24,74.68-47.96,112.05-71.87,47.17-30.17,94.32-60.37,141.45-90.6,10.65-6.83,19.19-10.48,31.27-10.3,6.31.09,11.65.44,16,1.05,11.17,1.58,35.41,4.9,72.73,9.96,13.58,1.84,22.04,3.37,25.38,4.58,9.83,3.57,17.67,9.82,23.5,18.75,5.26,8.05,8.82,20.28,12.17,30.47.62,1.89,1.34,3.45,2.16,4.66.21.3.51.53.86.64,13.74,4.26,25.54,11.56,35.4,21.91ZM177.63,591.65c2.92-1.03,4.69-1.78,5.31-2.25,7.24-5.45,15.41-11.45,24.51-17.98,2.95-2.12,5.46-4.41,7.96-5.99,3.97-2.51,8.12-5.52,12.46-9.03,1.57-1.27,3.77-2.89,6.59-4.84,3.85-2.67,6.06-4.27,6.63-4.79,2.03-1.83,3.99-3.31,5.89-4.42,1.55-.91,3.52-2.38,5.93-4.39.26-.23.55-.42.86-.57,1.26-.63,1.99-1.03,2.19-1.18,4.01-3.24,7.19-5.05,10.69-8.04,1.17-1.01,2.73-2.09,4.66-3.25,1.87-1.13,2.96-2.75,4.75-3.77,1.09-.63,2.25-1.39,3.47-2.3,10.19-7.61,20.07-14.81,29.63-21.61.3-.21.57-.46.81-.75.67-.83,1.18-1.33,1.53-1.51,2.07-1.07,4.32-2.57,6.73-4.5,2.47-1.97,5.83-4.36,10.1-7.18,2.02-1.33,3.95-3.15,5.68-4.28,3.89-2.52,9.97-6.94,18.25-13.27,1.81-1.39,3.17-2.62,4.06-3.7.21-.26.5-.45.82-.54,1.89-.55,3.48-1.62,4.79-3.21,1.2-1.45,3.04-1.76,4.63-2.85,4.77-3.27,8.77-6.34,11.99-9.23.27-.24.59-.44.93-.58,1.15-.47,2.16-1.1,3.02-1.91,1.57-1.46,3.62-3.36,5.45-4.49,4.64-2.85,10.07-6.61,16.29-11.26.31-.23.99-.87,2.04-1.92.25-.25.53-.45.84-.61,3.32-1.69,5.69-4.24,8.53-5.88,1.95-1.13,4.35-2.88,7.18-5.26.15-.12,2.4-2.44,6.75-6.97,2.9-3.02,5.08-6.37,6.55-10.04,2.26-5.68,5.36-12.17,7.16-16.8.91-2.36,2.16-2.92,4.63-3.2,19.25-2.15,35.18-10.63,47.77-25.43,10.2-11.99,17.1-26.8,17-41.58-.05-5.82.28-10.18-.41-15.24-.43-3.15-.76-5.27-.98-6.35-2.89-14.41-9.88-25.78-19.75-36.34-8.99-9.62-21.14-16.46-33.54-20.42-1.04-.33-1.87-1.09-2.3-2.09-.9-2.11-1.69-4.18-2.36-6.21-1.76-5.29-3.47-10.2-5.13-14.73-2.2-5.99-4.42-10.68-6.65-14.05-5.62-8.48-13.57-14.32-23.85-17.52-2.74-.86-5.26-.56-7.64-1.56-.41-.17-.84-.28-1.28-.33-5.81-.63-9.31-1.08-10.48-1.33-3.81-.82-6.81-1.21-9.01-1.18-2.12.04-4.47-.28-7.05-.96-2.95-.78-6.94-1.2-11.98-1.27-.49-.01-.98-.09-1.45-.25-3.3-1.11-6.85-1.6-10.64-1.49-2.16.07-4.18-.25-6.06-.94-1.17-.43-4.62-.88-10.37-1.35-.39-.03-.78-.14-1.14-.31-.9-.42-1.85-.71-2.85-.87-3.76-.6-6.93-.9-9.5-.91-.7,0-1.4-.12-2.07-.36-3.76-1.36-7.89-1.41-12.18-1.77-1.72-.14-3.54-.15-5.47-.03-3.51.23-6.89.29-10.15.18-.65-.02-1.29.06-1.91.24-3.03.89-5.45,1.5-7.28,1.81-1.79.31-4.39,1.48-7.79,3.53-6.96,4.19-11.43,6.91-13.4,8.16-.26.17-.5.36-.73.57-.67.63-1.39,1.19-2.17,1.68-10.93,6.93-17.87,11.5-20.84,13.72-.33.25-.56.41-.7.5-6.45,4.13-9.98,6.37-10.57,6.74-1.42.88-3.43,2.1-6.04,3.66-3.7,2.21-8.88,5.53-15.55,9.96-2.53,1.69-4.16,2.71-4.88,3.07-2.03,1.03-3.7,2-4.99,2.93-2.12,1.51-4.45,3.05-6.99,4.63-9.35,5.83-18.68,11.73-27.98,17.7-3.61,2.31-7.17,4.7-10.69,7.17-1.73,1.21-3.81,2.59-6.23,4.12-2.49,1.58-4.53,3.01-6.12,4.28-.27.22-.57.4-.88.55-3.68,1.7-6.34,4.36-10.08,6.14-1.96.93-4.08,2.26-6.36,3.97-1.43,1.07-3.5,2.45-6.23,4.14-9.07,5.64-14.79,9.3-17.16,10.97-5.18,3.67-8.48,5.89-9.9,6.66-5.17,2.82-9.82,5.83-13.96,9.02-.38.29-.79.53-1.23.72-2.91,1.27-5.81,3-8.71,5.21-4.13,3.15-7.96,5.13-12.12,8.04-2.73,1.91-6.88,3.85-9.68,5.79-3.17,2.19-5.53,3.75-7.07,4.7-8.34,5.1-16.6,10.65-24.78,16.64-2.59,1.9-4.02,5.24-6.37,7.67-1.15,1.21-2.06,2.47-2.73,3.79-4.19,8.33-5.76,17.22-4.71,26.68.48,4.39,2.1,8.7,4.16,12.23,4.55,7.75,9.61,15.71,15.18,23.87,1.19,1.74,2.01,3.03,2.44,3.87,1.8,3.47,3.67,6.59,6.02,9.79,3.99,5.43,7.04,10.17,9.13,14.24,1.72,3.34,4.85,5.95,6.13,9.27.12.33.33.61.6.83,1.87,1.58,3.4,5.52,5.52,8,.05.06.1.12.14.19l19.4,29.55c.17.26.32.54.44.83.63,1.55,1.69,3.2,3.16,4.97.02.02.04.04.05.07l7.1,10.99c.08.12.15.24.2.37.87,2.06,1.5,3.35,1.87,3.87,3.45,4.79,6.26,9.04,8.42,12.74.48.82,1.17,1.82,2.06,3.01.55.74,1.23,1.75,2.03,3.03,2.83,4.55,4.36,7,4.59,7.35,2.38,3.59,4.4,6.8,6.07,9.62.27.45,1.33,1.82,3.2,4.11.22.27.41.55.58.86,2.49,4.58,5.06,8.63,7.71,12.14.19.25.36.52.51.81,1.97,3.82,3.98,6.91,6.05,9.27.27.31.51.64.71,1,5.49,9.72,12.94,15.71,22.34,17.97,10.05,2.41,20.36,2.51,30.25-.97Z"/>
  <path class="st28" d="M177.63,591.65c-9.89,3.48-20.2,3.38-30.25.97-9.4-2.26-16.85-8.25-22.34-17.97-.2-.36-.44-.69-.71-1-2.07-2.36-4.08-5.45-6.05-9.27-.15-.29-.32-.56-.51-.81-2.65-3.51-5.22-7.56-7.71-12.14-.17-.31-.36-.59-.58-.86-1.87-2.29-2.93-3.66-3.2-4.11-1.67-2.82-3.69-6.03-6.07-9.62-.23-.35-1.76-2.8-4.59-7.35-.8-1.28-1.48-2.29-2.03-3.03-.89-1.19-1.58-2.19-2.06-3.01-2.16-3.7-4.97-7.95-8.42-12.74-.37-.52-1-1.81-1.87-3.87-.05-.13-.12-.25-.2-.37l-7.1-10.99s-.03-.05-.05-.07c-1.47-1.77-2.53-3.42-3.16-4.97-.12-.29-.27-.57-.44-.83l-19.4-29.55c-.04-.07-.09-.13-.14-.19-2.12-2.48-3.65-6.42-5.52-8-.27-.22-.48-.5-.6-.83-1.28-3.32-4.41-5.93-6.13-9.27-2.09-4.07-5.14-8.81-9.13-14.24-2.35-3.2-4.22-6.32-6.02-9.79-.43-.84-1.25-2.13-2.44-3.87-5.57-8.16-10.63-16.12-15.18-23.87-2.06-3.53-3.68-7.84-4.16-12.23-1.05-9.46.52-18.35,4.71-26.68.67-1.32,1.58-2.58,2.73-3.79,2.35-2.43,3.78-5.77,6.37-7.67,8.18-5.99,16.44-11.54,24.78-16.64,1.54-.95,3.9-2.51,7.07-4.7,2.8-1.94,6.95-3.88,9.68-5.79,4.16-2.91,7.99-4.89,12.12-8.04,2.9-2.21,5.8-3.94,8.71-5.21.44-.19.85-.43,1.23-.72,4.14-3.19,8.79-6.2,13.96-9.02,1.42-.77,4.72-2.99,9.9-6.66,2.37-1.67,8.09-5.33,17.16-10.97,2.73-1.69,4.8-3.07,6.23-4.14,2.28-1.71,4.4-3.04,6.36-3.97,3.74-1.78,6.4-4.44,10.08-6.14.31-.15.61-.33.88-.55,1.59-1.27,3.63-2.7,6.12-4.28,2.42-1.53,4.5-2.91,6.23-4.12,3.52-2.47,7.08-4.86,10.69-7.17,9.3-5.97,18.63-11.87,27.98-17.7,2.54-1.58,4.87-3.12,6.99-4.63,1.29-.93,2.96-1.9,4.99-2.93.72-.36,2.35-1.38,4.88-3.07,6.67-4.43,11.85-7.75,15.55-9.96,2.61-1.56,4.62-2.78,6.04-3.66.59-.37,4.12-2.61,10.57-6.74.14-.09.37-.25.7-.5,2.97-2.22,9.91-6.79,20.84-13.72.78-.49,1.5-1.05,2.17-1.68.23-.21.47-.4.73-.57,1.97-1.25,6.44-3.97,13.4-8.16,3.4-2.05,6-3.22,7.79-3.53,1.83-.31,4.25-.92,7.28-1.81.62-.18,1.26-.26,1.91-.24,3.26.11,6.64.05,10.15-.18,1.93-.12,3.75-.11,5.47.03,4.29.36,8.42.41,12.18,1.77.67.24,1.37.36,2.07.36,2.57.01,5.74.31,9.5.91,1,.16,1.95.45,2.85.87.36.17.75.28,1.14.31,5.75.47,9.2.92,10.37,1.35,1.88.69,3.9,1.01,6.06.94,3.79-.11,7.34.38,10.64,1.49.47.16.96.24,1.45.25,5.04.07,9.03.49,11.98,1.27,2.58.68,4.93,1,7.05.96,2.2-.03,5.2.36,9.01,1.18,1.17.25,4.67.7,10.48,1.33.44.05.87.16,1.28.33,2.38,1,4.9.7,7.64,1.56,10.28,3.2,18.23,9.04,23.85,17.52,2.23,3.37,4.45,8.06,6.65,14.05,1.66,4.53,3.37,9.44,5.13,14.73.67,2.03,1.46,4.1,2.36,6.21.43,1,1.26,1.76,2.3,2.09,12.4,3.96,24.55,10.8,33.54,20.42,9.87,10.56,16.86,21.93,19.75,36.34.22,1.08.55,3.2.98,6.35.69,5.06.36,9.42.41,15.24.1,14.78-6.8,29.59-17,41.58-12.59,14.8-28.52,23.28-47.77,25.43-2.47.28-3.72.84-4.63,3.2-1.8,4.63-4.9,11.12-7.16,16.8-1.47,3.67-3.65,7.02-6.55,10.04-4.35,4.53-6.6,6.85-6.75,6.97-2.83,2.38-5.23,4.13-7.18,5.26-2.84,1.64-5.21,4.19-8.53,5.88-.31.16-.59.36-.84.61-1.05,1.05-1.73,1.69-2.04,1.92-6.22,4.65-11.65,8.41-16.29,11.26-1.83,1.13-3.88,3.03-5.45,4.49-.86.81-1.87,1.44-3.02,1.91-.34.14-.66.34-.93.58-3.22,2.89-7.22,5.96-11.99,9.23-1.59,1.09-3.43,1.4-4.63,2.85-1.31,1.59-2.9,2.66-4.79,3.21-.32.09-.61.28-.82.54-.89,1.08-2.25,2.31-4.06,3.7-8.28,6.33-14.36,10.75-18.25,13.27-1.73,1.13-3.66,2.95-5.68,4.28-4.27,2.82-7.63,5.21-10.1,7.18-2.41,1.93-4.66,3.43-6.73,4.5-.35.18-.86.68-1.53,1.51-.24.29-.51.54-.81.75-9.56,6.8-19.44,14-29.63,21.61-1.22.91-2.38,1.67-3.47,2.3-1.79,1.02-2.88,2.64-4.75,3.77-1.93,1.16-3.49,2.24-4.66,3.25-3.5,2.99-6.68,4.8-10.69,8.04-.2.15-.93.55-2.19,1.18-.31.15-.6.34-.86.57-2.41,2.01-4.38,3.48-5.93,4.39-1.9,1.11-3.86,2.59-5.89,4.42-.57.52-2.78,2.12-6.63,4.79-2.82,1.95-5.02,3.57-6.59,4.84-4.34,3.51-8.49,6.52-12.46,9.03-2.5,1.58-5.01,3.87-7.96,5.99-9.1,6.53-17.27,12.53-24.51,17.98-.62.47-2.39,1.22-5.31,2.25ZM217.16,231.75c.05-.13-.09-.11-.42.04-.01-.75-.17-1.07-.47-.96-1.49.5-2.67,1.05-3.54,1.64-3.39,2.32-6.48,4.23-9.29,5.74-2.87,1.55-4.93,3.68-8.08,5.14-.38.17-.74.39-1.07.64-7.93,6.01-17.59,11.15-26.24,16.92-5.46,3.64-8.69,5.8-9.69,6.49-2.48,1.7-5,2.69-7.17,4.37-.91.7-2.66,1.85-5.27,3.46-3.32,2.05-7.18,4.54-11.58,7.46-.29.19-.6.35-.93.48-2.85,1.07-5.1,2.54-6.77,4.39-.24.27-.53.49-.85.66-.79.4-3.25,1.96-7.38,4.67-.88.58-2.07.51-2.68,1.26-.52.63-1.06,1.13-1.63,1.5-13.61,8.81-20.88,13.49-21.81,14.03-1.95,1.12-3.75,2.83-5.67,3.79-1.22.61-2.68,1.48-4.37,2.61-8.5,5.69-14.53,9.55-18.09,11.57-3.8,2.15-6.3,3.71-7.51,4.68-2.77,2.22-4.94,3.73-6.5,4.54-.23.12-2.43,1.59-6.59,4.42-.37.26-3.6,2.16-9.69,5.71-2.67,1.56-4.76,3.39-7.3,5.26-1.42,1.05-3.4,3.57-5.95,7.57-.49.77-.84,1.63-1.04,2.52-.17.75-.8,3.11-1.89,7.08-.55,1.97,1.21,5.14,1.51,7.2.47,3.21,1.61,6.16,3.42,8.87.85,1.26,5.35,8.15,13.52,20.67,6.14,9.4,12.21,18.83,18.2,28.28,7.77,12.27,30.46,47.31,68.06,105.13,5.66,8.71,11.47,17.97,17.43,27.78.22.36.5.69.83.97,2.25,1.91,3.96,4.11,6.82,5.79,3.7,2.18,7.23,3.51,10.6,3.99,5.02.71,9.29-.74,13.48-2.14,2.01-.68,4.34-1.92,6.97-3.72,3.46-2.36,6.21-4.38,8.24-6.05,2.7-2.22,5.42-4.26,8.17-6.11,4.57-3.1,7.61-5.27,9.14-6.5,6.75-5.45,11.04-8.75,12.88-9.92,1.05-.66,2.43-1.76,4.16-3.31,3.06-2.73,7.26-5.01,10.83-7.76.37-.29,2.83-2.05,7.38-5.28,2.46-1.75,7-5.23,13.63-10.42,3.28-2.58,5.95-3.99,8.49-6.16,1.1-.95,3.23-2.48,6.39-4.59,5.76-3.85,11.44-7.87,17.04-12.06,2.45-1.84,4.48-3.28,6.07-4.31,2.13-1.4,4.14-3.03,6.03-4.88.39-.39.82-.73,1.29-1.04,3.46-2.28,6.44-4.42,8.95-6.43,4.18-3.33,7.13-5.49,8.86-6.48,4.45-2.54,8.62-6.35,13.17-9.02,6.28-3.68,10.94-8.02,16.5-11.96,9.18-6.52,13.89-9.86,14.13-10.03,6.03-4.24,11.38-9.78,17.69-13.59,3.54-2.13,7.51-5.82,11.61-8.54,2.82-1.87,6.5-4.84,8.21-6.49.25-.25.53-.45.84-.61,1.93-1.03,3.61-2.27,5.03-3.74.35-.35.73-.67,1.14-.95,4.65-3.08,7.97-5.56,9.95-7.45,1.71-1.63,3.3-4.01,4.77-7.14,2.5-5.33,4.61-10.29,6.34-14.87,7.53-19.93,13.26-33,25.06-60.27,3.23-7.47,5.13-16.5,2.48-24.05l-12.95-42.25c-.11-.35-.38-.62-.74-.72-6.85-1.96-15.49-.37-21.82,1.96-.34.12-.57.46-.55.83l.35,6.7c-.29,13.3-6.08,23.44-17.37,30.42-5.41,3.35-11.47,5.06-18.18,5.11-15.51.12-29.33-9.05-34.58-23.47-7.34-20.15,4.97-42.08,25.75-46.97,11.56-2.72,24.35.39,33.24,8.63.3.28.73.38,1.13.26l12.54-3.79,13.39-1.1c.38-.03.64-.41.54-.78-.69-2.38-2.39-7.64-5.1-15.77-3.8-11.39-12.04-16.61-23.38-18.11-53.95-7.15-84.97-11.28-93.07-12.39-8.85-1.22-17.1.66-24.74,5.64-12.42,8.09-35.62,22.9-69.6,44.41-.15.09-.38.39-.7.9ZM385.57,243.24c-8.39-2.94-16.97,2.37-19.53,10.51-3.18,10.14,4.25,20.19,14.5,21.05,7.51.64,13.54-3.87,15.05-11.31.06-.29-.22-.54-.5-.43-5.98,2.32-14.79.12-15.74-6.86-.78-5.7,1.31-9.71,6.27-12.03.41-.19.38-.78-.05-.93ZM463.12,255.17c.01.53.11,1.08.3,1.67,3.2,10.49,6.1,20.01,8.71,28.56,3.16,10.39,2.35,25.04-2.03,35.24-5.84,13.56-10.82,25.18-14.93,34.85-.15.36.18.72.55.61,10.94-3.36,19.92-9.48,26.95-18.36,9.81-12.4,13.3-26.71,10.47-42.94-2.98-17.03-14.5-31.12-29.56-39.9-.21-.12-.47.03-.46.27Z"/>
  <path class="st27" d="M683.77,288.84c-8.95-.07-18.09.54-27.42,1.84l-15.87-.74c-.13-.01-.26-.02-.39-.05-8.01-1.75-15.04-4.75-15.04-13.91-.02-41.7-.06-70.85-.11-87.46-.01-5.51-.12-15.46,4.64-19.29,3.49-2.81,6.8-4.22,9.95-4.24,17.45-.08,29.28-.08,35.48,0,5.75.07,10.86,1.18,14.09,6.07,1.18,1.79,1.88,4.72,2.09,8.79.33,6.2.49,10.41.5,12.63.05,20.83.07,46.75.08,77.77,0,3.94-.29,7.23-.88,9.88-.64,2.93-3.01,5.84-7.12,8.71Z"/>
  <path class="st23" d="M419.82,228.95c-.39-.55-.91-.83-1.54-.82-.71,0-1.15-.34-1.3-1.03-3.78-17.15-24.45-21.12-39.24-23.06-16.76-2.19-32.28-4.13-46.57-5.82-9.83-1.17-16.06-1.74-18.69-1.71-6.05.05-12.22,1-18.52,2.85-3.67,1.07-10.44,4.72-20.32,10.93-6.71,4.22-18.78,11.61-36.22,22.17-.37.23-1.09.63-2.15,1.22-2.41,1.35-4,3.02-4.76,5.01l-13.35-6.94c.32-.51.55-.81.7-.9,33.98-21.51,57.18-36.32,69.6-44.41,7.64-4.98,15.89-6.86,24.74-5.64,8.1,1.11,39.12,5.24,93.07,12.39,11.34,1.5,19.58,6.72,23.38,18.11,2.71,8.13,4.41,13.39,5.1,15.77.1.37-.16.75-.54.78l-13.39,1.1Z"/>
  <path class="st29" d="M419.82,228.95l-12.54,3.79c-.4.12-.83.02-1.13-.26-8.89-8.24-21.68-11.35-33.24-8.63-20.78,4.89-33.09,26.82-25.75,46.97,5.25,14.42,19.07,23.59,34.58,23.47,6.71-.05,12.77-1.76,18.18-5.11,11.29-6.98,17.08-17.12,17.37-30.42,4.09-.11,10.69-.23,13.98,2.33,1.59,1.24,2.77,2.87,3.54,4.89,3.21,8.4,5.72,17.23,7.53,26.49,2.11,10.81-.04,18.65-4.39,29.05-8.56,20.49-16.83,41.02-24.82,61.61-2.12,5.47-2.23,10.64-.34,15.52l-16.85,12.37c-6.04-12.19-12.87-23.74-20.48-34.63-8.03-11.5-17.72-24.75-27.75-36.78-8.25-9.91-16.08-18.84-23.5-26.8-27.47-29.47-58.7-54.17-93.7-74.12.76-1.99,2.35-3.66,4.76-5.01,1.06-.59,1.78-.99,2.15-1.22,17.44-10.56,29.51-17.95,36.22-22.17,9.88-6.21,16.65-9.86,20.32-10.93,6.3-1.85,12.47-2.8,18.52-2.85,2.63-.03,8.86.54,18.69,1.71,14.29,1.69,29.81,3.63,46.57,5.82,14.79,1.94,35.46,5.91,39.24,23.06.15.69.59,1.03,1.3,1.03.63-.01,1.15.27,1.54.82Z"/>
  <path class="st27" d="M604.59,276.9c.02,7.2-5.81,13.05-13.01,13.06l-38.66.07c-8.09.02-14.66-6.36-14.67-14.23l-.08-46.32c-.01-7.88,6.53-14.27,14.61-14.29l38.66-.07c7.21,0,13.05,5.82,13.07,13.02l.08,48.76Z"/>
  <path class="st24" d="M216.74,231.79c-.97.47-1.93,1-2.86,1.59-57.85,36.97-117.91,75.52-180.18,115.67-3.96,2.55-6.61,4.53-7.94,5.93-6.03,6.3-7.23,15.29-5.08,23.2.65,2.39,2.98,6.68,6.97,12.87,31.92,49.4,64.24,99.34,96.96,149.83,4.99,7.69,9.11,14.24,12.37,19.63,2.56,4.25,4.72,7.19,6.48,8.82,6.61,6.13,14.27,8.32,22.96,6.57,5.78-1.17,10.79-4.8,16.03-8.7,32.12-23.95,62.7-46.72,101.48-74.77,37.42-27.06,74.76-54.2,112.01-81.41l16.85-12.37c2.12-1.74,3.82-4,5.1-6.77,1.49-3.23,2.88-6.49,4.19-9.78,9.35-23.62,19.09-47.07,29.22-70.35,2.55-5.88,3.12-12.38,1.7-19.51,2.65,7.55.75,16.58-2.48,24.05-11.8,27.27-17.53,40.34-25.06,60.27-1.73,4.58-3.84,9.54-6.34,14.87-1.47,3.13-3.06,5.51-4.77,7.14-1.98,1.89-5.3,4.37-9.95,7.45-.41.28-.79.6-1.14.95-1.42,1.47-3.1,2.71-5.03,3.74-.31.16-.59.36-.84.61-1.71,1.65-5.39,4.62-8.21,6.49-4.1,2.72-8.07,6.41-11.61,8.54-6.31,3.81-11.66,9.35-17.69,13.59-.24.17-4.95,3.51-14.13,10.03-5.56,3.94-10.22,8.28-16.5,11.96-4.55,2.67-8.72,6.48-13.17,9.02-1.73.99-4.68,3.15-8.86,6.48-2.51,2.01-5.49,4.15-8.95,6.43-.47.31-.9.65-1.29,1.04-1.89,1.85-3.9,3.48-6.03,4.88-1.59,1.03-3.62,2.47-6.07,4.31-5.6,4.19-11.28,8.21-17.04,12.06-3.16,2.11-5.29,3.64-6.39,4.59-2.54,2.17-5.21,3.58-8.49,6.16-6.63,5.19-11.17,8.67-13.63,10.42-4.55,3.23-7.01,4.99-7.38,5.28-3.57,2.75-7.77,5.03-10.83,7.76-1.73,1.55-3.11,2.65-4.16,3.31-1.84,1.17-6.13,4.47-12.88,9.92-1.53,1.23-4.57,3.4-9.14,6.5-2.75,1.85-5.47,3.89-8.17,6.11-2.03,1.67-4.78,3.69-8.24,6.05-2.63,1.8-4.96,3.04-6.97,3.72-4.19,1.4-8.46,2.85-13.48,2.14-3.37-.48-6.9-1.81-10.6-3.99-2.86-1.68-4.57-3.88-6.82-5.79-.33-.28-.61-.61-.83-.97-5.96-9.81-11.77-19.07-17.43-27.78-37.6-57.82-60.29-92.86-68.06-105.13-5.99-9.45-12.06-18.88-18.2-28.28-8.17-12.52-12.67-19.41-13.52-20.67-1.81-2.71-2.95-5.66-3.42-8.87-.3-2.06-2.06-5.23-1.51-7.2,1.09-3.97,1.72-6.33,1.89-7.08.2-.89.55-1.75,1.04-2.52,2.55-4,4.53-6.52,5.95-7.57,2.54-1.87,4.63-3.7,7.3-5.26,6.09-3.55,9.32-5.45,9.69-5.71,4.16-2.83,6.36-4.3,6.59-4.42,1.56-.81,3.73-2.32,6.5-4.54,1.21-.97,3.71-2.53,7.51-4.68,3.56-2.02,9.59-5.88,18.09-11.57,1.69-1.13,3.15-2,4.37-2.61,1.92-.96,3.72-2.67,5.67-3.79.93-.54,8.2-5.22,21.81-14.03.57-.37,1.11-.87,1.63-1.5.61-.75,1.8-.68,2.68-1.26,4.13-2.71,6.59-4.27,7.38-4.67.32-.17.61-.39.85-.66,1.67-1.85,3.92-3.32,6.77-4.39.33-.13.64-.29.93-.48,4.4-2.92,8.26-5.41,11.58-7.46,2.61-1.61,4.36-2.76,5.27-3.46,2.17-1.68,4.69-2.67,7.17-4.37,1-.69,4.23-2.85,9.69-6.49,8.65-5.77,18.31-10.91,26.24-16.92.33-.25.69-.47,1.07-.64,3.15-1.46,5.21-3.59,8.08-5.14,2.81-1.51,5.9-3.42,9.29-5.74.87-.59,2.05-1.14,3.54-1.64.3-.11.46.21.47.96Z"/>
  <path class="st31" d="M217.16,231.75l13.35,6.94c35,19.95,66.23,44.65,93.7,74.12,7.42,7.96,15.25,16.89,23.5,26.8,10.03,12.03,19.72,25.28,27.75,36.78,7.61,10.89,14.44,22.44,20.48,34.63-37.25,27.21-74.59,54.35-112.01,81.41-38.78,28.05-69.36,50.82-101.48,74.77-5.24,3.9-10.25,7.53-16.03,8.7-8.69,1.75-16.35-.44-22.96-6.57-1.76-1.63-3.92-4.57-6.48-8.82-3.26-5.39-7.38-11.94-12.37-19.63-32.72-50.49-65.04-100.43-96.96-149.83-3.99-6.19-6.32-10.48-6.97-12.87-2.15-7.91-.95-16.9,5.08-23.2,1.33-1.4,3.98-3.38,7.94-5.93,62.27-40.15,122.33-78.7,180.18-115.67.93-.59,1.89-1.12,2.86-1.59.33-.15.47-.17.42-.04ZM216.58,309.55c-.81.61-1.36,1.51-1.52,2.52-8.28,51.46-17.43,101.54-27.45,150.25-1.5,7.3.11,8.95,7.11,10.04,3.72.57,7.07.73,10.05.47,3.66-.32,5.82-2.28,6.48-5.87,6.65-36.49,14.59-78.88,23.83-127.15,1.53-8.03,2.85-15.63,3.96-22.8.32-2.06.33-3.82.04-5.27-.3-1.47-1.41-2.65-2.86-3.04-4.82-1.3-15.16-2.49-19.64.85ZM272.73,369.58c-.26-20.82-.42-31.82-.49-33-.31-5.81.62-9.22-5.7-10.11-4.4-.62-16.49-1.68-18.35,2.25-.42.89-.62,1.76-.61,2.61.35,39.77-.98,74.32-.63,115.14.03,3.45,1.38,5.46,4.05,6.03,4.95,1.07,10.51.95,16.67-.34,3.51-.74,5.28-2.96,5.29-6.67.03-6.21,0-23.21-.07-50.99-.01-1.47.7-2.78,2.12-3.93,6.1-4.92,12.45-6.8,19.06-5.64,6.67,1.18,7.67,8.22,7.66,13.83,0,26.08,0,41.91.02,47.49.01,3.18,1.34,5.18,3.99,6.01,3.44,1.07,7.64,1.35,12.61.84,7.82-.81,8.51-5.06,8.65-11.85.09-4.91.2-17.6.31-38.07.03-5.91-.07-10.35-.29-13.32-.71-9.38-5.68-19.91-14.03-24.41-12.51-6.75-28.21-4.29-39.64,4.43-.25.19-.62.02-.62-.3ZM122.47,371.16c-.41,0-.69-.4-.54-.77,4.27-10.87,12.06-17.19,23.35-18.97,5.92-.93,13.83-.39,20.23,2.01,2.93,1.1,5.74,2.53,7.72,2.07,2.78-.65,3.92-2.96,5.85-6,2.59-4.07,4.71-7.96,2.33-12.39-1.53-2.85-6.25-5.23-9.37-6.16-21.93-6.55-45.29-3.23-62.09,12.79-7.87,7.5-13.14,16.39-15.82,26.67-.1.39-.45.66-.86.67-3.4.01-6.76.12-10.09.31-5.16.31-6.23,4.63-5.93,8.86.25,3.44,1.84,5.4,4.79,5.88,2.63.43,5.73.66,9.32.71.21,0,.38.17.38.38v8.91c0,.14-.1.25-.24.26-3.68.31-6.49.46-8.44.45-3.17,0-4.98,1.5-5.42,4.51-.52,3.55-.74,8.96,3.39,10.18,3.42,1.02,8.86.67,13.51.83.5.02.92.37,1.03.85,3.1,13.73,10.09,24.38,20.97,31.94,16.09,11.19,36.44,12.48,55.16,5.84,5.38-1.91,11.28-5.63,9.46-12.35-.79-2.92-1.98-5.96-3.57-9.13-1.74-3.47-4.58-4.42-8.51-2.87-4.66,1.85-9.25,3.07-13.76,3.68-13.96,1.88-28.14-3.16-33.23-17.28-.19-.54.22-1.1.79-1.07,3.97.17,9.27.42,15.88.75,7.13.35,14.1,1.67,16-5.79,1.2-4.71,1.58-9.96-4.8-10.15-7.15-.21-17.71-.53-31.68-.95-.35,0-.63-.3-.63-.66v-8.03c0-.31.25-.56.56-.56h39.3c.65,0,1.28-.26,1.75-.72,2.93-2.93,4.36-6.4,4.27-10.39-.08-3.69-6.11-4.22-8.78-4.26-10.75-.13-21.51-.14-32.28-.05Z"/>
  <path class="st26" d="M385.57,243.24c.43.15.46.74.05.93-4.96,2.32-7.05,6.33-6.27,12.03.95,6.98,9.76,9.18,15.74,6.86.28-.11.56.14.5.43-1.51,7.44-7.54,11.95-15.05,11.31-10.25-.86-17.68-10.91-14.5-21.05,2.56-8.14,11.14-13.45,19.53-10.51Z"/>
  <path class="st23" d="M453,292.24c1.42,7.13.85,13.63-1.7,19.51-10.13,23.28-19.87,46.73-29.22,70.35-1.31,3.29-2.7,6.55-4.19,9.78-1.28,2.77-2.98,5.03-5.1,6.77-1.89-4.88-1.78-10.05.34-15.52,7.99-20.59,16.26-41.12,24.82-61.61,4.35-10.4,6.5-18.24,4.39-29.05-1.81-9.26-4.32-18.09-7.53-26.49-.77-2.02-1.95-3.65-3.54-4.89-3.29-2.56-9.89-2.44-13.98-2.33l-.35-6.7c-.02-.37.21-.71.55-.83,6.33-2.33,14.97-3.92,21.82-1.96.36.1.63.37.74.72l12.95,42.25Z"/>
  <path class="st26" d="M463.12,255.17c-.01-.24.25-.39.46-.27,15.06,8.78,26.58,22.87,29.56,39.9,2.83,16.23-.66,30.54-10.47,42.94-7.03,8.88-16.01,15-26.95,18.36-.37.11-.7-.25-.55-.61,4.11-9.67,9.09-21.29,14.93-34.85,4.38-10.2,5.19-24.85,2.03-35.24-2.61-8.55-5.51-18.07-8.71-28.56-.19-.59-.29-1.14-.3-1.67Z"/>
  <path class="st24" d="M683.77,288.84c13.24.41,26.18,2.18,38.82,5.32,6.95,1.77,13.41,3.89,19.4,6.36,12.93,5.34,25.43,12.26,37.5,20.76,28.97,21.76,48.95,49.95,59.93,84.57,6.35,20.03,7.28,40.2,6.46,61.1-.02.45.23.87.64,1.06,28.22,13.38,48.39,40.45,49.54,71.98.15,4.3.15,8.44,0,12.41-.99,25.9-15.67,50.77-37.27,65.02-.63-.13-.9-.38-.83-.76,0-.07.06-.14.12-.18,1.96-1.44,4.31-3.24,7.06-5.41,2.92-2.31,4.29-4.62,6.83-6.92,1.45-1.31,3.06-3.14,4.84-5.48,4.19-5.53,7.44-10.56,9.74-15.09,4.5-8.89,7.27-18.6,8.31-29.13.61-6.22.37-13.42-.74-21.59-.98-7.22-2.92-14.16-5.81-20.81-3.37-7.75-8.09-15.11-14.18-22.1-2.15-2.47-4.69-4.81-7.62-7.03-.17-.13-2.9-2.28-8.19-6.44-3.56-2.8-7.63-5.17-12.2-7.1-1.2-.51-1.76-1.53-1.69-3.08.49-10,.38-19.88-.34-29.63-.33-4.42-1.13-7.35-1.53-11.36-.23-2.22-.77-5.03-1.62-8.43-2.14-8.51-4.64-16.39-7.49-23.65-2.9-7.37-7.7-16.43-11.1-22.35-5.04-8.78-11.36-17.43-18.96-25.96-3.93-4.41-8.51-8.46-12.98-13.06-.93-.96-2.59-2.2-4.98-3.73-.45-.29-.86-.62-1.24-.99-1.88-1.84-5.1-4.82-7.56-6.14-2.6-1.39-4.29-3.05-7.04-4.76-8.92-5.54-18.25-10.34-27.98-14.41-4.45-1.86-8.53-3.28-12.24-4.25-7.33-1.93-11.54-2.95-12.63-3.05-1.02-.09-2.43-.42-4.22-.98-1.55-.49-3.53-.81-5.93-.98-6.24-.45-13.95-2.02-18.4-2.09-6.13-.09-11.42-.61-17.25-.17-17.12,1.27-33.49,4.66-49.1,10.17-3.87,1.37-7.52,2.88-10.95,4.54-5.62,2.73-9.18,4.46-10.68,5.17-.67.31-2.66,1.59-5.96,3.82-.27.18-.55.33-.84.46-2.92,1.28-5.47,2.81-7.64,4.59-5.27,4.31-9.33,7.52-12.18,9.65-3.66,2.73-5.42,5.33-8.5,8.13-.35.31-2.24,2.57-5.67,6.78-2.61,3.19-4.94,5.72-6.97,7.6-.59.54-1.76,2.16-3.52,4.87-.05.09-.21.47-.48,1.16-.25.63-.56,1.21-.93,1.74-2.11,2.97-4.33,5.39-6.21,8.42-5.53,8.91-10.11,17.78-13.73,26.59-6.65,16.17-10.41,32.93-11.28,50.26-.29,5.64.06,14.84.04,22.32,0,.31.03.62.08.93.24,1.39.6,4.39,1.08,9,.73,6.99,2.52,15.8,5.37,26.45,2.22,8.29,5.91,17.25,11.08,26.88,1.73,3.23,3,5.66,3.83,7.31,2.64,5.26,6.28,9.58,9.4,14.32,1.35,2.06,2.7,3.8,4.05,5.23,2.08,2.2,4.4,6.34,7.47,8.22.29.18.54.43.74.71,1.68,2.45,3.4,4.56,5.17,6.32,4.27,4.28,9.75,8.8,16.46,13.56.43.31.84.65,1.22,1.03.89.9,1.45,1.42,1.69,1.55,5.27,2.93,9.58,5.44,12.93,7.53,9.79,6.11,21.53,11.06,30.77,14.96,1.39.59,2.88,1.76,4.46,3.52-5.94-2.03-11.73-4.4-17.37-7.12-5.91-2.84-11.17-5.48-15.78-7.93-19.16-10.67-35.22-24.12-48.19-40.33-21.11-26.4-33.01-56.11-35.7-89.12-.72-8.77-.55-18.78-.14-27.35,1.28-26.59,10-51.13,23.69-74.35,10.91-18.52,24.9-34.11,41.97-46.78,1.91-1.42,3.83-2.86,5.76-4.33,16.31-10.6,33.87-18.75,52.74-22.92,4.77-1.06,10.52-2.12,17.23-3.19,9.33-1.3,18.47-1.91,27.42-1.84Z"/>
  <path class="st28" d="M858.79,617.42c-12.61,8.55-26.64,13.41-42.07,14.58h-15.13c-20.04-1.91-37.28-9.7-51.73-23.39-.52-.49-1.29-.61-1.94-.3-30.33,14.9-67.06,16.66-99.84,9.76-7.65-1.61-12.96-2.93-15.94-3.97-1.58-1.76-3.07-2.93-4.46-3.52-9.24-3.9-20.98-8.85-30.77-14.96-3.35-2.09-7.66-4.6-12.93-7.53-.24-.13-.8-.65-1.69-1.55-.38-.38-.79-.72-1.22-1.03-6.71-4.76-12.19-9.28-16.46-13.56-1.77-1.76-3.49-3.87-5.17-6.32-.2-.28-.45-.53-.74-.71-3.07-1.88-5.39-6.02-7.47-8.22-1.35-1.43-2.7-3.17-4.05-5.23-3.12-4.74-6.76-9.06-9.4-14.32-.83-1.65-2.1-4.08-3.83-7.31-5.17-9.63-8.86-18.59-11.08-26.88-2.85-10.65-4.64-19.46-5.37-26.45-.48-4.61-.84-7.61-1.08-9-.05-.31-.08-.62-.08-.93.02-7.48-.33-16.68-.04-22.32.87-17.33,4.63-34.09,11.28-50.26,3.62-8.81,8.2-17.68,13.73-26.59,1.88-3.03,4.1-5.45,6.21-8.42.37-.53.68-1.11.93-1.74.27-.69.43-1.07.48-1.16,1.76-2.71,2.93-4.33,3.52-4.87,2.03-1.88,4.36-4.41,6.97-7.6,3.43-4.21,5.32-6.47,5.67-6.78,3.08-2.8,4.84-5.4,8.5-8.13,2.85-2.13,6.91-5.34,12.18-9.65,2.17-1.78,4.72-3.31,7.64-4.59.29-.13.57-.28.84-.46,3.3-2.23,5.29-3.51,5.96-3.82,1.5-.71,5.06-2.44,10.68-5.17,3.43-1.66,7.08-3.17,10.95-4.54,15.61-5.51,31.98-8.9,49.1-10.17,5.83-.44,11.12.08,17.25.17,4.45.07,12.16,1.64,18.4,2.09,2.4.17,4.38.49,5.93.98,1.79.56,3.2.89,4.22.98,1.09.1,5.3,1.12,12.63,3.05,3.71.97,7.79,2.39,12.24,4.25,9.73,4.07,19.06,8.87,27.98,14.41,2.75,1.71,4.44,3.37,7.04,4.76,2.46,1.32,5.68,4.3,7.56,6.14.38.37.79.7,1.24.99,2.39,1.53,4.05,2.77,4.98,3.73,4.47,4.6,9.05,8.65,12.98,13.06,7.6,8.53,13.92,17.18,18.96,25.96,3.4,5.92,8.2,14.98,11.1,22.35,2.85,7.26,5.35,15.14,7.49,23.65.85,3.4,1.39,6.21,1.62,8.43.4,4.01,1.2,6.94,1.53,11.36.72,9.75.83,19.63.34,29.63-.07,1.55.49,2.57,1.69,3.08,4.57,1.93,8.64,4.3,12.2,7.1,5.29,4.16,8.02,6.31,8.19,6.44,2.93,2.22,5.47,4.56,7.62,7.03,6.09,6.99,10.81,14.35,14.18,22.1,2.89,6.65,4.83,13.59,5.81,20.81,1.11,8.17,1.35,15.37.74,21.59-1.04,10.53-3.81,20.24-8.31,29.13-2.3,4.53-5.55,9.56-9.74,15.09-1.78,2.34-3.39,4.17-4.84,5.48-2.54,2.3-3.91,4.61-6.83,6.92-2.75,2.17-5.1,3.97-7.06,5.41-.06.04-.11.11-.12.18-.07.38.2.63.83.76ZM777.7,346.51c-9.17-7.51-18.96-14.07-29.37-19.68-4.05-3.55-9.38-6.51-16-8.86-18.59-6.61-36.74-9.8-54.44-9.57-9.22.12-20.7,1.52-34.43,4.21-4.6.9-8.06,2.36-13.01,3.75-3.25.91-6.43,2.04-9.55,3.4-8.89,3.87-17.58,8.66-26.06,14.38-3.83,2.58-9.47,7.22-16.92,13.91-2.66,2.39-5.24,5.21-7.74,8.46-.98,1.27-3.31,4.32-6.98,9.15-6.03,7.92-11.36,16.92-15.99,27.01-2.68,5.85-5.86,14.5-9.55,25.95-1.21,3.74-1.12,7.48-2.53,11.17-.14.36-.22.74-.25,1.13-.29,4.27-.52,7.49-.67,9.66-.61,8.49-.18,16.94-.12,24.72.03,3.15.29,6.25.8,9.3.61,3.69,1.14,6.75,1.61,9.2,3.7,19.45,11.18,37.3,22.44,53.53,5.74,8.27,11.35,15.15,16.83,20.64,16.81,16.83,36.58,29.11,59.31,36.84,21.59,7.34,44.88,9.37,69.86,6.09,10.65-1.39,20.8-4.27,30.47-8.63,1.41-.64,1.95-2.37,1.15-3.7-1.69-2.81-3.1-5.7-4.24-8.69-4.92-12.93-8.01-25.57-7.1-38.81,1.11-16.23,6.57-33.51,17.17-45.82,6.17-7.16,12.99-15.37,21.39-20.78,12.19-7.87,25.61-12.11,40.24-12.73,6.4-.27,14.36.51,21.71.64.41.01.76-.29.83-.69.75-4.68.65-8.04.51-14.02-.25-10.45-1.75-20.55-4.48-30.3-7.27-25.95-20.26-48.45-38.95-67.5-1.86-1.9-3.84-3.02-5.94-3.36ZM875.38,554.5c4.69-36.09-20.83-69.15-56.99-73.86-36.17-4.7-69.28,20.75-73.97,56.85-4.69,36.09,20.83,69.15,56.99,73.86,36.17,4.7,69.28-20.75,73.97-56.85Z"/>
  <path class="st28" d="M216.58,309.55c4.48-3.34,14.82-2.15,19.64-.85,1.45.39,2.56,1.57,2.86,3.04.29,1.45.28,3.21-.04,5.27-1.11,7.17-2.43,14.77-3.96,22.8-9.24,48.27-17.18,90.66-23.83,127.15-.66,3.59-2.82,5.55-6.48,5.87-2.98.26-6.33.1-10.05-.47-7-1.09-8.61-2.74-7.11-10.04,10.02-48.71,19.17-98.79,27.45-150.25.16-1.01.71-1.91,1.52-2.52Z"/>
  <path class="st24" d="M748.33,326.83c-34.51-18.4-74.78-21.54-112.11-10.86-32.29,9.23-58.73,29.62-76.94,57.83-9,13.95-15.62,28.66-19.85,44.15-2.82,10.33-4.28,21.85-4.37,34.56-.3,41.16,13.79,76.21,42.28,105.15,14.89,15.12,32.95,26.63,54.18,34.53,10.31,3.84,21.68,6.47,34.13,7.9,23.59,2.72,47.95.36,69.76-8.95.34-.14.48-.55.29-.87-15.81-27.26-16.28-60.76-.46-88.03,18.46-31.82,53.78-46.72,89.67-40.9.41.07.79-.24.81-.66.55-13.48-.37-26.48-3.67-39.5-7.39-29.14-22.19-54.73-44.35-74.67,2.1.34,4.08,1.46,5.94,3.36,18.69,19.05,31.68,41.55,38.95,67.5,2.73,9.75,4.23,19.85,4.48,30.3.14,5.98.24,9.34-.51,14.02-.07.4-.42.7-.83.69-7.35-.13-15.31-.91-21.71-.64-14.63.62-28.05,4.86-40.24,12.73-8.4,5.41-15.22,13.62-21.39,20.78-10.6,12.31-16.06,29.59-17.17,45.82-.91,13.24,2.18,25.88,7.1,38.81,1.14,2.99,2.55,5.88,4.24,8.69.8,1.33.26,3.06-1.15,3.7-9.67,4.36-19.82,7.24-30.47,8.63-24.98,3.28-48.27,1.25-69.86-6.09-22.73-7.73-42.5-20.01-59.31-36.84-5.48-5.49-11.09-12.37-16.83-20.64-11.26-16.23-18.74-34.08-22.44-53.53-.47-2.45-1-5.51-1.61-9.2-.51-3.05-.77-6.15-.8-9.3-.06-7.78-.49-16.23.12-24.72.15-2.17.38-5.39.67-9.66.03-.39.11-.77.25-1.13,1.41-3.69,1.32-7.43,2.53-11.17,3.69-11.45,6.87-20.1,9.55-25.95,4.63-10.09,9.96-19.09,15.99-27.01,3.67-4.83,6-7.88,6.98-9.15,2.5-3.25,5.08-6.07,7.74-8.46,7.45-6.69,13.09-11.33,16.92-13.91,8.48-5.72,17.17-10.51,26.06-14.38,3.12-1.36,6.3-2.49,9.55-3.4,4.95-1.39,8.41-2.85,13.01-3.75,13.73-2.69,25.21-4.09,34.43-4.21,17.7-.23,35.85,2.96,54.44,9.57,6.62,2.35,11.95,5.31,16,8.86Z"/>
  <path class="st31" d="M748.33,326.83c10.41,5.61,20.2,12.17,29.37,19.68,22.16,19.94,36.96,45.53,44.35,74.67,3.3,13.02,4.22,26.02,3.67,39.5-.02.42-.4.73-.81.66-35.89-5.82-71.21,9.08-89.67,40.9-15.82,27.27-15.35,60.77.46,88.03.19.32.05.73-.29.87-21.81,9.31-46.17,11.67-69.76,8.95-12.45-1.43-23.82-4.06-34.13-7.9-21.23-7.9-39.29-19.41-54.18-34.53-28.49-28.94-42.58-63.99-42.28-105.15.09-12.71,1.55-24.23,4.37-34.56,4.23-15.49,10.85-30.2,19.85-44.15,18.21-28.21,44.65-48.6,76.94-57.83,37.33-10.68,77.6-7.54,112.11,10.86ZM649.94,314.91c3.03,0,6.05-.67,9.25-.59,9.1.23,16.33.59,21.69,1.08,37.06,3.45,73.73,20.83,98.21,49.3,21.83,25.38,33.38,58.54,31.95,92.74-.04,1.11.87,2.01,1.98,1.95,3.97-.2,7.32.04,10.03.72.88.22,1.72-.49,1.65-1.4-.32-3.85-.42-7.79-.31-11.8.11-3.93-.18-7.85-.89-11.75-1.64-9-2.8-14.72-3.49-17.15-3.5-12.33-8.54-24.3-15.11-35.93-4.06-7.17-8.23-13.17-12.5-18-1.48-1.67-2.5-3-3.07-4.01-.13-.24-.3-.45-.51-.63-2.87-2.58-5.6-5.26-8.17-8.05-1.69-1.83-3.8-3.7-6.34-5.62-2.25-1.7-4.48-3.39-6.71-5.08-1.06-.81-3.15-2.32-6.28-4.54-6.85-4.85-16.65-9.96-29.39-15.32-8.4-3.53-19.54-6.35-33.42-8.45-2.85-.43-6.07-.24-9.1-.64-4.18-.55-9.24-.39-13.45-.34-2.89.04-5.26.62-7.79.65-2.19.03-4.14.15-5.84.38-5.87.78-10.02,1.41-12.45,1.89-.15.03-.25.17-.24.32.02.15.15.27.3.27ZM691.07,431.79c-.09-.41-.12-1.09-.11-2.04.08-4.25.16-26.91.24-68,.01-6.78.25-12.39-6.17-15.54-6.64-3.25-14.07.39-16.33,7.06-.35,1.05-.55,4.39-.59,10.02-.19,26.42-.23,54.16-.13,83.21,0,2.65-.26,10.5,1.06,13.86,3.76,9.61,15.03,10.21,22,3.69,7.11-6.65,23.17-21.43,48.16-44.34,3.91-3.58,6.17-5.81,6.78-6.7,3.46-5.04,2.46-11.71-2.27-15.67-3.65-3.04-9.94-3.95-13.69-.54-13.73,12.48-26.46,24.22-38.17,35.23-.27.25-.7.11-.78-.24ZM583.31,452.91c-.04-4.45-3.69-8.02-8.14-7.98l-14.34.15c-4.45.04-8.02,3.69-7.98,8.14v1.02c.05,4.45,3.7,8.02,8.15,7.98l14.34-.15c4.45-.04,8.02-3.69,7.98-8.14v-1.02ZM721.75,547.13c-3.25,14.68-2.07,30.95,1.32,45.79.21.92,1.19,1.44,2.07,1.1l8.11-3.1c.63-.24.9-1,.56-1.59-2.88-5.03-5.34-10.78-7.38-17.25-2.52-8.03-4.02-16.34-4.5-24.94,0-.05-.04-.08-.08-.08-.05-.01-.09.03-.1.07ZM689.58,556.31c-.04-4.48-3.7-8.07-8.18-8.04h-1.48c-4.48.06-8.08,3.72-8.04,8.19l.12,14.02c.04,4.48,3.7,8.07,8.18,8.04h1.48c4.48-.06,8.08-3.72,8.04-8.19l-.12-14.02Z"/>
  <path class="st26" d="M649.94,314.91c-.15,0-.28-.12-.3-.27-.01-.15.09-.29.24-.32,2.43-.48,6.58-1.11,12.45-1.89,1.7-.23,3.65-.35,5.84-.38,2.53-.03,4.9-.61,7.79-.65,4.21-.05,9.27-.21,13.45.34,3.03.4,6.25.21,9.1.64,13.88,2.1,25.02,4.92,33.42,8.45,12.74,5.36,22.54,10.47,29.39,15.32,3.13,2.22,5.22,3.73,6.28,4.54,2.23,1.69,4.46,3.38,6.71,5.08,2.54,1.92,4.65,3.79,6.34,5.62,2.57,2.79,5.3,5.47,8.17,8.05.21.18.38.39.51.63.57,1.01,1.59,2.34,3.07,4.01,4.27,4.83,8.44,10.83,12.5,18,6.57,11.63,11.61,23.6,15.11,35.93.69,2.43,1.85,8.15,3.49,17.15.71,3.9,1,7.82.89,11.75-.11,4.01-.01,7.95.31,11.8.07.91-.77,1.62-1.65,1.4-2.71-.68-6.06-.92-10.03-.72-1.11.06-2.02-.84-1.98-1.95,1.43-34.2-10.12-67.36-31.95-92.74-24.48-28.47-61.15-45.85-98.21-49.3-5.36-.49-12.59-.85-21.69-1.08-3.2-.08-6.22.59-9.25.59Z"/>
  <path class="st26" d="M586.38,316.79c-1.93,1.47-3.85,2.91-5.76,4.33-17.07,12.67-31.06,28.26-41.97,46.78-13.69,23.22-22.41,47.76-23.69,74.35-.41,8.57-.58,18.58.14,27.35,2.69,33.01,14.59,62.72,35.7,89.12,12.97,16.21,29.03,29.66,48.19,40.33-43.33,20.52-88.76,31.5-136.29,32.95h-18.32c-78.69-2.78-148.04-29.39-208.07-79.83,58.57-43.08,117.53-85.76,175.61-127.99,7.72-5.61,11.59-8.42,11.6-8.43,7.59-6.38,12.19-13.28,16.08-22.82,1.25-3.05,3.06-7.32,5.45-12.81.22-.49.67-.83,1.2-.89,26.34-3.27,46.15-16.29,59.42-39.08,4.24-7.29,6.95-15.33,8.14-24.13,22.25.01,44.48-.05,66.69-.17,1.94-.01,3.9.3,5.88.94Z"/>
  <path class="st28" d="M272.73,369.58c0,.32.37.49.62.3,11.43-8.72,27.13-11.18,39.64-4.43,8.35,4.5,13.32,15.03,14.03,24.41.22,2.97.32,7.41.29,13.32-.11,20.47-.22,33.16-.31,38.07-.14,6.79-.83,11.04-8.65,11.85-4.97.51-9.17.23-12.61-.84-2.65-.83-3.98-2.83-3.99-6.01-.01-5.58-.02-21.41-.02-47.49,0-5.61-.99-12.65-7.66-13.83-6.61-1.16-12.96.72-19.06,5.64-1.42,1.15-2.13,2.46-2.12,3.93.07,27.78.1,44.78.07,50.99,0,3.71-1.78,5.93-5.29,6.67-6.16,1.29-11.72,1.41-16.67.34-2.67-.57-4.02-2.58-4.05-6.03-.35-40.82.98-75.37.63-115.14,0-.85.19-1.72.61-2.61,1.86-3.93,13.95-2.87,18.35-2.25,6.32.89,5.39,4.3,5.7,10.11.07,1.18.23,12.18.49,33Z"/>
  <path class="st28" d="M122.47,371.16c10.77-.09,21.53-.08,32.28.05,2.67.04,8.7.57,8.78,4.26.09,3.99-1.34,7.46-4.27,10.39-.47.46-1.1.72-1.75.72h-39.3c-.31,0-.56.25-.56.56v8.03c0,.36.28.65.63.66,13.97.42,24.53.74,31.68.95,6.38.19,6,5.44,4.8,10.15-1.9,7.46-8.87,6.14-16,5.79-6.61-.33-11.91-.58-15.88-.75-.57-.03-.98.53-.79,1.07,5.09,14.12,19.27,19.16,33.23,17.28,4.51-.61,9.1-1.83,13.76-3.68,3.93-1.55,6.77-.6,8.51,2.87,1.59,3.17,2.78,6.21,3.57,9.13,1.82,6.72-4.08,10.44-9.46,12.35-18.72,6.64-39.07,5.35-55.16-5.84-10.88-7.56-17.87-18.21-20.97-31.94-.11-.48-.53-.83-1.03-.85-4.65-.16-10.09.19-13.51-.83-4.13-1.22-3.91-6.63-3.39-10.18.44-3.01,2.25-4.51,5.42-4.51,1.95.01,4.76-.14,8.44-.45.14-.01.24-.12.24-.26v-8.91c0-.21-.17-.38-.38-.38-3.59-.05-6.69-.28-9.32-.71-2.95-.48-4.54-2.44-4.79-5.88-.3-4.23.77-8.55,5.93-8.86,3.33-.19,6.69-.3,10.09-.31.41,0,.76-.28.86-.67,2.68-10.28,7.95-19.17,15.82-26.67,16.8-16.02,40.16-19.34,62.09-12.79,3.12.93,7.84,3.31,9.37,6.16,2.38,4.43.26,8.32-2.33,12.39-1.93,3.04-3.07,5.35-5.85,6-1.98.46-4.79-.97-7.72-2.07-6.4-2.4-14.31-2.94-20.23-2.01-11.29,1.78-19.08,8.1-23.35,18.97-.15.37.13.77.54.77Z"/>
  <path class="st28" d="M691.07,431.79c.08.35.51.49.78.24,11.71-11.01,24.44-22.75,38.17-35.23,3.75-3.41,10.04-2.5,13.69.54,4.73,3.96,5.73,10.63,2.27,15.67-.61.89-2.87,3.12-6.78,6.7-24.99,22.91-41.05,37.69-48.16,44.34-6.97,6.52-18.24,5.92-22-3.69-1.32-3.36-1.06-11.21-1.06-13.86-.1-29.05-.06-56.79.13-83.21.04-5.63.24-8.97.59-10.02,2.26-6.67,9.69-10.31,16.33-7.06,6.42,3.15,6.18,8.76,6.17,15.54-.08,41.09-.16,63.75-.24,68-.01.95.02,1.63.11,2.04Z"/>
  <rect class="st28" x="552.86" y="445.01" width="30.46" height="17.14" rx="8.06" ry="8.06" transform="translate(-4.72 5.97) rotate(-.6)"/>
  <path class="st25" d="M875.38,554.5c-4.69,36.1-37.8,61.55-73.97,56.85-36.16-4.7-61.68-37.76-56.99-73.86,4.69-36.1,37.8-61.55,73.97-56.85,36.16,4.7,61.68,37.76,56.99,73.86ZM801.12,555.3c-2.22-1.5-6.35-5.93-12.08-11.47-3.19-3.08-5.5-4.89-6.93-5.42-8.05-2.96-14.86,4.1-12.84,11.97.43,1.68,3.29,5.1,4.32,5.81,1.43.97,8.29,7.75,20.59,20.34,3.23,3.3,6.73,4.36,10.52,3.19,1.81-.56,4.64-3.15,8.49-7.77,8.01-9.61,18.88-22.41,32.62-38.38,4.05-4.7,7.47-9.06,3.42-15.01-1.98-2.92-7.47-5.5-11.28-3.77-1.27.57-2.51,1.55-3.72,2.94-11.87,13.65-22.51,26.11-31.92,37.4-.3.35-.81.43-1.19.17Z"/>
  <path class="st31" d="M801.12,555.3c.38.26.89.18,1.19-.17,9.41-11.29,20.05-23.75,31.92-37.4,1.21-1.39,2.45-2.37,3.72-2.94,3.81-1.73,9.3.85,11.28,3.77,4.05,5.95.63,10.31-3.42,15.01-13.74,15.97-24.61,28.77-32.62,38.38-3.85,4.62-6.68,7.21-8.49,7.77-3.79,1.17-7.29.11-10.52-3.19-12.3-12.59-19.16-19.37-20.59-20.34-1.03-.71-3.89-4.13-4.32-5.81-2.02-7.87,4.79-14.93,12.84-11.97,1.43.53,3.74,2.34,6.93,5.42,5.73,5.54,9.86,9.97,12.08,11.47Z"/>
  <path class="st26" d="M721.93,547.14c.48,8.6,1.98,16.91,4.5,24.94,2.04,6.47,4.5,12.22,7.38,17.25.34.59.07,1.35-.56,1.59l-8.11,3.1c-.88.34-1.86-.18-2.07-1.1-3.39-14.84-4.57-31.11-1.32-45.79.01-.04.05-.08.1-.07.04,0,.08.03.08.08Z"/>
  <rect class="st28" x="671.94" y="548.28" width="17.7" height="30.24" rx="8.11" ry="8.11" transform="translate(-4.89 5.96) rotate(-.5)"/>
</svg>