<?xml version="1.0" encoding="UTF-8"?>
<svg id="Capa_1" xmlns="http://www.w3.org/2000/svg" version="1.1" viewBox="0 0 804 813">
  <!-- Generator: Adobe Illustrator 29.4.0, SVG Export Plug-In . SVG Version: 2.1.0 Build 152)  -->
  <defs>
    <style>
      .st0 {
        fill: #010101;
      }

      .st1 {
        fill: #1a7109;
      }

      .st2 {
        fill: #ffb792;
      }

      .st3 {
        fill: #4d3d61;
      }

      .st4 {
        fill: #345535;
      }

      .st5 {
        fill: #fff;
      }

      .st6 {
        fill: #312943;
      }

      .st7 {
        fill: #e9eef4;
      }

      .st8 {
        fill: #0f0c19;
      }

      .st9 {
        fill: #91c4f9;
      }
    </style>
  </defs>
  <path class="st6" d="M575.67-2.24c3.24.75,6.95.84,9.72,1.44,32.64,7.16,52.92,35.65,49.62,68.84-1.1,11.04-5.13,21.1-12.1,30.17-4.72,6.16-13.8,13.3-20.84,14.18-.3.04-.46.38-.29.63,8.85,13.19,14.16,27.77,15.93,43.75.81,7.35,1.21,12.77,1.18,16.24-.09,13.35-1.34,26.16-3.75,38.45-5.16,26.35-16.96,49.27-35.4,68.76-1.63,1.72-3.31,3.29-5.05,4.72-.2.16-.31.42-.29.68.65,8.67,1.26,15.97,1.85,21.89.67,6.76,1.75,13.01,3.22,18.76,5.15,20.03,23.53,28.4,41.51,34.24,34.12,11.07,69.28,23.96,95.08,50.16,19.19,19.49,31.91,46.8,41.45,74.05,6.84,19.57,12.59,37.98,17.26,55.24.67,2.49-.18,4.19-2.56,5.12-1.92.75-4.03,1.47-6.33,2.16-.32.1-.5.43-.41.75,8.16,28.72,14.66,57.05,19.5,84.98.34,1.95.72,4.57,1.15,7.86.53,4.13.97,6.8,1.31,8.01.11.4.16.81.13,1.23-.11,1.88.12,3.74.7,5.57.15.46.21.94.2,1.42-.05,2.63.22,5.12.8,7.45.09.39.14.78.13,1.17-.1,4.52.83,11.64.44,17.41-1.07,16.06-8.36,28.7-21.86,37.91-11.54,7.88-26.38,13.58-39.38,17.36-13.77,4.01-27.31,7.21-40.61,9.6-.36.06-.62.39-.59.76.08,1.02.91,2.29,1.21,3.55.75,3.19,4.23,18.82,10.43,46.9.05.26.28.44.55.44h100.36c1.65,0,2.98,1.33,2.98,2.98v.68c0,1.51-1.23,2.74-2.74,2.74h-244.92c-.49,0-.97.14-1.37.41-8.2,5.38-16.32,3.97-25.54,4.34h-1.36c-.41-.21-.62-.21-.65,0H90.06c-3.51-.81-6.49-2.16-8.96-4.04-.62-.47-1.38-.73-2.16-.73H4.05c-1.56,0-2.84-1.21-2.93-2.77l-.04-.62c-.1-1.59,1.16-2.93,2.75-2.93h70.64c.41,0,.67-.43.48-.79-2.02-3.76-3.43-7.8-4.22-12.12-.37-2.07-1.31-6.48-2.81-13.25-2.55-11.57-13.99-62.85-34.32-153.82-1.11-4.95-2.15-9.88-3.14-14.79-.55-2.72-.56-4.87-1.35-6.77-.15-.37-.23-.76-.24-1.16-.03-1.52-.06-2.84-.11-3.96-.4-9.89,7.06-16.14,16.48-17.01,2.49-.23,7.94-.29,16.37-.2,29.87.32,59.76,0,89.64.22-4.21.65-8.23,2.92-11.77,3.39-2.3.31-5.04.5-8.22.59-16.44.47-29.44.58-39,.31-10.83-.3-18.51-.35-23.06-.15-1.85.09-9.53.26-23.03.53-3.85.08-7.26,1.74-10.23,4.99-1.67,1.82-3.01,5.78-2.62,8.07.94,5.54,3.16,15.98,6.67,31.31,1.13,4.93,2.58,11.99,4.34,21.2.47,2.48.8,3.91.97,4.3.23.53.41,1.14.52,1.81,1.32,8.15,3.64,16.25,5.04,23.42,1.44,7.42,3.6,14.84,5.37,23.33.65,3.11,2.08,6.78,2.14,9.57.01.61.14,1.21.36,1.78,1.41,3.61,1.66,7.08,2.7,10.77,1.08,3.85,1.17,7.17,2.25,10.6.2.63,1.13,4.95,2.78,12.95,1.73,8.35,4.76,22.13,9.09,41.32,1.18,5.22,3.55,10.57,6.49,14.41,2.92,3.81,6.99,5.67,12.21,5.6,4.77-.07,9.5-.16,14.17-.28.13,0,.24-.11.24-.24v-.34c0-.21-.17-.38-.38-.39l-6.85-.35,282.79-.03-.89.59c-.28.19-.16.62.18.64,3.95.21,7.85.14,11.71-.21,1.32-.12,2.64.01,3.95.39.43.12.88-.13,1-.56.25-.88.26-1.8.03-2.77-2.19-9.55-4.16-17.95-5.91-25.19-1.07-4.46-1.99-8.77-2.74-12.93-3.36-18.5-8.15-36.98-12.54-53.98-.87-3.34-2.23-9.32-4.09-17.93-1.97-9.1-3.27-15.1-3.9-18-6.67-30.47-11.34-50.35-13.99-59.65-.77-2.71-.83-5.52-1.78-8.65-1.45-4.77-1.88-8.22-3.34-14.98-.94-4.37-3.37-7.48-7.3-9.33-2.41-1.14-6.4-1.58-11.97-1.31-4.84.23-11.38.28-18.22.08-12.61-.39-20.42-.46-23.44-.22-3.42.27-6.97.35-10.64.25-3.43-.09-5.17-.14-5.22-.14-18.3.03-36.6,0-54.89-.09-10.03-.05-20.04-.41-30.04-1.08-2.86-.19-5.12-1.32-6.78-3.38l57.16-.1c.1,0,.18-.09.17-.19l-2.04-14.99c-.09-.65-.58-1.18-1.22-1.33-1.42-.33-2.87-.94-4.35-1.82-5.83-3.47-10.64-8.07-14.42-13.81-4.95-7.52-7.97-14.13-9.07-19.84-.08-.41-.45-.71-.87-.71h-7.35c-.16,0-.32-.02-.49-.06-6.11-1.4-10.82-4.72-14.14-9.97-5.43-8.6-8.65-17.86-5.86-27.79,1.54-5.46,4.49-8.1,8.4-11.73.27-.25.42-.6.41-.97-.07-2.69.77-5.84,2.51-9.44,2.34-4.85,6.39-7.43,12.15-7.75.64-.03,1.21-.43,1.47-1.02,1.55-3.55,3.43-8.06,6.7-10.36.21-.15.21-.46,0-.61l-21.39-15.22c-.72-.51-1.57-.78-2.44-.78-28.43.03-55.01.03-79.76,0-18.31-.02-33.55-6.19-45.73-18.5-1.31-2.13-2.72-4.19-4.21-6.18-1.79-2.38-3.17-4.46-4.13-6.23-2.01-3.69-3.47-6.74-4.4-9.15-2.05-5.35-3.53-11.69-4.42-19.01-.45-3.65-.19-7.87.8-12.64.03-.12.26-1.39.71-3.8,2.39-12.8,8.37-23.72,17.96-32.75,2.51-2.35,6.52-5.28,9.92-7.09,4.98-2.66,10.41-4.92,16.3-6.78,1.91-.61,3.94-1.03,6.07-1.27,3.73-.43,5.8-.63,6.2-.62,4.95.15,9.86.19,14.71.11,9.79-.15,14.7-.23,14.71-.23,14.91.12,31.53.39,50.02.29,17.61-.1,28.26.19,44.32-.03,9.11-.13,21.95-.08,38.52.14,7.72.11,17.9-.57,26.65-.3,2.37.07,3.22-.35,2.57-1.28,10.49-.23,17.8-.14,21.94.25,1.78.17,4.74.84,8.87,2.01,21.08,5.98,36.4,22.61,43.05,43.38.13.43.63,2.73,1.48,6.91.45,2.24.66,4.57.63,6.99-.08,5.23-.09,8.11-.04,8.66.06.56.02,1.13-.12,1.69-.72,2.85-.84,5.46-1.69,8.4-6.35,22.1-20.39,36.84-42.1,44.23-5.1,1.74-10.88,2.64-17.34,2.7-23.05.21-45.05.21-66,.02-1.76-.01-3.18-.08-4.27-.21-.59-.07-.87.7-.38,1.03,6.61,4.43,12.98,9.22,19.11,14.38,7.55,6.37,13.15,12.04,16.78,16.99,6.49,8.87,11.21,19.11,14.14,30.72,7.21,28.47,17.17,57.83,30.35,84.83.21.43.65.71,1.13.71h11.64c.3,0,.57-.19.67-.48l3.82-10.46c3.56-8.1,6.77-16.81,9.62-26.14.17-.57-.05-1.19-.55-1.52-1.22-.81-2.63-1.44-4.22-1.91-4.17-1.24-6.62-2.29-5.2-7.36,1.26-4.49,1.93-7.32,3.14-10.84,2.16-6.34,4.51-13,7.06-19.99.43-1.19.76-2.08.99-2.67,2.31-6.11,5.92-15.37,10.83-27.79,1.75-4.41,3.46-8.16,5.13-11.24.63-1.17,2.57-4.82,5.8-10.95,1.79-3.4,5.05-8.4,9.76-15.01.03-.05,1.62-2.27,4.76-6.66,1.74-2.43,3.58-4.65,5.52-6.65,2.42-2.51,4.93-5.24,7.54-8.19,3.15-3.57,6.54-6.65,10.17-9.24,1.6-1.13,3.02-1.88,4.26-2.25.63-.18.96-.27.99-.26.87.26,1.12,1.37.44,1.97-3.56,3.15-6.87,6.02-9.93,8.6-1.77,1.49-3.47,3.12-5.11,4.9-1.58,1.72-3.27,3.37-5.07,4.95-.25.22-.47.47-.66.75-3.03,4.53-6.39,8.84-10.08,12.95-.68.75-.79,1.77-1.39,2.71-2.95,4.55-5.94,9.61-8.96,15.17-.17.31-.61.9-1.34,1.75-.21.25-.39.53-.52.83-1.44,3.36-4.9,9.74-7.16,15.4-1.15,2.87-1.78,4.38-1.9,4.54-.63.83-1.66,3.21-3.1,7.13-7.12,19.37-10.96,29.72-11.51,31.05-.15.34-.23.71-.26,1.08-.09,1.29-.5,2.86-1.23,4.73-1.73,4.41-3.17,9.78-4.35,13.66-.26.85.09,1.77.85,2.23.57.35,1.38.71,2.42,1.07,26.16,9.07,43.59,14.95,52.28,17.64,2.25.69,4.28,1,6.08.91.36-.02.64-.31.64-.67.09-10.76.69-20.25,1.79-28.48,1.41-10.51,3.7-22.93,6.85-37.24.94-4.28,1.97-9.37,4.53-11.38.73-.58,1.78.13,1.51,1.02-2.98,10.02-5.57,20.59-7.76,31.7-2.38,12.09-3.4,24.25-3.89,35.84-.62,14.66,1.11,29.08,5.19,43.27,4.4,15.28,7.61,25.97,9.63,32.07.32.95.54,1.62.65,2.01,3.22,11.01,5.92,24.3,8.1,39.86.17,1.2.32,2.99.46,5.38.09,1.45.33,3.3.73,5.54.53,2.94.7,6.86.52,11.76-.09,2.4-.09,4.23-.02,5.49.39,6.15-.39,12.12-1.12,22.87-.29,4.17-.9,8.46-1.83,12.85-.1.48-.15.97-.15,1.46,0,3.69-.59,7.64-1.8,11.84-.03.09-.04.19-.05.29l-.25,4.77s-.02.09-.03.14c-.87,3.16-1.54,6.23-2.01,9.2-.51,3.16-1.16,6.18-1.97,9.05-2.04,7.26-3.63,12.75-4.76,16.47-.3.97.43,1.96,1.45,1.96h36.4c1.3,0,2.35-1.05,2.35-2.35v-.43c0-1.27-1.1-2.25-2.36-2.11-2.76.31-5.55.07-8.38-.72-5.94-1.68-5.26-6.37-3.71-11.51,3.06-10.18,8.56-19.43,16.49-27.75,3.36-3.53,8.55-9.09,13.28-12.67,7.87-5.96,16.54-10.37,26.01-13.22.2-.06.33-.26.29-.47-.03-.21-.21-.36-.42-.35-.17.01-.4-.06-.7-.19,2.64-.67,4.75-1.01,6.32-1.01,17.22-.01,34.31,2.08,51.29,5.33,4.05.78,9.39,1.1,12.63.3,7.42-1.85,15.13-4.56,23.14-8.13,9.15-4.07,25.66-11.13,49.53-21.16,11.96-5.03,21.7-8.91,29.22-11.64.42-.15.69-.56.67-1.01-.33-6.87-.6-15.08-.79-24.65-.17-8.11.4-14.55.43-22.61.04-7.92,1.05-18.23,1.79-25.56.12-1.22-.04-2.44-.45-3.59l-4.38-12.15c-.08-.24-.34-.36-.58-.28-3.18,1.15-7.23,2.98-8.68-1.48-.49-1.52-.75-2.32-.77-2.4-10.59-41.14-17.89-69.21-21.9-84.22-.45-1.71.38-3.49,1.98-4.23l.32-.15c1.55-.72,3.37.15,3.79,1.81l1.95,7.62c-.36-.09-.65-.07-.87.04s-.28.36-.19.73c2.25,9.47,4.16,16.94,5.71,22.43,2.73,9.67,4.65,16.85,5.76,21.56.52,2.19.82,5.01,1.83,7.4.58,1.39.46,3,.74,3.78.1.29.21.57.32.85.78,1.95,1.33,3.73,1.66,5.34,1.05,5.22,2.4,8.49,4.34,15.11.23.78,1.07,1.21,1.83.93l14.58-5.26s.05-.01.07-.02c1.61-.21,3.2-.77,4.78-1.66.37-.2.78-.34,1.21-.39,1.74-.21,3.32-.71,4.75-1.5.25-.14.52-.24.81-.3,2.3-.5,5.02-1.28,8.15-2.34.37-.13.51-.38.4-.75s-.34-.54-.71-.51l68.48-21.69c.49-.16.76-.67.63-1.17-6.39-23.26-13.48-45.03-21.26-65.3-6.1-15.89-14.12-32.05-24.45-45.97-10.17-13.7-22.36-24.13-36.44-32.62-13.57-8.18-27.82-14.93-42.75-20.25-10.85-3.86-20.89-7.23-30.13-10.11-.54-.17-1.13.1-1.34.63-5.61,13.6-13.39,26.83-23.76,37.45-4.41,4.51-7.62,7.59-9.64,9.22-16.89,13.68-38.28,21.99-60.17,21.78-13.24-.13-25.48-3.47-36.44-10.98-2.55-1.75-4.85-3.94-6.89-6.55-3.54-5.18-5.91-9-7.1-11.47-4.11-8.47-6.54-17.33-7.3-26.59-.09-1.15-.31-1.9-.64-2.23-.55-.55-1.28-.62-2.2-.2-4.17,1.89-6.81,2.96-7.92,3.21-2.69.59-5,2.18-7.07,2.64-.34.07-.66.21-.96.4-2.12,1.41-4.38,2.42-6.78,3.05-.34.09-.65.29-.88.56-2,2.44-4.54,3.69-7.61,3.75-.43,0-.72-.44-.54-.83,1.21-2.61,3.32-4.09,6.35-4.42.31-.04.6-.2.81-.44,2-2.36,5.15-3.25,8.71-4.86.22-.1.43-.22.64-.36,2.15-1.46,4.16-2.48,6.05-3.06.43-.13.87-.29,1.3-.46,5.89-2.33,11.69-4.94,17.4-7.84l12.07-3.97c.23-.08.38-.3.37-.54l-.95-15.87c-.02-.33-.36-.55-.67-.44l-1.81.66c-.12.04-.24.06-.36.06h-10.55c-.37,0-.74-.05-1.1-.15-2.69-.75-4.99-.77-7.87-1.38-21.09-4.45-38-15.58-50.73-33.4-10.8-15.12-18.5-32.52-23.11-52.21-4.94-21.11-8.3-43.17-10.07-66.18-.02-.27-.19-.5-.44-.59-8.1-3.09-12.19-9.41-14.13-17.62-5.64-23.82,6.55-50.54,21.84-67.97,3.67-4.19,8.37-8.75,14.1-13.67,11.92-10.25,25.54-18.9,40.85-25.93,14.9-6.85,32.14-10.07,48.79-11.07,10.51-.63,20.79-.04,30.84,1.78.29.06.56-.17.55-.47-.85-20.93,7.48-40.91,25.98-51.92,6.41-3.82,13.59-6.3,21.54-7.45,2.15-.31,4.3-.67,6.46-1.07h7.31ZM598.24,106.41c28.91-9.02,36.46-47.53,24.18-71.68-5.51-10.83-13.88-19-25.12-24.53-9.27-4.56-18.91-6.52-28.92-5.88-9.93.64-18.61,2.93-26.58,8.5-11.41,7.97-18.23,18.8-20.46,32.47-.75,4.59-.96,9.34-.65,14.26,0,.24.19.45.43.5,29.83,6.24,56.68,22.81,76.07,46.05.25.31.67.43,1.05.31ZM574.42,275.84c1.82-1.33,3.9-3.38,6.25-6.15,12.61-14.87,21.41-32.13,26.38-51.77,3.85-15.21,5.47-32.43,4.85-51.68-.45-14.19-3.55-27.82-9.94-39.96-7.95-15.09-18.78-27.59-32.5-37.51-29.31-21.19-62.27-29.32-98.88-24.39-12.55,1.69-23.76,4.74-33.63,9.15-14.41,6.44-27.96,15.21-40.67,26.31-3.81,3.33-8.14,7.9-12.99,13.72-13.68,16.42-22.51,37.42-19.49,58.65.55,3.85,2.05,7.68,4.5,11.51.18.29.44.52.74.68,1.17.61,2.15.85,2.94.7,10.55-1.93,20.69-5.4,30.42-10.42,32.23-16.63,59.66-39.23,82.29-67.81,1.08-1.36,3.12-1.46,4.32-.2l.15.14c1.37,1.32,1.52,3.46.35,4.95l-7.47,9.55c-.54.69-.69,1.61-.41,2.44,1.85,5.5,3.46,9.92,4.81,13.27,10.49,25.93,30.5,48.88,56.91,59.35,3.59,1.43,6.78,2.43,9.55,3.02.38.08.76-.12.91-.47,4.24-9.99,14.06-16.83,24.65-16.71,15.46.18,23.56,13.98,24.87,27.79,1.03,10.84-1.06,21.28-6.29,31.31-4.49,8.63-12.65,17.06-22.26,20.04-.58.18-.97.72-.97,1.32v12.86c0,.31.36.49.61.31ZM513.06,426.77c33.54,1.34,63.2-14.65,81.16-42.79,4.63-7.25,8.32-14.44,11.07-21.55.11-.29-.03-.62-.31-.74-4.54-1.98-8.69-4.23-12.44-6.74-11.52-7.71-18.5-18.34-20.93-31.9-2.09-11.71-3.3-23.55-3.63-35.51,1.04-.55,1.55-1.14,1.53-1.78-.29-9.67-.43-16.86-.41-21.59.01-1.92-1.5-2.97-4.53-3.14-1.2-.07-2.19-.97-2.36-2.16l-.03-.22c-.15-1.06.7-1.99,1.77-1.93,13.01.8,23.61-7.23,28.97-18.74,5.65-12.17,8.19-27.88,1.56-39.97-6.2-11.31-18.15-13.77-28.26-5.79-4.35,3.43-7.2,8.28-8.55,14.54-.24,1.16-1.31,1.94-2.47,1.82-.85-.09-1.54-.64-2.09-1.63-.04-.08-.12-.47-.19-.97-.19-1.37-1.02-2.26-2.49-2.67-4.57-1.29-8.91-2.75-13-4.39-4.37-1.75-8.43-3.84-12.18-6.26-10.26-6.65-19.06-14.73-26.41-24.25-8.75-11.35-15.93-24.87-20.26-39.46-.4-1.34-1.07-2.04-2.01-2.09-.32-.02-.63.11-.85.34-4.9,5.23-8.32,8.74-10.26,10.53-5.28,4.89-12.86,11.29-22.74,19.21-12.66,10.16-27.47,18.95-44.42,26.36-5.81,2.55-11.96,4.67-18.45,6.38-.98.26-1.67,1.15-1.66,2.17.06,6.25.65,12.36,1.29,18.64.23,2.23.99,8.76,2.3,19.57,1.4,11.63,3.68,23.17,6.85,34.6,1.69,6.09,3.84,12.06,6.45,17.93,2.9,6.5,5.76,12.19,8.58,17.07,4.77,8.25,10.81,15.86,18.1,22.84,5.61,5.37,11.47,9.37,17.58,12.02,7.5,3.25,14.31,5.41,20.42,6.47,18.29,3.17,38.26-3.48,53.16-14.26,6.81-4.93,13.42-11.71,19.83-20.36.53-.72,1.55-.89,2.28-.37l.31.23c1.13.81,1.38,2.39.54,3.5-8.22,10.85-17.69,19.4-28.4,25.65-5,2.91-11.9,5.61-20.69,8.1-2.39.68-3.66,1.17-3.59,3.75.08,2.72.39,4.99.93,6.82.03.11.04.21.05.32l.82,24.83c.03.99-.73,1.82-1.72,1.86h-.17c-.87.06-1.62-.6-1.67-1.47l-.52-8.59c-.09-1.43-1.5-2.4-2.86-1.96l-12.2,3.91c-.96.31-1.6,1.21-1.58,2.22.12,4.36.81,9.35,2.08,14.96,4.71,20.85,21.02,34.54,42.15,37.6,1.8.26,3.32-.06,4.55-.96ZM182.61,408.04c1.59-2.72,4.14-4.02,7.64-3.9,2.52.09,4.53.37,6.04.84,6.52,2.04,13.14,5.25,19.87,9.64,2.82,1.84,6.61,4.33,11.36,7.46.27.18.58.29.9.34,1.2.19,2.37.28,3.52.28,11.15.05,19.33.09,24.54.12,20.07.12,37.28.13,51.64.03,3.5-.02,7.23-.59,9.58-.85,2.14-.25,4.36-.73,6.65-1.45,3.73-1.17,5.88-1.91,6.45-2.21,8.4-4.35,14.68-8.56,18.85-12.65,6.33-6.2,11.1-14.06,14.3-23.58.7-2.07,1.37-4.99,2.01-8.74.77-4.53,1.12-7.5,1.05-8.93-.49-8.93-2.55-17.23-6.2-24.91-2.63-5.54-5.88-10.29-9.75-14.26-4.42-4.53-8.94-8.12-13.55-10.78-3.64-2.11-9.12-4.3-16.45-6.58-.76-.24-1.56-.33-2.35-.28-2.07.13-4.17-.09-6.31-.65-.81-.21-1.65-.33-2.49-.34-6.86-.13-14.39.31-20.51.23-9.89-.12-29.03-.19-57.42-.2-43.23-.03-76.83.02-100.8.17-2.56.02-4.62.43-6.9-.11-.21-.05-.41-.07-.62-.08-6.47-.1-12.18-.07-17.15.09-12.35.39-23.59,4.16-33.13,11.79-3.94,3.15-6.67,5.55-8.19,7.21-9.68,10.58-16,26.25-15.24,40.81.32,6.19,1.63,12.22,3.93,18.09,5.57,14.21,15.13,24.88,28.67,32,4.01,2.1,8.72,3.78,14.15,5.05,3.85.9,8.83,1.31,14.94,1.24,4.48-.05,28.52-.06,72.11-.02,1.1,0,2.03-.83,2.15-1.93,0-.11-.06-.38-.23-.82-.12-.3-.25-.54-.39-.73-2.52-3.27-3.52-6.74-3.01-10.41.05-.34.16-.68.34-.98ZM313.04,575.42c-8.8-18.18-16.18-37.11-22.15-56.8-1.73-5.7-3.72-12.77-5.97-21.22-2.65-9.98-4.93-16.95-6.84-20.92-3.97-8.27-9.24-15.61-15.81-22.02-9.51-9.29-19.84-17.52-30.99-24.71-11.36-7.31-20.9-13.46-33-19.29-2.12-1.02-11.42-4.24-12.22-.08-1,5.23,7.11,12.66,10.94,15.48,6.02,4.43,16.83,12.27,32.42,23.53,3.2,2.31,7.66,6.19,13.37,11.63,1.16,1.11,1.12,2.97-.08,4.03l-.11.09c-1.28,1.13-3.2,1.1-4.44-.06-7.47-6.99-14.34-12.74-20.62-17.25-.36-.26-.84-.24-1.17.05-7.69,6.65-7.73,20.17-5.09,29.05,2.68,9.02,6.91,15.08,13.25,22.37,1.97,2.28,3.85,3.91,5.64,4.88,3.89,2.12,8.11.84,8.29-4.2.04-1.28-.49-2.42-1.58-3.42-2.95-2.69-5.53-5.42-7.74-8.17-2.46-3.06-4.09-8.67-2.08-12.19,2.54-4.47,10.76-6.32,15.68-6.41,8.54-.16,21.56,2.4,27.22,9.48.72.9.8,2.11.21,3-1.68,2.52-4.15,1.08-6.25-.52-4.77-3.66-11.45-5.04-17.42-5.78-4.86-.6-9.36.21-13.51,2.43-.92.49-1.39,1.54-1.14,2.55.35,1.41,1.15,2.86,2.4,4.35,7.41,8.81,17.51,13.44,29.29,14.75,2.6.29,5.31,1.76,4.06,4.57-1.57,3.53-9.92.23-12.77.36-.34.01-.61.29-.6.63l.2,15.04c0,.07.01.15.02.22l2.05,8.77c.37,1.57-.71,3.12-2.31,3.31l-.24.02c-1.66.18-3.21-.86-3.65-2.47-2.43-8.9-2.97-18.04-1.62-27.42.03-.21-.09-.41-.29-.47l-3.83-1.35c-.1-.03-.21.03-.23.14-1.19,7.39-5.45,10.44-12.76,9.17-.68-.11-1.66-.71-2.55-.78-.33-.02-.63.18-.73.49-1.38,4.15-4.41,6.57-9.09,7.26-1.36.2-2.98-.22-4.07-.27-.4-.02-.72.31-.69.71.38,4.49,1.42,8.55,3.12,12.18,5.41,11.53,12.07,21.7,24.91,24.79,1.14.27,2,1.22,2.16,2.38l2.44,17.98c.03.24.23.41.47.41h65.31c.15,0,.26-.16.19-.3ZM204.39,461.19c.05-.4-.32-.71-.71-.6-8.65,2.48-9.12,11.45-8.04,19.07,1.48,10.42,5.25,20.14,12.86,27.33,3.34,3.16,9.22,6.96,13.35,2.93,1.52-1.47,1.65-2.93.39-4.37-2.16-2.46-4.51-5.31-7.05-8.56-5.04-6.46-7.48-12.41-9.4-20.42-1.24-5.15-2.04-10.38-1.4-15.38ZM207.91,517.69c1.65-.6,1.87-2.85.37-3.76-11.15-6.77-17.25-20.73-17.99-33.47-.02-.34-.44-.49-.67-.23-6.75,7.55-4.31,19.44-.03,27.8,2.37,4.61,6.09,7.9,11.16,9.87,2.04.79,4.3.81,6.36.07l.8-.28ZM340.75,575.75c8.89,1.23,14.33,6.28,16.32,15.14,10.47,46.49,17.43,77.14,20.86,91.95.08.37.57.44.77.12,14.63-24.19,24.49-50.91,32.72-78.07.26-.85.25-1.76-.03-2.61-4.77-14.45-7.98-29.37-9.64-44.78-.04-.34-.27-.63-.6-.75l-48.89-16.42c-.19-.06-.39.04-.45.23l-11.55,34.4c-.12.36.11.74.49.79ZM461.78,772c0-.27-.05-.49-.12-.66-.17-.41-.78-.33-.83.11-.39,3.14.91,5.09,3.9,5.86,2.14.55,4.25.36,6.33-.59,1.25-.37,2.26-1.07,3.04-2.11,1.09-1.47,1.76-2.46,2-2.99,1.82-3.95,3.96-7.38,6.41-10.31,9.39-11.2,21.81-22.05,35.58-27.61,1.38-.56,2.96.1,3.55,1.47l.03.08c.6,1.39.02,3.01-1.33,3.7-11.79,6.04-21.86,13.57-30.19,22.59-4.29,4.65-6.81,8.99-9.83,14.27-.14.23.04.53.31.53h9.45c.51,0,.99-.22,1.31-.61,12.54-14.89,28.43-25.39,47.68-31.52,1.59-.5,3.31.17,4.13,1.62l.06.1c.76,1.34.14,3.04-1.3,3.57-7.52,2.78-13.33,5.23-17.42,7.34-9.33,4.81-17.69,11.08-25.08,18.79-.25.26-.07.69.29.69h15.53c.75,0,1.48-.25,2.06-.72,7.03-5.62,17.95-11.19,26.67-10.49,12.29.99,19.69,2.15,29.7.56,9.74-1.56,17.9-5.59,24.48-12.1,1.06-1.05,2.74-1.15,3.92-.23l1.12.88c.32.25.72.38,1.12.38.79-.01,2.53-.18,5.2-.52,17.51-2.21,40.02-5.69,67.54-10.44,25.11-4.34,49.47-10.06,72.51-19.75,8.76-3.68,16.12-8.41,22.08-14.18,9.96-9.65,12.76-23.43,11.7-36.83-1.33-16.76-3.48-33.08-6.52-48.74-4.64-23.95-10.42-48.77-17.35-74.46-.05-.2-.26-.31-.46-.25l-84.97,27.2c-.41.13-.64.58-.49.99,9.75,26.78,17.11,54.73,23.75,81.63.05.18.23.27.4.21l9.52-3.52c1.67-.62,3.5.42,3.82,2.18l.02.11c.23,1.75-.8,3.41-2.46,3.99-27.24,9.46-50.07,18.05-68.49,25.78-12.68,5.32-28.36,12.04-47.04,20.16-5.66,2.46-11.87,4.83-18.63,7.12-6.26,2.11-12.56,2.54-18.9,1.29-16.41-3.24-32.77-5.76-49.09-5.64-3.17.02-5.9.4-8.19,1.15-21.64,7.07-39.24,24.13-49.29,44.45-1.37,2.75-2.22,5.64-2.56,8.67-.09.77.38,1.5,1.12,1.74,2.95.96,6,.89,9.13-.21.63-.22,1.13-.71,1.36-1.33,1.01-2.75,2.46-5.57,4.35-8.46,9.12-13.95,21.04-23.61,35.13-32.75,1.36-.88,3.19-.3,3.79,1.21l.07.16c.67,1.68.06,3.6-1.45,4.6-8.97,5.9-15.11,10.45-18.44,13.64-8.9,8.55-15.55,16.7-19.73,28.2ZM677.49,610.85c-.52,4.93-.81,10.07-.88,15.43-.15,12.59-.07,25.87.24,39.84,0,.31.32.52.61.41l13.4-4.83c.3-.11.47-.43.39-.75l-13.46-50.13c-.04-.16-.28-.14-.3.03ZM411.97,776.34c.63-1.09,1.09-2.09,1.38-2.99,8.29-25.61,12.9-51.56,13.85-77.84.18-4.98.57-12.18.41-17.36-.65-21.17-4.45-41.81-11.38-61.91-.48-1.39-2.44-1.36-2.9.03-4.58,14.04-10.13,30.86-16.44,44.15-4.81,10.17-10.3,20.12-16.47,29.86-.74,1.17-1.01,2.58-.73,3.94.69,3.45,1.53,7.31,2.5,11.56.57,2.47,1.34,7.61,2.32,10.93.01.01.09.44.26,1.27,3.05,15.54,7.63,35.03,13.74,58.47.16.63.73,1.07,1.38,1.07h10.05c.84,0,1.62-.45,2.03-1.18ZM528.52,776.35c.05-.01,5.61-.07,16.7-.2,12.08-.14,16.72,12.6,13.74,22.54-.1.36.17.72.54.72h132.69c.3,0,.52-.27.45-.56l-11.15-48.82c-.06-.25-.3-.41-.56-.37-26.39,4.64-53.21,8.69-80.46,12.15-1.37.18-2.68.69-3.81,1.48-11.62,8.25-26.1,10.62-40.42,9.09-1.51-.17-6.02-.46-13.51-.89-2.43-.14-4.45.11-6.05.74-3.49,1.39-6.26,2.51-8.33,3.35-.18.07-.28.27-.24.46.04.19.22.32.41.31ZM400.14,781.99c-.36.18-.55.59-.46.98l4.97,21.78c.19.84.94,1.43,1.8,1.42,9.95-.12,17.9-.07,23.85.15,2.3.08,4.3-.63,6.62-.13.09.02,1.46.03,4.11.03,37.72,0,67.61-.1,89.66-.31,5.24-.05,11.49-.55,15.14-.95.32-.04.64-.13.95-.26,7.54-3.45,9.84-9.22,6.9-17.33-1.5-4.15-4.39-6.24-8.68-6.25-14.95-.04-32.73.03-53.34.22-3.12.03-6.52-.22-9.68-.22-23.49.03-42.55.03-57.18-.02-4.02-.01-8.31-.87-12.27-.21-2.85.48-6.46.13-9.23.29-1.15.07-2.21.34-3.16.81Z"/>
  <path class="st3" d="M598.24,106.41c-.38.12-.8,0-1.05-.31-19.39-23.24-46.24-39.81-76.07-46.05-.24-.05-.42-.26-.43-.5-.31-4.92-.1-9.67.65-14.26,2.23-13.67,9.05-24.5,20.46-32.47,7.97-5.57,16.65-7.86,26.58-8.5,10.01-.64,19.65,1.32,28.92,5.88,11.24,5.53,19.61,13.7,25.12,24.53,12.28,24.15,4.73,62.66-24.18,71.68Z"/>
  <path class="st3" d="M574.42,275.84c-.25.18-.61,0-.61-.31v-12.86c0-.6.39-1.14.97-1.32,9.61-2.98,17.77-11.41,22.26-20.04,5.23-10.03,7.32-20.47,6.29-31.31-1.31-13.81-9.41-27.61-24.87-27.79-10.59-.12-20.41,6.72-24.65,16.71-.15.35-.53.55-.91.47-2.77-.59-5.96-1.59-9.55-3.02-26.41-10.47-46.42-33.42-56.91-59.35-1.35-3.35-2.96-7.77-4.81-13.27-.28-.83-.13-1.75.41-2.44l7.47-9.55c1.17-1.49,1.02-3.63-.35-4.95l-.15-.14c-1.2-1.26-3.24-1.16-4.32.2-22.63,28.58-50.06,51.18-82.29,67.81-9.73,5.02-19.87,8.49-30.42,10.42-.79.15-1.77-.09-2.94-.7-.3-.16-.56-.39-.74-.68-2.45-3.83-3.95-7.66-4.5-11.51-3.02-21.23,5.81-42.23,19.49-58.65,4.85-5.82,9.18-10.39,12.99-13.72,12.71-11.1,26.26-19.87,40.67-26.31,9.87-4.41,21.08-7.46,33.63-9.15,36.61-4.93,69.57,3.2,98.88,24.39,13.72,9.92,24.55,22.42,32.5,37.51,6.39,12.14,9.49,25.77,9.94,39.96.62,19.25-1,36.47-4.85,51.68-4.97,19.64-13.77,36.9-26.38,51.77-2.35,2.77-4.43,4.82-6.25,6.15Z"/>
  <path class="st8" d="M567.98,287.54l-.33-24.3c-.01-.37-.33-.66-.7-.62-3.41.33-7.85-1.9-5.68-5.93.53-.99,1.31-1.46,2.33-1.39,23.04,1.4,33.76-23.16,33.48-42.45-.14-9.82-5.56-22.59-16.62-23.79-11.02-1.19-19.27,7.64-21.48,17.69-1.1,5-6.91,4.13-7.1-.69-.01-.42-.3-.77-.7-.88-15.2-4.01-28.41-11.03-39.62-21.05-16.12-14.41-28.77-34.2-34.41-55.61-.09-.33-.5-.44-.74-.19-20.19,21.33-43.22,38.75-69.09,52.26-9.15,4.78-18.39,8.27-27.72,10.47-.25.06-.42.29-.41.54,1.35,22.31,4.25,43.8,8.68,64.46,4.11,19.17,11.87,36.71,23.3,52.62,11.84,16.49,27.44,26.69,46.79,30.59,7.78,1.57,15.6,1.52,23.47-.13,20.45-4.29,37.17-15.47,50.15-33.55,2.37-3.3,7.07,0,5.55,3.72-.79,1.9-2.7,4.6-5.75,8.11-12.42,14.27-27.83,23.62-46.22,28.03-.25.06-.43.3-.41.56l1.96,32.95c.11,1.82-1.22,3.41-3.03,3.63l-.27.03c-1.7.29-3.28-.98-3.35-2.71l-.41-9.66c-.01-.27-.27-.45-.53-.37l-13.22,4.23c-.26.08-.44.33-.43.6.33,10.97,3.03,23.14,9.31,31.99,9.34,13.16,22.62,18.65,38.28,20.07-1.23.9-2.75,1.22-4.55.96-21.13-3.06-37.44-16.75-42.15-37.6-1.27-5.61-1.96-10.6-2.08-14.96-.02-1.01.62-1.91,1.58-2.22l12.2-3.91c1.36-.44,2.77.53,2.86,1.96l.52,8.59c.05.87.8,1.53,1.67,1.48h.17c.99-.05,1.75-.88,1.72-1.87l-.82-24.83c-.01-.11-.02-.21-.05-.32-.54-1.83-.85-4.1-.93-6.82-.07-2.58,1.2-3.07,3.59-3.75,8.79-2.49,15.69-5.19,20.69-8.1,10.71-6.25,20.18-14.8,28.4-25.65.84-1.11.59-2.69-.54-3.5l-.31-.23c-.73-.52-1.75-.35-2.28.37-6.41,8.65-13.02,15.43-19.83,20.36-14.9,10.78-34.87,17.43-53.16,14.26-6.11-1.06-12.92-3.22-20.42-6.47-6.11-2.65-11.97-6.65-17.58-12.02-7.29-6.98-13.33-14.59-18.1-22.84-2.82-4.88-5.68-10.57-8.58-17.07-2.61-5.87-4.76-11.84-6.45-17.93-3.17-11.43-5.45-22.97-6.85-34.6-1.31-10.81-2.07-17.34-2.3-19.57-.64-6.28-1.23-12.39-1.29-18.64,0-1.02.68-1.91,1.66-2.17,6.49-1.71,12.64-3.83,18.45-6.38,16.95-7.41,31.76-16.2,44.42-26.36,9.88-7.92,17.46-14.32,22.74-19.21,1.94-1.79,5.36-5.3,10.26-10.53.22-.23.53-.36.85-.34.94.05,1.61.75,2.01,2.09,4.33,14.59,11.51,28.11,20.26,39.46,7.35,9.52,16.15,17.6,26.41,24.25,3.75,2.42,7.81,4.51,12.18,6.26,4.09,1.64,8.43,3.1,13,4.39,1.47.41,2.3,1.3,2.49,2.67.07.5.15.89.19.97.55.99,1.24,1.54,2.09,1.63,1.16.12,2.23-.66,2.47-1.82,1.35-6.26,4.2-11.11,8.55-14.54,10.11-7.98,22.06-5.52,28.26,5.79,6.63,12.09,4.09,27.8-1.56,39.97-5.36,11.51-15.96,19.54-28.97,18.74-1.07-.06-1.92.87-1.77,1.93l.03.22c.17,1.19,1.16,2.09,2.36,2.16,3.03.17,4.54,1.22,4.53,3.14-.02,4.73.12,11.92.41,21.59.02.64-.49,1.23-1.53,1.78Z"/>
  <path class="st2" d="M567.98,287.54c.33,11.96,1.54,23.8,3.63,35.51,2.43,13.56,9.41,24.19,20.93,31.9,3.75,2.51,7.9,4.76,12.44,6.74.28.12.42.45.31.74-2.75,7.11-6.44,14.3-11.07,21.55-17.96,28.14-47.62,44.13-81.16,42.79-15.66-1.42-28.94-6.91-38.28-20.07-6.28-8.85-8.98-21.02-9.31-31.99,0-.27.17-.52.43-.6l13.22-4.23c.26-.08.52.1.53.37l.41,9.66c.07,1.73,1.65,3,3.35,2.71l.27-.03c1.81-.22,3.14-1.81,3.03-3.63l-1.96-32.95c-.02-.26.16-.5.41-.56,18.39-4.41,33.8-13.76,46.22-28.03,3.05-3.51,4.96-6.21,5.75-8.11,1.52-3.72-3.18-7.02-5.55-3.72-12.98,18.08-29.7,29.26-50.15,33.55-7.87,1.65-15.69,1.7-23.47.13-19.35-3.9-34.95-14.1-46.79-30.59-11.43-15.91-19.19-33.45-23.3-52.62-4.43-20.66-7.33-42.15-8.68-64.46,0-.25.16-.48.41-.54,9.33-2.2,18.57-5.69,27.72-10.47,25.87-13.51,48.9-30.93,69.09-52.26.24-.25.65-.14.74.19,5.64,21.41,18.29,41.2,34.41,55.61,11.21,10.02,24.42,17.04,39.62,21.05.4.11.69.46.7.88.19,4.82,6,5.69,7.1.69,2.21-10.05,10.46-18.88,21.48-17.69,11.06,1.2,16.48,13.97,16.62,23.79.28,19.29-10.44,43.85-33.48,42.45-1.02-.07-1.8.4-2.33,1.39-2.17,4.03,2.27,6.26,5.68,5.93.37-.04.69.25.7.62l.33,24.3ZM505.47,196.91c.98-1.69.51-3.86-1.09-4.99-8.64-6.46-19.56-8.86-29.64-4.41-2.7,1.19-5.59,3.2-6.61,5.98-.92,2.52,1.97,4.54,4.2,4.17.35-.06.69-.21.96-.45,2.96-2.58,5.04-4.27,9.33-4.76,7.53-.85,12.21,1.85,18.1,5.78,1.56,1.04,3.67.55,4.61-1.07l.14-.25ZM388.87,211.43c1.51,1.09,3.92.09,4.67-1.35,1.37-2.6,3.53-4.27,6.48-5.02,3.73-.95,9.63-1.66,13.53.07.3.13.64.15.95.04,4.83-1.67,3.22-6.98-1.19-7.8-8.36-1.55-20.59.12-25.58,7.88-1.57,2.45-1.19,4.51,1.14,6.18ZM573.47,232.29l12.53-23.37c.44-.83.13-1.86-.7-2.3l-.88-.47c-2.2-1.18-5.65.97-7.71,4.8l-6.69,12.48c-2.05,3.84-1.94,7.9.26,9.08l.88.48c.83.44,1.86.13,2.31-.7ZM485.44,242.48c4.15-.46,6.97-5.79,6.29-11.91-.67-6.12-4.58-10.71-8.74-10.25-4.15.46-6.97,5.79-6.29,11.91.67,6.12,4.58,10.71,8.74,10.25ZM453.09,273.64c-.61.15-1.62.53-3.01,1.16-5.14,2.33-13.72-1.2-15.08-7.02-.63-2.69,1.4-6.58,2.9-10.31,3.36-8.32,5.12-17.8,5.27-28.45.02-1.57-1.21-2.87-2.78-2.93h-.22c-1.74-.08-3.24,1.23-3.4,2.97-.57,6.23-1.26,11.54-2.06,15.91-.65,3.6-2.59,9.35-5.8,17.24-1.99,4.89-1.52,9.07,1.39,12.54,4.98,5.95,11.46,8.44,19.44,7.46,3.47-.42,9.05-2.96,6.57-7.19-.65-1.12-1.96-1.68-3.22-1.38ZM407.44,250.39c4.09-.53,6.75-5.92,5.95-12.04-.81-6.12-4.78-10.62-8.86-10.09-4.09.53-6.75,5.92-5.95,12.04.81,6.12,4.78,10.62,8.86,10.09ZM446.17,302.43l-.12.27c-.81,1.77,0,3.86,1.81,4.6,17.3,7.09,36.66-3.2,46.37-17.54.95-1.4,1.35-2.65,1.2-3.75-.41-3.02-3.6-4.19-5.44-1.81-1.77,2.29-3.15,4-4.15,5.15-8.34,9.59-23.12,17.34-35.27,11.5-1.65-.8-3.63-.08-4.4,1.58Z"/>
  <path class="st6" d="M505.47,196.91l-.14.25c-.94,1.62-3.05,2.11-4.61,1.07-5.89-3.93-10.57-6.63-18.1-5.78-4.29.49-6.37,2.18-9.33,4.76-.27.24-.61.39-.96.45-2.23.37-5.12-1.65-4.2-4.17,1.02-2.78,3.91-4.79,6.61-5.98,10.08-4.45,21-2.05,29.64,4.41,1.6,1.13,2.07,3.3,1.09,4.99Z"/>
  <path class="st8" d="M393.54,210.08c-.75,1.44-3.16,2.44-4.67,1.35-2.33-1.67-2.71-3.73-1.14-6.18,4.99-7.76,17.22-9.43,25.58-7.88,4.41.82,6.02,6.13,1.19,7.8-.31.11-.65.09-.95-.04-3.9-1.73-9.8-1.02-13.53-.07-2.95.75-5.11,2.42-6.48,5.02ZM389.56,210.07c.57.53,1.45.51,2-.03.67-.65,1.53-1.68,2.57-3.07,2.58-3.44,9.26-4.32,13.37-4.62,1.47-.1,3.41.3,5.84,1.2,1.12.42,2.37-.14,2.8-1.26v-.02c.44-1.13-.06-2.4-1.14-2.92-1.69-.81-3.34-1.16-4.93-1.06-1.61.11-2.5.15-2.66.14-5.66-.3-10.7,1.07-15.12,4.1-2.2,1.51-5.28,5.19-2.73,7.54Z"/>
  <path class="st6" d="M389.56,210.07c-2.55-2.35.53-6.03,2.73-7.54,4.42-3.03,9.46-4.4,15.12-4.1.16,0,1.05-.03,2.66-.14,1.59-.1,3.24.25,4.93,1.06,1.08.52,1.58,1.79,1.15,2.92v.02c-.44,1.12-1.69,1.68-2.81,1.26-2.43-.9-4.37-1.3-5.84-1.2-4.11.3-10.79,1.18-13.37,4.62-1.04,1.39-1.9,2.42-2.57,3.07-.55.54-1.43.56-2,.03Z"/>
  <path class="st6" d="M573.47,232.29c-.45.83-1.48,1.14-2.31.7l-.88-.48c-2.2-1.18-2.31-5.24-.26-9.08l6.69-12.48c2.06-3.83,5.51-5.98,7.71-4.8l.88.47c.83.44,1.14,1.47.7,2.3l-12.53,23.37Z"/>
  <path class="st8" d="M485.44,242.48c-4.15.46-8.06-4.13-8.74-10.25-.68-6.12,2.14-11.45,6.29-11.91,4.15-.46,8.06,4.13,8.74,10.25.68,6.12-2.14,11.45-6.29,11.91ZM485.24,241.12c3.32-.34,5.57-4.95,5.03-10.31-.55-5.36-3.68-9.43-7-9.09-3.32.34-5.57,4.95-5.03,10.31.55,5.36,3.68,9.43,7,9.09Z"/>
  <ellipse class="st6" cx="484.25" cy="231.42" rx="6.05" ry="9.75" transform="translate(-20.91 50.12) rotate(-5.8)"/>
  <path class="st6" d="M453.09,273.64c1.26-.3,2.57.26,3.22,1.38,2.48,4.23-3.1,6.77-6.57,7.19-7.98.98-14.46-1.51-19.44-7.46-2.91-3.47-3.38-7.65-1.39-12.54,3.21-7.89,5.15-13.64,5.8-17.24.8-4.37,1.49-9.68,2.06-15.91.16-1.74,1.66-3.05,3.4-2.98h.22c1.57.07,2.8,1.37,2.78,2.94-.15,10.65-1.91,20.13-5.27,28.45-1.5,3.73-3.53,7.62-2.9,10.31,1.36,5.82,9.94,9.35,15.08,7.02,1.39-.63,2.4-1.01,3.01-1.16Z"/>
  <path class="st8" d="M407.44,250.39c-4.09.54-8.06-3.97-8.86-10.09-.8-6.12,1.86-11.51,5.95-12.04,4.09-.54,8.06,3.97,8.86,10.09.8,6.12-1.86,11.51-5.95,12.04ZM407.15,249.06c3.22-.35,5.37-4.98,4.79-10.35-.59-5.37-3.68-9.43-6.9-9.08-3.22.35-5.37,4.98-4.79,10.35.59,5.36,3.68,9.42,6.9,9.08Z"/>
  <ellipse class="st6" cx="406.09" cy="239.35" rx="5.88" ry="9.77" transform="translate(-23.47 45.26) rotate(-6.2)"/>
  <path class="st6" d="M446.17,302.43c.77-1.66,2.75-2.38,4.4-1.58,12.15,5.84,26.93-1.91,35.27-11.5,1-1.15,2.38-2.86,4.15-5.15,1.84-2.38,5.03-1.21,5.44,1.81.15,1.1-.25,2.35-1.2,3.75-9.71,14.34-29.07,24.63-46.37,17.54-1.8-.74-2.62-2.83-1.81-4.6l.12-.27Z"/>
  <path class="st0" d="M295.55,302.24c.65.93-.2,1.35-2.57,1.28-8.75-.27-18.93.41-26.65.3-16.57-.22-29.41-.27-38.52-.14-16.06.22-26.71-.07-44.32.03-18.49.1-35.11-.17-50.02-.29-.01,0-4.92.08-14.71.23-4.85.08-9.76.04-14.71-.11-.4-.01-2.47.19-6.2.62-2.13.24-4.16.66-6.07,1.27-5.89,1.86-11.32,4.12-16.3,6.78-3.4,1.81-7.41,4.74-9.92,7.09-9.59,9.03-15.57,19.95-17.96,32.75-.45,2.41-.68,3.68-.71,3.8-.99,4.77-1.25,8.99-.8,12.64.89,7.32,2.37,13.66,4.42,19.01.93,2.41,2.39,5.46,4.4,9.15.96,1.77,2.34,3.85,4.13,6.23,1.49,1.99,2.9,4.05,4.21,6.18-7.95-8.34-13.38-18.05-16.27-29.13-.6-2.31-.94-3.99-1.03-5.04-.19-2.42-.87-4.22-.94-6.88-.35-12.09,2.18-23.2,7.59-33.33,5.65-10.57,13.58-18.71,23.77-24.42,7.29-4.07,15.06-6.64,23.29-7.7,1.45-.19,9.67-.29,24.66-.3,57.06-.04,114.14-.05,171.23-.02Z"/>
  <path class="st8" d="M182.27,409.02c-.51,3.67.49,7.14,3.01,10.41.14.19.27.43.39.73.17.44.24.71.23.82-.12,1.1-1.05,1.93-2.15,1.93-43.59-.04-67.63-.03-72.11.02-6.11.07-11.09-.34-14.94-1.24-5.43-1.27-10.14-2.95-14.15-5.05-13.54-7.12-23.1-17.79-28.67-32-2.3-5.87-3.61-11.9-3.93-18.09-.76-14.56,5.56-30.23,15.24-40.81,1.52-1.66,4.25-4.06,8.19-7.21,9.54-7.63,20.78-11.4,33.13-11.79,4.97-.16,10.68-.19,17.15-.09.21,0,.41.03.62.08,2.28.54,4.34.13,6.9.11,23.97-.15,57.57-.2,100.8-.17,28.39.01,47.53.08,57.42.2,6.12.08,13.65-.36,20.51-.23.84.01,1.68.13,2.49.34,2.14.56,4.24.78,6.31.65.79-.05,1.59.04,2.35.28,7.33,2.28,12.81,4.47,16.45,6.58,4.61,2.66,9.13,6.25,13.55,10.78,3.87,3.97,7.12,8.72,9.75,14.26,3.65,7.68,5.71,15.98,6.2,24.91.07,1.43-.28,4.4-1.05,8.93-.64,3.75-1.31,6.67-2.01,8.74-3.2,9.52-7.97,17.38-14.3,23.58-4.17,4.09-10.45,8.3-18.85,12.65-.57.3-2.72,1.04-6.45,2.21-2.29.72-4.51,1.2-6.65,1.45-2.35.26-6.08.83-9.58.85-14.36.1-31.57.09-51.64-.03-5.21-.03-13.39-.07-24.54-.12-1.15,0-2.32-.09-3.52-.28-.32-.05-.63-.16-.9-.34-4.75-3.13-8.54-5.62-11.36-7.46-6.73-4.39-13.35-7.6-19.87-9.64-1.51-.47-3.52-.75-6.04-.84-3.5-.12-6.05,1.18-7.64,3.9-.18.3-.29.64-.34.98ZM184.35,421.3c.28,0,.43-.32.25-.53-3.04-3.48-5.08-9.73-2.65-13.89,7.54-12.88,38.43,8.9,45.96,13.73.74.48,1.61.73,2.5.73,35.74-.09,58.16-.08,67.26.02,11.39.13,19.38-.39,23.99-1.56,22.22-5.61,39.04-22.97,42.76-45.52,1.89-11.51.5-22.45-4.18-32.82-6.24-13.81-18.23-24.97-32.66-29.92-6.38-2.19-13-3.29-19.85-3.31-32.31-.1-94.45-.13-186.42-.1-13.11.01-21.96.55-26.53,1.63-13.99,3.31-25.18,10.95-33.59,22.92-5.27,7.5-8.42,16.3-9.47,26.41-2.85,27.47,15.6,54.33,42.91,60.69,4.34,1.01,8.04,1.51,11.1,1.51,21.43,0,47.64,0,78.62.01Z"/>
  <path class="st5" d="M184.35,421.3c-30.98-.01-57.19-.01-78.62-.01-3.06,0-6.76-.5-11.1-1.51-27.31-6.36-45.76-33.22-42.91-60.69,1.05-10.11,4.2-18.91,9.47-26.41,8.41-11.97,19.6-19.61,33.59-22.92,4.57-1.08,13.42-1.62,26.53-1.63,91.97-.03,154.11,0,186.42.1,6.85.02,13.47,1.12,19.85,3.31,14.43,4.95,26.42,16.11,32.66,29.92,4.68,10.37,6.07,21.31,4.18,32.82-3.72,22.55-20.54,39.91-42.76,45.52-4.61,1.17-12.6,1.69-23.99,1.56-9.1-.1-31.52-.11-67.26-.02-.89,0-1.76-.25-2.5-.73-7.53-4.83-38.42-26.61-45.96-13.73-2.43,4.16-.39,10.41,2.65,13.89.18.21.03.53-.25.53ZM251.06,334.51c-.17,0-.32.11-.37.27l-18.9,53.95c-.09.26.1.53.37.53h9.01c.17,0,.32-.11.37-.27l18.9-53.95c.09-.26-.1-.53-.37-.53h-9.01ZM271.23,354.24v-13.35c0-.35-.29-.64-.64-.64h-9.75c-.34,0-.61.28-.61.62v42.05c0,.33.27.6.6.6h9.78c.33,0,.6-.26.6-.59,0-6.21.03-11.16.1-14.84.07-3.73,1.52-6.05,4.35-6.98,3.95-1.3,7,1.05,7.04,5.19.05,6.12.05,11.62,0,16.51-.01.39.31.71.7.71h9.92c.33,0,.6-.26.62-.59.07-1.2.08-5.04.03-11.51-.04-7.83.59-16.9-8.9-19.46-4.98-1.35-9.4-.5-13.26,2.55-.23.19-.58.03-.58-.27ZM117.03,373.62c3.65-3.27,6.66-6.09,9.04-8.47,3.39-3.38,4.98-7.16,4.78-11.35-.56-11.77-15.39-13.65-23.91-10.56-3.4,1.23-6.3,3.52-8.71,6.86-.06.09-.04.22.05.27l8.09,4.66c.15.09.35.05.46-.09,2.03-2.77,4.77-3.98,8.21-3.65,6.03.59,4.6,6.8,1.59,9.63-3.79,3.57-9.03,8.47-15.71,14.7-.44.4-.69.97-.69,1.57v5.71c0,.34.28.61.62.61h30.81c.17,0,.31-.14.31-.31v-8.72c0-.12-.09-.21-.21-.21h-14.48c-.34,0-.51-.42-.25-.65ZM134.18,363.15c.02,11.13,5.67,21.13,18.04,21.11,12.37-.01,17.99-10.02,17.98-21.15-.02-11.14-5.66-21.14-18.04-21.12-12.37,0-17.99,10.03-17.98,21.16ZM194.19,363.14c0,.22-.01.39-.02.51-.05.37-.36.64-.73.64h-4.13c-.32,0-.58.26-.58.58v4.6c0,.3.25.55.55.55h5.38c.34,0,.65.21.76.53,2.14,5.95,6.31,10.06,12.51,12.31,8.65,3.14,19.93,1.45,25.91-5.95.07-.08.06-.2,0-.27l-6.57-6.58c-.15-.14-.38-.13-.52.02-4.9,5.44-13.69,6.98-18.66.44-.16-.21-.01-.52.26-.52h11.38c.29,0,.52-.23.52-.51v-4.72c0-.29-.24-.53-.53-.53l-13.03.02c-.38,0-.71-.24-.82-.6-.04-.14-.07-.31-.07-.53s.02-.39.07-.53c.11-.36.44-.6.82-.6h13.03c.29,0,.53-.24.53-.54v-4.72c0-.28-.25-.51-.53-.51l-11.38.03c-.27,0-.42-.31-.26-.52,4.95-6.55,13.75-5.03,18.66.4.13.15.37.16.52.02l6.55-6.59c.08-.07.08-.19,0-.27-5.99-7.39-17.27-9.06-25.92-5.9-6.19,2.26-10.35,6.37-12.48,12.33-.12.32-.42.53-.76.53h-5.38c-.31.01-.55.26-.55.56v4.6c0,.32.27.58.59.58h4.13c.36,0,.68.26.73.63,0,.12.02.29.02.51ZM310.47,354.79v-2.53c0-.28-.23-.5-.51-.5h-9.6c-.35,0-.63.29-.63.64v30.49c0,.35.28.63.62.63h9.75c.35,0,.64-.29.63-.64-.03-3.53-.01-8.22.07-14.05.08-5.66,3.97-8.37,9.39-7.51.42.07.8-.26.8-.68v-8.48c0-.44-.36-.8-.8-.8-3.61.03-6.67,1.25-9.18,3.66-.2.2-.54.05-.54-.23Z"/>
  <path class="st0" d="M251.06,334.51h9.01c.27,0,.46.27.37.53l-18.9,53.95c-.05.16-.2.27-.37.27h-9.01c-.27,0-.46-.27-.37-.53l18.9-53.95c.05-.16.2-.27.37-.27Z"/>
  <path class="st0" d="M271.81,354.51c3.86-3.05,8.28-3.9,13.26-2.55,9.49,2.56,8.86,11.63,8.9,19.46.05,6.47.04,10.31-.03,11.51-.02.33-.29.59-.62.59h-9.92c-.39,0-.71-.32-.7-.71.05-4.89.05-10.39,0-16.51-.04-4.14-3.09-6.49-7.04-5.19-2.83.93-4.28,3.25-4.35,6.98-.07,3.68-.1,8.63-.1,14.84,0,.33-.27.59-.6.59h-9.78c-.33,0-.6-.27-.6-.6v-42.05c0-.34.27-.62.61-.62h9.75c.35,0,.64.29.64.64v13.35c0,.3.35.46.58.27Z"/>
  <path class="st0" d="M117.28,374.27h14.48c.12,0,.21.09.21.21v8.72c0,.17-.14.31-.31.31h-30.81c-.34,0-.62-.27-.62-.61v-5.71c0-.6.25-1.17.69-1.57,6.68-6.23,11.92-11.13,15.71-14.7,3.01-2.83,4.44-9.04-1.59-9.63-3.44-.33-6.18.88-8.21,3.65-.11.14-.31.18-.46.09l-8.09-4.66c-.09-.05-.11-.18-.05-.27,2.41-3.34,5.31-5.63,8.71-6.86,8.52-3.09,23.35-1.21,23.91,10.56.2,4.19-1.39,7.97-4.78,11.35-2.38,2.38-5.39,5.2-9.04,8.47-.26.23-.09.65.25.65Z"/>
  <path class="st0" d="M152.16,341.99c12.38-.02,18.02,9.98,18.04,21.12,0,11.13-5.61,21.14-17.98,21.15-12.37.02-18.02-9.98-18.04-21.11,0-11.13,5.61-21.15,17.98-21.16ZM152.2,375.16c3.65,0,6.59-5.4,6.58-12.04-.01-6.65-2.98-12.03-6.62-12.02-3.65.01-6.59,5.4-6.58,12.04,0,6.65,2.98,12.03,6.62,12.02Z"/>
  <path class="st0" d="M205.79,363.13c0,.22.03.39.07.53.11.36.44.6.82.6l13.03-.02c.29,0,.53.24.53.53v4.72c0,.28-.23.51-.52.51h-11.38c-.27,0-.42.31-.26.52,4.97,6.54,13.76,5,18.66-.44.14-.15.37-.16.52-.02l6.57,6.58c.07.07.08.19,0,.27-5.98,7.4-17.26,9.09-25.91,5.95-6.2-2.25-10.37-6.36-12.51-12.31-.11-.32-.42-.53-.76-.53h-5.38c-.3,0-.55-.25-.55-.55v-4.6c0-.32.26-.58.58-.58h4.13c.37,0,.68-.27.73-.64,0-.12.02-.29.02-.51s-.01-.39-.02-.51c-.05-.37-.37-.64-.73-.64h-4.13c-.32,0-.58-.25-.58-.57v-4.6c0-.3.23-.55.54-.55h5.38c.34-.01.64-.22.76-.54,2.13-5.96,6.29-10.07,12.48-12.33,8.65-3.16,19.93-1.49,25.92,5.9.07.08.07.2,0,.27l-6.55,6.59c-.15.14-.39.13-.52-.02-4.91-5.43-13.71-6.95-18.66-.4-.16.21,0,.52.26.52l11.38-.03c.28,0,.52.23.52.51v4.72c0,.3-.23.53-.52.53h-13.03c-.38,0-.71.25-.82.61-.05.14-.07.31-.07.53Z"/>
  <ellipse class="st5" cx="152.18" cy="363.13" rx="6.6" ry="12.03" transform="translate(-.63 .27) rotate(-.1)"/>
  <path class="st0" d="M311.01,355.02c2.51-2.41,5.57-3.63,9.18-3.66.44,0,.8.36.8.8v8.48c0,.42-.38.75-.8.68-5.42-.86-9.31,1.85-9.39,7.51-.08,5.83-.1,10.52-.07,14.05.01.35-.28.64-.63.64h-9.75c-.34,0-.62-.28-.62-.63v-30.49c0-.35.28-.64.63-.64h9.6c.28,0,.51.22.51.5v2.53c0,.28.34.43.54.23Z"/>
  <path class="st9" d="M698.66,561.87l-34.09,11.58c-.54.18-1.12-.13-1.27-.69l-19.81-76.33-1.95-7.62c-.42-1.66-2.24-2.53-3.79-1.81l-.32.15c-1.6.74-2.43,2.52-1.98,4.23,4.01,15.01,11.31,43.08,21.9,84.22.02.08.28.88.77,2.4,1.45,4.46,5.5,2.63,8.68,1.48.24-.08.5.04.58.28l4.38,12.15c.41,1.15.57,2.37.45,3.59-.74,7.33-1.75,17.64-1.79,25.56-.03,8.06-.6,14.5-.43,22.61.19,9.57.46,17.78.79,24.65.02.45-.25.86-.67,1.01-7.52,2.73-17.26,6.61-29.22,11.64-23.87,10.03-40.38,17.09-49.53,21.16-8.01,3.57-15.72,6.28-23.14,8.13-3.24.8-8.58.48-12.63-.3-16.98-3.25-34.07-5.34-51.29-5.33-1.57,0-3.68.34-6.32,1.01-16.88,5.25-29.64,15.15-41.17,28.48-4.72,5.47-8.48,11.03-11.29,16.68-2.47,4.98-7.63,16.33-2.3,20.23,1.21.89,2.72,1.65,4.51,2.29-.41.73-.54,1.73-.38,3l-28.74.09c-.37,0-.63-.36-.52-.72,5.32-16.17,9.11-32.81,11.36-49.94.73-5.52,1.26-9.59,1.6-12.21.31-2.37.45-4.07.43-5.1-.09-4.33.93-8.31.96-12.77.03-5.64.03-13.06,0-22.26,0-4.14-.88-6.98-.98-10.52-.05-1.72-.36-4.36-.93-7.91-2.31-14.35-4.95-26.49-7.92-36.4-5.26-17.6-8.05-26.96-8.36-28.07-2.89-10.17-4.71-18.84-5.48-26.01-.45-4.26-.79-6.96-1.01-8.11-.05-.27-.07-.54-.07-.81,0-8.66-.31-17.3.52-26.23,1.75-18.81,5.3-37.25,10.66-55.34.42-1.41-.55-2.85-2.01-3l-.22-.02c-1.6-.16-3.09.84-3.54,2.39-4.02,13.81-7.06,27.77-9.12,41.87-1.77,12.12-2.58,23.54-2.45,34.25,0,.24-.24.42-.47.34l-58.45-19.63c-.56-.19-.88-.78-.72-1.35,1.55-5.67,5.73-18.13,12.56-37.39,6.31-17.81,13.61-33.92,21.9-48.31,7.94-13.79,17.88-26.11,29.82-36.96,10.4-9.45,22.81-15.99,36.43-22.76,4.27-2.12,9.59-4.4,15.96-6.84.25-.09.52.08.53.35.29,8.83,2.25,17.27,5.88,25.34,2.53,5.61,5.7,10.29,9.53,14.02,2.04,2.61,4.34,4.8,6.89,6.55,10.96,7.51,23.2,10.85,36.44,10.98,21.89.21,43.28-8.1,60.17-21.78,2.02-1.63,5.23-4.71,9.64-9.22,10.37-10.62,18.15-23.85,23.76-37.45.21-.53.8-.8,1.34-.63,9.24,2.88,19.28,6.25,30.13,10.11,14.93,5.32,29.18,12.07,42.75,20.25,14.08,8.49,26.27,18.92,36.44,32.62,10.33,13.92,18.35,30.08,24.45,45.97,7.78,20.27,14.87,42.04,21.26,65.3.13.5-.14,1.01-.63,1.17l-68.48,21.69Z"/>
  <path class="st8" d="M466.76,367.16c-5.71,2.9-11.51,5.51-17.4,7.84-.43.17-.87.33-1.3.46-1.89.58-3.9,1.6-6.05,3.06-.21.14-.42.26-.64.36-3.56,1.61-6.71,2.5-8.71,4.86-.21.24-.5.4-.81.44-3.03.33-5.14,1.81-6.35,4.42-.18.39.11.84.54.83,3.07-.06,5.61-1.31,7.61-3.75.23-.27.54-.47.88-.56,2.4-.63,4.66-1.64,6.78-3.05.3-.19.62-.33.96-.4,2.07-.46,4.38-2.05,7.07-2.64,1.11-.25,3.75-1.32,7.92-3.21.92-.42,1.65-.35,2.2.2.33.33.55,1.08.64,2.23.76,9.26,3.19,18.12,7.3,26.59,1.19,2.47,3.56,6.29,7.1,11.47-3.83-3.73-7-8.41-9.53-14.02-3.63-8.07-5.59-16.51-5.88-25.34,0-.27-.28-.44-.53-.35-6.37,2.44-11.69,4.72-15.96,6.84-13.62,6.77-26.03,13.31-36.43,22.76-11.94,10.85-21.88,23.17-29.82,36.96-8.29,14.39-15.59,30.5-21.9,48.31-6.83,19.26-11.01,31.72-12.56,37.39-.16.57.16,1.16.72,1.35l58.45,19.63c.23.08.47-.1.47-.34-.13-10.71.68-22.13,2.45-34.25,2.06-14.1,5.1-28.06,9.12-41.87.45-1.55,1.94-2.55,3.54-2.39l.22.02c1.46.15,2.43,1.59,2.01,3-5.36,18.09-8.91,36.53-10.66,55.34-.83,8.93-.52,17.57-.52,26.23,0,.27.02.54.07.81.22,1.15.56,3.85,1.01,8.11.77,7.17,2.59,15.84,5.48,26.01.31,1.11,3.1,10.47,8.36,28.07,2.97,9.91,5.61,22.05,7.92,36.4.57,3.55.88,6.19.93,7.91.1,3.54.97,6.38.98,10.52.03,9.2.03,16.62,0,22.26-.03,4.46-1.05,8.44-.96,12.77.02,1.03-.12,2.73-.43,5.1-.34,2.62-.87,6.69-1.6,12.21-2.25,17.13-6.04,33.77-11.36,49.94-.11.36.15.72.52.72l28.74-.09,8.74.03c.37,0,.65-.32.6-.69l-.22-1.63c-.05-.36-.34-.62-.7-.63l-8.04-.08c-1.79-.64-3.3-1.4-4.51-2.29-5.33-3.9-.17-15.25,2.3-20.23,2.81-5.65,6.57-11.21,11.29-16.68,11.53-13.33,24.29-23.23,41.17-28.48.3.13.53.2.7.19.21-.01.39.14.42.35.04.21-.09.41-.29.47-9.47,2.85-18.14,7.26-26.01,13.22-4.73,3.58-9.92,9.14-13.28,12.67-7.93,8.32-13.43,17.57-16.49,27.75-1.55,5.14-2.23,9.83,3.71,11.51,2.83.79,5.62,1.03,8.38.72,1.26-.14,2.36.84,2.36,2.11v.43c0,1.3-1.05,2.35-2.35,2.35h-36.4c-1.02,0-1.75-.99-1.45-1.96,1.13-3.72,2.72-9.21,4.76-16.47.81-2.87,1.46-5.89,1.97-9.05.47-2.97,1.14-6.04,2.01-9.2,0-.05.02-.09.03-.14l.25-4.77c0-.1.02-.2.05-.29,1.21-4.2,1.81-8.15,1.8-11.84,0-.49.05-.98.15-1.46.93-4.39,1.54-8.68,1.83-12.85.73-10.75,1.51-16.72,1.12-22.87-.07-1.26-.07-3.09.02-5.49.18-4.9,0-8.82-.52-11.76-.4-2.24-.64-4.09-.73-5.54-.14-2.39-.29-4.18-.46-5.38-2.18-15.56-4.88-28.85-8.1-39.86-.11-.39-.33-1.06-.65-2.01-2.02-6.1-5.23-16.79-9.63-32.07-4.08-14.19-5.81-28.61-5.19-43.27.49-11.59,1.51-23.75,3.89-35.84,2.19-11.11,4.78-21.68,7.76-31.7.27-.89-.78-1.6-1.51-1.02-2.56,2.01-3.59,7.1-4.53,11.38-3.15,14.31-5.44,26.73-6.85,37.24-1.1,8.23-1.7,17.72-1.79,28.48,0,.36-.28.65-.64.67-1.8.09-3.83-.22-6.08-.91-8.69-2.69-26.12-8.57-52.28-17.64-1.04-.36-1.85-.72-2.42-1.07-.76-.46-1.11-1.38-.85-2.23,1.18-3.88,2.62-9.25,4.35-13.66.73-1.87,1.14-3.44,1.23-4.73.03-.37.11-.74.26-1.08.55-1.33,4.39-11.68,11.51-31.05,1.44-3.92,2.47-6.3,3.1-7.13.12-.16.75-1.67,1.9-4.54,2.26-5.66,5.72-12.04,7.16-15.4.13-.3.31-.58.52-.83.73-.85,1.17-1.44,1.34-1.75,3.02-5.56,6.01-10.62,8.96-15.17.6-.94.71-1.96,1.39-2.71,3.69-4.11,7.05-8.42,10.08-12.95.19-.28.41-.53.66-.75,1.8-1.58,3.49-3.23,5.07-4.95,1.64-1.78,3.34-3.41,5.11-4.9,3.06-2.58,6.37-5.45,9.93-8.6.68-.6.43-1.71-.44-1.97-.03-.01-.36.08-.99.26-1.24.37-2.66,1.12-4.26,2.25-3.63,2.59-7.02,5.67-10.17,9.24-2.61,2.95-5.12,5.68-7.54,8.19-1.94,2-3.78,4.22-5.52,6.65-3.14,4.39-4.73,6.61-4.76,6.66-4.71,6.61-7.97,11.61-9.76,15.01-3.23,6.13-5.17,9.78-5.8,10.95-1.67,3.08-3.38,6.83-5.13,11.24-4.91,12.42-8.52,21.68-10.83,27.79-.23.59-.56,1.48-.99,2.67-2.55,6.99-4.9,13.65-7.06,19.99-1.21,3.52-1.88,6.35-3.14,10.84-1.42,5.07,1.03,6.12,5.2,7.36,1.59.47,3,1.1,4.22,1.91.5.33.72.95.55,1.52-2.85,9.33-6.06,18.04-9.62,26.14l8.68-26.68c.1-.28-.08-.59-.37-.65-2.53-.53-5.07-1.37-7.62-2.51-2.54-1.13-3.36-3.26-2.45-6.39,4.39-15.05,9.95-31.25,16.68-48.59,4.05-10.45,8.02-19.57,11.89-27.36,9.01-18.12,20.11-33.77,33.3-46.95,5.94-5.94,12.76-11.27,20.47-16,15.4-9.44,31.72-17.01,48.96-22.7Z"/>
  <path class="st2" d="M313.04,575.42c.07.14-.04.3-.19.3h-65.31c-.24,0-.44-.17-.47-.41l-2.44-17.98c-.16-1.16-1.02-2.11-2.16-2.38-12.84-3.09-19.5-13.26-24.91-24.79-1.7-3.63-2.74-7.69-3.12-12.18-.03-.4.29-.73.69-.71,1.09.05,2.71.47,4.07.27,4.68-.69,7.71-3.11,9.09-7.26.1-.31.4-.51.73-.49.89.07,1.87.67,2.55.78,7.31,1.27,11.57-1.78,12.76-9.17.02-.11.13-.17.23-.14l3.83,1.35c.2.06.32.26.29.47-1.35,9.38-.81,18.52,1.62,27.42.44,1.61,1.99,2.65,3.65,2.47l.24-.02c1.6-.19,2.68-1.74,2.31-3.31l-2.05-8.77c0-.07-.02-.15-.02-.22l-.2-15.04c0-.34.26-.62.6-.63,2.85-.13,11.2,3.17,12.77-.36,1.25-2.81-1.46-4.28-4.06-4.57-11.78-1.31-21.88-5.94-29.29-14.75-1.25-1.49-2.05-2.94-2.4-4.35-.25-1.01.22-2.06,1.14-2.55,4.15-2.22,8.65-3.03,13.51-2.43,5.97.74,12.65,2.12,17.42,5.78,2.1,1.6,4.57,3.04,6.25.52.59-.89.51-2.1-.21-3-5.66-7.08-18.68-9.64-27.22-9.48-4.92.09-13.14,1.94-15.68,6.41-2.01,3.52-.38,9.13,2.08,12.19,2.21,2.75,4.79,5.48,7.74,8.17,1.09,1,1.62,2.14,1.58,3.42-.18,5.04-4.4,6.32-8.29,4.2-1.79-.97-3.67-2.6-5.64-4.88-6.34-7.29-10.57-13.35-13.25-22.37-2.64-8.88-2.6-22.4,5.09-29.05.33-.29.81-.31,1.17-.05,6.28,4.51,13.15,10.26,20.62,17.25,1.24,1.16,3.16,1.19,4.44.06l.11-.09c1.2-1.06,1.24-2.92.08-4.03-5.71-5.44-10.17-9.32-13.37-11.63-15.59-11.26-26.4-19.1-32.42-23.53-3.83-2.82-11.94-10.25-10.94-15.48.8-4.16,10.1-.94,12.22.08,12.1,5.83,21.64,11.98,33,19.29,11.15,7.19,21.48,15.42,30.99,24.71,6.57,6.41,11.84,13.75,15.81,22.02,1.91,3.97,4.19,10.94,6.84,20.92,2.25,8.45,4.24,15.52,5.97,21.22,5.97,19.69,13.35,38.62,22.15,56.8Z"/>
  <path class="st4" d="M82.36,554.27c.03.15.16.25.31.25.15-.01.27-.12.29-.27,1.05-8.8,2.7-20.65,6.18-29.82,8.14-21.42,24.63-34.94,45.1-43.86,2.37-1.04,5.57-2.17,9.59-3.39,1.14-.35,2.53.15,3.56,1.27.45.5.59,1.1.42,1.79-.08.32.06.65.33.82.39.25.6,1.31.62,3.2.07,7.28.03,11.53-.12,12.74-2.31,17.98-9.29,36.72-24.63,47.05-7.42,5-12.47,8.04-15.16,9.11-2.68,1.07-7.46,3.28-14.33,6.64-2.6,1.27-4.31,2.32-5.13,3.16-.39.41-.64.94-.69,1.51-.08.81-.3,1.44-.65,1.91-.14.19-.22.42-.22.65v6.96c0,.36-.29.65-.65.65h-4.57c-.89,0-1.66-.62-1.85-1.48-2.69-12.05-6.24-23.32-10.66-33.81-.2-.47-.66-.77-1.16-.76-7.36.09-12.47-2.35-19.75-6.05-11.87-6.02-20.48-16.47-26.08-28.89-1.51-3.35-2.44-6.32-2.78-8.89-1.8-13.65-2.48-25.87-2.05-36.68.21-5.15,2.6-8.67,7.17-10.56.33-.14.69-.18,1.04-.13,2.52.35,5.04,1.12,7.55,2.29,9.71,4.55,18.75,10.52,27.12,17.89,10.79,9.51,17.27,21.28,19.44,35.33,1.09,7.07.73,14.47.09,21.6-.4,4.49-1.36,8.99-2.87,13.48-.45,1.33-.35,2.79.27,4.05,2.04,4.17,3.46,8.25,4.27,12.24ZM71.8,525.66l1-3.53c.03-.08.04-.16.04-.24.12-9.38.09-15.14-.1-17.29-.64-7.45-3.42-14.92-8.33-22.41-.94-1.43-1.07-3.11-2.79-4.06-2.73-1.52-3.69-4.04-6.22-5.78-6.09-4.19-9.51-6.51-10.26-6.96-4-2.43-9.02-4.89-15.07-7.39-1.24-.51-2.43-.77-3.57-.77-.76,0-1.39.58-1.45,1.34-1.09,14.29.52,28.19,4.85,41.71.79,2.47,2.91,6.53,6.37,12.19.09.14.18.27.28.39l6.89,7.83c.14.17.3.31.49.42,6.75,4.11,12.75,7.66,20.43,9.24.63.13,1.11-.54.8-1.1-2.8-4.95-5.16-10.28-8.26-14.92-1.59-2.39-1.71-4.35-1.17-6.9.17-.79.88-1.34,1.69-1.31,2.54.12,4.37,1.22,5.49,3.3,3.7,6.85,5.98,11.46,6.85,13.81.14.37.64,1.21,1.49,2.52.15.22.48.16.55-.09ZM142.06,485.38c0-.25-.28-.39-.5-.28-2.68,1.35-5.33,2.53-7.96,3.55-2.91,1.12-7.65,3.69-14.22,7.72-1.24.76-4.63,3.68-10.17,8.76-4.14,3.79-7.87,9.12-9.94,13.15-4.73,9.21-7.76,19.28-9.08,30.22-.2,1.64-.21,3.22-.04,4.75.06.56.66.88,1.16.62,4.03-2.09,8.85-4.44,14.48-7.06,2.32-1.09,6.39-3.43,12.2-7.03,4.31-2.67,7.73-5.64,10.27-8.91,4.75-6.11,8.16-12.72,10.24-19.85,1.51-5.17,2.64-10.86,3.38-17.07.31-2.56.37-5.42.18-8.57Z"/>
  <path class="st1" d="M71.8,525.66c-.07.25-.4.31-.55.09-.85-1.31-1.35-2.15-1.49-2.52-.87-2.35-3.15-6.96-6.85-13.81-1.12-2.08-2.95-3.18-5.49-3.3-.81-.03-1.52.52-1.69,1.31-.54,2.55-.42,4.51,1.17,6.9,3.1,4.64,5.46,9.97,8.26,14.92.31.56-.17,1.23-.8,1.1-7.68-1.58-13.68-5.13-20.43-9.24-.19-.11-.35-.25-.49-.42l-6.89-7.83c-.1-.12-.19-.25-.28-.39-3.46-5.66-5.58-9.72-6.37-12.19-4.33-13.52-5.94-27.42-4.85-41.71.06-.76.69-1.34,1.45-1.34,1.14,0,2.33.26,3.57.77,6.05,2.5,11.07,4.96,15.07,7.39.75.45,4.17,2.77,10.26,6.96,2.53,1.74,3.49,4.26,6.22,5.78,1.72.95,1.85,2.63,2.79,4.06,4.91,7.49,7.69,14.96,8.33,22.41.19,2.15.22,7.91.1,17.29,0,.08-.01.16-.04.24l-1,3.53Z"/>
  <path class="st2" d="M204.39,461.19c-.64,5,.16,10.23,1.4,15.38,1.92,8.01,4.36,13.96,9.4,20.42,2.54,3.25,4.89,6.1,7.05,8.56,1.26,1.44,1.13,2.9-.39,4.37-4.13,4.03-10.01.23-13.35-2.93-7.61-7.19-11.38-16.91-12.86-27.33-1.08-7.62-.61-16.59,8.04-19.07.39-.11.76.2.71.6Z"/>
  <path class="st2" d="M207.91,517.69l-.8.28c-2.06.74-4.32.72-6.36-.07-5.07-1.97-8.79-5.26-11.16-9.87-4.28-8.36-6.72-20.25.03-27.8.23-.26.65-.11.67.23.74,12.74,6.84,26.7,17.99,33.47,1.5.91,1.28,3.16-.37,3.76Z"/>
  <path class="st1" d="M142.06,485.38c.19,3.15.13,6.01-.18,8.57-.74,6.21-1.87,11.9-3.38,17.07-2.08,7.13-5.49,13.74-10.24,19.85-2.54,3.27-5.96,6.24-10.27,8.91-5.81,3.6-9.88,5.94-12.2,7.03-5.63,2.62-10.45,4.97-14.48,7.06-.5.26-1.1-.06-1.16-.62-.17-1.53-.16-3.11.04-4.75,1.32-10.94,4.35-21.01,9.08-30.22,2.07-4.03,5.8-9.36,9.94-13.15,5.54-5.08,8.93-8,10.17-8.76,6.57-4.03,11.31-6.6,14.22-7.72,2.63-1.02,5.28-2.2,7.96-3.55.22-.11.49.03.5.28Z"/>
  <path class="st8" d="M643.49,496.43l19.81,76.33c.15.56.73.87,1.27.69l34.09-11.58c.37-.03.6.14.71.51s-.03.62-.4.75c-3.13,1.06-5.85,1.84-8.15,2.34-.29.06-.56.16-.81.3-1.43.79-3.01,1.29-4.75,1.5-.43.05-.84.19-1.21.39-1.58.89-3.17,1.45-4.78,1.66-.02.01-.04.01-.07.02l-14.58,5.26c-.76.28-1.6-.15-1.83-.93-1.94-6.62-3.29-9.89-4.34-15.11-.33-1.61-.88-3.39-1.66-5.34-.11-.28-.22-.56-.32-.85-.28-.78-.16-2.39-.74-3.78-1.01-2.39-1.31-5.21-1.83-7.4-1.11-4.71-3.03-11.89-5.76-21.56-1.55-5.49-3.46-12.96-5.71-22.43-.09-.37-.03-.62.19-.73s.51-.13.87-.04Z"/>
  <path class="st2" d="M340.26,574.96l11.55-34.4c.06-.19.26-.29.45-.23l48.89,16.42c.33.12.56.41.6.75,1.66,15.41,4.87,30.33,9.64,44.78.28.85.29,1.76.03,2.61-8.23,27.16-18.09,53.88-32.72,78.07-.2.32-.69.25-.77-.12-3.43-14.81-10.39-45.46-20.86-91.95-1.99-8.86-7.43-13.91-16.32-15.14-.38-.05-.61-.43-.49-.79Z"/>
  <path class="st2" d="M471.06,776.72c-1.56-.19-3.03-.31-4.42-.37-1.77-.08-2.97-.38-3.59-.9-.91-.77-1.34-1.92-1.27-3.45,4.18-11.5,10.83-19.65,19.73-28.2,3.33-3.19,9.47-7.74,18.44-13.64,1.51-1,2.12-2.92,1.45-4.6l-.07-.16c-.6-1.51-2.43-2.09-3.79-1.21-14.09,9.14-26.01,18.8-35.13,32.75-1.89,2.89-3.34,5.71-4.35,8.46-.23.62-.73,1.11-1.36,1.33-3.13,1.1-6.18,1.17-9.13.21-.74-.24-1.21-.97-1.12-1.74.34-3.03,1.19-5.92,2.56-8.67,10.05-20.32,27.65-37.38,49.29-44.45,2.29-.75,5.02-1.13,8.19-1.15,16.32-.12,32.68,2.4,49.09,5.64,6.34,1.25,12.64.82,18.9-1.29,6.76-2.29,12.97-4.66,18.63-7.12,18.68-8.12,34.36-14.84,47.04-20.16,18.42-7.73,41.25-16.32,68.49-25.78,1.66-.58,2.69-2.24,2.46-3.99l-.02-.11c-.32-1.76-2.15-2.8-3.82-2.18l-9.52,3.52c-.17.06-.35-.03-.4-.21-6.64-26.9-14-54.85-23.75-81.63-.15-.41.08-.86.49-.99l84.97-27.2c.2-.06.41.05.46.25,6.93,25.69,12.71,50.51,17.35,74.46,3.04,15.66,5.19,31.98,6.52,48.74,1.06,13.4-1.74,27.18-11.7,36.83-5.96,5.77-13.32,10.5-22.08,14.18-23.04,9.69-47.4,15.41-72.51,19.75-27.52,4.75-50.03,8.23-67.54,10.44-2.67.34-4.41.51-5.2.52-.4,0-.8-.13-1.12-.38l-1.12-.88c-1.18-.92-2.86-.82-3.92.23-6.58,6.51-14.74,10.54-24.48,12.1-10.01,1.59-17.41.43-29.7-.56-8.72-.7-19.64,4.87-26.67,10.49-.58.47-1.31.72-2.06.72h-15.53c-.36,0-.54-.43-.29-.69,7.39-7.71,15.75-13.98,25.08-18.79,4.09-2.11,9.9-4.56,17.42-7.34,1.44-.53,2.06-2.23,1.3-3.57l-.06-.1c-.82-1.45-2.54-2.12-4.13-1.62-19.25,6.13-35.14,16.63-47.68,31.52-.32.39-.8.61-1.31.61h-9.45c-.27,0-.45-.3-.31-.53,3.02-5.28,5.54-9.62,9.83-14.27,8.33-9.02,18.4-16.55,30.19-22.59,1.35-.69,1.93-2.31,1.33-3.7l-.03-.08c-.59-1.37-2.17-2.03-3.55-1.47-13.77,5.56-26.19,16.41-35.58,27.61-2.45,2.93-4.59,6.36-6.41,10.31-.24.53-.91,1.52-2,2.99-.78,1.04-1.79,1.74-3.04,2.11Z"/>
  <path class="st8" d="M183.41,576.04c1.66,2.06,3.92,3.19,6.78,3.38,10,.67,20.01,1.03,30.04,1.08,18.29.09,36.59.12,54.89.09.05,0,1.79.05,5.22.14,3.67.1,7.22.02,10.64-.25,3.02-.24,10.83-.17,23.44.22,6.84.2,13.38.15,18.22-.08,5.57-.27,9.56.17,11.97,1.31,3.93,1.85,6.36,4.96,7.3,9.33,1.46,6.76,1.89,10.21,3.34,14.98.95,3.13,1.01,5.94,1.78,8.65,2.65,9.3,7.32,29.18,13.99,59.65.63,2.9,1.93,8.9,3.9,18,1.86,8.61,3.22,14.59,4.09,17.93,4.39,17,9.18,35.48,12.54,53.98.75,4.16,1.67,8.47,2.74,12.93,1.75,7.24,3.72,15.64,5.91,25.19.23.97.22,1.89-.03,2.77-.12.43-.57.68-1,.56-1.31-.38-2.63-.51-3.95-.39-3.86.35-7.76.42-11.71.21-.34-.02-.46-.45-.18-.64l.89-.59,14.39-.04c.36-.01.62-.33.54-.68-17.92-78.47-34.11-149.24-48.58-212.31-.81-3.53-2.61-6.08-5.41-7.65-1.8-1.01-4.86-1.51-9.18-1.52-111.63-.05-206.2-.05-283.71,0-6.73.01-11.39-.45-14.89,3.84-2.19,2.69-3.07,5.24-2.63,7.63,2.2,11.81,6.37,31.39,12.5,58.74,9.52,42.45,19.47,87.08,29.84,133.91,1.08,4.86,2.18,7.93,4.61,11.65,2.75,4.19,6.68,6.31,11.77,6.38,2.67.04,5.32.06,7.96.07l6.85.35c.21.01.38.18.38.39v.34c0,.13-.11.24-.24.24-4.67.12-9.4.21-14.17.28-5.22.07-9.29-1.79-12.21-5.6-2.94-3.84-5.31-9.19-6.49-14.41-4.33-19.19-7.36-32.97-9.09-41.32-1.65-8-2.58-12.32-2.78-12.95-1.08-3.43-1.17-6.75-2.25-10.6-1.04-3.69-1.29-7.16-2.7-10.77-.22-.57-.35-1.17-.36-1.78-.06-2.79-1.49-6.46-2.14-9.57-1.77-8.49-3.93-15.91-5.37-23.33-1.4-7.17-3.72-15.27-5.04-23.42-.11-.67-.29-1.28-.52-1.81-.17-.39-.5-1.82-.97-4.3-1.76-9.21-3.21-16.27-4.34-21.2-3.51-15.33-5.73-25.77-6.67-31.31-.39-2.29.95-6.25,2.62-8.07,2.97-3.25,6.38-4.91,10.23-4.99,13.5-.27,21.18-.44,23.03-.53,4.55-.2,12.23-.15,23.06.15,9.56.27,22.56.16,39-.31,3.18-.09,5.92-.28,8.22-.59,3.54-.47,7.56-2.74,11.77-3.39l32.16.02Z"/>
  <path class="st5" d="M384.22,804.49l-282.79.03c-2.64-.01-5.29-.03-7.96-.07-5.09-.07-9.02-2.19-11.77-6.38-2.43-3.72-3.53-6.79-4.61-11.65-10.37-46.83-20.32-91.46-29.84-133.91-6.13-27.35-10.3-46.93-12.5-58.74-.44-2.39.44-4.94,2.63-7.63,3.5-4.29,8.16-3.83,14.89-3.84,77.51-.06,172.08-.06,283.71,0,4.32,0,7.38.51,9.18,1.52,2.8,1.57,4.6,4.12,5.41,7.65,14.47,63.07,30.66,133.84,48.58,212.31.08.35-.18.67-.54.68l-14.39.04ZM192.56,708.23c5.51,7.59,18.1,12.79,26.93,7.04,9.78-6.38,7.68-19.21,1.53-27.69-6.16-8.48-17.71-14.45-26.8-7.13-8.21,6.6-7.17,20.2-1.66,27.78Z"/>
  <path class="st0" d="M411.97,776.34c-.41.73-1.19,1.18-2.03,1.18h-10.05c-.65,0-1.22-.44-1.38-1.07-6.11-23.44-10.69-42.93-13.74-58.47-.17-.83-.25-1.26-.26-1.27-.98-3.32-1.75-8.46-2.32-10.93-.97-4.25-1.81-8.11-2.5-11.56-.28-1.36,0-2.77.73-3.94,6.17-9.74,11.66-19.69,16.47-29.86,6.31-13.29,11.86-30.11,16.44-44.15.46-1.39,2.42-1.42,2.9-.03,6.93,20.1,10.73,40.74,11.38,61.91.16,5.18-.23,12.38-.41,17.36-.95,26.28-5.56,52.23-13.85,77.84-.29.9-.75,1.9-1.38,2.99ZM415.21,616.17c-.1-.35-.6-.35-.7,0-7.88,26.34-18.43,52.42-33.71,75.29-.43.64-.57,1.42-.4,2.17l18.74,82.03c.09.39.44.66.84.66h10.15c.55,0,1.04-.35,1.22-.87,9.64-28.48,14.17-57.93,14.73-87.91.24-12.91-.55-24.72-2.37-35.43-2.1-12.35-4.93-24.33-8.5-35.94Z"/>
  <path class="st7" d="M221.02,687.58c6.15,8.48,8.25,21.31-1.53,27.69-8.83,5.75-21.42.55-26.93-7.04-5.51-7.58-6.55-21.18,1.66-27.78,9.09-7.32,20.64-1.35,26.8,7.13Z"/>
  <path class="st9" d="M528.52,776.35c-.19,0-.37-.12-.41-.31-.04-.19.06-.39.24-.46,2.07-.84,4.84-1.96,8.33-3.35,1.6-.63,3.62-.88,6.05-.74,7.49.43,12,.72,13.51.89,14.32,1.53,28.8-.84,40.42-9.09,1.13-.79,2.44-1.3,3.81-1.48,27.25-3.46,54.07-7.51,80.46-12.15.26-.04.5.12.56.37l11.15,48.82c.07.29-.15.56-.45.56h-132.69c-.37,0-.64-.36-.54-.72,2.98-9.94-1.66-22.68-13.74-22.54-11.09.13-16.65.19-16.7.2Z"/>
  <path class="st0" d="M461.78,772c-.07,1.53.36,2.68,1.27,3.45.62.52,1.82.82,3.59.9,1.39.06,2.86.18,4.42.37-2.08.95-4.19,1.14-6.33.59-2.99-.77-4.29-2.72-3.9-5.86.05-.44.66-.52.83-.11.07.17.11.39.12.66Z"/>
  <path class="st2" d="M447.35,776.32c-.16-1.27-.03-2.27.38-3l8.04.08c.36.01.65.27.7.63l.22,1.63c.05.37-.23.7-.6.69l-8.74-.03Z"/>
  <path class="st8" d="M400.14,781.99c.95-.47,2.01-.74,3.16-.81,2.77-.16,6.38.19,9.23-.29,3.96-.66,8.25.2,12.27.21,14.63.05,33.69.05,57.18.02,3.16,0,6.56.25,9.68.22,20.61-.19,38.39-.26,53.34-.22,4.29.01,7.18,2.1,8.68,6.25,2.94,8.11.64,13.88-6.9,17.33-.31.13-.63.22-.95.26-3.65.4-9.9.9-15.14.95-22.05.21-51.94.32-89.66.31-2.65,0-4.02-.01-4.11-.03-2.32-.5-4.32.21-6.62.13-5.95-.22-13.9-.27-23.85-.15-.86.01-1.61-.58-1.8-1.42l-4.97-21.78c-.09-.39.1-.8.46-.98ZM400.79,782.87l4.79,21c.09.39.44.66.84.67,51.4.14,94.17.11,128.31-.1,6.93-.05,17.57.15,18.82-9.39.58-4.38-.7-9.41-4.59-11.87-.93-.59-2.68-.88-5.25-.87-16.41.05-63.92.07-142.51.05-.27,0-.47.25-.41.51Z"/>
  <path class="st7" d="M400.79,782.87c-.06-.26.14-.51.41-.51,78.59.02,126.1,0,142.51-.05,2.57-.01,4.32.28,5.25.87,3.89,2.46,5.17,7.49,4.59,11.87-1.25,9.54-11.89,9.34-18.82,9.39-34.14.21-76.91.24-128.31.1-.4-.01-.75-.28-.84-.67l-4.79-21Z"/>
  <path class="st2" d="M526.99,810.76h-.65c.03-.21.24-.21.65,0Z"/>
</svg>