<?xml version="1.0" encoding="UTF-8"?>
<svg id="Capa_1" xmlns="http://www.w3.org/2000/svg" version="1.1" xmlns:xlink="http://www.w3.org/1999/xlink" viewBox="0 0 795 772">
  <!-- Generator: Adobe Illustrator 29.4.0, SVG Export Plug-In . SVG Version: 2.1.0 Build 152)  -->
  <defs>
    <style>
      .st0 {
        stroke: #807e8d;
      }

      .st0, .st1, .st2, .st3, .st4, .st5, .st6, .st7, .st8, .st9, .st10, .st11, .st12, .st13, .st14, .st15, .st16, .st17, .st18, .st19, .st20 {
        fill: none;
      }

      .st0, .st1, .st2, .st3, .st4, .st5, .st6, .st7, .st8, .st10, .st11, .st12, .st13, .st14, .st15, .st16, .st17, .st18, .st19, .st20 {
        stroke-width: 2px;
      }

      .st1 {
        stroke: #8c8b93;
      }

      .st2 {
        stroke: #4e4494;
      }

      .st21 {
        fill: #e1ddee;
      }

      .st3 {
        stroke: gray;
      }

      .st22 {
        fill: #5944ec;
      }

      .st4 {
        stroke: #856556;
      }

      .st5 {
        stroke: #9999a2;
      }

      .st6 {
        stroke: #f0eef7;
      }

      .st7 {
        stroke: #5b5e92;
      }

      .st23 {
        fill: #7d69fc;
      }

      .st8 {
        stroke: #dad8e6;
      }

      .st24 {
        fill: #1f1f2c;
      }

      .st25 {
        fill: #ecbea6;
      }

      .st26 {
        fill: #eaab80;
      }

      .st10 {
        stroke: #7d7c7d;
      }

      .st11 {
        stroke: #716f77;
      }

      .st27 {
        fill: #d2d3dd;
      }

      .st12 {
        stroke: #101016;
      }

      .st13 {
        stroke: #866f69;
      }

      .st28 {
        fill: #979cf7;
      }

      .st14 {
        stroke: #3c328c;
      }

      .st29 {
        fill: #20be33;
      }

      .st30 {
        fill: #393a4a;
      }

      .st31 {
        fill: #f9f7fa;
      }

      .st15 {
        stroke: #bcbdf3;
      }

      .st16 {
        stroke: #8ddb97;
      }

      .st17 {
        stroke: #bbb0fb;
      }

      .st18 {
        stroke: #ebb593;
      }

      .st19 {
        stroke: #797985;
      }

      .st32 {
        clip-path: url(#clippath);
      }

      .st20 {
        stroke: #8f8f96;
      }
    </style>
    <clipPath id="clippath">
      <rect class="st9" width="795" height="772"/>
    </clipPath>
  </defs>
  <g class="st32">
    <g>
      <path class="st6" d="M795,361.16c-.76-4.34-1.23-8.71-1.4-13.1-.07-1.73-.76-3.78-.9-5.14-.73-6.96-1.97-15.85-3.73-26.66-.37-2.28-1.25-3.85-1.41-5.79-.08-.97-.38-2.43-.89-4.36-1.35-5.01-2.56-12.95-4.26-17.66-1.26-3.47-2.28-6.97-3.05-10.49-.25-1.12-1.42-4.55-3.51-10.3-1.35-3.68-2.69-7.99-4.04-12.93-.11-.4-.28-.78-.49-1.14-1.18-1.96-2.05-4.01-2.62-6.14-.1-.39-.24-.76-.41-1.13-2.73-5.81-4.92-10.92-6.59-15.31-.69-1.79-4.09-8.69-10.2-20.69-1.57-3.08-3.69-5.62-5.02-8.8-.65-1.55-1.87-3.72-3.65-6.53-4.56-7.19-8.33-13.79-13.06-20.45-5.84-8.22-10.3-14.36-13.37-18.43-1.33-1.74-3.17-3.21-4.1-4.87-1.42-2.52-4.12-4.43-5.39-6.87-.57-1.1-1.34-2.04-2.29-2.82-1.77-1.43-3.41-3.36-4.92-5.78-.27-.43-.59-.83-.94-1.2-6.63-6.8-12.68-12.86-18.13-18.19-1.38-1.35-2.75-3.23-4.57-4.49-.3-.21-.57-.46-.81-.73-3.25-3.79-6.94-7.1-11.07-9.91-.21-.15-.41-.31-.58-.5l-3.3-3.6c-.5-.54-1.07-1.01-1.71-1.37-2.03-1.15-3.8-2.56-5.29-4.24-.32-.35-.7-.65-1.12-.87-.75-.39-2.42-1.66-5-3.83-4.72-3.96-11.17-8.66-19.36-14.09-.03-.01-2.66-1.8-7.89-5.36-3.3-2.25-6.4-4.22-9.31-5.91-3.63-2.11-6.57-4.45-10.41-6.07-.52-.22-1.01-.49-1.48-.81-2.16-1.47-3.59-2.38-4.3-2.73-4.63-2.28-11.69-5.81-21.18-10.58-5.97-3-11.85-5.63-17.64-7.9-4.1-1.6-8.85-4.02-12.98-5.27-4.57-1.38-8.4-3.45-12.76-4.8-15.67-4.85-26.75-8.08-33.25-9.67-6.06-1.49-18.59-4.02-37.58-7.6-.44-.08-.89-.11-1.34-.09-1.81.09-3.53-.08-5.16-.49-2.78-.71-4.64-.58-8.33-.6-.61,0-1.21-.12-1.79-.33l-1.99-.74c-.14-.05-.28-.08-.43-.09l-8.82-.26c-.29,0-.57-.08-.83-.21-1.67-.81-2.89-1.21-3.66-1.21-25.38,0-43.78,0-55.19-.02-3.49,0-5.98.4-7.45,1.2-.3.16-.62.25-.96.26l-7.34.22c-.77.02-1.53.15-2.26.4l-1.33.46c-.59.21-1.21.31-1.84.31h-6.05c-.18,0-.36.03-.54.08-1.9.63-3.44.95-4.61.98-3.41.07-5.75.89-8.9,1.15-.63.05-2.02.3-4.17.73-9.31,1.9-18.59,3.86-27.86,5.88-4.91,1.07-15.74,4.27-32.5,9.58-9.34,2.96-20.67,7.38-33.99,13.27-4.16,1.83-8.34,3.81-12.53,5.92-8.24,4.16-12.36,6.25-12.37,6.27-.04.15-1.74.99-5.09,2.52-3.54,1.61-5.89,3.69-9.54,5.47-3.33,1.63-9.72,5.66-19.17,12.1-.65.44-1.09.74-1.32.89-10.11,6.39-19.94,13.55-29.5,21.47" vector-effect="non-scaling-stroke"/>
      <path class="st20" d="M142.18,91.17c-1.21-3.44-3.2-9.39-7.46-8.05-1.84.58-3.16,2.85-3.81,4.55-2.19,5.71-4.52,11.95-6.99,18.7-.19.5-.56.91-1.05,1.12-.98.42-2.19.6-3.62.53-1.61-.08-6.12-.13-13.52-.16-2.5-.01-5.37.29-6.73,2.55-1.38,2.29-.92,4.45,1.38,6.48,1.09.95,3.5,2.88,7.23,5.77" vector-effect="non-scaling-stroke"/>
      <path class="st6" d="M107.61,122.66l-11.28,11.55c-.27.28-.51.59-.7.92-2.11,3.67-5.47,5.59-7.65,9.2-1.52,2.51-4.01,3.99-5.21,6.5-.15.31-.35.61-.58.88-2.62,3.04-5.1,6.14-7.44,9.29-10.04,13.52-18.33,26.12-24.86,37.81-2.11,3.78-4.25,7.56-6.4,11.35-3.41,6.01-6.03,12.01-9.2,17.86-1.62,3-1.73,5.58-3.55,8.69-1.12,1.91-2.03,3.86-2.72,5.87-1.27,3.67-3.57,8.25-4.61,11.34-6.32,18.96-9.89,30.11-10.71,33.45-2.11,8.64-3.44,14.04-4,16.19-3.5,13.52-4.41,25.65-6.64,39.14-.97,5.87-1.24,12.27-2.06,18.42" vector-effect="non-scaling-stroke"/>
      <path class="st6" d="M795,413.17c-.51,2.85-1,7.46-1.49,13.82-.03.39-.25,1.35-.67,2.87-.22.81-.38,1.63-.47,2.46-1.44,13.01-2.65,21.66-3.62,25.94-1.35,5.92-2.89,12.69-4.64,20.3-1.28,5.61-3.41,10.86-4.51,15.95-.49,2.26-1.61,5.78-3.38,10.56-1.68,4.56-3.12,11.3-5.67,16.52-.29.59-.88,2.21-1.77,4.86-.75,2.23-2,3.95-3.74,5.17" vector-effect="non-scaling-stroke"/>
      <path class="st11" d="M765.04,531.62c-.05-78.44-.07-156.81-.06-235.12,0-5.52-.88-10.4-2.65-14.63-1.32-3.15-3.67-6.15-7.04-9.01-2.47-2.09-5.51-3.58-9.13-4.49-3.66-.91-7.05-1.37-10.16-1.37h-194.87c-8.12.01-12.17-.15-18.32,1.74-.5.15-1.03-.09-1.25-.57-4.09-8.87-9.43-17.23-16.01-25.08" vector-effect="non-scaling-stroke"/>
      <path class="st0" d="M505.55,243.09c-10.45-12.95-23.03-23.29-37.72-31.01" vector-effect="non-scaling-stroke"/>
      <path class="st11" d="M467.83,212.08c-9.69-5.59-19.75-10.01-30.18-13.26-6.59-2.05-13.4-3.41-20.42-4.06-1.05-.1-2.05-.52-2.86-1.2-12.91-10.89-26.56-12.18-40.95-3.87-.96.55-2.22,1.46-3.77,2.71-1.77,1.42-3.12,2.17-4.05,2.25-26.24,2.26-52.6,14.31-72.94,30.95-17.15,14.05-29.45,31.49-36.88,52.34-4.77,13.4-7.9,27.36-9.37,41.89-.86,8.55-2.24,19.14-.9,27.64.69,4.41,1.14,7.9,1.35,10.47,1.43,17.81,2.2,27.66,2.32,29.55.03.56-.36,1.05-.91,1.14-3.25.51-6.08,1.38-8.49,2.61-8.99,4.55-14.39,11.66-16.21,21.33-1.23,6.58-1.12,13.87.35,21.88" vector-effect="non-scaling-stroke"/>
      <path class="st0" d="M223.92,434.45c1.09,7.77,3.77,15.14,8.04,22.09,5.23,8.49,12.89,15.8,22.01,19.69,1.61.69,2.97,1.3,4.07,1.85.8.4,1.4,1.12,1.65,1.98,7.96,27.64,21.85,53.35,41.93,74.12,2.14,2.21,2.09,3.06,2.54,6.35,1.11,8.11.94,15.82-.52,23.15-.77,3.85-4.13,5.87-7.59,7.13-19.85,7.25-42.54,16.38-68.09,27.39-17.46,7.54-35.22,15.72-50.65,26.87-11.53,8.33-20.09,18.24-26.94,29.99-.28.47-.17,1.06.25,1.4l11.43,9.22c.22.18.55.1.67-.15,10.21-20.83,28.53-32.62,48.33-43.09,4.17-2.21,10.23-4.98,18.2-8.33,23.25-9.77,42.8-17.88,58.65-24.33.47-.19,1,.02,1.21.47,15.31,32.38,46.14,53.41,81.25,58.36,30.72,4.34,62.6-1.34,88.15-19.67" vector-effect="non-scaling-stroke"/>
      <path class="st8" d="M458.51,648.94c.67.61.67,1.17-.01,1.67-6.35,4.68-13.81,8.7-22.38,12.07-11.16,4.39-22.87,7.14-35.12,8.23-1.46.13-6.51.21-15.16.23-4.81.01-9.35-.32-13.62-.99-7.5-1.19-11.99-1.98-13.47-2.39-14.22-3.92-26.87-9.78-37.95-17.59-4.38-3.09-9.31-7.33-14.78-12.72-1.76-1.74-3.45-3.68-5.07-5.82-2.73-3.63-4.27-5.69-4.62-6.19-2.77-4.04-5.25-8.35-7.46-12.92-.43-.9-1.49-1.31-2.41-.93-10.92,4.41-23.66,9.73-38.21,15.97-18.73,8.02-29.34,12.67-31.83,13.95-11.73,6-21.6,12.02-29.61,18.07-6.21,4.67-12.23,10.85-18.07,18.53-1.42,1.87-2.77,5.13-3.46,7.5-.12.43.03.88.39,1.15,19.83,14.61,39.97,27.47,61.46,38.23,9.45,4.73,15.17,7.55,17.16,8.44,5.73,2.57,13.67,5.84,23.82,9.79,20.2,7.86,42.82,13.86,62.22,17.38,22.01,3.99,43.26,6.37,63.77,7.14,10.47.39,20.52-.71,34.55-1.77,8.39-.63,16.92-1.7,25.57-3.2,16.91-2.92,34.12-6.9,51.63-11.93.12-.04,6-1.97,17.63-5.8,6.15-2.02,11.94-4.2,17.36-6.54,14.51-6.26,25.14-11.1,31.91-14.52,16.32-8.25,31.93-17.83,46.83-28.74.91-.66,1.35-1.8,1.12-2.9-.7-3.44-2.24-5.8-4.08-9.11-3.81-6.83-8.44-12.82-13.89-17.95-2.72-2.55-4.91-4-8.18-6.62-2.53-2.03-4.68-3.59-6.45-4.7-11.72-7.33-21.56-12.65-29.53-15.96-20.36-8.45-42.32-17.33-65.89-26.63-.77-.3-1.64.04-2,.78l-3.75,7.65c-.04.08-.1.14-.18.18-.45.21-.82-.03-1.11-.71" vector-effect="non-scaling-stroke"/>
      <path class="st0" d="M485.64,619.27l4.62-9.2c.24-.49.82-.71,1.33-.51,25.64,10.11,48.18,19.27,67.63,27.48,10.87,4.59,21.79,10.57,32.76,17.95,14.49,9.74,24.78,22.44,30.89,38.09.24.62,1.01.84,1.54.43l10.86-8.37c.5-.39.67-1.06.42-1.64-7.29-16.69-18.48-30.16-33.57-40.39-8.99-6.09-18.07-11.25-27.26-15.47-27.56-12.67-56.35-24.39-86.36-35.16-3.57-1.28-8.92-2.91-10.76-5.96-1.66-2.76-1.8-5.57-2.24-9.76-.63-6.04-.5-11.83.41-17.38.17-1.05.67-2.02,1.42-2.77,10.49-10.47,19.68-22.41,27.57-35.83" vector-effect="non-scaling-stroke"/>
      <path class="st11" d="M504.9,520.78c.11,9.18.13,22.67.05,40.47-.03,4.6.82,9.51,2.55,14.74.12.37.29.72.51,1.05,2.04,3.11,3.18,4.79,3.41,5.04,3.89,4.24,8.51,6.88,13.84,7.93,3.46.68,6.04,1.02,7.74,1.02,66.54-.06,133.86-.05,201.95.02" vector-effect="non-scaling-stroke"/>
      <path class="st6" d="M734.95,591.05c-8.11,12.97-14.41,22.04-18.92,27.22-2.9,3.33-4.6,5.43-5.11,6.28-.23.37-.5.7-.81,1-.82.79-2.03,2.02-2.81,3.25-1.31,2.09-2.91,3.93-4.81,5.54-.51.43-.96.93-1.33,1.48-1.39,2.07-2.35,3.39-2.89,3.95-2.58,2.69-10.77,10.93-24.58,24.71-4.68,4.67-10.05,8.16-14.18,12.84-.27.31-.6.56-.98.72-.29.13-2.56,1.94-6.8,5.42-6,4.94-13.2,10.46-19.8,14.79-4.71,3.09-8.4,6.2-13.91,9.54-4.68,2.84-9.51,5.84-14.48,9-.59.38-2,1.08-4.21,2.09-.43.19-.83.43-1.2.72-3.56,2.79-7.65,4.26-12.46,6.72-13.21,6.75-22.53,11.2-27.96,13.35-6.94,2.74-10.62,4.22-11.04,4.43-1.96.99-4.34,1.89-7.15,2.68-1.37.38-3.73,1.33-7.1,2.84-5.15,2.31-12.22,3.32-17.99,5.63-1.01.4-3.91,1.23-8.72,2.5-3.23.85-7.3,1.9-12.21,3.14-4.68,1.18-8.78,2.04-12.31,2.59-6.69,1.04-13.01,2.85-19.31,3.81-4.33.67-8.29,1.15-11.87,1.45-4.87.42-7.32.63-7.35.64-4.75,1.02-9.7.51-14.82,2.04-.27.08-.54.13-.81.14l-6.78.44" vector-effect="non-scaling-stroke"/>
      <path class="st6" d="M373.62,772c-2.44-.24-4.95-.18-7.24-.75-3.3-.83-6.68-1.27-10.13-1.3-1.57-.01-3.39-.64-5-.72-5.67-.31-12.02-.99-19.03-2.05-2.81-.43-6.29-1.12-10.44-2.09-5.57-1.3-11.74-1.92-17.53-3.43-4.14-1.07-6.46-1.68-6.95-1.82-5.75-1.63-9.22-2.55-10.4-2.76-5.36-.98-10.19-3.28-16.33-4.79-4.65-1.14-8.9-2.68-12.76-4.61-1.9-.96-5.35-1.53-7.77-2.64-4.01-1.83-7.61-3.29-10.79-4.38-3.52-1.21-5.58-2.67-8.94-3.88-1.31-.47-3.52-1.5-6.63-3.07-6.07-3.07-14.06-7.07-23.97-11.98-.39-.19-.75-.42-1.1-.69-2.76-2.08-6.08-3.44-9.52-5.53-19.22-11.68-35.96-23.47-50.21-35.38-2.73-2.28-4.46-3.74-5.17-4.39-4.89-4.43-7.73-6.4-12.6-11.28-10.56-10.58-18.81-18.86-24.74-24.85-.25-.25-.47-.54-.64-.85-1.86-3.22-4.44-4.87-6.57-7.67-2.49-3.27-6.1-7.81-10.84-13.62-2.46-3.01-7.19-9.5-14.19-19.47-3.54-5.05-5.95-9.48-9.47-14.83-3.99-6.05-7.1-12.55-11.11-19.5-3.24-5.61-5.48-11.47-8.34-16.26-1.85-3.1-2.45-6.29-4.24-9.94-.78-1.59-1.87-4.08-3.27-7.48-1.84-4.45-2.84-6.83-2.99-7.14-.87-1.71-1.75-4.13-2.62-7.26-.3-1.09-1.7-5.24-4.19-12.43-2.98-8.6-6.39-21.14-10.22-37.63-2.65-11.42-3.59-22.54-5.75-35.14-.85-4.95-.94-11.08-1.93-16.64" vector-effect="non-scaling-stroke"/>
      <path class="st0" d="M107.61,122.66l7.64,6.08c.69.55.98,1.47.73,2.32-3.06,10.27-4.88,16.42-5.46,18.46-.63,2.26-.69,3.96-.16,5.09,1.6,3.44,5.31,3.28,8.21,1.31,5.8-3.93,11.3-7.75,16.51-11.46.54-.39,1.27-.4,1.82-.02,4.17,2.87,9.82,6.78,16.97,11.74,3.65,2.54,9.26.36,7.7-4.71-2.47-8.02-4.61-14.76-6.43-20.23-.32-.96,0-2.01.83-2.61,6.11-4.45,11.12-8.08,15.02-10.89,1.02-.73,1.95-1.87,2.79-3.42.19-.36.28-.76.26-1.17-.17-3.29-2.05-5.01-5.64-5.15-2.57-.1-8.85-.08-18.85.06-.76.01-1.44-.46-1.7-1.17l-5.67-15.72" vector-effect="non-scaling-stroke"/>
      <path class="st0" d="M332.45,130.08c-.21-.43-.07-.96.32-1.24,4.45-3.18,10.13-7.36,17.06-12.53,3.51-2.63,2.9-8.41-2.03-8.64-3.34-.16-10.21-.17-20.61-.03-.55.01-1.04-.33-1.24-.84-4.72-12.23-7.4-19.1-8.04-20.63-1.02-2.39-2.64-3.59-4.86-3.6-.34,0-.68.09-.98.25-1.59.89-2.69,2.2-3.3,3.95-2.57,7.33-4.84,13.73-6.81,19.18-.24.67-.88,1.12-1.6,1.12-6.71-.04-12.24-.05-16.61-.02-4,.03-8.62,1.35-7.75,5.95.22,1.18,1.45,2.72,3.7,4.63,4.99,4.22,9.4,7.84,13.24,10.85.55.44.79,1.16.6,1.84-2.37,8.63-4.17,15.35-5.38,20.14-.47,1.86-.04,3.44,1.31,4.74,2.24,2.17,5.3,1.65,7.77.02,1.3-.87,6.6-4.72,15.89-11.55.57-.42,1.34-.42,1.91,0,7.44,5.45,12.98,9.41,16.63,11.88,4.37,2.96,9.44.31,7.7-4.93-4.45-13.35-6.75-20.19-6.92-20.54" vector-effect="non-scaling-stroke"/>
      <path class="st0" d="M383.28,130.79c-2.67,8.01-4.68,14.83-6.04,20.46-.49,2.01.1,3.74,1.76,5.19.27.23.59.39.94.48,1.87.47,3.73.08,5.57-1.16,8.22-5.54,13.31-9.03,15.28-10.47,1.01-.73,1.91-1.13,2.72-1.22.38-.04.77.06,1.09.28,5.99,4.1,10.63,7.35,13.93,9.76,2.41,1.77,4.25,2.73,5.52,2.88,4.36.53,5.8-2.86,4.73-6.43-2.31-7.75-4.42-14.5-6.35-20.25-.15-.44.01-.93.39-1.21,9.66-7.11,15.01-11.08,16.06-11.93,4.08-3.31,2.48-9.3-3.39-9.25-5.35.06-11.83.08-19.46.05-.38,0-.72-.25-.84-.61-1.74-5.2-3.96-11.58-6.67-19.14-.89-2.48-1.93-4.93-4.53-5.32-2.97-.44-4.39,1.92-5.39,4.48-1.71,4.32-4.12,10.58-7.23,18.79-.31.82-1.09,1.37-1.97,1.39-9.49.16-15.21.26-17.16.31-2.16.04-4.82.24-5.9,2.28-1.27,2.39-.77,4.59,1.5,6.6,2.65,2.35,7.61,6.4,14.87,12.13.58.45.8,1.21.57,1.91" vector-effect="non-scaling-stroke"/>
      <path class="st0" d="M239.25,107.86c-.49-.02-.92-.34-1.08-.8-2.29-6.82-4.65-13.61-7.09-20.36-1.63-4.52-6.59-5.41-8.63-.68-2.41,5.59-5.01,12.25-7.82,19.99-.29.8-1.05,1.34-1.9,1.35-8.09.1-14.82.29-20.2.56-5.84.3-4.32,6.35-1.22,9.03,4.58,3.97,9.34,7.82,14.29,11.57.64.49.91,1.32.67,2.09-1.82,5.91-3.68,12.18-5.59,18.83-1.76,6.12,2.34,10.03,8.17,6.12,5.93-3.97,11.17-7.56,15.72-10.76,1.22-.86,2.42-.88,3.61-.05,8.82,6.18,16.95,12.87,20.15,12.2,4.15-.87,3.82-4.72,2.72-8.08-1.26-3.86-3.31-10.09-6.14-18.7-.21-.64.03-1.34.59-1.73,4.97-3.43,9.72-6.85,14.24-10.26,1.48-1.12,3.46-2.3,3.97-3.99,1.38-4.55-2.54-6.46-6.46-6.33-6.45.22-12.45.22-18,0" vector-effect="non-scaling-stroke"/>
      <path class="st0" d="M214.3,395.69c-2.67-3.45-6.27-5.7-10.8-6.73-13.83-3.15-26.98-7.82-39.45-14.01-6.85-3.4-14.53-7.38-23.05-11.95-5.3-2.84-11.35-3.84-18.15-3.01-3.14.39-8.04,2.47-14.69,6.24-15.92,9.03-31.27,16.48-50.12,21.51-6.44,1.72-10.41,3.1-11.9,4.13-7.58,5.25-8.15,15.11-8.21,24.13-.05,8.1-.02,13.85.09,17.24.84,24.85,6.6,51.58,19.72,72.04,13.04,20.33,32.39,38.03,54.72,50.37,7.38,4.08,14.45,8.15,22.82,4.63,3.79-1.59,7.88-3.75,12.27-6.48,29.56-18.35,54.45-44.74,63.92-78.83,3.74-13.49,5.93-27.74,6.56-42.73.22-5.18.32-12.01.29-20.48-.01-6.13-.56-11.58-4.02-16.07" vector-effect="non-scaling-stroke"/>
      <path class="st12" d="M467.83,212.08c-5.01-1.8-9.92-3.72-14.73-5.76-7.78-3.29-12.66-5.25-14.64-5.87-7.05-2.23-14.08-3.69-21.08-4.39-1.54-.15-2.99-.8-4.12-1.86-3.97-3.71-8.83-6.23-14.57-7.56-.44-.1-.88-.15-1.33-.14l-11.96.22c-.7,0-1.39.13-2.06.34-3.74,1.2-7.03,2.86-9.87,4.97-2.61,1.94-4.67,3.28-6.18,4.01-.75.37-1.57.58-2.41.62-5.74.29-10.72,1.1-14.93,2.41-3.83,1.2-6.57,1.86-8.24,1.99-.65.05-1.27.27-1.8.65-.19.14-2.95,1.18-8.28,3.12-3.87,1.41-6.81,3.23-10,4.54-2.19.91-4.66,2.14-7.4,3.7-4.85,2.77-10.05,6.1-15.6,10.01-2.81,1.97-5.07,4.57-7.85,6.36-.13.09-.25.18-.36.29l-11.7,11.72c-.25.25-.47.52-.66.81-.61.91-2.51,3.43-5.7,7.56-3.01,3.91-6.45,9.56-10.32,16.97-5.29,10.12-7.82,19.53-10.61,32.04-2.3,10.33-3.86,18.5-4.35,28.56-.13,2.61-.35,7.06-.68,13.36-.16,3.13.41,6.7,1.7,10.7.23.71.38,1.45.44,2.19.28,3.12-.06,5.84.38,9.48.53,4.4.05,8.35.74,12.77.58,3.71.65,7.79.22,12.24-.08.81-.7,1.47-1.51,1.58-4.76.68-7.69,2.59-12.9,5.58-.55.32-1.06.71-1.52,1.15-6.65,6.45-9.97,14.24-9.94,23.38.03,7.13,0,12.01-.09,14.63" vector-effect="non-scaling-stroke"/>
      <path class="st12" d="M505.55,243.09c1,3.94,3.17,7.39,6.52,10.34.21.18.38.39.51.63l9.62,17.54c.18.33.33.66.46,1.01,2.73,7.67,5.01,15.82,6.82,24.43.47,2.23,1.26,6.8,2.39,13.7.08.45.27,2.77.56,6.96.21,2.93.94,5.64,2.2,8.13" vector-effect="non-scaling-stroke"/>
      <path class="st1" d="M534.63,325.83c.52,6.69.54,13.63.06,20.82-.13,2-.97,4.88-1.09,6.38-.97,11.9-1.81,21.89-2.54,29.97-.15,1.73-.23,3.21-.23,4.42,0,.32.22.6.52.67,2.72.64,4.64,1.16,5.75,1.56,15.63,5.68,21.02,18.29,20.68,34.08-.35,16.8-6.19,31.14-17.51,43.01-5.06,5.31-11.49,9.25-19.28,11.83" vector-effect="non-scaling-stroke"/>
      <path class="st12" d="M520.99,478.57c.03-.08-.12-.05-.43.09-.34.15-.6.44-.72.79-.64,1.87-1.15,4.01-1.54,6.42-.06.38-.15.75-.27,1.12-1.46,4.35-2.99,8.71-4.6,13.06-1.02,2.77-1.94,4.96-2.75,6.57-1.5,2.95-3.03,5.72-3.24,7.72-.05.42-.17.84-.37,1.26-.65,1.36-1.38,3.09-2.17,5.18" vector-effect="non-scaling-stroke"/>
      <path class="st19" d="M485.64,619.27c-6.83,11.86-15.87,21.75-27.13,29.67" vector-effect="non-scaling-stroke"/>
      <path class="st2" d="M260.83,334.19c-.03.25.1.4.38.44.15.03.33-.03.54-.16,13.33-8.07,27.22-15.09,41.65-21.05,54.71-22.59,116.11-24.19,171.06-1.83,15.31,6.23,29.87,13.58,43.66,22.05.33.2.75-.02.77-.4.71-12.06-1.79-24.77-4.84-37.16-6.01-24.36-18.79-45-38.53-59.85-16.01-12.03-34.49-20.43-55.43-25.2-2.97-.68-5.86-.85-10.58-1.44-.63-.08-1.22-.35-1.7-.77l-5.22-4.61c-.05-.05-.1-.09-.16-.12-7.44-4.57-14.76-4.68-21.96-.31-1.73,1.05-3.5,3.06-5.1,4.51-.82.74-1.85,1.2-2.94,1.32-21.22,2.35-40.95,9.24-59.2,20.65-19.34,12.1-34.1,29.28-41.69,51.05-5.9,16.93-8.61,34.67-10.71,52.88" vector-effect="non-scaling-stroke"/>
      <path class="st14" d="M273.67,346.32c5.12,5.83,14.79,6.03,21.51,3.07,4.96-2.19,10.68-4.69,17.16-7.5,50.38-21.81,108.75-21.48,158.61,1.17,10.22,4.64,25.28,14.34,35.69,3.31.49-.51.37-1.35-.24-1.71-8.99-5.32-17.48-9.88-25.47-13.69-49.3-23.45-100-27.06-152.1-10.84-19.42,6.04-37.72,14.24-54.91,24.6-.56.34-.68,1.1-.25,1.59" vector-effect="non-scaling-stroke"/>
      <path class="st13" d="M275.8,370.34c-.95,17.23-1.9,34.36-2.83,51.4-.13,2.47-.41,4.15-.84,5.02-3.4,7.02-12.49,4.24-13.17-2.84-1.11-11.65-1.71-17.82-1.81-18.52-.35-2.43-1.69-3.52-4-3.29-4.43.45-8.17,2.05-11.21,4.82-3.77,3.42-4.36,9.32-4.47,14.56-.28,14.41,5,30.58,17.36,38.71,4.1,2.69,8.92,3.34,13.07,4.05.35.06.68.19.98.37,1.28.77,2.07,1.67,2.38,2.7,4.25,14.35,8.95,26.86,14.12,37.54,12.95,26.74,35.04,51.16,62.18,63.29,30.88,13.81,65.49,12.84,94.73-3.86,23.62-13.48,43-36.39,54.17-60.83,5.34-11.68,9.31-23.97,12.93-36.02.39-1.32,1.36-2.38,2.63-2.9,1.01-.41,2.31-.72,3.89-.92,6.05-.76,10.78-3.11,14.93-7.64,9.88-10.77,13.19-25.4,11.61-39.92-.99-9.19-8.24-14.21-17.04-13.83-1.78.08-2.73,1.11-2.86,3.1-.48,7.6-1,13.81-1.57,18.64-1.11,9.61-13.26,8.8-13.9-.53-1.43-20.89-2.79-38.44-4.06-52.63" vector-effect="non-scaling-stroke"/>
      <path class="st4" d="M503.02,370.81c.11-1.36-.07-2.68-.56-3.96-.11-.29-.41-.45-.7-.38-5.89,1.37-11.36,1.25-16.43-.35-6.04-1.9-10.89-3.79-14.56-5.68-25.05-12.88-52.23-19.18-81.54-18.89-20.99.21-40.64,3.56-58.97,10.05-9.08,3.21-17.19,7.19-28.17,12.02-8.28,3.64-16.78,4.48-25.51,2.51-.3-.07-.58.15-.6.46l-.18,3.75" vector-effect="non-scaling-stroke"/>
      <path class="st18" d="M503.02,370.81c-.58.73-.98,1.82-1.2,3.25-.05.28-.27.5-.55.52-7.11.6-13.64-.17-19.59-2.31-13.43-4.82-21.3-7.6-23.61-8.34-19.17-6.06-37.54-9.66-55.12-10.79-16.22-1.05-32.2-.23-47.93,2.45-12.91,2.2-27.16,6.21-42.73,12.04-2.25.84-4.38,1.69-6.4,2.54-9.31,3.94-18.12,5.76-27.94,3.2-.28-.07-.5-.3-.57-.58-.39-1.63-.92-2.45-1.58-2.45" vector-effect="non-scaling-stroke"/>
      <path class="st13" d="M319.41,583.87c-1.41,9.32-6.08,16.16-14.02,20.51-.34.19-.47.61-.29.96,7.6,14.76,17.87,26.99,32.62,35.34,13.08,7.41,28.02,11.58,44.83,12.53,13.51.76,26.38-.35,38.88-3.74,24.11-6.54,42.31-21.81,53.01-44.66.05-.09.01-.2-.07-.25-7.75-4.73-12.32-11.51-13.71-20.36" vector-effect="non-scaling-stroke"/>
      <path class="st4" d="M460.66,584.2l-.9-12.05c-.02-.26-.32-.4-.53-.25-22.04,16.02-50.09,23.89-76.94,21.61-22.5-1.91-43.44-10.31-61.79-23.32-.19-.14-.46-.01-.47.22l-.62,13.46" vector-effect="non-scaling-stroke"/>
      <path class="st18" d="M460.66,584.2c-7.47,5.61-14.78,10.3-21.91,14.05-8.09,4.25-17,7.49-26.71,9.72-31.53,7.22-65.04-3.68-91.02-21.49-.25-.17-.42-.45-.45-.75-.14-1.23-.53-1.85-1.16-1.86" vector-effect="non-scaling-stroke"/>
      <path class="st17" d="M390.58,263.98c6.72,0,10.26,0,10.61.03.2,0,.35.18.34.38-.15,3.67-.14,7.37.05,11.09.27,5.16,7.4,5.49,10.68,3.57,1.06-.61,1.71-1.74,1.72-2.97.12-14.11.14-27.02.07-38.74-.03-4.81-4.31-5.66-8.09-5.15-2.76.37-4.22,1.88-4.39,4.54-.24,3.88-.28,8.06-.12,12.53,0,.36-.26.66-.62.68-1.58.1-5,.14-10.24.14s-8.66-.05-10.24-.15c-.36-.02-.64-.32-.63-.68.17-4.47.13-8.65-.11-12.53-.16-2.66-1.62-4.17-4.38-4.54-3.78-.52-8.06.33-8.1,5.14-.08,11.72-.07,24.63.04,38.74,0,1.23.66,2.36,1.72,2.97,3.28,1.93,10.41,1.6,10.68-3.56.19-3.72.21-7.42.06-11.09-.01-.2.14-.37.34-.38.35-.02,3.89-.03,10.61-.02" vector-effect="non-scaling-stroke"/>
      <path class="st3" d="M765.04,531.62c-.03,10.39-.11,20.85-.25,31.38-.07,5.25-.87,9.57-2.38,12.96-1.56,3.51-3.91,6.55-7.05,9.14-2.49,2.05-5.72,3.59-9.67,4.64-3.83,1.01-7.41,1.45-10.74,1.31" vector-effect="non-scaling-stroke"/>
      <path class="st10" d="M520.99,478.57c-.01,28.47.01,56.44.04,83.93,0,5.5.78,8.47,4.98,11.24,1.32.87,4.42,1.3,9.31,1.29,65.15-.03,132.24-.03,201.27,0,5.32,0,8.25-.89,11.04-4.86.92-1.31,1.38-4.37,1.38-9.16-.03-99.03-.03-185.73,0-260.11,0-3.35.39-8.96-.56-11.09-2-4.53-5.08-6.79-9.23-6.79-62.08-.02-128.74-.03-199.97-.02-4.87,0-8.65.16-11.34.49-.26.03-.43.29-.36.54,3.98,13.47,6.34,27.4,7.08,41.8" vector-effect="non-scaling-stroke"/>
      <path class="st5" d="M659,318.05c0-3.37-2.74-6.1-6.11-6.09l-56.44.1c-3.37.01-6.1,2.74-6.09,6.11v1.78c.01,3.37,2.74,6.1,6.11,6.09l56.44-.1c3.37-.01,6.1-2.74,6.09-6.11v-1.78" vector-effect="non-scaling-stroke"/>
      <path class="st5" d="M684.96,352.17c0-5.09-4.14-9.21-9.23-9.19l-76.44.13c-5.08.01-9.2,4.14-9.19,9.23v1.44c.01,5.09,4.14,9.21,9.23,9.19l76.44-.13c5.08-.01,9.2-4.14,9.19-9.23v-1.44" vector-effect="non-scaling-stroke"/>
      <path class="st5" d="M684.96,389.22c0-5.1-4.13-9.23-9.23-9.23h-76.4c-5.1,0-9.23,4.13-9.23,9.23v1.44c0,5.1,4.13,9.23,9.23,9.23h76.4c5.1,0,9.23-4.13,9.23-9.23v-1.44" vector-effect="non-scaling-stroke"/>
      <path class="st16" d="M631.08,494.32c-6.06-5.21-11.9-10.73-17.52-16.56-2.93-3.03-5.13-4.82-6.6-5.37-5.76-2.13-10.75.94-13.19,6.41-2.59,5.8,1.73,10.39,5.53,14.19,15.35,15.35,23.51,23.51,24.48,24.48,1.83,1.84,3.75,3.41,5.76,4.72.28.18.6.27.93.28,2.04.03,3.22,0,3.54-.12,2.44-.89,4.63-2.39,6.58-4.5,11.7-12.68,26.32-28.91,43.86-48.68,2.35-2.65,3.77-4.64,4.26-5.99,1.37-3.76.75-9.36-2.94-11.74-1.99-1.29-3.38-2.21-4.17-2.78-.25-.18-.54-.29-.84-.34-1.64-.23-2.9-.1-3.78.41-3.27,1.88-6.33,4.49-9.18,7.83-3.99,4.67-7.83,8.91-11.54,12.7-1.22,1.26-2.38,3.24-3.61,4.39-2.1,1.97-4.08,4.05-5.95,6.22-4.88,5.69-8.7,9.53-13.28,14.33-.63.66-1.66.71-2.34.12" vector-effect="non-scaling-stroke"/>
      <path class="st13" d="M313.68,374.89c-4.36,3.04-7.41,8.16-3.04,12.71,3.83,3.99,8.83.86,12.49-1.55,4.95-3.25,11.61-4.3,17.38-3.77,5.55.51,12.52,3.14,15.83-2.13,2.77-4.41.64-9.3-4.43-10.5-12.48-2.96-27.42-2.3-38.23,5.24" vector-effect="non-scaling-stroke"/>
      <path class="st13" d="M466.79,374.79c-10.74-7.48-25.59-8.12-37.98-5.16-5.04,1.19-7.15,6.05-4.39,10.43,3.3,5.23,10.22,2.61,15.73,2.1,5.73-.53,12.35.5,17.27,3.72,3.64,2.39,8.61,5.5,12.41,1.53,4.33-4.53,1.3-9.61-3.04-12.62" vector-effect="non-scaling-stroke"/>
      <path class="st13" d="M335.88,436.59c6.74-.02,12.18-7.76,12.15-17.28-.03-9.52-5.53-17.22-12.27-17.2-6.74.02-12.18,7.76-12.15,17.28.03,9.52,5.53,17.22,12.27,17.2" vector-effect="non-scaling-stroke"/>
      <path class="st13" d="M444.23,436.5c6.75,0,12.22-7.71,12.22-17.22s-5.47-17.22-12.22-17.22-12.22,7.71-12.22,17.22,5.47,17.22,12.22,17.22" vector-effect="non-scaling-stroke"/>
      <path class="st13" d="M372.77,473.45c-2.11,4.69.34,9.01,5.26,10.3,15.63,4.11,40.06,2.47,40.33-19.23.11-8.57-1.06-15.84-3.51-21.82-.81-1.99-1.76-3.46-2.84-4.41-5.92-5.18-14.48,1.24-10.25,8.14,1.87,3.05,2.95,6.88,3.26,11.49.43,6.67,1.05,13.19-7.64,14.46-4.83.71-8.6.64-11.3-.21-4.23-1.34-10.79-4.3-13.31,1.28" vector-effect="non-scaling-stroke"/>
      <path class="st13" d="M391.13,525c16.95.02,33.45-5.42,46.45-15.36,6.22-4.75,1.03-14.2-6.31-12.43-1.47.35-3.32,1.47-5.55,3.34-10.28,8.62-21.6,10.91-34.58,10.89-12.98-.01-24.3-2.31-34.56-10.95-2.23-1.88-4.08-3-5.54-3.35-7.34-1.79-12.55,7.65-6.34,12.42,12.99,9.95,29.48,15.42,46.43,15.44" vector-effect="non-scaling-stroke"/>
      <path class="st0" d="M66.37,487.29c4.88,10.47,11.4,19.83,19.56,28.07" vector-effect="non-scaling-stroke"/>
      <path class="st7" d="M85.93,515.36c11.49,12.63,25.16,22.69,41.01,30.16,1.34.63,2.52.7,3.55.21,10.56-5.14,20.73-12.06,30.52-20.75,19.19-17.05,31.68-37.96,37.47-62.73,4.24-18.15,5.74-36.32,4.51-54.53-.15-2.19-1.3-3.53-3.45-4.03-16.36-3.79-31.83-9.48-46.4-17.09-8.74-4.57-15.38-8.08-19.93-10.55-4.69-2.55-7.99-2.29-12.91.25-1.95,1.01-7.29,3.92-16.02,8.71-14.6,8.02-29.15,14.21-46.2,18.3-4.28,1.02-4.32,3.05-4.6,6.93-1.15,15.92-.24,31.51,2.74,46.77,1.99,10.21,5.38,20.31,10.15,30.28" vector-effect="non-scaling-stroke"/>
      <path class="st15" d="M85.93,515.36c-1.95-3.51-4.34-6.73-7.17-9.67-.05-.05-.1-.11-.15-.18l-5.57-7.96c-.05-.06-.09-.12-.12-.19-1.79-3.61-3.98-6.96-6.55-10.07" vector-effect="non-scaling-stroke"/>
    </g>
  </g>
  <path class="st21" d="M795,361.16v52.01c-.51,2.85-1,7.46-1.49,13.82-.03.39-.25,1.35-.67,2.87-.22.81-.38,1.63-.47,2.46-1.44,13.01-2.65,21.66-3.62,25.94-1.35,5.92-2.89,12.69-4.64,20.3-1.28,5.61-3.41,10.86-4.51,15.95-.49,2.26-1.61,5.78-3.38,10.56-1.68,4.56-3.12,11.3-5.67,16.52-.29.59-.88,2.21-1.77,4.86-.75,2.23-2,3.95-3.74,5.17-.05-78.44-.07-156.81-.06-235.12,0-5.52-.88-10.4-2.65-14.63-1.32-3.15-3.67-6.15-7.04-9.01-2.47-2.09-5.51-3.58-9.13-4.49-3.66-.91-7.05-1.37-10.16-1.37h-194.87c-8.12.01-12.17-.15-18.32,1.74-.5.15-1.03-.09-1.25-.57-4.09-8.87-9.43-17.23-16.01-25.08-10.45-12.95-23.03-23.29-37.72-31.01-9.69-5.59-19.75-10.01-30.18-13.26-6.59-2.05-13.4-3.41-20.42-4.06-1.05-.1-2.05-.52-2.86-1.2-12.91-10.89-26.56-12.18-40.95-3.87-.96.55-2.22,1.46-3.77,2.71-1.77,1.42-3.12,2.17-4.05,2.25-26.24,2.26-52.6,14.31-72.94,30.95-17.15,14.05-29.45,31.49-36.88,52.34-4.77,13.4-7.9,27.36-9.37,41.89-.86,8.55-2.24,19.14-.9,27.64.69,4.41,1.14,7.9,1.35,10.47,1.43,17.81,2.2,27.66,2.32,29.55.03.56-.36,1.05-.91,1.14-3.25.51-6.08,1.38-8.49,2.61-8.99,4.55-14.39,11.66-16.21,21.33-1.23,6.58-1.12,13.87.35,21.88,1.09,7.77,3.77,15.14,8.04,22.09,5.23,8.49,12.89,15.8,22.01,19.69,1.61.69,2.97,1.3,4.07,1.85.8.4,1.4,1.12,1.65,1.98,7.96,27.64,21.85,53.35,41.93,74.12,2.14,2.21,2.09,3.06,2.54,6.35,1.11,8.11.94,15.82-.52,23.15-.77,3.85-4.13,5.87-7.59,7.13-19.85,7.25-42.54,16.38-68.09,27.39-17.46,7.54-35.22,15.72-50.65,26.87-11.53,8.33-20.09,18.24-26.94,29.99-.28.47-.17,1.06.25,1.4l11.43,9.22c.22.18.55.1.67-.15,10.21-20.83,28.53-32.62,48.33-43.09,4.17-2.21,10.23-4.98,18.2-8.33,23.25-9.77,42.8-17.88,58.65-24.33.47-.19,1,.02,1.21.47,15.31,32.38,46.14,53.41,81.25,58.36,30.72,4.34,62.6-1.34,88.15-19.67.67.61.67,1.17-.01,1.67-6.35,4.68-13.81,8.7-22.38,12.07-11.16,4.39-22.87,7.14-35.12,8.23-1.46.13-6.51.21-15.16.23-4.81.01-9.35-.32-13.62-.99-7.5-1.19-11.99-1.98-13.47-2.39-14.22-3.92-26.87-9.78-37.95-17.59-4.38-3.09-9.31-7.33-14.78-12.72-1.76-1.74-3.45-3.68-5.07-5.82-2.73-3.63-4.27-5.69-4.62-6.19-2.77-4.04-5.25-8.35-7.46-12.92-.43-.9-1.49-1.31-2.41-.93-10.92,4.41-23.66,9.73-38.21,15.97-18.73,8.02-29.34,12.67-31.83,13.95-11.73,6-21.6,12.02-29.61,18.07-6.21,4.67-12.23,10.85-18.07,18.53-1.42,1.87-2.77,5.13-3.46,7.5-.12.43.03.88.39,1.15,19.83,14.61,39.97,27.47,61.46,38.23,9.45,4.73,15.17,7.55,17.16,8.44,5.73,2.57,13.67,5.84,23.82,9.79,20.2,7.86,42.82,13.86,62.22,17.38,22.01,3.99,43.26,6.37,63.77,7.14,10.47.39,20.52-.71,34.55-1.77,8.39-.63,16.92-1.7,25.57-3.2,16.91-2.92,34.12-6.9,51.63-11.93.12-.04,6-1.97,17.63-5.8,6.15-2.02,11.94-4.2,17.36-6.54,14.51-6.26,25.14-11.1,31.91-14.52,16.32-8.25,31.93-17.83,46.83-28.74.91-.66,1.35-1.8,1.12-2.9-.7-3.44-2.24-5.8-4.08-9.11-3.81-6.83-8.44-12.82-13.89-17.95-2.72-2.55-4.91-4-8.18-6.62-2.53-2.03-4.68-3.59-6.45-4.7-11.72-7.33-21.56-12.65-29.53-15.96-20.36-8.45-42.32-17.33-65.89-26.63-.77-.3-1.64.04-2,.78l-3.75,7.65c-.04.08-.1.14-.18.18-.45.21-.82-.03-1.11-.71l4.62-9.2c.24-.49.82-.71,1.33-.51,25.64,10.11,48.18,19.27,67.63,27.48,10.87,4.59,21.79,10.57,32.76,17.95,14.49,9.74,24.78,22.44,30.89,38.09.24.62,1.01.84,1.54.43l10.86-8.37c.5-.39.67-1.06.42-1.64-7.29-16.69-18.48-30.16-33.57-40.39-8.99-6.09-18.07-11.25-27.26-15.47-27.56-12.67-56.35-24.39-86.36-35.16-3.57-1.28-8.92-2.91-10.76-5.96-1.66-2.76-1.8-5.57-2.24-9.76-.63-6.04-.5-11.83.41-17.38.17-1.05.67-2.02,1.42-2.77,10.49-10.47,19.68-22.41,27.57-35.83.11,9.18.13,22.67.05,40.47-.03,4.6.82,9.51,2.55,14.74.12.37.29.72.51,1.05,2.04,3.11,3.18,4.79,3.41,5.04,3.89,4.24,8.51,6.88,13.84,7.93,3.46.68,6.04,1.02,7.74,1.02,66.54-.06,133.86-.05,201.95.02-8.11,12.97-14.41,22.04-18.92,27.22-2.9,3.33-4.6,5.43-5.11,6.28-.23.37-.5.7-.81,1-.82.79-2.03,2.02-2.81,3.25-1.31,2.09-2.91,3.93-4.81,5.54-.51.43-.96.93-1.33,1.48-1.39,2.07-2.35,3.39-2.89,3.95-2.58,2.69-10.77,10.93-24.58,24.71-4.68,4.67-10.05,8.16-14.18,12.84-.27.31-.6.56-.98.72-.29.13-2.56,1.94-6.8,5.42-6,4.94-13.2,10.46-19.8,14.79-4.71,3.09-8.4,6.2-13.91,9.54-4.68,2.84-9.51,5.84-14.48,9-.59.38-2,1.08-4.21,2.09-.43.19-.83.43-1.2.72-3.56,2.79-7.65,4.26-12.46,6.72-13.21,6.75-22.53,11.2-27.96,13.35-6.94,2.74-10.62,4.22-11.04,4.43-1.96.99-4.34,1.89-7.15,2.68-1.37.38-3.73,1.33-7.1,2.84-5.15,2.31-12.22,3.32-17.99,5.63-1.01.4-3.91,1.23-8.72,2.5-3.23.85-7.3,1.9-12.21,3.14-4.68,1.18-8.78,2.04-12.31,2.59-6.69,1.04-13.01,2.85-19.31,3.81-4.33.67-8.29,1.15-11.87,1.45-4.87.42-7.32.63-7.35.64-4.75,1.02-9.7.51-14.82,2.04-.27.08-.54.13-.81.14l-6.78.44h-46.63c-2.44-.24-4.95-.18-7.24-.75-3.3-.83-6.68-1.27-10.13-1.3-1.57-.01-3.39-.64-5-.72-5.67-.31-12.02-.99-19.03-2.05-2.81-.43-6.29-1.12-10.44-2.09-5.57-1.3-11.74-1.92-17.53-3.43-4.14-1.07-6.46-1.68-6.95-1.82-5.75-1.63-9.22-2.55-10.4-2.76-5.36-.98-10.19-3.28-16.33-4.79-4.65-1.14-8.9-2.68-12.76-4.61-1.9-.96-5.35-1.53-7.77-2.64-4.01-1.83-7.61-3.29-10.79-4.38-3.52-1.21-5.58-2.67-8.94-3.88-1.31-.47-3.52-1.5-6.63-3.07-6.07-3.07-14.06-7.07-23.97-11.98-.39-.19-.75-.42-1.1-.69-2.76-2.08-6.08-3.44-9.52-5.53-19.22-11.68-35.96-23.47-50.21-35.38-2.73-2.28-4.46-3.74-5.17-4.39-4.89-4.43-7.73-6.4-12.6-11.28-10.56-10.58-18.81-18.86-24.74-24.85-.25-.25-.47-.54-.64-.85-1.86-3.22-4.44-4.87-6.57-7.67-2.49-3.27-6.1-7.81-10.84-13.62-2.46-3.01-7.19-9.5-14.19-19.47-3.54-5.05-5.95-9.48-9.47-14.83-3.99-6.05-7.1-12.55-11.11-19.5-3.24-5.61-5.48-11.47-8.34-16.26-1.85-3.1-2.45-6.29-4.24-9.94-.78-1.59-1.87-4.08-3.27-7.48-1.84-4.45-2.84-6.83-2.99-7.14-.87-1.71-1.75-4.13-2.62-7.26-.3-1.09-1.7-5.24-4.19-12.43-2.98-8.6-6.39-21.14-10.22-37.63-2.65-11.42-3.59-22.54-5.75-35.14-.85-4.95-.94-11.08-1.93-16.64v-52.63c.82-6.15,1.09-12.55,2.06-18.42,2.23-13.49,3.14-25.62,6.64-39.14.56-2.15,1.89-7.55,4-16.19.82-3.34,4.39-14.49,10.71-33.45,1.04-3.09,3.34-7.67,4.61-11.34.69-2.01,1.6-3.96,2.72-5.87,1.82-3.11,1.93-5.69,3.55-8.69,3.17-5.85,5.79-11.85,9.2-17.86,2.15-3.79,4.29-7.57,6.4-11.35,6.53-11.69,14.82-24.29,24.86-37.81,2.34-3.15,4.82-6.25,7.44-9.29.23-.27.43-.57.58-.88,1.2-2.51,3.69-3.99,5.21-6.5,2.18-3.61,5.54-5.53,7.65-9.2.19-.33.43-.64.7-.92l11.28-11.55,7.64,6.08c.69.55.98,1.47.73,2.32-3.06,10.27-4.88,16.42-5.46,18.46-.63,2.26-.69,3.96-.16,5.09,1.6,3.44,5.31,3.28,8.21,1.31,5.8-3.93,11.3-7.75,16.51-11.46.54-.39,1.27-.4,1.82-.02,4.17,2.87,9.82,6.78,16.97,11.74,3.65,2.54,9.26.36,7.7-4.71-2.47-8.02-4.61-14.76-6.43-20.23-.32-.96,0-2.01.83-2.61,6.11-4.45,11.12-8.08,15.02-10.89,1.02-.73,1.95-1.87,2.79-3.42.19-.36.28-.76.26-1.17-.17-3.29-2.05-5.01-5.64-5.15-2.57-.1-8.85-.08-18.85.06-.76.01-1.44-.46-1.7-1.17l-5.67-15.72c9.56-7.92,19.39-15.08,29.5-21.47.23-.15.67-.45,1.32-.89,9.45-6.44,15.84-10.47,19.17-12.1,3.65-1.78,6-3.86,9.54-5.47,3.35-1.53,5.05-2.37,5.09-2.52,0-.02,4.13-2.11,12.37-6.27,4.19-2.11,8.37-4.09,12.53-5.92,13.32-5.89,24.65-10.31,33.99-13.27,16.76-5.31,27.59-8.51,32.5-9.58,9.27-2.02,18.55-3.98,27.86-5.88,2.15-.43,3.54-.68,4.17-.73,3.15-.26,5.49-1.08,8.9-1.15,1.17-.03,2.71-.35,4.61-.98.18-.05.36-.08.54-.08h6.05c.63,0,1.25-.1,1.84-.31l1.33-.46c.73-.25,1.49-.38,2.26-.4l7.34-.22c.34,0,.66-.1.96-.26,1.47-.8,3.96-1.2,7.45-1.2,11.41,0,29.81,0,55.19.02.77,0,1.99.4,3.66,1.21.26.13.54.2.83.21l8.82.26c.15,0,.29.04.43.09l1.99.74c.58.21,1.18.32,1.79.33,3.69.02,5.55-.11,8.33.6,1.63.41,3.35.58,5.16.49.45-.02.9,0,1.34.09,18.99,3.58,31.52,6.11,37.58,7.6,6.5,1.59,17.58,4.82,33.25,9.67,4.36,1.35,8.19,3.42,12.76,4.8,4.13,1.25,8.88,3.67,12.98,5.27,5.79,2.27,11.67,4.9,17.64,7.9,9.49,4.77,16.55,8.3,21.18,10.58.71.35,2.14,1.26,4.3,2.73.47.32.96.59,1.48.81,3.84,1.62,6.78,3.96,10.41,6.07,2.91,1.69,6.01,3.66,9.31,5.91,5.23,3.56,7.86,5.35,7.89,5.36,8.19,5.43,14.64,10.13,19.36,14.09,2.58,2.17,4.25,3.44,5,3.83.42.22.8.52,1.12.87,1.49,1.68,3.26,3.09,5.29,4.24.64.36,1.21.83,1.71,1.37l3.3,3.6c.17.19.37.35.58.5,4.13,2.81,7.82,6.12,11.07,9.91.24.27.51.52.81.73,1.82,1.26,3.19,3.14,4.57,4.49,5.45,5.33,11.5,11.39,18.13,18.19.35.37.67.77.94,1.2,1.51,2.42,3.15,4.35,4.92,5.78.95.78,1.72,1.72,2.29,2.82,1.27,2.44,3.97,4.35,5.39,6.87.93,1.66,2.77,3.13,4.1,4.87,3.07,4.07,7.53,10.21,13.37,18.43,4.73,6.66,8.5,13.26,13.06,20.45,1.78,2.81,3,4.98,3.65,6.53,1.33,3.18,3.45,5.72,5.02,8.8,6.11,12,9.51,18.9,10.2,20.69,1.67,4.39,3.86,9.5,6.59,15.31.17.37.31.74.41,1.13.57,2.13,1.44,4.18,2.62,6.14.21.36.38.74.49,1.14,1.35,4.94,2.69,9.25,4.04,12.93,2.09,5.75,3.26,9.18,3.51,10.3.77,3.52,1.79,7.02,3.05,10.49,1.7,4.71,2.91,12.65,4.26,17.66.51,1.93.81,3.39.89,4.36.16,1.94,1.04,3.51,1.41,5.79,1.76,10.81,3,19.7,3.73,26.66.14,1.36.83,3.41.9,5.14.17,4.39.64,8.76,1.4,13.1ZM332.45,130.08c-.21-.43-.07-.96.32-1.24,4.45-3.18,10.13-7.36,17.06-12.53,3.51-2.63,2.9-8.41-2.03-8.64-3.34-.16-10.21-.17-20.61-.03-.55.01-1.04-.33-1.24-.84-4.72-12.23-7.4-19.1-8.04-20.63-1.02-2.39-2.64-3.59-4.86-3.6-.34,0-.68.09-.98.25-1.59.89-2.69,2.2-3.3,3.95-2.57,7.33-4.84,13.73-6.81,19.18-.24.67-.88,1.12-1.6,1.12-6.71-.04-12.24-.05-16.61-.02-4,.03-8.62,1.35-7.75,5.95.22,1.18,1.45,2.72,3.7,4.63,4.99,4.22,9.4,7.84,13.24,10.85.55.44.79,1.16.6,1.84-2.37,8.63-4.17,15.35-5.38,20.14-.47,1.86-.04,3.44,1.31,4.74,2.24,2.17,5.3,1.65,7.77.02,1.3-.87,6.6-4.72,15.89-11.55.57-.42,1.34-.42,1.91,0,7.44,5.45,12.98,9.41,16.63,11.88,4.37,2.96,9.44.31,7.7-4.93-4.45-13.35-6.75-20.19-6.92-20.54ZM383.28,130.79c-2.67,8.01-4.68,14.83-6.04,20.46-.49,2.01.1,3.74,1.76,5.19.27.23.59.39.94.48,1.87.47,3.73.08,5.57-1.16,8.22-5.54,13.31-9.03,15.28-10.47,1.01-.73,1.91-1.13,2.72-1.22.38-.04.77.06,1.09.28,5.99,4.1,10.63,7.35,13.93,9.76,2.41,1.77,4.25,2.73,5.52,2.88,4.36.53,5.8-2.86,4.73-6.43-2.31-7.75-4.42-14.5-6.35-20.25-.15-.44.01-.93.39-1.21,9.66-7.11,15.01-11.08,16.06-11.93,4.08-3.31,2.48-9.3-3.39-9.25-5.35.06-11.83.08-19.46.05-.38,0-.72-.25-.84-.61-1.74-5.2-3.96-11.58-6.67-19.14-.89-2.48-1.93-4.93-4.53-5.32-2.97-.44-4.39,1.92-5.39,4.48-1.71,4.32-4.12,10.58-7.23,18.79-.31.82-1.09,1.37-1.97,1.39-9.49.16-15.21.26-17.16.31-2.16.04-4.82.24-5.9,2.28-1.27,2.39-.77,4.59,1.5,6.6,2.65,2.35,7.61,6.4,14.87,12.13.58.45.8,1.21.57,1.91ZM239.25,107.86c-.49-.02-.92-.34-1.08-.8-2.29-6.82-4.65-13.61-7.09-20.36-1.63-4.52-6.59-5.41-8.63-.68-2.41,5.59-5.01,12.25-7.82,19.99-.29.8-1.05,1.34-1.9,1.35-8.09.1-14.82.29-20.2.56-5.84.3-4.32,6.35-1.22,9.03,4.58,3.97,9.34,7.82,14.29,11.57.64.49.91,1.32.67,2.09-1.82,5.91-3.68,12.18-5.59,18.83-1.76,6.12,2.34,10.03,8.17,6.12,5.93-3.97,11.17-7.56,15.72-10.76,1.22-.86,2.42-.88,3.61-.05,8.82,6.18,16.95,12.87,20.15,12.2,4.15-.87,3.82-4.72,2.72-8.08-1.26-3.86-3.31-10.09-6.14-18.7-.21-.64.03-1.34.59-1.73,4.97-3.43,9.72-6.85,14.24-10.26,1.48-1.12,3.46-2.3,3.97-3.99,1.38-4.55-2.54-6.46-6.46-6.33-6.45.22-12.45.22-18,0ZM214.3,395.69c-2.67-3.45-6.27-5.7-10.8-6.73-13.83-3.15-26.98-7.82-39.45-14.01-6.85-3.4-14.53-7.38-23.05-11.95-5.3-2.84-11.35-3.84-18.15-3.01-3.14.39-8.04,2.47-14.69,6.24-15.92,9.03-31.27,16.48-50.12,21.51-6.44,1.72-10.41,3.1-11.9,4.13-7.58,5.25-8.15,15.11-8.21,24.13-.05,8.1-.02,13.85.09,17.24.84,24.85,6.6,51.58,19.72,72.04,13.04,20.33,32.39,38.03,54.72,50.37,7.38,4.08,14.45,8.15,22.82,4.63,3.79-1.59,7.88-3.75,12.27-6.48,29.56-18.35,54.45-44.74,63.92-78.83,3.74-13.49,5.93-27.74,6.56-42.73.22-5.18.32-12.01.29-20.48-.01-6.13-.56-11.58-4.02-16.07Z"/>
  <path class="st24" d="M332.45,130.08c.17.35,2.47,7.19,6.92,20.54,1.74,5.24-3.33,7.89-7.7,4.93-3.65-2.47-9.19-6.43-16.63-11.88-.57-.42-1.34-.42-1.91,0-9.29,6.83-14.59,10.68-15.89,11.55-2.47,1.63-5.53,2.15-7.77-.02-1.35-1.3-1.78-2.88-1.31-4.74,1.21-4.79,3.01-11.51,5.38-20.14.19-.68-.05-1.4-.6-1.84-3.84-3.01-8.25-6.63-13.24-10.85-2.25-1.91-3.48-3.45-3.7-4.63-.87-4.6,3.75-5.92,7.75-5.95,4.37-.03,9.9-.02,16.61.02.72,0,1.36-.45,1.6-1.12,1.97-5.45,4.24-11.85,6.81-19.18.61-1.75,1.71-3.06,3.3-3.95.3-.16.64-.25.98-.25,2.22.01,3.84,1.21,4.86,3.6.64,1.53,3.32,8.4,8.04,20.63.2.51.69.85,1.24.84,10.4-.14,17.27-.13,20.61.03,4.93.23,5.54,6.01,2.03,8.64-6.93,5.17-12.61,9.35-17.06,12.53-.39.28-.53.81-.32,1.24Z"/>
  <path class="st24" d="M142.18,91.17l5.67,15.72c.26.71.94,1.18,1.7,1.17,10-.14,16.28-.16,18.85-.06,3.59.14,5.47,1.86,5.64,5.15.02.41-.07.81-.26,1.17-.84,1.55-1.77,2.69-2.79,3.42-3.9,2.81-8.91,6.44-15.02,10.89-.82.6-1.15,1.65-.83,2.61,1.82,5.47,3.96,12.21,6.43,20.23,1.56,5.07-4.05,7.25-7.7,4.71-7.15-4.96-12.8-8.87-16.97-11.74-.55-.38-1.28-.37-1.82.02-5.21,3.71-10.71,7.53-16.51,11.46-2.9,1.97-6.61,2.13-8.21-1.31-.53-1.13-.47-2.83.16-5.09.58-2.04,2.4-8.19,5.46-18.46.25-.85-.04-1.77-.73-2.32l-7.64-6.08c-3.73-2.89-6.14-4.82-7.23-5.77-2.3-2.03-2.76-4.19-1.38-6.48,1.36-2.26,4.23-2.56,6.73-2.55,7.4.03,11.91.08,13.52.16,1.43.07,2.64-.11,3.62-.53.49-.21.86-.62,1.05-1.12,2.47-6.75,4.8-12.99,6.99-18.7.65-1.7,1.97-3.97,3.81-4.55,4.26-1.34,6.25,4.61,7.46,8.05Z"/>
  <path class="st24" d="M383.28,130.79c.23-.7.01-1.46-.57-1.91-7.26-5.73-12.22-9.78-14.87-12.13-2.27-2.01-2.77-4.21-1.5-6.6,1.08-2.04,3.74-2.24,5.9-2.28,1.95-.05,7.67-.15,17.16-.31.88-.02,1.66-.57,1.97-1.39,3.11-8.21,5.52-14.47,7.23-18.79,1-2.56,2.42-4.92,5.39-4.48,2.6.39,3.64,2.84,4.53,5.32,2.71,7.56,4.93,13.94,6.67,19.14.12.36.46.61.84.61,7.63.03,14.11.01,19.46-.05,5.87-.05,7.47,5.94,3.39,9.25-1.05.85-6.4,4.82-16.06,11.93-.38.28-.54.77-.39,1.21,1.93,5.75,4.04,12.5,6.35,20.25,1.07,3.57-.37,6.96-4.73,6.43-1.27-.15-3.11-1.11-5.52-2.88-3.3-2.41-7.94-5.66-13.93-9.76-.32-.22-.71-.32-1.09-.28-.81.09-1.71.49-2.72,1.22-1.97,1.44-7.06,4.93-15.28,10.47-1.84,1.24-3.7,1.63-5.57,1.16-.35-.09-.67-.25-.94-.48-1.66-1.45-2.25-3.18-1.76-5.19,1.36-5.63,3.37-12.45,6.04-20.46Z"/>
  <path class="st24" d="M239.25,107.86c5.55.22,11.55.22,18,0,3.92-.13,7.84,1.78,6.46,6.33-.51,1.69-2.49,2.87-3.97,3.99-4.52,3.41-9.27,6.83-14.24,10.26-.56.39-.8,1.09-.59,1.73,2.83,8.61,4.88,14.84,6.14,18.7,1.1,3.36,1.43,7.21-2.72,8.08-3.2.67-11.33-6.02-20.15-12.2-1.19-.83-2.39-.81-3.61.05-4.55,3.2-9.79,6.79-15.72,10.76-5.83,3.91-9.93,0-8.17-6.12,1.91-6.65,3.77-12.92,5.59-18.83.24-.77-.03-1.6-.67-2.09-4.95-3.75-9.71-7.6-14.29-11.57-3.1-2.68-4.62-8.73,1.22-9.03,5.38-.27,12.11-.46,20.2-.56.85-.01,1.61-.55,1.9-1.35,2.81-7.74,5.41-14.4,7.82-19.99,2.04-4.73,7-3.84,8.63.68,2.44,6.75,4.8,13.54,7.09,20.36.16.46.59.78,1.08.8Z"/>
  <path d="M467.83,212.08c-5.01-1.8-9.92-3.72-14.73-5.76-7.78-3.29-12.66-5.25-14.64-5.87-7.05-2.23-14.08-3.69-21.08-4.39-1.54-.15-2.99-.8-4.12-1.86-3.97-3.71-8.83-6.23-14.57-7.56-.44-.1-.88-.15-1.33-.14l-11.96.22c-.7,0-1.39.13-2.06.34-3.74,1.2-7.03,2.86-9.87,4.97-2.61,1.94-4.67,3.28-6.18,4.01-.75.37-1.57.58-2.41.62-5.74.29-10.72,1.1-14.93,2.41-3.83,1.2-6.57,1.86-8.24,1.99-.65.05-1.27.27-1.8.65-.19.14-2.95,1.18-8.28,3.12-3.87,1.41-6.81,3.23-10,4.54-2.19.91-4.66,2.14-7.4,3.7-4.85,2.77-10.05,6.1-15.6,10.01-2.81,1.97-5.07,4.57-7.85,6.36-.13.09-.25.18-.36.29l-11.7,11.72c-.25.25-.47.52-.66.81-.61.91-2.51,3.43-5.7,7.56-3.01,3.91-6.45,9.56-10.32,16.97-5.29,10.12-7.82,19.53-10.61,32.04-2.3,10.33-3.86,18.5-4.35,28.56-.13,2.61-.35,7.06-.68,13.36-.16,3.13.41,6.7,1.7,10.7.23.71.38,1.45.44,2.19.28,3.12-.06,5.84.38,9.48.53,4.4.05,8.35.74,12.77.58,3.71.65,7.79.22,12.24-.08.81-.7,1.47-1.51,1.58-4.76.68-7.69,2.59-12.9,5.58-.55.32-1.06.71-1.52,1.15-6.65,6.45-9.97,14.24-9.94,23.38.03,7.13,0,12.01-.09,14.63-1.47-8.01-1.58-15.3-.35-21.88,1.82-9.67,7.22-16.78,16.21-21.33,2.41-1.23,5.24-2.1,8.49-2.61.55-.09.94-.58.91-1.14-.12-1.89-.89-11.74-2.32-29.55-.21-2.57-.66-6.06-1.35-10.47-1.34-8.5.04-19.09.9-27.64,1.47-14.53,4.6-28.49,9.37-41.89,7.43-20.85,19.73-38.29,36.88-52.34,20.34-16.64,46.7-28.69,72.94-30.95.93-.08,2.28-.83,4.05-2.25,1.55-1.25,2.81-2.16,3.77-2.71,14.39-8.31,28.04-7.02,40.95,3.87.81.68,1.81,1.1,2.86,1.2,7.02.65,13.83,2.01,20.42,4.06,10.43,3.25,20.49,7.67,30.18,13.26Z"/>
  <path class="st24" d="M467.83,212.08c14.69,7.72,27.27,18.06,37.72,31.01,1,3.94,3.17,7.39,6.52,10.34.21.18.38.39.51.63l9.62,17.54c.18.33.33.66.46,1.01,2.73,7.67,5.01,15.82,6.82,24.43.47,2.23,1.26,6.8,2.39,13.7.08.45.27,2.77.56,6.96.21,2.93.94,5.64,2.2,8.13.52,6.69.54,13.63.06,20.82-.13,2-.97,4.88-1.09,6.38-.97,11.9-1.81,21.89-2.54,29.97-.15,1.73-.23,3.21-.23,4.42,0,.32.22.6.52.67,2.72.64,4.64,1.16,5.75,1.56,15.63,5.68,21.02,18.29,20.68,34.08-.35,16.8-6.19,31.14-17.51,43.01-5.06,5.31-11.49,9.25-19.28,11.83.03-.08-.12-.05-.43.09-.34.15-.6.44-.72.79-.64,1.87-1.15,4.01-1.54,6.42-.06.38-.15.75-.27,1.12-1.46,4.35-2.99,8.71-4.6,13.06-1.02,2.77-1.94,4.96-2.75,6.57-1.5,2.95-3.03,5.72-3.24,7.72-.05.42-.17.84-.37,1.26-.65,1.36-1.38,3.09-2.17,5.18-7.89,13.42-17.08,25.36-27.57,35.83-.75.75-1.25,1.72-1.42,2.77-.91,5.55-1.04,11.34-.41,17.38.44,4.19.58,7,2.24,9.76,1.84,3.05,7.19,4.68,10.76,5.96,30.01,10.77,58.8,22.49,86.36,35.16,9.19,4.22,18.27,9.38,27.26,15.47,15.09,10.23,26.28,23.7,33.57,40.39.25.58.08,1.25-.42,1.64l-10.86,8.37c-.53.41-1.3.19-1.54-.43-6.11-15.65-16.4-28.35-30.89-38.09-10.97-7.38-21.89-13.36-32.76-17.95-19.45-8.21-41.99-17.37-67.63-27.48-.51-.2-1.09.02-1.33.51l-4.62,9.2c-6.83,11.86-15.87,21.75-27.13,29.67-25.55,18.33-57.43,24.01-88.15,19.67-35.11-4.95-65.94-25.98-81.25-58.36-.21-.45-.74-.66-1.21-.47-15.85,6.45-35.4,14.56-58.65,24.33-7.97,3.35-14.03,6.12-18.2,8.33-19.8,10.47-38.12,22.26-48.33,43.09-.12.25-.45.33-.67.15l-11.43-9.22c-.42-.34-.53-.93-.25-1.4,6.85-11.75,15.41-21.66,26.94-29.99,15.43-11.15,33.19-19.33,50.65-26.87,25.55-11.01,48.24-20.14,68.09-27.39,3.46-1.26,6.82-3.28,7.59-7.13,1.46-7.33,1.63-15.04.52-23.15-.45-3.29-.4-4.14-2.54-6.35-20.08-20.77-33.97-46.48-41.93-74.12-.25-.86-.85-1.58-1.65-1.98-1.1-.55-2.46-1.16-4.07-1.85-9.12-3.89-16.78-11.2-22.01-19.69-4.27-6.95-6.95-14.32-8.04-22.09.09-2.62.12-7.5.09-14.63-.03-9.14,3.29-16.93,9.94-23.38.46-.44.97-.83,1.52-1.15,5.21-2.99,8.14-4.9,12.9-5.58.81-.11,1.43-.77,1.51-1.58.43-4.45.36-8.53-.22-12.24-.69-4.42-.21-8.37-.74-12.77-.44-3.64-.1-6.36-.38-9.48-.06-.74-.21-1.48-.44-2.19-1.29-4-1.86-7.57-1.7-10.7.33-6.3.55-10.75.68-13.36.49-10.06,2.05-18.23,4.35-28.56,2.79-12.51,5.32-21.92,10.61-32.04,3.87-7.41,7.31-13.06,10.32-16.97,3.19-4.13,5.09-6.65,5.7-7.56.19-.29.41-.56.66-.81l11.7-11.72c.11-.11.23-.2.36-.29,2.78-1.79,5.04-4.39,7.85-6.36,5.55-3.91,10.75-7.24,15.6-10.01,2.74-1.56,5.21-2.79,7.4-3.7,3.19-1.31,6.13-3.13,10-4.54,5.33-1.94,8.09-2.98,8.28-3.12.53-.38,1.15-.6,1.8-.65,1.67-.13,4.41-.79,8.24-1.99,4.21-1.31,9.19-2.12,14.93-2.41.84-.04,1.66-.25,2.41-.62,1.51-.73,3.57-2.07,6.18-4.01,2.84-2.11,6.13-3.77,9.87-4.97.67-.21,1.36-.33,2.06-.34l11.96-.22c.45,0,.89.04,1.33.14,5.74,1.33,10.6,3.85,14.57,7.56,1.13,1.06,2.58,1.71,4.12,1.86,7,.7,14.03,2.16,21.08,4.39,1.98.62,6.86,2.58,14.64,5.87,4.81,2.04,9.72,3.96,14.73,5.76ZM260.83,334.19c-.03.25.1.4.38.44.15.03.33-.03.54-.16,13.33-8.07,27.22-15.09,41.65-21.05,54.71-22.59,116.11-24.19,171.06-1.83,15.31,6.23,29.87,13.58,43.66,22.05.33.2.75-.02.77-.4.71-12.06-1.79-24.77-4.84-37.16-6.01-24.36-18.79-45-38.53-59.85-16.01-12.03-34.49-20.43-55.43-25.2-2.97-.68-5.86-.85-10.58-1.44-.63-.08-1.22-.35-1.7-.77l-5.22-4.61c-.05-.05-.1-.09-.16-.12-7.44-4.57-14.76-4.68-21.96-.31-1.73,1.05-3.5,3.06-5.1,4.51-.82.74-1.85,1.2-2.94,1.32-21.22,2.35-40.95,9.24-59.2,20.65-19.34,12.1-34.1,29.28-41.69,51.05-5.9,16.93-8.61,34.67-10.71,52.88ZM273.67,346.32c5.12,5.83,14.79,6.03,21.51,3.07,4.96-2.19,10.68-4.69,17.16-7.5,50.38-21.81,108.75-21.48,158.61,1.17,10.22,4.64,25.28,14.34,35.69,3.31.49-.51.37-1.35-.24-1.71-8.99-5.32-17.48-9.88-25.47-13.69-49.3-23.45-100-27.06-152.1-10.84-19.42,6.04-37.72,14.24-54.91,24.6-.56.34-.68,1.1-.25,1.59ZM275.8,370.34c-.95,17.23-1.9,34.36-2.83,51.4-.13,2.47-.41,4.15-.84,5.02-3.4,7.02-12.49,4.24-13.17-2.84-1.11-11.65-1.71-17.82-1.81-18.52-.35-2.43-1.69-3.52-4-3.29-4.43.45-8.17,2.05-11.21,4.82-3.77,3.42-4.36,9.32-4.47,14.56-.28,14.41,5,30.58,17.36,38.71,4.1,2.69,8.92,3.34,13.07,4.05.35.06.68.19.98.37,1.28.77,2.07,1.67,2.38,2.7,4.25,14.35,8.95,26.86,14.12,37.54,12.95,26.74,35.04,51.16,62.18,63.29,30.88,13.81,65.49,12.84,94.73-3.86,23.62-13.48,43-36.39,54.17-60.83,5.34-11.68,9.31-23.97,12.93-36.02.39-1.32,1.36-2.38,2.63-2.9,1.01-.41,2.31-.72,3.89-.92,6.05-.76,10.78-3.11,14.93-7.64,9.88-10.77,13.19-25.4,11.61-39.92-.99-9.19-8.24-14.21-17.04-13.83-1.78.08-2.73,1.11-2.86,3.1-.48,7.6-1,13.81-1.57,18.64-1.11,9.61-13.26,8.8-13.9-.53-1.43-20.89-2.79-38.44-4.06-52.63.11-1.36-.07-2.68-.56-3.96-.11-.29-.41-.45-.7-.38-5.89,1.37-11.36,1.25-16.43-.35-6.04-1.9-10.89-3.79-14.56-5.68-25.05-12.88-52.23-19.18-81.54-18.89-20.99.21-40.64,3.56-58.97,10.05-9.08,3.21-17.19,7.19-28.17,12.02-8.28,3.64-16.78,4.48-25.51,2.51-.3-.07-.58.15-.6.46l-.18,3.75ZM319.41,583.87c-1.41,9.32-6.08,16.16-14.02,20.51-.34.19-.47.61-.29.96,7.6,14.76,17.87,26.99,32.62,35.34,13.08,7.41,28.02,11.58,44.83,12.53,13.51.76,26.38-.35,38.88-3.74,24.11-6.54,42.31-21.81,53.01-44.66.05-.09.01-.2-.07-.25-7.75-4.73-12.32-11.51-13.71-20.36l-.9-12.05c-.02-.26-.32-.4-.53-.25-22.04,16.02-50.09,23.89-76.94,21.61-22.5-1.91-43.44-10.31-61.79-23.32-.19-.14-.46-.01-.47.22l-.62,13.46Z"/>
  <path class="st23" d="M260.83,334.19c2.1-18.21,4.81-35.95,10.71-52.88,7.59-21.77,22.35-38.95,41.69-51.05,18.25-11.41,37.98-18.3,59.2-20.65,1.09-.12,2.12-.58,2.94-1.32,1.6-1.45,3.37-3.46,5.1-4.51,7.2-4.37,14.52-4.26,21.96.31.06.03.11.07.16.12l5.22,4.61c.48.42,1.07.69,1.7.77,4.72.59,7.61.76,10.58,1.44,20.94,4.77,39.42,13.17,55.43,25.2,19.74,14.85,32.52,35.49,38.53,59.85,3.05,12.39,5.55,25.1,4.84,37.16-.02.38-.44.6-.77.4-13.79-8.47-28.35-15.82-43.66-22.05-54.95-22.36-116.35-20.76-171.06,1.83-14.43,5.96-28.32,12.98-41.65,21.05-.21.13-.39.19-.54.16-.28-.04-.41-.19-.38-.44ZM390.58,263.98c6.72,0,10.26,0,10.61.03.2,0,.35.18.34.38-.15,3.67-.14,7.37.05,11.09.27,5.16,7.4,5.49,10.68,3.57,1.06-.61,1.71-1.74,1.72-2.97.12-14.11.14-27.02.07-38.74-.03-4.81-4.31-5.66-8.09-5.15-2.76.37-4.22,1.88-4.39,4.54-.24,3.88-.28,8.06-.12,12.53,0,.36-.26.66-.62.68-1.58.1-5,.14-10.24.14s-8.66-.05-10.24-.15c-.36-.02-.64-.32-.63-.68.17-4.47.13-8.65-.11-12.53-.16-2.66-1.62-4.17-4.38-4.54-3.78-.52-8.06.33-8.1,5.14-.08,11.72-.07,24.63.04,38.74,0,1.23.66,2.36,1.72,2.97,3.28,1.93,10.41,1.6,10.68-3.56.19-3.72.21-7.42.06-11.09-.01-.2.14-.37.34-.38.35-.02,3.89-.03,10.61-.02Z"/>
  <path class="st31" d="M390.59,250.08c5.24,0,8.66-.04,10.24-.14.36-.02.63-.32.62-.68-.16-4.47-.12-8.65.12-12.53.17-2.66,1.63-4.17,4.39-4.54,3.78-.51,8.06.34,8.09,5.15.07,11.72.05,24.63-.07,38.74-.01,1.23-.66,2.36-1.72,2.97-3.28,1.92-10.41,1.59-10.68-3.57-.19-3.72-.2-7.42-.05-11.09.01-.2-.14-.37-.34-.38-.35-.02-3.89-.03-10.61-.03-6.72-.01-10.26,0-10.61.02-.2.01-.35.18-.34.38.15,3.67.13,7.37-.06,11.09-.27,5.16-7.4,5.49-10.68,3.56-1.06-.61-1.71-1.74-1.72-2.97-.11-14.11-.12-27.02-.04-38.74.04-4.81,4.32-5.66,8.1-5.14,2.76.37,4.22,1.88,4.38,4.54.24,3.88.28,8.06.11,12.53-.01.36.27.66.63.68,1.58.1,4.99.15,10.24.15Z"/>
  <path d="M505.55,243.09c6.58,7.85,11.92,16.21,16.01,25.08.22.48.75.72,1.25.57,6.15-1.89,10.2-1.73,18.32-1.74h194.87c3.11,0,6.5.46,10.16,1.37,3.62.91,6.66,2.4,9.13,4.49,3.37,2.86,5.72,5.86,7.04,9.01,1.77,4.23,2.65,9.11,2.65,14.63-.01,78.31.01,156.68.06,235.12-.03,10.39-.11,20.85-.25,31.38-.07,5.25-.87,9.57-2.38,12.96-1.56,3.51-3.91,6.55-7.05,9.14-2.49,2.05-5.72,3.59-9.67,4.64-3.83,1.01-7.41,1.45-10.74,1.31-68.09-.07-135.41-.08-201.95-.02-1.7,0-4.28-.34-7.74-1.02-5.33-1.05-9.95-3.69-13.84-7.93-.23-.25-1.37-1.93-3.41-5.04-.22-.33-.39-.68-.51-1.05-1.73-5.23-2.58-10.14-2.55-14.74.08-17.8.06-31.29-.05-40.47.79-2.09,1.52-3.82,2.17-5.18.2-.42.32-.84.37-1.26.21-2,1.74-4.77,3.24-7.72.81-1.61,1.73-3.8,2.75-6.57,1.61-4.35,3.14-8.71,4.6-13.06.12-.37.21-.74.27-1.12.39-2.41.9-4.55,1.54-6.42.12-.35.38-.64.72-.79.31-.14.46-.17.43-.09-.01,28.47.01,56.44.04,83.93,0,5.5.78,8.47,4.98,11.24,1.32.87,4.42,1.3,9.31,1.29,65.15-.03,132.24-.03,201.27,0,5.32,0,8.25-.89,11.04-4.86.92-1.31,1.38-4.37,1.38-9.16-.03-99.03-.03-185.73,0-260.11,0-3.35.39-8.96-.56-11.09-2-4.53-5.08-6.79-9.23-6.79-62.08-.02-128.74-.03-199.97-.02-4.87,0-8.65.16-11.34.49-.26.03-.43.29-.36.54,3.98,13.47,6.34,27.4,7.08,41.8-1.26-2.49-1.99-5.2-2.2-8.13-.29-4.19-.48-6.51-.56-6.96-1.13-6.9-1.92-11.47-2.39-13.7-1.81-8.61-4.09-16.76-6.82-24.43-.13-.35-.28-.68-.46-1.01l-9.62-17.54c-.13-.24-.3-.45-.51-.63-3.35-2.95-5.52-6.4-6.52-10.34Z"/>
  <path class="st31" d="M520.99,478.57c7.79-2.58,14.22-6.52,19.28-11.83,11.32-11.87,17.16-26.21,17.51-43.01.34-15.79-5.05-28.4-20.68-34.08-1.11-.4-3.03-.92-5.75-1.56-.3-.07-.52-.35-.52-.67,0-1.21.08-2.69.23-4.42.73-8.08,1.57-18.07,2.54-29.97.12-1.5.96-4.38,1.09-6.38.48-7.19.46-14.13-.06-20.82-.74-14.4-3.1-28.33-7.08-41.8-.07-.25.1-.51.36-.54,2.69-.33,6.47-.49,11.34-.49,71.23-.01,137.89,0,199.97.02,4.15,0,7.23,2.26,9.23,6.79.95,2.13.56,7.74.56,11.09-.03,74.38-.03,161.08,0,260.11,0,4.79-.46,7.85-1.38,9.16-2.79,3.97-5.72,4.86-11.04,4.86-69.03-.03-136.12-.03-201.27,0-4.89,0-7.99-.42-9.31-1.29-4.2-2.77-4.97-5.74-4.98-11.24-.03-27.49-.05-55.46-.04-83.93ZM659,318.05c0-3.37-2.74-6.1-6.11-6.09l-56.44.1c-3.37.01-6.1,2.74-6.09,6.11v1.78c.01,3.37,2.74,6.1,6.11,6.09l56.44-.1c3.37-.01,6.1-2.74,6.09-6.11v-1.78ZM684.96,352.17c0-5.09-4.14-9.21-9.23-9.19l-76.44.13c-5.08.01-9.2,4.14-9.19,9.23v1.44c.01,5.09,4.14,9.21,9.23,9.19l76.44-.13c5.08-.01,9.2-4.14,9.19-9.23v-1.44ZM684.96,389.22c0-5.1-4.13-9.23-9.23-9.23h-76.4c-5.1,0-9.23,4.13-9.23,9.23v1.44c0,5.1,4.13,9.23,9.23,9.23h76.4c5.1,0,9.23-4.13,9.23-9.23v-1.44ZM631.08,494.32c-6.06-5.21-11.9-10.73-17.52-16.56-2.93-3.03-5.13-4.82-6.6-5.37-5.76-2.13-10.75.94-13.19,6.41-2.59,5.8,1.73,10.39,5.53,14.19,15.35,15.35,23.51,23.51,24.48,24.48,1.83,1.84,3.75,3.41,5.76,4.72.28.18.6.27.93.28,2.04.03,3.22,0,3.54-.12,2.44-.89,4.63-2.39,6.58-4.5,11.7-12.68,26.32-28.91,43.86-48.68,2.35-2.65,3.77-4.64,4.26-5.99,1.37-3.76.75-9.36-2.94-11.74-1.99-1.29-3.38-2.21-4.17-2.78-.25-.18-.54-.29-.84-.34-1.64-.23-2.9-.1-3.78.41-3.27,1.88-6.33,4.49-9.18,7.83-3.99,4.67-7.83,8.91-11.54,12.7-1.22,1.26-2.38,3.24-3.61,4.39-2.1,1.97-4.08,4.05-5.95,6.22-4.88,5.69-8.7,9.53-13.28,14.33-.63.66-1.66.71-2.34.12Z"/>
  <path class="st22" d="M273.67,346.32c-.43-.49-.31-1.25.25-1.59,17.19-10.36,35.49-18.56,54.91-24.6,52.1-16.22,102.8-12.61,152.1,10.84,7.99,3.81,16.48,8.37,25.47,13.69.61.36.73,1.2.24,1.71-10.41,11.03-25.47,1.33-35.69-3.31-49.86-22.65-108.23-22.98-158.61-1.17-6.48,2.81-12.2,5.31-17.16,7.5-6.72,2.96-16.39,2.76-21.51-3.07Z"/>
  <rect class="st30" x="590.36" y="312.01" width="68.64" height="13.98" rx="6.1" ry="6.1" transform="translate(-.56 1.09) rotate(-.1)"/>
  <path class="st26" d="M503.02,370.81c-.58.73-.98,1.82-1.2,3.25-.05.28-.27.5-.55.52-7.11.6-13.64-.17-19.59-2.31-13.43-4.82-21.3-7.6-23.61-8.34-19.17-6.06-37.54-9.66-55.12-10.79-16.22-1.05-32.2-.23-47.93,2.45-12.91,2.2-27.16,6.21-42.73,12.04-2.25.84-4.38,1.69-6.4,2.54-9.31,3.94-18.12,5.76-27.94,3.2-.28-.07-.5-.3-.57-.58-.39-1.63-.92-2.45-1.58-2.45l.18-3.75c.02-.31.3-.53.6-.46,8.73,1.97,17.23,1.13,25.51-2.51,10.98-4.83,19.09-8.81,28.17-12.02,18.33-6.49,37.98-9.84,58.97-10.05,29.31-.29,56.49,6.01,81.54,18.89,3.67,1.89,8.52,3.78,14.56,5.68,5.07,1.6,10.54,1.72,16.43.35.29-.07.59.09.7.38.49,1.28.67,2.6.56,3.96Z"/>
  <rect class="st30" x="590.1" y="343.04" width="94.86" height="19.86" rx="9.21" ry="9.21" transform="translate(-.62 1.11) rotate(-.1)"/>
  <path class="st25" d="M503.02,370.81c1.27,14.19,2.63,31.74,4.06,52.63.64,9.33,12.79,10.14,13.9.53.57-4.83,1.09-11.04,1.57-18.64.13-1.99,1.08-3.02,2.86-3.1,8.8-.38,16.05,4.64,17.04,13.83,1.58,14.52-1.73,29.15-11.61,39.92-4.15,4.53-8.88,6.88-14.93,7.64-1.58.2-2.88.51-3.89.92-1.27.52-2.24,1.58-2.63,2.9-3.62,12.05-7.59,24.34-12.93,36.02-11.17,24.44-30.55,47.35-54.17,60.83-29.24,16.7-63.85,17.67-94.73,3.86-27.14-12.13-49.23-36.55-62.18-63.29-5.17-10.68-9.87-23.19-14.12-37.54-.31-1.03-1.1-1.93-2.38-2.7-.3-.18-.63-.31-.98-.37-4.15-.71-8.97-1.36-13.07-4.05-12.36-8.13-17.64-24.3-17.36-38.71.11-5.24.7-11.14,4.47-14.56,3.04-2.77,6.78-4.37,11.21-4.82,2.31-.23,3.65.86,4,3.29.1.7.7,6.87,1.81,18.52.68,7.08,9.77,9.86,13.17,2.84.43-.87.71-2.55.84-5.02.93-17.04,1.88-34.17,2.83-51.4.66,0,1.19.82,1.58,2.45.07.28.29.51.57.58,9.82,2.56,18.63.74,27.94-3.2,2.02-.85,4.15-1.7,6.4-2.54,15.57-5.83,29.82-9.84,42.73-12.04,15.73-2.68,31.71-3.5,47.93-2.45,17.58,1.13,35.95,4.73,55.12,10.79,2.31.74,10.18,3.52,23.61,8.34,5.95,2.14,12.48,2.91,19.59,2.31.28-.02.5-.24.55-.52.22-1.43.62-2.52,1.2-3.25ZM313.68,374.89c-4.36,3.04-7.41,8.16-3.04,12.71,3.83,3.99,8.83.86,12.49-1.55,4.95-3.25,11.61-4.3,17.38-3.77,5.55.51,12.52,3.14,15.83-2.13,2.77-4.41.64-9.3-4.43-10.5-12.48-2.96-27.42-2.3-38.23,5.24ZM466.79,374.79c-10.74-7.48-25.59-8.12-37.98-5.16-5.04,1.19-7.15,6.05-4.39,10.43,3.3,5.23,10.22,2.61,15.73,2.1,5.73-.53,12.35.5,17.27,3.72,3.64,2.39,8.61,5.5,12.41,1.53,4.33-4.53,1.3-9.61-3.04-12.62ZM335.88,436.59c6.74-.02,12.18-7.76,12.15-17.28-.03-9.52-5.53-17.22-12.27-17.2-6.74.02-12.18,7.76-12.15,17.28.03,9.52,5.53,17.22,12.27,17.2ZM444.23,436.5c6.75,0,12.22-7.71,12.22-17.22s-5.47-17.22-12.22-17.22-12.22,7.71-12.22,17.22,5.47,17.22,12.22,17.22ZM372.77,473.45c-2.11,4.69.34,9.01,5.26,10.3,15.63,4.11,40.06,2.47,40.33-19.23.11-8.57-1.06-15.84-3.51-21.82-.81-1.99-1.76-3.46-2.84-4.41-5.92-5.18-14.48,1.24-10.25,8.14,1.87,3.05,2.95,6.88,3.26,11.49.43,6.67,1.05,13.19-7.64,14.46-4.83.71-8.6.64-11.3-.21-4.23-1.34-10.79-4.3-13.31,1.28ZM391.13,525c16.95.02,33.45-5.42,46.45-15.36,6.22-4.75,1.03-14.2-6.31-12.43-1.47.35-3.32,1.47-5.55,3.34-10.28,8.62-21.6,10.91-34.58,10.89-12.98-.01-24.3-2.31-34.56-10.95-2.23-1.88-4.08-3-5.54-3.35-7.34-1.79-12.55,7.65-6.34,12.42,12.99,9.95,29.48,15.42,46.43,15.44Z"/>
  <path class="st24" d="M214.3,395.69c3.46,4.49,4.01,9.94,4.02,16.07.03,8.47-.07,15.3-.29,20.48-.63,14.99-2.82,29.24-6.56,42.73-9.47,34.09-34.36,60.48-63.92,78.83-4.39,2.73-8.48,4.89-12.27,6.48-8.37,3.52-15.44-.55-22.82-4.63-22.33-12.34-41.68-30.04-54.72-50.37-13.12-20.46-18.88-47.19-19.72-72.04-.11-3.39-.14-9.14-.09-17.24.06-9.02.63-18.88,8.21-24.13,1.49-1.03,5.46-2.41,11.9-4.13,18.85-5.03,34.2-12.48,50.12-21.51,6.65-3.77,11.55-5.85,14.69-6.24,6.8-.83,12.85.17,18.15,3.01,8.52,4.57,16.2,8.55,23.05,11.95,12.47,6.19,25.62,10.86,39.45,14.01,4.53,1.03,8.13,3.28,10.8,6.73ZM66.37,487.29c4.88,10.47,11.4,19.83,19.56,28.07,11.49,12.63,25.16,22.69,41.01,30.16,1.34.63,2.52.7,3.55.21,10.56-5.14,20.73-12.06,30.52-20.75,19.19-17.05,31.68-37.96,37.47-62.73,4.24-18.15,5.74-36.32,4.51-54.53-.15-2.19-1.3-3.53-3.45-4.03-16.36-3.79-31.83-9.48-46.4-17.09-8.74-4.57-15.38-8.08-19.93-10.55-4.69-2.55-7.99-2.29-12.91.25-1.95,1.01-7.29,3.92-16.02,8.71-14.6,8.02-29.15,14.21-46.2,18.3-4.28,1.02-4.32,3.05-4.6,6.93-1.15,15.92-.24,31.51,2.74,46.77,1.99,10.21,5.38,20.31,10.15,30.28Z"/>
  <path class="st24" d="M310.64,387.6c-4.37-4.55-1.32-9.67,3.04-12.71,10.81-7.54,25.75-8.2,38.23-5.24,5.07,1.2,7.2,6.09,4.43,10.5-3.31,5.27-10.28,2.64-15.83,2.13-5.77-.53-12.43.52-17.38,3.77-3.66,2.41-8.66,5.54-12.49,1.55Z"/>
  <path class="st24" d="M466.79,374.79c4.34,3.01,7.37,8.09,3.04,12.62-3.8,3.97-8.77.86-12.41-1.53-4.92-3.22-11.54-4.25-17.27-3.72-5.51.51-12.43,3.13-15.73-2.1-2.76-4.38-.65-9.24,4.39-10.43,12.39-2.96,27.24-2.32,37.98,5.16Z"/>
  <path class="st28" d="M85.93,515.36c-1.95-3.51-4.34-6.73-7.17-9.67-.05-.05-.1-.11-.15-.18l-5.57-7.96c-.05-.06-.09-.12-.12-.19-1.79-3.61-3.98-6.96-6.55-10.07-4.77-9.97-8.16-20.07-10.15-30.28-2.98-15.26-3.89-30.85-2.74-46.77.28-3.88.32-5.91,4.6-6.93,17.05-4.09,31.6-10.28,46.2-18.3,8.73-4.79,14.07-7.7,16.02-8.71,4.92-2.54,8.22-2.8,12.91-.25,4.55,2.47,11.19,5.98,19.93,10.55,14.57,7.61,30.04,13.3,46.4,17.09,2.15.5,3.3,1.84,3.45,4.03,1.23,18.21-.27,36.38-4.51,54.53-5.79,24.77-18.28,45.68-37.47,62.73-9.79,8.69-19.96,15.61-30.52,20.75-1.03.49-2.21.42-3.55-.21-15.85-7.47-29.52-17.53-41.01-30.16Z"/>
  <rect class="st30" x="590.1" y="379.99" width="94.86" height="19.9" rx="9.23" ry="9.23"/>
  <ellipse class="st24" cx="335.82" cy="419.35" rx="12.21" ry="17.24" transform="translate(-1.46 1.17) rotate(-.2)"/>
  <ellipse class="st24" cx="444.23" cy="419.28" rx="12.22" ry="17.22"/>
  <path class="st24" d="M372.77,473.45c2.52-5.58,9.08-2.62,13.31-1.28,2.7.85,6.47.92,11.3.21,8.69-1.27,8.07-7.79,7.64-14.46-.31-4.61-1.39-8.44-3.26-11.49-4.23-6.9,4.33-13.32,10.25-8.14,1.08.95,2.03,2.42,2.84,4.41,2.45,5.98,3.62,13.25,3.51,21.82-.27,21.7-24.7,23.34-40.33,19.23-4.92-1.29-7.37-5.61-5.26-10.3Z"/>
  <path class="st29" d="M631.08,494.32c.68.59,1.71.54,2.34-.12,4.58-4.8,8.4-8.64,13.28-14.33,1.87-2.17,3.85-4.25,5.95-6.22,1.23-1.15,2.39-3.13,3.61-4.39,3.71-3.79,7.55-8.03,11.54-12.7,2.85-3.34,5.91-5.95,9.18-7.83.88-.51,2.14-.64,3.78-.41.3.05.59.16.84.34.79.57,2.18,1.49,4.17,2.78,3.69,2.38,4.31,7.98,2.94,11.74-.49,1.35-1.91,3.34-4.26,5.99-17.54,19.77-32.16,36-43.86,48.68-1.95,2.11-4.14,3.61-6.58,4.5-.32.11-1.5.15-3.54.12-.33,0-.65-.1-.93-.28-2.01-1.31-3.93-2.88-5.76-4.72-.97-.97-9.13-9.13-24.48-24.48-3.8-3.8-8.12-8.39-5.53-14.19,2.44-5.47,7.43-8.54,13.19-6.41,1.47.55,3.67,2.34,6.6,5.37,5.62,5.83,11.46,11.35,17.52,16.56Z"/>
  <path class="st21" d="M85.93,515.36c-8.16-8.24-14.68-17.6-19.56-28.07,2.57,3.11,4.76,6.46,6.55,10.07.03.07.07.13.12.19l5.57,7.96c.05.07.1.13.15.18,2.83,2.94,5.22,6.16,7.17,9.67Z"/>
  <path class="st24" d="M391.14,511.44c12.98.02,24.3-2.27,34.58-10.89,2.23-1.87,4.08-2.99,5.55-3.34,7.34-1.77,12.53,7.68,6.31,12.43-13,9.94-29.5,15.38-46.45,15.36-16.95-.02-33.44-5.49-46.43-15.44-6.21-4.77-1-14.21,6.34-12.42,1.46.35,3.31,1.47,5.54,3.35,10.26,8.64,21.58,10.94,34.56,10.95Z"/>
  <path class="st26" d="M460.66,584.2c-7.47,5.61-14.78,10.3-21.91,14.05-8.09,4.25-17,7.49-26.71,9.72-31.53,7.22-65.04-3.68-91.02-21.49-.25-.17-.42-.45-.45-.75-.14-1.23-.53-1.85-1.16-1.86l.62-13.46c.01-.23.28-.36.47-.22,18.35,13.01,39.29,21.41,61.79,23.32,26.85,2.28,54.9-5.59,76.94-21.61.21-.15.51-.01.53.25l.9,12.05Z"/>
  <path class="st25" d="M319.41,583.87c.63.01,1.02.63,1.16,1.86.03.3.2.58.45.75,25.98,17.81,59.49,28.71,91.02,21.49,9.71-2.23,18.62-5.47,26.71-9.72,7.13-3.75,14.44-8.44,21.91-14.05,1.39,8.85,5.96,15.63,13.71,20.36.08.05.12.16.07.25-10.7,22.85-28.9,38.12-53.01,44.66-12.5,3.39-25.37,4.5-38.88,3.74-16.81-.95-31.75-5.12-44.83-12.53-14.75-8.35-25.02-20.58-32.62-35.34-.18-.35-.05-.77.29-.96,7.94-4.35,12.61-11.19,14.02-20.51Z"/>
  <path class="st27" d="M458.51,648.94c11.26-7.92,20.3-17.81,27.13-29.67.29.68.66.92,1.11.71.08-.04.14-.1.18-.18l3.75-7.65c.36-.74,1.23-1.08,2-.78,23.57,9.3,45.53,18.18,65.89,26.63,7.97,3.31,17.81,8.63,29.53,15.96,1.77,1.11,3.92,2.67,6.45,4.7,3.27,2.62,5.46,4.07,8.18,6.62,5.45,5.13,10.08,11.12,13.89,17.95,1.84,3.31,3.38,5.67,4.08,9.11.23,1.1-.21,2.24-1.12,2.9-14.9,10.91-30.51,20.49-46.83,28.74-6.77,3.42-17.4,8.26-31.91,14.52-5.42,2.34-11.21,4.52-17.36,6.54-11.63,3.83-17.51,5.76-17.63,5.8-17.51,5.03-34.72,9.01-51.63,11.93-8.65,1.5-17.18,2.57-25.57,3.2-14.03,1.06-24.08,2.16-34.55,1.77-20.51-.77-41.76-3.15-63.77-7.14-19.4-3.52-42.02-9.52-62.22-17.38-10.15-3.95-18.09-7.22-23.82-9.79-1.99-.89-7.71-3.71-17.16-8.44-21.49-10.76-41.63-23.62-61.46-38.23-.36-.27-.51-.72-.39-1.15.69-2.37,2.04-5.63,3.46-7.5,5.84-7.68,11.86-13.86,18.07-18.53,8.01-6.05,17.88-12.07,29.61-18.07,2.49-1.28,13.1-5.93,31.83-13.95,14.55-6.24,27.29-11.56,38.21-15.97.92-.38,1.98.03,2.41.93,2.21,4.57,4.69,8.88,7.46,12.92.35.5,1.89,2.56,4.62,6.19,1.62,2.14,3.31,4.08,5.07,5.82,5.47,5.39,10.4,9.63,14.78,12.72,11.08,7.81,23.73,13.67,37.95,17.59,1.48.41,5.97,1.2,13.47,2.39,4.27.67,8.81,1,13.62.99,8.65-.02,13.7-.1,15.16-.23,12.25-1.09,23.96-3.84,35.12-8.23,8.57-3.37,16.03-7.39,22.38-12.07.68-.5.68-1.06.01-1.67Z"/>
</svg>