<?xml version="1.0" encoding="UTF-8"?>
<svg id="Capa_1" xmlns="http://www.w3.org/2000/svg" version="1.1" xmlns:xlink="http://www.w3.org/1999/xlink" viewBox="0 0 788 792">
  <!-- Generator: Adobe Illustrator 29.4.0, SVG Export Plug-In . SVG Version: 2.1.0 Build 152)  -->
  <defs>
    <style>
      .st0 {
        stroke: #b6b1ff;
      }

      .st0, .st1, .st2, .st3, .st4, .st5, .st6, .st7, .st8, .st9, .st10, .st11, .st12, .st13, .st14, .st15, .st16, .st17, .st18, .st19 {
        fill: none;
      }

      .st0, .st1, .st2, .st3, .st4, .st5, .st6, .st7, .st9, .st10, .st11, .st12, .st13, .st14, .st15, .st16, .st17, .st18, .st19 {
        stroke-width: 2px;
      }

      .st1 {
        stroke: #b5afd4;
      }

      .st2 {
        stroke: #222930;
      }

      .st20 {
        fill: #010101;
      }

      .st3 {
        stroke: #848c93;
      }

      .st21 {
        fill: #081827;
      }

      .st4 {
        stroke: gray;
      }

      .st5 {
        stroke: #3b3e93;
      }

      .st6 {
        stroke: #403e6c;
      }

      .st22 {
        fill: #fff;
      }

      .st7 {
        stroke: #373280;
      }

      .st23 {
        fill: #7763b1;
      }

      .st9 {
        stroke: #d2cae9;
      }

      .st24 {
        fill: #fec838;
      }

      .st10 {
        stroke: #a1a8af;
      }

      .st11 {
        stroke: #837030;
      }

      .st25 {
        fill: #39334a;
      }

      .st12 {
        stroke: #56567d;
      }

      .st13 {
        stroke: #83685e;
      }

      .st14 {
        stroke: #534b6a;
      }

      .st15 {
        stroke: #67717f;
      }

      .st26 {
        fill: #feb795;
      }

      .st27 {
        fill: #6d63ff;
      }

      .st16 {
        stroke: #263443;
      }

      .st17 {
        stroke: #e3e5eb;
      }

      .st28 {
        fill: #a494d2;
      }

      .st29 {
        fill: #c6cad6;
      }

      .st18 {
        stroke: #212639;
      }

      .st30 {
        clip-path: url(#clippath);
      }

      .st19 {
        stroke: #9c7570;
      }

      .st31 {
        fill: #43505e;
      }
    </style>
    <clipPath id="clippath">
      <rect class="st8" x="-18.01" y="29.85" width="788" height="792"/>
    </clipPath>
  </defs>
  <g class="st30">
    <g>
      <path class="st3" d="M-18.01,287.87c.33,2.93.7,5.86,1.09,8.79,1.85,13.87,7.6,25.64,17.27,35.31,8.49,8.49,18.29,14.06,29.41,16.69,4.83,1.14,12.87,1.69,24.1,1.64,6.33-.03,22.85-.07,49.55-.1.43,0,.85.1,1.24.28l6.06,2.92c.59.28,1.06.77,1.31,1.38.53,1.27,2.23,3.01,5.11,5.21,4.71,3.61,8.39,5.86,11.02,6.77.68.24,1.19.33,1.53.27.3-.05.58.12.68.4.89,2.49,1.29,4.48,1.18,5.95-.1,1.37.74,2.74.85,4.21.08,1.01.18,1.84.29,2.51,1.15,6.77,3.2,18.58,6.14,35.44.31,1.74.43,2.78.37,3.12-.05.33-.29.59-.62.67-1.23.28-4.37,1.36-9.4,3.24-5.15,1.93-10.25,4.83-13.05,9.91-6.01,10.92-8.93,22.95-10.35,35.62-.93,8.24.78,12.71,3.33,24.12,1.45,6.46,2.66,11.18,3.65,14.16,4.75,14.31,12.08,27.23,21.99,38.74,1.47,1.71,6.2,6.55,14.17,14.53,1.65,1.65,3,2.31,4.6,3.52.57.43,1,1.03,1.21,1.71,6.29,19.84,12.82,39.47,19.61,58.9,6.67,19.07,13.39,36.1,20.18,51.09,6.02,13.31,12.58,26.18,21.16,38.32,7.61,10.75,18.17,21.48,30.55,27.27,6.11,2.86,12.3,4.42,18.58,4.69,11.97.52,23.54-4,33.18-11.78,7.58-6.11,13.29-12.33,17.12-18.66.12-.2.35-.4.68-.59.29-.17.65.05.65.38v79.51c0,.57-.47,1.04-1.04,1.04-103.45.05-192.74.05-267.87.02-1.34,0-2.54.97-2.93,2.38-.94,3.45,3.66,2.92,5.4,2.92,132.65.04,265.68.01,399.07-.09.52,0,.99.32,1.18.81,2.12,5.47,9.54,7.35,14.69,7.69.53.04,1,.34,1.27.8l2.91,5.04c.09.16.22.3.37.4,5.84,3.88,12.26,5.99,19.25,6.34,10.15.51,20.04-.77,29.68-3.83.7-.22,3.59-1.27,8.67-3.14,6.66-2.45,12.38-5.83,18.86-8.87,2.89-1.35,5.58-3.34,8.86-5.16.07-.03.13-.05.2-.05l212.38.09c1.01.01,1.83-.81,1.83-1.82v-1.74c0-.97-.79-1.76-1.76-1.76h-113.06c-.55,0-1-.43-1.03-.98l-1.13-19.44c-.07-1.2.88-2.21,2.08-2.22,2.29-.03,3.99-1.04,6.19-1.59,16.63-4.09,32.68-9.3,48.15-15.61,7.45-3.04,13.62-5.94,18.51-8.71,8.91-5.05,16.96-11.08,24.16-18.09,3.93-3.83,6.92-7.92,8.95-12.27,4.85-10.37,6.13-22.18,6.83-33.77.28-4.71-.01-12.06-.86-22.05-.57-6.62-.98-11.04-1.25-13.26-2.23-18.7-5.12-37.95-8.65-57.75-.06-.35.14-.7.48-.81,2.79-.95,5.82-1.78,9.1-2.47,1.36-.29,2.4-.93,3.13-1.94.2-.28.22-.65.04-.93-.9-1.46-1.67-3.25-2.3-5.37-6.53-21.76-12.69-42.74-18.46-62.94-4.8-16.77-10.74-34.6-15.96-49.45-5.74-16.35-12.86-32.43-22.61-46.84-1.45-2.15-4.53-6.08-9.22-11.77-3.79-4.58-7.8-8.61-12.03-12.09-2.25-1.85-3.76-3.1-4.55-3.77-2.49-2.13-4.02-3.38-4.57-3.75-5.39-3.6-8.55-5.71-9.48-6.34-3.18-2.18-6.28-3.29-9.24-5.12-2.15-1.34-4.55-2.58-7.18-3.73-13.82-6.05-22.18-9.58-25.07-10.6-8.84-3.11-26.66-9.08-40.41-13.32-7.17-2.21-14.37-5.11-21.6-8.7-3.81-1.9-6.66-4.13-8.53-6.7-1.11-1.53-1.94-3.36-2.47-5.51-.91-3.69-1.95-7.67-2.08-10.94-.11-2.8-.92-4.9-.84-7.57.18-6.4-.73-14.78-.73-22.45-.01-11.03.29-22.79.9-35.27.03-.75.64-1.34,1.39-1.37,18.49-.58,31.99-13.35,37.85-30.06,4.03-11.53,5.57-24.57-.61-35.47-.16-.29-.17-.63-.02-.92,13.95-27.05,17.89-62.58,3.07-90.37-5.75-10.78-13.97-19.05-24.68-24.8-2.5-1.35-7.29-2.8-14.36-4.35-.3-.07-.56-.25-.73-.51-2.83-4.33-5.39-7.46-7.67-9.39-6.81-5.77-14.09-10.65-22.48-14.06-8.93-3.63-18.33-6.15-28.18-7.54-6.79-.96-14.62-1.48-23.49-1.56-14.02-.13-27.18,1.82-39.49,5.84-3.87,1.26-9.2,3.16-15.98,5.71-12.83,4.82-27.38,1.42-41.05,4.49-9.67,2.17-13.41,9.5-13.37,18.92.01.65-.36,1.24-.95,1.53-4.69,2.27-9.68,4.47-13.79,7.6-9.34,7.14-11.99,21.32-7.17,31.75,1.53,3.33,2.95,5.65,4.26,6.98,3.96,4.05,6.04,6.31,10.07,8.25.24.12.4.37.39.64,0,.77-.04,3.59-.09,8.46-.08,8.35,1.88,16.75,4.99,24.44.3.73.46,1.52.47,2.31.13,10.71.19,17.86.17,21.45-.09,11.63.55,20.53,1.01,35.67.27,9.11.68,16.53,1.23,22.26,2.04,21.47,8.72,42.81,20.87,60.51,10.44,15.22,25.97,25.48,43.8,28.99.62.12,1.11.61,1.24,1.24l.85,4.37s.01.08.02.12l.4,12.41c.04,1.3-.8,2.47-2.05,2.84-16.09,4.79-31.82,10.5-47.21,17.15-16.95,7.33-31.28,15.54-42.99,24.65-2.05,1.59-3.11,2.44-3.2,2.54-1.04,1.14-2.08,2.04-3.11,2.69-1.39.87-2.93,2.22-4.62,4.03-1.63,1.74-4.6,4.7-8.89,8.87-.2.19-.37.41-.52.66-.37.61-1.57,2.15-3.6,4.6-2.78,3.37-5.41,6.83-7.89,10.38-1.84,2.64-4,6.41-6.49,11.3-7.68,15.12-13.94,28.18-18.78,39.18-4.11,9.34-14.15,32.78-30.1,70.31-1.01,2.39-1.86,4.72-2.54,7-1.34,4.48-4.44,9.69-.08,11.27,2.47.89,4.73,1.8,6.76,2.73.21.1.31.34.23.56l-8.26,21.86c-.19.52-.89.59-1.19.13l-28.09-43.95c-.69-1.08-1-2.37-.87-3.66.55-5.63,1.04-9.25,1.06-15.06.03-7.26,0-13.32-.06-18.18,0-.42.32-.77.74-.78l10.85-.34c.17,0,.34-.04.51-.09,4.43-1.41,7.37-4.22,8.81-8.44.87-2.54.85-7.32.47-9.63-4.17-25.18-9.1-56.1-14.79-92.77-1.87-12.02-4.07-25.89-6.6-41.61-.1-.6-.59-1.56-.74-2.24-.1-.44.23-.87.68-.88,7.01-.15,14.22-.17,21.63-.04,9.89.17,17.05-.22,21.49-1.19,10.38-2.26,19.19-6.6,26.42-13.03,29.48-26.18,28.17-71.83-3.11-96.06-6.37-4.93-13.74-8.45-22.13-10.55-4.68-1.17-12.14-1.76-22.39-1.75-14.85.01-37.01.01-66.47,0-.24,0-.37-.3-.19-.47,14.81-14.13,24.04-31.27,27.67-51.43,1.89-10.49,1.88-21.24-.04-32.25-2.67-15.32-8.82-29.03-18.43-41.13-2.74-3.45-5.49-5.75-8.43-8.91-2.01-2.15-4.41-4.31-7.21-6.46-8.03-6.17-17.03-10.8-26.99-13.88-.05-.02-2.45-.72-7.19-2.1-.36-.11-.74-.15-1.12-.14-2.25.04-3.89-.95-6.03-.97-1.86,0-3.98-.27-6.35-.76-.72-.15-1.46-.22-2.19-.22-5.15,0-8.45,0-9.89.03-2.36.02-4.4.69-6.46.79-1.49.07-3.1.25-4.83.56-14.84,2.61-28.25,8.71-40.22,18.32-3.62,2.91-7.36,5.59-10.16,8.85-9.24,10.75-15.76,21.77-19.57,33.08-5.47,16.23-6.1,33.2-1.89,50.92,2.61,11.03,7.75,22.05,15.42,33.05,2.49,3.56,6.19,6.83,8.75,10.62.68,1,1.77,1.47,2.81,1.88.3.12.24.56-.08.59-4.68.49-9.75,0-13.87.37-27.36,2.47-48.06,20.98-53.64,47.7-.43,2.09-.9,5.9-1.39,11.43" vector-effect="non-scaling-stroke"/>
      <path class="st3" d="M100.54,243.07c46.24,6.25,88.82-26.28,95.09-72.65,6.27-46.38-26.14-89.04-72.38-95.3-46.24-6.25-88.82,26.28-95.09,72.65-6.27,46.38,26.14,89.04,72.38,95.3" vector-effect="non-scaling-stroke"/>
      <path class="st13" d="M510.86,109.95c.03-.32-.33-.52-.59-.33-14.63,10.76-36.25,19.26-54.23,13.45-2.46-.79-4.54-2.01-6.23-3.64-.2-.19-.51-.22-.75-.08-10.33,6.23-21.46,10.28-33.4,12.15-15.52,2.42-30.79,1.48-45.8-2.83-.53-.15-1.07.21-1.13.75-1.57,13.95-2.2,28.06-1.88,42.31.28,12.52.87,30.2,1.76,53.05.33,8.27.83,14.56,1.52,18.87,4.86,30.49,18.37,60.54,48.37,73,10.1,4.2,21.87,5.44,32.25,4.5,18.55-1.69,34.82-9.26,48.82-22.72,1.37-1.31,3.58-2.63,5.15-1.03,2.8,2.85-.71,5.88-3.02,8.16-16.74,16.48-42.05,23.94-65.09,22.21-.55-.05-1,.43-.93.98,1.4,10.66,1.27,21.18-.38,31.57-.69,4.29-2.71,7.43-6.07,9.4-.85.5-1.25,1.51-.98,2.46,3.71,12.73,11.84,20.97,24.41,24.72,16.5,4.93,33.42,2.9,49.44-2.95,19.05-6.95,35.16-17.92,48.33-32.9,4.03-4.59,8.51-10.17,9.59-15.82.25-1.34-.32-2.7-1.45-3.46-8-5.4-9.02-12.04-10.73-21.89-1.12-6.49-1.74-16.17-1.86-29.03-.14-15.43.2-30.88,1.03-46.35.03-.68.64-1.19,1.32-1.1,21.78,2.86,36.91-15.33,40.33-34.86,1.39-7.98,1.24-18.63-4.82-24.1-8.34-7.51-20.13-3.9-26.63,3.87-2.61,3.11-4.72,6.34-6.34,9.67-3,6.17-4.68,9.5-5.03,9.97-.34.44-.76.8-1.25,1.05-6.51,3.37-10.56-3.42-11.37-8.88-.92-6.25-1.65-10.76-2.18-13.54-.39-2.05-1.04-3.83-1.95-5.34-8.71-14.38-14.92-27.35-17.36-43.35-1.4-9.19-1.69-18.51-.87-27.94" vector-effect="non-scaling-stroke"/>
      <path class="st3" d="M129.35,357.95c.09-2.35-.25-5.55.61-8.07,2.06-6.03,7.84-9.9,14.05-9.92,31.41-.1,51.23-.09,59.48.04,2.93.05,5.04.55,6.32,1.52,1.87,1.41,3.35,2.13,4.44,2.15,3.46.05,15.44.07,35.94.05,16.1-.02,32.44-9.13,41.74-21.99,5.01-6.94,8.35-14.45,10.02-22.54,1.69-8.18,1.46-16.36-.69-24.54-4.09-15.57-13.5-27.48-28.25-35.71-2.85-1.59-7.14-3.15-12.88-4.68-3.36-.89-6.75-.73-10.31-1.39-.56-.1-1.12-.15-1.69-.15-23.54.27-49.14.34-76.8.21-1.73,0-3.57.99-5.13.23-.38-.19-.82-.15-1.17.09-12.51,8.95-27.44,14.77-42.88,16.24-6.91.65-10.36,1.27-15.19.61-5.8-.78-8.88-.72-14.58-1.92-11.71-2.45-22.61-7.13-32.7-14.05-1.28-.88-2.8-1.33-4.34-1.29-3.96.09-7.52.08-10.67-.03-3.14-.11-5.63.52-8.71.68-10.04.54-22.09,6.02-29.63,13.46-3.85,3.8-6.21,6.27-7.07,7.41-6.85,9.07-10.51,19.28-10.98,30.62-.14,3.42.34,5.85.26,8.59-.06,1.74.19,3.83.76,6.26,2.09,8.94,5.84,16.74,11.25,23.41,11.9,14.63,27.69,21.35,46.43,21.32,9.96,0,27.8-.03,53.51-.05,1.33-.01,3.05.07,5.15.22.69.05,1.36.23,1.98.51,4.05,1.89,6.62,3.34,7.71,4.37.59.54,2.16,2.15,4.71,4.84.19.21.41.38.66.52l7.03,3.9c.71.39,1.59-.11,1.62-.92" vector-effect="non-scaling-stroke"/>
      <path class="st11" d="M544.9,484.2c5.98-38.42,16.81-75.91,32.48-112.48,2.18-5.09,5.1-10.91,8.77-17.44.13-.22.03-.5-.21-.6l-19.65-7.8c-.21-.08-.45-.01-.57.18-.09.15-.14.4-.13.74.09,3.35-3.76,9.29-5.91,12.24-6.29,8.64-14.24,16.52-23.85,23.63-15.93,11.79-36.64,21.3-56.78,22.73-7.68.55-14.07.39-19.16-.47-17.3-2.91-30.67-11.3-36.09-28.43-2.38-7.53.73-16.71,5.63-22.53.21-.25-.03-.63-.35-.54-3.41.97-6.63,1.92-9.66,2.84-1.71.52-2.97,1.51-3.78,2.98-1.25,2.27-2.32,4.54-3.2,6.81-11.15,28.93-19.8,58.43-25.93,88.52-2.13,10.43-2.9,17.2-4.63,28.73-.05.33,0,.67.14.98.51,1.16.77,2.59.76,4.3-.03,6.73-.18,12.02-.43,15.89-.02.29.2.53.49.55,18.23,1.15,37.61,2.13,58.15,2.96,6.27.25,23.81.29,52.6.11,12.83-.09,28.03-1.04,42.59-1.25.17-.01.32-.13.34-.3.96-6.64,1.78-12.7,2.46-18.18.46-3.71,2.56-3.46,5.42-3.7.26-.02.46-.22.5-.47" vector-effect="non-scaling-stroke"/>
      <path class="st12" d="M136.91,351.17c-1.27,1.16-1.65,3.3-1.15,6.42,3.01,18.9,6.19,38.39,9.56,58.47.06.39.45.63.82.53,6.51-1.78,12.92-3.05,19.22-3.81,5.29-.63,9.06-.66,11.32-.09,8.79,2.25,12.32,8.01,10.59,17.26-.35,1.86-1.1,3.43-2.25,4.72-.19.21-.05.55.23.56,6.47.33,14.71,3.06,17.18,9.44,1.99,5.12,1.04,9.89-2.85,14.3-.18.21-.13.53.11.68,4.58,2.72,6.6,6.52,6.05,11.39-.41,3.6-2.95,7.73-6.12,9.42-.37.2-.42.71-.09.96,5.77,4.43,4.55,11.9.83,17.21-.12.17,0,.4.21.4,8.79.19,17,.25,24.65.2,4.01-.03,6.61-1.61,7.8-4.74,1.16-3.05.22-6.19-.49-10.62-5.41-34.13-9.75-61.3-13.02-81.52-3.09-19.14-5.37-33.95-6.83-44.42-.82-5.89-2.27-9.58-7.84-11.2-.34-.1-.69-.15-1.05-.15l-4.76.03" vector-effect="non-scaling-stroke"/>
      <path class="st15" d="M199.03,346.61c-17.93-.05-35.86-.1-53.79-.17-4.01-.01-6.78,1.56-8.33,4.73" vector-effect="non-scaling-stroke"/>
      <path class="st1" d="M199.03,346.61l2.41.16c.26.02.38.33.19.51l-.76.7c-.06.06-.15.1-.24.09-19.19-.18-38.36-.29-57.51-.34-1.72-.01-3.79,1.14-6.21,3.44" vector-effect="non-scaling-stroke"/>
      <path class="st11" d="M645.21,623.29l-.81-3.87c-.08-.35-.44-.56-.78-.45-3.8,1.17-7.03,1.9-8.15-2.9-7.58-32.3-14.06-65.05-21.1-99.86-.3-1.5.66-2.96,2.16-3.26l.27-.08c1.26-.36,2.57.42,2.84,1.71l20.7,98.71c.05.26.32.42.58.35l120.68-32.4c.22-.06.36-.3.29-.52-5.91-18.96-12.3-40.58-19.18-64.86-5.99-21.14-12.8-41.41-20.43-60.8-4.94-12.54-10.68-23.55-17.22-33.03-12.56-18.19-29.5-32.51-50.81-42.95-8.08-3.96-17.11-7.93-27.08-11.9-.12-.05-.26.01-.32.13-6.09,12.37-11.47,24.94-16.14,37.73-9.88,27.02-17.48,54.79-22.81,83.32-.11.57.3,1.12.88,1.17,1.01.09,1.9.52,2.67,1.29.26.26.45.59.55.95.29,1.04.34,2.48.16,4.31-.6,6.06-1.44,11.62-2.51,16.69-.6,2.88-.91,6.78-4.57,6.53-.45-.04-.83.36-.77.82,4.09,31.68,16.58,63,37.99,86.93,5.25,5.87,11.36,10.8,18.34,14.79,1.18.68,3.18,1.08,3.97,1.79.26.23.67,0,.6-.34" vector-effect="non-scaling-stroke"/>
      <path class="st11" d="M370.2,377.29c.09-.21-.12-.42-.33-.32-20.86,9.72-38.48,23.6-52.86,41.65-6.49,8.15-12.01,18.22-15.95,26.55-15.73,33.16-30.01,66.05-44.39,99.58-1.89,4.42-3.33,8.31-4.31,11.66-.11.39.08.8.45.95l63.92,26.21c.23.1.49-.06.51-.31.8-11.06.83-21.75,1.68-33.18,1.88-25.42,4.08-50.67,6.61-75.76.15-1.5,1.45-2.62,2.96-2.54h.18c1.39.09,2.44,1.3,2.31,2.68l-5.65,64.3c-.02.23.13.44.36.49.22.05.45-.08.52-.3,2.8-8.41,6.19-16.84,10.16-25.29.21-.45.27-.95.19-1.43-.55-3.13-.78-6.59-.69-10.38.09-3.61.04-8.53.26-14.3.18-4.89,3.74-4.58,7.29-4.79.21-.01.38-.17.4-.38,2.91-32.06,10.13-63.39,21.68-93.99,1.22-3.24,2.79-6.94,4.7-11.1" vector-effect="non-scaling-stroke"/>
      <path class="st13" d="M173.56,517.28c5.39,2.02,10.22,5.6,14.49,10.73,1.1,1.32.84,3.3-.55,4.29l-.14.1c-1.48,1.06-3.54.78-4.68-.65-4.65-5.89-10.57-9.32-17.76-10.31-.25-.03-.51.01-.74.11l-2.92,1.39c-1.5.72-3.3-.05-3.83-1.63l-.02-.07c-.58-1.5.04-3.2,1.46-3.97,11.63-6.34,22.71-12.78,33.24-19.31,2.62-1.63,4.44-4.28,5.45-7.97.14-.5.04-1.04-.28-1.46-3.92-5.16-11.57-1.69-16.52.11-14.52,5.29-28.1,11.02-40.75,17.19-1.44.7-3.17-.09-3.58-1.64l-.06-.24c-.46-1.71.37-3.5,1.97-4.26,16.35-7.71,30.61-13.68,42.78-17.89,5.06-1.76,23.32-7.63,17.81-14.58-1.69-2.14-3.96-3.06-6.8-2.75-4.52.49-9.9,1.7-16.15,3.62-14.96,4.61-29.68,9.18-42.79,15.82-1.08.55-2.43.22-3.21-.78-2.77-3.55,2.04-6,4.71-7.12,16.15-6.76,33.4-12.67,51.73-17.72,3.07-.85,5.85-2.13,8.34-3.84,3.15-2.17,3.69-4.76,1.62-7.78-3.93-5.75-12.39-5.94-18.33-4.7-12.85,2.67-25.69,6.05-38.54,10.13-3.55,1.13-8.18,3.19-13.91,6.18-1.3.68-2.85-.27-2.84-1.73v-.42c0-1.97,1.12-3.77,2.87-4.66,5.35-2.73,10.73-4.93,16.14-6.6,9-2.77,17.89-5.19,26.67-7.27,4.5-1.06,11.63-4.48,13.07-9.47.91-3.12-.98-7.68-4.24-8.77-2.47-.82-5.21-1.06-8.23-.71-10.71,1.23-21.54,3.77-32.51,7.62-5.12,1.79-9.15,3.12-12.38,5.75-2.17,1.76-3.54,3.25-4.1,4.48-5.23,11.52-8.06,23.31-8.48,35.38-.06,1.69.09,3.51.45,5.46,1.16,6.21,2.54,12.57,4.15,19.1,3.55,14.37,9.82,27.44,18.82,39.19,2.62,3.42,6.85,8.2,12.69,14.35,3.22,3.38,7.44,6.24,10.79,9.95.88.98,1.55,2.13,1.95,3.38,7.99,24.86,16.13,48.83,24.44,71.91,4.85,13.49,10.71,27.73,17.57,42.71,5.97,13.05,12.92,24.84,20.84,35.36,17.84,23.71,45.6,36.26,71.37,14.7,8.91-7.45,16.07-16.12,21.48-26,.3-.53.45-1.13.45-1.73l.61-109.27c0-.57-.34-1.08-.87-1.3l-54.98-22.55c-.27-.11-.59.03-.68.32-2.87,9.29-6,17.78-9.4,25.48-.3.68-.21,1.47.23,2.07l35.99,49.07c.91,1.23.59,2.98-.69,3.82l-.15.1c-1.45.94-3.38.6-4.43-.77-13.7-17.93-26.13-34.94-37.3-51.03-5.53-7.95-15.65-23.59-30.36-46.91-1.98-3.15-3.09-5.46-3.34-6.93-.07-.42-.08-.85-.04-1.27,1.06-11.49,1.48-23.18,1.26-35.07,0-.29-.25-.52-.54-.52l-17.86-.1c-.9,0-1.78.23-2.56.68l-17.96,10.37c-.34.2-.3.69.06.83" vector-effect="non-scaling-stroke"/>
      <path class="st16" d="M124.09,457.48c-.02.21.08.36.29.45.11.05.24,0,.28-.12.05-.13.06-.26.02-.37-.11-.31-.57-.28-.59.04" vector-effect="non-scaling-stroke"/>
      <path class="st5" d="M521.73,587.11c.29-10.34-7.86-18.96-18.2-19.25l-91.08-2.54c-10.34-.29-18.96,7.86-19.25,18.2l-.49,17.71c-.29,10.34,7.86,18.96,18.2,19.25l91.08,2.54c10.34.29,18.96-7.86,19.25-18.2l.49-17.71" vector-effect="non-scaling-stroke"/>
      <path class="st13" d="M459.43,707.01c-.31.05-.44.42-.22.64l11.9,11.89c.15.15.38.19.57.11,2.26-1.02,4.63-1.64,7.12-1.85,1.43-.12,2.72.88,2.95,2.3l.04.26c.24,1.49-.72,2.92-2.2,3.25-5.74,1.28-9.79,2.43-12.14,3.45-12.81,5.55-24.54,11.82-35.18,18.81-5.4,3.54-12.86,7.98-8.78,14.42,3.79,5.97,11.3,5.98,17.46,4.02,7.85-2.49,14.83-4.76,20.95-6.8,2.51-.83,4.47-1.38,5.88-1.65,1.36-.26,2.63.75,2.69,2.13v.27c.08,1.61-.91,3.08-2.43,3.61-13.22,4.68-21.57,7.41-25.05,8.2-2.93.67-5.65.73-6.05,3.63-.17,1.22.04,2.5.61,3.85,2.56,6.05,7.56,8.66,15,7.83,6.99-.77,16.37-2.35,28.13-4.73,1.56-.31,3.03.83,3.12,2.41v.16c.14,1.75-1.07,3.31-2.79,3.62l-26.37,4.77c-.58.11-1.01.59-1.05,1.17-.37,4.61,4.12,8.77,8.37,9.35,3.17.43,7.27.42,12.29-.05,7.05-.65,14.07-1.59,21.08-2.83,1.58-.28,3.07.8,3.3,2.39l.02.12c.24,1.64-.84,3.19-2.47,3.53-7.48,1.57-14.96,2.54-22.45,2.91-.73.04-1.04.94-.48,1.41,4.01,3.35,8.43,5.2,13.26,5.57,13.7,1.04,26.99-1.29,39.87-6.99,12.27-5.42,24.13-11.83,35.6-19.23,4.4-2.84,8.22-4.32,13.07-5.31,37.87-7.77,77.36-15.57,112.21-26.81,14.8-4.77,28.19-10.63,40.16-17.57,14.19-8.22,27.09-19.44,31.02-35.54,2.31-9.41,3.23-19.46,2.78-30.15-1.15-26.9-5.65-55.01-10.52-82.66-.06-.35-.41-.57-.76-.48l-98.58,26.46c-.57.15-.9.74-.74,1.31l14.06,49.25c.07.27.36.41.62.3,5-2.12,10.23-3.46,15.7-4.01,1.47-.15,2.77.94,2.89,2.42v.18c.14,1.62-1.02,3.07-2.63,3.3-11,1.59-21.2,6.36-31.72,11.5-20.39,9.98-37.01,18.03-49.85,24.14-15.62,7.43-32.37,14.85-49.54,19.97-3.69,1.1-7.46,1.02-11.3-.24-10.47-3.44-29.41-12.47-44.27-16.65-10.9-3.06-23.39-3.01-35.15-1.36" vector-effect="non-scaling-stroke"/>
      <path class="st3" d="M351.44,625.18c-.13.13-.14.34-.03.48,3.19,3.87,6.24,8.17,9.15,12.9,1.94,3.15,4.82,6.73,8.47,7.97,3.68,1.25,6.18,1.86,8.89,4.89,11.19,12.52,23.8,26.41,37.81,41.68.09.1.25.11.34.02l4.92-4.41c.12-.1.12-.28.02-.4l-37.37-41.66c-1.2-1.34-2.1-2.91-2.65-4.61-1.61-4.95-2.97-10.3-7.26-13.44-6.48-4.73-11.15-8.27-14-10.6-.35-.28-.86-.26-1.18.06l-7.11,7.12" vector-effect="non-scaling-stroke"/>
      <path class="st3" d="M649.07,674.87l9.77-4.65c.24-.11.36-.39.28-.64-1.73-5.71-4.39-14.88-8-27.5-.59-2.07-.77-4.31-1.87-6.33-.09-.16-.33-.1-.33.08v38.95c0,.07.08.12.15.09" vector-effect="non-scaling-stroke"/>
      <path class="st6" d="M463.31,720.87c-5.52-5.63-13.08-13.21-22.69-22.75-3.08-3.07-.16-5.34.86-8.04.12-.32.09-.67-.08-.97-1.84-3.12-4.04-7.27-8.04-3.59-2.74,2.51-6.39,6.58-9.8,9.46-4.89,4.11-8.94,7.62-12.17,10.52-.95.86-1.72,1.75-2.29,2.66-.2.32-.25.71-.14,1.07.69,2.31,2.05,4.02,4.07,5.13.52.29,1.15.3,1.68.03,1.99-1,5.56-3.29,7.54-1.05,5.09,5.74,10.4,12.44,15.95,20.09.45.62,1.31.81,1.97.42l8.48-4.89c.44-.25.52-.85.16-1.21l-6.76-6.75c-1.1-1.1-1.1-2.9,0-4l.42-.42c1.02-1.01,2.64-1.08,3.72-.15l7.55,6.45c.12.1.23.21.32.34l1.51,2.04c.27.37.78.48,1.18.25l6.44-3.72c.33-.19.39-.65.12-.92" vector-effect="non-scaling-stroke"/>
      <path class="st4" d="M92.34,150.93c1.03-4.04,2.62-11.09,4.77-21.15,1.03-4.84.64-9.06.54-15.99-.03-2.36-.45-3.77-2.97-4.09-2.08-.26-4.53-.53-7.35-.81-1.24-.12-2.41.62-2.83,1.81-1.67,4.73-4.01,10.74-5.05,16.46-.16.88-3.02,14.02-8.59,39.42-.04.23-.18.43-.38.56-2.69,1.77-4.14,3.38-4.36,4.83-.46,3.15-1.03,6.6-1.7,10.33-.63,3.53-3.57,7.85-4.77,11.25-2.06,5.86-4.04,17.36-.58,22.64,1.89,2.88,4.86,4.65,8.9,5.31,9,1.47,13.51-2.69,16.43-10.57,1.58-4.26,3.15-8.82,2.99-13.26-.01-.18.13-.33.31-.33,19.79,0,36.15,0,49.1,0,.23,0,.47-.06.73-.18.28-.13.47-.2.58-.23.31-.08.65.04.84.31,6.61,8.9,18.79,8.69,23.74-1.55.15-.31.23-.65.23-.99l.03-5.69c0-.14-.01-.28-.05-.42l-12.03-49.65c-.04-.18.03-.36.17-.46,2.17-1.53,4.11-3.36,5.83-5.48,5.77-7.11,4.36-17.53-1.81-24-4.04-4.23-9.06-6.53-15.07-6.89-3.15-.18-4.7,1.49-3.99,4.71,1.77,7.98,2.7,12.08,2.79,12.3.38.96-.18,2.03-1.19,2.26l-4.22.98c-1.28.3-2.56-.53-2.83-1.82-.59-2.9-1.51-7.32-2.76-13.27-.31-1.48-1.49-2.57-2.89-2.66-3.77-.24-8.72,4.85-10.65,7.67-1.83,2.69-2.89,5.44-3.18,8.25-.86,8.15,2.36,14.46,9.66,18.95.63.38,2.81,1.32,6.55,2.83.28.11.49.36.55.67l1.88,8.94c.06.28-.26.47-.48.29-5.51-4.63-11.12-9.21-16.83-13.74-1.39-1.11-2.8-1.08-4.22.07-4.95,3.99-10.07,8.23-15.36,12.7-.22.19-.55-.03-.48-.31" vector-effect="non-scaling-stroke"/>
      <path class="st2" d="M122.58,111.11c-4.16,2.96-6.61,7.93-6.2,13.1.59,7.38,6.71,12.03,13.74,13.69,1.45.34,2.57,1.5,2.86,2.97,5.96,29.88,9.23,46.45,9.82,49.71.47,2.64,1.12,4.43,1.94,5.36,3.26,3.72,9.34,3.5,12.1-.51,1.61-2.33.78-6.02.03-8.95-1.09-4.27-4.96-20.19-11.59-47.78-.26-1.1.18-2.25,1.11-2.89,4.76-3.25,8.96-7.76,8.79-13.85-.19-7.17-6.1-12.74-12.96-14.72-.33-.09-.63.2-.54.53.18.71.83,3.57,1.95,8.57.59,2.65.75,4.38.46,5.19-1.7,4.72-5.93,5.22-10.97,5.73-1.4.15-2.58-.02-3.54-.51-3.2-1.6-4.05-3.1-4.81-7.09-.93-4.83-1.45-7.59-1.58-8.3-.05-.28-.38-.42-.61-.25" vector-effect="non-scaling-stroke"/>
      <path class="st14" d="M87.54,124.24c1.04.51,1.87.74,2.48.67" vector-effect="non-scaling-stroke"/>
      <path class="st4" d="M90.02,124.91c.67.23,1.25.34,1.72.32.33-.02.58-.28.58-.61v-9.39c0-.46-.38-.84-.84-.84h-1.78c-.28,0-.52.17-.62.43l-3.25,8.6c-.14.36.07.76.44.86.31.08.73.07,1.27-.04" vector-effect="non-scaling-stroke"/>
      <path class="st9" d="M90.02,124.91l1.24-1.34c.18-.19.28-.45.28-.71l-.02-6.29c0-.93-1.05-1.47-1.81-.93-.24.17-.49.6-.75,1.28-.96,2.5-1.43,4.94-1.42,7.32" vector-effect="non-scaling-stroke"/>
      <path class="st14" d="M78.37,168.4c.71.38,1.47.55,2.28.51" vector-effect="non-scaling-stroke"/>
      <path class="st4" d="M80.65,168.91c.59.27,1.08.41,1.47.41.34,0,.64-.24.72-.58l8.39-37.88c.03-.14-.06-.28-.2-.31l-5.93-1.32c-.15-.03-.3.06-.33.21l-8.4,37.91c-.07.32.09.64.38.78.39.19.93.28,1.62.27" vector-effect="non-scaling-stroke"/>
      <path class="st9" d="M80.65,168.91l1.48-1.32c.28-.25.44-.61.43-.98-.03-1.38.26-2.73.87-4.06.03-.07.05-.14.07-.21l6.2-29.83c.15-.74-.31-1.46-1.05-1.62l-1.59-.36c-.76-.17-1.52.31-1.69,1.07l-7.47,32.84c-.03.13-.08.25-.15.36-.61,1.07-.4,2.27.62,3.6" vector-effect="non-scaling-stroke"/>
      <path class="st4" d="M99.59,192.5c.24,0,.44-.19.43-.43-.06-3.79-.09-10.47-.08-20.03,0-1.96.83-3.03,2.8-3.03,8.41-.01,13.63-.01,15.68,0,1.31.02,2.37,1.09,2.36,2.4l-.11,20.53c0,.26.21.47.47.47l13.25.08c.27,0,.48-.22.48-.49l-.05-12.84c0-.48-.05-.96-.14-1.43l-3.36-16.67c-.06-.32-.24-.62-.5-.83l-20.03-16.42c-.26-.22-.64-.22-.91,0l-18.88,15.47c-.27.22-.45.52-.53.86l-2.2,9.91c-.07.31.04.64.29.85,2.03,1.68,2.73,3.56,2.12,5.65-1.01,3.46-1.87,6.45-2.58,8.96-.62,2.17-.61,4.56-.68,6.25-.01.36.28.66.64.66l11.53.07" vector-effect="non-scaling-stroke"/>
      <path class="st7" d="M71.43,173.41c-1.03,6.61-1.77,10.58-2.22,11.89-1.12,3.24-3.59,7.06-4.62,10.32-1.25,4-1.95,8.29-2.08,12.87-.12,4.19,1.35,7.01,5.64,7.96,6.87,1.52,9.22-1.54,11.45-7.24,1.76-4.5,2.62-9.14,2.57-13.91-.04-4.9,0-7.7.13-8.39.63-3.43,1.61-7.06,2.93-10.87.18-.51-.15-1.07-.69-1.16l-12.26-2.08c-.4-.07-.78.2-.85.61" vector-effect="non-scaling-stroke"/>
      <path class="st4" d="M115.21,174.39c0-.17-.13-.3-.3-.3h-9.18c-.17,0-.3.13-.3.3v17.7c0,.17.13.3.3.3h9.18c.17,0,.3-.13.3-.3v-17.7" vector-effect="non-scaling-stroke"/>
      <path class="st10" d="M152.33,187.36c-.34-1.36-1.71-2.18-3.05-1.84l-.31.08c-1.35.33-2.17,1.7-1.84,3.05l.71,2.83c.34,1.36,1.71,2.18,3.05,1.84l.31-.08c1.35-.33,2.17-1.7,1.84-3.05l-.71-2.83" vector-effect="non-scaling-stroke"/>
      <path class="st19" d="M385.2,155.6c-4.49.73-8.37,2.67-11.63,5.81-1.78,1.71-2.71,3.13-2.79,4.27-.17,2.37.9,3.62,3.19,3.74.74.04,1.32-.22,1.73-.77,2.76-3.7,6.28-5.89,10.55-6.59,4.28-.69,8.31.28,12.1,2.91.57.39,1.19.45,1.88.18,2.14-.84,2.75-2.36,1.84-4.56-.43-1.05-1.77-2.11-4-3.17-4.08-1.94-8.37-2.55-12.87-1.82" vector-effect="non-scaling-stroke"/>
      <path class="st19" d="M472.05,163.17c6.7,1.54,10.36,4.84,15.27,8.81,1.31,1.06,3.25.73,4.14-.71l.09-.15c.91-1.48.67-3.4-.58-4.61-5.53-5.34-11.33-8.64-17.41-9.89-6.02-1.53-12.68-1.09-19.98,1.3-1.66.54-2.71,2.16-2.54,3.89l.02.18c.16,1.67,1.77,2.82,3.41,2.44,6.15-1.43,10.89-2.8,17.58-1.26" vector-effect="non-scaling-stroke"/>
      <path class="st13" d="M390.46,209.64c4.11,0,7.44-4.78,7.44-10.67s-3.33-10.67-7.44-10.67-7.44,4.78-7.44,10.67,3.33,10.67,7.44,10.67" vector-effect="non-scaling-stroke"/>
      <path class="st13" d="M465.14,210.35c4.1.14,7.59-4.5,7.79-10.37.19-5.87-2.98-10.73-7.08-10.86-4.1-.14-7.59,4.5-7.79,10.37-.19,5.87,2.98,10.73,7.08,10.86" vector-effect="non-scaling-stroke"/>
      <path class="st13" d="M409.36,232.33c3.02-6.25,6.37-14.27,10.04-24.05,1.69-4.53,3.05-8.87,4.07-13.02.37-1.5-.59-3.01-2.11-3.31l-.26-.06c-1.62-.32-3.21.64-3.69,2.22-3.54,11.87-6.82,19.29-12.95,33.1-2.29,5.16-2.43,8.58,1.19,12.7,5.15,5.86,11.75,8.13,19.8,6.81,2.73-.45,4.62-.98,5.67-1.6.31-.18.58-.42.78-.71,1.21-1.67,1.08-3.26-.38-4.77-.55-.56-1.36-.8-2.12-.62-6.79,1.59-12.27,2.79-17.93-2.27-1.21-1.08-1.96-2.15-2.23-3.2-.1-.41-.06-.84.12-1.22" vector-effect="non-scaling-stroke"/>
      <path class="st19" d="M558.8,222.7c1.53.71,3.34-.01,3.96-1.58,3.69-9.38,5.59-15.68,13.41-20.6,1.45-.91,1.83-2.85.83-4.23l-.13-.18c-1.09-1.51-3.12-1.97-4.76-1.09-7.6,4.1-12.72,15.55-15.24,23.47-.53,1.65.26,3.44,1.84,4.17l.09.04" vector-effect="non-scaling-stroke"/>
      <path class="st13" d="M442.81,272.7c-8.12,2.12-16.78,1.14-25.18-1.84-1.57-.55-3.29.28-3.83,1.85l-.05.15c-.54,1.56.24,3.27,1.76,3.89,9.02,3.7,19.65,4.93,29,2.48,9.36-2.45,18.03-8.72,24.08-16.36,1.03-1.29.87-3.16-.37-4.25l-.11-.11c-1.24-1.1-3.15-.99-4.25.27-5.87,6.7-12.93,11.8-21.05,13.92" vector-effect="non-scaling-stroke"/>
      <path class="st5" d="M74.47,198.07c.17-.78-.32-1.55-1.1-1.71h-.06c-.78-.18-1.54.32-1.71,1.09l-2.55,11.79c-.17.78.32,1.55,1.1,1.71h.06c.78.18,1.54-.32,1.71-1.09l2.55-11.79" vector-effect="non-scaling-stroke"/>
      <path class="st18" d="M390.44,208.18c3.3,0,5.98-4.16,5.98-9.29s-2.68-9.29-5.98-9.29-5.98,4.16-5.98,9.29,2.68,9.29,5.98,9.29" vector-effect="non-scaling-stroke"/>
      <path class="st18" d="M465.29,209.07c3.35.07,6.14-4.04,6.25-9.18.11-5.14-2.52-9.37-5.86-9.43-3.35-.07-6.14,4.04-6.25,9.18-.11,5.14,2.52,9.37,5.86,9.43" vector-effect="non-scaling-stroke"/>
      <path class="st18" d="M408.28,234.45c-.35-1.01-.3-2.13.15-3.11,4.12-8.95,7.53-17.13,10.24-24.55,1.43-3.9,2.52-7.75,3.29-11.56.18-.9-.44-1.77-1.35-1.89h-.07c-.93-.13-1.8.46-2.04,1.37-1.75,6.75-3.78,12.69-6.07,17.82-5.03,11.25-7.6,17.04-7.72,17.35-1.13,3.01-.7,5.82,1.31,8.43,5.74,7.47,14.98,9.06,23.68,6.09,1.01-.34,1.59-1.4,1.33-2.44l-.03-.11c-.25-1.04-1.31-1.68-2.36-1.43-7.45,1.82-14.31,1.97-19.32-4.12-.45-.55-.8-1.17-1.04-1.85" vector-effect="non-scaling-stroke"/>
      <path class="st4" d="M91.96,278.13c-.07-1.61-1.68-2.86-3.59-2.78-1.92.08-3.41,1.46-3.34,3.07.07,1.61,1.68,2.86,3.59,2.78,1.92-.08,3.41-1.46,3.34-3.07" vector-effect="non-scaling-stroke"/>
      <path class="st4" d="M211.21,278.21c-.04-1.62-1.61-2.9-3.52-2.86-1.9.04-3.42,1.39-3.38,3.02.04,1.62,1.61,2.9,3.52,2.86,1.9-.04,3.42-1.39,3.38-3.02" vector-effect="non-scaling-stroke"/>
      <path class="st4" d="M240.21,278.19c-.04-1.62-1.62-2.9-3.53-2.85-1.9.05-3.41,1.41-3.37,3.03.04,1.62,1.62,2.9,3.53,2.85,1.9-.05,3.41-1.41,3.37-3.03" vector-effect="non-scaling-stroke"/>
      <path class="st4" d="M65.67,278.15c-.06-1.62-1.65-2.89-3.56-2.82-1.9.07-3.4,1.45-3.34,3.07.06,1.62,1.65,2.89,3.56,2.82,1.9-.07,3.4-1.45,3.34-3.07" vector-effect="non-scaling-stroke"/>
      <path class="st4" d="M56.16,277.55c0-.17-.13-.3-.3-.3h-4.94c-.17,0-.3.13-.3.3v21.36c0,.17.13.3.3.3h4.94c.17,0,.3-.13.3-.3v-21.36" vector-effect="non-scaling-stroke"/>
      <path class="st4" d="M138.59,284.15c-7.38-4.91-14.81,4.45-10.77,11.44,1.98,3.41,5.3,4.54,9.94,3.38.18-.05.4-.2.67-.46.24-.24.43-.37.58-.38.24-.04.46.13.5.37,0,.07.02.12.03.16.15.33.48.55.84.55l3.74-.02c.29,0,.52-.23.52-.52v-21.12c0-.16-.14-.29-.3-.29h-4.75c-.15,0-.26.12-.26.26v6.24c0,.38-.42.6-.74.39" vector-effect="non-scaling-stroke"/>
      <path class="st4" d="M219.76,284.13c-.32.21-.75,0-.75-.39v-6.28c0-.14-.12-.26-.27-.26h-4.77c-.16,0-.29.14-.29.3l.02,21.24c0,.29.23.52.52.52h3.76c.37.01.7-.21.84-.55.02-.03.03-.08.03-.16.04-.24.27-.4.51-.37.14.01.34.14.58.38.27.26.5.42.67.46,4.68,1.16,8,.03,9.99-3.41,4.06-7.03-3.43-16.43-10.84-11.48" vector-effect="non-scaling-stroke"/>
      <path class="st4" d="M253.59,284.15c-7.38-4.92-14.82,4.44-10.78,11.43,1.98,3.42,5.29,4.55,9.94,3.39.17-.05.4-.2.67-.46.24-.24.43-.37.58-.38.24-.03.46.13.5.37,0,.07.02.13.03.16.15.33.48.55.84.55h3.74c.29,0,.52-.24.52-.53v-21.13c0-.16-.13-.29-.29-.29h-4.75c-.14,0-.26.12-.26.26v6.24c0,.38-.42.6-.74.39" vector-effect="non-scaling-stroke"/>
      <path class="st4" d="M28.11,280.06c.05-.14,0-.29-.14-.35-3.72-1.83-7.45-2.21-11.2-1.12-6.49,1.89-7.23,9.91-.28,11.77,3.51.94,5.47,1.46,5.88,1.55,1.13.26,1.53,1.67.69,2.48-2,1.94-7.61.3-9.44-.9-.3-.2-.71-.07-.84.27l-1.24,3.28c-.11.29.02.61.3.75,4.67,2.21,9.04,2.55,13.13,1,2.59-.99,4.01-2.85,4.24-5.59.46-5.33-6.42-6.22-10.13-7.13-1.43-.35-2-1.06-1.72-2.13.08-.3.26-.57.52-.74,1.84-1.22,4.65-1.02,8.44.61.17.08.37-.01.44-.19l1.35-3.56" vector-effect="non-scaling-stroke"/>
      <path class="st4" d="M280.96,278.47c-.18,0-.32.15-.31.33l.72,12.35c.01.16.15.29.31.29l3.98.03c.17,0,.3-.12.31-.28l1.08-12.35c.02-.18-.13-.33-.31-.33l-5.78-.04" vector-effect="non-scaling-stroke"/>
      <path class="st4" d="M95.99,279.47c-.33,0-.6.27-.6.61v2.64c0,.29-.24.53-.53.53h-1.54c-.28,0-.5.22-.5.5v2.89c0,.3.25.55.55.55h1.31c.38,0,.68.3.68.68.02,5.33-1.14,10.91,5.43,11.55,1.21.12,2.57,0,4.1-.35.43-.1.69-.54.57-.96l-.66-2.33c-.13-.45-.59-.71-1.04-.6-.57.13-1.2.12-1.89-.03-.51-.11-.87-.56-.87-1.09v-6.24c0-.33.27-.6.6-.6h2.42c.32,0,.58-.26.58-.59v-2.79c0-.33-.26-.59-.59-.59h-2.53c-.27,0-.48-.21-.48-.48v-2.57c0-.4-.33-.73-.73-.73h-4.28" vector-effect="non-scaling-stroke"/>
      <path class="st4" d="M9.72,285.94c0-1.77-1.43-3.2-3.2-3.2s-3.2,1.43-3.2,3.2,1.43,3.2,3.2,3.2,3.2-1.43,3.2-3.2" vector-effect="non-scaling-stroke"/>
      <path class="st4" d="M48.66,291.12c-.03-4.64-4.16-8.37-9.22-8.33-5.06.04-9.13,3.82-9.1,8.45.03,4.64,4.16,8.37,9.22,8.33,5.06-.04,9.13-3.82,9.1-8.45" vector-effect="non-scaling-stroke"/>
      <path class="st4" d="M67.1,291.18c-.01,2.65,1.09,4.81,3.3,6.47,3.45,2.58,10.92,2.94,13.15-1.95.11-.26.01-.56-.23-.7l-3.07-1.77c-.36-.21-.82-.08-1.03.28l-.38.66c-.12.21-.3.38-.52.48-2.88,1.43-5.68-.23-5.67-3.46,0-3.23,2.82-4.87,5.69-3.43.21.11.39.28.52.49l.37.66c.21.36.67.49,1.03.28l3.08-1.75c.25-.14.35-.44.23-.7-2.2-4.9-9.67-4.58-13.13-2.02-2.22,1.65-3.34,3.8-3.34,6.46" vector-effect="non-scaling-stroke"/>
      <path class="st4" d="M161.14,283.93v-.33c0-.19-.16-.35-.36-.35h-4.63c-.18,0-.33.15-.33.33v15.34c0,.17.13.3.3.3h4.95c.15,0,.28-.13.28-.28v-7.6c0-.14.02-.28.06-.42.65-2.39,2.11-3.4,4.39-3.03.44.07.83-.27.83-.71v-3.58c0-.47-.41-.83-.88-.77-1.53.19-2.75,1.06-3.8,1.59-.37.19-.81-.08-.81-.49" vector-effect="non-scaling-stroke"/>
      <path class="st4" d="M173.95,292.42l10.54.06c.31,0,.58-.23.62-.54.73-5.4-3.97-9.13-8.86-9.04-5.14.09-9.22,4.06-8.53,9.29,1,7.62,9.9,8.82,15.5,5.56.46-.27.54-.9.16-1.28l-1.73-1.74c-.39-.38-1-.44-1.45-.14-2.23,1.48-4.48,1.16-6.74-.95-.47-.44-.15-1.22.49-1.22" vector-effect="non-scaling-stroke"/>
      <path class="st4" d="M186.38,291.23c0,2.66,1.12,4.81,3.34,6.45,3.46,2.56,10.93,2.87,13.13-2.03.11-.26,0-.56-.23-.7l-3.08-1.75c-.36-.21-.82-.08-1.03.29l-.38.66c-.12.21-.3.38-.51.48-2.87,1.45-5.68-.19-5.69-3.42-.01-3.23,2.78-4.89,5.67-3.46.21.1.39.27.51.48l.38.66c.21.36.67.49,1.03.28l3.07-1.77c.24-.15.34-.45.23-.7-2.24-4.89-9.7-4.52-13.14-1.94-2.21,1.66-3.31,3.81-3.3,6.47" vector-effect="non-scaling-stroke"/>
      <path class="st4" d="M272.84,298.36s-.01.12-.02.25c-.04.33.21.61.54.61l3.95.02c.39,0,.71-.31.7-.7-.03-2.66-.04-5.2,0-7.61.12-9.09-8.73-9.41-14.87-6.46-.26.13-.37.44-.24.7l1.32,2.8c.13.28.48.38.74.21,1.2-.77,2.61-1.15,4.22-1.16,1.06-.01,2.07.44,2.77,1.23l.25.28c.41.46.11,1.2-.51,1.23-2.44.14-6.79-.35-8.8,2.23-2.05,2.62-.55,6.29,2.62,7.16,1.49.41,5.23.61,6.23-.82.25-.35.4-.54.44-.55.36-.1.71.2.67.58" vector-effect="non-scaling-stroke"/>
      <path class="st4" d="M64.99,283.58c0-.19-.15-.34-.34-.34h-4.92c-.19,0-.34.15-.34.34v15.3c0,.19.15.34.34.34h4.92c.19,0,.34-.15.34-.34v-15.3" vector-effect="non-scaling-stroke"/>
      <path class="st4" d="M91.15,283.58c0-.18-.14-.32-.32-.32h-4.88c-.18,0-.32.14-.32.32v15.32c0,.18.14.32.32.32h4.88c.18,0,.32-.14.32-.32v-15.32" vector-effect="non-scaling-stroke"/>
      <path class="st4" d="M118.81,283.53v8.34c0,1.48-1.12,2.73-2.6,2.88l-.46.05c-1.48.15-2.76-1.01-2.76-2.5v-8.69c0-.2-.17-.37-.37-.37h-4.87c-.19,0-.35.16-.35.35-.06,5.24-.03,8.57.08,10,.44,5.5,6.89,7.78,10.69,4.48.29-.25.74-.04.74.34v.36c0,.25.2.45.45.45h4.54c.25,0,.46-.2.46-.45v-15.21c0-.18-.14-.32-.32-.32h-4.95c-.15,0-.28.13-.28.29" vector-effect="non-scaling-stroke"/>
      <path class="st4" d="M210.36,283.51c0-.14-.12-.26-.26-.26h-5.02c-.14,0-.26.12-.26.26v15.46c0,.14.12.26.26.26h5.02c.14,0,.26-.12.26-.26v-15.46" vector-effect="non-scaling-stroke"/>
      <path class="st4" d="M239.36,283.51c0-.15-.12-.27-.27-.27h-5c-.15,0-.27.12-.27.27v15.44c0,.15.12.27.27.27h5c.15,0,.27-.12.27-.27v-15.44" vector-effect="non-scaling-stroke"/>
      <path class="st4" d="M3.86,303.84h5.32c.13,0,.23-.11.23-.24v-5.85c-.02-3.92-.63-7.09-1.39-7.09h-3.04c-.76,0-1.37,3.18-1.36,7.11v5.85c.01.12.11.22.24.22" vector-effect="non-scaling-stroke"/>
      <path class="st4" d="M287.14,296.57c.04-1.68-1.43-3.07-3.28-3.12-1.85-.04-3.39,1.28-3.43,2.96-.04,1.68,1.43,3.07,3.28,3.12,1.85.04,3.39-1.28,3.43-2.96" vector-effect="non-scaling-stroke"/>
      <path class="st18" d="M443.27,274.02c-8.34,2.18-17.02,1.46-26.05-2.15-.66-.27-1.42-.02-1.81.58-1.37,2.13.98,3.46,2.64,3.99,6,1.9,12.15,2.72,18.45,2.45,2.61-.11,5.18-.5,7.74-1.17,2.55-.66,4.98-1.59,7.31-2.76,5.63-2.85,10.59-6.58,14.89-11.17,1.19-1.27,2.59-3.58.35-4.77-.63-.34-1.41-.18-1.86.38-6.1,7.57-13.32,12.44-21.66,14.62" vector-effect="non-scaling-stroke"/>
      <path class="st4" d="M135.76,295.25c1.97.03,3.59-1.75,3.63-3.98.03-2.23-1.54-4.07-3.51-4.1-1.97-.03-3.59,1.75-3.63,3.98-.03,2.23,1.54,4.07,3.51,4.1" vector-effect="non-scaling-stroke"/>
      <path class="st4" d="M222.46,295.26c1.94.06,3.58-1.7,3.66-3.93.07-2.24-1.45-4.1-3.39-4.16-1.94-.06-3.58,1.7-3.66,3.93-.07,2.24,1.45,4.1,3.39,4.16" vector-effect="non-scaling-stroke"/>
      <path class="st4" d="M250.78,295.25c1.98.03,3.61-1.76,3.64-3.99.03-2.23-1.55-4.06-3.52-4.09-1.98-.03-3.61,1.76-3.64,3.99-.03,2.23,1.55,4.06,3.52,4.09" vector-effect="non-scaling-stroke"/>
      <path class="st4" d="M39.47,295.27c1.96,0,3.55-1.81,3.55-4.04s-1.58-4.06-3.53-4.06-3.55,1.81-3.55,4.04,1.58,4.06,3.53,4.06" vector-effect="non-scaling-stroke"/>
      <path class="st4" d="M173.38,289.64l6.28.06c.08,0,.15-.06.15-.15v-.14c0-1.39-1.38-2.54-3.12-2.56h-.3c-1.73-.02-3.15,1.1-3.16,2.5v.14c0,.08.06.15.15.15" vector-effect="non-scaling-stroke"/>
      <path class="st4" d="M271.65,292.81l-3.74.18c-.37.02-.66.34-.64.71v.09c.07,1.39,1.18,2.46,2.5,2.4l.34-.02c1.31-.06,2.32-1.23,2.26-2.62v-.09c-.03-.37-.34-.66-.72-.65" vector-effect="non-scaling-stroke"/>
      <path class="st0" d="M462.13,577.37l-4,.02c-.33,0-.59.26-.59.59l.09,26.83c0,1.43,1.15,2.59,2.54,2.59h.12c1.4-.01,2.53-1.17,2.52-2.61l-.09-26.83c0-.32-.27-.59-.59-.59" vector-effect="non-scaling-stroke"/>
      <path class="st0" d="M414.58,589.67c-.18,0-.32-.14-.32-.32v-9.5c0-.92-.74-1.67-1.66-1.67h-1.07c-1.42,0-2.57,1.16-2.57,2.58v23.52c0,.47.39.86.86.86h2.96c.74,0,1.34-.6,1.34-1.34v-9.09c0-.34.28-.61.62-.61h11.27c.32,0,.58.26.58.58v9.79c0,.86.7,1.56,1.57,1.56h.4c1.35,0,2.45-1.1,2.45-2.45v-23.62c0-.43-.35-.78-.78-.78h-2.76c-.45,0-.82.36-.82.81v9.15c0,.29-.23.53-.52.53h-11.55" vector-effect="non-scaling-stroke"/>
      <path class="st0" d="M452.77,597.51c1.23,0,2.05-1.28,1.54-2.4-.55-1.19-.86-2.1-.93-2.73-.42-3.77-3.87-6.34-7.37-6.61-5.32-.41-8.83,1.78-10.54,6.59-.11.31-.18.64-.2.98-.15,3.07-.19,4.83-.1,5.28.71,3.53,2.72,5.96,6.02,7.29,4.27,1.72,8.21.87,11.82-2.56.38-.37.45-.95.17-1.39l-.32-.49c-.57-.9-1.78-1.14-2.66-.53-1.79,1.25-4.16,1.79-7.09,1.63-1.25-.07-2.39-.74-3.06-1.79l-.71-1.12c-.59-.93.08-2.15,1.18-2.15h12.25" vector-effect="non-scaling-stroke"/>
      <path class="st0" d="M467.53,614.46l3.1.02c.38,0,.68-.3.69-.68l.04-7.69c0-.3.34-.49.59-.32,1.73,1.17,3.57,1.87,5.52,2.11.34.04.68.03,1.01-.04,3.98-.82,6.44-3.06,7.38-6.73.5-1.97.22-4.27.27-6.59,0-.37-.03-.73-.12-1.09-1.45-5.91-5.33-8.02-11.64-6.33-.09.02-.16.06-.23.11l-1.99,1.45c-.39.29-.94.01-.94-.48v-.65c.01-.47-.37-.86-.84-.86h-2c-.8-.02-1.45.63-1.45,1.42l-.14,25.59c-.01.42.33.76.75.76" vector-effect="non-scaling-stroke"/>
      <path class="st0" d="M497.93,600.03c-.25.66-1.19.63-1.41-.04l-3.63-11.32c-.39-1.21-1.53-2.01-2.8-1.97h-.06c-1.12.06-1.89,1.15-1.56,2.22,1.73,5.66,3.39,10.81,4.99,15.45.15.45.64,1.34,1.47,2.68.17.28.24.62.19.94-.49,3.01-2.66,2.97-5.1,2.95-1.74-.02-2.35,2.3-.83,3.15,5.79,3.24,8.58-1.18,10.45-6.41,1.97-5.49,4.36-11.22,7.17-17.2.54-1.14.01-2.5-1.16-2.98l-.26-.1c-1.21-.5-2.59.09-3.06,1.31l-4.4,11.32" vector-effect="non-scaling-stroke"/>
      <path class="st0" d="M440.82,594.17l8,.08c.41,0,.74-.32.74-.72v-.17c.03-2.31-1.85-4.2-4.18-4.22l-1-.02c-2.34-.02-4.25,1.83-4.28,4.14v.17c0,.4.32.73.72.74" vector-effect="non-scaling-stroke"/>
      <path class="st0" d="M471.75,594.33c-.28.1-.46.37-.46.67v4.59c0,.06.01.12.03.17,1.25,3.09,3.63,4.24,7.15,3.46,5.68-1.26,3.71-15.53-3.08-12.14-1.28.64-2.21,2.71-3.64,3.25" vector-effect="non-scaling-stroke"/>
      <path class="st17" d="M357.9,620.51l-4.62,3.78c-.52.43-.6,1.19-.19,1.72,2.95,3.77,5.71,7.75,8.27,11.94,2.8,4.59,5.58,7.08,10.68,8.21.24.05.47.13.69.23,2.31,1.04,4.67,2.92,7.08,5.65,10.68,12.11,22.32,24.92,34.92,38.41.27.28.64.46,1.03.49,1.51.11,2.53-.71,3.06-2.46.1-.31-.02-.65-.29-.85-.75-.55-1.55-1.55-2.39-3.01-.15-.26-.33-.5-.54-.73-3.23-3.52-14.02-15.54-32.37-36.06-.86-.95-1.59-1.94-2.18-2.95-1.02-1.73-1.58-2.86-1.68-3.41-1.21-6.57-4.52-11.49-9.91-14.76-2.61-1.58-5.56-3.66-8.86-6.23-.79-.62-1.92-.61-2.7.03" vector-effect="non-scaling-stroke"/>
    </g>
  </g>
  <path class="st21" d="M-18.01,287.87v-1.4c.49-5.53.96-9.34,1.39-11.43,5.58-26.72,26.28-45.23,53.64-47.7,4.12-.38,9.19.12,13.87-.37.32-.03.38-.47.08-.59-1.04-.41-2.13-.88-2.81-1.88-2.56-3.79-6.26-7.06-8.75-10.62-7.67-11-12.81-22.02-15.42-33.05-4.21-17.72-3.58-34.69,1.89-50.92,3.81-11.31,10.33-22.33,19.57-33.08,2.8-3.26,6.54-5.94,10.16-8.85,11.97-9.61,25.38-15.71,40.22-18.32,1.73-.31,3.34-.49,4.83-.56,2.06-.1,4.1-.77,6.46-.79,1.44-.02,4.74-.03,9.89-.03.73,0,1.47.07,2.19.22,2.37.49,4.49.75,6.35.76,2.14.02,3.78,1.01,6.03.97.38-.01.76.03,1.12.14,4.74,1.38,7.14,2.08,7.19,2.1,9.96,3.08,18.96,7.71,26.99,13.88,2.8,2.15,5.2,4.31,7.21,6.46,2.94,3.16,5.69,5.46,8.43,8.91,9.61,12.1,15.76,25.81,18.43,41.13,1.92,11.01,1.93,21.76.04,32.25-3.63,20.16-12.86,37.3-27.67,51.43-.18.17-.05.47.19.47,29.46.01,51.62.01,66.47,0,10.25,0,17.71.58,22.39,1.75,8.39,2.1,15.76,5.62,22.13,10.55,31.28,24.23,32.59,69.88,3.11,96.06-7.23,6.43-16.04,10.77-26.42,13.03-4.44.97-11.6,1.36-21.49,1.19-7.41-.13-14.62-.11-21.63.04-.45.01-.78.44-.68.88.15.68.64,1.64.74,2.24,2.53,15.72,4.73,29.59,6.6,41.61,5.69,36.67,10.62,67.59,14.79,92.77.38,2.31.4,7.09-.47,9.63-1.44,4.22-4.38,7.03-8.81,8.44-.17.05-.34.08-.51.09l-10.85.34c-.42.01-.75.36-.74.78.07,4.86.09,10.92.06,18.18-.02,5.81-.51,9.43-1.06,15.06-.13,1.29.18,2.58.87,3.66l28.09,43.95c.3.46,1,.39,1.19-.13l8.26-21.86c.08-.22-.02-.46-.23-.56-2.03-.93-4.29-1.84-6.76-2.73-4.36-1.58-1.26-6.79.08-11.27.68-2.28,1.53-4.61,2.54-7,15.95-37.53,25.99-60.97,30.1-70.31,4.84-11,11.1-24.06,18.78-39.18,2.49-4.89,4.65-8.66,6.49-11.3,2.48-3.55,5.11-7.01,7.89-10.38,2.03-2.45,3.23-3.99,3.6-4.6.15-.25.32-.47.52-.66,4.29-4.17,7.26-7.13,8.89-8.87,1.69-1.81,3.23-3.16,4.62-4.03,1.03-.65,2.07-1.55,3.11-2.69.09-.1,1.15-.95,3.2-2.54,11.71-9.11,26.04-17.32,42.99-24.65,15.39-6.65,31.12-12.36,47.21-17.15,1.25-.37,2.09-1.54,2.05-2.84l-.4-12.41s0-.08-.02-.12l-.85-4.37c-.13-.63-.62-1.12-1.24-1.24-17.83-3.51-33.36-13.77-43.8-28.99-12.15-17.7-18.83-39.04-20.87-60.51-.55-5.73-.96-13.15-1.23-22.26-.46-15.14-1.1-24.04-1.01-35.67.02-3.59-.04-10.74-.17-21.45,0-.79-.17-1.58-.47-2.31-3.11-7.69-5.07-16.09-4.99-24.44.05-4.87.08-7.69.09-8.46.01-.27-.15-.52-.39-.64-4.03-1.94-6.11-4.2-10.07-8.25-1.31-1.33-2.73-3.65-4.26-6.98-4.82-10.43-2.17-24.61,7.17-31.75,4.11-3.13,9.1-5.33,13.79-7.6.59-.29.96-.88.95-1.53-.04-9.42,3.7-16.75,13.37-18.92,13.67-3.07,28.22.33,41.05-4.49,6.78-2.55,12.11-4.45,15.98-5.71,12.31-4.02,25.47-5.97,39.49-5.84,8.87.08,16.7.6,23.49,1.56,9.85,1.39,19.25,3.91,28.18,7.54,8.39,3.41,15.67,8.29,22.48,14.06,2.28,1.93,4.84,5.06,7.67,9.39.17.26.43.44.73.51,7.07,1.55,11.86,3,14.36,4.35,10.71,5.75,18.93,14.02,24.68,24.8,14.82,27.79,10.88,63.32-3.07,90.37-.15.29-.14.63.02.92,6.18,10.9,4.64,23.94.61,35.47-5.86,16.71-19.36,29.48-37.85,30.06-.75.03-1.36.62-1.39,1.37-.61,12.48-.91,24.24-.9,35.27,0,7.67.91,16.05.73,22.45-.08,2.67.73,4.77.84,7.57.13,3.27,1.17,7.25,2.08,10.94.53,2.15,1.36,3.98,2.47,5.51,1.87,2.57,4.72,4.8,8.53,6.7,7.23,3.59,14.43,6.49,21.6,8.7,13.75,4.24,31.57,10.21,40.41,13.32,2.89,1.02,11.25,4.55,25.07,10.6,2.63,1.15,5.03,2.39,7.18,3.73,2.96,1.83,6.06,2.94,9.24,5.12.93.63,4.09,2.74,9.48,6.34.55.37,2.08,1.62,4.57,3.75.79.67,2.3,1.92,4.55,3.77,4.23,3.48,8.24,7.51,12.03,12.09,4.69,5.69,7.77,9.62,9.22,11.77,9.75,14.41,16.87,30.49,22.61,46.84,5.22,14.85,11.16,32.68,15.96,49.45,5.77,20.2,11.93,41.18,18.46,62.94.63,2.12,1.4,3.91,2.3,5.37.18.28.16.65-.04.93-.73,1.01-1.77,1.65-3.13,1.94-3.28.69-6.31,1.52-9.1,2.47-.34.11-.54.46-.48.81,3.53,19.8,6.42,39.05,8.65,57.75.27,2.22.68,6.64,1.25,13.26.85,9.99,1.14,17.34.86,22.05-.7,11.59-1.98,23.4-6.83,33.77-2.03,4.35-5.02,8.44-8.95,12.27-7.2,7.01-15.25,13.04-24.16,18.09-4.89,2.77-11.06,5.67-18.51,8.71-15.47,6.31-31.52,11.52-48.15,15.61-2.2.55-3.9,1.56-6.19,1.59-1.2,0-2.15,1.02-2.08,2.22l1.13,19.44c.03.55.48.98,1.03.98h113.06c.97,0,1.76.79,1.76,1.76v1.74c0,1.01-.82,1.83-1.83,1.82l-212.38-.09c-.07,0-.13.02-.2.05-3.28,1.82-5.97,3.81-8.86,5.16-6.48,3.04-12.2,6.42-18.86,8.87-5.08,1.87-7.97,2.92-8.67,3.14-9.64,3.06-19.53,4.34-29.68,3.83-6.99-.35-13.41-2.46-19.25-6.34-.15-.1-.28-.24-.37-.4l-2.91-5.04c-.27-.46-.74-.76-1.27-.8-5.15-.34-12.57-2.22-14.69-7.69-.19-.49-.66-.81-1.18-.81-133.39.1-266.42.13-399.07.09-1.74,0-6.34.53-5.4-2.92.39-1.41,1.59-2.38,2.93-2.38,75.13.03,164.42.03,267.87-.02.57,0,1.04-.47,1.04-1.04v-79.51c0-.33-.36-.55-.65-.38-.33.19-.56.39-.68.59-3.83,6.33-9.54,12.55-17.12,18.66-9.64,7.78-21.21,12.3-33.18,11.78-6.28-.27-12.47-1.83-18.58-4.69-12.38-5.79-22.94-16.52-30.55-27.27-8.58-12.14-15.14-25.01-21.16-38.32-6.79-14.99-13.51-32.02-20.18-51.09-6.79-19.43-13.32-39.06-19.61-58.9-.21-.68-.64-1.28-1.21-1.71-1.6-1.21-2.95-1.87-4.6-3.52-7.97-7.98-12.7-12.82-14.17-14.53-9.91-11.51-17.24-24.43-21.99-38.74-.99-2.98-2.2-7.7-3.65-14.16-2.55-11.41-4.26-15.88-3.33-24.12,1.42-12.67,4.34-24.7,10.35-35.62,2.8-5.08,7.9-7.98,13.05-9.91,5.03-1.88,8.17-2.96,9.4-3.24.33-.08.57-.34.62-.67.06-.34-.06-1.38-.37-3.12-2.94-16.86-4.99-28.67-6.14-35.44-.11-.67-.21-1.5-.29-2.51-.11-1.47-.95-2.84-.85-4.21.11-1.47-.29-3.46-1.18-5.95-.1-.28-.38-.45-.68-.4-.34.06-.85-.03-1.53-.27-2.63-.91-6.31-3.16-11.02-6.77-2.88-2.2-4.58-3.94-5.11-5.21-.25-.61-.72-1.1-1.31-1.38l-6.06-2.92c-.39-.18-.81-.28-1.24-.28-26.7.03-43.22.07-49.55.1-11.23.05-19.27-.5-24.1-1.64-11.12-2.63-20.92-8.2-29.41-16.69-9.67-9.67-15.42-21.44-17.27-35.31-.39-2.93-.76-5.86-1.09-8.79ZM100.54,243.07c46.24,6.25,88.82-26.28,95.09-72.65,6.27-46.38-26.14-89.04-72.38-95.3-46.24-6.25-88.82,26.28-95.09,72.65-6.27,46.38,26.14,89.04,72.38,95.3ZM510.86,109.95c.03-.32-.33-.52-.59-.33-14.63,10.76-36.25,19.26-54.23,13.45-2.46-.79-4.54-2.01-6.23-3.64-.2-.19-.51-.22-.75-.08-10.33,6.23-21.46,10.28-33.4,12.15-15.52,2.42-30.79,1.48-45.8-2.83-.53-.15-1.07.21-1.13.75-1.57,13.95-2.2,28.06-1.88,42.31.28,12.52.87,30.2,1.76,53.05.33,8.27.83,14.56,1.52,18.87,4.86,30.49,18.37,60.54,48.37,73,10.1,4.2,21.87,5.44,32.25,4.5,18.55-1.69,34.82-9.26,48.82-22.72,1.37-1.31,3.58-2.63,5.15-1.03,2.8,2.85-.71,5.88-3.02,8.16-16.74,16.48-42.05,23.94-65.09,22.21-.55-.05-1,.43-.93.98,1.4,10.66,1.27,21.18-.38,31.57-.69,4.29-2.71,7.43-6.07,9.4-.85.5-1.25,1.51-.98,2.46,3.71,12.73,11.84,20.97,24.41,24.72,16.5,4.93,33.42,2.9,49.44-2.95,19.05-6.95,35.16-17.92,48.33-32.9,4.03-4.59,8.51-10.17,9.59-15.82.25-1.34-.32-2.7-1.45-3.46-8-5.4-9.02-12.04-10.73-21.89-1.12-6.49-1.74-16.17-1.86-29.03-.14-15.43.2-30.88,1.03-46.35.03-.68.64-1.19,1.32-1.1,21.78,2.86,36.91-15.33,40.33-34.86,1.39-7.98,1.24-18.63-4.82-24.1-8.34-7.51-20.13-3.9-26.63,3.87-2.61,3.11-4.72,6.34-6.34,9.67-3,6.17-4.68,9.5-5.03,9.97-.34.44-.76.8-1.25,1.05-6.51,3.37-10.56-3.42-11.37-8.88-.92-6.25-1.65-10.76-2.18-13.54-.39-2.05-1.04-3.83-1.95-5.34-8.71-14.38-14.92-27.35-17.36-43.35-1.4-9.19-1.69-18.51-.87-27.94ZM129.35,357.95c.09-2.35-.25-5.55.61-8.07,2.06-6.03,7.84-9.9,14.05-9.92,31.41-.1,51.23-.09,59.48.04,2.93.05,5.04.55,6.32,1.52,1.87,1.41,3.35,2.13,4.44,2.15,3.46.05,15.44.07,35.94.05,16.1-.02,32.44-9.13,41.74-21.99,5.01-6.94,8.35-14.45,10.02-22.54,1.69-8.18,1.46-16.36-.69-24.54-4.09-15.57-13.5-27.48-28.25-35.71-2.85-1.59-7.14-3.15-12.88-4.68-3.36-.89-6.75-.73-10.31-1.39-.56-.1-1.12-.15-1.69-.15-23.54.27-49.14.34-76.8.21-1.73,0-3.57.99-5.13.23-.38-.19-.82-.15-1.17.09-12.51,8.95-27.44,14.77-42.88,16.24-6.91.65-10.36,1.27-15.19.61-5.8-.78-8.88-.72-14.58-1.92-11.71-2.45-22.61-7.13-32.7-14.05-1.28-.88-2.8-1.33-4.34-1.29-3.96.09-7.52.08-10.67-.03-3.14-.11-5.63.52-8.71.68-10.04.54-22.09,6.02-29.63,13.46-3.85,3.8-6.21,6.27-7.07,7.41-6.85,9.07-10.51,19.28-10.98,30.62-.14,3.42.34,5.85.26,8.59-.06,1.74.19,3.83.76,6.26,2.09,8.94,5.84,16.74,11.25,23.41,11.9,14.63,27.69,21.35,46.43,21.32,9.96,0,27.8-.03,53.51-.05,1.33-.01,3.05.07,5.15.22.69.05,1.36.23,1.98.51,4.05,1.89,6.62,3.34,7.71,4.37.59.54,2.16,2.15,4.71,4.84.19.21.41.38.66.52l7.03,3.9c.71.39,1.59-.11,1.62-.92ZM544.9,484.2c5.98-38.42,16.81-75.91,32.48-112.48,2.18-5.09,5.1-10.91,8.77-17.44.13-.22.03-.5-.21-.6l-19.65-7.8c-.21-.08-.45-.01-.57.18-.09.15-.14.4-.13.74.09,3.35-3.76,9.29-5.91,12.24-6.29,8.64-14.24,16.52-23.85,23.63-15.93,11.79-36.64,21.3-56.78,22.73-7.68.55-14.07.39-19.16-.47-17.3-2.91-30.67-11.3-36.09-28.43-2.38-7.53.73-16.71,5.63-22.53.21-.25-.03-.63-.35-.54-3.41.97-6.63,1.92-9.66,2.84-1.71.52-2.97,1.51-3.78,2.98-1.25,2.27-2.32,4.54-3.2,6.81-11.15,28.93-19.8,58.43-25.93,88.52-2.13,10.43-2.9,17.2-4.63,28.73-.05.33,0,.67.14.98.51,1.16.77,2.59.76,4.3-.03,6.73-.18,12.02-.43,15.89-.02.29.2.53.49.55,18.23,1.15,37.61,2.13,58.15,2.96,6.27.25,23.81.29,52.6.11,12.83-.09,28.03-1.04,42.59-1.25.17-.01.32-.13.34-.3.96-6.64,1.78-12.7,2.46-18.18.46-3.71,2.56-3.46,5.42-3.7.26-.02.46-.22.5-.47ZM136.91,351.17c-1.27,1.16-1.65,3.3-1.15,6.42,3.01,18.9,6.19,38.39,9.56,58.47.06.39.45.63.82.53,6.51-1.78,12.92-3.05,19.22-3.81,5.29-.63,9.06-.66,11.32-.09,8.79,2.25,12.32,8.01,10.59,17.26-.35,1.86-1.1,3.43-2.25,4.72-.19.21-.05.55.23.56,6.47.33,14.71,3.06,17.18,9.44,1.99,5.12,1.04,9.89-2.85,14.3-.18.21-.13.53.11.68,4.58,2.72,6.6,6.52,6.05,11.39-.41,3.6-2.95,7.73-6.12,9.42-.37.2-.42.71-.09.96,5.77,4.43,4.55,11.9.83,17.21-.12.17,0,.4.21.4,8.79.19,17,.25,24.65.2,4.01-.03,6.61-1.61,7.8-4.74,1.16-3.05.22-6.19-.49-10.62-5.41-34.13-9.75-61.3-13.02-81.52-3.09-19.14-5.37-33.95-6.83-44.42-.82-5.89-2.27-9.58-7.84-11.2-.34-.1-.69-.15-1.05-.15l-4.76.03c-17.93-.05-35.86-.1-53.79-.17-4.01-.01-6.78,1.56-8.33,4.73ZM645.21,623.29l-.81-3.87c-.08-.35-.44-.56-.78-.45-3.8,1.17-7.03,1.9-8.15-2.9-7.58-32.3-14.06-65.05-21.1-99.86-.3-1.5.66-2.96,2.16-3.26l.27-.08c1.26-.36,2.57.42,2.84,1.71l20.7,98.71c.05.26.32.42.58.35l120.68-32.4c.22-.06.36-.3.29-.52-5.91-18.96-12.3-40.58-19.18-64.86-5.99-21.14-12.8-41.41-20.43-60.8-4.94-12.54-10.68-23.55-17.22-33.03-12.56-18.19-29.5-32.51-50.81-42.95-8.08-3.96-17.11-7.93-27.08-11.9-.12-.05-.26.01-.32.13-6.09,12.37-11.47,24.94-16.14,37.73-9.88,27.02-17.48,54.79-22.81,83.32-.11.57.3,1.12.88,1.17,1.01.09,1.9.52,2.67,1.29.26.26.45.59.55.95.29,1.04.34,2.48.16,4.31-.6,6.06-1.44,11.62-2.51,16.69-.6,2.88-.91,6.78-4.57,6.53-.45-.04-.83.36-.77.82,4.09,31.68,16.58,63,37.99,86.93,5.25,5.87,11.36,10.8,18.34,14.79,1.18.68,3.18,1.08,3.97,1.79.26.23.67,0,.6-.34ZM370.2,377.29c.09-.21-.12-.42-.33-.32-20.86,9.72-38.48,23.6-52.86,41.65-6.49,8.15-12.01,18.22-15.95,26.55-15.73,33.16-30.01,66.05-44.39,99.58-1.89,4.42-3.33,8.31-4.31,11.66-.11.39.08.8.45.95l63.92,26.21c.23.1.49-.06.51-.31.8-11.06.83-21.75,1.68-33.18,1.88-25.42,4.08-50.67,6.61-75.76.15-1.5,1.45-2.62,2.96-2.54h.18c1.39.09,2.44,1.3,2.31,2.68l-5.65,64.3c-.02.23.13.44.36.49.22.05.45-.08.52-.3,2.8-8.41,6.19-16.84,10.16-25.29.21-.45.27-.95.19-1.43-.55-3.13-.78-6.59-.69-10.38.09-3.61.04-8.53.26-14.3.18-4.89,3.74-4.58,7.29-4.79.21-.01.38-.17.4-.38,2.91-32.06,10.13-63.39,21.68-93.99,1.22-3.24,2.79-6.94,4.7-11.1ZM173.56,517.28c5.39,2.02,10.22,5.6,14.49,10.73,1.1,1.32.84,3.3-.55,4.29l-.14.1c-1.48,1.06-3.54.78-4.68-.65-4.65-5.89-10.57-9.32-17.76-10.31-.25-.03-.51.01-.74.11l-2.92,1.39c-1.5.72-3.3-.05-3.83-1.63l-.02-.07c-.58-1.5.04-3.2,1.46-3.97,11.63-6.34,22.71-12.78,33.24-19.31,2.62-1.63,4.44-4.28,5.45-7.97.14-.5.04-1.04-.28-1.46-3.92-5.16-11.57-1.69-16.52.11-14.52,5.29-28.1,11.02-40.75,17.19-1.44.7-3.17-.09-3.58-1.64l-.06-.24c-.46-1.71.37-3.5,1.97-4.26,16.35-7.71,30.61-13.68,42.78-17.89,5.06-1.76,23.32-7.63,17.81-14.58-1.69-2.14-3.96-3.06-6.8-2.75-4.52.49-9.9,1.7-16.15,3.62-14.96,4.61-29.68,9.18-42.79,15.82-1.08.55-2.43.22-3.21-.78-2.77-3.55,2.04-6,4.71-7.12,16.15-6.76,33.4-12.67,51.73-17.72,3.07-.85,5.85-2.13,8.34-3.84,3.15-2.17,3.69-4.76,1.62-7.78-3.93-5.75-12.39-5.94-18.33-4.7-12.85,2.67-25.69,6.05-38.54,10.13-3.55,1.13-8.18,3.19-13.91,6.18-1.3.68-2.85-.27-2.84-1.73v-.42c0-1.97,1.12-3.77,2.87-4.66,5.35-2.73,10.73-4.93,16.14-6.6,9-2.77,17.89-5.19,26.67-7.27,4.5-1.06,11.63-4.48,13.07-9.47.91-3.12-.98-7.68-4.24-8.77-2.47-.82-5.21-1.06-8.23-.71-10.71,1.23-21.54,3.77-32.51,7.62-5.12,1.79-9.15,3.12-12.38,5.75-2.17,1.76-3.54,3.25-4.1,4.48-5.23,11.52-8.06,23.31-8.48,35.38-.06,1.69.09,3.51.45,5.46,1.16,6.21,2.54,12.57,4.15,19.1,3.55,14.37,9.82,27.44,18.82,39.19,2.62,3.42,6.85,8.2,12.69,14.35,3.22,3.38,7.44,6.24,10.79,9.95.88.98,1.55,2.13,1.95,3.38,7.99,24.86,16.13,48.83,24.44,71.91,4.85,13.49,10.71,27.73,17.57,42.71,5.97,13.05,12.92,24.84,20.84,35.36,17.84,23.71,45.6,36.26,71.37,14.7,8.91-7.45,16.07-16.12,21.48-26,.3-.53.45-1.13.45-1.73l.61-109.27c0-.57-.34-1.08-.87-1.3l-54.98-22.55c-.27-.11-.59.03-.68.32-2.87,9.29-6,17.78-9.4,25.48-.3.68-.21,1.47.23,2.07l35.99,49.07c.91,1.23.59,2.98-.69,3.82l-.15.1c-1.45.94-3.38.6-4.43-.77-13.7-17.93-26.13-34.94-37.3-51.03-5.53-7.95-15.65-23.59-30.36-46.91-1.98-3.15-3.09-5.46-3.34-6.93-.07-.42-.08-.85-.04-1.27,1.06-11.49,1.48-23.18,1.26-35.07,0-.29-.25-.52-.54-.52l-17.86-.1c-.9,0-1.78.23-2.56.68l-17.96,10.37c-.34.2-.3.69.06.83ZM124.09,457.48c-.02.21.08.36.29.45.11.05.24,0,.28-.12.05-.13.06-.26.02-.37-.11-.31-.57-.28-.59.04ZM521.73,587.11c.29-10.34-7.86-18.96-18.2-19.25l-91.08-2.54c-10.34-.29-18.96,7.86-19.25,18.2l-.49,17.71c-.29,10.34,7.86,18.96,18.2,19.25l91.08,2.54c10.34.29,18.96-7.86,19.25-18.2l.49-17.71ZM459.43,707.01c-.31.05-.44.42-.22.64l11.9,11.89c.15.15.38.19.57.11,2.26-1.02,4.63-1.64,7.12-1.85,1.43-.12,2.72.88,2.95,2.3l.04.26c.24,1.49-.72,2.92-2.2,3.25-5.74,1.28-9.79,2.43-12.14,3.45-12.81,5.55-24.54,11.82-35.18,18.81-5.4,3.54-12.86,7.98-8.78,14.42,3.79,5.97,11.3,5.98,17.46,4.02,7.85-2.49,14.83-4.76,20.95-6.8,2.51-.83,4.47-1.38,5.88-1.65,1.36-.26,2.63.75,2.69,2.13v.27c.08,1.61-.91,3.08-2.43,3.61-13.22,4.68-21.57,7.41-25.05,8.2-2.93.67-5.65.73-6.05,3.63-.17,1.22.04,2.5.61,3.85,2.56,6.05,7.56,8.66,15,7.83,6.99-.77,16.37-2.35,28.13-4.73,1.56-.31,3.03.83,3.12,2.41v.16c.14,1.75-1.07,3.31-2.79,3.62l-26.37,4.77c-.58.11-1.01.59-1.05,1.17-.37,4.61,4.12,8.77,8.37,9.35,3.17.43,7.27.42,12.29-.05,7.05-.65,14.07-1.59,21.08-2.83,1.58-.28,3.07.8,3.3,2.39l.02.12c.24,1.64-.84,3.19-2.47,3.53-7.48,1.57-14.96,2.54-22.45,2.91-.73.04-1.04.94-.48,1.41,4.01,3.35,8.43,5.2,13.26,5.57,13.7,1.04,26.99-1.29,39.87-6.99,12.27-5.42,24.13-11.83,35.6-19.23,4.4-2.84,8.22-4.32,13.07-5.31,37.87-7.77,77.36-15.57,112.21-26.81,14.8-4.77,28.19-10.63,40.16-17.57,14.19-8.22,27.09-19.44,31.02-35.54,2.31-9.41,3.23-19.46,2.78-30.15-1.15-26.9-5.65-55.01-10.52-82.66-.06-.35-.41-.57-.76-.48l-98.58,26.46c-.57.15-.9.74-.74,1.31l14.06,49.25c.07.27.36.41.62.3,5-2.12,10.23-3.46,15.7-4.01,1.47-.15,2.77.94,2.89,2.42v.18c.14,1.62-1.02,3.07-2.63,3.3-11,1.59-21.2,6.36-31.72,11.5-20.39,9.98-37.01,18.03-49.85,24.14-15.62,7.43-32.37,14.85-49.54,19.97-3.69,1.1-7.46,1.02-11.3-.24-10.47-3.44-29.41-12.47-44.27-16.65-10.9-3.06-23.39-3.01-35.15-1.36ZM351.44,625.18c-.13.13-.14.34-.03.48,3.19,3.87,6.24,8.17,9.15,12.9,1.94,3.15,4.82,6.73,8.47,7.97,3.68,1.25,6.18,1.86,8.89,4.89,11.19,12.52,23.8,26.41,37.81,41.68.09.1.25.11.34.02l4.92-4.41c.12-.1.12-.28.02-.4l-37.37-41.66c-1.2-1.34-2.1-2.91-2.65-4.61-1.61-4.95-2.97-10.3-7.26-13.44-6.48-4.73-11.15-8.27-14-10.6-.35-.28-.86-.26-1.18.06l-7.11,7.12ZM649.07,674.87l9.77-4.65c.24-.11.36-.39.28-.64-1.73-5.71-4.39-14.88-8-27.5-.59-2.07-.77-4.31-1.87-6.33-.09-.16-.33-.1-.33.08v38.95c0,.07.08.12.15.09ZM463.31,720.87c-5.52-5.63-13.08-13.21-22.69-22.75-3.08-3.07-.16-5.34.86-8.04.12-.32.09-.67-.08-.97-1.84-3.12-4.04-7.27-8.04-3.59-2.74,2.51-6.39,6.58-9.8,9.46-4.89,4.11-8.94,7.62-12.17,10.52-.95.86-1.72,1.75-2.29,2.66-.2.32-.25.71-.14,1.07.69,2.31,2.05,4.02,4.07,5.13.52.29,1.15.3,1.68.03,1.99-1,5.56-3.29,7.54-1.05,5.09,5.74,10.4,12.44,15.95,20.09.45.62,1.31.81,1.97.42l8.48-4.89c.44-.25.52-.85.16-1.21l-6.76-6.75c-1.1-1.1-1.1-2.9,0-4l.42-.42c1.02-1.01,2.64-1.08,3.72-.15l7.55,6.45c.12.1.23.21.32.34l1.51,2.04c.27.37.78.48,1.18.25l6.44-3.72c.33-.19.39-.65.12-.92Z"/>
  <path class="st22" d="M100.54,243.07c-46.25-6.26-78.66-48.92-72.38-95.3,6.27-46.38,48.85-78.91,95.09-72.65,46.25,6.26,78.66,48.92,72.38,95.3-6.27,46.38-48.85,78.91-95.09,72.65ZM92.34,150.93c1.03-4.04,2.62-11.09,4.77-21.15,1.03-4.84.64-9.06.54-15.99-.03-2.36-.45-3.77-2.97-4.09-2.08-.26-4.53-.53-7.35-.81-1.24-.12-2.41.62-2.83,1.81-1.67,4.73-4.01,10.74-5.05,16.46-.16.88-3.02,14.02-8.59,39.42-.04.23-.18.43-.38.56-2.69,1.77-4.14,3.38-4.36,4.83-.46,3.15-1.03,6.6-1.7,10.33-.63,3.53-3.57,7.85-4.77,11.25-2.06,5.86-4.04,17.36-.58,22.64,1.89,2.88,4.86,4.65,8.9,5.31,9,1.47,13.51-2.69,16.43-10.57,1.58-4.26,3.15-8.82,2.99-13.26-.01-.18.13-.33.31-.33,19.79,0,36.15,0,49.1,0,.23,0,.47-.06.73-.18.28-.13.47-.2.58-.23.31-.08.65.04.84.31,6.61,8.9,18.79,8.69,23.74-1.55.15-.31.23-.65.23-.99l.03-5.69c0-.14-.01-.28-.05-.42l-12.03-49.65c-.04-.18.03-.36.17-.46,2.17-1.53,4.11-3.36,5.83-5.48,5.77-7.11,4.36-17.53-1.81-24-4.04-4.23-9.06-6.53-15.07-6.89-3.15-.18-4.7,1.49-3.99,4.71,1.77,7.98,2.7,12.08,2.79,12.3.38.96-.18,2.03-1.19,2.26l-4.22.98c-1.28.3-2.56-.53-2.83-1.82-.59-2.9-1.51-7.32-2.76-13.27-.31-1.48-1.49-2.57-2.89-2.66-3.77-.24-8.72,4.85-10.65,7.67-1.83,2.69-2.89,5.44-3.18,8.25-.86,8.15,2.36,14.46,9.66,18.95.63.38,2.81,1.32,6.55,2.83.28.11.49.36.55.67l1.88,8.94c.06.28-.26.47-.48.29-5.51-4.63-11.12-9.21-16.83-13.74-1.39-1.11-2.8-1.08-4.22.07-4.95,3.99-10.07,8.23-15.36,12.7-.22.19-.55-.03-.48-.31Z"/>
  <path class="st20" d="M92.34,150.93c-.07.28.26.5.48.31,5.29-4.47,10.41-8.71,15.36-12.7,1.42-1.15,2.83-1.18,4.22-.07,5.71,4.53,11.32,9.11,16.83,13.74.22.18.54-.01.48-.29l-1.88-8.94c-.06-.31-.27-.56-.55-.67-3.74-1.51-5.92-2.45-6.55-2.83-7.3-4.49-10.52-10.8-9.66-18.95.29-2.81,1.35-5.56,3.18-8.25,1.93-2.82,6.88-7.91,10.65-7.67,1.4.09,2.58,1.18,2.89,2.66,1.25,5.95,2.17,10.37,2.76,13.27.27,1.29,1.55,2.12,2.83,1.82l4.22-.98c1.01-.23,1.57-1.3,1.19-2.26-.09-.22-1.02-4.32-2.79-12.3-.71-3.22.84-4.89,3.99-4.71,6.01.36,11.03,2.66,15.07,6.89,6.17,6.47,7.58,16.89,1.81,24-1.72,2.12-3.66,3.95-5.83,5.48-.14.1-.21.28-.17.46l12.03,49.65c.04.14.06.28.05.42l-.03,5.69c0,.34-.08.68-.23.99-4.95,10.24-17.13,10.45-23.74,1.55-.19-.27-.53-.39-.84-.31-.11.03-.3.1-.58.23-.26.12-.5.18-.73.18-12.95,0-29.31,0-49.1,0-.18,0-.32.15-.31.33.16,4.44-1.41,9-2.99,13.26-2.92,7.88-7.43,12.04-16.43,10.57-4.04-.66-7.01-2.43-8.9-5.31-3.46-5.28-1.48-16.78.58-22.64,1.2-3.4,4.14-7.72,4.77-11.25.67-3.73,1.24-7.18,1.7-10.33.22-1.45,1.67-3.06,4.36-4.83.2-.13.34-.33.38-.56,5.57-25.4,8.43-38.54,8.59-39.42,1.04-5.72,3.38-11.73,5.05-16.46.42-1.19,1.59-1.93,2.83-1.81,2.82.28,5.27.55,7.35.81,2.52.32,2.94,1.73,2.97,4.09.1,6.93.49,11.15-.54,15.99-2.15,10.06-3.74,17.11-4.77,21.15ZM122.58,111.11c-4.16,2.96-6.61,7.93-6.2,13.1.59,7.38,6.71,12.03,13.74,13.69,1.45.34,2.57,1.5,2.86,2.97,5.96,29.88,9.23,46.45,9.82,49.71.47,2.64,1.12,4.43,1.94,5.36,3.26,3.72,9.34,3.5,12.1-.51,1.61-2.33.78-6.02.03-8.95-1.09-4.27-4.96-20.19-11.59-47.78-.26-1.1.18-2.25,1.11-2.89,4.76-3.25,8.96-7.76,8.79-13.85-.19-7.17-6.1-12.74-12.96-14.72-.33-.09-.63.2-.54.53.18.71.83,3.57,1.95,8.57.59,2.65.75,4.38.46,5.19-1.7,4.72-5.93,5.22-10.97,5.73-1.4.15-2.58-.02-3.54-.51-3.2-1.6-4.05-3.1-4.81-7.09-.93-4.83-1.45-7.59-1.58-8.3-.05-.28-.38-.42-.61-.25ZM87.54,124.24c1.04.51,1.87.74,2.48.67.67.23,1.25.34,1.72.32.33-.02.58-.28.58-.61v-9.39c0-.46-.38-.84-.84-.84h-1.78c-.28,0-.52.17-.62.43l-3.25,8.6c-.14.36.07.76.44.86.31.08.73.07,1.27-.04ZM78.37,168.4c.71.38,1.47.55,2.28.51.59.27,1.08.41,1.47.41.34,0,.64-.24.72-.58l8.39-37.88c.03-.14-.06-.28-.2-.31l-5.93-1.32c-.15-.03-.3.06-.33.21l-8.4,37.91c-.07.32.09.64.38.78.39.19.93.28,1.62.27ZM99.59,192.5c.24,0,.44-.19.43-.43-.06-3.79-.09-10.47-.08-20.03,0-1.96.83-3.03,2.8-3.03,8.41-.01,13.63-.01,15.68,0,1.31.02,2.37,1.09,2.36,2.4l-.11,20.53c0,.26.21.47.47.47l13.25.08c.27,0,.48-.22.48-.49l-.05-12.84c0-.48-.05-.96-.14-1.43l-3.36-16.67c-.06-.32-.24-.62-.5-.83l-20.03-16.42c-.26-.22-.64-.22-.91,0l-18.88,15.47c-.27.22-.45.52-.53.86l-2.2,9.91c-.07.31.04.64.29.85,2.03,1.68,2.73,3.56,2.12,5.65-1.01,3.46-1.87,6.45-2.58,8.96-.62,2.17-.61,4.56-.68,6.25-.01.36.28.66.64.66l11.53.07ZM71.43,173.41c-1.03,6.61-1.77,10.58-2.22,11.89-1.12,3.24-3.59,7.06-4.62,10.32-1.25,4-1.95,8.29-2.08,12.87-.12,4.19,1.35,7.01,5.64,7.96,6.87,1.52,9.22-1.54,11.45-7.24,1.76-4.5,2.62-9.14,2.57-13.91-.04-4.9,0-7.7.13-8.39.63-3.43,1.61-7.06,2.93-10.87.18-.51-.15-1.07-.69-1.16l-12.26-2.08c-.4-.07-.78.2-.85.61ZM115.21,174.39c0-.17-.13-.3-.3-.3h-9.18c-.17,0-.3.13-.3.3v17.7c0,.17.13.3.3.3h9.18c.17,0,.3-.13.3-.3v-17.7Z"/>
  <path class="st31" d="M122.58,111.11c.23-.17.56-.03.61.25.13.71.65,3.47,1.58,8.3.76,3.99,1.61,5.49,4.81,7.09.96.49,2.14.66,3.54.51,5.04-.51,9.27-1.01,10.97-5.73.29-.81.13-2.54-.46-5.19-1.12-5-1.77-7.86-1.95-8.57-.09-.33.21-.62.54-.53,6.86,1.98,12.77,7.55,12.96,14.72.17,6.09-4.03,10.6-8.79,13.85-.93.64-1.37,1.79-1.11,2.89,6.63,27.59,10.5,43.51,11.59,47.78.75,2.93,1.58,6.62-.03,8.95-2.76,4.01-8.84,4.23-12.1.51-.82-.93-1.47-2.72-1.94-5.36-.59-3.26-3.86-19.83-9.82-49.71-.29-1.47-1.41-2.63-2.86-2.97-7.03-1.66-13.15-6.31-13.74-13.69-.41-5.17,2.04-10.14,6.2-13.1ZM152.33,187.36c-.34-1.36-1.71-2.18-3.05-1.84l-.31.08c-1.35.33-2.17,1.7-1.84,3.05l.71,2.83c.34,1.36,1.71,2.18,3.05,1.84l.31-.08c1.35-.33,2.17-1.7,1.84-3.05l-.71-2.83Z"/>
  <path class="st26" d="M510.86,109.95c-.82,9.43-.53,18.75.87,27.94,2.44,16,8.65,28.97,17.36,43.35.91,1.51,1.56,3.29,1.95,5.34.53,2.78,1.26,7.29,2.18,13.54.81,5.46,4.86,12.25,11.37,8.88.49-.25.91-.61,1.25-1.05.35-.47,2.03-3.8,5.03-9.97,1.62-3.33,3.73-6.56,6.34-9.67,6.5-7.77,18.29-11.38,26.63-3.87,6.06,5.47,6.21,16.12,4.82,24.1-3.42,19.53-18.55,37.72-40.33,34.86-.68-.09-1.29.42-1.32,1.1-.83,15.47-1.17,30.92-1.03,46.35.12,12.86.74,22.54,1.86,29.03,1.71,9.85,2.73,16.49,10.73,21.89,1.13.76,1.7,2.12,1.45,3.46-1.08,5.65-5.56,11.23-9.59,15.82-13.17,14.98-29.28,25.95-48.33,32.9-16.02,5.85-32.94,7.88-49.44,2.95-12.57-3.75-20.7-11.99-24.41-24.72-.27-.95.13-1.96.98-2.46,3.36-1.97,5.38-5.11,6.07-9.4,1.65-10.39,1.78-20.91.38-31.57-.07-.55.38-1.03.93-.98,23.04,1.73,48.35-5.73,65.09-22.21,2.31-2.28,5.82-5.31,3.02-8.16-1.57-1.6-3.78-.28-5.15,1.03-14,13.46-30.27,21.03-48.82,22.72-10.38.94-22.15-.3-32.25-4.5-30-12.46-43.51-42.51-48.37-73-.69-4.31-1.19-10.6-1.52-18.87-.89-22.85-1.48-40.53-1.76-53.05-.32-14.25.31-28.36,1.88-42.31.06-.54.6-.9,1.13-.75,15.01,4.31,30.28,5.25,45.8,2.83,11.94-1.87,23.07-5.92,33.4-12.15.24-.14.55-.11.75.08,1.69,1.63,3.77,2.85,6.23,3.64,17.98,5.81,39.6-2.69,54.23-13.45.26-.19.62.01.59.33ZM385.2,155.6c-4.49.73-8.37,2.67-11.63,5.81-1.78,1.71-2.71,3.13-2.79,4.27-.17,2.37.9,3.62,3.19,3.74.74.04,1.32-.22,1.73-.77,2.76-3.7,6.28-5.89,10.55-6.59,4.28-.69,8.31.28,12.1,2.91.57.39,1.19.45,1.88.18,2.14-.84,2.75-2.36,1.84-4.56-.43-1.05-1.77-2.11-4-3.17-4.08-1.94-8.37-2.55-12.87-1.82ZM472.05,163.17c6.7,1.54,10.36,4.84,15.27,8.81,1.31,1.06,3.25.73,4.14-.71l.09-.15c.91-1.48.67-3.4-.58-4.61-5.53-5.34-11.33-8.64-17.41-9.89-6.02-1.53-12.68-1.09-19.98,1.3-1.66.54-2.71,2.16-2.54,3.89l.02.18c.16,1.67,1.77,2.82,3.41,2.44,6.15-1.43,10.89-2.8,17.58-1.26ZM390.46,209.64c4.11,0,7.44-4.78,7.44-10.67s-3.33-10.67-7.44-10.67-7.44,4.78-7.44,10.67,3.33,10.67,7.44,10.67ZM465.14,210.35c4.1.14,7.59-4.5,7.79-10.37.19-5.87-2.98-10.73-7.08-10.86-4.1-.14-7.59,4.5-7.79,10.37-.19,5.87,2.98,10.73,7.08,10.86ZM409.36,232.33c3.02-6.25,6.37-14.27,10.04-24.05,1.69-4.53,3.05-8.87,4.07-13.02.37-1.5-.59-3.01-2.11-3.31l-.26-.06c-1.62-.32-3.21.64-3.69,2.22-3.54,11.87-6.82,19.29-12.95,33.1-2.29,5.16-2.43,8.58,1.19,12.7,5.15,5.86,11.75,8.13,19.8,6.81,2.73-.45,4.62-.98,5.67-1.6.31-.18.58-.42.78-.71,1.21-1.67,1.08-3.26-.38-4.77-.55-.56-1.36-.8-2.12-.62-6.79,1.59-12.27,2.79-17.93-2.27-1.21-1.08-1.96-2.15-2.23-3.2-.1-.41-.06-.84.12-1.22ZM558.8,222.7c1.53.71,3.34-.01,3.96-1.58,3.69-9.38,5.59-15.68,13.41-20.6,1.45-.91,1.83-2.85.83-4.23l-.13-.18c-1.09-1.51-3.12-1.97-4.76-1.09-7.6,4.1-12.72,15.55-15.24,23.47-.53,1.65.26,3.44,1.84,4.17l.09.04ZM442.81,272.7c-8.12,2.12-16.78,1.14-25.18-1.84-1.57-.55-3.29.28-3.83,1.85l-.05.15c-.54,1.56.24,3.27,1.76,3.89,9.02,3.7,19.65,4.93,29,2.48,9.36-2.45,18.03-8.72,24.08-16.36,1.03-1.29.87-3.16-.37-4.25l-.11-.11c-1.24-1.1-3.15-.99-4.25.27-5.87,6.7-12.93,11.8-21.05,13.92Z"/>
  <path class="st22" d="M90.02,124.91l1.24-1.34c.18-.19.28-.45.28-.71l-.02-6.29c0-.93-1.05-1.47-1.81-.93-.24.17-.49.6-.75,1.28-.96,2.5-1.43,4.94-1.42,7.32-.54.11-.96.12-1.27.04-.37-.1-.58-.5-.44-.86l3.25-8.6c.1-.26.34-.43.62-.43h1.78c.46,0,.84.38.84.84v9.39c0,.33-.25.59-.58.61-.47.02-1.05-.09-1.72-.32Z"/>
  <path class="st28" d="M92.6,125.4c-.65.07-5.87-.7-6.99-1.21-.01-2.38,1.29-6.19,2.31-8.69.28-.68.55-1.11.8-1.28.81-.54,3.76-.15,3.76.78l.13,4.98c-.07.26.08,1.8-.01,1.99v3.43Z"/>
  <path class="st22" d="M80.65,168.91l1.48-1.32c.28-.25.44-.61.43-.98-.03-1.38.26-2.73.87-4.06.03-.07.05-.14.07-.21l6.2-29.83c.15-.74-.31-1.46-1.05-1.62l-1.59-.36c-.76-.17-1.52.31-1.69,1.07l-7.47,32.84c-.03.13-.08.25-.15.36-.61,1.07-.4,2.27.62,3.6-.69,0-1.23-.08-1.62-.27-.29-.14-.45-.46-.38-.78l8.4-37.91c.03-.15.18-.24.33-.21l5.93,1.32c.14.03.23.17.2.31l-8.39,37.88c-.08.34-.38.58-.72.58-.39,0-.88-.14-1.47-.41Z"/>
  <path class="st28" d="M83.21,169.88l-3.93-.05c-1.3.12-2.53.01-3.69-.33-1.72-1.32-2.13-2.58-1.22-3.78.11-.12.18-.26.22-.4l9.89-35.75c.22-.83,1.41-1.41,2.64-1.3l2.57.23c1.2.1,1.98.82,1.79,1.63"/>
  <path class="st28" d="M84.35,161.95"/>
  <path class="st22" d="M99.59,192.5l-11.53-.07c-.36,0-.65-.3-.64-.66.07-1.69.06-4.08.68-6.25.71-2.51,1.57-5.5,2.58-8.96.61-2.09-.09-3.97-2.12-5.65-.25-.21-.36-.54-.29-.85l2.2-9.91c.08-.34.26-.64.53-.86l18.88-15.47c.27-.22.65-.22.91,0l20.03,16.42c.26.21.44.51.5.83l3.36,16.67c.09.47.14.95.14,1.43l.05,12.84c0,.27-.21.49-.48.49l-13.25-.08c-.26,0-.47-.21-.47-.47l.11-20.53c.01-1.31-1.05-2.38-2.36-2.4-2.05-.02-7.27-.02-15.68,0-1.97,0-2.8,1.07-2.8,3.03,0,9.56.02,16.24.08,20.03.01.24-.19.43-.43.43Z"/>
  <path class="st25" d="M386.25,162.06c-4.27.7-7.79,2.89-10.55,6.59-.41.55-.99.81-1.73.77-2.29-.12-3.36-1.37-3.19-3.74.08-1.14,1.01-2.56,2.79-4.27,3.26-3.14,7.14-5.08,11.63-5.81,4.5-.73,8.79-.12,12.87,1.82,2.23,1.06,3.57,2.12,4,3.17.91,2.2.3,3.72-1.84,4.56-.69.27-1.31.21-1.88-.18-3.79-2.63-7.82-3.6-12.1-2.91Z"/>
  <path class="st25" d="M473.56,156.62c6.08,1.25,11.88,4.55,17.41,9.89,1.25,1.21,1.49,3.13.58,4.61l-.09.15c-.89,1.44-2.83,1.77-4.14.71-4.91-3.97-8.57-7.27-15.27-8.81-6.69-1.54-11.43-.17-17.58,1.26-1.64.38-3.25-.77-3.41-2.44l-.02-.18c-.17-1.73.88-3.35,2.54-3.89,7.3-2.39,13.96-2.83,19.98-1.3Z"/>
  <path class="st27" d="M72.28,172.8l12.26,2.08c.54.09.87.65.69,1.16-1.32,3.81-2.3,7.44-2.93,10.87-.13.69-.17,3.49-.13,8.39.05,4.77-.81,9.41-2.57,13.91-2.23,5.7-4.58,8.76-11.45,7.24-4.29-.95-5.76-3.77-5.64-7.96.13-4.58.83-8.87,2.08-12.87,1.03-3.26,3.5-7.08,4.62-10.32.45-1.31,1.19-5.28,2.22-11.89.07-.41.45-.68.85-.61ZM74.47,198.07c.17-.78-.32-1.55-1.1-1.71h-.06c-.78-.18-1.54.32-1.71,1.09l-2.55,11.79c-.17.78.32,1.55,1.1,1.71h.06c.78.18,1.54-.32,1.71-1.09l2.55-11.79Z"/>
  <rect class="st22" x="105.43" y="174.09" width="9.78" height="18.3" rx=".3" ry=".3"/>
  <rect class="st22" x="147.4" y="185.44" width="5.36" height="7.96" rx="2.52" ry="2.52" transform="translate(-41.37 41.93) rotate(-14)"/>
  <path class="st21" d="M390.46,209.64c-4.11,0-7.44-4.78-7.44-10.67s3.33-10.67,7.44-10.67,7.44,4.78,7.44,10.67-3.33,10.67-7.44,10.67ZM390.44,208.18c3.3,0,5.98-4.16,5.98-9.29s-2.68-9.29-5.98-9.29-5.98,4.16-5.98,9.29,2.68,9.29,5.98,9.29Z"/>
  <path class="st21" d="M465.14,210.35c-4.11-.13-7.28-4.99-7.08-10.86.2-5.86,3.69-10.5,7.79-10.37,4.11.13,7.28,4.99,7.08,10.86-.2,5.86-3.69,10.5-7.79,10.37ZM465.29,209.07c3.35.07,6.14-4.04,6.25-9.18.11-5.14-2.52-9.37-5.86-9.43-3.35-.07-6.14,4.04-6.25,9.18-.11,5.14,2.52,9.37,5.86,9.43Z"/>
  <ellipse class="st25" cx="390.44" cy="198.89" rx="5.98" ry="9.29"/>
  <ellipse class="st25" cx="465.48" cy="199.76" rx="9.31" ry="6.06" transform="translate(256.01 660.96) rotate(-88.8)"/>
  <path class="st21" d="M409.24,233.55c.27,1.05,1.02,2.12,2.23,3.2,5.66,5.06,11.14,3.86,17.93,2.27.76-.18,1.57.06,2.12.62,1.46,1.51,1.59,3.1.38,4.77-.2.29-.47.53-.78.71-1.05.62-2.94,1.15-5.67,1.6-8.05,1.32-14.65-.95-19.8-6.81-3.62-4.12-3.48-7.54-1.19-12.7,6.13-13.81,9.41-21.23,12.95-33.1.48-1.58,2.07-2.54,3.69-2.22l.26.06c1.52.3,2.48,1.81,2.11,3.31-1.02,4.15-2.38,8.49-4.07,13.02-3.67,9.78-7.02,17.8-10.04,24.05-.18.38-.22.81-.12,1.22ZM408.28,234.45c-.35-1.01-.3-2.13.15-3.11,4.12-8.95,7.53-17.13,10.24-24.55,1.43-3.9,2.52-7.75,3.29-11.56.18-.9-.44-1.77-1.35-1.89h-.07c-.93-.13-1.8.46-2.04,1.37-1.75,6.75-3.78,12.69-6.07,17.82-5.03,11.25-7.6,17.04-7.72,17.35-1.13,3.01-.7,5.82,1.31,8.43,5.74,7.47,14.98,9.06,23.68,6.09,1.01-.34,1.59-1.4,1.33-2.44l-.03-.11c-.25-1.04-1.31-1.68-2.36-1.43-7.45,1.82-14.31,1.97-19.32-4.12-.45-.55-.8-1.17-1.04-1.85Z"/>
  <path class="st25" d="M408.28,234.45c.24.68.59,1.3,1.04,1.85,5.01,6.09,11.87,5.94,19.32,4.12,1.05-.25,2.11.39,2.36,1.43l.03.11c.26,1.04-.32,2.1-1.33,2.44-8.7,2.97-17.94,1.38-23.68-6.09-2.01-2.61-2.44-5.42-1.31-8.43.12-.31,2.69-6.1,7.72-17.35,2.29-5.13,4.32-11.07,6.07-17.82.24-.91,1.11-1.5,2.04-1.38h.07c.91.13,1.53,1,1.35,1.9-.77,3.81-1.86,7.66-3.29,11.56-2.71,7.42-6.12,15.6-10.24,24.55-.45.98-.5,2.1-.15,3.11Z"/>
  <path class="st25" d="M558.8,222.7l-.09-.04c-1.58-.73-2.37-2.52-1.84-4.17,2.52-7.92,7.64-19.37,15.24-23.47,1.64-.88,3.67-.42,4.76,1.09l.13.18c1,1.38.62,3.32-.83,4.23-7.82,4.92-9.72,11.22-13.41,20.6-.62,1.57-2.43,2.29-3.96,1.58Z"/>
  <rect class="st21" x="64.29" y="202.18" width="14.94" height="2.94" rx="1.44" ry="1.44" transform="translate(-142.46 230.76) rotate(-77.8)"/>
  <path class="st22" d="M129.35,357.95c-.03.81-.91,1.31-1.62.92l-7.03-3.9c-.25-.14-.47-.31-.66-.52-2.55-2.69-4.12-4.3-4.71-4.84-1.09-1.03-3.66-2.48-7.71-4.37-.62-.28-1.29-.46-1.98-.51-2.1-.15-3.82-.23-5.15-.22-25.71.02-43.55.04-53.51.05-18.74.03-34.53-6.69-46.43-21.32-5.41-6.67-9.16-14.47-11.25-23.41-.57-2.43-.82-4.52-.76-6.26.08-2.74-.4-5.17-.26-8.59.47-11.34,4.13-21.55,10.98-30.62.86-1.14,3.22-3.61,7.07-7.41,7.54-7.44,19.59-12.92,29.63-13.46,3.08-.16,5.57-.79,8.71-.68,3.15.11,6.71.12,10.67.03,1.54-.04,3.06.41,4.34,1.29,10.09,6.92,20.99,11.6,32.7,14.05,5.7,1.2,8.78,1.14,14.58,1.92,4.83.66,8.28.04,15.19-.61,15.44-1.47,30.37-7.29,42.88-16.24.35-.24.79-.28,1.17-.09,1.56.76,3.4-.24,5.13-.23,27.66.13,53.26.06,76.8-.21.57,0,1.13.05,1.69.15,3.56.66,6.95.5,10.31,1.39,5.74,1.53,10.03,3.09,12.88,4.68,14.75,8.23,24.16,20.14,28.25,35.71,2.15,8.18,2.38,16.36.69,24.54-1.67,8.09-5.01,15.6-10.02,22.54-9.3,12.86-25.64,21.97-41.74,21.99-20.5.02-32.48,0-35.94-.05-1.09-.02-2.57-.74-4.44-2.15-1.28-.97-3.39-1.47-6.32-1.52-8.25-.13-28.07-.14-59.48-.04-6.21.02-11.99,3.89-14.05,9.92-.86,2.52-.52,5.72-.61,8.07ZM91.96,278.13c-.07-1.61-1.68-2.86-3.59-2.78-1.92.08-3.41,1.46-3.34,3.07.07,1.61,1.68,2.86,3.59,2.78,1.92-.08,3.41-1.46,3.34-3.07ZM211.21,278.21c-.04-1.62-1.61-2.9-3.52-2.86-1.9.04-3.42,1.39-3.38,3.02.04,1.62,1.61,2.9,3.52,2.86,1.9-.04,3.42-1.39,3.38-3.02ZM240.21,278.19c-.04-1.62-1.62-2.9-3.53-2.85-1.9.05-3.41,1.41-3.37,3.03.04,1.62,1.62,2.9,3.53,2.85,1.9-.05,3.41-1.41,3.37-3.03ZM65.67,278.15c-.06-1.62-1.65-2.89-3.56-2.82-1.9.07-3.4,1.45-3.34,3.07.06,1.62,1.65,2.89,3.56,2.82,1.9-.07,3.4-1.45,3.34-3.07ZM56.16,277.55c0-.17-.13-.3-.3-.3h-4.94c-.17,0-.3.13-.3.3v21.36c0,.17.13.3.3.3h4.94c.17,0,.3-.13.3-.3v-21.36ZM138.59,284.15c-7.38-4.91-14.81,4.45-10.77,11.44,1.98,3.41,5.3,4.54,9.94,3.38.18-.05.4-.2.67-.46.24-.24.43-.37.58-.38.24-.04.46.13.5.37,0,.07.02.12.03.16.15.33.48.55.84.55l3.74-.02c.29,0,.52-.23.52-.52v-21.12c0-.16-.14-.29-.3-.29h-4.75c-.15,0-.26.12-.26.26v6.24c0,.38-.42.6-.74.39ZM219.76,284.13c-.32.21-.75,0-.75-.39v-6.28c0-.14-.12-.26-.27-.26h-4.77c-.16,0-.29.14-.29.3l.02,21.24c0,.29.23.52.52.52h3.76c.37.01.7-.21.84-.55.02-.03.03-.08.03-.16.04-.24.27-.4.51-.37.14.01.34.14.58.38.27.26.5.42.67.46,4.68,1.16,8,.03,9.99-3.41,4.06-7.03-3.43-16.43-10.84-11.48ZM253.59,284.15c-7.38-4.92-14.82,4.44-10.78,11.43,1.98,3.42,5.29,4.55,9.94,3.39.17-.05.4-.2.67-.46.24-.24.43-.37.58-.38.24-.03.46.13.5.37,0,.07.02.13.03.16.15.33.48.55.84.55h3.74c.29,0,.52-.24.52-.53v-21.13c0-.16-.13-.29-.29-.29h-4.75c-.14,0-.26.12-.26.26v6.24c0,.38-.42.6-.74.39ZM28.11,280.06c.05-.14,0-.29-.14-.35-3.72-1.83-7.45-2.21-11.2-1.12-6.49,1.89-7.23,9.91-.28,11.77,3.51.94,5.47,1.46,5.88,1.55,1.13.26,1.53,1.67.69,2.48-2,1.94-7.61.3-9.44-.9-.3-.2-.71-.07-.84.27l-1.24,3.28c-.11.29.02.61.3.75,4.67,2.21,9.04,2.55,13.13,1,2.59-.99,4.01-2.85,4.24-5.59.46-5.33-6.42-6.22-10.13-7.13-1.43-.35-2-1.06-1.72-2.13.08-.3.26-.57.52-.74,1.84-1.22,4.65-1.02,8.44.61.17.08.37-.01.44-.19l1.35-3.56ZM280.96,278.47c-.18,0-.32.15-.31.33l.72,12.35c.01.16.15.29.31.29l3.98.03c.17,0,.3-.12.31-.28l1.08-12.35c.02-.18-.13-.33-.31-.33l-5.78-.04ZM95.99,279.47c-.33,0-.6.27-.6.61v2.64c0,.29-.24.53-.53.53h-1.54c-.28,0-.5.22-.5.5v2.89c0,.3.25.55.55.55h1.31c.38,0,.68.3.68.68.02,5.33-1.14,10.91,5.43,11.55,1.21.12,2.57,0,4.1-.35.43-.1.69-.54.57-.96l-.66-2.33c-.13-.45-.59-.71-1.04-.6-.57.13-1.2.12-1.89-.03-.51-.11-.87-.56-.87-1.09v-6.24c0-.33.27-.6.6-.6h2.42c.32,0,.58-.26.58-.59v-2.79c0-.33-.26-.59-.59-.59h-2.53c-.27,0-.48-.21-.48-.48v-2.57c0-.4-.33-.73-.73-.73h-4.28ZM9.72,285.94c0-1.77-1.43-3.2-3.2-3.2s-3.2,1.43-3.2,3.2,1.43,3.2,3.2,3.2,3.2-1.43,3.2-3.2ZM48.66,291.12c-.03-4.64-4.16-8.37-9.22-8.33-5.06.04-9.13,3.82-9.1,8.45.03,4.64,4.16,8.37,9.22,8.33,5.06-.04,9.13-3.82,9.1-8.45ZM67.1,291.18c-.01,2.65,1.09,4.81,3.3,6.47,3.45,2.58,10.92,2.94,13.15-1.95.11-.26.01-.56-.23-.7l-3.07-1.77c-.36-.21-.82-.08-1.03.28l-.38.66c-.12.21-.3.38-.52.48-2.88,1.43-5.68-.23-5.67-3.46,0-3.23,2.82-4.87,5.69-3.43.21.11.39.28.52.49l.37.66c.21.36.67.49,1.03.28l3.08-1.75c.25-.14.35-.44.23-.7-2.2-4.9-9.67-4.58-13.13-2.02-2.22,1.65-3.34,3.8-3.34,6.46ZM161.14,283.93v-.33c0-.19-.16-.35-.36-.35h-4.63c-.18,0-.33.15-.33.33v15.34c0,.17.13.3.3.3h4.95c.15,0,.28-.13.28-.28v-7.6c0-.14.02-.28.06-.42.65-2.39,2.11-3.4,4.39-3.03.44.07.83-.27.83-.71v-3.58c0-.47-.41-.83-.88-.77-1.53.19-2.75,1.06-3.8,1.59-.37.19-.81-.08-.81-.49ZM173.95,292.42l10.54.06c.31,0,.58-.23.62-.54.73-5.4-3.97-9.13-8.86-9.04-5.14.09-9.22,4.06-8.53,9.29,1,7.62,9.9,8.82,15.5,5.56.46-.27.54-.9.16-1.28l-1.73-1.74c-.39-.38-1-.44-1.45-.14-2.23,1.48-4.48,1.16-6.74-.95-.47-.44-.15-1.22.49-1.22ZM186.38,291.23c0,2.66,1.12,4.81,3.34,6.45,3.46,2.56,10.93,2.87,13.13-2.03.11-.26,0-.56-.23-.7l-3.08-1.75c-.36-.21-.82-.08-1.03.29l-.38.66c-.12.21-.3.38-.51.48-2.87,1.45-5.68-.19-5.69-3.42-.01-3.23,2.78-4.89,5.67-3.46.21.1.39.27.51.48l.38.66c.21.36.67.49,1.03.28l3.07-1.77c.24-.15.34-.45.23-.7-2.24-4.89-9.7-4.52-13.14-1.94-2.21,1.66-3.31,3.81-3.3,6.47ZM272.84,298.36s-.01.12-.02.25c-.04.33.21.61.54.61l3.95.02c.39,0,.71-.31.7-.7-.03-2.66-.04-5.2,0-7.61.12-9.09-8.73-9.41-14.87-6.46-.26.13-.37.44-.24.7l1.32,2.8c.13.28.48.38.74.21,1.2-.77,2.61-1.15,4.22-1.16,1.06-.01,2.07.44,2.77,1.23l.25.28c.41.46.11,1.2-.51,1.23-2.44.14-6.79-.35-8.8,2.23-2.05,2.62-.55,6.29,2.62,7.16,1.49.41,5.23.61,6.23-.82.25-.35.4-.54.44-.55.36-.1.71.2.67.58ZM64.99,283.58c0-.19-.15-.34-.34-.34h-4.92c-.19,0-.34.15-.34.34v15.3c0,.19.15.34.34.34h4.92c.19,0,.34-.15.34-.34v-15.3ZM91.15,283.58c0-.18-.14-.32-.32-.32h-4.88c-.18,0-.32.14-.32.32v15.32c0,.18.14.32.32.32h4.88c.18,0,.32-.14.32-.32v-15.32ZM118.81,283.53v8.34c0,1.48-1.12,2.73-2.6,2.88l-.46.05c-1.48.15-2.76-1.01-2.76-2.5v-8.69c0-.2-.17-.37-.37-.37h-4.87c-.19,0-.35.16-.35.35-.06,5.24-.03,8.57.08,10,.44,5.5,6.89,7.78,10.69,4.48.29-.25.74-.04.74.34v.36c0,.25.2.45.45.45h4.54c.25,0,.46-.2.46-.45v-15.21c0-.18-.14-.32-.32-.32h-4.95c-.15,0-.28.13-.28.29ZM210.36,283.51c0-.14-.12-.26-.26-.26h-5.02c-.14,0-.26.12-.26.26v15.46c0,.14.12.26.26.26h5.02c.14,0,.26-.12.26-.26v-15.46ZM239.36,283.51c0-.15-.12-.27-.27-.27h-5c-.15,0-.27.12-.27.27v15.44c0,.15.12.27.27.27h5c.15,0,.27-.12.27-.27v-15.44ZM3.86,303.84h5.32c.13,0,.23-.11.23-.24v-5.85c-.02-3.92-.63-7.09-1.39-7.09h-3.04c-.76,0-1.37,3.18-1.36,7.11v5.85c.01.12.11.22.24.22ZM287.14,296.57c.04-1.68-1.43-3.07-3.28-3.12-1.85-.04-3.39,1.28-3.43,2.96-.04,1.68,1.43,3.07,3.28,3.12,1.85.04,3.39-1.28,3.43-2.96Z"/>
  <path class="st21" d="M444.51,279.23c-9.35,2.45-19.98,1.22-29-2.48-1.52-.62-2.3-2.33-1.76-3.89l.05-.15c.54-1.57,2.26-2.4,3.83-1.85,8.4,2.98,17.06,3.96,25.18,1.84,8.12-2.12,15.18-7.22,21.05-13.92,1.1-1.26,3.01-1.37,4.25-.27l.11.11c1.24,1.09,1.4,2.96.37,4.25-6.05,7.64-14.72,13.91-24.08,16.36ZM443.27,274.02c-8.34,2.18-17.02,1.46-26.05-2.15-.66-.27-1.42-.02-1.81.58-1.37,2.13.98,3.46,2.64,3.99,6,1.9,12.15,2.72,18.45,2.45,2.61-.11,5.18-.5,7.74-1.17,2.55-.66,4.98-1.59,7.31-2.76,5.63-2.85,10.59-6.58,14.89-11.17,1.19-1.27,2.59-3.58.35-4.77-.63-.34-1.41-.18-1.86.38-6.1,7.57-13.32,12.44-21.66,14.62Z"/>
  <path class="st25" d="M444.24,277.72c-2.56.67-5.13,1.06-7.74,1.17-6.3.27-12.45-.55-18.45-2.45-1.66-.53-4.01-1.86-2.64-3.99.39-.6,1.15-.85,1.81-.58,9.03,3.61,17.71,4.33,26.05,2.15,8.34-2.18,15.56-7.05,21.66-14.62.45-.56,1.23-.72,1.86-.38,2.24,1.19.84,3.5-.35,4.77-4.3,4.59-9.26,8.32-14.89,11.17-2.33,1.17-4.76,2.1-7.31,2.76Z"/>
  <ellipse class="st20" cx="88.49" cy="278.27" rx="3.47" ry="2.93" transform="translate(-11.58 3.95) rotate(-2.4)"/>
  <ellipse class="st20" cx="207.76" cy="278.28" rx="3.45" ry="2.94" transform="translate(-6.26 4.79) rotate(-1.3)"/>
  <ellipse class="st20" cx="236.76" cy="278.28" rx="3.45" ry="2.94" transform="translate(-7.2 6.29) rotate(-1.5)"/>
  <ellipse class="st20" cx="62.22" cy="278.27" rx="3.45" ry="2.95" transform="translate(-10.16 2.47) rotate(-2.1)"/>
  <rect class="st20" x="50.62" y="277.25" width="5.54" height="21.96" rx=".3" ry=".3"/>
  <path class="st20" d="M138.59,284.15c.32.21.74-.01.74-.39v-6.24c0-.14.11-.26.26-.26h4.75c.16,0,.29.13.29.29v21.12c0,.29-.22.52-.51.52l-3.74.02c-.36,0-.69-.22-.84-.55-.01-.04-.02-.09-.03-.16-.04-.24-.26-.41-.5-.37-.15.01-.34.14-.58.38-.27.26-.49.41-.67.46-4.64,1.16-7.96.03-9.94-3.38-4.04-6.99,3.39-16.35,10.77-11.44ZM135.76,295.25c1.97.03,3.59-1.75,3.63-3.98.03-2.23-1.54-4.07-3.51-4.1-1.97-.03-3.59,1.75-3.63,3.98-.03,2.23,1.54,4.07,3.51,4.1Z"/>
  <path class="st20" d="M219.76,284.13c7.41-4.95,14.9,4.45,10.84,11.48-1.99,3.44-5.31,4.57-9.99,3.41-.17-.04-.4-.2-.67-.46-.24-.24-.44-.37-.58-.38-.24-.03-.47.13-.51.37,0,.08,0,.13-.03.16-.14.34-.47.56-.84.56h-3.76c-.29-.01-.52-.24-.52-.53l-.02-21.24c0-.16.13-.29.29-.29h4.77c.15,0,.27.11.27.25v6.28c0,.38.43.6.75.39ZM222.46,295.26c1.94.06,3.58-1.7,3.66-3.93.07-2.24-1.45-4.1-3.39-4.16-1.94-.06-3.58,1.7-3.66,3.93-.07,2.24,1.45,4.1,3.39,4.16Z"/>
  <path class="st20" d="M254.33,283.76v-6.24c0-.14.12-.26.26-.26h4.75c.16,0,.29.13.29.29v21.13c0,.29-.23.52-.52.52h-3.74c-.36,0-.69-.21-.84-.54-.01-.03-.02-.09-.03-.16-.04-.24-.26-.4-.5-.37-.15.01-.34.14-.58.38-.27.26-.5.41-.67.46-4.65,1.16-7.96.03-9.94-3.39-4.04-6.99,3.4-16.35,10.78-11.43.32.21.74-.01.74-.39ZM250.78,295.25c1.98.03,3.61-1.76,3.64-3.99.03-2.23-1.55-4.06-3.52-4.09-1.98-.03-3.61,1.76-3.64,3.99-.03,2.23,1.55,4.06,3.52,4.09Z"/>
  <path class="st20" d="M28.11,280.06l-1.35,3.56c-.07.18-.27.27-.44.19-3.79-1.63-6.6-1.83-8.44-.61-.26.17-.44.44-.52.74-.28,1.07.29,1.78,1.72,2.13,3.71.91,10.59,1.8,10.13,7.13-.23,2.74-1.65,4.6-4.24,5.59-4.09,1.55-8.46,1.21-13.13-1-.28-.14-.41-.46-.3-.75l1.24-3.28c.13-.34.54-.47.84-.27,1.83,1.2,7.44,2.84,9.44.9.84-.81.44-2.22-.69-2.48-.41-.09-2.37-.61-5.88-1.55-6.95-1.86-6.21-9.88.28-11.77,3.75-1.09,7.48-.71,11.2,1.12.13.06.19.21.14.35Z"/>
  <path class="st20" d="M280.96,278.47l5.78.04c.18,0,.33.15.31.33l-1.08,12.35c-.01.16-.14.28-.31.28l-3.98-.03c-.16,0-.3-.13-.31-.29l-.72-12.35c-.01-.18.13-.33.31-.33Z"/>
  <path class="st20" d="M101,280.2v2.57c0,.27.21.48.48.48h2.53c.33,0,.59.26.59.59v2.79c0,.33-.26.59-.58.59h-2.42c-.33,0-.6.27-.6.6v6.24c0,.53.36.98.87,1.09.69.15,1.32.16,1.89.03.45-.11.91.15,1.04.6l.66,2.33c.12.42-.14.86-.57.96-1.53.35-2.89.47-4.1.35-6.57-.64-5.41-6.22-5.43-11.55,0-.38-.3-.68-.68-.68h-1.31c-.3,0-.55-.25-.55-.55v-2.89c0-.28.22-.5.5-.5h1.54c.29,0,.53-.24.53-.53v-2.64c0-.34.27-.61.6-.61h4.28c.4,0,.73.33.73.73Z"/>
  <circle class="st20" cx="6.52" cy="285.94" r="3.2"/>
  <path class="st20" d="M48.66,291.12c.03,4.63-4.04,8.41-9.1,8.45-5.06.04-9.19-3.69-9.22-8.33-.03-4.63,4.04-8.41,9.1-8.45,5.06-.04,9.19,3.69,9.22,8.33ZM39.47,295.27c1.96,0,3.55-1.81,3.55-4.04s-1.58-4.06-3.53-4.06-3.55,1.81-3.55,4.04,1.58,4.06,3.53,4.06Z"/>
  <path class="st20" d="M72.65,291.19c-.01,3.23,2.79,4.89,5.67,3.46.22-.1.4-.27.52-.48l.38-.66c.21-.36.67-.49,1.03-.28l3.07,1.77c.24.14.34.44.23.7-2.23,4.89-9.7,4.53-13.15,1.95-2.21-1.66-3.31-3.82-3.3-6.47,0-2.66,1.12-4.81,3.34-6.46,3.46-2.56,10.93-2.88,13.13,2.02.12.26.02.56-.23.7l-3.08,1.75c-.36.21-.82.08-1.03-.28l-.37-.66c-.13-.21-.31-.38-.52-.49-2.87-1.44-5.68.2-5.69,3.43Z"/>
  <path class="st20" d="M161.95,284.42c1.05-.53,2.27-1.4,3.8-1.59.47-.06.88.3.88.77v3.58c0,.44-.39.78-.83.71-2.28-.37-3.74.64-4.39,3.03-.04.14-.06.28-.06.42v7.6c0,.15-.13.28-.28.28h-4.95c-.17,0-.3-.13-.3-.3v-15.34c0-.18.15-.33.33-.33h4.63c.2,0,.36.16.36.35v.33c0,.41.44.68.81.49Z"/>
  <path class="st20" d="M173.95,292.42c-.64,0-.96.78-.49,1.22,2.26,2.11,4.51,2.43,6.74.95.45-.3,1.06-.24,1.45.14l1.73,1.74c.38.38.3,1.01-.16,1.28-5.6,3.26-14.5,2.06-15.5-5.56-.69-5.23,3.39-9.2,8.53-9.29,4.89-.09,9.59,3.64,8.86,9.04-.04.31-.31.54-.62.54l-10.54-.06ZM173.38,289.64l6.28.06c.08,0,.15-.06.15-.15v-.14c0-1.39-1.38-2.54-3.12-2.56h-.3c-1.73-.02-3.15,1.1-3.16,2.5v.14c0,.08.06.15.15.15Z"/>
  <path class="st20" d="M186.38,291.23c0-2.66,1.09-4.81,3.3-6.47,3.44-2.58,10.9-2.95,13.14,1.94.11.25,0,.55-.23.7l-3.07,1.77c-.36.21-.82.08-1.03-.28l-.38-.66c-.12-.21-.3-.38-.51-.48-2.89-1.43-5.68.23-5.67,3.46,0,3.23,2.82,4.87,5.69,3.42.21-.1.39-.27.51-.48l.38-.66c.21-.37.67-.5,1.03-.29l3.08,1.75c.24.14.34.44.23.7-2.2,4.9-9.67,4.59-13.13,2.03-2.22-1.64-3.33-3.79-3.34-6.45Z"/>
  <path class="st20" d="M272.17,297.78s-.19.2-.44.55c-1,1.43-4.74,1.23-6.23.82-3.17-.87-4.67-4.54-2.62-7.16,2.01-2.58,6.36-2.09,8.8-2.23.62-.03.92-.77.51-1.23l-.25-.28c-.7-.79-1.71-1.24-2.77-1.23-1.61,0-3.02.39-4.22,1.16-.26.17-.61.07-.74-.21l-1.32-2.8c-.13-.26-.02-.57.24-.7,6.14-2.95,14.99-2.63,14.87,6.46-.03,2.41-.02,4.95,0,7.61.01.39-.31.71-.7.7l-3.95-.02c-.33,0-.58-.28-.54-.61.01-.13.02-.22.02-.25.04-.38-.31-.68-.67-.58ZM271.65,292.81l-3.74.18c-.37.02-.66.34-.64.71v.09c.07,1.39,1.18,2.46,2.5,2.4l.34-.02c1.31-.06,2.32-1.23,2.26-2.62v-.09c-.03-.37-.34-.66-.72-.65Z"/>
  <rect class="st20" x="59.39" y="283.24" width="5.6" height="15.98" rx=".34" ry=".34"/>
  <rect class="st20" x="85.63" y="283.26" width="5.52" height="15.96" rx=".32" ry=".32"/>
  <path class="st20" d="M118.81,283.53c0-.16.13-.29.28-.29h4.95c.18,0,.32.14.32.32v15.21c0,.25-.21.45-.46.45h-4.54c-.25,0-.45-.2-.45-.45v-.36c0-.38-.45-.59-.74-.34-3.8,3.3-10.25,1.02-10.69-4.48-.11-1.43-.14-4.76-.08-10,0-.19.16-.35.35-.35h4.87c.2,0,.37.17.37.37v8.69c0,1.49,1.28,2.65,2.76,2.5l.46-.05c1.48-.15,2.6-1.4,2.6-2.88v-8.34Z"/>
  <rect class="st20" x="204.82" y="283.25" width="5.54" height="15.98" rx=".26" ry=".26"/>
  <rect class="st20" x="233.82" y="283.24" width="5.54" height="15.98" rx=".27" ry=".27"/>
  <path class="st22" d="M173.38,289.64c-.09,0-.15-.07-.15-.15v-.14c0-1.4,1.43-2.52,3.16-2.5h.3c1.74.02,3.13,1.17,3.12,2.56v.14c0,.09-.07.15-.15.15l-6.28-.06Z"/>
  <ellipse class="st22" cx="39.48" cy="291.22" rx="4.05" ry="3.54" transform="translate(-251.81 330.2) rotate(-89.9)"/>
  <ellipse class="st22" cx="135.82" cy="291.21" rx="4.04" ry="3.57" transform="translate(-157.49 422.45) rotate(-89.1)"/>
  <ellipse class="st22" cx="222.59" cy="291.21" rx="4.05" ry="3.53" transform="translate(-75.84 504.03) rotate(-88.1)"/>
  <ellipse class="st22" cx="250.83" cy="291.21" rx="4.04" ry="3.58" transform="translate(-43.86 537.96) rotate(-89.2)"/>
  <path class="st20" d="M3.86,303.84c-.13,0-.23-.1-.23-.22v-5.85c-.02-3.93.59-7.11,1.35-7.11h3.04c.76,0,1.37,3.17,1.38,7.09v5.85c.01.13-.09.24-.22.24H3.86Z"/>
  <path class="st22" d="M271.65,292.81c.38,0,.69.28.71.65v.09c.07,1.39-.94,2.56-2.25,2.62l-.34.02c-1.32.06-2.43-1.01-2.5-2.4v-.09c-.02-.37.27-.69.64-.71l3.74-.18Z"/>
  <ellipse class="st20" cx="283.78" cy="296.48" rx="3.04" ry="3.36" transform="translate(-19.55 572.94) rotate(-88.6)"/>
  <path class="st24" d="M544.4,484.67c-2.86.24-4.96-.01-5.42,3.7-.68,5.48-1.5,11.54-2.46,18.18-.02.17-.17.29-.34.3-14.56.21-29.76,1.16-42.59,1.25-28.79.18-46.33.14-52.6-.11-20.54-.83-39.92-1.81-58.15-2.96-.29-.02-.51-.26-.49-.55.25-3.87.4-9.16.43-15.89,0-1.71-.25-3.14-.76-4.3-.14-.31-.19-.65-.14-.98,1.73-11.53,2.5-18.3,4.63-28.73,6.13-30.09,14.78-59.59,25.93-88.52.88-2.27,1.95-4.54,3.2-6.81.81-1.47,2.07-2.46,3.78-2.98,3.03-.92,6.25-1.87,9.66-2.84.32-.09.56.29.35.54-4.9,5.82-8.01,15-5.63,22.53,5.42,17.13,18.79,25.52,36.09,28.43,5.09.86,11.48,1.02,19.16.47,20.14-1.43,40.85-10.94,56.78-22.73,9.61-7.11,17.56-14.99,23.85-23.63,2.15-2.95,6-8.89,5.91-12.24,0-.34.04-.59.13-.74.12-.19.36-.26.57-.18l19.65,7.8c.24.1.34.38.21.6-3.67,6.53-6.59,12.35-8.77,17.44-15.67,36.57-26.5,74.06-32.48,112.48-.04.25-.24.45-.5.47Z"/>
  <path class="st29" d="M199.03,346.61l2.41.16c.26.02.38.33.19.51l-.76.7c-.06.06-.15.1-.24.09-19.19-.18-38.36-.29-57.51-.34-1.72-.01-3.79,1.14-6.21,3.44,1.55-3.17,4.32-4.74,8.33-4.73,17.93.07,35.86.12,53.79.17Z"/>
  <path class="st28" d="M136.91,351.17c2.42-2.3,4.49-3.45,6.21-3.44,19.15.05,38.32.16,57.51.34.09.01.18-.03.24-.09l.76-.7c.19-.18.07-.49-.19-.51l-2.41-.16,4.76-.03c.36,0,.71.05,1.05.15,5.57,1.62,7.02,5.31,7.84,11.2,1.46,10.47,3.74,25.28,6.83,44.42,3.27,20.22,7.61,47.39,13.02,81.52.71,4.43,1.65,7.57.49,10.62-1.19,3.13-3.79,4.71-7.8,4.74-7.65.05-15.86-.01-24.65-.2-.21,0-.33-.23-.21-.4,3.72-5.31,4.94-12.78-.83-17.21-.33-.25-.28-.76.09-.96,3.17-1.69,5.71-5.82,6.12-9.42.55-4.87-1.47-8.67-6.05-11.39-.24-.15-.29-.47-.11-.68,3.89-4.41,4.84-9.18,2.85-14.3-2.47-6.38-10.71-9.11-17.18-9.44-.28-.01-.42-.35-.23-.56,1.15-1.29,1.9-2.86,2.25-4.72,1.73-9.25-1.8-15.01-10.59-17.26-2.26-.57-6.03-.54-11.32.09-6.3.76-12.71,2.03-19.22,3.81-.37.1-.76-.14-.82-.53-3.37-20.08-6.55-39.57-9.56-58.47-.5-3.12-.12-5.26,1.15-6.42Z"/>
  <path class="st24" d="M644.61,623.63c-.79-.71-2.79-1.11-3.97-1.79-6.98-3.99-13.09-8.92-18.34-14.79-21.41-23.93-33.9-55.25-37.99-86.93-.06-.46.32-.86.77-.82,3.66.25,3.97-3.65,4.57-6.53,1.07-5.07,1.91-10.63,2.51-16.69.18-1.83.13-3.27-.16-4.31-.1-.36-.29-.69-.55-.95-.77-.77-1.66-1.2-2.67-1.29-.58-.05-.99-.6-.88-1.17,5.33-28.53,12.93-56.3,22.81-83.32,4.67-12.79,10.05-25.36,16.14-37.73.06-.12.2-.18.32-.13,9.97,3.97,19,7.94,27.08,11.9,21.31,10.44,38.25,24.76,50.81,42.95,6.54,9.48,12.28,20.49,17.22,33.03,7.63,19.39,14.44,39.66,20.43,60.8,6.88,24.28,13.27,45.9,19.18,64.86.07.22-.07.46-.29.52l-120.68,32.4c-.26.07-.53-.09-.58-.35l-20.7-98.71c-.27-1.29-1.58-2.07-2.84-1.71l-.27.08c-1.5.3-2.46,1.76-2.16,3.26,7.04,34.81,13.52,67.56,21.1,99.86,1.12,4.8,4.35,4.07,8.15,2.9.34-.11.7.1.78.45l.81,3.87c.07.34-.34.57-.6.34Z"/>
  <path class="st24" d="M370.2,377.29c-1.91,4.16-3.48,7.86-4.7,11.1-11.55,30.6-18.77,61.93-21.68,93.99-.02.21-.19.37-.4.38-3.55.21-7.11-.1-7.29,4.79-.22,5.77-.17,10.69-.26,14.3-.09,3.79.14,7.25.69,10.38.08.48.02.98-.19,1.43-3.97,8.45-7.36,16.88-10.16,25.29-.07.22-.3.35-.52.3-.23-.05-.38-.26-.36-.49l5.65-64.3c.13-1.38-.92-2.59-2.31-2.67h-.18c-1.51-.09-2.81,1.03-2.96,2.53-2.53,25.09-4.73,50.34-6.61,75.76-.85,11.43-.88,22.12-1.68,33.18-.02.25-.28.41-.51.31l-63.92-26.21c-.37-.15-.56-.56-.45-.95.98-3.35,2.42-7.24,4.31-11.66,14.38-33.53,28.66-66.42,44.39-99.58,3.94-8.33,9.46-18.4,15.95-26.55,14.38-18.05,32-31.93,52.86-41.65.21-.1.42.11.33.32Z"/>
  <path class="st26" d="M173.56,517.28c-.36-.14-.4-.63-.06-.83l17.96-10.37c.78-.45,1.66-.69,2.56-.68l17.86.1c.29,0,.53.23.54.52.22,11.89-.2,23.58-1.26,35.07-.04.42-.03.85.04,1.27.25,1.47,1.36,3.78,3.34,6.93,14.71,23.32,24.83,38.96,30.36,46.91,11.17,16.09,23.6,33.1,37.3,51.03,1.05,1.37,2.98,1.71,4.43.77l.15-.1c1.28-.84,1.6-2.59.69-3.82l-35.99-49.07c-.44-.6-.53-1.39-.23-2.07,3.4-7.7,6.53-16.19,9.4-25.48.09-.29.41-.43.68-.32l54.98,22.55c.53.22.87.73.87,1.3l-.61,109.27c0,.6-.15,1.2-.45,1.73-5.41,9.88-12.57,18.55-21.48,26-25.77,21.56-53.53,9.01-71.37-14.7-7.92-10.52-14.87-22.31-20.84-35.36-6.86-14.98-12.72-29.22-17.57-42.71-8.31-23.08-16.45-47.05-24.44-71.91-.4-1.25-1.07-2.4-1.95-3.38-3.35-3.71-7.57-6.57-10.79-9.95-5.84-6.15-10.07-10.93-12.69-14.35-9-11.75-15.27-24.82-18.82-39.19-1.61-6.53-2.99-12.89-4.15-19.1-.36-1.95-.51-3.77-.45-5.46.42-12.07,3.25-23.86,8.48-35.38.56-1.23,1.93-2.72,4.1-4.48,3.23-2.63,7.26-3.96,12.38-5.75,10.97-3.85,21.8-6.39,32.51-7.62,3.02-.35,5.76-.11,8.23.71,3.26,1.09,5.15,5.65,4.24,8.77-1.44,4.99-8.57,8.41-13.07,9.47-8.78,2.08-17.67,4.5-26.67,7.27-5.41,1.67-10.79,3.87-16.14,6.6-1.75.89-2.86,2.69-2.87,4.66v.42c-.01,1.46,1.54,2.41,2.84,1.73,5.73-2.99,10.36-5.05,13.91-6.18,12.85-4.08,25.69-7.46,38.54-10.13,5.94-1.24,14.4-1.05,18.33,4.7,2.07,3.02,1.53,5.61-1.62,7.78-2.49,1.71-5.27,2.99-8.34,3.84-18.33,5.05-35.58,10.96-51.73,17.72-2.67,1.12-7.48,3.57-4.71,7.12.78,1,2.13,1.33,3.21.78,13.11-6.64,27.83-11.21,42.79-15.82,6.25-1.92,11.63-3.13,16.15-3.62,2.84-.31,5.11.61,6.8,2.75,5.51,6.95-12.75,12.82-17.81,14.58-12.17,4.21-26.43,10.18-42.78,17.89-1.6.76-2.43,2.55-1.97,4.26l.06.24c.41,1.55,2.14,2.34,3.58,1.64,12.65-6.17,26.23-11.9,40.75-17.19,4.95-1.8,12.6-5.27,16.52-.11.32.42.42.96.28,1.46-1.01,3.69-2.83,6.34-5.45,7.97-10.53,6.53-21.61,12.97-33.24,19.31-1.42.77-2.04,2.47-1.46,3.97l.02.07c.53,1.58,2.33,2.35,3.83,1.63l2.92-1.39c.23-.1.49-.14.74-.11,7.19.99,13.11,4.42,17.76,10.31,1.14,1.43,3.2,1.71,4.68.65l.14-.1c1.39-.99,1.65-2.97.55-4.29-4.27-5.13-9.1-8.71-14.49-10.73Z"/>
  <path class="st31" d="M124.09,457.48c.02-.32.48-.35.59-.04.04.11.03.24-.02.37-.04.11-.17.17-.28.12-.21-.09-.31-.24-.29-.45Z"/>
  <path class="st27" d="M521.24,604.83c-.29,10.34-8.91,18.49-19.25,18.2l-91.08-2.54c-10.34-.29-18.49-8.91-18.2-19.25l.49-17.71c.29-10.34,8.91-18.49,19.25-18.2l91.08,2.54c10.34.29,18.49,8.91,18.2,19.25l-.49,17.71ZM462.13,577.37l-4,.02c-.33,0-.59.26-.59.59l.09,26.83c0,1.43,1.15,2.59,2.54,2.59h.12c1.4-.01,2.53-1.17,2.52-2.61l-.09-26.83c0-.32-.27-.59-.59-.59ZM414.58,589.67c-.18,0-.32-.14-.32-.32v-9.5c0-.92-.74-1.67-1.66-1.67h-1.07c-1.42,0-2.57,1.16-2.57,2.58v23.52c0,.47.39.86.86.86h2.96c.74,0,1.34-.6,1.34-1.34v-9.09c0-.34.28-.61.62-.61h11.27c.32,0,.58.26.58.58v9.79c0,.86.7,1.56,1.57,1.56h.4c1.35,0,2.45-1.1,2.45-2.45v-23.62c0-.43-.35-.78-.78-.78h-2.76c-.45,0-.82.36-.82.81v9.15c0,.29-.23.53-.52.53h-11.55ZM452.77,597.51c1.23,0,2.05-1.28,1.54-2.4-.55-1.19-.86-2.1-.93-2.73-.42-3.77-3.87-6.34-7.37-6.61-5.32-.41-8.83,1.78-10.54,6.59-.11.31-.18.64-.2.98-.15,3.07-.19,4.83-.1,5.28.71,3.53,2.72,5.96,6.02,7.29,4.27,1.72,8.21.87,11.82-2.56.38-.37.45-.95.17-1.39l-.32-.49c-.57-.9-1.78-1.14-2.66-.53-1.79,1.25-4.16,1.79-7.09,1.63-1.25-.07-2.39-.74-3.06-1.79l-.71-1.12c-.59-.93.08-2.15,1.18-2.15h12.25ZM467.53,614.46l3.1.02c.38,0,.68-.3.69-.68l.04-7.69c0-.3.34-.49.59-.32,1.73,1.17,3.57,1.87,5.52,2.11.34.04.68.03,1.01-.04,3.98-.82,6.44-3.06,7.38-6.73.5-1.97.22-4.27.27-6.59,0-.37-.03-.73-.12-1.09-1.45-5.91-5.33-8.02-11.64-6.33-.09.02-.16.06-.23.11l-1.99,1.45c-.39.29-.94.01-.94-.48v-.65c.01-.47-.37-.86-.84-.86h-2c-.8-.02-1.45.63-1.45,1.42l-.14,25.59c-.01.42.33.76.75.76ZM497.93,600.03c-.25.66-1.19.63-1.41-.04l-3.63-11.32c-.39-1.21-1.53-2.01-2.8-1.97h-.06c-1.12.06-1.89,1.15-1.56,2.22,1.73,5.66,3.39,10.81,4.99,15.45.15.45.64,1.34,1.47,2.68.17.28.24.62.19.94-.49,3.01-2.66,2.97-5.1,2.95-1.74-.02-2.35,2.3-.83,3.15,5.79,3.24,8.58-1.18,10.45-6.41,1.97-5.49,4.36-11.22,7.17-17.2.54-1.14.01-2.5-1.16-2.98l-.26-.1c-1.21-.5-2.59.09-3.06,1.31l-4.4,11.32Z"/>
  <path class="st22" d="M462.13,577.37c.32,0,.59.27.59.59l.09,26.83c0,1.44-1.12,2.6-2.52,2.61h-.12c-1.39,0-2.53-1.16-2.54-2.59l-.09-26.83c0-.33.26-.59.59-.59l4-.02Z"/>
  <path class="st22" d="M414.58,589.67h11.55c.29,0,.52-.24.52-.53v-9.15c0-.45.37-.81.82-.81h2.76c.43,0,.78.35.78.78v23.62c0,1.35-1.1,2.45-2.45,2.45h-.4c-.87,0-1.57-.7-1.57-1.56v-9.79c0-.32-.26-.58-.58-.58h-11.27c-.34,0-.62.27-.62.61v9.09c0,.74-.6,1.34-1.34,1.34h-2.96c-.47,0-.86-.39-.86-.86v-23.52c0-1.42,1.15-2.58,2.57-2.58h1.07c.92,0,1.66.75,1.66,1.67v9.5c0,.18.14.32.32.32Z"/>
  <path class="st22" d="M452.77,597.51h-12.25c-1.1,0-1.77,1.22-1.18,2.15l.71,1.12c.67,1.05,1.81,1.72,3.06,1.79,2.93.16,5.3-.38,7.09-1.63.88-.61,2.09-.37,2.66.53l.32.49c.28.44.21,1.02-.17,1.39-3.61,3.43-7.55,4.28-11.82,2.56-3.3-1.33-5.31-3.76-6.02-7.29-.09-.45-.05-2.21.1-5.28.02-.34.09-.67.2-.98,1.71-4.81,5.22-7,10.54-6.59,3.5.27,6.95,2.84,7.37,6.61.07.63.38,1.54.93,2.73.51,1.12-.31,2.4-1.54,2.4ZM440.82,594.17l8,.08c.41,0,.74-.32.74-.72v-.17c.03-2.31-1.85-4.2-4.18-4.22l-1-.02c-2.34-.02-4.25,1.83-4.28,4.14v.17c0,.4.32.73.72.74Z"/>
  <path class="st22" d="M467.53,614.46c-.42,0-.76-.34-.75-.76l.14-25.59c0-.79.65-1.44,1.45-1.43h2c.47.01.85.4.85.87v.65c-.01.49.54.77.93.48l1.99-1.45c.07-.05.14-.09.23-.11,6.31-1.69,10.19.42,11.64,6.33.09.36.13.72.12,1.09-.05,2.32.23,4.62-.27,6.59-.94,3.67-3.4,5.91-7.38,6.73-.33.07-.67.08-1.01.04-1.95-.24-3.79-.94-5.52-2.11-.25-.17-.59.02-.59.32l-.04,7.69c0,.38-.31.68-.69.68l-3.1-.02ZM471.75,594.33c-.28.1-.46.37-.46.67v4.59c0,.06.01.12.03.17,1.25,3.09,3.63,4.24,7.15,3.46,5.68-1.26,3.71-15.53-3.08-12.14-1.28.64-2.21,2.71-3.64,3.25Z"/>
  <path class="st22" d="M497.93,600.03l4.4-11.32c.47-1.22,1.85-1.81,3.06-1.31l.26.1c1.17.48,1.7,1.84,1.16,2.98-2.81,5.98-5.2,11.71-7.17,17.2-1.87,5.23-4.66,9.65-10.45,6.41-1.52-.85-.91-3.17.83-3.15,2.44.02,4.61.06,5.1-2.95.05-.32-.02-.66-.19-.94-.83-1.34-1.32-2.23-1.47-2.68-1.6-4.64-3.26-9.79-4.99-15.45-.33-1.07.44-2.16,1.56-2.21h.06c1.27-.05,2.41.75,2.8,1.96l3.63,11.32c.22.67,1.16.7,1.41.04Z"/>
  <path class="st27" d="M440.82,594.17c-.4-.01-.72-.34-.72-.74v-.17c.03-2.31,1.94-4.16,4.28-4.14l1,.02c2.33.02,4.21,1.91,4.18,4.22v.17c0,.4-.33.73-.74.72l-8-.08Z"/>
  <path class="st26" d="M459.43,707.01c11.76-1.65,24.25-1.7,35.15,1.36,14.86,4.18,33.8,13.21,44.27,16.65,3.84,1.26,7.61,1.34,11.3.24,17.17-5.12,33.92-12.54,49.54-19.97,12.84-6.11,29.46-14.16,49.85-24.14,10.52-5.14,20.72-9.91,31.72-11.5,1.61-.23,2.77-1.68,2.64-3.3v-.18c-.13-1.48-1.43-2.57-2.9-2.42-5.47.55-10.7,1.89-15.7,4.01-.26.11-.55-.03-.62-.3l-14.06-49.25c-.16-.57.17-1.16.74-1.31l98.58-26.46c.35-.09.7.13.76.48,4.87,27.65,9.37,55.76,10.52,82.66.45,10.69-.47,20.74-2.78,30.15-3.93,16.1-16.83,27.32-31.02,35.54-11.97,6.94-25.36,12.8-40.16,17.57-34.85,11.24-74.34,19.04-112.21,26.81-4.85.99-8.67,2.47-13.07,5.31-11.47,7.4-23.33,13.81-35.6,19.23-12.88,5.7-26.17,8.03-39.87,6.99-4.83-.37-9.25-2.22-13.26-5.57-.56-.47-.25-1.37.48-1.41,7.49-.37,14.97-1.34,22.45-2.91,1.63-.34,2.71-1.89,2.47-3.53l-.02-.12c-.23-1.59-1.72-2.67-3.3-2.39-7.01,1.24-14.03,2.18-21.08,2.83-5.02.47-9.12.48-12.29.05-4.25-.58-8.74-4.74-8.37-9.35.04-.58.47-1.06,1.05-1.17l26.37-4.77c1.72-.31,2.93-1.87,2.8-3.62v-.16c-.1-1.58-1.57-2.72-3.13-2.41-11.76,2.38-21.14,3.96-28.13,4.73-7.44.83-12.44-1.78-15-7.83-.57-1.35-.78-2.63-.61-3.85.4-2.9,3.12-2.96,6.05-3.63,3.48-.79,11.83-3.52,25.05-8.2,1.52-.53,2.51-2,2.44-3.61v-.27c-.07-1.38-1.34-2.39-2.7-2.13-1.41.27-3.37.82-5.88,1.65-6.12,2.04-13.1,4.31-20.95,6.8-6.16,1.96-13.67,1.95-17.46-4.02-4.08-6.44,3.38-10.88,8.78-14.42,10.64-6.99,22.37-13.26,35.18-18.81,2.35-1.02,6.4-2.17,12.14-3.45,1.48-.33,2.44-1.76,2.2-3.25l-.04-.26c-.23-1.42-1.52-2.42-2.95-2.3-2.49.21-4.86.83-7.12,1.85-.19.08-.42.04-.57-.11l-11.9-11.89c-.22-.22-.09-.59.22-.64Z"/>
  <path class="st27" d="M471.75,594.33c1.43-.54,2.36-2.61,3.64-3.25,6.79-3.39,8.76,10.88,3.08,12.14-3.52.78-5.9-.37-7.15-3.46-.02-.05-.03-.11-.03-.17v-4.59c0-.3.18-.57.46-.67Z"/>
  <path class="st22" d="M351.44,625.18l7.11-7.12c.32-.32.83-.34,1.18-.06,2.85,2.33,7.52,5.87,14,10.6,4.29,3.14,5.65,8.49,7.26,13.44.55,1.7,1.45,3.27,2.65,4.61l37.37,41.66c.1.12.1.3-.02.4l-4.92,4.41c-.09.09-.25.08-.34-.02-14.01-15.27-26.62-29.16-37.81-41.68-2.71-3.03-5.21-3.64-8.89-4.89-3.65-1.24-6.53-4.82-8.47-7.97-2.91-4.73-5.96-9.03-9.15-12.9-.11-.14-.1-.35.03-.48ZM357.9,620.51l-4.62,3.78c-.52.43-.6,1.19-.19,1.72,2.95,3.77,5.71,7.75,8.27,11.94,2.8,4.59,5.58,7.08,10.68,8.21.24.05.47.13.69.23,2.31,1.04,4.67,2.92,7.08,5.65,10.68,12.11,22.32,24.92,34.92,38.41.27.28.64.46,1.03.49,1.51.11,2.53-.71,3.06-2.46.1-.31-.02-.65-.29-.85-.75-.55-1.55-1.55-2.39-3.01-.15-.26-.33-.5-.54-.73-3.23-3.52-14.02-15.54-32.37-36.06-.86-.95-1.59-1.94-2.18-2.95-1.02-1.73-1.58-2.86-1.68-3.41-1.21-6.57-4.52-11.49-9.91-14.76-2.61-1.58-5.56-3.66-8.86-6.23-.79-.62-1.92-.61-2.7.03Z"/>
  <path class="st29" d="M357.9,620.51c.78-.64,1.91-.65,2.7-.03,3.3,2.57,6.25,4.65,8.86,6.23,5.39,3.27,8.7,8.19,9.91,14.76.1.55.66,1.68,1.68,3.41.59,1.01,1.32,2,2.18,2.95,18.35,20.52,29.14,32.54,32.37,36.06.21.23.39.47.54.73.84,1.46,1.64,2.46,2.39,3.01.27.2.39.54.29.85-.53,1.75-1.55,2.57-3.06,2.46-.39-.03-.76-.21-1.03-.49-12.6-13.49-24.24-26.3-34.92-38.41-2.41-2.73-4.77-4.61-7.08-5.65-.22-.1-.45-.18-.69-.23-5.1-1.13-7.88-3.62-10.68-8.21-2.56-4.19-5.32-8.17-8.27-11.94-.41-.53-.33-1.29.19-1.72l4.62-3.78Z"/>
  <path class="st23" d="M463.31,720.87c.27.27.21.73-.12.92l-6.44,3.72c-.4.23-.91.12-1.18-.25l-1.51-2.04c-.09-.13-.2-.24-.32-.34l-7.55-6.45c-1.08-.93-2.7-.86-3.72.15l-.42.42c-1.1,1.1-1.1,2.9,0,4l6.76,6.75c.36.36.28.96-.16,1.21l-8.48,4.89c-.66.39-1.52.2-1.97-.42-5.55-7.65-10.86-14.35-15.95-20.09-1.98-2.24-5.55.05-7.54,1.05-.53.27-1.16.26-1.68-.03-2.02-1.11-3.38-2.82-4.07-5.13-.11-.36-.06-.75.14-1.07.57-.91,1.34-1.8,2.29-2.66,3.23-2.9,7.28-6.41,12.17-10.52,3.41-2.88,7.06-6.95,9.8-9.46,4-3.68,6.2.47,8.04,3.59.17.3.2.65.08.97-1.02,2.7-3.94,4.97-.86,8.04,9.61,9.54,17.17,17.12,22.69,22.75Z"/>
</svg>