<?xml version="1.0" encoding="UTF-8"?>
<svg id="Capa_1" xmlns="http://www.w3.org/2000/svg" version="1.1" xmlns:xlink="http://www.w3.org/1999/xlink" viewBox="0 0 795 770">
  <!-- Generator: Adobe Illustrator 29.4.0, SVG Export Plug-In . SVG Version: 2.1.0 Build 152)  -->
  <defs>
    <style>
      .st0 {
        fill: #36a44c;
      }

      .st1 {
        fill: #c6c8ef;
      }

      .st2 {
        stroke: #7eb69e;
      }

      .st2, .st3, .st4, .st5, .st6, .st7, .st8, .st9, .st10, .st11, .st12, .st13, .st14, .st15, .st16 {
        fill: none;
      }

      .st2, .st3, .st4, .st5, .st6, .st8, .st9, .st10, .st11, .st12, .st13, .st14, .st15, .st16 {
        stroke-width: 2px;
      }

      .st17 {
        fill: #e1ddee;
      }

      .st3 {
        stroke: gray;
      }

      .st18 {
        fill: #f7cd3b;
      }

      .st4 {
        stroke: #82808c;
      }

      .st19 {
        fill: #fff;
      }

      .st5 {
        stroke: #f0eef7;
      }

      .st20 {
        fill: #94abfb;
      }

      .st6 {
        stroke: #75768d;
      }

      .st8 {
        stroke: #913e49;
      }

      .st9 {
        stroke: #716f77;
      }

      .st10 {
        stroke: #2d643b;
      }

      .st11 {
        stroke: #121215;
      }

      .st12 {
        stroke: #fbe69d;
      }

      .st13 {
        stroke: #5c6793;
      }

      .st21 {
        fill: #ff5967;
      }

      .st14 {
        stroke: #e3e4f7;
      }

      .st22 {
        fill: #23232a;
      }

      .st15 {
        stroke: #adbaf5;
      }

      .st23 {
        clip-path: url(#clippath);
      }

      .st16 {
        stroke: #919195;
      }
    </style>
    <clipPath id="clippath">
      <rect class="st7" width="795" height="770"/>
    </clipPath>
  </defs>
  <g class="st23">
    <g>
      <path class="st5" d="M366.76,0c-3.23.94-6.64,1.4-10.22,1.39-1.45,0-2.69.14-3.7.43-2.94.85-6.14.54-9.41.98-35.53,4.82-69.63,13.89-102.31,27.2-3.53,1.44-5.76,2.71-8.69,3.8-1.84.67-4.01,1.63-6.5,2.88-1.11.56-8.73,4.37-22.84,11.43-5.24,2.62-14.02,7.8-26.35,15.55-2.38,1.5-4.91,3.21-7.59,5.14-4.14,2.98-9.47,6.21-14.19,9.86-3.28,2.53-5.45,4.14-6.52,4.84-1.56,1.03-3.12,3.13-4.77,3.97-.93.48-2.13,1.45-3.59,2.9-1.12,1.11-2.69,2.29-4.72,3.56-.06.04-.11.08-.16.13l-5.73,5.78c-.17.17-.37.32-.59.45-1.68.98-2.66,1.61-2.95,1.9-12.34,12.29-22.23,22.18-29.68,29.67-.37.37-.7.79-.99,1.24-1.55,2.46-3.49,4.67-5.83,6.64-.61.51-1.11,1.15-1.47,1.86-.81,1.59-1.92,3.01-3.35,4.26-1.7,1.49-2.28,3.37-3.82,4.99-.79.84-1.61,1.8-2.46,2.89-9.75,12.56-18.68,25.65-26.79,39.28-1.74,2.91-2.77,4.7-3.1,5.37-2.34,4.79-5.08,8.73-7.46,13.58-2.89,5.91-5.11,10.39-6.64,13.45-1.85,3.69-2.34,6-4.45,9.99-.61,1.14-1.68,3.65-3.21,7.52-7.32,18.46-13.31,37.45-17.97,56.96-3.04,12.73-5.13,24.78-6.28,36.15-.41,4.07-1.3,7.6-1.45,11.74-.12,3.14-.45,6.25-.98,9.34" vector-effect="non-scaling-stroke"/>
      <path class="st5" d="M427.74,0c3.13.88,6.38,1.32,9.76,1.33,1.89,0,3.37.15,4.46.45,1.65.46,3.14.65,4.46.56,1.39-.09,3.61.15,6.65.73.51.09,2.82.39,6.95.89,8.69,1.06,22.78,3.98,42.28,8.77,16.91,4.16,35.03,10.37,54.36,18.64" vector-effect="non-scaling-stroke"/>
      <path class="st4" d="M556.66,31.37v84.96c0,.45-.51.71-.88.47-6.38-4.23-13.32-6.93-20.81-8.12-2.95-.47-10.45-.71-22.48-.7-98.89.06-180.94.06-246.16-.01-13.7-.01-22.38.35-26.04,1.1-19.32,3.93-34.6,18.9-39.4,38.12-1.05,4.2-1.57,11.96-1.57,23.28.04,154.27.03,318.57-.02,492.91,0,12.49.52,21.03,1.56,25.62,3.29,14.55,11.86,25.87,25.71,33.94,5.4,3.15,10.77,4.84,16.1,5.07" vector-effect="non-scaling-stroke"/>
      <path class="st9" d="M242.67,728.01c3.37.99,6.84,1.43,10.42,1.32,2.85-.09,4.29-.14,4.33-.14,90.38.03,180.76.03,271.14,0,3.37,0,7.23-.58,11.59-1.75" vector-effect="non-scaling-stroke"/>
      <path class="st4" d="M540.15,727.44c6.23-1.53,11.99-4.28,17.26-8.27,9.14-6.91,15.19-15.62,18.15-26.13" vector-effect="non-scaling-stroke"/>
      <path class="st9" d="M575.56,693.04c1.59-4.36,2.43-8.71,2.52-13.04.07-3.03.1-8.62.1-16.75-.05-240.95-.05-389.88,0-446.77,0-.72.59-1.31,1.31-1.31,4.55,0,35.64,0,93.26.02,2.31,0,4.34-.31,6.09-.92" vector-effect="non-scaling-stroke"/>
      <path class="st4" d="M678.84,214.27c3.55-.67,6.59-2.62,9.1-5.87,3.1-4,4.59-8.91,4.46-14.72-.05-2.56-.06-8.25-.03-17.07.01-.33.27-.59.6-.59l39.61-.05" vector-effect="non-scaling-stroke"/>
      <path class="st5" d="M732.58,175.97c2.93,4.69,5.86,9.32,8.81,13.89,2.38,3.68,7.43,12.93,15.15,27.76,2.53,4.85,5.06,10.26,7.6,16.22,3.64,8.55,5.91,14.02,6.81,16.43,9.11,24.28,15.78,48.89,20.03,73.82.6,3.53.51,7.19,1.47,10.1.03.09.05.19.06.28l2.49,23.76" vector-effect="non-scaling-stroke"/>
      <path class="st5" d="M795,411.88c-.73,3.92-1.14,7.87-1.25,11.84-.02.85-.12,1.7-.3,2.54-.75,3.49-.74,6.89-1.25,10.66-2.69,19.52-7.01,38.96-12.98,58.32-2.24,7.26-6.29,19.97-10.18,29.14-2.8,6.63-4.69,11.03-5.66,13.2-1.21,2.72-1.92,4.31-2.13,4.77-2.31,5.1-5.11,10.9-8.41,17.39-1.95,3.83-3.86,6.32-5.64,9.93-.87,1.76-2.25,4.25-4.16,7.48-10.52,17.79-22.84,34.57-36.07,50.81-2.6,3.2-4.73,4.94-6.98,8.12-.94,1.33-2.73,3.31-5.38,5.96-11.91,11.91-19.72,19.7-23.41,23.35-2.64,2.61-5.31,4.03-7.66,6.53-1.03,1.09-2.91,2.77-5.66,5.04-16.26,13.49-33.41,25.64-51.45,36.45-3.12,1.87-5.26,2.81-7.63,4.33-1.81,1.15-3.71,2.25-5.72,3.28-13.04,6.71-22.82,11.52-29.35,14.44-37.2,16.63-76.37,27.32-117.52,32.06-7.72.89-15.44,1.72-23.17,2.48" vector-effect="non-scaling-stroke"/>
      <path class="st5" d="M371.36,770c-14.41-1.3-26.12-2.6-35.15-3.91-17.83-2.58-36.13-6.64-54.89-12.18-1.67-.49-2.72-.8-3.15-.93-14.52-4.24-24.88-8.34-40.75-14.71-5.29-2.13-11.38-4.92-18.26-8.39-10.58-5.33-16.56-8.36-17.93-9.11-22.38-12.16-43.33-26.37-62.85-42.62-1.03-.86-2.66-1.73-3.45-2.57-2.16-2.29-4.11-4.13-5.86-5.5-2.67-2.09-4.76-3.89-6.28-5.41-5.5-5.49-14.13-14.13-25.89-25.93-.35-.34-.66-.71-.93-1.1-2.56-3.69-5.49-6.25-8.15-9.63-2.71-3.46-5.4-6.87-8.07-10.24-12.35-15.61-22.52-30.67-30.49-45.2-.33-.59-2.01-3.58-5.05-8.96-3.82-6.74-7.62-14.37-11.39-22.89-2.99-6.75-5.16-11.74-6.51-14.98-4.13-9.93-7.63-20.78-10.69-30.6-6.15-19.74-10.46-39.42-12.91-59.04-.53-4.21-.93-7.29-1.21-9.24-.63-4.4-.62-9.58-1.5-14.36" vector-effect="non-scaling-stroke"/>
      <path class="st16" d="M732.58,175.97c8.01-.02,16.05-.03,24.1-.04,4.59,0,7.71-.27,9.35-.79,5.88-1.86,10.86-6.34,13.06-12.06.69-1.81.99-4.73.9-8.76-.07-3.25-.08-25.96-.02-68.15.01-6.88-1.23-12.13-5.95-16.44-5.31-4.85-10.77-5.62-18.5-5.6-34.98.07-55.96.09-62.95.06-.16,0-.3-.14-.29-.3.1-10.02.1-19.89,0-29.61-.09-9.05-6.05-16.98-14.4-19.83-2.11-.72-6.23-1.06-12.36-1.03-29.39.14-56.93.14-82.62-.01-5.62-.03-9.83.46-12.64,1.47-7.13,2.57-11.67,8.07-13.6,16.49" vector-effect="non-scaling-stroke"/>
      <path class="st11" d="M678.84,214.27c-3.79-.25-7.39-.37-10.78-.34-1.93.02-21.17.05-57.72.09-10.31,0-20.6.08-30.89.23-1.49.03-2.23.86-2.23,2.49-.05,166.03-.07,319.04-.04,459.01,0,3.77-.54,9.54-1.62,17.29" vector-effect="non-scaling-stroke"/>
      <path class="st11" d="M540.15,727.44c-1.82-.23-3.67-.23-5.54,0-2.77.34-4.61.51-5.51.52-14.29.15-28.57.21-42.85.16-81.09-.24-162.29-.28-243.58-.11" vector-effect="non-scaling-stroke"/>
      <path class="st13" d="M578.53,169.53l-.12,32.7c0,.32.26.58.59.58,52.66.01,82.91,0,90.76-.03,9.88-.03,10.34-7.35,10.33-15.03-.07-44.5-.11-89-.12-133.5" vector-effect="non-scaling-stroke"/>
      <path class="st6" d="M679.97,54.25c.06-5.68-.03-11.35-.26-17.02-.14-3.44-.68-5.8-1.62-7.07-2.63-3.56-6.07-4.09-10.34-4.08-29.69.03-58.84.04-87.47.02-7.57,0-11.37,3.74-11.38,11.22-.07,41.32-.11,70.65-.12,87.98,0,1.74.12,3.29.35,4.65.09.54.29,1.06.59,1.53,6.05,9.55,9.02,19.89,8.9,31.02-.03,2.35-.06,4.7-.09,7.03" vector-effect="non-scaling-stroke"/>
      <path class="st15" d="M679.97,54.25l-.17.29c-.16.28-.58.17-.59-.15l-.43-19.71c-.01-.25-.05-.5-.12-.75-1.35-4.48-4.41-6.81-9.16-7-.89-.04-30.48-.05-88.77-.03-4.49,0-7.64,1.49-9.45,4.48-1,1.64-1.5,4.67-1.49,9.1.07,57.29.1,86.54.09,87.75-.01,1.14.31,2.26.9,3.23,3.84,6.27,6.49,12.75,7.96,19.44.54,2.47.46,4.67.83,7.48.49,3.69.27,7.44.01,11.44-.03.43-.48.69-.87.5-.04-.02-.1-.28-.18-.79" vector-effect="non-scaling-stroke"/>
      <path class="st16" d="M692.6,150.43v12.81c0,.32.26.58.58.57,21.15-.03,42.5-.03,64.06-.02,4.35,0,7.43-1.65,9.24-4.95,1.01-1.85,1.48-5.49,1.43-10.92-.14-14.27-.15-33.52-.04-57.75.02-4.43-.53-7.6-1.64-9.51-1.67-2.87-4.5-4.3-8.5-4.31-9.35-.01-30.88-.02-64.59-.01-.27,0-.49.22-.49.49v60c0,.27.21.48.47.48,13.74-.07,30.85-.09,51.33-.06,3.28,0,5.27.1,5.97.31,4.9,1.42,5.93,7.5,2.33,10.85-2.01,1.87-6.85,1.6-10,1.6-29.15-.05-45.73-.05-49.73,0-.23.01-.42.19-.42.42" vector-effect="non-scaling-stroke"/>
      <path class="st11" d="M229.53,133.82c-.21.03-.4.1-.57.21-.05.03-.06.1-.03.15.03.05.1.06.15.03.15-.09.3-.22.45-.39" vector-effect="non-scaling-stroke"/>
      <path class="st11" d="M229.53,133.82c3.38-2.72,7.06-4.72,11.05-5.99,2.89-.92,7.06-1.38,12.49-1.38,91.56.07,182.37.06,272.43-.03,8.68,0,15.81,1.6,22.21,7.16,3.36,2.93,5.74,5.46,7.15,7.6,3.55,5.39,5.32,11.67,5.3,18.83-.17,49.03-.27,105.2-.31,168.51,0,.03.06,5.77.17,17.21.14,14.3-.21,34.95-.19,43.07.15,84.79.19,145.33.1,181.63-.06,26.75.02,61.53.24,104.36.02,3.95-.26,7.21-.83,9.79-.75,3.32-1.87,6.39-3.36,9.22-.9,1.71-2.41,3.67-4.54,5.89-5.18,5.39-9.54,8.53-16.61,10.74-.02.01-.02.03,0,.04.02.01.04.01.06.02.1.04.18.05.23.04,11.23-2.97,20.61-12.24,24.16-23.19.99-3.08,1.51-8.52,1.55-16.33.13-25.01.18-60.26.15-105.76-.03-54.55-.06-112.22-.08-173-.02-42.12-.02-66.78,0-73.99.09-26.6.11-51.26.04-73.98-.07-26.99-.16-55.17-.25-84.52-.05-15.44-10.32-29.16-25.05-33.09-5.8-1.54-13.19-1.44-20.23-1.47-87.31-.32-174.61-.3-261.92.05-6.22.02-12.02,1.29-17.4,3.82-2.55,1.19-4.74,2.78-6.57,4.75" vector-effect="non-scaling-stroke"/>
      <path class="st11" d="M225.13,138.01c-5.17,5.49-7.8,12.07-7.91,19.75-.13,9.39-.19,15.47-.18,18.24.11,137.99.11,278.68,0,422.07,0,2.52-.08,13.81-.25,33.87-.1,13.27.02,28.04.36,44.29.11,5.52.63,9.58,1.54,12.17,1.38,3.92,3.45,7.42,6.22,10.5.03.03.08.04.11,0,.03-.03.04-.07.02-.11-.49-.81-1.62-2.62-3.39-5.42-1.52-2.4-2.65-5.53-3.4-9.4-.37-1.95-.51-5.28-.41-9.97.27-12.11.36-24.2.29-36.26-.02-3.25-.03-13.83-.03-31.75.05-271.18.07-407.6.06-409.25-.11-21.79-.2-33.22-.28-34.29-.52-7.03.53-13.9,3.92-19.19,0-.01,1.16-1.73,3.45-5.16.02-.03.02-.08-.02-.11-.03-.02-.07-.02-.1,0" vector-effect="non-scaling-stroke"/>
      <path class="st11" d="M441.87,155.34c0-4.61-3.73-8.34-8.34-8.34h-86.06c-4.61,0-8.34,3.73-8.34,8.34v.3c0,4.61,3.73,8.34,8.34,8.34h86.06c4.61,0,8.34-3.73,8.34-8.34v-.3" vector-effect="non-scaling-stroke"/>
      <path class="st11" d="M530.17,186.46c0-.16-.13-.29-.28-.29-27.49-.16-61.37-.23-101.62-.2-49.3.04-110.97.05-185.02.02-2.86,0-5.26.6-7.2,1.79-.27.16-.47.4-.59.68l-1.24,2.9c-.13.28-.19.59-.19.91,0,5.48.02,10.06,0,13.73-.35,192.58-.37,322.58-.07,390,.05,10.41.07,16.31.07,17.68.01.94.54,2.3,1.59,4.09.2.35.49.64.84.84,3.85,2.24,8.5,2.36,12.28,2.37,53.82.14,107.69.11,161.62-.09.71-.01,2.47.15,5.28.48.4.05.8.16,1.16.35,5.38,2.73,9.75,4.67,13.12,5.82,15.16,5.19,30.36,5.57,45.61,1.14,2.31-.67,5.74-1.06,7.56-.27,1.79.77,10.46,4.69,26.03,11.74,4.05,1.84,6.33,2.23,10.51.06.14-.08.2-.25.12-.39v-.02c-.05-.07-.14-.09-.21-.06-4.96,2.49-7.84,1.03-12.98-1.32-9.73-4.45-16.67-7.59-20.8-9.42-2.41-1.07-4.67-1.64-6.77-1.71-.38,0-.77.03-1.14.14-21.4,6.17-41.73,4.08-61-6.29-.34-.19-.71-.32-1.09-.39-1.49-.3-2.99-.46-4.52-.49-9.01-.16-19.92-.23-32.75-.2-60.47.12-105.3.17-134.49.15-2.11,0-4.13-.48-6.06-1.44-1.97-.97-2.97-2.65-2.99-5.02-.06-6.15-.09-16.99-.08-32.5.1-240.23.09-369.53-.02-387.91-.03-4.27,2.12-6.44,6.45-6.49,10.61-.13,17.97-.15,22.06-.05,10.65.26,16.91.32,18.76.18.02,0,27.65-.04,82.88-.11,23.18-.03,50.66.04,82.43.21,30.53.16,58.03.03,82.5-.38.13,0,.23-.1.23-.23h0" vector-effect="non-scaling-stroke"/>
      <path class="st11" d="M540.15,187.39c2.37,1.49,3.44,3.43,3.21,5.84-.09.99-.14,2.44-.16,4.33-.25,31.71-.37,128.79-.36,291.24,0,22.6.41,65.15.11,97.79-.09,9.95-.01,19.2.23,27.74.01.27-.03.55-.12.81-1.22,3.63-4.08,4.83-7.81,5-3.25.15-7.44.12-12.55-.11-.71-.03-1.29.56-1.24,1.26.11,1.64.66,4.63,1.66,8.97.39,1.68.24,3.87-.44,6.58-.03.12.04.25.16.28.07.02.15-.01.17-.08,1.81-4.85.2-9.67-1.28-14.3-.29-.92.42-1.85,1.39-1.81,4.47.17,8.61.13,12.4-.13,3.5-.24,5.98-1.55,7.44-3.92.85-1.37,1.27-4.21,1.27-8.5.01-260.71-.04-397.33-.17-409.87-.04-4.15.15-10.42-3.7-11.59-.12-.04-.26.02-.31.14s-.01.26.1.33" vector-effect="non-scaling-stroke"/>
      <path class="st11" d="M398.59,608.17c.54-1.24.41-2.28-.38-3.11-5.07-5.34-7.46-10.14-11.32-18.12-2.07-4.27-3.6-8.48-4.57-12.63-2.5-10.63-2.83-21.14-.99-31.53,1.81-10.21,5.56-19.31,11.25-27.29,1.59-2.24,3.8-5.01,6.61-8.3,1.85-2.16,5.37-5.52,10.57-10.07,2.28-1.99,5.33-3.91,7.14-5.13,1.92-1.29,3.83-2.38,5.73-3.26,6.09-2.8,12.3-4.84,18.63-6.13,1.57-.31,2.9-.49,4.01-.54,2.05-.08,5.27-.91,7.97-.95,3.95-.06,6.58.46,11.11.89,2.69.26,5.04.65,7.03,1.16,10.73,2.8,20.23,7.36,28.5,13.68,16.78,12.84,26.75,32.62,28.45,53.68,1.4,17.31-3.29,32.57-11.52,47.75-.17.3-.28.62-.35.95-.63,3.07-.03,6.01,1.79,8.82.26.41.71.65,1.19.65h11.62c.75,0,1.37-.61,1.38-1.36.17-8.49.2-22.4.09-41.75-.05-8.15-.02-22.06.08-41.73.35-67.41.4-144.03.16-229.86-.07-22.94-.02-46.14.13-69.61.04-6.65-.41-16.2-.26-24.15.03-1.89-1.01-2.84-3.13-2.85-77.8-.03-167.8-.02-270.01.02-4.07,0-8.01.37-11.91.17-1.19-.05-2.19.9-2.18,2.09.07,12.84.1,25.03.09,36.57-.14,173.97-.23,284.44-.26,331.42-.01,3.54-.43,8.68-.1,12.9.7,8.92-.49,20.64.71,27.25.09.5.53.87,1.04.87h150.95c.33,0,.62-.2.75-.5" vector-effect="non-scaling-stroke"/>
      <path class="st16" d="M502.29,520.22c-5.42-7.09-11.94-12.8-19.56-17.11" vector-effect="non-scaling-stroke"/>
      <path class="st11" d="M482.73,503.11l-.96-1.89c-.12-.23-.32-.43-.55-.55-5.53-2.78-11.16-4.64-16.89-5.57-2.57-.41-7.51-.51-14.82-.3-3.99.12-7.37.6-10.13,1.43-6.04,1.81-9.7,3.6-15.61,6.54-1.91.95-3.78,2.16-5.59,3.63-5.11,4.13-9.21,8.19-12.32,12.16-4.91,6.28-8.7,14.56-11.37,24.84-.81,3.12-.59,5.96-1.15,8.48-.39,1.77-.51,3.9-.36,6.39.75,12.49,4.82,23.76,12.23,33.81,11.17,15.15,28.06,24.77,46.97,25.41,6.94.23,13.73-.6,20.37-2.49,5.72-1.63,9.17-2.17,14.25-.04,1.85.77,8.19,3.62,19,8.54.83.38,1.8-.15,1.92-1.06l.15-1.16c.01-.07.01-.15-.01-.22-2.11-8.07-3.56-13.84-4.37-17.31-.83-3.55-.9-6.83.54-9.72,2.52-5.04,5.47-10.27,7.33-15.47,7.16-20.12,5-39.18-6.48-57.19-.63-.99-1.5-1.37-2.59-1.15" vector-effect="non-scaling-stroke"/>
      <path class="st3" d="M482.73,503.11c-11.02-6.02-21.54-7.72-34.01-6.81-23.06,1.68-42.9,18.19-50.51,39.53-2.63,7.37-3.74,15.52-3.34,24.46,1.05,23.38,16.87,43.9,38.47,52.06,13.14,4.97,26.91,4.92,40.26,1.06,5.49-1.59,8.69-1.79,13.79.44,5.69,2.49,12,5.34,18.92,8.57.28.13.57-.12.49-.41-2.5-8.97-4.12-14.95-4.86-17.92-.96-3.84-.74-7.27.65-10.29,2.25-4.88,5.73-10.73,7.67-16.4,6.92-20.24,4.26-39.3-7.97-57.18" vector-effect="non-scaling-stroke"/>
      <path class="st11" d="M422.99,666.43c-.03-17.91-15.49-32.39-34.54-32.36-19.04.03-34.45,14.58-34.42,32.48.03,17.91,15.49,32.39,34.54,32.36,19.04-.03,34.45-14.58,34.42-32.48" vector-effect="non-scaling-stroke"/>
      <path class="st11" d="M229.95,703.77c.07-.08-.37-.59-.98-1.15-.61-.56-1.15-.96-1.22-.88-.07.08.37.59.98,1.15.61.56,1.15.96,1.22.88" vector-effect="non-scaling-stroke"/>
      <path class="st10" d="M346.31,710.65s-.93-.03-2.07-.05c-1.14-.02-2.07-.02-2.07-.01,0,.01.93.03,2.07.05,1.14.02,2.07.02,2.07.01" vector-effect="non-scaling-stroke"/>
      <path class="st13" d="M667.6,49.2c0-4.11-3.34-7.45-7.45-7.45h-71.08c-4.11,0-7.45,3.34-7.45,7.45v40.12c0,4.11,3.34,7.45,7.45,7.45h71.08c4.11,0,7.45-3.34,7.45-7.45v-40.12" vector-effect="non-scaling-stroke"/>
      <path class="st13" d="M603.75,119.45c0-3.3-2.68-5.98-5.98-5.98h-8.8c-3.3,0-5.98,2.68-5.98,5.98v.74c0,3.3,2.68,5.98,5.98,5.98h8.8c3.3,0,5.98-2.68,5.98-5.98v-.74" vector-effect="non-scaling-stroke"/>
      <path class="st13" d="M635.37,119.49c.02-3.29-2.64-5.98-5.94-6l-8.58-.04c-3.29-.02-5.98,2.64-6,5.94v.78c-.02,3.29,2.64,5.98,5.93,6l8.58.04c3.29.02,5.98-2.64,6-5.94v-.78" vector-effect="non-scaling-stroke"/>
      <path class="st13" d="M667.17,119.5c.02-3.3-2.64-5.99-5.95-6.01l-8.72-.05c-3.3-.02-5.99,2.64-6.01,5.95v.74c-.02,3.3,2.64,5.99,5.94,6.01l8.72.05c3.3.02,5.99-2.64,6.01-5.95v-.74" vector-effect="non-scaling-stroke"/>
      <path class="st13" d="M603.66,149.29c0-3.35-2.71-6.06-6.06-6.06h-8.52c-3.35,0-6.06,2.71-6.06,6.06v.8c0,3.35,2.71,6.06,6.06,6.06h8.52c3.35,0,6.06-2.71,6.06-6.06v-.8" vector-effect="non-scaling-stroke"/>
      <path class="st13" d="M635.37,149.36c.03-3.35-2.66-6.08-6.01-6.11l-8.36-.07c-3.35-.03-6.09,2.66-6.11,6.01v.8c-.03,3.35,2.66,6.08,6,6.11l8.36.07c3.35.03,6.09-2.66,6.11-6.01v-.8" vector-effect="non-scaling-stroke"/>
      <path class="st13" d="M667.21,149.23c0-3.35-2.74-6.06-6.09-6.05l-8.5.03c-3.35.02-6.06,2.74-6.05,6.09v.8c.01,3.35,2.74,6.06,6.09,6.05l8.5-.03c3.35-.02,6.06-2.74,6.05-6.09v-.8" vector-effect="non-scaling-stroke"/>
      <path class="st13" d="M603.91,179.44c.03-3.46-2.76-6.29-6.23-6.31l-8.32-.06c-3.47-.02-6.29,2.76-6.31,6.23v.82c-.03,3.46,2.76,6.29,6.22,6.31l8.32.06c3.47.02,6.29-2.76,6.31-6.23v-.82" vector-effect="non-scaling-stroke"/>
      <path class="st13" d="M635.49,179.27c-.03-3.45-2.84-6.23-6.29-6.21l-8.18.06c-3.45.02-6.23,2.84-6.21,6.29v.84c.03,3.45,2.84,6.23,6.3,6.21l8.18-.06c3.45-.02,6.23-2.84,6.21-6.29v-.84" vector-effect="non-scaling-stroke"/>
      <path class="st13" d="M667.21,179.22c-.02-3.44-2.82-6.21-6.25-6.19l-8.34.04c-3.44.02-6.21,2.82-6.19,6.25v.92c.02,3.44,2.82,6.21,6.26,6.19l8.34-.04c3.44-.02,6.21-2.82,6.19-6.25v-.92" vector-effect="non-scaling-stroke"/>
      <path class="st16" d="M655.36,54.83c0-.21-.17-.38-.38-.38h-59.82c-.21,0-.38.17-.38.38v28.72c0,.21.17.38.38.38h59.82c.21,0,.38-.17.38-.38v-28.72" vector-effect="non-scaling-stroke"/>
      <path class="st12" d="M753.21,99.67c0-3.76-3.03-6.83-6.8-6.84l-16.3-.06c-3.77-.01-6.84,3.03-6.84,6.8l-.04,12.22c0,3.76,3.03,6.83,6.8,6.84l16.3.06c3.77.01,6.84-3.03,6.84-6.8l.04-12.22" vector-effect="non-scaling-stroke"/>
      <path class="st3" d="M436.55,155.44c0-1.66-1.35-3.01-3.01-3.01h-86.08c-1.66,0-3.01,1.35-3.01,3.01v.12c0,1.66,1.35,3.01,3.01,3.01h86.08c1.66,0,3.01-1.35,3.01-3.01v-.12" vector-effect="non-scaling-stroke"/>
      <path class="st3" d="M531.01,198.99H247.06c-.18,0-.33.15-.33.33v407.8c0,.35.29.63.64.63h150.19c.51,0,.78-.61.44-.99-24.87-27.76-25.88-69.04-2.54-98.14,11.18-13.93,25.38-22.85,42.59-26.74,44.15-9.99,86.16,21.06,91.26,65.96,1.5,13.25-.41,26.33-5.73,39.26-1.39,3.37-3.36,7.35-5.89,11.93-.48.87-.62,1.88-.38,2.84l1.25,4.97c.13.52.6.88,1.13.88h11.12c.23,0,.42-.19.42-.42V199.2c0-.12-.1-.21-.22-.21" vector-effect="non-scaling-stroke"/>
      <path class="st3" d="M388.76,448.97c34.1-.04,57.93-.05,71.48-.03,16.83.02,26.63-11.86,26.62-27.94-.03-46.7-.07-91.03-.13-132.98-.01-4.62-.33-7.96-.97-10.01-3.73-11.87-11.82-17.91-24.27-18.1-7.1-.11-11.95-.12-14.55-.04-.41.01-.74-.31-.74-.72.02-4.45.04-8.05.06-10.82.02-2.63-.24-4.47-.79-5.52-3.92-7.62-15.23-4.7-15.3,3.7-.03,4.08-.01,8.27.06,12.56,0,.45-.35.81-.8.82-2.52.03-16.13.05-40.86.08-24.72.02-38.34.02-40.85,0-.45,0-.81-.37-.81-.82.07-4.29.08-8.48.04-12.56-.09-8.4-11.4-11.29-15.31-3.67-.54,1.06-.8,2.9-.78,5.53.03,2.76.06,6.37.09,10.82,0,.4-.34.73-.74.72-2.6-.08-7.45-.05-14.55.07-12.46.22-20.53,6.26-24.24,18.15-.63,2.05-.95,5.39-.95,10.01.03,41.95.07,86.28.14,132.98.02,16.08,9.85,27.94,26.67,27.88,13.56-.04,37.38-.08,71.48-.11" vector-effect="non-scaling-stroke"/>
      <path class="st11" d="M434.41,241.4c-3.48,4.73-2.72,10.59-2.99,18.52-.03.71-.61,1.27-1.32,1.27h-83.28c-.72,0-1.31-.58-1.32-1.3l-.21-14.87c0-.11-.02-.21-.06-.32-1.49-4.23-4.51-5.72-9.06-4.47-2.95.82-4.06,4.16-3.93,7.34.15,3.6,0,7.66-.46,12.18-.1.97-.93,1.7-1.91,1.67-8.63-.33-20.88-1.45-28.23,3.84-6.1,4.38-9.49,12.32-9.54,19.77-.09,11.81-.09,26.05-.01,42.72.12,25.94.1,55.22-.07,87.85-.03,6.21.03,9.8.19,10.79,1.23,7.88,5.12,14.5,12.1,18.42,4.22,2.37,9.4,2.63,14.69,2.62,19.17-.03,65.92-.06,140.25-.09,7.87-.01,12.73-.47,18.13-5.94,1.87-1.89,3.2-3.48,4-4.75,1.92-3.06,3.45-6.65,3.59-10.74.09-2.48.13-4.69.12-6.63-.14-76.67-.11-120.87.09-132.6.09-5.55-1.11-10.39-3.6-14.5-7.63-12.64-22.18-10.93-35.22-11.16-.81-.02-1.47-.67-1.5-1.49-.14-4.17-.23-7.9-.26-11.17-.06-5.51-2.79-8.18-8.2-8.01-.79.03-1.52.41-1.99,1.05" vector-effect="non-scaling-stroke"/>
      <path class="st8" d="M446.14,272.9c-.13,4.92,1.48,10.7-3.24,14.2-4.63,3.44-10.7.9-12.43-4.15-.88-2.58-.45-7.9-.42-9.97,0-.33-.26-.59-.58-.59h-82.25c-.28,0-.51.25-.48.53.23,2.57.25,5.27.08,8.1-.6,9.69-14.97,10.21-15.89.92-.19-1.92-.26-4.95-.21-9.1.01-.26-.21-.48-.48-.48-6.26-.03-10.78,0-13.55.07-7.39.2-13.5,3.58-13.68,11.8-.05,2.1-.06,7.7-.01,16.81,0,.2.17.37.38.37l170.78.02c.25,0,.44-.2.43-.45-.28-4.04,1.1-16.72-1.36-21.45-2.86-5.5-7.85-6.97-14.15-7.12-4.26-.11-8.43-.09-12.51.05-.24.01-.42.2-.43.44" vector-effect="non-scaling-stroke"/>
      <path class="st16" d="M388.57,436.25c42.86.01,65.3,0,67.34-.02,7.97-.07,13.11-.54,16.87-7.04.98-1.68,1.45-6.39,1.42-14.13-.09-23.91-.09-57.25,0-100.02,0-.47-.38-.85-.86-.86-5.06-.05-33.31-.07-84.75-.08-51.43-.01-79.68,0-84.74.05-.48.01-.86.39-.86.86.07,42.77.06,76.11-.04,100.02-.03,7.74.44,12.45,1.42,14.13,3.76,6.5,8.9,6.97,16.87,7.05,2.03.02,24.48.03,67.33.04" vector-effect="non-scaling-stroke"/>
      <path class="st14" d="M388.51,435.09c20.68.01,43.67.05,68.96.13,6.04.02,12.33-1.4,14.68-7.49.62-1.61.94-4.47.95-8.57.09-37.01.09-71.12-.01-102.35-.01-.9-.74-1.62-1.63-1.62-7.94.05-35.57.06-82.9.05-47.33-.02-74.97-.06-82.9-.11-.9-.01-1.63.71-1.63,1.61-.13,31.23-.16,65.35-.09,102.35.01,4.1.32,6.96.94,8.57,2.34,6.1,8.63,7.52,14.67,7.5,25.3-.05,48.28-.08,68.96-.07" vector-effect="non-scaling-stroke"/>
      <path class="st2" d="M380.19,386.25c-6.32-6.42-12.33-12.31-18.04-17.67-2.5-2.35-5.41-3.15-8.72-2.4-8.01,1.83-10.7,10.39-5.64,16.77.82,1.03,1.82,2.12,3.01,3.26,7.69,7.41,15.08,14.69,22.15,21.85,2.82,2.85,6.07,4.15,9.74,3.9,4.6-.31,8.01-3.57,11.09-7.19,6.83-8.04,19.73-22.89,38.69-44.54,4.35-4.96,8.29-9.22,6.22-15.51-2.29-6.99-10.22-9.2-16.07-4.83-1.27.96-2.47,2.09-3.6,3.38-7.99,9.21-20.39,23.52-37.19,42.93-.43.49-1.18.51-1.64.05" vector-effect="non-scaling-stroke"/>
      <path class="st16" d="M421.72,566.73c5.5.05,9.99-4.46,10.04-10.06.05-5.61-4.37-10.19-9.86-10.24-5.5-.05-9.99,4.46-10.04,10.06-.05,5.61,4.37,10.19,9.86,10.24" vector-effect="non-scaling-stroke"/>
      <path class="st16" d="M453.72,566.69c5.49.27,10.15-4.05,10.42-9.64.27-5.6-3.95-10.35-9.43-10.61-5.49-.27-10.15,4.05-10.42,9.64-.27,5.6,3.95,10.35,9.43,10.61" vector-effect="non-scaling-stroke"/>
      <path class="st16" d="M486.75,566.7c5.48.02,9.93-4.51,9.95-10.11.02-5.6-4.4-10.15-9.87-10.17-5.48-.02-9.93,4.51-9.95,10.11-.02,5.6,4.4,10.15,9.87,10.17" vector-effect="non-scaling-stroke"/>
      <path class="st3" d="M417.28,666.5c0-14.78-12.89-26.76-28.78-26.76s-28.78,11.98-28.78,26.76,12.89,26.76,28.78,26.76,28.78-11.98,28.78-26.76" vector-effect="non-scaling-stroke"/>
    </g>
  </g>
  <path class="st17" d="M427.74,0c3.13.88,6.38,1.32,9.76,1.33,1.89,0,3.37.15,4.46.45,1.65.46,3.14.65,4.46.56,1.39-.09,3.61.15,6.65.73.51.09,2.82.39,6.95.89,8.69,1.06,22.78,3.98,42.28,8.77,16.91,4.16,35.03,10.37,54.36,18.64v84.96c0,.45-.51.71-.88.47-6.38-4.23-13.32-6.93-20.81-8.12-2.95-.47-10.45-.71-22.48-.7-98.89.06-180.94.06-246.16-.01-13.7-.01-22.38.35-26.04,1.1-19.32,3.93-34.6,18.9-39.4,38.12-1.05,4.2-1.57,11.96-1.57,23.28.04,154.27.03,318.57-.02,492.91,0,12.49.52,21.03,1.56,25.62,3.29,14.55,11.86,25.87,25.71,33.94,5.4,3.15,10.77,4.84,16.1,5.07,3.37.99,6.84,1.43,10.42,1.32,2.85-.09,4.29-.14,4.33-.14,90.38.03,180.76.03,271.14,0,3.37,0,7.23-.58,11.59-1.75,6.23-1.53,11.99-4.28,17.26-8.27,9.14-6.91,15.19-15.62,18.15-26.13,1.59-4.36,2.43-8.71,2.52-13.04.07-3.03.1-8.62.1-16.75-.05-240.95-.05-389.88,0-446.77,0-.72.59-1.31,1.31-1.31,4.55,0,35.64,0,93.26.02,2.31,0,4.34-.31,6.09-.92,3.55-.67,6.59-2.62,9.1-5.87,3.1-4,4.59-8.91,4.46-14.72-.05-2.56-.06-8.25-.03-17.07.01-.33.27-.59.6-.59l39.61-.05c2.93,4.69,5.86,9.32,8.81,13.89,2.38,3.68,7.43,12.93,15.15,27.76,2.53,4.85,5.06,10.26,7.6,16.22,3.64,8.55,5.91,14.02,6.81,16.43,9.11,24.28,15.78,48.89,20.03,73.82.6,3.53.51,7.19,1.47,10.1.03.09.05.19.06.28l2.49,23.76v53.65c-.73,3.92-1.14,7.87-1.25,11.84-.02.85-.12,1.7-.3,2.54-.75,3.49-.74,6.89-1.25,10.66-2.69,19.52-7.01,38.96-12.98,58.32-2.24,7.26-6.29,19.97-10.18,29.14-2.8,6.63-4.69,11.03-5.66,13.2-1.21,2.72-1.92,4.31-2.13,4.77-2.31,5.1-5.11,10.9-8.41,17.39-1.95,3.83-3.86,6.32-5.64,9.93-.87,1.76-2.25,4.25-4.16,7.48-10.52,17.79-22.84,34.57-36.07,50.81-2.6,3.2-4.73,4.94-6.98,8.12-.94,1.33-2.73,3.31-5.38,5.96-11.91,11.91-19.72,19.7-23.41,23.35-2.64,2.61-5.31,4.03-7.66,6.53-1.03,1.09-2.91,2.77-5.66,5.04-16.26,13.49-33.41,25.64-51.45,36.45-3.12,1.87-5.26,2.81-7.63,4.33-1.81,1.15-3.71,2.25-5.72,3.28-13.04,6.71-22.82,11.52-29.35,14.44-37.2,16.63-76.37,27.32-117.52,32.06-7.72.89-15.44,1.72-23.17,2.48h-51.68c-14.41-1.3-26.12-2.6-35.15-3.91-17.83-2.58-36.13-6.64-54.89-12.18-1.67-.49-2.72-.8-3.15-.93-14.52-4.24-24.88-8.34-40.75-14.71-5.29-2.13-11.38-4.92-18.26-8.39-10.58-5.33-16.56-8.36-17.93-9.11-22.38-12.16-43.33-26.37-62.85-42.62-1.03-.86-2.66-1.73-3.45-2.57-2.16-2.29-4.11-4.13-5.86-5.5-2.67-2.09-4.76-3.89-6.28-5.41-5.5-5.49-14.13-14.13-25.89-25.93-.35-.34-.66-.71-.93-1.1-2.56-3.69-5.49-6.25-8.15-9.63-2.71-3.46-5.4-6.87-8.07-10.24-12.35-15.61-22.52-30.67-30.49-45.2-.33-.59-2.01-3.58-5.05-8.96-3.82-6.74-7.62-14.37-11.39-22.89-2.99-6.75-5.16-11.74-6.51-14.98-4.13-9.93-7.63-20.78-10.69-30.6-6.15-19.74-10.46-39.42-12.91-59.04-.53-4.21-.93-7.29-1.21-9.24-.63-4.4-.62-9.58-1.5-14.36v-55.38c.53-3.09.86-6.2.98-9.34.15-4.14,1.04-7.67,1.45-11.74,1.15-11.37,3.24-23.42,6.28-36.15,4.66-19.51,10.65-38.5,17.97-56.96,1.53-3.87,2.6-6.38,3.21-7.52,2.11-3.99,2.6-6.3,4.45-9.99,1.53-3.06,3.75-7.54,6.64-13.45,2.38-4.85,5.12-8.79,7.46-13.58.33-.67,1.36-2.46,3.1-5.37,8.11-13.63,17.04-26.72,26.79-39.28.85-1.09,1.67-2.05,2.46-2.89,1.54-1.62,2.12-3.5,3.82-4.99,1.43-1.25,2.54-2.67,3.35-4.26.36-.71.86-1.35,1.47-1.86,2.34-1.97,4.28-4.18,5.83-6.64.29-.45.62-.87.99-1.24,7.45-7.49,17.34-17.38,29.68-29.67.29-.29,1.27-.92,2.95-1.9.22-.13.42-.28.59-.45l5.73-5.78c.05-.05.1-.09.16-.13,2.03-1.27,3.6-2.45,4.72-3.56,1.46-1.45,2.66-2.42,3.59-2.9,1.65-.84,3.21-2.94,4.77-3.97,1.07-.7,3.24-2.31,6.52-4.84,4.72-3.65,10.05-6.88,14.19-9.86,2.68-1.93,5.21-3.64,7.59-5.14,12.33-7.75,21.11-12.93,26.35-15.55,14.11-7.06,21.73-10.87,22.84-11.43,2.49-1.25,4.66-2.21,6.5-2.88,2.93-1.09,5.16-2.36,8.69-3.8,32.68-13.31,66.78-22.38,102.31-27.2,3.27-.44,6.47-.13,9.41-.98,1.01-.29,2.25-.44,3.7-.43,3.58,0,6.99-.45,10.22-1.39h60.98Z"/>
  <path class="st22" d="M732.58,175.97l-39.61.05c-.33,0-.59.26-.6.59-.03,8.82-.02,14.51.03,17.07.13,5.81-1.36,10.72-4.46,14.72-2.51,3.25-5.55,5.2-9.1,5.87-3.79-.25-7.39-.37-10.78-.34-1.93.02-21.17.05-57.72.09-10.31,0-20.6.08-30.89.23-1.49.03-2.23.86-2.23,2.49-.05,166.03-.07,319.04-.04,459.01,0,3.77-.54,9.54-1.62,17.29-2.96,10.51-9.01,19.22-18.15,26.13-5.27,3.99-11.03,6.74-17.26,8.27-1.82-.23-3.67-.23-5.54,0-2.77.34-4.61.51-5.51.52-14.29.15-28.57.21-42.85.16-81.09-.24-162.29-.28-243.58-.11-5.33-.23-10.7-1.92-16.1-5.07-13.85-8.07-22.42-19.39-25.71-33.94-1.04-4.59-1.56-13.13-1.56-25.62.05-174.34.06-338.64.02-492.91,0-11.32.52-19.08,1.57-23.28,4.8-19.22,20.08-34.19,39.4-38.12,3.66-.75,12.34-1.11,26.04-1.1,65.22.07,147.27.07,246.16.01,12.03-.01,19.53.23,22.48.7,7.49,1.19,14.43,3.89,20.81,8.12.37.24.87-.02.87-.47V31.37c1.94-8.42,6.48-13.92,13.61-16.49,2.81-1.01,7.02-1.5,12.64-1.47,25.69.15,53.23.15,82.62.01,6.13-.03,10.25.31,12.36,1.03,8.35,2.85,14.31,10.78,14.4,19.83.1,9.72.1,19.59,0,29.61-.01.16.13.3.29.3,6.99.03,27.97,0,62.95-.06,7.73-.02,13.19.75,18.5,5.6,4.72,4.31,5.96,9.56,5.95,16.44-.06,42.19-.05,64.9.02,68.15.09,4.03-.21,6.95-.9,8.76-2.2,5.72-7.18,10.2-13.06,12.06-1.64.52-4.76.78-9.35.79-8.05.01-16.09.02-24.1.04ZM578.53,169.53l-.12,32.7c0,.32.26.58.59.58,52.66.01,82.91,0,90.76-.03,9.88-.03,10.34-7.35,10.33-15.03-.07-44.5-.11-89-.12-133.5.06-5.68-.03-11.35-.26-17.02-.14-3.44-.68-5.8-1.62-7.07-2.63-3.56-6.07-4.09-10.34-4.08-29.69.03-58.84.04-87.47.02-7.57,0-11.37,3.74-11.38,11.22-.07,41.32-.11,70.65-.12,87.98,0,1.74.12,3.29.35,4.65.09.54.29,1.06.59,1.53,6.05,9.55,9.02,19.89,8.9,31.02-.03,2.35-.06,4.7-.09,7.03ZM692.6,150.43v12.81c0,.32.26.58.58.57,21.15-.03,42.5-.03,64.06-.02,4.35,0,7.43-1.65,9.24-4.95,1.01-1.85,1.48-5.49,1.43-10.92-.14-14.27-.15-33.52-.04-57.75.02-4.43-.53-7.6-1.64-9.51-1.67-2.87-4.5-4.3-8.5-4.31-9.35-.01-30.88-.02-64.59-.01-.27,0-.49.22-.49.49v60c0,.27.21.48.47.48,13.74-.07,30.85-.09,51.33-.06,3.28,0,5.27.1,5.97.31,4.9,1.42,5.93,7.5,2.33,10.85-2.01,1.87-6.85,1.6-10,1.6-29.15-.05-45.73-.05-49.73,0-.23.01-.42.19-.42.42ZM229.53,133.82c-.21.03-.4.1-.57.21-.05.03-.06.1-.03.15.03.05.1.06.15.03.15-.09.3-.22.45-.39,3.38-2.72,7.06-4.72,11.05-5.99,2.89-.92,7.06-1.38,12.49-1.38,91.56.07,182.37.06,272.43-.03,8.68,0,15.81,1.6,22.21,7.16,3.36,2.93,5.74,5.46,7.15,7.6,3.55,5.39,5.32,11.67,5.3,18.83-.17,49.03-.27,105.2-.31,168.51,0,.03.06,5.77.17,17.21.14,14.3-.21,34.95-.19,43.07.15,84.79.19,145.33.1,181.63-.06,26.75.02,61.53.24,104.36.02,3.95-.26,7.21-.83,9.79-.75,3.32-1.87,6.39-3.36,9.22-.9,1.71-2.41,3.67-4.54,5.89-5.18,5.39-9.54,8.53-16.61,10.74-.02.01-.02.03,0,.04.02.01.04.01.06.02.1.04.18.05.23.04,11.23-2.97,20.61-12.24,24.16-23.19.99-3.08,1.51-8.52,1.55-16.33.13-25.01.18-60.26.15-105.76-.03-54.55-.06-112.22-.08-173-.02-42.12-.02-66.78,0-73.99.09-26.6.11-51.26.04-73.98-.07-26.99-.16-55.17-.25-84.52-.05-15.44-10.32-29.16-25.05-33.09-5.8-1.54-13.19-1.44-20.23-1.47-87.31-.32-174.61-.3-261.92.05-6.22.02-12.02,1.29-17.4,3.82-2.55,1.19-4.74,2.78-6.57,4.75ZM225.13,138.01c-5.17,5.49-7.8,12.07-7.91,19.75-.13,9.39-.19,15.47-.18,18.24.11,137.99.11,278.68,0,422.07,0,2.52-.08,13.81-.25,33.87-.1,13.27.02,28.04.36,44.29.11,5.52.63,9.58,1.54,12.17,1.38,3.92,3.45,7.42,6.22,10.5.03.03.08.04.11,0,.03-.03.04-.07.02-.11-.49-.81-1.62-2.62-3.39-5.42-1.52-2.4-2.65-5.53-3.4-9.4-.37-1.95-.51-5.28-.41-9.97.27-12.11.36-24.2.29-36.26-.02-3.25-.03-13.83-.03-31.75.05-271.18.07-407.6.06-409.25-.11-21.79-.2-33.22-.28-34.29-.52-7.03.53-13.9,3.92-19.19,0-.01,1.16-1.73,3.45-5.16.02-.03.02-.08-.02-.11-.03-.02-.07-.02-.1,0ZM441.87,155.34c0-4.61-3.73-8.34-8.34-8.34h-86.06c-4.61,0-8.34,3.73-8.34,8.34v.3c0,4.61,3.73,8.34,8.34,8.34h86.06c4.61,0,8.34-3.73,8.34-8.34v-.3ZM530.17,186.46c0-.16-.13-.29-.28-.29-27.49-.16-61.37-.23-101.62-.2-49.3.04-110.97.05-185.02.02-2.86,0-5.26.6-7.2,1.79-.27.16-.47.4-.59.68l-1.24,2.9c-.13.28-.19.59-.19.91,0,5.48.02,10.06,0,13.73-.35,192.58-.37,322.58-.07,390,.05,10.41.07,16.31.07,17.68.01.94.54,2.3,1.59,4.09.2.35.49.64.84.84,3.85,2.24,8.5,2.36,12.28,2.37,53.82.14,107.69.11,161.62-.09.71-.01,2.47.15,5.28.48.4.05.8.16,1.16.35,5.38,2.73,9.75,4.67,13.12,5.82,15.16,5.19,30.36,5.57,45.61,1.14,2.31-.67,5.74-1.06,7.56-.27,1.79.77,10.46,4.69,26.03,11.74,4.05,1.84,6.33,2.23,10.51.06.14-.08.2-.25.12-.39v-.02c-.05-.07-.14-.09-.21-.06-4.96,2.49-7.84,1.03-12.98-1.32-9.73-4.45-16.67-7.59-20.8-9.42-2.41-1.07-4.67-1.64-6.77-1.71-.38,0-.77.03-1.14.14-21.4,6.17-41.73,4.08-61-6.29-.34-.19-.71-.32-1.09-.39-1.49-.3-2.99-.46-4.52-.49-9.01-.16-19.92-.23-32.75-.2-60.47.12-105.3.17-134.49.15-2.11,0-4.13-.48-6.06-1.44-1.97-.97-2.97-2.65-2.99-5.02-.06-6.15-.09-16.99-.08-32.5.1-240.23.09-369.53-.02-387.91-.03-4.27,2.12-6.44,6.45-6.49,10.61-.13,17.97-.15,22.06-.05,10.65.26,16.91.32,18.76.18.02,0,27.65-.04,82.88-.11,23.18-.03,50.66.04,82.43.21,30.53.16,58.03.03,82.5-.38.13,0,.23-.1.23-.23h0ZM540.15,187.39c2.37,1.49,3.44,3.43,3.21,5.84-.09.99-.14,2.44-.16,4.33-.25,31.71-.37,128.79-.36,291.24,0,22.6.41,65.15.11,97.79-.09,9.95-.01,19.2.23,27.74.01.27-.03.55-.12.81-1.22,3.63-4.08,4.83-7.81,5-3.25.15-7.44.12-12.55-.11-.71-.03-1.29.56-1.24,1.26.11,1.64.66,4.63,1.66,8.97.39,1.68.24,3.87-.44,6.58-.03.12.04.25.16.28.07.02.15-.01.17-.08,1.81-4.85.2-9.67-1.28-14.3-.29-.92.42-1.85,1.39-1.81,4.47.17,8.61.13,12.4-.13,3.5-.24,5.98-1.55,7.44-3.92.85-1.37,1.27-4.21,1.27-8.5.01-260.71-.04-397.33-.17-409.87-.04-4.15.15-10.42-3.7-11.59-.12-.04-.26.02-.31.14s-.01.26.1.33ZM398.59,608.17c.54-1.24.41-2.28-.38-3.11-5.07-5.34-7.46-10.14-11.32-18.12-2.07-4.27-3.6-8.48-4.57-12.63-2.5-10.63-2.83-21.14-.99-31.53,1.81-10.21,5.56-19.31,11.25-27.29,1.59-2.24,3.8-5.01,6.61-8.3,1.85-2.16,5.37-5.52,10.57-10.07,2.28-1.99,5.33-3.91,7.14-5.13,1.92-1.29,3.83-2.38,5.73-3.26,6.09-2.8,12.3-4.84,18.63-6.13,1.57-.31,2.9-.49,4.01-.54,2.05-.08,5.27-.91,7.97-.95,3.95-.06,6.58.46,11.11.89,2.69.26,5.04.65,7.03,1.16,10.73,2.8,20.23,7.36,28.5,13.68,16.78,12.84,26.75,32.62,28.45,53.68,1.4,17.31-3.29,32.57-11.52,47.75-.17.3-.28.62-.35.95-.63,3.07-.03,6.01,1.79,8.82.26.41.71.65,1.19.65h11.62c.75,0,1.37-.61,1.38-1.36.17-8.49.2-22.4.09-41.75-.05-8.15-.02-22.06.08-41.73.35-67.41.4-144.03.16-229.86-.07-22.94-.02-46.14.13-69.61.04-6.65-.41-16.2-.26-24.15.03-1.89-1.01-2.84-3.13-2.85-77.8-.03-167.8-.02-270.01.02-4.07,0-8.01.37-11.91.17-1.19-.05-2.19.9-2.18,2.09.07,12.84.1,25.03.09,36.57-.14,173.97-.23,284.44-.26,331.42-.01,3.54-.43,8.68-.1,12.9.7,8.92-.49,20.64.71,27.25.09.5.53.87,1.04.87h150.95c.33,0,.62-.2.75-.5ZM502.29,520.22c-5.42-7.09-11.94-12.8-19.56-17.11l-.96-1.89c-.12-.23-.32-.43-.55-.55-5.53-2.78-11.16-4.64-16.89-5.57-2.57-.41-7.51-.51-14.82-.3-3.99.12-7.37.6-10.13,1.43-6.04,1.81-9.7,3.6-15.61,6.54-1.91.95-3.78,2.16-5.59,3.63-5.11,4.13-9.21,8.19-12.32,12.16-4.91,6.28-8.7,14.56-11.37,24.84-.81,3.12-.59,5.96-1.15,8.48-.39,1.77-.51,3.9-.36,6.39.75,12.49,4.82,23.76,12.23,33.81,11.17,15.15,28.06,24.77,46.97,25.41,6.94.23,13.73-.6,20.37-2.49,5.72-1.63,9.17-2.17,14.25-.04,1.85.77,8.19,3.62,19,8.54.83.38,1.8-.15,1.92-1.06l.15-1.16c.01-.07.01-.15-.01-.22-2.11-8.07-3.56-13.84-4.37-17.31-.83-3.55-.9-6.83.54-9.72,2.52-5.04,5.47-10.27,7.33-15.47,7.16-20.12,5-39.18-6.48-57.19-.63-.99-1.5-1.37-2.59-1.15ZM422.99,666.43c-.03-17.91-15.49-32.39-34.54-32.36-19.04.03-34.45,14.58-34.42,32.48.03,17.91,15.49,32.39,34.54,32.36,19.04-.03,34.45-14.58,34.42-32.48ZM229.95,703.77c.07-.08-.37-.59-.98-1.15-.61-.56-1.15-.96-1.22-.88-.07.08.37.59.98,1.15.61.56,1.15.96,1.22.88ZM346.31,710.65s-.93-.03-2.07-.05c-1.14-.02-2.07-.02-2.07-.01,0,.01.93.03,2.07.05,1.14.02,2.07.02,2.07.01Z"/>
  <path class="st1" d="M679.97,54.25l-.17.29c-.16.28-.58.17-.59-.15l-.43-19.71c-.01-.25-.05-.5-.12-.75-1.35-4.48-4.41-6.81-9.16-7-.89-.04-30.48-.05-88.77-.03-4.49,0-7.64,1.49-9.45,4.48-1,1.64-1.5,4.67-1.49,9.1.07,57.29.1,86.54.09,87.75-.01,1.14.31,2.26.9,3.23,3.84,6.27,6.49,12.75,7.96,19.44.54,2.47.46,4.67.83,7.48.49,3.69.27,7.44.01,11.44-.03.43-.48.69-.87.5-.04-.02-.1-.28-.18-.79.03-2.33.06-4.68.09-7.03.12-11.13-2.85-21.47-8.9-31.02-.3-.47-.5-.99-.59-1.53-.23-1.36-.35-2.91-.35-4.65,0-17.33.05-46.66.12-87.98,0-7.48,3.81-11.22,11.38-11.22,28.63.02,57.78.01,87.47-.02,4.27-.01,7.71.52,10.34,4.08.94,1.27,1.48,3.63,1.62,7.07.23,5.67.32,11.34.26,17.02Z"/>
  <path class="st20" d="M679.97,54.25c.01,44.5.05,89,.12,133.5,0,7.68-.45,15-10.33,15.03-7.85.03-38.1.04-90.76.03-.33,0-.59-.26-.59-.58l.12-32.7c.08.51.14.77.18.79.39.19.84-.07.87-.5.26-4,.48-7.75-.01-11.44-.37-2.81-.29-5.01-.83-7.48-1.47-6.69-4.12-13.17-7.96-19.44-.59-.97-.91-2.09-.9-3.23.01-1.21-.02-30.46-.09-87.75,0-4.43.49-7.46,1.49-9.1,1.81-2.99,4.96-4.48,9.45-4.48,58.29-.02,87.88-.01,88.77.03,4.75.19,7.81,2.52,9.16,7,.07.25.11.5.12.75l.43,19.71c0,.32.43.43.59.15l.17-.29ZM667.6,49.2c0-4.11-3.34-7.45-7.45-7.45h-71.08c-4.11,0-7.45,3.34-7.45,7.45v40.12c0,4.11,3.34,7.45,7.45,7.45h71.08c4.11,0,7.45-3.34,7.45-7.45v-40.12ZM603.75,119.45c0-3.3-2.68-5.98-5.98-5.98h-8.8c-3.3,0-5.98,2.68-5.98,5.98v.74c0,3.3,2.68,5.98,5.98,5.98h8.8c3.3,0,5.98-2.68,5.98-5.98v-.74ZM635.37,119.49c.02-3.29-2.64-5.98-5.94-6l-8.58-.04c-3.29-.02-5.98,2.64-6,5.94v.78c-.02,3.29,2.64,5.98,5.93,6l8.58.04c3.29.02,5.98-2.64,6-5.94v-.78ZM667.17,119.5c.02-3.3-2.64-5.99-5.95-6.01l-8.72-.05c-3.3-.02-5.99,2.64-6.01,5.95v.74c-.02,3.3,2.64,5.99,5.94,6.01l8.72.05c3.3.02,5.99-2.64,6.01-5.95v-.74ZM603.66,149.29c0-3.35-2.71-6.06-6.06-6.06h-8.52c-3.35,0-6.06,2.71-6.06,6.06v.8c0,3.35,2.71,6.06,6.06,6.06h8.52c3.35,0,6.06-2.71,6.06-6.06v-.8ZM635.37,149.36c.03-3.35-2.66-6.08-6.01-6.11l-8.36-.07c-3.35-.03-6.09,2.66-6.11,6.01v.8c-.03,3.35,2.66,6.08,6,6.11l8.36.07c3.35.03,6.09-2.66,6.11-6.01v-.8ZM667.21,149.23c0-3.35-2.74-6.06-6.09-6.05l-8.5.03c-3.35.02-6.06,2.74-6.05,6.09v.8c.01,3.35,2.74,6.06,6.09,6.05l8.5-.03c3.35-.02,6.06-2.74,6.05-6.09v-.8ZM603.91,179.44c.03-3.46-2.76-6.29-6.23-6.31l-8.32-.06c-3.47-.02-6.29,2.76-6.31,6.23v.82c-.03,3.46,2.76,6.29,6.22,6.31l8.32.06c3.47.02,6.29-2.76,6.31-6.23v-.82ZM635.49,179.27c-.03-3.45-2.84-6.23-6.29-6.21l-8.18.06c-3.45.02-6.23,2.84-6.21,6.29v.84c.03,3.45,2.84,6.23,6.3,6.21l8.18-.06c3.45-.02,6.23-2.84,6.21-6.29v-.84ZM667.21,179.22c-.02-3.44-2.82-6.21-6.25-6.19l-8.34.04c-3.44.02-6.21,2.82-6.19,6.25v.92c.02,3.44,2.82,6.21,6.26,6.19l8.34-.04c3.44-.02,6.21-2.82,6.19-6.25v-.92Z"/>
  <path class="st22" d="M667.6,89.32c0,4.11-3.34,7.45-7.45,7.45h-71.08c-4.11,0-7.45-3.34-7.45-7.45v-40.12c0-4.11,3.34-7.45,7.45-7.45h71.08c4.11,0,7.45,3.34,7.45,7.45v40.12ZM655.36,54.83c0-.21-.17-.38-.38-.38h-59.82c-.21,0-.38.17-.38.38v28.72c0,.21.17.38.38.38h59.82c.21,0,.38-.17.38-.38v-28.72Z"/>
  <rect class="st19" x="594.78" y="54.45" width="60.58" height="29.48" rx=".38" ry=".38"/>
  <path class="st19" d="M692.6,150.43c0-.23.19-.41.42-.42,4-.05,20.58-.05,49.73,0,3.15,0,7.99.27,10-1.6,3.6-3.35,2.57-9.43-2.33-10.85-.7-.21-2.69-.31-5.97-.31-20.48-.03-37.59,0-51.33.06-.26,0-.47-.21-.47-.48v-60c0-.27.22-.49.49-.49,33.71,0,55.24,0,64.59.01,4,.01,6.83,1.44,8.5,4.31,1.11,1.91,1.66,5.08,1.64,9.51-.11,24.23-.1,43.48.04,57.75.05,5.43-.42,9.07-1.43,10.92-1.81,3.3-4.89,4.95-9.24,4.95-21.56,0-42.91,0-64.06.02-.32.01-.58-.25-.58-.57v-12.81ZM753.21,99.67c0-3.76-3.03-6.83-6.8-6.84l-16.3-.06c-3.77-.01-6.84,3.03-6.84,6.8l-.04,12.22c0,3.76,3.03,6.83,6.8,6.84l16.3.06c3.77.01,6.84-3.03,6.84-6.8l.04-12.22Z"/>
  <rect class="st18" x="725.29" y="90.76" width="25.86" height="29.94" rx="6.82" ry="6.82" transform="translate(629.91 843.58) rotate(-89.8)"/>
  <rect class="st22" x="582.99" y="113.47" width="20.76" height="12.7" rx="5.98" ry="5.98"/>
  <rect class="st22" x="618.75" y="109.57" width="12.72" height="20.52" rx="5.97" ry="5.97" transform="translate(502.01 744.3) rotate(-89.7)"/>
  <rect class="st22" x="650.48" y="109.48" width="12.7" height="20.68" rx="5.98" ry="5.98" transform="translate(533.57 776.01) rotate(-89.7)"/>
  <path d="M229.53,133.82c1.83-1.97,4.02-3.56,6.57-4.75,5.38-2.53,11.18-3.8,17.4-3.82,87.31-.35,174.61-.37,261.92-.05,7.04.03,14.43-.07,20.23,1.47,14.73,3.93,25,17.65,25.05,33.09.09,29.35.18,57.53.25,84.52.07,22.72.05,47.38-.04,73.98-.03,7.21-.03,31.87,0,73.99.02,60.78.05,118.45.08,173,.03,45.5-.02,80.75-.15,105.76-.04,7.81-.56,13.25-1.55,16.33-3.55,10.95-12.93,20.22-24.16,23.19-.05,0-.13,0-.23-.04-.02-.01-.04-.01-.06-.02-.02,0-.02-.03,0-.04,7.07-2.21,11.43-5.35,16.61-10.74,2.13-2.22,3.64-4.18,4.54-5.89,1.49-2.83,2.61-5.9,3.36-9.22.57-2.58.85-5.84.83-9.79-.22-42.83-.3-77.61-.24-104.36.09-36.3.05-96.84-.1-181.63-.02-8.12.33-28.77.19-43.07-.11-11.44-.17-17.18-.17-17.21.04-63.31.14-119.48.31-168.51.02-7.16-1.75-13.44-5.3-18.83-1.41-2.14-3.79-4.67-7.15-7.6-6.4-5.56-13.53-7.17-22.21-7.16-90.06.09-180.87.1-272.43.03-5.43,0-9.6.46-12.49,1.38-3.99,1.27-7.67,3.27-11.05,5.99Z"/>
  <path d="M229.53,133.82c-.15.17-.3.3-.45.39-.05.03-.12.02-.15-.03-.03-.05-.02-.12.03-.15.17-.11.36-.18.57-.21Z"/>
  <path d="M225.25,138.11c-2.29,3.43-3.44,5.15-3.45,5.16-3.39,5.29-4.44,12.16-3.92,19.19.08,1.07.17,12.5.28,34.29,0,1.65-.01,138.07-.06,409.25,0,17.92,0,28.5.03,31.75.07,12.06-.02,24.15-.29,36.26-.1,4.69.04,8.02.41,9.97.75,3.87,1.88,7,3.4,9.4,1.77,2.8,2.9,4.61,3.39,5.42.02.04.01.08-.02.11-.03.03-.08.02-.11,0-2.77-3.08-4.84-6.58-6.22-10.5-.91-2.59-1.43-6.65-1.54-12.17-.34-16.25-.46-31.02-.36-44.29.17-20.06.25-31.35.25-33.87.11-143.39.11-284.08,0-422.07,0-2.77.05-8.85.18-18.24.11-7.68,2.74-14.26,7.91-19.75.03-.03.07-.03.1,0,.04.03.04.08.02.11Z"/>
  <rect class="st22" x="583.02" y="143.23" width="20.64" height="12.92" rx="6.06" ry="6.06"/>
  <rect class="st22" x="618.67" y="139.43" width="12.92" height="20.48" rx="6.06" ry="6.06" transform="translate(470.01 773.47) rotate(-89.5)"/>
  <rect class="st22" x="646.57" y="143.2" width="20.64" height="12.94" rx="6.07" ry="6.07" transform="translate(-.52 2.29) rotate(-.2)"/>
  <path d="M441.87,155.64c0,4.61-3.73,8.34-8.34,8.34h-86.06c-4.61,0-8.34-3.73-8.34-8.34v-.3c0-4.61,3.73-8.34,8.34-8.34h86.06c4.61,0,8.34,3.73,8.34,8.34v.3ZM436.55,155.44c0-1.66-1.35-3.01-3.01-3.01h-86.08c-1.66,0-3.01,1.35-3.01,3.01v.12c0,1.66,1.35,3.01,3.01,3.01h86.08c1.66,0,3.01-1.35,3.01-3.01v-.12Z"/>
  <rect class="st19" x="344.45" y="152.43" width="92.1" height="6.14" rx="3.01" ry="3.01"/>
  <rect class="st22" x="586.8" y="169.35" width="13.36" height="20.86" rx="6.27" ry="6.27" transform="translate(409.56 771.99) rotate(-89.6)"/>
  <rect class="st22" x="614.81" y="173.09" width="20.68" height="13.34" rx="6.25" ry="6.25" transform="translate(-1.24 4.37) rotate(-.4)"/>
  <rect class="st22" x="646.43" y="173.05" width="20.78" height="13.36" rx="6.22" ry="6.22" transform="translate(-.93 3.44) rotate(-.3)"/>
  <path d="M530.17,186.46h0c0,.14-.1.24-.23.24-24.47.41-51.97.54-82.5.38-31.77-.17-59.25-.24-82.43-.21-55.23.07-82.86.1-82.88.11-1.85.14-8.11.08-18.76-.18-4.09-.1-11.45-.08-22.06.05-4.33.05-6.48,2.22-6.45,6.49.11,18.38.12,147.68.02,387.91-.01,15.51.02,26.35.08,32.5.02,2.37,1.02,4.05,2.99,5.02,1.93.96,3.95,1.44,6.06,1.44,29.19.02,74.02-.03,134.49-.15,12.83-.03,23.74.04,32.75.2,1.53.03,3.03.19,4.52.49.38.07.75.2,1.09.39,19.27,10.37,39.6,12.46,61,6.29.37-.11.76-.15,1.14-.14,2.1.07,4.36.64,6.77,1.71,4.13,1.83,11.07,4.97,20.8,9.42,5.14,2.35,8.02,3.81,12.98,1.32.07-.03.16-.01.2.06v.02c.09.14.03.31-.11.39-4.18,2.17-6.46,1.78-10.51-.06-15.57-7.05-24.24-10.97-26.03-11.74-1.82-.79-5.25-.4-7.56.27-15.25,4.43-30.45,4.05-45.61-1.14-3.37-1.15-7.74-3.09-13.12-5.82-.36-.19-.76-.3-1.16-.35-2.81-.33-4.57-.49-5.28-.48-53.93.2-107.8.23-161.62.09-3.78-.01-8.43-.13-12.28-2.37-.35-.2-.64-.49-.84-.84-1.05-1.79-1.58-3.15-1.59-4.09,0-1.37-.02-7.27-.07-17.68-.3-67.42-.28-197.42.07-390,.01-3.67,0-8.25,0-13.73,0-.32.06-.63.19-.91l1.24-2.9c.12-.28.32-.52.59-.68,1.94-1.19,4.34-1.79,7.2-1.79,74.05.03,135.72.02,185.02-.02,40.25-.03,74.13.04,101.62.2.15,0,.28.13.28.29Z"/>
  <path d="M540.36,186.92c3.85,1.17,3.66,7.44,3.7,11.59.13,12.54.18,149.16.17,409.87,0,4.29-.42,7.13-1.27,8.5-1.46,2.37-3.94,3.68-7.44,3.92-3.79.26-7.93.3-12.4.13-.97-.04-1.68.89-1.39,1.81,1.48,4.63,3.09,9.45,1.28,14.3-.02.07-.1.1-.17.08-.12-.03-.19-.16-.16-.28.68-2.71.83-4.9.44-6.58-1-4.34-1.55-7.33-1.66-8.97-.05-.7.53-1.29,1.24-1.26,5.11.23,9.3.26,12.55.11,3.73-.17,6.59-1.37,7.81-5,.09-.26.13-.54.12-.81-.24-8.54-.32-17.79-.23-27.74.3-32.64-.11-75.19-.11-97.79-.01-162.45.11-259.53.36-291.24.02-1.89.07-3.34.16-4.33.23-2.41-.84-4.35-3.21-5.84-.11-.07-.15-.21-.1-.33s.19-.18.31-.14Z"/>
  <path d="M398.59,608.17c-.13.3-.42.5-.75.5h-150.95c-.51,0-.95-.37-1.04-.87-1.2-6.61-.01-18.33-.71-27.25-.33-4.22.09-9.36.1-12.9.03-46.98.12-157.45.26-331.42,0-11.54-.02-23.73-.09-36.57-.01-1.19.99-2.14,2.18-2.09,3.9.2,7.84-.17,11.91-.17,102.21-.04,192.21-.05,270.01-.02,2.12,0,3.16.96,3.13,2.85-.15,7.95.3,17.5.26,24.15-.15,23.47-.2,46.67-.13,69.61.24,85.83.19,162.45-.16,229.86-.1,19.67-.13,33.58-.08,41.73.11,19.35.08,33.26-.09,41.75-.01.75-.63,1.36-1.38,1.36h-11.62c-.48,0-.93-.24-1.19-.65-1.82-2.81-2.42-5.75-1.79-8.82.07-.33.18-.65.35-.95,8.23-15.18,12.92-30.44,11.52-47.75-1.7-21.06-11.67-40.84-28.45-53.68-8.27-6.32-17.77-10.88-28.5-13.68-1.99-.51-4.34-.9-7.03-1.16-4.53-.43-7.16-.95-11.11-.89-2.7.04-5.92.87-7.97.95-1.11.05-2.44.23-4.01.54-6.33,1.29-12.54,3.33-18.63,6.13-1.9.88-3.81,1.97-5.73,3.26-1.81,1.22-4.86,3.14-7.14,5.13-5.2,4.55-8.72,7.91-10.57,10.07-2.81,3.29-5.02,6.06-6.61,8.3-5.69,7.98-9.44,17.08-11.25,27.29-1.84,10.39-1.51,20.9.99,31.53.97,4.15,2.5,8.36,4.57,12.63,3.86,7.98,6.25,12.78,11.32,18.12.79.83.92,1.87.38,3.11ZM531.01,198.99H247.06c-.18,0-.33.15-.33.33v407.8c0,.35.29.63.64.63h150.19c.51,0,.78-.61.44-.99-24.87-27.76-25.88-69.04-2.54-98.14,11.18-13.93,25.38-22.85,42.59-26.74,44.15-9.99,86.16,21.06,91.26,65.96,1.5,13.25-.41,26.33-5.73,39.26-1.39,3.37-3.36,7.35-5.89,11.93-.48.87-.62,1.88-.38,2.84l1.25,4.97c.13.52.6.88,1.13.88h11.12c.23,0,.42-.19.42-.42V199.2c0-.12-.1-.21-.22-.21Z"/>
  <path class="st19" d="M531.01,198.99c.12,0,.22.09.22.21v408.1c0,.23-.19.42-.42.42h-11.12c-.53,0-1-.36-1.13-.88l-1.25-4.97c-.24-.96-.1-1.97.38-2.84,2.53-4.58,4.5-8.56,5.89-11.93,5.32-12.93,7.23-26.01,5.73-39.26-5.1-44.9-47.11-75.95-91.26-65.96-17.21,3.89-31.41,12.81-42.59,26.74-23.34,29.1-22.33,70.38,2.54,98.14.34.38.07.99-.44.99h-150.19c-.35,0-.64-.28-.64-.63V199.32c0-.18.15-.33.33-.33h283.95ZM388.76,448.97c34.1-.04,57.93-.05,71.48-.03,16.83.02,26.63-11.86,26.62-27.94-.03-46.7-.07-91.03-.13-132.98-.01-4.62-.33-7.96-.97-10.01-3.73-11.87-11.82-17.91-24.27-18.1-7.1-.11-11.95-.12-14.55-.04-.41.01-.74-.31-.74-.72.02-4.45.04-8.05.06-10.82.02-2.63-.24-4.47-.79-5.52-3.92-7.62-15.23-4.7-15.3,3.7-.03,4.08-.01,8.27.06,12.56,0,.45-.35.81-.8.82-2.52.03-16.13.05-40.86.08-24.72.02-38.34.02-40.85,0-.45,0-.81-.37-.81-.82.07-4.29.08-8.48.04-12.56-.09-8.4-11.4-11.29-15.31-3.67-.54,1.06-.8,2.9-.78,5.53.03,2.76.06,6.37.09,10.82,0,.4-.34.73-.74.72-2.6-.08-7.45-.05-14.55.07-12.46.22-20.53,6.26-24.24,18.15-.63,2.05-.95,5.39-.95,10.01.03,41.95.07,86.28.14,132.98.02,16.08,9.85,27.94,26.67,27.88,13.56-.04,37.38-.08,71.48-.11Z"/>
  <path d="M678.84,214.27c-1.75.61-3.78.92-6.09.92-57.62-.01-88.71-.01-93.26-.02-.72,0-1.31.59-1.31,1.31-.05,56.89-.05,205.82,0,446.77,0,8.13-.03,13.72-.1,16.75-.09,4.33-.93,8.68-2.52,13.04,1.08-7.75,1.62-13.52,1.62-17.29-.03-139.97-.01-292.98.04-459.01,0-1.63.74-2.46,2.23-2.49,10.29-.15,20.58-.22,30.89-.23,36.55-.04,55.79-.07,57.72-.09,3.39-.03,6.99.09,10.78.34Z"/>
  <path d="M388.57,259.97c24.73-.03,38.34-.05,40.86-.08.45-.01.81-.37.8-.82-.07-4.29-.09-8.48-.06-12.56.07-8.4,11.38-11.32,15.3-3.7.55,1.05.81,2.89.79,5.52-.02,2.77-.04,6.37-.06,10.82,0,.41.33.73.74.72,2.6-.08,7.45-.07,14.55.04,12.45.19,20.54,6.23,24.27,18.1.64,2.05.96,5.39.97,10.01.06,41.95.1,86.28.13,132.98.01,16.08-9.79,27.96-26.62,27.94-13.55-.02-37.38-.01-71.48.03-34.1.03-57.92.07-71.48.11-16.82.06-26.65-11.8-26.67-27.88-.07-46.7-.11-91.03-.14-132.98,0-4.62.32-7.96.95-10.01,3.71-11.89,11.78-17.93,24.24-18.15,7.1-.12,11.95-.15,14.55-.07.4.01.74-.32.74-.72-.03-4.45-.06-8.06-.09-10.82-.02-2.63.24-4.47.78-5.53,3.91-7.62,15.22-4.73,15.31,3.67.04,4.08.03,8.27-.04,12.56,0,.45.36.82.81.82,2.51.02,16.13.02,40.85,0ZM434.41,241.4c-3.48,4.73-2.72,10.59-2.99,18.52-.03.71-.61,1.27-1.32,1.27h-83.28c-.72,0-1.31-.58-1.32-1.3l-.21-14.87c0-.11-.02-.21-.06-.32-1.49-4.23-4.51-5.72-9.06-4.47-2.95.82-4.06,4.16-3.93,7.34.15,3.6,0,7.66-.46,12.18-.1.97-.93,1.7-1.91,1.67-8.63-.33-20.88-1.45-28.23,3.84-6.1,4.38-9.49,12.32-9.54,19.77-.09,11.81-.09,26.05-.01,42.72.12,25.94.1,55.22-.07,87.85-.03,6.21.03,9.8.19,10.79,1.23,7.88,5.12,14.5,12.1,18.42,4.22,2.37,9.4,2.63,14.69,2.62,19.17-.03,65.92-.06,140.25-.09,7.87-.01,12.73-.47,18.13-5.94,1.87-1.89,3.2-3.48,4-4.75,1.92-3.06,3.45-6.65,3.59-10.74.09-2.48.13-4.69.12-6.63-.14-76.67-.11-120.87.09-132.6.09-5.55-1.11-10.39-3.6-14.5-7.63-12.64-22.18-10.93-35.22-11.16-.81-.02-1.47-.67-1.5-1.49-.14-4.17-.23-7.9-.26-11.17-.06-5.51-2.79-8.18-8.2-8.01-.79.03-1.52.41-1.99,1.05Z"/>
  <path class="st22" d="M434.41,241.4c.47-.64,1.2-1.02,1.99-1.05,5.41-.17,8.14,2.5,8.2,8.01.03,3.27.12,7,.26,11.17.03.82.69,1.47,1.5,1.49,13.04.23,27.59-1.48,35.22,11.16,2.49,4.11,3.69,8.95,3.6,14.5-.2,11.73-.23,55.93-.09,132.6.01,1.94-.03,4.15-.12,6.63-.14,4.09-1.67,7.68-3.59,10.74-.8,1.27-2.13,2.86-4,4.75-5.4,5.47-10.26,5.93-18.13,5.94-74.33.03-121.08.06-140.25.09-5.29.01-10.47-.25-14.69-2.62-6.98-3.92-10.87-10.54-12.1-18.42-.16-.99-.22-4.58-.19-10.79.17-32.63.19-61.91.07-87.85-.08-16.67-.08-30.91.01-42.72.05-7.45,3.44-15.39,9.54-19.77,7.35-5.29,19.6-4.17,28.23-3.84.98.03,1.81-.7,1.91-1.67.45-4.52.61-8.58.46-12.18-.13-3.18.98-6.52,3.93-7.34,4.55-1.25,7.57.24,9.06,4.47.04.11.06.21.06.32l.21,14.87c.01.72.6,1.3,1.32,1.3h83.28c.71,0,1.29-.56,1.32-1.27.27-7.93-.49-13.79,2.99-18.52ZM446.14,272.9c-.13,4.92,1.48,10.7-3.24,14.2-4.63,3.44-10.7.9-12.43-4.15-.88-2.58-.45-7.9-.42-9.97,0-.33-.26-.59-.58-.59h-82.25c-.28,0-.51.25-.48.53.23,2.57.25,5.27.08,8.1-.6,9.69-14.97,10.21-15.89.92-.19-1.92-.26-4.95-.21-9.1.01-.26-.21-.48-.48-.48-6.26-.03-10.78,0-13.55.07-7.39.2-13.5,3.58-13.68,11.8-.05,2.1-.06,7.7-.01,16.81,0,.2.17.37.38.37l170.78.02c.25,0,.44-.2.43-.45-.28-4.04,1.1-16.72-1.36-21.45-2.86-5.5-7.85-6.97-14.15-7.12-4.26-.11-8.43-.09-12.51.05-.24.01-.42.2-.43.44ZM388.57,436.25c42.86.01,65.3,0,67.34-.02,7.97-.07,13.11-.54,16.87-7.04.98-1.68,1.45-6.39,1.42-14.13-.09-23.91-.09-57.25,0-100.02,0-.47-.38-.85-.86-.86-5.06-.05-33.31-.07-84.75-.08-51.43-.01-79.68,0-84.74.05-.48.01-.86.39-.86.86.07,42.77.06,76.11-.04,100.02-.03,7.74.44,12.45,1.42,14.13,3.76,6.5,8.9,6.97,16.87,7.05,2.03.02,24.48.03,67.33.04Z"/>
  <path class="st21" d="M446.14,272.9c0-.24.19-.43.43-.44,4.08-.14,8.25-.16,12.51-.05,6.3.15,11.29,1.62,14.15,7.12,2.46,4.73,1.08,17.41,1.36,21.45.01.25-.18.45-.43.45l-170.78-.02c-.21,0-.38-.17-.38-.37-.05-9.11-.04-14.71.01-16.81.18-8.22,6.29-11.6,13.68-11.8,2.77-.08,7.29-.1,13.55-.07.27,0,.49.22.48.48-.05,4.15.02,7.18.21,9.1.92,9.29,15.29,8.77,15.89-.92.17-2.83.15-5.53-.08-8.1-.03-.28.2-.53.48-.53h82.25c.32,0,.58.26.58.59-.03,2.07-.46,7.39.42,9.97,1.73,5.05,7.8,7.59,12.43,4.15,4.72-3.5,3.11-9.28,3.24-14.2Z"/>
  <path class="st19" d="M388.59,314.1c51.44,0,79.69.03,84.75.08.48.01.86.39.86.86-.09,42.77-.09,76.11,0,100.02.03,7.74-.44,12.45-1.42,14.13-3.76,6.5-8.9,6.97-16.87,7.04-2.04.02-24.48.03-67.34.02-42.85-.01-65.3-.02-67.33-.04-7.97-.08-13.11-.55-16.87-7.05-.98-1.68-1.45-6.39-1.42-14.13.1-23.91.11-57.25.04-100.02,0-.47.38-.85.86-.86,5.06-.04,33.31-.06,84.74-.05ZM388.51,435.09c20.68.01,43.67.05,68.96.13,6.04.02,12.33-1.4,14.68-7.49.62-1.61.94-4.47.95-8.57.09-37.01.09-71.12-.01-102.35-.01-.9-.74-1.62-1.63-1.62-7.94.05-35.57.06-82.9.05-47.33-.02-74.97-.06-82.9-.11-.9-.01-1.63.71-1.63,1.61-.13,31.23-.16,65.35-.09,102.35.01,4.1.32,6.96.94,8.57,2.34,6.1,8.63,7.52,14.67,7.5,25.3-.05,48.28-.08,68.96-.07Z"/>
  <path class="st1" d="M388.56,315.24c47.33.01,74.96,0,82.9-.05.89,0,1.62.72,1.63,1.62.1,31.23.1,65.34.01,102.35-.01,4.1-.33,6.96-.95,8.57-2.35,6.09-8.64,7.51-14.68,7.49-25.29-.08-48.28-.12-68.96-.13-20.68-.01-43.66.02-68.96.07-6.04.02-12.33-1.4-14.67-7.5-.62-1.61-.93-4.47-.94-8.57-.07-37-.04-71.12.09-102.35,0-.9.73-1.62,1.63-1.61,7.93.05,35.57.09,82.9.11ZM380.19,386.25c-6.32-6.42-12.33-12.31-18.04-17.67-2.5-2.35-5.41-3.15-8.72-2.4-8.01,1.83-10.7,10.39-5.64,16.77.82,1.03,1.82,2.12,3.01,3.26,7.69,7.41,15.08,14.69,22.15,21.85,2.82,2.85,6.07,4.15,9.74,3.9,4.6-.31,8.01-3.57,11.09-7.19,6.83-8.04,19.73-22.89,38.69-44.54,4.35-4.96,8.29-9.22,6.22-15.51-2.29-6.99-10.22-9.2-16.07-4.83-1.27.96-2.47,2.09-3.6,3.38-7.99,9.21-20.39,23.52-37.19,42.93-.43.49-1.18.51-1.64.05Z"/>
  <path class="st0" d="M380.19,386.25c.46.46,1.21.44,1.64-.05,16.8-19.41,29.2-33.72,37.19-42.93,1.13-1.29,2.33-2.42,3.6-3.38,5.85-4.37,13.78-2.16,16.07,4.83,2.07,6.29-1.87,10.55-6.22,15.51-18.96,21.65-31.86,36.5-38.69,44.54-3.08,3.62-6.49,6.88-11.09,7.19-3.67.25-6.92-1.05-9.74-3.9-7.07-7.16-14.46-14.44-22.15-21.85-1.19-1.14-2.19-2.23-3.01-3.26-5.06-6.38-2.37-14.94,5.64-16.77,3.31-.75,6.22.05,8.72,2.4,5.71,5.36,11.72,11.25,18.04,17.67Z"/>
  <path d="M482.73,503.11c-11.02-6.02-21.54-7.72-34.01-6.81-23.06,1.68-42.9,18.19-50.51,39.53-2.63,7.37-3.74,15.52-3.34,24.46,1.05,23.38,16.87,43.9,38.47,52.06,13.14,4.97,26.91,4.92,40.26,1.06,5.49-1.59,8.69-1.79,13.79.44,5.69,2.49,12,5.34,18.92,8.57.28.13.57-.12.49-.41-2.5-8.97-4.12-14.95-4.86-17.92-.96-3.84-.74-7.27.65-10.29,2.25-4.88,5.73-10.73,7.67-16.4,6.92-20.24,4.26-39.3-7.97-57.18,1.09-.22,1.96.16,2.59,1.15,11.48,18.01,13.64,37.07,6.48,57.19-1.86,5.2-4.81,10.43-7.33,15.47-1.44,2.89-1.37,6.17-.54,9.72.81,3.47,2.26,9.24,4.37,17.31.02.07.02.15.01.22l-.15,1.16c-.12.91-1.09,1.44-1.92,1.06-10.81-4.92-17.15-7.77-19-8.54-5.08-2.13-8.53-1.59-14.25.04-6.64,1.89-13.43,2.72-20.37,2.49-18.91-.64-35.8-10.26-46.97-25.41-7.41-10.05-11.48-21.32-12.23-33.81-.15-2.49-.03-4.62.36-6.39.56-2.52.34-5.36,1.15-8.48,2.67-10.28,6.46-18.56,11.37-24.84,3.11-3.97,7.21-8.03,12.32-12.16,1.81-1.47,3.68-2.68,5.59-3.63,5.91-2.94,9.57-4.73,15.61-6.54,2.76-.83,6.14-1.31,10.13-1.43,7.31-.21,12.25-.11,14.82.3,5.73.93,11.36,2.79,16.89,5.57.23.12.43.32.55.55l.96,1.89Z"/>
  <path class="st19" d="M482.73,503.11c7.62,4.31,14.14,10.02,19.56,17.11,12.23,17.88,14.89,36.94,7.97,57.18-1.94,5.67-5.42,11.52-7.67,16.4-1.39,3.02-1.61,6.45-.65,10.29.74,2.97,2.36,8.95,4.86,17.92.08.29-.21.54-.49.41-6.92-3.23-13.23-6.08-18.92-8.57-5.1-2.23-8.3-2.03-13.79-.44-13.35,3.86-27.12,3.91-40.26-1.06-21.6-8.16-37.42-28.68-38.47-52.06-.4-8.94.71-17.09,3.34-24.46,7.61-21.34,27.45-37.85,50.51-39.53,12.47-.91,22.99.79,34.01,6.81ZM421.72,566.73c5.5.05,9.99-4.46,10.04-10.06.05-5.61-4.37-10.19-9.86-10.24-5.5-.05-9.99,4.46-10.04,10.06-.05,5.61,4.37,10.19,9.86,10.24ZM453.72,566.69c5.49.27,10.15-4.05,10.42-9.64.27-5.6-3.95-10.35-9.43-10.61-5.49-.27-10.15,4.05-10.42,9.64-.27,5.6,3.95,10.35,9.43,10.61ZM486.75,566.7c5.48.02,9.93-4.51,9.95-10.11.02-5.6-4.4-10.15-9.87-10.17-5.48-.02-9.93,4.51-9.95,10.11-.02,5.6,4.4,10.15,9.87,10.17Z"/>
  <ellipse class="st22" cx="421.81" cy="556.58" rx="10.15" ry="9.95" transform="translate(-138.43 973.52) rotate(-89.5)"/>
  <ellipse class="st22" cx="454.22" cy="556.56" rx="10.14" ry="9.94" transform="translate(-123.86 983.05) rotate(-87.2)"/>
  <ellipse class="st22" cx="486.79" cy="556.56" rx="10.14" ry="9.91" transform="translate(-71.47 1041.4) rotate(-89.8)"/>
  <path d="M422.99,666.43c.03,17.9-15.38,32.45-34.42,32.48-19.05.03-34.51-14.45-34.54-32.36-.03-17.9,15.38-32.45,34.42-32.48,19.05-.03,34.51,14.45,34.54,32.36ZM417.28,666.5c0-14.78-12.89-26.76-28.78-26.76s-28.78,11.98-28.78,26.76,12.89,26.76,28.78,26.76,28.78-11.98,28.78-26.76Z"/>
  <ellipse class="st19" cx="388.5" cy="666.5" rx="28.78" ry="26.76"/>
  <ellipse cx="228.85" cy="702.75" rx=".18" ry="1.5" transform="translate(-442.81 394.36) rotate(-47.3)"/>
  <ellipse class="st0" cx="344.24" cy="710.62" rx=".02" ry="2.07" transform="translate(-371.7 1043.66) rotate(-89.1)"/>
  <path d="M540.15,727.44c-4.36,1.17-8.22,1.75-11.59,1.75-90.38.03-180.76.03-271.14,0-.04,0-1.48.05-4.33.14-3.58.11-7.05-.33-10.42-1.32,81.29-.17,162.49-.13,243.58.11,14.28.05,28.56-.01,42.85-.16.9-.01,2.74-.18,5.51-.52,1.87-.23,3.72-.23,5.54,0Z"/>
</svg>