<?xml version="1.0" encoding="UTF-8"?>
<svg id="Capa_1" xmlns="http://www.w3.org/2000/svg" version="1.1" xmlns:xlink="http://www.w3.org/1999/xlink" viewBox="0 0 969 695">
  <!-- Generator: Adobe Illustrator 29.4.0, SVG Export Plug-In . SVG Version: 2.1.0 Build 152)  -->
  <defs>
    <style>
      .st0 {
        stroke: #b6b1ff;
      }

      .st0, .st1, .st2, .st3, .st4, .st5, .st6, .st7, .st8, .st9, .st10, .st11, .st12, .st13, .st14, .st15, .st16, .st17, .st18 {
        fill: none;
      }

      .st0, .st1, .st2, .st3, .st4, .st5, .st6, .st7, .st9, .st10, .st11, .st12, .st13, .st14, .st15, .st16, .st17, .st18 {
        stroke-width: 2px;
      }

      .st1 {
        stroke: #72727d;
      }

      .st19 {
        fill: #c28a5a;
      }

      .st2 {
        stroke: #f6f3f0;
      }

      .st3 {
        stroke: #212930;
      }

      .st20 {
        fill: #ece7e1;
      }

      .st4 {
        stroke: #806349;
      }

      .st5 {
        stroke: #ada5f0;
      }

      .st6 {
        stroke: #755c47;
      }

      .st21 {
        fill: #fff;
      }

      .st7 {
        stroke: #4e535d;
      }

      .st9 {
        stroke: #d49660;
      }

      .st10 {
        stroke: #8d9196;
      }

      .st11 {
        stroke: #94979a;
      }

      .st12 {
        stroke: #838587;
      }

      .st22 {
        fill: #1a232c;
      }

      .st23 {
        fill: #61616c;
      }

      .st13 {
        stroke: #b0b0b6;
      }

      .st24 {
        fill: #e6a265;
      }

      .st25 {
        fill: #6d63ff;
      }

      .st26 {
        fill: #82838d;
      }

      .st14 {
        stroke: #b7b5b7;
      }

      .st15 {
        stroke: #444396;
      }

      .st16 {
        stroke: #f3d1b2;
      }

      .st27 {
        fill: #282e34;
      }

      .st17 {
        stroke: #6e5743;
      }

      .st28 {
        clip-path: url(#clippath);
      }

      .st18 {
        stroke: #87684d;
      }
    </style>
    <clipPath id="clippath">
      <rect class="st8" x="7.97" width="969" height="695"/>
    </clipPath>
  </defs>
  <g class="st28">
    <g>
      <path class="st11" d="M441.18,0c-4.41.92-9.36,1.11-13.25,1.87-14.86,2.92-28.9,8.16-40.79,17.54-.75.59-2.65,2.41-5.7,5.47-2.05,2.06-3.47,4.73-4.84,7.16-.18.33-.47.6-.81.77-5.87,2.95-10.34,5.9-13.42,8.86-8.98,8.65-14.36,19.31-16.13,31.99-1.62,11.56-2.1,22.43-.36,34.01" vector-effect="non-scaling-stroke"/>
      <path class="st10" d="M345.88,107.67c.7,5.98,1.55,11.92,2.54,17.81.26,1.48,1.19,2.98,1.07,4.29-.14,1.52,1.19,2.86,1.18,4.29,0,1.35,1.27,2.22,1.25,3.85,0,.3-.1.6-.29.85-3.35,4.34-5.84,9.4-7.49,15.19-.59,2.1-.87,5.04-1.29,7.31-.71,3.78-.49,8.06.64,12.83.19.79.29,1.6.32,2.41.01.33.08.66.19.97.31.84.72,2.03,1.21,3.58,4.24,13.23,13.77,24.78,27.08,29.59.31.11.51.41.5.73l-.4,13.27c0,.09-.01.17-.03.24-.7,2.83-1,5.12-.91,6.87.16,3.18-.83,5.82-1.31,9.73-.64,5.34-1.96,11.75-3.95,19.23-1.82,6.83-4.69,13.06-8.61,18.7-.19.27-.4.51-.64.72-2.32,2.04-3.9,4.41-6.86,6.08-4.11,2.31-8.79,4.16-14.03,5.55" vector-effect="non-scaling-stroke"/>
      <path class="st0" d="M336.05,291.76c-28.48,7.17-56.74,15.89-84.78,26.16-10.66,3.91-20.56,8.47-29.7,13.68-6.73,3.83-13.38,8.6-19.95,14.3-3.52,3.05-6.24,5.9-8.16,8.54-1.1,1.51-3.31,3.27-3.99,4.31-2.54,3.91-6.71,8.77-9.74,13.83-5.94,9.9-10.61,18.71-14.01,26.42-15.18,34.43-30.28,69.64-42.93,102.55-1.91,4.98-3.69,9.85-5.34,14.61-.21.61.07,1.28.65,1.55l6.66,3.17" vector-effect="non-scaling-stroke"/>
      <path class="st10" d="M124.76,520.88c-.64,2.24-1.14,4.82-1.82,6.8-7.43,21.59-14.17,42.87-20.22,63.83-.78,2.69-2.68,10.75-5.71,24.17-.32,1.4-.03,3.28-.68,4.33-.48.77-.69,1.82-.63,3.15.08,1.75-.2,3.73-.85,5.94-.15.52-.24,1.06-.26,1.6-.23,6.53-.24,13.43-.03,20.71.04,1.35.26,2.56.65,3.65.54,1.51.72,2.72.53,3.62-.07.31,0,.64.19.9.57.77.88,1.82.93,3.16.01.32.07.65.18.96,4.12,11.97,10.32,21.58,22.18,26.18.35.13.54.51.44.87-.1.36-.46.59-.83.52-2.05-.37-4.42-.54-7.1-.51-7.37.09-41.33.11-101.88.07-.18,0-.36.06-.5.18-.59.45-1.05,1.06-1.38,1.83" vector-effect="non-scaling-stroke"/>
      <path class="st11" d="M463.85,0c3.11.48,6.22.88,9.35,1.2,20.68,2.14,39.85,8.07,57.5,17.79,2.13,1.17,5.66,3.35,10.6,6.54,3.74,2.42,7.88,4.56,12.43,6.42.28.11.57.18.87.21l15.17,1.35c.07.01.15.02.22.04,2.01.47,4.92,1.03,7.01,1.93,5.79,2.5,9.84,6.64,12.15,12.43.82,2.07,1.26,4.67,1.32,7.82.09,4.41.07,7.07-.06,8-1.69,12.13-7.75,20.85-18.18,26.16" vector-effect="non-scaling-stroke"/>
      <path class="st3" d="M572.23,89.89c-.24,2.87-.27,5.48-.08,7.85.4,5.15.6,7.77.6,7.84-.05,11.21-1.88,22.02-5.49,32.41-1.14,3.28-1.7,6.07-2.64,9.2-.04.12-.16.2-.29.19-.13-.02-.22-.13-.22-.26v-10c0-.44-.23-.84-.6-1.08-8.75-5.42-17.65-6.5-27.8-5.91-.31.02-.46-.38-.21-.57,2.78-2.13,6.06-3.07,9.83-2.81,4.96.35,10.5,1.5,16.61,3.43,1.11.35,2.28-.35,2.49-1.5.47-2.49.65-5.47.55-8.93-.27-9.99-.81-18.64-1.62-25.97-.06-.56-.49-1.01-1.05-1.09-1.17-.17-2.57-.25-4.2-.25-8.8,0-22.77,1.41-33.58.98-13.36-.53-20.78-.86-22.27-.97-16.08-1.22-34.22-4.49-54.41-9.82-3.41-.91-8.3-3.22-12.41-4.45-.43-.13-.89,0-1.19.33l-1.58,1.7c-.2.22-.3.51-.29.81.73,12.76-2.31,24.44-9.12,35.03-5.81,9.03-9.64,15.24-13.22,24.31-2.99,7.59-2.05,16.9-9.19,22.52-.5.39-1.22.37-1.69-.06-1.83-1.64-3.49-3.92-5-6.84-3.9-7.55-10.65-16.78-18.79-20.03-5.51-2.2-11.97-2.51-17.15.58-1.25.74-2.85,2-4.81,3.79-.03.03-.06.04-.09.05l-.37.05c-.25.04-.47-.17-.44-.42.51-5.04-.49-8.1-1.87-13.34-.11-.4-.53-2.71-1.28-6.93-.73-4.12-1.89-8.14-3.48-12.06" vector-effect="non-scaling-stroke"/>
      <path class="st0" d="M976.97,139.25c-1.76-27.33-10.99-51.49-27.69-72.48-3.08-3.87-6.21-6.62-9.85-10.37-1.95-2.01-4.62-4.4-8-7.15-19.68-16.03-42.99-25.05-69.93-27.04-32.18-2.39-60.5,5.42-84.95,23.43-2.02,1.48-3.4,2.48-4.15,2.99-3.52,2.4-5.94,5.55-9.41,8.1-.9.66-2.4,2.34-4.49,5.03-.6.77-1.25,1.5-1.96,2.18-1.6,1.55-2.77,2.64-4.22,4.63-.78,1.08-2.01,2.77-3.7,5.07-17.28,23.59-25.05,53.7-22.41,82.59,1.51,16.57,5.12,32.14,12.9,47.16,12.11,23.36,29.57,41.21,52.39,53.56,13.06,7.07,26.76,11.5,41.09,13.31,3.81.48,8.9.75,15.29.82,10.7.12,20.1-.2,29.31-2.16,19.46-4.13,37.07-12.43,52.84-24.89,1.71-1.35,4.78-3.98,9.22-7.89,3.16-2.79,5.11-5.6,7.89-8.55,1.95-2.07,3.81-4.3,5.6-6.71,14.31-19.36,22.39-41.25,24.23-65.68" vector-effect="non-scaling-stroke"/>
      <path class="st10" d="M971.72,695c.78-.57,1.22-.97,1.31-1.2.56-1.42-.48-2.96-2.01-2.96h-73.5c-.27,0-.53.03-.79.1l-1.82.45c-.35.09-.6-.32-.37-.6,2.86-3.43,5.05-7.51,6.58-12.23.68-2.1,2.48-8.44,5.41-19.02.64-2.29,18.39-66.21,53.25-191.76,3.03-10.91,6.05-19.78-.6-29.18-.68-.95-1.6-1.85-2.75-2.69-1.8-1.31-2.97-2.01-3.52-2.1-2.88-.48-5.42-1.02-8.63-1.07-10.68-.14-20.45-.21-29.31-.22-88.57-.09-174.28.16-264.9-.5-3.64-.03-6.4.43-9.42.54-.3.01-.61.06-.89.17-9.75,3.46-15.79,10.13-18.12,20.02-.7,2.96-1.43,5.25-2.2,6.87" vector-effect="non-scaling-stroke"/>
      <path class="st0" d="M619.44,459.62c-.42-.11-.74-.31-.97-.6-.12-.15-.18-.48-.18-1,0-.93-.09-1.65-.26-2.17-8.36-24.97-13.77-40.36-16.24-46.17-7.75-18.29-14.57-34.48-26.08-49.45-1.83-2.39-3.43-4.26-4.8-5.61-5.13-5.05-8.52-8.79-13.65-12.44-7.43-5.29-15.53-9.92-24.32-13.91-16.71-7.57-34.78-15.82-54.21-24.75-1.57-.73-2.83-.75-3.78-.06" vector-effect="non-scaling-stroke"/>
      <path class="st10" d="M474.95,303.46c-.07-1.18.11-2.25.53-3.22.12-.29.41-.48.72-.48l12.87-.07c1.39-.01,2.78-.15,4.14-.43.08-.02,1.82-.33,5.21-.94,13.57-2.44,25.9-9.58,34.58-20.54,2.02-2.55,3.18-4.06,3.47-4.52,6.39-9.85,11.27-20.45,14.66-31.8,3.48-11.68,6.05-22.43,7.71-32.25.67-3.97,1.1-6.24,1.29-6.79.15-.43.2-.88.16-1.33-.2-2.59.94-5.78,1.26-8.94.21-2.04.93-7.42,2.16-16.15.06-.42.09-1.23.09-2.44-.01-.82.06-1.63.21-2.43.63-3.45.97-6.11,1.03-8,.15-5.07,1.32-8.63,1.21-13.56-.02-.87.09-1.74.34-2.57,3.67-12.42,5.66-19.89,5.99-22.41,1.01-7.79,1.57-12.23,1.67-13.34.62-6.91-.05-14.03-2.02-21.36" vector-effect="non-scaling-stroke"/>
      <path class="st5" d="M788.42,146.82c0,2.6-.01,3.97-.03,4.1-.04.21-.23.36-.44.36h-15.82c-.25,0-.46.22-.46.47v13.79c0,.39.32.7.71.7h18.08c.31,0,.58.19.69.48,7.27,19.85,20.47,32.94,39.6,39.27,24.21,8,56.11,3.42,73.28-17.71.19-.24.17-.59-.06-.8l-17.43-16.12c-.26-.24-.67-.22-.91.05-8.77,9.84-19.34,14.54-31.7,14.1-13.7-.48-25.36-6.88-31.98-18.86-.1-.19.04-.42.26-.42h42.6c.26,0,.47-.21.47-.48v-13.94c0-.3-.24-.54-.54-.54h-46.66c-.35,0-.65-.25-.71-.58-.25-1.25-.37-2.54-.37-3.88s.12-2.64.37-3.88c.06-.34.36-.58.71-.58l46.66-.03c.3,0,.54-.24.54-.54v-13.94c-.01-.26-.22-.48-.48-.48l-42.6.02c-.22,0-.36-.23-.26-.42,6.61-11.98,18.27-18.39,31.97-18.87,12.36-.45,22.93,4.25,31.71,14.08.24.27.65.29.91.05l17.42-16.13c.22-.21.25-.56.06-.8-17.18-21.12-49.08-25.68-73.29-17.67-19.13,6.34-32.32,19.44-39.58,39.29-.11.29-.38.48-.69.48h-18.08c-.39.01-.71.32-.71.71v13.79c.01.25.21.46.47.46h15.82c.21,0,.4.15.44.36.02.13.03,1.5.03,4.11" vector-effect="non-scaling-stroke"/>
      <path class="st15" d="M474.95,303.46c-2.19,4.45-2.26,8.14-2.92,13.34-.27,2.15-.49,4.81-.64,8-.44,9.42-4.02,21.06-11.97,26.88-.85.62-1.66,1.22-2.44,1.79-1.75,1.29-3.66,2.33-5.69,3.11-6.11,2.35-11.5,3.95-16.19,4.8-4.84.89-11.71,1.03-20.6.44-.32-.02-.63-.08-.94-.18-1.09-.37-1.97-.6-2.66-.7-25.91-3.89-49.36-19.04-64.59-39.79-6.12-8.35-9.54-18.14-10.26-29.39" vector-effect="non-scaling-stroke"/>
      <path class="st17" d="M417.88,270.93c.24-1.16.84-1.98,1.81-2.45" vector-effect="non-scaling-stroke"/>
      <path class="st4" d="M419.69,268.48c.8.02,1.42.25,1.85.69,13.71,14.02,30.27,22.43,49.7,25.24,9.61,1.39,18.7,1.28,27.29-.33,15.58-2.93,28.46-13.19,36.59-26.96,6.11-10.34,10.65-21.2,13.64-32.57,3.07-11.7,5.41-22.63,7-32.79,2.35-15.02,4.49-32.6,6.4-52.75.34-3.59.56-7.38.66-11.36.01-.52-.29-.99-.77-1.2-8.28-3.57-17.85-6.53-26.79-4.11-1.32.36-2.63-.61-2.68-1.98v-.17c-.05-1.6.91-3.07,2.41-3.64,4.01-1.53,7.43-2.14,10.24-1.81,6.87.81,12.6,2.35,17.19,4.63.25.13.55-.06.55-.34.32-11.87-.04-23.57-1.07-35.1-.03-.35-.35-.6-.69-.54-18.48,3.09-37.67,2.61-57.67.8-25.52-2.31-49.26-6.57-68.95-14.63-.35-.15-.71.2-.59.56.66,2,.92,4.31.78,6.92-.44,7.9-2.71,15.9-6.82,23.99-3.41,6.74-11.34,16.98-14.46,24.68-1.63,4.03-2.92,8.4-3.85,13.1-.95,4.76-2.34,11.69-6.47,14.6-4.46,3.13-7.36.05-9.03-3.82-3.44-7.99-8.12-14.38-14.04-19.19-4.18-3.39-8.39-4.34-13.43-4.83-5.81-.57-10.49,4.08-13.39,8.5-7.78,11.83-8.15,26.63-2.6,39.46,4.3,9.95,11.89,19.07,22.29,22.7,2.59.9,5.23.96,7.92.17,1.16-.34,2.35.4,2.57,1.58l.02.14c.24,1.31-.47,2.6-1.71,3.09-1.25.49-2.54.65-3.87.47-.35-.04-.66.21-.68.56-.4,6.59-.86,12.76-1.38,18.5-.99,11.01-3.08,22.07-6.25,33.16-4.24,14.89-12.45,26.98-28.45,30.59-.52.12-.86.62-.79,1.15,1.15,8.28,4.28,15.88,9.41,22.8,15.94,21.51,41.26,37.97,68.4,39.15,19.97.86,44.78-3.3,47.89-27.56.87-6.78,1.61-12.61,2.21-17.5.35-2.85,1.08-5.73,2.18-8.63.09-.25-.07-.53-.34-.57-17.97-2.67-44.94-13.35-52.23-32.4" vector-effect="non-scaling-stroke"/>
      <path class="st9" d="M419.69,268.48c-.35.03-.58-.09-.69-.36-.13-.32.07-.67.41-.71,1.48-.14,2.83.41,4.04,1.64,8.07,8.26,17.26,14.41,27.56,18.46,4.3,1.69,8.88,2.76,12.44,3.77,6.19,1.76,13.45,2.65,21.78,2.67,5.39,0,9.84-.45,13.34-1.4,7.5-2.03,14.42-4.1,20.88-9.32,2.73-2.2,4.77-3.98,6.13-5.33,1.3-1.29,3.92-4.77,7.87-10.44.73-1.03,1.65-2.73,2.76-5.1,2.04-4.33,4.35-8.3,6.15-13.12,3.83-10.18,6.59-19.68,8.3-28.51,1.19-6.14,2.86-15.35,5.02-27.63.85-4.79,1.67-11.41,2.48-19.85.31-3.27.98-9.91,2.01-19.93.14-1.28.68-2.84.67-4.07-.01-2.45-.01-6.05.02-10.82.01-.61-.36-1.16-.93-1.4-6.5-2.71-13.18-3.94-20.05-3.69-1.11.04-2.06.14-2.85.31-3.9.85-6.96-1.04-5.63-5.46.1-.31.27-.59.5-.81,7.44-7.16,19.27-4.03,27.8-.81.79.3,1.65-.24,1.72-1.09.11-1.25.16-3.97.17-8.16.02-7.06-1.08-14.29-1.02-20.7.01-.73-.61-1.32-1.34-1.28-4.09.22-7.16,1.3-11.51,1.51-26.55,1.28-53.11-.71-79.69-5.96-10.63-2.1-21.04-5.09-31.24-8.96-.39-.15-.8.16-.77.57,1,14.39-4.58,26.5-12.6,38.78-2.82,4.32-5.19,8.99-7.49,12.49-.47.72-.85,1.5-1.14,2.32-1.42,4.05-2.55,8.09-3.39,12.12-1.08,5.21-2.41,9.3-3.99,12.26-2.56,4.8-7.73,7.82-12.39,3.09-.21-.21-.39-.45-.53-.72-1.17-2.25-2.13-4.11-2.86-5.56-2.02-4.02-3.49-5.7-6.21-9.58-2.32-3.31-6.28-6.57-8.79-8.09-3.15-1.91-9.47-3.05-12.98-2.46-1.69.28-3.38,1.19-5.07,2.74-4.24,3.89-7.06,8.75-8.45,14.57-2.82,11.84-1.35,23.08,4.41,33.73,1.36,2.51,3.96,5.8,7.81,9.87,1.83,1.95,4.54,3.33,7.07,5.05,2.77,1.88,6.51,2.53,11.21,1.96,1.96-.24,3.73,1.18,3.93,3.14v.1c.22,2.12-1.21,4.05-3.3,4.47-2.07.41-3.06,1.44-2.97,3.08.18,3.5.03,6.69-.46,9.56-.81,4.76-.48,8.21-1.51,12.95-.56,2.58-.68,6.14-1.28,9.47-.94,5.25-1.6,8.72-1.98,10.42-.07.33-.17.66-.3.97-.92,2.31-1.43,4.09-1.54,5.36-.01.17-.06.33-.14.48l-1.06,1.82c-.12.21-.21.44-.27.67-1.67,6.39-4.91,12.23-9.72,17.52-4.02,4.41-8.72,7.54-14.09,9.41-2.17.76-4.08.79-3.4,3.98.91,4.22,2.3,9.51,4.64,13.71,6.32,11.32,15,19.36,25.55,27.31,4.48,3.38,11.26,7.08,20.35,11.1,6.88,3.05,15.45,4.73,22.03,5.3.43.03,4.05.08,10.85.15,3.13.03,6.08-.19,8.85-.67,7.52-1.29,13.7-2.9,19.61-6.8,8.69-5.74,9.81-14.52,11.16-23.96.23-1.59.47-4.16.73-7.71.27-3.75.94-7.55,1.99-11.41.12-.43-.15-.86-.59-.95-11.65-2.35-22.5-6.52-32.53-12.51-2.97-1.77-5.38-3.53-7.25-5.28-3.5-3.28-5.6-5.42-6.3-6.43-.59-.87-2.03-3.22-4.32-7.06-.15-.26-.26-.53-.33-.82-.34-1.49-.04-1.99.9-1.51" vector-effect="non-scaling-stroke"/>
      <path class="st3" d="M420.91,270.88c-.5-.31-1.12.14-.98.71.39,1.54,1.18,3.07,2.38,4.6,3.95,5.03,8.32,9.5,14.18,12.95,4.8,2.83,7.51,4.39,8.14,4.67,4.99,2.25,12,4.62,21.01,7.1,2.71.75,4.13,1.34,6.59,2.43.62.27,1.33-.14,1.4-.82l.46-4.45c.07-.65-.39-1.25-1.04-1.36-19.67-3.35-36.61-10.75-51.1-24.95-.42-.41-.77-.71-1.04-.88" vector-effect="non-scaling-stroke"/>
      <path class="st6" d="M492.46,128.78v-.13c.21-1.67-.62-3.3-2.08-4.12-6-3.35-11.9-4.94-17.7-4.75-6.09.2-11.46,1.37-16.1,3.5-2.07.95-3.46,2.94-3.63,5.2v.06c-.14,1.8,1.66,3.11,3.33,2.44,10.64-4.26,21.69-4.36,33.15-.31,1.38.49,2.86-.43,3.03-1.89" vector-effect="non-scaling-stroke"/>
      <path class="st17" d="M379.7,180.99c1.22,1.42,2.41,1.57,3.56.44" vector-effect="non-scaling-stroke"/>
      <path class="st9" d="M383.26,181.43c-.24.31-.27.55-.1.74.31.33.85.27,1.11-.12.83-1.27,1.32-2.82,1.49-4.65.03-.25,0-.49-.04-.74-1.41-6.66-5-12.3-10.75-16.91-2.31-1.86-5.03-.19-5.82,2.36-.11.36-.1.75.02,1.11,1.21,3.45,5.44,6.74,6.89,8.93,1.03,1.57,1.7,3.83,1.99,6.78.04.41.14.81.31,1.18.77,1.7,1.22,1.99,1.34.88" vector-effect="non-scaling-stroke"/>
      <path class="st4" d="M383.26,181.43c1.4-2.18,1.53-4.73.4-7.64-1.91-4.9-5.03-9.23-9.35-12.99-.91-.79-2.28-.73-3.11.15l-.25.26c-.84.89-.8,2.29.09,3.13,4.85,4.59,9.09,9.31,8.66,16.65" vector-effect="non-scaling-stroke"/>
      <path class="st9" d="M538.94,182.83c4.97,2.13,10-6.03,11.18-9.66.88-2.71,1.05-5.02.51-6.91-1.41-4.91-6.56-9.55-11.64-5.75-3.54,2.64-5.5,7.97-5.75,12.22-.31,4.97,1.59,8.33,5.7,10.1" vector-effect="non-scaling-stroke"/>
      <path class="st6" d="M469,181.76c4.07,1.18,8.76-2.68,10.47-8.6,1.71-5.93-.2-11.69-4.27-12.86-4.07-1.18-8.76,2.68-10.47,8.6-1.71,5.93.2,11.69,4.27,12.86" vector-effect="non-scaling-stroke"/>
      <path class="st9" d="M514.08,166.78c.01-.51-.07-.85-.25-1.01-.19-.17-.5-.05-.52.2-.35,3.32-.17,6.36.55,9.13,4.22,16.26,6.7,25.91,8.61,35.09.91,4.37-1.1,7.1-5.69,7.71-4.91.66-10.09.26-15.53-1.2-1.87-.5-3.15.07-3.86,1.7-1.49,3.44,1.96,5.7,4.9,6.51,4.54,1.24,9.14,1.55,13.8.94,12.4-1.63,16.52-9.4,13.13-21.14-.91-3.15-1.42-5.05-1.51-5.69-.05-.31-1.37-5.96-3.96-16.95-.45-1.95-1.07-4.27-1.84-6.98-.77-2.72-1.4-5.67-1.89-8.84-.09-.59-.56-1.03-1.15-1.08-.06,0-.29.21-.68.65" vector-effect="non-scaling-stroke"/>
      <path class="st17" d="M518.19,165.82c-.09-.72-.58-1.1-1.47-1.14-1.69-.08-2.57.62-2.64,2.1" vector-effect="non-scaling-stroke"/>
      <path class="st4" d="M518.19,165.82c3.07,12.84,6.19,25.67,9.35,38.5,2.53,10.3,1.53,18.04-10.45,20.03-5.19.87-10.74.41-16.65-1.38-1.43-.43-2.37-1.78-2.27-3.27v-.07c.09-1.33,1.42-2.2,2.68-1.75,7.79,2.78,26.26,5.01,22.88-9.35-2.63-11.18-5.58-23.34-8.86-36.49-.27-1.07-.53-2.82-.79-5.26" vector-effect="non-scaling-stroke"/>
      <path class="st9" d="M514.95,249.51c-.88-1.87-2.37-2.59-4.47-2.16-8.79,1.81-18.28,2.78-26.34,0-3.91-1.34-7.58-3.26-11.02-5.77-.59-.42-2.3-2.08-5.13-4.98-.27-.27-.62-.46-1-.53-2.3-.43-3.75.64-4.34,3.22-.09.36-.09.72,0,1.08.92,4.14,7.02,9.58,10.38,11.58,6.85,4.07,14.15,6.15,21.9,6.24,2.23.02,3.93-.79,6.59-.91,1.61-.07,3.32-.37,5.12-.9,3.94-1.14,7.47-1.8,8.43-5.68.1-.4.06-.82-.11-1.2" vector-effect="non-scaling-stroke"/>
      <path class="st18" d="M539.11,181.55c3.71,1,7.99-2.9,9.55-8.7,1.56-5.79-.2-11.3-3.92-12.3-3.71-1-7.99,2.9-9.55,8.7-1.56,5.79.2,11.3,3.92,12.3" vector-effect="non-scaling-stroke"/>
      <path class="st4" d="M513.84,250.11c0-1.26-1.21-2.16-2.41-1.81-15.5,4.59-33.02,2.63-43.61-10.34-.67-.82-1.85-.98-2.69-.36-1.99,1.45-.72,3.7.3,5.36,3.5,5.71,11.61,10.32,17.19,11.89,9.48,2.66,19.36,2.06,29.63-1.81.96-.35,1.59-1.27,1.59-2.29v-.64" vector-effect="non-scaling-stroke"/>
      <path class="st15" d="M619.44,459.62c-6.02,22.04-11.95,44.14-17.79,66.3-.27,1.02-.81,2.45-1.62,4.29-.22.49-.57.9-1.03,1.19-1.67,1.05-3.16,1.85-4.47,2.42-2.08.89-12.67,5.13-31.76,12.7-9.53,3.78-18.02,7.98-27.26,11.02-.33.11-.65-.18-.58-.51l22.79-118.59c.2-1.06-.45-2.1-1.5-2.38h-.02c-.98-.27-1.98.35-2.17,1.35-10.41,53.12-20.89,107.21-31.44,162.27-.34,1.77-1.23,3.95-1.23,6.26-.01.58-.3,2.15-.87,4.7-1.94,8.57-3.66,17.88-5.17,27.92-.05.35-.37.6-.73.57-.53-.05-.9-.38-1.1-.99-.13-.39-.44-.87-.93-1.45-6.97-8.29-11-13.02-12.08-14.19-5.81-6.32-12.32-12.23-19.53-17.72-10.18-7.76-21.5-12.86-33.96-15.3-4.73-.93-6.89-1.33-11.05-.78-4.02.53-8.09,1.27-12.21,2.23-2.96.69-6.39,1.75-10.3,3.18-6.02,2.21-9.38,3.47-10.08,3.78-22.77,10.14-35.57,15.84-38.39,17.11-1.82.81-4.58,1.19-8.27,1.14-7.33-.11-12.08-.33-14.27-.68-6.2-.98-13.11-.15-18.78-1.33-4.03-.84-8.37.01-11.81-.87-4.33-1.12-10.36-.24-14.46-1.59-.8-.26-1.64-.37-2.47-.32-3.51.18-6.34-.06-8.49-.71-.07-.02-.15-.03-.22-.04l-18.46-1.91c-.39-.04-.77-.11-1.14-.22l-1.66-.47c-.37-.12-.76-.17-1.15-.16-2.37.09-4.62-.15-6.76-.7-2.24-.59-4.53-.21-6.31-.73-1.73-.51-3.28-.79-4.65-.83-.98-.03-4.17-.47-9.58-1.33-4.59-.73-7.78-1.2-9.56-1.41-4.31-.51-7.8-1.2-10.49-2.08-.48-.15-.74-.67-.57-1.15,1.54-4.38,3.32-7.87,4.54-11.69,1.41-4.4,4.68-14.08,9.81-29.04.25-.72,1.03-1.1,1.76-.86l10.83,3.64c.68.23,1.42-.13,1.66-.8.05-.14.91-2.39,2.58-6.74,8.27-21.7,15.76-44.55,22.45-68.55,6.39-22.91,10.67-38.44,12.86-46.6.26-.98-.38-1.97-1.38-2.14l-.14-.03c-1.08-.18-2.12.49-2.4,1.55-7.47,27.77-13.46,49.16-17.99,64.17-4.65,15.43-9.87,30.69-15.64,45.79-1.05,2.75-2.1,5.27-3.13,7.54-.27.6-.95.9-1.58.7-36.38-11.65-72.8-24.03-109.27-37.15-1.59-.57-2.82-.5-4.02-1.66-.48-.47-1.29-.14-1.31.53-.03,1-.27,1.87-.73,2.61" vector-effect="non-scaling-stroke"/>
      <path class="st10" d="M971,695l-4.26-.12" vector-effect="non-scaling-stroke"/>
      <path class="st3" d="M966.74,694.88c-1.21-.23-2.31-.19-3.32.12" vector-effect="non-scaling-stroke"/>
      <path class="st12" d="M963.35,695c-.81-.21-1.6-.21-2.39,0" vector-effect="non-scaling-stroke"/>
      <path class="st3" d="M960.36,695c-.8-.39-1.44-.39-1.93,0" vector-effect="non-scaling-stroke"/>
      <path class="st7" d="M957.09,695h-6.6" vector-effect="non-scaling-stroke"/>
      <path class="st3" d="M933.11,695c-.67-.41-1.23-.41-1.67,0" vector-effect="non-scaling-stroke"/>
      <path class="st3" d="M900.85,695c-.75-.39-1.21-.39-1.4,0" vector-effect="non-scaling-stroke"/>
      <path class="st3" d="M869.35,695c-.81-.39-1.45-.39-1.91,0" vector-effect="non-scaling-stroke"/>
      <path class="st7" d="M843.85,695c-.72-.35-1.18-.35-1.38,0" vector-effect="non-scaling-stroke"/>
      <path class="st3" d="M647.35,695c-.78-.39-1.42-.39-1.92,0" vector-effect="non-scaling-stroke"/>
      <path class="st3" d="M643.37,695c-.87-.39-1.5-.39-1.9,0" vector-effect="non-scaling-stroke"/>
      <path class="st10" d="M126.47,695h-6.93" vector-effect="non-scaling-stroke"/>
      <path class="st10" d="M92.09,695c-.79-.2-1.59-.2-2.38,0" vector-effect="non-scaling-stroke"/>
      <path class="st7" d="M88.36,695c-.65-.28-1.2-.28-1.67,0" vector-effect="non-scaling-stroke"/>
      <path class="st10" d="M86.22,695h-4.71" vector-effect="non-scaling-stroke"/>
      <path class="st3" d="M76.35,695c-.29-.23-.68-.27-1.17-.11" vector-effect="non-scaling-stroke"/>
      <path class="st10" d="M75.18,694.89c-.73-.09-1.38-.05-1.97.11" vector-effect="non-scaling-stroke"/>
      <path class="st3" d="M45.35,695c-.79-.38-1.43-.38-1.92,0" vector-effect="non-scaling-stroke"/>
      <path class="st10" d="M43.34,695c-.5-.15-1.05-.19-1.65-.13" vector-effect="non-scaling-stroke"/>
      <path class="st12" d="M41.69,694.87c-.84-.13-1.59-.09-2.24.13" vector-effect="non-scaling-stroke"/>
      <path class="st12" d="M38.1,695c-.81-.22-1.61-.22-2.4,0" vector-effect="non-scaling-stroke"/>
      <path class="st3" d="M35.36,695c-.81-.38-1.45-.38-1.93,0" vector-effect="non-scaling-stroke"/>
      <path class="st7" d="M32.36,695c-.54-.3-.84-.3-.9,0" vector-effect="non-scaling-stroke"/>
      <path class="st10" d="M9.35,695l-1.38-.9" vector-effect="non-scaling-stroke"/>
      <path class="st12" d="M836.91,437.26l-58.9-.4" vector-effect="non-scaling-stroke"/>
      <path class="st7" d="M778.01,436.86c-44.53-.18-89.06-.2-133.59-.06-2.57.01-4.66.39-6.26,1.13-8.89,4.11-11.02,11.1-13.68,19.87-.28.93-8.93,32.86-25.95,95.8-8.69,32.16-15.75,58.36-21.17,78.61-2.3,8.6-4.71,16.54-7.34,26.38-2.97,11.12-5.9,21.67-8.77,31.64-.1.37.17.73.55.75,2.21.09,3.7.14,4.47.14,121.65-.25,227.72-.29,318.2-.12,4.89.01,6.57-1.69,9.27-5.97,1.95-3.1,3.74-7.57,5.35-13.4,34.86-125.73,54.53-196.75,59.02-213.07.8-2.91,1.37-5.88,1.11-8.74-.45-4.93-3.97-11.87-9.66-12.38-3.35-.3-6.21-.45-8.59-.45-34.69-.05-69.37.04-104.06.27" vector-effect="non-scaling-stroke"/>
      <path class="st14" d="M778.01,436.86c-.71-.07-1.08-.07-1.11-.02-.2.36.06.8.47.81,19.97.38,39.5.47,58.57.26,1.19-.01,1.51-.23.97-.65" vector-effect="non-scaling-stroke"/>
      <path class="st17" d="M133.99,690.7c26.6.17,53.26.19,79.98.07.85-.01,2.2-.19,4.05-.55" vector-effect="non-scaling-stroke"/>
      <path class="st4" d="M218.02,690.22c32.83-3.66,54.71-6.34,65.64-8.05,15.22-2.38,30.66-4.8,46.31-7.26,6.59-1.03,12.72-1.54,18.38-1.51.86,0,1.72.13,2.54.38,5.45,1.61,10.23,2.85,14.36,3.72,9.62,2.02,18.91.45,28.6-3.3,8.3-3.21,17.15-6.29,25.74-7.63.53-.08,1.07,0,1.54.24,2.56,1.29,3.6,2.59,4.92,4.79.17.27.46.44.78.44h15.82c.18,0,.28-.22.16-.36-1.1-1.23-2.02-2.17-2.75-2.82-9.76-8.59-17.97-14.3-27.96-20.42" vector-effect="non-scaling-stroke"/>
      <path class="st17" d="M412.1,648.44c-.87-1.91-.02-3.78,2.18-3.95" vector-effect="non-scaling-stroke"/>
      <path class="st4" d="M414.28,644.49c8.21,4.66,15.95,9.99,23.22,16,4.12,3.4,8.43,8.3,11.93,11.25.15.12.33.18.52.18h23.31c.23,0,.34-.27.18-.43-6.63-6.42-11.93-12.29-19.44-21.13-3.01-3.54-5.49-6.15-7.45-7.83-6.25-5.31-13.54-9.62-20.15-13.55-.85-.5-1.22-1.53-.91-2.46l.18-.52c.41-1.22,1.85-1.74,2.95-1.08,11.36,6.82,19.01,11.36,26.33,19.61,3.43,3.86,8.17,9.3,14.22,16.31.93,1.08,4.46,4.64,10.61,10.69.24.24.57.37.92.37h14.14c.64,0,1.21-.36,1.49-.93,1.33-2.75,1.1-5.47-.7-8.14-4.3-6.37-9.4-11.57-14.71-17.6-.9-1.03-3.14-3.99-6.73-8.88-4.91-6.71-9.98-11.56-16.71-15.6-5.19-3.11-9.62-5.51-13.29-7.18-.82-.37-1.22-1.3-.93-2.14l.25-.75c.44-1.29,1.93-1.89,3.15-1.27,6.15,3.15,11.34,6.09,15.58,8.82,8.53,5.48,13.83,14,20.88,20.8,5.07,4.91,10.17,10.15,14.3,16.03,2.21,3.15,3.91,5.08,5.08,5.79,5.19,3.13,12.43,2.22,14.77-3.64,1.16-2.9.73-5.72-1.3-8.46-17.13-23.16-37.96-48.2-67.66-54.59-13.37-2.88-26.89,1.29-39.06,6.12-6.93,2.75-17.29,7.3-31.08,13.67-6.62,3.06-14.34,6.88-22.2,6.53-23.76-1.05-49.17-3.17-76.24-6.36-21.59-2.54-45.43-5.88-71.5-10.02-7.07-1.12-23.89-2.63-50.45-4.53" vector-effect="non-scaling-stroke"/>
      <path class="st17" d="M157.78,599.57c-.21-2.79.66-4.25,2.62-4.4,10.07-.75,19.11-.9,27.13-.45" vector-effect="non-scaling-stroke"/>
      <path class="st4" d="M187.53,594.72c8.03.37,15.98,1.3,23.85,2.79.33.06.64-.12.76-.42,5.01-12.69,9.71-26.08,14.09-40.16.07-.21-.04-.43-.25-.5l-96.88-32.97c-.45-.15-.93.15-.99.62-.12.98-.4,2.14-.83,3.49-12.44,38.45-19.16,57.13-25.26,84.69-3.8,17.17-5.51,34.37-.61,50.71,3.43,11.44,10.53,19.5,21.3,24.18.89.39,2.77.99,5.64,1.78,1.87.52,3.75,1.11,5.64,1.77" vector-effect="non-scaling-stroke"/>
      <path class="st9" d="M187.53,594.72l-1.29-.77c-.45-.27-.22-.97.31-.92l23.81,2.45c.79.08,1.53-.39,1.78-1.14l12.18-35.77c.29-.85-.2-1.78-1.07-2.02-3.8-1.05-9.54-2.79-17.23-5.24-.09-.03-14.17-4.83-42.26-14.38-2.05-.69-5.09-2.11-7.9-2.89-6.5-1.82-12.26-3.78-17.27-5.89-3.36-1.41-6.26-2.41-8.69-3.02-.33-.08-.67.12-.75.45-1.59,6.11-3.97,13.72-7.13,22.83-2.39,6.88-4.57,14.8-7.16,22.04-1.5,4.19-2.48,8.87-3.79,12.6-1.02,2.93-1.23,5.83-2.41,8.79-.72,1.8-1.38,3.98-1.98,6.54-.89,3.78-1.65,7.11-2.29,10-.61,2.73-1.74,9.27-3.39,19.6-1.14,7.2-1.56,14.87-.91,20.28.45,3.75,1.47,8.67,3.08,14.78,1.65,6.27,4.76,11.65,9.34,16.14,2.33,2.29,6.22,4.67,11.69,7.15,3.04,1.37,6.36,1.6,9.87,2.46.35.09.54.47.4.81l-.48,1.1" vector-effect="non-scaling-stroke"/>
      <path class="st9" d="M157.78,599.57c-.29.67.14,1.2,1.29,1.57.53.17,1.29.29,2.28.36,6.39.45,11.99.79,16.8,1.02.51.03,1.2.16,2.07.39.39.1.78.16,1.17.17,6.61.19,13.51.87,20.7,2.05,2.3.38,4.42.19,6.68.8.87.23,2.54.49,4.99.78,6.71.79,22.12,3.01,46.23,6.65,9.89,1.49,20.01,2.66,30.35,3.51,5.23.43,10.59.98,16.08,1.65,4.17.51,6.94.78,8.33.81,7.21.14,13.76,1.31,20.9,1.59,9.21.35,15.9.65,20.07.92,3.79.24,6.73-.03,8.82-.8,5.93-2.17,13.39-5.4,22.39-9.69,2.89-1.37,5.37-2.46,7.44-3.27,6.42-2.5,9.9-4.65,16.29-6.89,6.53-2.29,12.2-4.05,16.99-5.27,4.66-1.19,10.77-1.53,18.34-1.03,1.1.07,2.77.48,5.01,1.22,4.16,1.38,8.71,2.64,12.13,4.37,15.5,7.84,27.76,18.87,38.96,32.38,3.06,3.69,6.65,8.26,10.77,13.71,1.71,2.26,4.74,8.04,2.92,10.63-2.38,3.39-5.7,4.59-9.97,3.59-5.65-1.33-7.99-8.45-10.58-11.05-7.14-7.15-11.6-11.77-13.39-13.86-7.04-8.26-12.86-15.21-21.74-20.47-5.38-3.18-9.7-5.47-12.96-6.87-1.68-.71-3.62.06-4.34,1.73l-.08.17c-.73,1.68-.02,3.64,1.62,4.46,9.75,4.87,17.11,9.6,22.09,14.19,2.15,1.98,5.53,6.18,10.14,12.6.88,1.23,1.61,2.14,2.18,2.73,2,2.04,3,3.84,5.53,6.45,2.94,3.04,12.71,13.52,11.72,17.25-.39,1.49-1.36,2.19-2.89,2.1-3.36-.18-6.69-.14-9.99.13-1.18.1-2.36-.22-3.32-.9-1.83-1.29-3.37-2.69-4.6-4.2-2.07-2.54-3.98-4.05-5.81-6.15-5.32-6.09-9.23-10.61-11.74-13.58-7.64-9.04-18.04-15.82-28.32-21.51-1.56-.86-3.52-.3-4.4,1.25l-.1.17c-.9,1.61-.4,3.64,1.15,4.64,4.43,2.87,8.27,5.33,11.5,7.4,6.35,4.05,11.65,8.74,15.9,14.07,2.19,2.74,4.44,4.69,6.05,7.36.05.07.1.14.16.2l9.96,10.12c.33.34.09.91-.38.91h-18.78c-.49,0-.96-.16-1.35-.46-1.89-1.47-3.79-3.36-5.7-5.65-.21-.25-.43-.47-.68-.67-3.57-2.96-5.76-4.83-6.57-5.61-2.74-2.62-5.61-4.02-8.75-6.55-3.63-2.93-6.83-4.4-11.82-7.27-.23-.13-.49-.22-.76-.25-.85-.11-1.01.17-.48.82" vector-effect="non-scaling-stroke"/>
      <path class="st9" d="M412.1,648.44c-.66.49-.24,1.21,1.27,2.14,8.53,5.28,16.87,11.45,25,18.52.43.38.17,1.08-.4,1.08h-10.43c-.34,0-.66-.15-.88-.42-2.23-2.79-4.84-5.3-8.62-4.6-6.5,1.2-12.37,3.44-19.18,5.65-2.67.87-5.72,1.94-9.15,3.21-7.69,2.85-15.51,3.58-23.46,2.2-4.54-.79-9.63-2.64-15.37-4.12-1.42-.36-2.79-.4-4.12-.13-.32.07-.64.09-.97.07-5.8-.39-11.48.15-17.03,1.61-.58.15-1.17.25-1.77.29-4.03.29-7.22.68-9.59,1.17-4.45.93-7.82,1.55-10.13,1.87-9.25,1.27-23.36,3.27-42.32,6.01-1.7.24-2.64.39-2.81.44-2.26.63-4.74.46-7.03.79-5.48.77-10.97,1.76-16.46,2.02-4.88.24-9.02,1.18-13.89,1.53-1.23.09-3.49.35-6.79.79-.74.1-.72.65.05,1.66" vector-effect="non-scaling-stroke"/>
      <path class="st10" d="M568.54,641.97c-.35.63-.68,1.07-.99,1.32-.7.55-1.69.51-2.34-.08-7.57-6.89-13.41-14.69-17.54-23.42-5.8-12.27-10.66-24.96-14.58-38.08-.46-1.55-.51-2.8-1.23-4.12-.33-.59-1.23-.36-1.22.32.06,3.02-.53,5.03-1.02,7.6-4.29,22.53-8,41.8-11.12,57.82-.11.61.03,1.23.39,1.73,4.97,6.71,4.71,12.95-.78,18.72-.93.97-1.86,1.44-3.01,2.09-.45.25-.72.73-.7,1.25.05,1.6-.16,3.07-.64,4.42-.1.28.1.57.4.57h46.83c.52,0,.98-.35,1.12-.86l7.69-28.79" vector-effect="non-scaling-stroke"/>
      <path class="st4" d="M569.8,642.46l27.27-101.24c.09-.33-.19-.64-.52-.58-6.87,1.18-14,2.47-21.59,5.59-13.34,5.47-26.54,10.92-39.6,16.36-.83.34-1.41,1.1-1.53,1.99-.38,2.92-.01,6.15,1.12,9.68,1.7,5.32,4.82,14.21,9.36,26.66,5.12,14.04,12.02,28.38,23.63,38.71.72.64.83,1.47.6,2.34" vector-effect="non-scaling-stroke"/>
      <path class="st16" d="M569.8,642.46c.01-.57-.41-.73-1.26-.49" vector-effect="non-scaling-stroke"/>
      <path class="st15" d="M501.19,672.19h7.94c.18,0,.34-.14.36-.32l.47-4.64c.02-.14-.1-.26-.24-.25-2.72.19-5.33-.38-7.83-1.73-.42-.23-.9.19-.73.64.71,1.89.57,3.74-.41,5.56-.18.33.06.74.44.74" vector-effect="non-scaling-stroke"/>
      <path class="st15" d="M420.63,672.17l-.11-1.88c0-.12-.11-.21-.23-.2l-.45.02c-2.75.16-4.97.54-4.95.86l.07,1.16c.01.32,2.26.45,5.01.3l.45-.03c.12,0,.21-.11.21-.23" vector-effect="non-scaling-stroke"/>
      <path class="st7" d="M386.88,681.08c-.28.04-.44.34-.32.6l4.13,8.32c.3.61.92.99,1.59.99h162.75c.62,0,1.17-.42,1.33-1.02l3.42-12.68c.07-.28-.14-.55-.43-.55h-158.24c-.64,0-1.27.11-1.87.33-3.93,1.46-7.97,3.36-12.36,4.01" vector-effect="non-scaling-stroke"/>
      <path class="st15" d="M325.57,679.86c-1.75.11-3.2.26-4.35.45-16.68,2.75-35.43,5.47-56.26,8.15-1.45.19-3.31.85-4.98,1.01-6.19.56-10.56.92-13.11,1.09-.47.03-.87.36-.99.81l-.03.1c-.11.4.22.78.63.74,6.6-.7,11.86-1.41,19.08-1.09,2.43.11,5.87.14,10.32.09,37.51-.4,73.98-.51,109.42-.32.41,0,.67-.42.49-.79l-3.67-7.41c-.24-.48-.77-.76-1.31-.69-4.02.53-6.88.74-8.57.64-3.8-.23-8.3-1.05-13.51-2.46-.2-.05-.38-.15-.54-.28-.73-.61-1.75-.87-3.06-.78-.3.02-.6-.03-.88-.15-4.17-1.85-8.38-2.22-12.65-1.11-.43.11-.87.19-1.32.22-1.47.11-2.41.12-2.82.03-.35-.07-1.48.14-3.4.65-2.04.55-5.2-.17-7.58.87-.28.13-.59.21-.91.23" vector-effect="non-scaling-stroke"/>
      <path class="st1" d="M763.28,575.99c-.26-.19-.4-.45-.42-.78-.31-4.84-1.94-8.58-4.91-11.22-3.3-2.93-7.19-4.18-11.66-3.74-5.43.53-10.01,3.14-13.72,7.85-.38.47-1.14.27-1.22-.33-.11-.75-.06-1.45.14-2.12.35-1.15,1.48-5.8,3.39-13.95.75-3.2-.58-4.87-3.99-5.02-3.32-.14-5.67.21-7.05,1.04-.56.34-.97.89-1.12,1.53l-3.82,15.87c-.12.48-.54.81-1.03.81h-13.22c-.92,0-1.59-.88-1.34-1.77,1.29-4.65,2.34-8.9,3.14-12.76.34-1.63-.13-3.05-1.06-4.15-.37-.43-1.43-.63-3.17-.6-1.83.03-3.65.1-5.47.19-1.55.09-2.43.74-2.65,1.97-1.02,5.6-2.24,10.86-3.66,15.79-.15.53-.24,1.08-.27,1.63l-.07,1.67c-.01.22-.06.45-.16.65-.9,1.88-1.51,4.15-1.84,6.8-.03.26-.09.51-.17.76-1.61,5.28-3.08,11.24-4.43,17.89-.38,1.85-.08,3.63,1.94,3.99,2.48.44,5.16.37,8.03-.21,1.28-.26,2.1-1.05,2.47-2.37,1.51-5.43,2.71-11.04,3.6-16.81.06-.37.38-.65.76-.65h14.5c.49,0,.86.46.74.94-1.39,5.6-2.53,10.79-3.44,15.58-.2,1.07.06,2.15.78,3.22.28.42.76.66,1.26.64l7.51-.26c.49-.02.95-.21,1.3-.54,2.64-2.22,1.73-6.01,3.17-8.8.2-.37.74-.33.88.06,1.57,4.29,4.36,7.31,8.37,9.04,8,3.46,17.91-1.65,23.08-8.12.78-.97.5-2.41-.58-3.04l-3.69-2.13c-.53-.31-.27-1.12.34-1.06l4.62.47c.32.03.64-.09.85-.32l1.62-1.75c.29-.31.8-.09.79.33-.09,2.43-.51,4.44-1.27,6.01-.07.13-.11.27-.14.42l-1.18,6.35c-.18.96.33,1.91,1.23,2.3,2.85,1.25,5.78,1.19,8.79-.17,1.07-.48,1.87-1.42,2.18-2.55,1.36-4.91,2.46-9.49,3.31-13.72,1.74-8.72,3.54-16.88,5.4-24.47.49-1.98.84-5.05.93-6.94.05-1.17-.8-2.19-1.96-2.35-1.52-.2-3.29-.23-5.31-.09-4.58.33-4.29,2.95-5,6.33-1.22,5.78-2.63,10.2-3.79,16.12-.34,1.75-.89,3.85-1.66,6.32-.08.28-.41.39-.65.22" vector-effect="non-scaling-stroke"/>
      <path class="st1" d="M851.4,563.24c-.11-.95-.85-1.69-1.8-1.79-2.29-.24-4.56-.34-6.81-.3-1.58.03-2.7.57-3.36,1.62-2.41,3.81-5.85,9.08-10.33,15.83-.23.34-.74.24-.84-.15-.73-2.98-.9-5.96-.51-8.95.19-1.42-.1-3.51-.85-6.27-.09-.33-.28-.62-.53-.86-.74-.69-1.71-1.09-2.9-1.2-2.87-.28-7.4-1.18-8.9,1.5-.17.3-.23.64-.17.98.2,1.14.26,2.42.19,3.84-.03.59-.18,1-.45,1.23-.25.22-.63.15-.79-.14-2.52-4.56-6.35-7.78-11.89-8.14-3.12-.21-5.67.17-7.66,1.14-.75.37-1.62.44-2.42.2-3.68-1.08-10.23-1.33-10.83,3.79-.35,2.93-.93,5.03-1.75,6.29-.22.34-.37.73-.43,1.14-.44,2.98-.82,4.9-1.13,5.76-1.08,2.95-1.77,5.71-2.07,8.26-.06.52-.18,1.02-.35,1.51-.83,2.37-1.93,5.63-2.28,8.72-.41,3.64-1.03,6.88-1.86,9.73-.55,1.9-.07,3.65,2.06,3.96,2.85.42,5.12.52,6.79.29,1.37-.18,2.48-1.18,2.8-2.52l2.67-11.08c.11-.45.62-.67,1.02-.44,7.05,3.91,14.61.56,20.71-3.89,4.45-3.24,6.35-7.64,7.46-12.75.11-.5.69-.72,1.1-.41.39.29.59.82.6,1.59.05,2.85.28,6.63.71,11.36.18,2.01.08,3.43-.3,4.25-1.12,2.41-3.33,5.7-6.63,9.85-.66.84-.99,1.27-1,1.28-.08,1.31.88,2.45,2.19,2.59,1.51.16,3.83.15,6.94-.03,2.03-.11,3.55-.92,4.56-2.41,7.18-10.71,11.86-17.53,14.04-20.46,1.55-2.11,2.72-3.83,3.5-5.18,3.39-5.87,8.68-12.57,10.79-16.52.59-1.11.82-2.18.71-3.22" vector-effect="non-scaling-stroke"/>
      <path class="st9" d="M569.57,637.38l25.31-94.07c.14-.54-.32-1.04-.87-.95-3.57.6-5.83,1.66-9.51,2.16-2.12.28-5.55,1.43-10.3,3.46-2.37,1.01-6.29,2.67-11.76,5-4.57,1.95-8.68,3.21-12.59,5.11-4.39,2.14-8.61,3.64-13.31,5.43-.96.36-1.59,1.3-1.55,2.33.1,3.01.62,5.82,1.56,8.41,1.96,5.39,3.77,12.06,5.59,16.69,2.1,5.33,4.43,11.33,6.98,18.02,1.01,2.64,2.1,5.02,3.25,7.14,2.71,4.97,4.72,9.4,7.87,13.34,2.15,2.69,5.27,6.88,8.23,8.42.44.23.97-.01,1.1-.49" vector-effect="non-scaling-stroke"/>
      <path class="st13" d="M699.32,576.45h17.66c.37,0,.64.34.56.7l-4.44,18.4c-.13.56.29,1.09.87,1.09h8c.64,0,1.16-.49,1.21-1.12.07-.93.16-1.69.28-2.27,1.82-8.85,3.32-15.3,4.49-19.35,2.34-8.03,3.35-14.3,5.77-24.33.16-.69-.36-1.35-1.07-1.35h-7.1c-.62,0-1.15.42-1.3,1.02l-4.26,17.68c-.06.28-.31.47-.59.47h-17.93c-.3,0-.52-.27-.45-.56l4.4-18.25c.05-.21-.11-.42-.32-.42h-8.98c-.11,0-.2.07-.22.18l-11.56,47.96c-.03.14.07.27.21.27h9.49s.07-.03.08-.07l4.55-19.53c.07-.3.34-.52.65-.52" vector-effect="non-scaling-stroke"/>
      <path class="st13" d="M772.87,548.64c-.41,0-.76.28-.85.67l-11.11,46.1c-.13.54.28,1.07.84,1.07h7.01c.41,0,.76-.28.85-.67l11.11-46.1c.13-.54-.28-1.07-.84-1.07h-7.01" vector-effect="non-scaling-stroke"/>
      <path class="st13" d="M757.67,588.22l-6.06-3.5c-.17-.1-.39-.06-.51.1-2.27,2.73-4.94,4.19-8.03,4.38-1.78.11-3.49-.75-4.48-2.24l-1.48-2.24c-.64-.96.05-2.25,1.21-2.25h20.58c.64,0,1.22-.42,1.42-1.03,1.81-5.64,1.52-11.86-3.12-16.22-3.02-2.83-6.62-3.99-10.81-3.46-8.46,1.06-15.73,8.27-17.8,16.72-1.43,5.84-1.45,10.82,3.01,15.15,8.14,7.88,19.9,2.44,26.11-5.19.05-.07.04-.17-.04-.22" vector-effect="non-scaling-stroke"/>
      <path class="st1" d="M748.7,584.23l-8.96.66c-.06.01-.1.06-.1.12v.03c.1,1.26,2.17,2.13,4.63,1.95l.26-.02c2.46-.18,4.38-1.35,4.29-2.6v-.03c0-.06-.06-.11-.12-.11" vector-effect="non-scaling-stroke"/>
      <path class="st13" d="M790.31,562.7h-6.7c-.45,0-.83.31-.94.74l-10.99,45.61c-.14.57.29,1.11.88,1.11h6.95c.59,0,1.11-.41,1.24-.98l3.35-13.91c.1-.42.6-.6.95-.34,2.99,2.25,6.45,2.99,10.37,2.2,10.58-2.11,19.25-11.86,18.04-22.96-.54-4.91-2.7-8.42-6.47-10.54-4.71-2.64-9.72-2.41-15.03.69-.38.23-.86-.05-.86-.5v-.33c0-.44-.35-.79-.79-.79" vector-effect="non-scaling-stroke"/>
      <path class="st13" d="M826.99,583.66l-1.55-19.59c-.07-.88-.81-1.56-1.69-1.56h-6.75c-.68,0-1.22.58-1.17,1.26l2.61,32.88c.01.23-.05.45-.18.64l-8.27,11.65c-.33.47,0,1.12.58,1.12h7.51c1.11,0,2.15-.56,2.77-1.48l29.54-44.06c.49-.73-.03-1.7-.9-1.7h-7.84c-.19,0-.36.09-.47.25l-13.86,20.67c-.09.14-.32.09-.33-.08" vector-effect="non-scaling-stroke"/>
      <path class="st13" d="M739.42,576.14h11.94c.55,0,.94-.54.77-1.06-1.04-3.25-2.95-4.76-5.72-4.53-3.19.26-5.42,2.18-7.49,4.46-.4.43-.09,1.13.5,1.13" vector-effect="non-scaling-stroke"/>
      <path class="st13" d="M789.82,587.38c3.2,2.55,8.52,1.18,11.88-3.05,3.36-4.23,3.5-9.72.3-12.26-3.2-2.55-8.52-1.18-11.88,3.05-3.36,4.23-3.5,9.72-.3,12.26" vector-effect="non-scaling-stroke"/>
      <path class="st1" d="M742.98,574.08l6.54-.04c.09,0,.15-.07.15-.15v-.11c0-.82-1.46-1.47-3.26-1.46h-.32c-1.8.01-3.26.68-3.26,1.5v.11c0,.08.07.15.15.15" vector-effect="non-scaling-stroke"/>
      <path class="st1" d="M790.82,586.35c2.63,2.07,7.09.8,9.97-2.85,2.88-3.65,3.09-8.29.46-10.36-2.63-2.07-7.09-.8-9.97,2.85-2.88,3.65-3.09,8.29-.46,10.36" vector-effect="non-scaling-stroke"/>
      <path class="st2" d="M41.69,694.87s.1.09.15.13" vector-effect="non-scaling-stroke"/>
      <path class="st11" d="M75.18,694.89s.03.07.05.11" vector-effect="non-scaling-stroke"/>
      <path class="st11" d="M966.74,694.88s.02.08.03.12" vector-effect="non-scaling-stroke"/>
    </g>
  </g>
  <path class="st27" d="M463.85,0c3.11.48,6.22.88,9.35,1.2,20.68,2.14,39.85,8.07,57.5,17.79,2.13,1.17,5.66,3.35,10.6,6.54,3.74,2.42,7.88,4.56,12.43,6.42.28.11.57.18.87.21l15.17,1.35c.07.01.15.02.22.04,2.01.47,4.92,1.03,7.01,1.93,5.79,2.5,9.84,6.64,12.15,12.43.82,2.07,1.26,4.67,1.32,7.82.09,4.41.07,7.07-.06,8-1.69,12.13-7.75,20.85-18.18,26.16-.24,2.87-.27,5.48-.08,7.85.4,5.15.6,7.77.6,7.84-.05,11.21-1.88,22.02-5.49,32.41-1.14,3.28-1.7,6.07-2.64,9.2-.04.12-.16.2-.29.19-.13-.02-.22-.13-.22-.26v-10c0-.44-.23-.84-.6-1.08-8.75-5.42-17.65-6.5-27.8-5.91-.31.02-.46-.38-.21-.57,2.78-2.13,6.06-3.07,9.83-2.81,4.96.35,10.5,1.5,16.61,3.43,1.11.35,2.28-.35,2.49-1.5.47-2.49.65-5.47.55-8.93-.27-9.99-.81-18.64-1.62-25.97-.06-.56-.49-1.01-1.05-1.09-1.17-.17-2.57-.25-4.2-.25-8.8,0-22.77,1.41-33.58.98-13.36-.53-20.78-.86-22.27-.97-16.08-1.22-34.22-4.49-54.41-9.82-3.41-.91-8.3-3.22-12.41-4.45-.43-.13-.89,0-1.19.33l-1.58,1.7c-.2.22-.3.51-.29.81.73,12.76-2.31,24.44-9.12,35.03-5.81,9.03-9.64,15.24-13.22,24.31-2.99,7.59-2.05,16.9-9.19,22.52-.5.39-1.22.37-1.69-.06-1.83-1.64-3.49-3.92-5-6.84-3.9-7.55-10.65-16.78-18.79-20.03-5.51-2.2-11.97-2.51-17.15.58-1.25.74-2.85,2-4.81,3.79-.03.03-.06.04-.09.05l-.37.05c-.25.04-.47-.17-.44-.42.51-5.04-.49-8.1-1.87-13.34-.11-.4-.53-2.71-1.28-6.93-.73-4.12-1.89-8.14-3.48-12.06-1.74-11.58-1.26-22.45.36-34.01,1.77-12.68,7.15-23.34,16.13-31.99,3.08-2.96,7.55-5.91,13.42-8.86.34-.17.63-.44.81-.77,1.37-2.43,2.79-5.1,4.84-7.16,3.05-3.06,4.95-4.88,5.7-5.47,11.89-9.38,25.93-14.62,40.79-17.54,3.89-.76,8.84-.95,13.25-1.87h22.67Z"/>
  <path class="st25" d="M976.97,139.25v15.95c-1.84,24.43-9.92,46.32-24.23,65.68-1.79,2.41-3.65,4.64-5.6,6.71-2.78,2.95-4.73,5.76-7.89,8.55-4.44,3.91-7.51,6.54-9.22,7.89-15.77,12.46-33.38,20.76-52.84,24.89-9.21,1.96-18.61,2.28-29.31,2.16-6.39-.07-11.48-.34-15.29-.82-14.33-1.81-28.03-6.24-41.09-13.31-22.82-12.35-40.28-30.2-52.39-53.56-7.78-15.02-11.39-30.59-12.9-47.16-2.64-28.89,5.13-59,22.41-82.59,1.69-2.3,2.92-3.99,3.7-5.07,1.45-1.99,2.62-3.08,4.22-4.63.71-.68,1.36-1.41,1.96-2.18,2.09-2.69,3.59-4.37,4.49-5.03,3.47-2.55,5.89-5.7,9.41-8.1.75-.51,2.13-1.51,4.15-2.99,24.45-18.01,52.77-25.82,84.95-23.43,26.94,1.99,50.25,11.01,69.93,27.04,3.38,2.75,6.05,5.14,8,7.15,3.64,3.75,6.77,6.5,9.85,10.37,16.7,20.99,25.93,45.15,27.69,72.48ZM788.42,146.82c0,2.6-.01,3.97-.03,4.1-.04.21-.23.36-.44.36h-15.82c-.25,0-.46.22-.46.47v13.79c0,.39.32.7.71.7h18.08c.31,0,.58.19.69.48,7.27,19.85,20.47,32.94,39.6,39.27,24.21,8,56.11,3.42,73.28-17.71.19-.24.17-.59-.06-.8l-17.43-16.12c-.26-.24-.67-.22-.91.05-8.77,9.84-19.34,14.54-31.7,14.1-13.7-.48-25.36-6.88-31.98-18.86-.1-.19.04-.42.26-.42h42.6c.26,0,.47-.21.47-.48v-13.94c0-.3-.24-.54-.54-.54h-46.66c-.35,0-.65-.25-.71-.58-.25-1.25-.37-2.54-.37-3.88s.12-2.64.37-3.88c.06-.34.36-.58.71-.58l46.66-.03c.3,0,.54-.24.54-.54v-13.94c-.01-.26-.22-.48-.48-.48l-42.6.02c-.22,0-.36-.23-.26-.42,6.61-11.98,18.27-18.39,31.97-18.87,12.36-.45,22.93,4.25,31.71,14.08.24.27.65.29.91.05l17.42-16.13c.22-.21.25-.56.06-.8-17.18-21.12-49.08-25.68-73.29-17.67-19.13,6.34-32.32,19.44-39.58,39.29-.11.29-.38.48-.69.48h-18.08c-.39.01-.71.32-.71.71v13.79c.01.25.21.46.47.46h15.82c.21,0,.4.15.44.36.02.13.03,1.5.03,4.11Z"/>
  <path class="st22" d="M572.23,89.89c1.97,7.33,2.64,14.45,2.02,21.36-.1,1.11-.66,5.55-1.67,13.34-.33,2.52-2.32,9.99-5.99,22.41-.25.83-.36,1.7-.34,2.57.11,4.93-1.06,8.49-1.21,13.56-.06,1.89-.4,4.55-1.03,8-.15.8-.22,1.61-.21,2.43,0,1.21-.03,2.02-.09,2.44-1.23,8.73-1.95,14.11-2.16,16.15-.32,3.16-1.46,6.35-1.26,8.94.04.45-.01.9-.16,1.33-.19.55-.62,2.82-1.29,6.79-1.66,9.82-4.23,20.57-7.71,32.25-3.39,11.35-8.27,21.95-14.66,31.8-.29.46-1.45,1.97-3.47,4.52-8.68,10.96-21.01,18.1-34.58,20.54-3.39.61-5.13.92-5.21.94-1.36.28-2.75.42-4.14.43l-12.87.07c-.31,0-.6.19-.72.48-.42.97-.6,2.04-.53,3.22-2.19,4.45-2.26,8.14-2.92,13.34-.27,2.15-.49,4.81-.64,8-.44,9.42-4.02,21.06-11.97,26.88-.85.62-1.66,1.22-2.44,1.79-1.75,1.29-3.66,2.33-5.69,3.11-6.11,2.35-11.5,3.95-16.19,4.8-4.84.89-11.71,1.03-20.6.44-.32-.02-.63-.08-.94-.18-1.09-.37-1.97-.6-2.66-.7-25.91-3.89-49.36-19.04-64.59-39.79-6.12-8.35-9.54-18.14-10.26-29.39,5.24-1.39,9.92-3.24,14.03-5.55,2.96-1.67,4.54-4.04,6.86-6.08.24-.21.45-.45.64-.72,3.92-5.64,6.79-11.87,8.61-18.7,1.99-7.48,3.31-13.89,3.95-19.23.48-3.91,1.47-6.55,1.31-9.73-.09-1.75.21-4.04.91-6.87.02-.07.03-.15.03-.24l.4-13.27c0-.32-.19-.62-.5-.73-13.31-4.81-22.84-16.36-27.08-29.59-.49-1.55-.9-2.74-1.21-3.58-.11-.31-.18-.64-.19-.97-.03-.81-.13-1.62-.32-2.41-1.13-4.77-1.35-9.05-.64-12.83.42-2.27.7-5.21,1.29-7.31,1.65-5.79,4.14-10.85,7.49-15.19.19-.25.29-.55.29-.85.02-1.63-1.25-2.5-1.25-3.85,0-1.43-1.32-2.77-1.18-4.29.12-1.31-.81-2.81-1.07-4.29-.99-5.89-1.84-11.83-2.54-17.81,1.59,3.92,2.75,7.94,3.48,12.06.75,4.22,1.17,6.53,1.28,6.93,1.38,5.24,2.38,8.3,1.87,13.34-.03.25.19.46.44.42l.37-.05s.06-.02.09-.05c1.96-1.79,3.56-3.05,4.81-3.79,5.18-3.09,11.64-2.78,17.15-.58,8.14,3.25,14.89,12.48,18.79,20.03,1.51,2.92,3.17,5.2,5,6.84.47.43,1.19.45,1.69.06,7.14-5.62,6.2-14.93,9.19-22.52,3.58-9.07,7.41-15.28,13.22-24.31,6.81-10.59,9.85-22.27,9.12-35.03-.01-.3.09-.59.29-.81l1.58-1.7c.3-.33.76-.46,1.19-.33,4.11,1.23,9,3.54,12.41,4.45,20.19,5.33,38.33,8.6,54.41,9.82,1.49.11,8.91.44,22.27.97,10.81.43,24.78-.98,33.58-.98,1.63,0,3.03.08,4.2.25.56.08.99.53,1.05,1.09.81,7.33,1.35,15.98,1.62,25.97.1,3.46-.08,6.44-.55,8.93-.21,1.15-1.38,1.85-2.49,1.5-6.11-1.93-11.65-3.08-16.61-3.43-3.77-.26-7.05.68-9.83,2.81-.25.19-.1.59.21.57,10.15-.59,19.05.49,27.8,5.91.37.24.6.64.6,1.08v10c0,.13.09.24.22.26.13,0,.25-.07.29-.19.94-3.13,1.5-5.92,2.64-9.2,3.61-10.39,5.44-21.2,5.49-32.41,0-.07-.2-2.69-.6-7.84-.19-2.37-.16-4.98.08-7.85ZM417.88,270.93c.24-1.16.84-1.98,1.81-2.45.8.02,1.42.25,1.85.69,13.71,14.02,30.27,22.43,49.7,25.24,9.61,1.39,18.7,1.28,27.29-.33,15.58-2.93,28.46-13.19,36.59-26.96,6.11-10.34,10.65-21.2,13.64-32.57,3.07-11.7,5.41-22.63,7-32.79,2.35-15.02,4.49-32.6,6.4-52.75.34-3.59.56-7.38.66-11.36.01-.52-.29-.99-.77-1.2-8.28-3.57-17.85-6.53-26.79-4.11-1.32.36-2.63-.61-2.68-1.98v-.17c-.05-1.6.91-3.07,2.41-3.64,4.01-1.53,7.43-2.14,10.24-1.81,6.87.81,12.6,2.35,17.19,4.63.25.13.55-.06.55-.34.32-11.87-.04-23.57-1.07-35.1-.03-.35-.35-.6-.69-.54-18.48,3.09-37.67,2.61-57.67.8-25.52-2.31-49.26-6.57-68.95-14.63-.35-.15-.71.2-.59.56.66,2,.92,4.31.78,6.92-.44,7.9-2.71,15.9-6.82,23.99-3.41,6.74-11.34,16.98-14.46,24.68-1.63,4.03-2.92,8.4-3.85,13.1-.95,4.76-2.34,11.69-6.47,14.6-4.46,3.13-7.36.05-9.03-3.82-3.44-7.99-8.12-14.38-14.04-19.19-4.18-3.39-8.39-4.34-13.43-4.83-5.81-.57-10.49,4.08-13.39,8.5-7.78,11.83-8.15,26.63-2.6,39.46,4.3,9.95,11.89,19.07,22.29,22.7,2.59.9,5.23.96,7.92.17,1.16-.34,2.35.4,2.57,1.58l.02.14c.24,1.31-.47,2.6-1.71,3.09-1.25.49-2.54.65-3.87.47-.35-.04-.66.21-.68.56-.4,6.59-.86,12.76-1.38,18.5-.99,11.01-3.08,22.07-6.25,33.16-4.24,14.89-12.45,26.98-28.45,30.59-.52.12-.86.62-.79,1.15,1.15,8.28,4.28,15.88,9.41,22.8,15.94,21.51,41.26,37.97,68.4,39.15,19.97.86,44.78-3.3,47.89-27.56.87-6.78,1.61-12.61,2.21-17.5.35-2.85,1.08-5.73,2.18-8.63.09-.25-.07-.53-.34-.57-17.97-2.67-44.94-13.35-52.23-32.4ZM420.91,270.88c-.5-.31-1.12.14-.98.71.39,1.54,1.18,3.07,2.38,4.6,3.95,5.03,8.32,9.5,14.18,12.95,4.8,2.83,7.51,4.39,8.14,4.67,4.99,2.25,12,4.62,21.01,7.1,2.71.75,4.13,1.34,6.59,2.43.62.27,1.33-.14,1.4-.82l.46-4.45c.07-.65-.39-1.25-1.04-1.36-19.67-3.35-36.61-10.75-51.1-24.95-.42-.41-.77-.71-1.04-.88Z"/>
  <path class="st24" d="M419.69,268.48c-.35.03-.58-.09-.69-.36-.13-.32.07-.67.41-.71,1.48-.14,2.83.41,4.04,1.64,8.07,8.26,17.26,14.41,27.56,18.46,4.3,1.69,8.88,2.76,12.44,3.77,6.19,1.76,13.45,2.65,21.78,2.67,5.39,0,9.84-.45,13.34-1.4,7.5-2.03,14.42-4.1,20.88-9.32,2.73-2.2,4.77-3.98,6.13-5.33,1.3-1.29,3.92-4.77,7.87-10.44.73-1.03,1.65-2.73,2.76-5.1,2.04-4.33,4.35-8.3,6.15-13.12,3.83-10.18,6.59-19.68,8.3-28.51,1.19-6.14,2.86-15.35,5.02-27.63.85-4.79,1.67-11.41,2.48-19.85.31-3.27.98-9.91,2.01-19.93.14-1.28.68-2.84.67-4.07-.01-2.45-.01-6.05.02-10.82.01-.61-.36-1.16-.93-1.4-6.5-2.71-13.18-3.94-20.05-3.69-1.11.04-2.06.14-2.85.31-3.9.85-6.96-1.04-5.63-5.46.1-.31.27-.59.5-.81,7.44-7.16,19.27-4.03,27.8-.81.79.3,1.65-.24,1.72-1.09.11-1.25.16-3.97.17-8.16.02-7.06-1.08-14.29-1.02-20.7.01-.73-.61-1.32-1.34-1.28-4.09.22-7.16,1.3-11.51,1.51-26.55,1.28-53.11-.71-79.69-5.96-10.63-2.1-21.04-5.09-31.24-8.96-.39-.15-.8.16-.77.57,1,14.39-4.58,26.5-12.6,38.78-2.82,4.32-5.19,8.99-7.49,12.49-.47.72-.85,1.5-1.14,2.32-1.42,4.05-2.55,8.09-3.39,12.12-1.08,5.21-2.41,9.3-3.99,12.26-2.56,4.8-7.73,7.82-12.39,3.09-.21-.21-.39-.45-.53-.72-1.17-2.25-2.13-4.11-2.86-5.56-2.02-4.02-3.49-5.7-6.21-9.58-2.32-3.31-6.28-6.57-8.79-8.09-3.15-1.91-9.47-3.05-12.98-2.46-1.69.28-3.38,1.19-5.07,2.74-4.24,3.89-7.06,8.75-8.45,14.57-2.82,11.84-1.35,23.08,4.41,33.73,1.36,2.51,3.96,5.8,7.81,9.87,1.83,1.95,4.54,3.33,7.07,5.05,2.77,1.88,6.51,2.53,11.21,1.96,1.96-.24,3.73,1.18,3.93,3.14v.1c.22,2.12-1.21,4.05-3.3,4.47-2.07.41-3.06,1.44-2.97,3.08.18,3.5.03,6.69-.46,9.56-.81,4.76-.48,8.21-1.51,12.95-.56,2.58-.68,6.14-1.28,9.47-.94,5.25-1.6,8.72-1.98,10.42-.07.33-.17.66-.3.97-.92,2.31-1.43,4.09-1.54,5.36-.01.17-.06.33-.14.48l-1.06,1.82c-.12.21-.21.44-.27.67-1.67,6.39-4.91,12.23-9.72,17.52-4.02,4.41-8.72,7.54-14.09,9.41-2.17.76-4.08.79-3.4,3.98.91,4.22,2.3,9.51,4.64,13.71,6.32,11.32,15,19.36,25.55,27.31,4.48,3.38,11.26,7.08,20.35,11.1,6.88,3.05,15.45,4.73,22.03,5.3.43.03,4.05.08,10.85.15,3.13.03,6.08-.19,8.85-.67,7.52-1.29,13.7-2.9,19.61-6.8,8.69-5.74,9.81-14.52,11.16-23.96.23-1.59.47-4.16.73-7.71.27-3.75.94-7.55,1.99-11.41.12-.43-.15-.86-.59-.95-11.65-2.35-22.5-6.52-32.53-12.51-2.97-1.77-5.38-3.53-7.25-5.28-3.5-3.28-5.6-5.42-6.3-6.43-.59-.87-2.03-3.22-4.32-7.06-.15-.26-.26-.53-.33-.82-.34-1.49-.04-1.99.9-1.51,7.29,19.05,34.26,29.73,52.23,32.4.27.04.43.32.34.57-1.1,2.9-1.83,5.78-2.18,8.63-.6,4.89-1.34,10.72-2.21,17.5-3.11,24.26-27.92,28.42-47.89,27.56-27.14-1.18-52.46-17.64-68.4-39.15-5.13-6.92-8.26-14.52-9.41-22.8-.07-.53.27-1.03.79-1.15,16-3.61,24.21-15.7,28.45-30.59,3.17-11.09,5.26-22.15,6.25-33.16.52-5.74.98-11.91,1.38-18.5.02-.35.33-.6.68-.56,1.33.18,2.62.02,3.87-.47,1.24-.49,1.95-1.78,1.71-3.09l-.02-.14c-.22-1.18-1.41-1.92-2.57-1.58-2.69.79-5.33.73-7.92-.17-10.4-3.63-17.99-12.75-22.29-22.7-5.55-12.83-5.18-27.63,2.6-39.46,2.9-4.42,7.58-9.07,13.39-8.5,5.04.49,9.25,1.44,13.43,4.83,5.92,4.81,10.6,11.2,14.04,19.19,1.67,3.87,4.57,6.95,9.03,3.82,4.13-2.91,5.52-9.84,6.47-14.6.93-4.7,2.22-9.07,3.85-13.1,3.12-7.7,11.05-17.94,14.46-24.68,4.11-8.09,6.38-16.09,6.82-23.99.14-2.61-.12-4.92-.78-6.92-.12-.36.24-.71.59-.56,19.69,8.06,43.43,12.32,68.95,14.63,20,1.81,39.19,2.29,57.67-.8.34-.06.66.19.69.54,1.03,11.53,1.39,23.23,1.07,35.1,0,.28-.3.47-.55.34-4.59-2.28-10.32-3.82-17.19-4.63-2.81-.33-6.23.28-10.24,1.81-1.5.57-2.46,2.04-2.41,3.64v.17c.05,1.37,1.36,2.34,2.68,1.98,8.94-2.42,18.51.54,26.79,4.11.48.21.78.68.77,1.2-.1,3.98-.32,7.77-.66,11.36-1.91,20.15-4.05,37.73-6.4,52.75-1.59,10.16-3.93,21.09-7,32.79-2.99,11.37-7.53,22.23-13.64,32.57-8.13,13.77-21.01,24.03-36.59,26.96-8.59,1.61-17.68,1.72-27.29.33-19.43-2.81-35.99-11.22-49.7-25.24-.43-.44-1.05-.67-1.85-.69Z"/>
  <path class="st19" d="M419.69,268.48c-.97.47-1.57,1.29-1.81,2.45-.94-.48-1.24.02-.9,1.51.07.29.18.56.33.82,2.29,3.84,3.73,6.19,4.32,7.06.7,1.01,2.8,3.15,6.3,6.43,1.87,1.75,4.28,3.51,7.25,5.28,10.03,5.99,20.88,10.16,32.53,12.51.44.09.71.52.59.95-1.05,3.86-1.72,7.66-1.99,11.41-.26,3.55-.5,6.12-.73,7.71-1.35,9.44-2.47,18.22-11.16,23.96-5.91,3.9-12.09,5.51-19.61,6.8-2.77.48-5.72.7-8.85.67-6.8-.07-10.42-.12-10.85-.15-6.58-.57-15.15-2.25-22.03-5.3-9.09-4.02-15.87-7.72-20.35-11.1-10.55-7.95-19.23-15.99-25.55-27.31-2.34-4.2-3.73-9.49-4.64-13.71-.68-3.19,1.23-3.22,3.4-3.98,5.37-1.87,10.07-5,14.09-9.41,4.81-5.29,8.05-11.13,9.72-17.52.06-.23.15-.46.27-.67l1.06-1.82c.08-.15.13-.31.14-.48.11-1.27.62-3.05,1.54-5.36.13-.31.23-.64.3-.97.38-1.7,1.04-5.17,1.98-10.42.6-3.33.72-6.89,1.28-9.47,1.03-4.74.7-8.19,1.51-12.95.49-2.87.64-6.06.46-9.56-.09-1.64.9-2.67,2.97-3.08,2.09-.42,3.52-2.35,3.31-4.47v-.1c-.21-1.96-1.98-3.38-3.94-3.14-4.7.57-8.44-.08-11.21-1.96-2.53-1.72-5.24-3.1-7.07-5.05-3.85-4.07-6.45-7.36-7.81-9.87-5.76-10.65-7.23-21.89-4.41-33.73,1.39-5.82,4.21-10.68,8.45-14.57,1.69-1.55,3.38-2.46,5.07-2.74,3.51-.59,9.83.55,12.98,2.46,2.51,1.52,6.47,4.78,8.79,8.09,2.72,3.88,4.19,5.56,6.21,9.58.73,1.45,1.69,3.31,2.86,5.56.14.27.32.51.53.72,4.66,4.73,9.83,1.71,12.39-3.09,1.58-2.96,2.91-7.05,3.99-12.26.84-4.03,1.97-8.07,3.39-12.12.29-.82.67-1.6,1.14-2.32,2.3-3.5,4.67-8.17,7.49-12.49,8.02-12.28,13.6-24.39,12.6-38.78-.03-.41.38-.72.77-.57,10.2,3.87,20.61,6.86,31.24,8.96,26.58,5.25,53.14,7.24,79.69,5.96,4.35-.21,7.42-1.29,11.51-1.51.73-.04,1.35.55,1.34,1.28-.06,6.41,1.04,13.64,1.02,20.7-.01,4.19-.06,6.91-.17,8.16-.07.85-.93,1.39-1.72,1.09-8.53-3.22-20.36-6.35-27.8.81-.23.22-.4.5-.5.81-1.33,4.42,1.73,6.31,5.63,5.46.79-.17,1.74-.27,2.85-.31,6.87-.25,13.55.98,20.05,3.69.57.24.94.79.93,1.4-.03,4.77-.03,8.37-.02,10.82.01,1.23-.53,2.79-.67,4.07-1.03,10.02-1.7,16.66-2.01,19.93-.81,8.44-1.63,15.06-2.48,19.85-2.16,12.28-3.83,21.49-5.02,27.63-1.71,8.83-4.47,18.33-8.3,28.51-1.8,4.82-4.11,8.79-6.15,13.12-1.11,2.37-2.03,4.07-2.76,5.1-3.95,5.67-6.57,9.15-7.87,10.44-1.36,1.35-3.4,3.13-6.13,5.33-6.46,5.22-13.38,7.29-20.88,9.32-3.5.95-7.95,1.41-13.34,1.4-8.33-.02-15.59-.91-21.78-2.67-3.56-1.01-8.14-2.08-12.44-3.77-10.3-4.05-19.49-10.2-27.56-18.46-1.21-1.23-2.56-1.78-4.04-1.64-.34.04-.54.39-.41.71.11.27.34.39.69.36ZM492.46,128.78v-.13c.21-1.67-.62-3.3-2.08-4.12-6-3.35-11.9-4.94-17.7-4.75-6.09.2-11.46,1.37-16.1,3.5-2.07.95-3.46,2.94-3.63,5.2v.06c-.14,1.8,1.66,3.11,3.33,2.44,10.64-4.26,21.69-4.36,33.15-.31,1.38.49,2.86-.43,3.03-1.89ZM379.7,180.99c1.22,1.42,2.41,1.57,3.56.44-.24.31-.27.55-.1.74.31.33.85.27,1.11-.12.83-1.27,1.32-2.82,1.49-4.65.03-.25,0-.49-.04-.74-1.41-6.66-5-12.3-10.75-16.91-2.31-1.86-5.03-.19-5.82,2.36-.11.36-.1.75.02,1.11,1.21,3.45,5.44,6.74,6.89,8.93,1.03,1.57,1.7,3.83,1.99,6.78.04.41.14.81.31,1.18.77,1.7,1.22,1.99,1.34.88ZM538.94,182.83c4.97,2.13,10-6.03,11.18-9.66.88-2.71,1.05-5.02.51-6.91-1.41-4.91-6.56-9.55-11.64-5.75-3.54,2.64-5.5,7.97-5.75,12.22-.31,4.97,1.59,8.33,5.7,10.1ZM469,181.76c4.07,1.18,8.76-2.68,10.47-8.6,1.71-5.93-.2-11.69-4.27-12.86-4.07-1.18-8.76,2.68-10.47,8.6-1.71,5.93.2,11.69,4.27,12.86ZM514.08,166.78c.01-.51-.07-.85-.25-1.01-.19-.17-.5-.05-.52.2-.35,3.32-.17,6.36.55,9.13,4.22,16.26,6.7,25.91,8.61,35.09.91,4.37-1.1,7.1-5.69,7.71-4.91.66-10.09.26-15.53-1.2-1.87-.5-3.15.07-3.86,1.7-1.49,3.44,1.96,5.7,4.9,6.51,4.54,1.24,9.14,1.55,13.8.94,12.4-1.63,16.52-9.4,13.13-21.14-.91-3.15-1.42-5.05-1.51-5.69-.05-.31-1.37-5.96-3.96-16.95-.45-1.95-1.07-4.27-1.84-6.98-.77-2.72-1.4-5.67-1.89-8.84-.09-.59-.56-1.03-1.15-1.08-.06,0-.29.21-.68.65-.09-.72-.58-1.1-1.47-1.14-1.69-.08-2.57.62-2.64,2.1ZM514.95,249.51c-.88-1.87-2.37-2.59-4.47-2.16-8.79,1.81-18.28,2.78-26.34,0-3.91-1.34-7.58-3.26-11.02-5.77-.59-.42-2.3-2.08-5.13-4.98-.27-.27-.62-.46-1-.53-2.3-.43-3.75.64-4.34,3.22-.09.36-.09.72,0,1.08.92,4.14,7.02,9.58,10.38,11.58,6.85,4.07,14.15,6.15,21.9,6.24,2.23.02,3.93-.79,6.59-.91,1.61-.07,3.32-.37,5.12-.9,3.94-1.14,7.47-1.8,8.43-5.68.1-.4.06-.82-.11-1.2Z"/>
  <path class="st20" d="M817,146.81c0,1.34.12,2.63.37,3.88.06.33.36.58.71.58h46.66c.3,0,.54.24.54.54v13.94c0,.27-.21.48-.47.48h-42.6c-.22,0-.36.23-.26.42,6.62,11.98,18.28,18.38,31.98,18.86,12.36.44,22.93-4.26,31.7-14.1.24-.27.65-.29.91-.05l17.43,16.12c.23.21.25.56.06.8-17.17,21.13-49.07,25.71-73.28,17.71-19.13-6.33-32.33-19.42-39.6-39.27-.11-.29-.38-.48-.69-.48h-18.08c-.39,0-.71-.31-.71-.7v-13.79c0-.25.21-.46.46-.46h15.82c.21,0,.4-.16.44-.37.02-.13.03-1.5.03-4.1s-.01-3.98-.03-4.11c-.04-.21-.23-.36-.44-.36h-15.82c-.26,0-.46-.21-.46-.46v-13.79c-.01-.39.31-.7.7-.7h18.08c.31-.01.58-.2.69-.49,7.26-19.85,20.45-32.95,39.58-39.29,24.21-8.01,56.11-3.45,73.29,17.67.19.24.16.59-.06.8l-17.42,16.13c-.26.24-.67.22-.91-.05-8.78-9.83-19.35-14.53-31.71-14.08-13.7.48-25.36,6.89-31.97,18.87-.1.19.04.42.26.42l42.6-.02c.26,0,.47.22.47.48v13.94c.01.3-.23.54-.53.54l-46.66.03c-.35,0-.65.24-.71.58-.25,1.24-.37,2.53-.37,3.88Z"/>
  <path class="st27" d="M492.46,128.78c-.17,1.46-1.65,2.38-3.03,1.89-11.46-4.05-22.51-3.95-33.15.31-1.67.67-3.47-.64-3.33-2.44v-.06c.17-2.26,1.56-4.25,3.63-5.2,4.64-2.13,10.01-3.3,16.1-3.5,5.8-.19,11.7,1.4,17.7,4.75,1.46.82,2.29,2.45,2.09,4.12v.13Z"/>
  <path class="st24" d="M383.26,181.43c1.4-2.18,1.53-4.73.4-7.64-1.91-4.9-5.03-9.23-9.35-12.99-.91-.79-2.28-.73-3.11.15l-.25.26c-.84.89-.8,2.29.09,3.13,4.85,4.59,9.09,9.31,8.66,16.65-.12,1.11-.57.82-1.34-.88-.17-.37-.27-.77-.31-1.18-.29-2.95-.96-5.21-1.99-6.78-1.45-2.19-5.68-5.48-6.89-8.93-.12-.36-.13-.75-.02-1.11.79-2.55,3.51-4.22,5.82-2.36,5.75,4.61,9.34,10.25,10.75,16.91.05.25.07.49.04.74-.17,1.83-.66,3.38-1.49,4.65-.26.39-.8.45-1.11.12-.17-.19-.14-.43.1-.74Z"/>
  <path class="st24" d="M538.94,182.83c-4.11-1.77-6.01-5.13-5.7-10.1.25-4.25,2.21-9.58,5.75-12.22,5.08-3.8,10.23.84,11.64,5.75.54,1.89.37,4.2-.51,6.91-1.18,3.63-6.21,11.79-11.18,9.66ZM539.11,181.55c3.71,1,7.99-2.9,9.55-8.7,1.56-5.79-.2-11.3-3.92-12.3-3.71-1-7.99,2.9-9.55,8.7-1.56,5.79.2,11.3,3.92,12.3Z"/>
  <path class="st22" d="M383.26,181.43c-1.15,1.13-2.34.98-3.56-.44.43-7.34-3.81-12.06-8.66-16.65-.89-.84-.93-2.24-.09-3.13l.25-.26c.83-.88,2.2-.94,3.11-.15,4.32,3.76,7.44,8.09,9.35,12.99,1.13,2.91,1,5.46-.4,7.64Z"/>
  <ellipse class="st27" cx="472.09" cy="171.03" rx="11.17" ry="7.67" transform="translate(176.85 577.18) rotate(-73.9)"/>
  <ellipse class="st27" cx="541.92" cy="171.05" rx="10.87" ry="6.97" transform="translate(236.44 650.24) rotate(-75)"/>
  <path class="st22" d="M518.19,165.82c3.07,12.84,6.19,25.67,9.35,38.5,2.53,10.3,1.53,18.04-10.45,20.03-5.19.87-10.74.41-16.65-1.38-1.43-.43-2.37-1.78-2.27-3.27v-.07c.09-1.33,1.42-2.2,2.68-1.75,7.79,2.78,26.26,5.01,22.88-9.35-2.63-11.18-5.58-23.34-8.86-36.49-.27-1.07-.53-2.82-.79-5.26.07-1.48.95-2.18,2.64-2.1.89.04,1.38.42,1.47,1.14Z"/>
  <path class="st24" d="M514.08,166.78c.26,2.44.52,4.19.79,5.26,3.28,13.15,6.23,25.31,8.86,36.49,3.38,14.36-15.09,12.13-22.88,9.35-1.26-.45-2.59.42-2.68,1.75v.07c-.1,1.49.84,2.84,2.27,3.27,5.91,1.79,11.46,2.25,16.65,1.38,11.98-1.99,12.98-9.73,10.45-20.03-3.16-12.83-6.28-25.66-9.35-38.5.39-.44.62-.66.68-.65.59.05,1.06.49,1.15,1.08.49,3.17,1.12,6.12,1.89,8.84.77,2.71,1.39,5.03,1.84,6.98,2.59,10.99,3.91,16.64,3.96,16.95.09.64.6,2.54,1.51,5.69,3.39,11.74-.73,19.51-13.13,21.14-4.66.61-9.26.3-13.8-.94-2.94-.81-6.39-3.07-4.9-6.51.71-1.63,1.99-2.2,3.86-1.7,5.44,1.46,10.62,1.86,15.53,1.2,4.59-.61,6.6-3.34,5.69-7.71-1.91-9.18-4.39-18.83-8.61-35.09-.72-2.77-.9-5.81-.55-9.13.02-.25.33-.37.52-.2.18.16.26.5.25,1.01Z"/>
  <path class="st24" d="M515.06,250.71c-.96,3.88-4.49,4.54-8.43,5.68-1.8.53-3.51.83-5.12.9-2.66.12-4.36.93-6.59.91-7.75-.09-15.05-2.17-21.9-6.24-3.36-2-9.46-7.44-10.38-11.58-.08-.36-.08-.72,0-1.08.59-2.58,2.04-3.65,4.34-3.22.38.07.73.26,1,.53,2.83,2.9,4.54,4.56,5.13,4.98,3.44,2.51,7.11,4.43,11.02,5.77,8.06,2.77,17.55,1.8,26.34,0,2.1-.43,3.59.29,4.47,2.16.17.38.21.8.11,1.2ZM513.84,250.11c0-1.26-1.21-2.16-2.41-1.81-15.5,4.59-33.02,2.63-43.61-10.34-.67-.82-1.85-.98-2.69-.36-1.99,1.45-.72,3.7.3,5.36,3.5,5.71,11.61,10.32,17.19,11.89,9.48,2.66,19.36,2.06,29.63-1.81.96-.35,1.59-1.27,1.59-2.29v-.64Z"/>
  <path class="st22" d="M513.84,250.11v.64c0,1.02-.63,1.94-1.59,2.29-10.27,3.87-20.15,4.47-29.63,1.81-5.58-1.57-13.69-6.18-17.19-11.89-1.02-1.66-2.29-3.91-.3-5.36.84-.62,2.02-.46,2.69.36,10.59,12.97,28.11,14.93,43.61,10.34,1.2-.35,2.41.55,2.41,1.81Z"/>
  <path class="st27" d="M420.91,270.88c.27.17.62.47,1.04.88,14.49,14.2,31.43,21.6,51.1,24.95.65.11,1.11.71,1.04,1.36l-.46,4.45c-.07.68-.78,1.09-1.4.82-2.46-1.09-3.88-1.68-6.59-2.43-9.01-2.48-16.02-4.85-21.01-7.1-.63-.28-3.34-1.84-8.14-4.67-5.86-3.45-10.23-7.92-14.18-12.95-1.2-1.53-1.99-3.06-2.38-4.6-.14-.57.48-1.02.98-.71Z"/>
  <path class="st25" d="M336.05,291.76c.72,11.25,4.14,21.04,10.26,29.39,15.23,20.75,38.68,35.9,64.59,39.79.69.1,1.57.33,2.66.7.31.1.62.16.94.18,8.89.59,15.76.45,20.6-.44,4.69-.85,10.08-2.45,16.19-4.8,2.03-.78,3.94-1.82,5.69-3.11.78-.57,1.59-1.17,2.44-1.79,7.95-5.82,11.53-17.46,11.97-26.88.15-3.19.37-5.85.64-8,.66-5.2.73-8.89,2.92-13.34.95-.69,2.21-.67,3.78.06,19.43,8.93,37.5,17.18,54.21,24.75,8.79,3.99,16.89,8.62,24.32,13.91,5.13,3.65,8.52,7.39,13.65,12.44,1.37,1.35,2.97,3.22,4.8,5.61,11.51,14.97,18.33,31.16,26.08,49.45,2.47,5.81,7.88,21.2,16.24,46.17.17.52.26,1.24.26,2.17,0,.52.06.85.18,1,.23.29.55.49.97.6-6.02,22.04-11.95,44.14-17.79,66.3-.27,1.02-.81,2.45-1.62,4.29-.22.49-.57.9-1.03,1.19-1.67,1.05-3.16,1.85-4.47,2.42-2.08.89-12.67,5.13-31.76,12.7-9.53,3.78-18.02,7.98-27.26,11.02-.33.11-.65-.18-.58-.51l22.79-118.59c.2-1.06-.45-2.1-1.5-2.38h-.02c-.98-.27-1.98.35-2.17,1.35-10.41,53.12-20.89,107.21-31.44,162.27-.34,1.77-1.23,3.95-1.23,6.26-.01.58-.3,2.15-.87,4.7-1.94,8.57-3.66,17.88-5.17,27.92-.05.35-.37.6-.73.57-.53-.05-.9-.38-1.1-.99-.13-.39-.44-.87-.93-1.45-6.97-8.29-11-13.02-12.08-14.19-5.81-6.32-12.32-12.23-19.53-17.72-10.18-7.76-21.5-12.86-33.96-15.3-4.73-.93-6.89-1.33-11.05-.78-4.02.53-8.09,1.27-12.21,2.23-2.96.69-6.39,1.75-10.3,3.18-6.02,2.21-9.38,3.47-10.08,3.78-22.77,10.14-35.57,15.84-38.39,17.11-1.82.81-4.58,1.19-8.27,1.14-7.33-.11-12.08-.33-14.27-.68-6.2-.98-13.11-.15-18.78-1.33-4.03-.84-8.37.01-11.81-.87-4.33-1.12-10.36-.24-14.46-1.59-.8-.26-1.64-.37-2.47-.32-3.51.18-6.34-.06-8.49-.71-.07-.02-.15-.03-.22-.04l-18.46-1.91c-.39-.04-.77-.11-1.14-.22l-1.66-.47c-.37-.12-.76-.17-1.15-.16-2.37.09-4.62-.15-6.76-.7-2.24-.59-4.53-.21-6.31-.73-1.73-.51-3.28-.79-4.65-.83-.98-.03-4.17-.47-9.58-1.33-4.59-.73-7.78-1.2-9.56-1.41-4.31-.51-7.8-1.2-10.49-2.08-.48-.15-.74-.67-.57-1.15,1.54-4.38,3.32-7.87,4.54-11.69,1.41-4.4,4.68-14.08,9.81-29.04.25-.72,1.03-1.1,1.76-.86l10.83,3.64c.68.23,1.42-.13,1.66-.8.05-.14.91-2.39,2.58-6.74,8.27-21.7,15.76-44.55,22.45-68.55,6.39-22.91,10.67-38.44,12.86-46.6.26-.98-.38-1.97-1.38-2.14l-.14-.03c-1.08-.18-2.12.49-2.4,1.55-7.47,27.77-13.46,49.16-17.99,64.17-4.65,15.43-9.87,30.69-15.64,45.79-1.05,2.75-2.1,5.27-3.13,7.54-.27.6-.95.9-1.58.7-36.38-11.65-72.8-24.03-109.27-37.15-1.59-.57-2.82-.5-4.02-1.66-.48-.47-1.29-.14-1.31.53-.03,1-.27,1.87-.73,2.61l-6.66-3.17c-.58-.27-.86-.94-.65-1.55,1.65-4.76,3.43-9.63,5.34-14.61,12.65-32.91,27.75-68.12,42.93-102.55,3.4-7.71,8.07-16.52,14.01-26.42,3.03-5.06,7.2-9.92,9.74-13.83.68-1.04,2.89-2.8,3.99-4.31,1.92-2.64,4.64-5.49,8.16-8.54,6.57-5.7,13.22-10.47,19.95-14.3,9.14-5.21,19.04-9.77,29.7-13.68,28.04-10.27,56.3-18.99,84.78-26.16Z"/>
  <path class="st22" d="M32.38,695,35.38,695,39.47,695,45.37,695,9.37,695l-1.38-.9v-1.26c.33-.77.79-1.38,1.38-1.83.14-.12.32-.18.5-.18,60.55.04,94.51.02,101.88-.07,2.68-.03,5.05.14,7.1.51.37.07.73-.16.83-.52.1-.36-.09-.74-.44-.87-11.86-4.6-18.06-14.21-22.18-26.18-.11-.31-.17-.64-.18-.96-.05-1.34-.36-2.39-.93-3.16-.19-.26-.26-.59-.19-.9.19-.9.01-2.11-.53-3.62-.39-1.09-.61-2.3-.65-3.65-.21-7.28-.2-14.18.03-20.71.02-.54.11-1.08.26-1.6.65-2.21.93-4.19.85-5.94-.06-1.33.15-2.38.63-3.15.65-1.05.36-2.93.68-4.33,3.03-13.42,4.93-21.48,5.71-24.17,6.05-20.96,12.79-42.24,20.22-63.83.68-1.98,1.18-4.56,1.82-6.8.46-.74.7-1.61.73-2.61.02-.67.83-1,1.31-.53,1.2,1.16,2.43,1.09,4.02,1.66,36.47,13.12,72.89,25.5,109.27,37.15.63.2,1.31-.1,1.58-.7,1.03-2.27,2.08-4.79,3.13-7.54,5.77-15.1,10.99-30.36,15.64-45.79,4.53-15.01,10.52-36.4,17.99-64.17.28-1.06,1.32-1.73,2.4-1.55l.14.03c1,.17,1.64,1.16,1.38,2.14-2.19,8.16-6.47,23.69-12.86,46.6-6.69,24-14.18,46.85-22.45,68.55-1.67,4.35-2.53,6.6-2.58,6.74-.24.67-.98,1.03-1.66.8l-10.83-3.64c-.73-.24-1.51.14-1.76.86-5.13,14.96-8.4,24.64-9.81,29.04-1.22,3.82-3,7.31-4.54,11.69-.17.48.09,1,.57,1.15,2.69.88,6.18,1.57,10.49,2.08,1.78.21,4.97.68,9.56,1.41,5.41.86,8.6,1.3,9.58,1.33,1.37.04,2.92.32,4.65.83,1.78.52,4.07.14,6.31.73,2.14.55,4.39.79,6.76.7.39-.01.78.04,1.15.16l1.66.47c.37.11.75.18,1.14.22l18.46,1.91c.07.01.15.02.22.04,2.15.65,4.98.89,8.49.71.83-.05,1.67.06,2.47.32,4.1,1.35,10.13.47,14.46,1.59,3.44.88,7.78.03,11.81.87,5.67,1.18,12.58.35,18.78,1.33,2.19.35,6.94.57,14.27.68,3.69.05,6.45-.33,8.27-1.14,2.82-1.27,15.62-6.97,38.39-17.11.7-.31,4.06-1.57,10.08-3.78,3.91-1.43,7.34-2.49,10.3-3.18,4.12-.96,8.19-1.7,12.21-2.23,4.16-.55,6.32-.15,11.05.78,12.46,2.44,23.78,7.54,33.96,15.3,7.21,5.49,13.72,11.4,19.53,17.72,1.08,1.17,5.11,5.9,12.08,14.19.49.58.8,1.06.93,1.45.2.61.57.94,1.1.99.36.03.68-.22.73-.57,1.51-10.04,3.23-19.35,5.17-27.92.57-2.55.86-4.12.87-4.7,0-2.31.89-4.49,1.23-6.26,10.55-55.06,21.03-109.15,31.44-162.27.19-1,1.19-1.62,2.17-1.36h.02c1.05.29,1.7,1.33,1.5,2.39l-22.79,118.59c-.07.33.25.62.58.51,9.24-3.04,17.73-7.24,27.26-11.02,19.09-7.57,29.68-11.81,31.76-12.7,1.31-.57,2.8-1.37,4.47-2.42.46-.29.81-.7,1.03-1.19.81-1.84,1.35-3.27,1.62-4.29,5.84-22.16,11.77-44.26,17.79-66.3.77-1.62,1.5-3.91,2.2-6.87,2.33-9.89,8.37-16.56,18.12-20.02.28-.11.59-.16.89-.17,3.02-.11,5.78-.57,9.42-.54,90.62.66,176.33.41,264.9.5,8.86.01,18.63.08,29.31.22,3.21.05,5.75.59,8.63,1.07.55.09,1.72.79,3.52,2.1,1.15.84,2.07,1.74,2.75,2.69,6.65,9.4,3.63,18.27.6,29.18-34.86,125.55-52.61,189.47-53.25,191.76-2.93,10.58-4.73,16.92-5.41,19.02-1.53,4.72-3.72,8.8-6.58,12.23-.23.28.02.69.37.6l1.82-.45c.26-.07.52-.1.79-.1h73.5c1.53,0,2.57,1.54,2.01,2.96-.09.23-.53.63-1.31,1.2h-.72l-4.26-.12c-1.21-.23-2.31-.19-3.32.12-.03-.02-.05-.02-.07,0-.81-.21-1.6-.21-2.39,0h-.6c-.8-.39-1.44-.39-1.93,0h-25.32c-.67-.41-1.23-.41-1.67,0h-30.59c-.75-.39-1.21-.39-1.4,0h-30.1c-.81-.39-1.45-.39-1.91,0h-23.59c-.72-.35-1.18-.35-1.38,0h-195.12c-.78-.39-1.42-.39-1.92,0h-2.06c-.87-.39-1.5-.39-1.9,0H119.56M836.93,437.26l-58.9-.4c-44.53-.18-89.06-.2-133.59-.06-2.57.01-4.66.39-6.26,1.13-8.89,4.11-11.02,11.1-13.68,19.87-.28.93-8.93,32.86-25.95,95.8-8.69,32.16-15.75,58.36-21.17,78.61-2.3,8.6-4.71,16.54-7.34,26.38-2.97,11.12-5.9,21.67-8.77,31.64-.1.37.17.73.55.75,2.21.09,3.7.14,4.47.14,121.65-.25,227.72-.29,318.2-.12,4.89.01,6.57-1.69,9.27-5.97,1.95-3.1,3.74-7.57,5.35-13.4,34.86-125.73,54.53-196.75,59.02-213.07.8-2.91,1.37-5.88,1.11-8.74-.45-4.93-3.97-11.87-9.66-12.38-3.35-.3-6.21-.45-8.59-.45-34.69-.05-69.37.04-104.06.27ZM134.01,690.7c26.6.17,53.26.19,79.98.07.85-.01,2.2-.19,4.05-.55,32.83-3.66,54.71-6.34,65.64-8.05,15.22-2.38,30.66-4.8,46.31-7.26,6.59-1.03,12.72-1.54,18.38-1.51.86,0,1.72.13,2.54.38,5.45,1.61,10.23,2.85,14.36,3.72,9.62,2.02,18.91.45,28.6-3.3,8.3-3.21,17.15-6.29,25.74-7.63.53-.08,1.07,0,1.54.24,2.56,1.29,3.6,2.59,4.92,4.79.17.27.46.44.78.44h15.82c.18,0,.28-.22.16-.36-1.1-1.23-2.02-2.17-2.75-2.82-9.76-8.59-17.97-14.3-27.96-20.42-.87-1.91-.02-3.78,2.18-3.95,8.21,4.66,15.95,9.99,23.22,16,4.12,3.4,8.43,8.3,11.93,11.25.15.12.33.18.52.18h23.31c.23,0,.34-.27.18-.43-6.63-6.42-11.93-12.29-19.44-21.13-3.01-3.54-5.49-6.15-7.45-7.83-6.25-5.31-13.54-9.62-20.15-13.55-.85-.5-1.22-1.53-.91-2.46l.18-.52c.41-1.22,1.85-1.74,2.95-1.08,11.36,6.82,19.01,11.36,26.33,19.61,3.43,3.86,8.17,9.3,14.22,16.31.93,1.08,4.46,4.64,10.61,10.69.24.24.57.37.92.37h14.14c.64,0,1.21-.36,1.49-.93,1.33-2.75,1.1-5.47-.7-8.14-4.3-6.37-9.4-11.57-14.71-17.6-.9-1.03-3.14-3.99-6.73-8.88-4.91-6.71-9.98-11.56-16.71-15.6-5.19-3.11-9.62-5.51-13.29-7.18-.82-.37-1.22-1.3-.93-2.14l.25-.75c.44-1.29,1.93-1.89,3.15-1.27,6.15,3.15,11.34,6.09,15.58,8.82,8.53,5.48,13.83,14,20.88,20.8,5.07,4.91,10.17,10.15,14.3,16.03,2.21,3.15,3.91,5.08,5.08,5.79,5.19,3.13,12.43,2.22,14.77-3.64,1.16-2.9.73-5.72-1.3-8.46-17.13-23.16-37.96-48.2-67.66-54.59-13.37-2.88-26.89,1.29-39.06,6.12-6.93,2.75-17.29,7.3-31.08,13.67-6.62,3.06-14.34,6.88-22.2,6.53-23.76-1.05-49.17-3.17-76.24-6.36-21.59-2.54-45.43-5.88-71.5-10.02-7.07-1.12-23.89-2.63-50.45-4.53-.21-2.79.66-4.25,2.62-4.4,10.07-.75,19.11-.9,27.13-.45,8.03.37,15.98,1.3,23.85,2.79.33.06.64-.12.76-.42,5.01-12.69,9.71-26.08,14.09-40.16.07-.21-.04-.43-.25-.5l-96.88-32.97c-.45-.15-.93.15-.99.62-.12.98-.4,2.14-.83,3.49-12.44,38.45-19.16,57.13-25.26,84.69-3.8,17.17-5.51,34.37-.61,50.71,3.43,11.44,10.53,19.5,21.3,24.18.89.39,2.77.99,5.64,1.78,1.87.52,3.75,1.11,5.64,1.77ZM568.56,641.97c-.35.63-.68,1.07-.99,1.32-.7.55-1.69.51-2.34-.08-7.57-6.89-13.41-14.69-17.54-23.42-5.8-12.27-10.66-24.96-14.58-38.08-.46-1.55-.51-2.8-1.23-4.12-.33-.59-1.23-.36-1.22.32.06,3.02-.53,5.03-1.02,7.6-4.29,22.53-8,41.8-11.12,57.82-.11.61.03,1.23.39,1.73,4.97,6.71,4.71,12.95-.78,18.72-.93.97-1.86,1.44-3.01,2.09-.45.25-.72.73-.7,1.25.05,1.6-.16,3.07-.64,4.42-.1.28.1.57.4.57h46.83c.52,0,.98-.35,1.12-.86l7.69-28.79,27.27-101.24c.09-.33-.19-.64-.52-.58-6.87,1.18-14,2.47-21.59,5.59-13.34,5.47-26.54,10.92-39.6,16.36-.83.34-1.41,1.1-1.53,1.99-.38,2.92-.01,6.15,1.12,9.68,1.7,5.32,4.82,14.21,9.36,26.66,5.12,14.04,12.02,28.38,23.63,38.71.72.64.83,1.47.6,2.34ZM501.21,672.19h7.94c.18,0,.34-.14.36-.32l.47-4.64c.02-.14-.1-.26-.24-.25-2.72.19-5.33-.38-7.83-1.73-.42-.23-.9.19-.73.64.71,1.89.57,3.74-.41,5.56-.18.33.06.74.44.74ZM420.65,672.17l-.11-1.88c0-.12-.11-.21-.23-.2l-.45.02c-2.75.16-4.97.54-4.95.86l.07,1.16c.01.32,2.26.45,5.01.3l.45-.03c.12,0,.21-.11.21-.23ZM386.9,681.08c-.28.04-.44.34-.32.6l4.13,8.32c.3.61.92.99,1.59.99h162.75c.62,0,1.17-.42,1.33-1.02l3.42-12.68c.07-.28-.14-.55-.43-.55h-158.24c-.64,0-1.27.11-1.87.33-3.93,1.46-7.97,3.36-12.36,4.01ZM325.59,679.86c-1.75.11-3.2.26-4.35.45-16.68,2.75-35.43,5.47-56.26,8.15-1.45.19-3.31.85-4.98,1.01-6.19.56-10.56.92-13.11,1.09-.47.03-.87.36-.99.81l-.03.1c-.11.4.22.78.63.74,6.6-.7,11.86-1.41,19.08-1.09,2.43.11,5.87.14,10.32.09,37.51-.4,73.98-.51,109.42-.32.41,0,.67-.42.49-.79l-3.67-7.41c-.24-.48-.77-.76-1.31-.69-4.02.53-6.88.74-8.57.64-3.8-.23-8.3-1.05-13.51-2.46-.2-.05-.38-.15-.54-.28-.73-.61-1.75-.87-3.06-.78-.3.02-.6-.03-.88-.15-4.17-1.85-8.38-2.22-12.65-1.11-.43.11-.87.19-1.32.22-1.47.11-2.41.12-2.82.03-.35-.07-1.48.14-3.4.65-2.04.55-5.2-.17-7.58.87-.28.13-.59.21-.91.23Z"/>
  <path class="st26" d="M778.01,436.86c-.71-.07-1.08-.07-1.11-.02-.2.36.06.8.47.81,19.97.38,39.5.47,58.57.26,1.19-.01,1.51-.23.97-.65,34.69-.23,69.37-.32,104.06-.27,2.38,0,5.24.15,8.59.45,5.69.51,9.21,7.45,9.66,12.38.26,2.86-.31,5.83-1.11,8.74-4.49,16.32-24.16,87.34-59.02,213.07-1.61,5.83-3.4,10.3-5.35,13.4-2.7,4.28-4.38,5.98-9.27,5.97-90.48-.17-196.55-.13-318.2.12-.77,0-2.26-.05-4.47-.14-.38-.02-.65-.38-.55-.75,2.87-9.97,5.8-20.52,8.77-31.64,2.63-9.84,5.04-17.78,7.34-26.38,5.42-20.25,12.48-46.45,21.17-78.61,17.02-62.94,25.67-94.87,25.95-95.8,2.66-8.77,4.79-15.76,13.68-19.87,1.6-.74,3.69-1.12,6.26-1.13,44.53-.14,89.06-.12,133.59.06ZM763.28,575.99c-.26-.19-.4-.45-.42-.78-.31-4.84-1.94-8.58-4.91-11.22-3.3-2.93-7.19-4.18-11.66-3.74-5.43.53-10.01,3.14-13.72,7.85-.38.47-1.14.27-1.22-.33-.11-.75-.06-1.45.14-2.12.35-1.15,1.48-5.8,3.39-13.95.75-3.2-.58-4.87-3.99-5.02-3.32-.14-5.67.21-7.05,1.04-.56.34-.97.89-1.12,1.53l-3.82,15.87c-.12.48-.54.81-1.03.81h-13.22c-.92,0-1.59-.88-1.34-1.77,1.29-4.65,2.34-8.9,3.14-12.76.34-1.63-.13-3.05-1.06-4.15-.37-.43-1.43-.63-3.17-.6-1.83.03-3.65.1-5.47.19-1.55.09-2.43.74-2.65,1.97-1.02,5.6-2.24,10.86-3.66,15.79-.15.53-.24,1.08-.27,1.63l-.07,1.67c-.01.22-.06.45-.16.65-.9,1.88-1.51,4.15-1.84,6.8-.03.26-.09.51-.17.76-1.61,5.28-3.08,11.24-4.43,17.89-.38,1.85-.08,3.63,1.94,3.99,2.48.44,5.16.37,8.03-.21,1.28-.26,2.1-1.05,2.47-2.37,1.51-5.43,2.71-11.04,3.6-16.81.06-.37.38-.65.76-.65h14.5c.49,0,.86.46.74.94-1.39,5.6-2.53,10.79-3.44,15.58-.2,1.07.06,2.15.78,3.22.28.42.76.66,1.26.64l7.51-.26c.49-.02.95-.21,1.3-.54,2.64-2.22,1.73-6.01,3.17-8.8.2-.37.74-.33.88.06,1.57,4.29,4.36,7.31,8.37,9.04,8,3.46,17.91-1.65,23.08-8.12.78-.97.5-2.41-.58-3.04l-3.69-2.13c-.53-.31-.27-1.12.34-1.06l4.62.47c.32.03.64-.09.85-.32l1.62-1.75c.29-.31.8-.09.79.33-.09,2.43-.51,4.44-1.27,6.01-.07.13-.11.27-.14.42l-1.18,6.35c-.18.96.33,1.91,1.23,2.3,2.85,1.25,5.78,1.19,8.79-.17,1.07-.48,1.87-1.42,2.18-2.55,1.36-4.91,2.46-9.49,3.31-13.72,1.74-8.72,3.54-16.88,5.4-24.47.49-1.98.84-5.05.93-6.94.05-1.17-.8-2.19-1.96-2.35-1.52-.2-3.29-.23-5.31-.09-4.58.33-4.29,2.95-5,6.33-1.22,5.78-2.63,10.2-3.79,16.12-.34,1.75-.89,3.85-1.66,6.32-.08.28-.41.39-.65.22ZM851.4,563.24c-.11-.95-.85-1.69-1.8-1.79-2.29-.24-4.56-.34-6.81-.3-1.58.03-2.7.57-3.36,1.62-2.41,3.81-5.85,9.08-10.33,15.83-.23.34-.74.24-.84-.15-.73-2.98-.9-5.96-.51-8.95.19-1.42-.1-3.51-.85-6.27-.09-.33-.28-.62-.53-.86-.74-.69-1.71-1.09-2.9-1.2-2.87-.28-7.4-1.18-8.9,1.5-.17.3-.23.64-.17.98.2,1.14.26,2.42.19,3.84-.03.59-.18,1-.45,1.23-.25.22-.63.15-.79-.14-2.52-4.56-6.35-7.78-11.89-8.14-3.12-.21-5.67.17-7.66,1.14-.75.37-1.62.44-2.42.2-3.68-1.08-10.23-1.33-10.83,3.79-.35,2.93-.93,5.03-1.75,6.29-.22.34-.37.73-.43,1.14-.44,2.98-.82,4.9-1.13,5.76-1.08,2.95-1.77,5.71-2.07,8.26-.06.52-.18,1.02-.35,1.51-.83,2.37-1.93,5.63-2.28,8.72-.41,3.64-1.03,6.88-1.86,9.73-.55,1.9-.07,3.65,2.06,3.96,2.85.42,5.12.52,6.79.29,1.37-.18,2.48-1.18,2.8-2.52l2.67-11.08c.11-.45.62-.67,1.02-.44,7.05,3.91,14.61.56,20.71-3.89,4.45-3.24,6.35-7.64,7.46-12.75.11-.5.69-.72,1.1-.41.39.29.59.82.6,1.59.05,2.85.28,6.63.71,11.36.18,2.01.08,3.43-.3,4.25-1.12,2.41-3.33,5.7-6.63,9.85-.66.84-.99,1.27-1,1.28-.08,1.31.88,2.45,2.19,2.59,1.51.16,3.83.15,6.94-.03,2.03-.11,3.55-.92,4.56-2.41,7.18-10.71,11.86-17.53,14.04-20.46,1.55-2.11,2.72-3.83,3.5-5.18,3.39-5.87,8.68-12.57,10.79-16.52.59-1.11.82-2.18.71-3.22Z"/>
  <path class="st24" d="M187.53,594.72l-1.29-.77c-.45-.27-.22-.97.31-.92l23.81,2.45c.79.08,1.53-.39,1.78-1.14l12.18-35.77c.29-.85-.2-1.78-1.07-2.02-3.8-1.05-9.54-2.79-17.23-5.24-.09-.03-14.17-4.83-42.26-14.38-2.05-.69-5.09-2.11-7.9-2.89-6.5-1.82-12.26-3.78-17.27-5.89-3.36-1.41-6.26-2.41-8.69-3.02-.33-.08-.67.12-.75.45-1.59,6.11-3.97,13.72-7.13,22.83-2.39,6.88-4.57,14.8-7.16,22.04-1.5,4.19-2.48,8.87-3.79,12.6-1.02,2.93-1.23,5.83-2.41,8.79-.72,1.8-1.38,3.98-1.98,6.54-.89,3.78-1.65,7.11-2.29,10-.61,2.73-1.74,9.27-3.39,19.6-1.14,7.2-1.56,14.87-.91,20.28.45,3.75,1.47,8.67,3.08,14.78,1.65,6.27,4.76,11.65,9.34,16.14,2.33,2.29,6.22,4.67,11.69,7.15,3.04,1.37,6.36,1.6,9.87,2.46.35.09.54.47.4.81l-.48,1.1c-1.89-.66-3.77-1.25-5.64-1.77-2.87-.79-4.75-1.39-5.64-1.78-10.77-4.68-17.87-12.74-21.3-24.18-4.9-16.34-3.19-33.54.61-50.71,6.1-27.56,12.82-46.24,25.26-84.69.43-1.35.71-2.51.83-3.49.06-.47.54-.77.99-.62l96.88,32.97c.21.07.32.29.25.5-4.38,14.08-9.08,27.47-14.09,40.16-.12.3-.43.48-.76.42-7.87-1.49-15.82-2.42-23.85-2.79Z"/>
  <path class="st19" d="M187.53,594.72c-8.02-.45-17.06-.3-27.13.45-1.96.15-2.83,1.61-2.62,4.4-.29.67.14,1.2,1.29,1.57.53.17,1.29.29,2.28.36,6.39.45,11.99.79,16.8,1.02.51.03,1.2.16,2.07.39.39.1.78.16,1.17.17,6.61.19,13.51.87,20.7,2.05,2.3.38,4.42.19,6.68.8.87.23,2.54.49,4.99.78,6.71.79,22.12,3.01,46.23,6.65,9.89,1.49,20.01,2.66,30.35,3.51,5.23.43,10.59.98,16.08,1.65,4.17.51,6.94.78,8.33.81,7.21.14,13.76,1.31,20.9,1.59,9.21.35,15.9.65,20.07.92,3.79.24,6.73-.03,8.82-.8,5.93-2.17,13.39-5.4,22.39-9.69,2.89-1.37,5.37-2.46,7.44-3.27,6.42-2.5,9.9-4.65,16.29-6.89,6.53-2.29,12.2-4.05,16.99-5.27,4.66-1.19,10.77-1.53,18.34-1.03,1.1.07,2.77.48,5.01,1.22,4.16,1.38,8.71,2.64,12.13,4.37,15.5,7.84,27.76,18.87,38.96,32.38,3.06,3.69,6.65,8.26,10.77,13.71,1.71,2.26,4.74,8.04,2.92,10.63-2.38,3.39-5.7,4.59-9.97,3.59-5.65-1.33-7.99-8.45-10.58-11.05-7.14-7.15-11.6-11.77-13.39-13.86-7.04-8.26-12.86-15.21-21.74-20.47-5.38-3.18-9.7-5.47-12.96-6.87-1.68-.71-3.62.06-4.34,1.73l-.08.17c-.73,1.68-.02,3.64,1.62,4.46,9.75,4.87,17.11,9.6,22.09,14.19,2.15,1.98,5.53,6.18,10.14,12.6.88,1.23,1.61,2.14,2.18,2.73,2,2.04,3,3.84,5.53,6.45,2.94,3.04,12.71,13.52,11.72,17.25-.39,1.49-1.36,2.19-2.89,2.1-3.36-.18-6.69-.14-9.99.13-1.18.1-2.36-.22-3.32-.9-1.83-1.29-3.37-2.69-4.6-4.2-2.07-2.54-3.98-4.05-5.81-6.15-5.32-6.09-9.23-10.61-11.74-13.58-7.64-9.04-18.04-15.82-28.32-21.51-1.56-.86-3.52-.3-4.4,1.25l-.1.17c-.9,1.61-.4,3.64,1.15,4.64,4.43,2.87,8.27,5.33,11.5,7.4,6.35,4.05,11.65,8.74,15.9,14.07,2.19,2.74,4.44,4.69,6.05,7.36.05.07.1.14.16.2l9.96,10.12c.33.34.09.91-.38.91h-18.78c-.49,0-.96-.16-1.35-.46-1.89-1.47-3.79-3.36-5.7-5.65-.21-.25-.43-.47-.68-.67-3.57-2.96-5.76-4.83-6.57-5.61-2.74-2.62-5.61-4.02-8.75-6.55-3.63-2.93-6.83-4.4-11.82-7.27-.23-.13-.49-.22-.76-.25-.85-.11-1.01.17-.48.82-2.2.17-3.05,2.04-2.18,3.95-.66.49-.24,1.21,1.27,2.14,8.53,5.28,16.87,11.45,25,18.52.43.38.17,1.08-.4,1.08h-10.43c-.34,0-.66-.15-.88-.42-2.23-2.79-4.84-5.3-8.62-4.6-6.5,1.2-12.37,3.44-19.18,5.65-2.67.87-5.72,1.94-9.15,3.21-7.69,2.85-15.51,3.58-23.46,2.2-4.54-.79-9.63-2.64-15.37-4.12-1.42-.36-2.79-.4-4.12-.13-.32.07-.64.09-.97.07-5.8-.39-11.48.15-17.03,1.61-.58.15-1.17.25-1.77.29-4.03.29-7.22.68-9.59,1.17-4.45.93-7.82,1.55-10.13,1.87-9.25,1.27-23.36,3.27-42.32,6.01-1.7.24-2.64.39-2.81.44-2.26.63-4.74.46-7.03.79-5.48.77-10.97,1.76-16.46,2.02-4.88.24-9.02,1.18-13.89,1.53-1.23.09-3.49.35-6.79.79-.74.1-.72.65.05,1.66-1.85.36-3.2.54-4.05.55-26.72.12-53.38.1-79.98-.07l.48-1.1c.14-.34-.05-.72-.4-.81-3.51-.86-6.83-1.09-9.87-2.46-5.47-2.48-9.36-4.86-11.69-7.15-4.58-4.49-7.69-9.87-9.34-16.14-1.61-6.11-2.63-11.03-3.08-14.78-.65-5.41-.23-13.08.91-20.28,1.65-10.33,2.78-16.87,3.39-19.6.64-2.89,1.4-6.22,2.29-10,.6-2.56,1.26-4.74,1.98-6.54,1.18-2.96,1.39-5.86,2.41-8.79,1.31-3.73,2.29-8.41,3.79-12.6,2.59-7.24,4.77-15.16,7.16-22.04,3.16-9.11,5.54-16.72,7.13-22.83.08-.33.42-.53.75-.45,2.43.61,5.33,1.61,8.69,3.02,5.01,2.11,10.77,4.07,17.27,5.89,2.81.78,5.85,2.2,7.9,2.89,28.09,9.55,42.17,14.35,42.26,14.38,7.69,2.45,13.43,4.19,17.23,5.24.87.24,1.36,1.17,1.07,2.02l-12.18,35.77c-.25.75-.99,1.22-1.78,1.14l-23.81-2.45c-.53-.05-.76.65-.31.92l1.29.77Z"/>
  <path class="st24" d="M569.8,642.46c.01-.57-.41-.73-1.26-.49.23-.87.12-1.7-.6-2.34-11.61-10.33-18.51-24.67-23.63-38.71-4.54-12.45-7.66-21.34-9.36-26.66-1.13-3.53-1.5-6.76-1.12-9.68.12-.89.7-1.65,1.53-1.99,13.06-5.44,26.26-10.89,39.6-16.36,7.59-3.12,14.72-4.41,21.59-5.59.33-.06.61.25.52.58l-27.27,101.24ZM569.57,637.38l25.31-94.07c.14-.54-.32-1.04-.87-.95-3.57.6-5.83,1.66-9.51,2.16-2.12.28-5.55,1.43-10.3,3.46-2.37,1.01-6.29,2.67-11.76,5-4.57,1.95-8.68,3.21-12.59,5.11-4.39,2.14-8.61,3.64-13.31,5.43-.96.36-1.59,1.3-1.55,2.33.1,3.01.62,5.82,1.56,8.41,1.96,5.39,3.77,12.06,5.59,16.69,2.1,5.33,4.43,11.33,6.98,18.02,1.01,2.64,2.1,5.02,3.25,7.14,2.71,4.97,4.72,9.4,7.87,13.34,2.15,2.69,5.27,6.88,8.23,8.42.44.23.97-.01,1.1-.49Z"/>
  <path class="st19" d="M569.57,637.38c-.13.48-.66.72-1.1.49-2.96-1.54-6.08-5.73-8.23-8.42-3.15-3.94-5.16-8.37-7.87-13.34-1.15-2.12-2.24-4.5-3.25-7.14-2.55-6.69-4.88-12.69-6.98-18.02-1.82-4.63-3.63-11.3-5.59-16.69-.94-2.59-1.46-5.4-1.56-8.41-.04-1.03.59-1.97,1.55-2.33,4.7-1.79,8.92-3.29,13.31-5.43,3.91-1.9,8.02-3.16,12.59-5.11,5.47-2.33,9.39-3.99,11.76-5,4.75-2.03,8.18-3.18,10.3-3.46,3.68-.5,5.94-1.56,9.51-2.16.55-.09,1.01.41.87.95l-25.31,94.07Z"/>
  <path class="st23" d="M763.28,575.99c.24.17.57.06.65-.22.77-2.47,1.32-4.57,1.66-6.32,1.16-5.92,2.57-10.34,3.79-16.12.71-3.38.42-6,5-6.33,2.02-.14,3.79-.11,5.31.09,1.16.16,2.01,1.18,1.96,2.35-.09,1.89-.44,4.96-.93,6.94-1.86,7.59-3.66,15.75-5.4,24.47-.85,4.23-1.95,8.81-3.31,13.72-.31,1.13-1.11,2.07-2.18,2.55-3.01,1.36-5.94,1.42-8.79.17-.9-.39-1.41-1.34-1.23-2.3l1.18-6.35c.03-.15.07-.29.14-.42.76-1.57,1.18-3.58,1.27-6.01.01-.42-.5-.64-.79-.33l-1.62,1.75c-.21.23-.53.35-.85.32l-4.62-.47c-.61-.06-.87.75-.34,1.06l3.69,2.13c1.08.63,1.36,2.07.58,3.04-5.17,6.47-15.08,11.58-23.08,8.12-4.01-1.73-6.8-4.75-8.37-9.04-.14-.39-.68-.43-.88-.06-1.44,2.79-.53,6.58-3.17,8.8-.35.33-.81.52-1.3.54l-7.51.26c-.5.02-.98-.22-1.26-.64-.72-1.07-.98-2.15-.78-3.22.91-4.79,2.05-9.98,3.44-15.58.12-.48-.25-.94-.74-.94h-14.5c-.38,0-.7.28-.76.65-.89,5.77-2.09,11.38-3.6,16.81-.37,1.32-1.19,2.11-2.47,2.37-2.87.58-5.55.65-8.03.21-2.02-.36-2.32-2.14-1.94-3.99,1.35-6.65,2.82-12.61,4.43-17.89.08-.25.14-.5.17-.76.33-2.65.94-4.92,1.84-6.8.1-.2.15-.43.16-.65l.07-1.67c.03-.55.12-1.1.27-1.63,1.42-4.93,2.64-10.19,3.66-15.79.22-1.23,1.1-1.88,2.65-1.97,1.82-.09,3.64-.16,5.47-.19,1.74-.03,2.8.17,3.17.6.93,1.1,1.4,2.52,1.06,4.15-.8,3.86-1.85,8.11-3.14,12.76-.25.89.42,1.77,1.34,1.77h13.22c.49,0,.91-.33,1.03-.81l3.82-15.87c.15-.64.56-1.19,1.12-1.53,1.38-.83,3.73-1.18,7.05-1.04,3.41.15,4.74,1.82,3.99,5.02-1.91,8.15-3.04,12.8-3.39,13.95-.2.67-.25,1.37-.14,2.12.08.6.84.8,1.22.33,3.71-4.71,8.29-7.32,13.72-7.85,4.47-.44,8.36.81,11.66,3.74,2.97,2.64,4.6,6.38,4.91,11.22.02.33.16.59.42.78ZM699.32,576.45h17.66c.37,0,.64.34.56.7l-4.44,18.4c-.13.56.29,1.09.87,1.09h8c.64,0,1.16-.49,1.21-1.12.07-.93.16-1.69.28-2.27,1.82-8.85,3.32-15.3,4.49-19.35,2.34-8.03,3.35-14.3,5.77-24.33.16-.69-.36-1.35-1.07-1.35h-7.1c-.62,0-1.15.42-1.3,1.02l-4.26,17.68c-.06.28-.31.47-.59.47h-17.93c-.3,0-.52-.27-.45-.56l4.4-18.25c.05-.21-.11-.42-.32-.42h-8.98c-.11,0-.2.07-.22.18l-11.56,47.96c-.03.14.07.27.21.27h9.49s.07-.03.08-.07l4.55-19.53c.07-.3.34-.52.65-.52ZM772.87,548.64c-.41,0-.76.28-.85.67l-11.11,46.1c-.13.54.28,1.07.84,1.07h7.01c.41,0,.76-.28.85-.67l11.11-46.1c.13-.54-.28-1.07-.84-1.07h-7.01ZM757.67,588.22l-6.06-3.5c-.17-.1-.39-.06-.51.1-2.27,2.73-4.94,4.19-8.03,4.38-1.78.11-3.49-.75-4.48-2.24l-1.48-2.24c-.64-.96.05-2.25,1.21-2.25h20.58c.64,0,1.22-.42,1.42-1.03,1.81-5.64,1.52-11.86-3.12-16.22-3.02-2.83-6.62-3.99-10.81-3.46-8.46,1.06-15.73,8.27-17.8,16.72-1.43,5.84-1.45,10.82,3.01,15.15,8.14,7.88,19.9,2.44,26.11-5.19.05-.07.04-.17-.04-.22ZM748.7,584.23l-8.96.66c-.06.01-.1.06-.1.12v.03c.1,1.26,2.17,2.13,4.63,1.95l.26-.02c2.46-.18,4.38-1.35,4.29-2.6v-.03c0-.06-.06-.11-.12-.11Z"/>
  <path class="st21" d="M698.67,576.97l-4.55,19.53s-.04.07-.08.07h-9.49c-.14,0-.24-.13-.21-.27l11.56-47.96c.02-.11.11-.18.22-.18h8.98c.21,0,.37.21.32.42l-4.4,18.25c-.07.29.15.56.45.56h17.93c.28,0,.53-.19.59-.47l4.26-17.68c.15-.6.68-1.02,1.3-1.02h7.1c.71,0,1.23.66,1.07,1.35-2.42,10.03-3.43,16.3-5.77,24.33-1.17,4.05-2.67,10.5-4.49,19.35-.12.58-.21,1.34-.28,2.27-.05.63-.57,1.12-1.21,1.12h-8c-.58,0-1-.53-.87-1.09l4.44-18.4c.08-.36-.19-.7-.56-.7h-17.66c-.31,0-.58.22-.65.52Z"/>
  <path class="st21" d="M772.87,548.64h7.01c.56,0,.97.53.84,1.07l-11.11,46.1c-.09.39-.44.67-.85.67h-7.01c-.56,0-.97-.53-.84-1.07l11.11-46.1c.09-.39.44-.67.85-.67Z"/>
  <path class="st23" d="M851.4,563.24c.11,1.04-.12,2.11-.71,3.22-2.11,3.95-7.4,10.65-10.79,16.52-.78,1.35-1.95,3.07-3.5,5.18-2.18,2.93-6.86,9.75-14.04,20.46-1.01,1.49-2.53,2.3-4.56,2.41-3.11.18-5.43.19-6.94.03-1.31-.14-2.27-1.28-2.19-2.59.01,0,.34-.44,1-1.28,3.3-4.15,5.51-7.44,6.63-9.85.38-.82.48-2.24.3-4.25-.43-4.73-.66-8.51-.71-11.36-.01-.77-.21-1.3-.6-1.59-.41-.31-.99-.09-1.1.41-1.11,5.11-3.01,9.51-7.46,12.75-6.1,4.45-13.66,7.8-20.71,3.89-.4-.23-.91-.01-1.02.44l-2.67,11.08c-.32,1.34-1.43,2.34-2.8,2.52-1.67.23-3.94.13-6.79-.29-2.13-.31-2.61-2.06-2.06-3.96.83-2.85,1.45-6.09,1.86-9.73.35-3.09,1.45-6.35,2.28-8.72.17-.49.29-.99.35-1.51.3-2.55.99-5.31,2.07-8.26.31-.86.69-2.78,1.13-5.76.06-.41.21-.8.43-1.14.82-1.26,1.4-3.36,1.75-6.29.6-5.12,7.15-4.87,10.83-3.79.8.24,1.67.17,2.42-.2,1.99-.97,4.54-1.35,7.66-1.14,5.54.36,9.37,3.58,11.89,8.14.16.29.54.36.79.14.27-.23.42-.64.45-1.23.07-1.42.01-2.7-.19-3.84-.06-.34,0-.68.17-.98,1.5-2.68,6.03-1.78,8.9-1.5,1.19.11,2.16.51,2.9,1.2.25.24.44.53.53.86.75,2.76,1.04,4.85.85,6.27-.39,2.99-.22,5.97.51,8.95.1.39.61.49.84.15,4.48-6.75,7.92-12.02,10.33-15.83.66-1.05,1.78-1.59,3.36-1.62,2.25-.04,4.52.06,6.81.3.95.1,1.69.84,1.8,1.79ZM790.31,562.7h-6.7c-.45,0-.83.31-.94.74l-10.99,45.61c-.14.57.29,1.11.88,1.11h6.95c.59,0,1.11-.41,1.24-.98l3.35-13.91c.1-.42.6-.6.95-.34,2.99,2.25,6.45,2.99,10.37,2.2,10.58-2.11,19.25-11.86,18.04-22.96-.54-4.91-2.7-8.42-6.47-10.54-4.71-2.64-9.72-2.41-15.03.69-.38.23-.86-.05-.86-.5v-.33c0-.44-.35-.79-.79-.79ZM826.99,583.66l-1.55-19.59c-.07-.88-.81-1.56-1.69-1.56h-6.75c-.68,0-1.22.58-1.17,1.26l2.61,32.88c.01.23-.05.45-.18.64l-8.27,11.65c-.33.47,0,1.12.58,1.12h7.51c1.11,0,2.15-.56,2.77-1.48l29.54-44.06c.49-.73-.03-1.7-.9-1.7h-7.84c-.19,0-.36.09-.47.25l-13.86,20.67c-.09.14-.32.09-.33-.08Z"/>
  <path class="st21" d="M757.67,588.22c.08.05.09.15.04.22-6.21,7.63-17.97,13.07-26.11,5.19-4.46-4.33-4.44-9.31-3.01-15.15,2.07-8.45,9.34-15.66,17.8-16.72,4.19-.53,7.79.63,10.81,3.46,4.64,4.36,4.93,10.58,3.12,16.22-.2.61-.78,1.03-1.42,1.03h-20.58c-1.16,0-1.85,1.29-1.21,2.25l1.48,2.24c.99,1.49,2.7,2.35,4.48,2.24,3.09-.19,5.76-1.65,8.03-4.38.12-.16.34-.2.51-.1l6.06,3.5ZM739.42,576.14h11.94c.55,0,.94-.54.77-1.06-1.04-3.25-2.95-4.76-5.72-4.53-3.19.26-5.42,2.18-7.49,4.46-.4.43-.09,1.13.5,1.13Z"/>
  <path class="st21" d="M791.1,563.49v.33c0,.45.48.73.86.5,5.31-3.1,10.32-3.33,15.03-.69,3.77,2.12,5.93,5.63,6.47,10.54,1.21,11.1-7.46,20.85-18.04,22.96-3.92.79-7.38.05-10.37-2.2-.35-.26-.85-.08-.95.34l-3.35,13.91c-.13.57-.65.98-1.24.98h-6.95c-.59,0-1.02-.54-.88-1.11l10.99-45.61c.11-.43.49-.74.94-.74h6.7c.44,0,.79.35.79.79ZM789.82,587.38c3.2,2.55,8.52,1.18,11.88-3.05,3.36-4.23,3.5-9.72.3-12.26-3.2-2.55-8.52-1.18-11.88,3.05-3.36,4.23-3.5,9.72-.3,12.26Z"/>
  <path class="st21" d="M826.99,583.66c.01.17.24.22.33.08l13.86-20.67c.11-.16.28-.25.47-.25h7.84c.87,0,1.39.97.9,1.7l-29.54,44.06c-.62.92-1.66,1.48-2.77,1.48h-7.51c-.58,0-.91-.65-.58-1.12l8.27-11.65c.13-.19.19-.41.18-.64l-2.61-32.88c-.05-.68.49-1.26,1.17-1.26h6.75c.88,0,1.62.68,1.69,1.56l1.55,19.59Z"/>
  <path class="st23" d="M739.42,576.14c-.59,0-.9-.7-.5-1.13,2.07-2.28,4.3-4.2,7.49-4.46,2.77-.23,4.68,1.28,5.72,4.53.17.52-.22,1.06-.77,1.06h-11.94ZM742.98,574.08l6.54-.04c.09,0,.15-.07.15-.15v-.11c0-.82-1.46-1.47-3.26-1.46h-.32c-1.8.01-3.26.68-3.26,1.5v.11c0,.08.07.15.15.15Z"/>
  <path class="st23" d="M789.82,587.38c-3.2-2.54-3.06-8.03.3-12.26,3.36-4.22,8.68-5.59,11.88-3.05,3.2,2.54,3.06,8.03-.3,12.26-3.36,4.22-8.68,5.59-11.88,3.05ZM790.82,586.35c2.63,2.07,7.09.8,9.97-2.85,2.88-3.65,3.09-8.29.46-10.36-2.63-2.07-7.09-.8-9.97,2.85-2.88,3.65-3.09,8.29-.46,10.36Z"/>
  <path class="st26" d="M742.98,574.08c-.08,0-.15-.07-.15-.15v-.11c0-.82,1.46-1.49,3.26-1.5h.32c1.8-.01,3.26.64,3.26,1.46v.11c0,.08-.06.15-.15.15l-6.54.04Z"/>
  <ellipse class="st26" cx="796.03" cy="579.74" rx="8.42" ry="6.06" transform="translate(-152.3 845.14) rotate(-51.7)"/>
  <path class="st26" d="M748.7,584.23c.06,0,.11.05.12.11v.03c.09,1.25-1.83,2.42-4.29,2.6l-.26.02c-2.46.18-4.53-.69-4.63-1.95v-.03c0-.06.04-.11.1-.12l8.96-.66Z"/>
  <path class="st24" d="M414.28,644.49c-.53-.65-.37-.93.48-.82.27.03.53.12.76.25,4.99,2.87,8.19,4.34,11.82,7.27,3.14,2.53,6.01,3.93,8.75,6.55.81.78,3,2.65,6.57,5.61.25.2.47.42.68.67,1.91,2.29,3.81,4.18,5.7,5.65.39.3.86.46,1.35.46h18.78c.47,0,.71-.57.38-.91l-9.96-10.12c-.06-.06-.11-.13-.16-.2-1.61-2.67-3.86-4.62-6.05-7.36-4.25-5.33-9.55-10.02-15.9-14.07-3.23-2.07-7.07-4.53-11.5-7.4-1.55-1-2.05-3.03-1.15-4.64l.1-.17c.88-1.55,2.84-2.11,4.4-1.25,10.28,5.69,20.68,12.47,28.32,21.51,2.51,2.97,6.42,7.49,11.74,13.58,1.83,2.1,3.74,3.61,5.81,6.15,1.23,1.51,2.77,2.91,4.6,4.2.96.68,2.14,1,3.32.9,3.3-.27,6.63-.31,9.99-.13,1.53.09,2.5-.61,2.89-2.1.99-3.73-8.78-14.21-11.72-17.25-2.53-2.61-3.53-4.41-5.53-6.45-.57-.59-1.3-1.5-2.18-2.73-4.61-6.42-7.99-10.62-10.14-12.6-4.98-4.59-12.34-9.32-22.09-14.19-1.64-.82-2.35-2.78-1.62-4.46l.08-.17c.72-1.67,2.66-2.44,4.34-1.73,3.26,1.4,7.58,3.69,12.96,6.87,8.88,5.26,14.7,12.21,21.74,20.47,1.79,2.09,6.25,6.71,13.39,13.86,2.59,2.6,4.93,9.72,10.58,11.05,4.27,1,7.59-.2,9.97-3.59,1.82-2.59-1.21-8.37-2.92-10.63-4.12-5.45-7.71-10.02-10.77-13.71-11.2-13.51-23.46-24.54-38.96-32.38-3.42-1.73-7.97-2.99-12.13-4.37-2.24-.74-3.91-1.15-5.01-1.22-7.57-.5-13.68-.16-18.34,1.03-4.79,1.22-10.46,2.98-16.99,5.27-6.39,2.24-9.87,4.39-16.29,6.89-2.07.81-4.55,1.9-7.44,3.27-9,4.29-16.46,7.52-22.39,9.69-2.09.77-5.03,1.04-8.82.8-4.17-.27-10.86-.57-20.07-.92-7.14-.28-13.69-1.45-20.9-1.59-1.39-.03-4.16-.3-8.33-.81-5.49-.67-10.85-1.22-16.08-1.65-10.34-.85-20.46-2.02-30.35-3.51-24.11-3.64-39.52-5.86-46.23-6.65-2.45-.29-4.12-.55-4.99-.78-2.26-.61-4.38-.42-6.68-.8-7.19-1.18-14.09-1.86-20.7-2.05-.39-.01-.78-.07-1.17-.17-.87-.23-1.56-.36-2.07-.39-4.81-.23-10.41-.57-16.8-1.02-.99-.07-1.75-.19-2.28-.36-1.15-.37-1.58-.9-1.29-1.57,26.56,1.9,43.38,3.41,50.45,4.53,26.07,4.14,49.91,7.48,71.5,10.02,27.07,3.19,52.48,5.31,76.24,6.36,7.86.35,15.58-3.47,22.2-6.53,13.79-6.37,24.15-10.92,31.08-13.67,12.17-4.83,25.69-9,39.06-6.12,29.7,6.39,50.53,31.43,67.66,54.59,2.03,2.74,2.46,5.56,1.3,8.46-2.34,5.86-9.58,6.77-14.77,3.64-1.17-.71-2.87-2.64-5.08-5.79-4.13-5.88-9.23-11.12-14.3-16.03-7.05-6.8-12.35-15.32-20.88-20.8-4.24-2.73-9.43-5.67-15.58-8.82-1.22-.62-2.71-.02-3.15,1.27l-.25.75c-.29.84.11,1.77.93,2.14,3.67,1.67,8.1,4.07,13.29,7.18,6.73,4.04,11.8,8.89,16.71,15.6,3.59,4.89,5.83,7.85,6.73,8.88,5.31,6.03,10.41,11.23,14.71,17.6,1.8,2.67,2.03,5.39.7,8.14-.28.57-.85.93-1.49.93h-14.14c-.35,0-.68-.13-.92-.37-6.15-6.05-9.68-9.61-10.61-10.69-6.05-7.01-10.79-12.45-14.22-16.31-7.32-8.25-14.97-12.79-26.33-19.61-1.1-.66-2.54-.14-2.95,1.08l-.18.52c-.31.93.06,1.96.91,2.46,6.61,3.93,13.9,8.24,20.15,13.55,1.96,1.68,4.44,4.29,7.45,7.83,7.51,8.84,12.81,14.71,19.44,21.13.16.16.05.43-.18.43h-23.31c-.19,0-.37-.06-.52-.18-3.5-2.95-7.81-7.85-11.93-11.25-7.27-6.01-15.01-11.34-23.22-16Z"/>
  <path class="st24" d="M412.1,648.44c9.99,6.12,18.2,11.83,27.96,20.42.73.65,1.65,1.59,2.75,2.82.12.14.02.36-.16.36h-15.82c-.32,0-.61-.17-.78-.44-1.32-2.2-2.36-3.5-4.92-4.79-.47-.24-1.01-.32-1.54-.24-8.59,1.34-17.44,4.42-25.74,7.63-9.69,3.75-18.98,5.32-28.6,3.3-4.13-.87-8.91-2.11-14.36-3.72-.82-.25-1.68-.37-2.54-.38-5.66-.03-11.79.48-18.38,1.51-15.65,2.46-31.09,4.88-46.31,7.26-10.93,1.71-32.81,4.39-65.64,8.05-.77-1.01-.79-1.56-.05-1.66,3.3-.44,5.56-.7,6.79-.79,4.87-.35,9.01-1.29,13.89-1.53,5.49-.26,10.98-1.25,16.46-2.02,2.29-.33,4.77-.16,7.03-.79.17-.05,1.11-.2,2.81-.44,18.96-2.74,33.07-4.74,42.32-6.01,2.31-.32,5.68-.94,10.13-1.87,2.37-.49,5.56-.88,9.59-1.17.6-.04,1.19-.14,1.77-.29,5.55-1.46,11.23-2,17.03-1.61.33.02.65,0,.97-.07,1.33-.27,2.7-.23,4.12.13,5.74,1.48,10.83,3.33,15.37,4.12,7.95,1.38,15.77.65,23.46-2.2,3.43-1.27,6.48-2.34,9.15-3.21,6.81-2.21,12.68-4.45,19.18-5.65,3.78-.7,6.39,1.81,8.62,4.6.22.27.54.42.88.42h10.43c.57,0,.83-.7.4-1.08-8.13-7.07-16.47-13.24-25-18.52-1.51-.93-1.93-1.65-1.27-2.14Z"/>
  <path class="st25" d="M500.75,671.45c.98-1.82,1.12-3.67.41-5.56-.17-.45.31-.87.73-.64,2.5,1.35,5.11,1.92,7.83,1.73.14-.01.26.11.24.25l-.47,4.64c-.02.18-.18.32-.36.32h-7.94c-.38,0-.62-.41-.44-.74Z"/>
  <path class="st25" d="M420.63,672.17c0,.12-.09.23-.21.23l-.45.03c-2.75.15-5,.02-5.01-.3l-.07-1.16c-.02-.32,2.2-.7,4.95-.86l.45-.02c.12-.01.23.08.23.2l.11,1.88Z"/>
  <path class="st26" d="M386.88,681.08c4.39-.65,8.43-2.55,12.36-4.01.6-.22,1.23-.33,1.87-.33h158.24c.29,0,.5.27.43.55l-3.42,12.68c-.16.6-.71,1.02-1.33,1.02h-162.75c-.67,0-1.29-.38-1.59-.99l-4.13-8.32c-.12-.26.04-.56.32-.6Z"/>
  <path class="st25" d="M326.48,679.63c2.38-1.04,5.54-.32,7.58-.87,1.92-.51,3.05-.72,3.4-.65.41.09,1.35.08,2.82-.03.45-.03.89-.11,1.32-.22,4.27-1.11,8.48-.74,12.65,1.11.28.12.58.17.88.15,1.31-.09,2.33.17,3.06.78.16.13.34.23.54.28,5.21,1.41,9.71,2.23,13.51,2.46,1.69.1,4.55-.11,8.57-.64.54-.07,1.07.21,1.31.69l3.67,7.41c.18.37-.08.79-.49.79-35.44-.19-71.91-.08-109.42.32-4.45.05-7.89.02-10.32-.09-7.22-.32-12.48.39-19.08,1.09-.41.04-.74-.34-.63-.74l.03-.1c.12-.45.52-.78.99-.81,2.55-.17,6.92-.53,13.11-1.09,1.67-.16,3.53-.82,4.98-1.01,20.83-2.68,39.58-5.4,56.26-8.15,1.15-.19,2.6-.34,4.35-.45.32-.02.63-.1.91-.23Z"/>
  <path class="st27" d="M643.37,695h-1.9c.4-.39,1.03-.39,1.9,0Z"/>
  <path class="st27" d="M647.35,695h-1.92c.5-.39,1.14-.39,1.92,0Z"/>
  <path class="st26" d="M843.85,695h-1.38c.2-.35.66-.35,1.38,0Z"/>
  <path class="st27" d="M869.35,695h-1.91c.46-.39,1.1-.39,1.91,0Z"/>
  <path class="st27" d="M900.85,695h-1.4c.19-.39.65-.39,1.4,0Z"/>
  <path class="st27" d="M933.11,695h-1.67c.44-.41,1-.41,1.67,0Z"/>
  <path class="st26" d="M957.09,695h-6.6,6.6Z"/>
  <path class="st27" d="M960.36,695h-1.93c.49-.39,1.13-.39,1.93,0Z"/>
  <path class="st20" d="M963.35,695h-2.39c.79-.21,1.58-.21,2.39,0Z"/>
  <path class="st27" d="M966.74,694.88s.02.08.03.12h-3.35c1.01-.31,2.11-.35,3.32-.12Z"/>
  <path class="st21" d="M971,695h-4.23s-.02-.08-.03-.12l4.26.12Z"/>
</svg>