<?xml version="1.0" encoding="UTF-8"?>
<svg id="Capa_1" xmlns="http://www.w3.org/2000/svg" version="1.1" xmlns:xlink="http://www.w3.org/1999/xlink" viewBox="0 0 795 775">
  <!-- Generator: Adobe Illustrator 29.4.0, SVG Export Plug-In . SVG Version: 2.1.0 Build 152)  -->
  <defs>
    <style>
      .st0 {
        stroke: #131720;
      }

      .st0, .st1, .st2, .st3, .st4, .st5, .st6, .st7, .st8, .st9, .st10, .st11, .st12, .st13, .st14 {
        fill: none;
      }

      .st0, .st1, .st2, .st3, .st4, .st5, .st7, .st8, .st9, .st10, .st11, .st12, .st13, .st14 {
        stroke-width: 2px;
      }

      .st1 {
        stroke: #8d9198;
      }

      .st2 {
        stroke: #838595;
      }

      .st15 {
        fill: #e1ddee;
      }

      .st3 {
        stroke: #808182;
      }

      .st16 {
        fill: #242c3b;
      }

      .st17 {
        fill: #35bc79;
      }

      .st18 {
        fill: #b3b3b7;
      }

      .st4 {
        stroke: #96d9b7;
      }

      .st19 {
        fill: #fff;
      }

      .st5 {
        stroke: #f0eef7;
      }

      .st7 {
        stroke: #92969d;
      }

      .st20 {
        fill: #010205;
      }

      .st21 {
        fill: #596ff8;
      }

      .st8 {
        stroke: #7c7c7d;
      }

      .st9 {
        stroke: #a8b3f7;
      }

      .st10 {
        stroke: #2d745a;
      }

      .st11 {
        stroke: #cac8d3;
      }

      .st12 {
        stroke: #71707a;
      }

      .st13 {
        stroke: #3f4e9a;
      }

      .st22 {
        fill: #f6f6f5;
      }

      .st14 {
        stroke: #6c7079;
      }

      .st23 {
        clip-path: url(#clippath);
      }
    </style>
    <clipPath id="clippath">
      <rect class="st6" width="795" height="775"/>
    </clipPath>
  </defs>
  <g class="st23">
    <g>
      <path class="st7" d="M600.63,0c-1.71.26-3.4.57-5.07.94-6.35,1.39-10.37,5.19-12.06,11.39" vector-effect="non-scaling-stroke"/>
      <path class="st3" d="M583.5,12.33c-.83,12.13-1.06,24.26-.68,36.41" vector-effect="non-scaling-stroke"/>
      <path class="st5" d="M582.82,48.74c-1.93-.72-4.95-2.14-9.04-4.27-5.21-2.7-12.54-5.9-22-9.6-.4-.16-.78-.36-1.14-.61-.52-.35-.86-.56-1.03-.61-4.26-1.41-8.36-2.9-12.3-4.48-4.33-1.75-8.44-3.2-12.31-4.37-14.32-4.33-23.71-7.03-28.16-8.11-3.88-.95-13.18-2.88-27.91-5.81-3.11-.61-5.92-1.09-8.43-1.43-5.62-.75-8.44-1.12-8.47-1.13-3.58-.76-7.71.09-11.28-1.33-.43-.17-.88-.27-1.34-.28l-8.61-.26c-.24,0-.47-.08-.67-.19l-1.72-1c-.28-.16-.6-.24-.93-.24-38.73,0-58.23-.02-58.48-.02-1.59-.03-3.08.34-4.47,1.1-.44.24-.93.38-1.43.39l-8.15.27c-.4,0-.8.09-1.18.24-3.88,1.45-8.72.25-12.18,1.45-1.13.39-2.7.58-4.69.57-.51-.01-2.06.24-4.65.73-17.23,3.29-27.44,5.32-30.64,6.1-6.73,1.63-17.69,4.73-32.89,9.29-2.75.83-6.28,2.08-10.59,3.77-1.97.77-5.48,2.1-10.53,3.98-9.14,3.41-20.2,8.31-31.02,13.88-3.44,1.77-8.64,4.37-15.59,7.79-2.7,1.34-4.41,2.96-6.83,4.07-1.38.63-3.14,1.59-5.27,2.86-5.78,3.45-10.51,6.45-14.19,8.99-4.81,3.33-9.66,6.62-14.55,9.89-2.17,1.45-4.03,2.81-5.58,4.07-2.64,2.15-5.91,4.01-8.36,6.62-.66.7-1.67,1.44-3.02,2.21-1.42.81-2.77,1.94-4.05,3.41-.38.44-.84.8-1.35,1.08-1.51.83-2.46,1.48-2.85,1.93-3.54,4.12-8.31,7.16-12.25,11.11-10.96,11-19.73,19.8-26.32,26.41-.5.5-.93,1.07-1.28,1.69-1.07,1.89-2.62,3.61-4.65,5.15-.46.34-.85.77-1.17,1.26l-2.15,3.32c-.14.22-.31.41-.5.58-1.59,1.38-2.93,3.02-4.01,4.91-.2.36-.44.69-.72.99-1.35,1.43-2.63,2.91-3.83,4.46-10.73,13.82-20.02,27.76-27.85,41.81-2.36,4.23-4.22,7.47-5.59,9.73-1.78,2.95-3.96,7.15-6.55,12.61-1.72,3.63-4.32,8.04-5.86,12.78-.16.49-.36.96-.6,1.42-1.49,2.9-2.54,5.07-3.13,6.5-2.27,5.45-3.92,9.63-4.96,12.54-3.18,8.87-6.37,18.6-9.58,29.2-1.09,3.59-2.29,8.18-3.62,13.75-1.87,7.85-2.96,12.48-3.25,13.88-2.19,10.51-3.32,21.99-5.29,33.53-.79,4.62-.9,10.52-1.78,15.79" vector-effect="non-scaling-stroke"/>
      <path class="st7" d="M718.4,0c1.77.37,3.28,1.15,4.52,2.34,13.19,12.68,26.47,25.34,39.83,37.99,8,7.57,13.93,13.78,21.2,20.46,1.39,1.28,2.08,2.85,2.08,4.71-.1,58.15-.1,106.45,0,144.9.01,3.57-.18,7.71-1.03,10.34-3.59,11.14-13.55,11.92-23.5,11.26" vector-effect="non-scaling-stroke"/>
      <path class="st2" d="M761.51,232l-162.49-.28" vector-effect="non-scaling-stroke"/>
      <path class="st0" d="M599.02,231.72c-1.07-.8-2.36-1.25-3.85-1.35-.41-.03-.81-.13-1.18-.3l-4.04-1.86c-.22-.1-.38-.28-.45-.51-.23-.75-.9-1.43-1.99-2.04-.34-.19-.61-.48-.79-.83-1.67-3.32-2.5-5.43-2.51-6.34-.3-43.29,0-77.93-.23-121.49-.13-23.29-.1-39.28.08-47.95.28-12.93.09-25.17-.56-36.72" vector-effect="non-scaling-stroke"/>
      <path class="st0" d="M711.95,14.52c-.86-.39-1.84-.58-2.95-.58-54.55-.03-84.53-.04-89.94-.04-6.57,0-12.76.08-18.57.26-.73.02-2.06.51-3.97,1.46-.28.14-.51.36-.65.64-1.7,3.41-1.03,6.98-1.03,10.77-.02,67.71,0,126.06.07,175.06,0,5.3-2.07,11.69,3.28,15.16.94.61,2.85.91,5.73.9,22.73-.07,64.27-.08,124.62-.02,12.26.02,24.74-.43,37.21.11,4.07.17,6.72-1.41,7.94-4.76.1-.27.16-.56.17-.86.29-7.28.36-13.89.2-19.84-.05-1.98-.05-6.15.01-12.51.19-22.26.19-56.54,0-102.85-.01-1.63-.58-2.84-1.71-3.62-.23-.16-.5-.24-.77-.25-9.79-.22-21.4-.23-34.83-.03-5.69.08-9.76-.18-12.21-.78-6.44-1.59-9.27-5.17-11.22-11.64-.11-.38-.17-.77-.18-1.17l-.52-44.36c-.01-.45-.27-.86-.68-1.05" vector-effect="non-scaling-stroke"/>
      <path class="st14" d="M724.16,23.95l.04,9.52" vector-effect="non-scaling-stroke"/>
      <path class="st2" d="M724.2,33.47l.02,20.08c0,.29.05.58.14.86,2,5.81,6.4,6.84,12.57,6.83,6.89-.01,15.79,0,26.72.02.33,0,.49-.4.26-.63l-39.1-37.85c-.24-.23-.63-.1-.69.22-.05.3-.04.62.04.95" vector-effect="non-scaling-stroke"/>
      <path class="st11" d="M724.2,33.47c.34-1.22.62-.63.84,1.78.11,1.26.04,4.45-.23,9.57-.18,3.51.17,6.23.58,9.77.04.32.14.63.29.91,1.59,2.91,4.05,4.45,7.39,4.63,4.72.25,10.66.26,17.83.03,3.2-.1,6.17.37,9.56.39.77,0,1.16-.94.6-1.48l-35.5-34.37c-.22-.21-.59-.05-.57.26.01.19-.02.37-.09.54-.17.42-.39.33-.64-.26-.16-.35-.19-.78-.1-1.29" vector-effect="non-scaling-stroke"/>
      <path class="st5" d="M795,363.49c-.73-3.65-1.16-7.32-1.29-11.02-.03-.98-.14-1.95-.33-2.91-.44-2.27-.74-4.1-.91-5.47-1.75-14.19-3-22.88-3.77-26.09-1.93-8.06-3.61-15.46-5.04-22.19-.85-3.99-2.99-9.17-4.12-13.99-1.23-5.26-3.46-10.05-5.08-15.37-.96-3.17-1.86-6.06-2.69-8.67-.09-.29-.2-.56-.34-.83-1.73-3.28-2.42-5.97-3.82-8.95-.84-1.77-2.5-5.78-4.97-12.02-.49-1.24-.86-2.57-1.13-3.98" vector-effect="non-scaling-stroke"/>
      <path class="st12" d="M582.82,48.74c-.02,53.06-.03,106.15-.04,159.26,0,8.03-.23,13.87,4.26,18.92,2.87,3.23,6.86,4.83,11.98,4.8" vector-effect="non-scaling-stroke"/>
      <path class="st5" d="M795,415.88l-1.66,14.55c-.01.07-.02.15-.04.23-.51,2.13-.82,3.68-.93,4.67-1.21,10.83-2.17,18.13-2.9,21.92-4.28,22.37-10.44,44.47-18.47,66.28-.93,2.52-3.72,9.07-8.37,19.66-.43,1-.69,2.56-1.18,3.51-.83,1.61-3.81,7.58-8.95,17.93-2.27,4.55-5.21,8.37-7.31,13.34-.32.76-.74,1.48-1.25,2.12-2.14,2.71-3.67,6.3-5.81,9.23-2.14,2.95-3.4,6-5.36,8.76-7.34,10.32-13.25,18.87-19.96,27.05-2.57,3.13-4.3,5.27-5.2,6.42-1.77,2.29-3.18,3.93-4.22,4.94-1.59,1.55-3.01,3.3-4.28,5.25-.35.55-.77,1.06-1.24,1.53-15.31,15.3-23.2,23.2-23.66,23.69-1.92,2.05-4.46,4.34-7.62,6.87-2.75,2.2-5.3,4.48-7.65,6.85-.31.31-.89.83-1.75,1.54-6.43,5.35-13.3,10.63-20.61,15.84-4.07,2.91-8.21,5.82-12.41,8.74-5.23,3.64-12.45,7.88-18.59,11.74-3.03,1.9-5.67,2.98-8.35,4.72-1.92,1.25-4.02,2.42-6.29,3.51-2.87,1.37-7.76,3.81-14.66,7.31-13.96,7.1-27.15,12.27-43.2,18.23-7.33,2.72-14.46,4.52-22.4,7.07-4.96,1.59-12.82,3.56-23.58,5.93-6.78,1.49-14.48,3.02-23.11,4.59-5.71,1.04-12.04,1.82-19.01,2.33-3.23.23-10.72,1.16-22.47,2.77" vector-effect="non-scaling-stroke"/>
      <path class="st5" d="M371.87,775c-8.27-1.19-16.56-2.15-24.88-2.88-6.47-.57-13.68-1.63-21.63-3.16-11-2.13-18.07-3.56-21.22-4.3-5.47-1.29-14.08-3.62-25.83-6.99-8.33-2.39-16.4-5.1-24.21-8.13-11.16-4.33-19.06-7.58-23.69-9.76-14.71-6.92-25.52-12.32-32.43-16.19-16.53-9.28-32.75-19.96-48.66-32.05-2.24-1.7-4.01-3.55-6.19-4.88-2.02-1.23-3.34-3.23-5.51-4.54-1.15-.69-2.99-2.33-5.52-4.9-2.23-2.27-6.43-5.17-9.19-7.89-9.6-9.48-18.43-18.36-26.48-26.64-.36-.37-.68-.79-.95-1.24-1.05-1.75-2.41-3.33-4.06-4.74-.26-.22-.5-.46-.71-.73-4.84-6.07-8.96-11.24-12.37-15.52-5.27-6.62-8.43-11.31-13.05-17.81-4.54-6.4-8.61-13.51-13.11-20.43-2.13-3.29-3.74-7.18-5.45-9.95-3.23-5.21-6.02-10.45-8.37-15.7-1.45-3.23-3.62-6.18-4.62-9.27-.66-2.03-1.49-4.1-2.5-6.23-1.29-2.76-3.28-7.39-5.95-13.89-1.11-2.71-2.43-6.32-3.94-10.84-1.43-4.26-2.64-7.91-3.63-10.96-3.43-10.55-6.51-21.66-9.24-33.34-3.15-13.51-4.55-26.37-6.82-40.59-.66-4.15-.74-9.79-1.66-14.7" vector-effect="non-scaling-stroke"/>
      <path class="st2" d="M162,628.52c2.09,1.89,4.3,3.34,6.65,4.33" vector-effect="non-scaling-stroke"/>
      <path class="st12" d="M168.65,632.85c5.5,2.96,11.7,4.44,18.6,4.44,117.41.02,234.83.02,352.25,0,7.86,0,15.61-2.55,23.26-7.64" vector-effect="non-scaling-stroke"/>
      <path class="st2" d="M562.76,629.65c1.4-.37,2.89-.71,4.35-.69,7.01.13,14-.26,20.95-1.15,4.2-.54,8.25-1.39,12.15-2.55,36.6-10.91,64.13-35.77,77.11-71.9,7.41-20.61,8.74-41.5,4.01-62.65-5.47-24.47-17.49-44.97-36.04-61.5-14.18-12.63-30.31-20.95-48.39-24.98" vector-effect="non-scaling-stroke"/>
      <path class="st12" d="M596.9,404.23c-7.99-2.06-15.97-2.93-23.94-2.61-.44.01-.77-.41-.65-.84.34-1.19.51-2.36.51-3.53.01-10.54.02-92.99.03-247.34,0-8.07-.16-13.17-.48-15.28-2.24-14.87-13.21-27.35-27.43-31.31-3.79-1.06-10.98-1.59-21.59-1.58-47.99.03-155.81.04-323.46.02-11.77,0-18.68.17-20.73.52-14.39,2.45-25.98,13.14-29.99,26.99-.93,3.23-1.4,8.11-1.4,14.62-.01,142.66,0,290.7,0,444.11,0,8.09-.47,14.42,1.21,20.56,2.16,7.89,6.5,14.54,13.01,19.96" vector-effect="non-scaling-stroke"/>
      <path class="st0" d="M596.9,404.23c-5.77-.23-11.4-.74-16.9-1.53-.71-.1-2.84-.03-6.37.2-1.18.08-2.04-.65-2.59-2.19-.1-.28-.12-.59-.05-.88.4-1.82.59-2.4.63-4.28.38-20.06-.01-35.92.12-56.36.07-10.69.03-24.47-.12-41.33-.02-2.6.22-5.53.22-8.61-.04-40.12-.28-58.28.04-93.93.15-17.75.16-32.21.02-43.38-.1-7.81-.25-12.96-.45-15.44-.23-2.92-.69-5.28-1.37-7.09-1.87-4.98-3.91-10.05-7.58-14.02-4.56-4.93-11.88-10.21-18.33-10.72-2.97-.24-4.85-.63-5.64-1.16-.22-.14-.46-.24-.72-.28-2.03-.33-3.96-.49-5.81-.5-21.79-.12-89.17-.11-202.14.02-50.73.06-101.48-.51-145.1.19-1.12.02-3.04.54-5.76,1.56-.46.17-.94.28-1.42.33-2.45.22-3.89.46-4.33.73-2.42,1.46-4.83,2.6-7.24,3.42-.38.13-.73.3-1.06.53-11.4,7.85-16.7,18.81-15.91,32.89.02.25.02,5.04,0,14.38-.17,112.05-.17,227.79.01,347.22.04,29.25-.02,61.33-.17,96.26-.01,2.86.22,5.22.71,7.08.56,2.13,1.35,4.38,2.38,6.74.26.6,1,1.96,2.21,4.07.75,1.3,1.62,2.58,2.62,3.83,1.73,2.17,3.46,4.35,5.2,6.54" vector-effect="non-scaling-stroke"/>
      <path class="st0" d="M562.76,629.65c-2.08.26-4.13,1.07-6.15,2.43-.23.16-.48.28-.75.36-5.2,1.67-9.55,3.78-14.61,3.86-5.49.09-11.09-.17-17.33-.17-116.47-.05-230.42-.03-341.83.06-.14,0-.28-.02-.41-.05l-13.03-3.29" vector-effect="non-scaling-stroke"/>
      <path class="st8" d="M710.7,15.26c-27.37-.01-63.09-.01-107.15-.01-6.86,0-7.58,2.3-7.57,8.51.07,76.67.07,139,0,186.99,0,5.77,4.14,6.26,8.63,6.31,1.72.01,54.68,0,158.89-.03,1.85,0,4.84.05,6.54-.88,1.57-.85,2.35-2.18,2.36-4,.13-44.85.14-90.23.03-136.12,0-.67-.54-1.21-1.2-1.21-15.73-.02-27.14.01-34.23.08-7.04.07-11.81-.37-14.31-1.33-4.81-1.85-8.2-5.14-10.15-9.89-.91-2.21-1.34-6.36-1.31-12.47.08-15.66.1-27.45.05-35.37,0-.32-.26-.58-.58-.58" vector-effect="non-scaling-stroke"/>
      <path class="st9" d="M641.93,59.16c2.95-5.89,7.46-9.97,13.53-12.26,3.48-1.32,8.93-1.33,13.06-.68,2.89.46,8.11,3.49,11.24,2.79,2.37-.53,3.99-1.57,4.88-3.12,4.93-8.65-4.58-13.07-11.18-14.64-12.99-3.09-24.7-.56-35.15,7.6-5.78,4.51-9.9,10.21-12.37,17.08-.09.27-.49,1.34-1.19,3.21-.11.3-.38.5-.7.52-2.44.16-6.78-.44-7.76,2.57-1.67,5.16,2.02,7.08,6.3,6.85.65-.03,1.19.48,1.19,1.13v2.94c0,.75-.66,1.33-1.41,1.23-3.59-.46-6.73.84-6.59,4.99.16,5,5.62,4.29,9.19,4.6.41.03.77.28.95.65.31.63.74,1.6,1.3,2.92,8.3,19.55,32.24,28.52,51.73,19.93,6.41-2.82,10.69-10,3.25-15-4.24-2.85-10.67,1.67-15.29,2.31-9.54,1.31-17.2-2.05-22.99-10.08-.18-.25-.01-.61.3-.63,8.57-.56,16.38-.94,23.44-1.13,2.19-.07,3.68-.52,4.47-1.35,3.26-3.45-.61-6.72-3.93-6.78-7.82-.13-17.01-.48-27.56-1.05-.31-.02-.56-.28-.56-.6v-3.41c0-.4.32-.73.72-.75l30.17-.99c2.21-.08,4.07-1.69,4.44-3.87l.07-.41c.36-2.09-1.25-4-3.37-4h-29.83c-.29,0-.48-.31-.35-.57" vector-effect="non-scaling-stroke"/>
      <path class="st8" d="M752.75,133c0-3.26-2.65-5.91-5.91-5.91h-125.22c-3.26,0-5.91,2.65-5.91,5.91v1.34c0,3.26,2.65,5.91,5.91,5.91h125.22c3.26,0,5.91-2.65,5.91-5.91v-1.34" vector-effect="non-scaling-stroke"/>
      <path class="st8" d="M752.85,173.86c0-3.41-2.76-6.17-6.17-6.17h-124.78c-3.41,0-6.17,2.76-6.17,6.17v.96c0,3.41,2.76,6.17,6.17,6.17h124.78c3.41,0,6.17-2.76,6.17-6.17v-.96" vector-effect="non-scaling-stroke"/>
      <path class="st1" d="M525.38,620.37c.41-.22.34-.55-.21-1" vector-effect="non-scaling-stroke"/>
      <path class="st0" d="M525.17,619.37c.19-.05.32-.17.41-.36.09-.19.01-.42-.18-.52-4.43-2.21-9.43-4.97-15-8.28-4.05-2.4-8.24-5.74-12.55-10.01-6.69-6.63-10.6-10.65-11.75-12.08-13.65-17.09-22.14-36.6-25.47-58.54-.91-5.99-.33-11.71-.58-17.49-.18-4.25.07-8.61.76-13.08,1.68-10.89,4.9-21.33,9.66-31.31,3.05-6.39,6.33-12.18,9.86-17.37.96-1.41,2.4-3.15,4.32-5.22.22-.23.41-.49.58-.77,1.28-2.14,3.09-4.29,5.42-6.46,3.63-3.37,7.35-7.72,11.55-11.06,10.6-8.41,22.68-14.88,36.24-19.41,5.95-1.99,11.65-3.28,17.1-3.88.69-.07,1.22-.66,1.22-1.36l.41-262.69c0-.1-.01-.2-.03-.3-2.08-10.25-5.9-17.98-16.62-20.01-4.58-.87-9.22-1.19-13.92-.98-1.94.09-4.34.13-7.21.13-121.63-.03-231.74-.03-330.34-.02-3.11,0-5.63.16-7.54.49-4.21.73-10.53,2.81-13,6.7-1.99,3.13-3.45,6.38-4.39,9.74-.54,1.92-.81,5.46-.81,10.61-.02,150.59-.02,300.88.01,450.88,0,5.67,1.81,11.06,5.44,16.17,4.58,6.44,13.62,8.3,20.99,8.54,2.53.09,8.19.13,17,.12,178.83-.09,269.83-.06,272.99.09.34.01,7.85-.06,22.52-.21,7.43-.08,14.96-.03,22.6.14.32.01.58-.25.56-.57l-.04-.63" vector-effect="non-scaling-stroke"/>
      <path class="st8" d="M525.17,619.37c-2.31-.83-4.55-1.84-6.73-3.04-25.13-13.92-42.8-34.34-53.01-61.27-5.84-15.41-7.82-32.41-6.51-49.73,2.25-29.63,17.06-57.48,39.4-76.84,16-13.88,35.87-22.93,56.87-26.14.36-.06.63-.37.62-.74-.07-19.69-.08-104.89-.02-255.6,0-7.47-1.01-15.59-6.21-20.93-3.77-3.86-11.04-5.48-16.45-5.48-32.71,0-147.63,0-344.78-.01-7.07,0-12.1,1.1-17.36,4.97-.37.27-.7.6-.96.98-3.72,5.17-5.58,10.67-5.58,16.48-.02,259.35-.02,410.34.01,452.97,0,7.11,2.59,17.38,9.12,21,5.24,2.91,10.96,4.35,17.17,4.33,30.93-.11,134.34-.12,310.25-.03,8.13.01,16.25.03,24.38.08" vector-effect="non-scaling-stroke"/>
      <path class="st10" d="M560.31,613.34c53.29,5.89,101.34-33.24,107.31-87.4,5.98-54.15-32.37-102.82-85.66-108.71-53.29-5.89-101.34,33.24-107.31,87.4-5.98,54.15,32.37,102.82,85.66,108.71" vector-effect="non-scaling-stroke"/>
      <path class="st1" d="M265.21,255.76c-.23,1.86-.28,4.11-.15,6.74.93,20.21,7.29,38.32,19.1,54.35,4.25,5.77,10.09,11.47,17.52,17.11" vector-effect="non-scaling-stroke"/>
      <path class="st8" d="M301.68,333.96c15.99,11.95,33.67,18.31,53.06,19.08,31.15,1.23,63.01-12.32,81.45-38.28,11.89-16.73,17.8-35.15,17.71-55.24-.09-20.53-6.05-38.82-17.87-54.87-15.3-20.79-35.82-34.26-61.06-38.51-37.11-6.25-72.59,9-93.78,40.52-9.89,14.7-15.21,31.07-15.98,49.1" vector-effect="non-scaling-stroke"/>
      <path class="st0" d="M301.68,333.96c-.1-.39-.11-.66-.02-.79.19-.32.62-.39.91-.17,17.26,13.08,37.67,19.61,59.45,18.77,5.25-.2,8.9-.5,10.95-.9,6.32-1.25,10.21-1.78,15.39-3.44,11.39-3.65,21.71-9.1,30.96-16.35,2.29-1.79,3.96-3.57,5.03-5.33.17-.28.37-.53.61-.76,4.09-3.84,6.37-6.15,6.86-6.92,1.57-2.51,3.61-5.4,6.12-8.69,1.03-1.34,1.28-2.45,2.14-3.61.57-.75,1.13-1.64,1.68-2.65,4.41-8.11,7.37-16.65,8.86-25.64,1.27-7.65,1.92-13.05,1.95-16.21.27-26.35-8.88-48.8-27.45-67.37-11.54-11.53-24.02-19.22-39.17-23.71-6.02-1.79-10.17-2.84-12.46-3.16-24.8-3.46-50.33,2.44-70.14,18.03-3.6,2.83-6.1,5.02-7.5,6.56-3.89,4.25-7.17,8.03-9.84,11.34-3.43,4.25-6.18,8.42-8.25,12.51-2.59,5.12-4.72,9.98-6.41,14.59-1.43,3.89-2.52,8.09-3.26,12.58-.69,4.22-1.21,8.54-1.55,12.95-.03.4-.25.63-.65.69-.18.02-.41-.15-.68-.52" vector-effect="non-scaling-stroke"/>
      <path class="st8" d="M489.01,405.84c-.02-4.42-3.62-8-8.04-7.98l-247.8.86c-4.42.02-8,3.62-7.98,8.04v.68c.02,4.42,3.62,8,8.04,7.98l247.8-.86c4.42-.02,8-3.62,7.98-8.04v-.68" vector-effect="non-scaling-stroke"/>
      <path class="st1" d="M401.31,476.85c8.22.11,16.46.1,24.71-.05,2.87-.05,4.96-.9,6.29-2.54" vector-effect="non-scaling-stroke"/>
      <path class="st8" d="M432.31,474.26c2.05-2.55,2.7-5.32,1.96-8.33-1.51-6.08-6.61-6.06-12.68-6.07-17.53-.02-28.61,0-33.22.07-16.31.24-27.39.29-33.23.16-9.41-.22-18.28-.22-26.59-.01-22.26.56-38.09.35-63.29.38-1.33,0-2.78.37-4.01.38-2.71.01-11.57,0-26.56-.04-5.4,0-9.92,2.8-9.33,8.87.49,5.04,3.54,7.59,9.13,7.65,7.7.08,14.26.06,19.68-.06,9.7-.22,16.26-.34,19.67-.35,18.29-.05,36.53-.05,54.72.01,23.27.08,48.48-.2,72.75-.07" vector-effect="non-scaling-stroke"/>
      <path class="st0" d="M432.31,474.26c.62-3.83.81-6.61.58-8.33-.54-4.02-5.39-4.92-8.64-4.98-3.95-.09-15.26-.11-33.91-.07-10.34.02-21.3.6-33.33.34-19.56-.44-41.41.46-58.35.52-20.55.08-41.11.08-61.67.01-3.24-.01-5.36.19-6.35.6-4.67,1.94-5.25,7.74-2.55,11.39,1.25,1.69,3.3,2.52,6.16,2.51,19.9-.11,34.03-.81,54.4-.61,1.79.02,3.34-.04,4.67-.18,3.89-.41,7.81,0,11.68-.15,8.56-.33,13.56-.44,15-.34,12.4.82,23.9,1.09,34.5.8,15.49-.42,28.57-.52,39.25-.29,2.59.05,5.11.51,7.56,1.37" vector-effect="non-scaling-stroke"/>
      <path class="st1" d="M228.97,524.17c-1.76.97-2.92,2.39-3.47,4.24-.52,1.73-.39,3.55.4,5.46,1.71,4.13,5.36,5.97,10.95,5.54" vector-effect="non-scaling-stroke"/>
      <path class="st8" d="M236.85,539.41c10.97.27,25.17-.27,32.88-.29,42.09-.11,67.01-.09,74.77.04,3.31.06,6.22-.25,8.74-.93,7.87-2.14,8.08-13.15.26-15.53-.36-.11-.74-.16-1.11-.16-42.89.17-64.65.26-65.28.29-3.75.13-21.79.18-54.11.15-1.39,0-2.73.4-4.03,1.19" vector-effect="non-scaling-stroke"/>
      <path class="st0" d="M236.85,539.41c3.25-.81,5.97-1.22,8.18-1.25,19.13-.22,53.78-.31,103.97-.28.52.01,1.03-.05,1.52-.18,2.98-.74,5.61-1.03,6.72-3.53,1.71-3.88,1.15-6.98-1.68-9.3-1.07-.88-2.22-1.31-3.47-1.3-16.53.23-32.73.32-48.59.27-10.09-.03-15.52-.04-16.28-.05-17.27-.12-34.5,0-51.69.37-.53.01-1.63.17-3.3.47-1.37.24-2.45.09-3.26-.46" vector-effect="non-scaling-stroke"/>
      <path class="st0" d="M751.53,132.86c0-2.53-2.05-4.58-4.58-4.58h-125.52c-2.53,0-4.58,2.05-4.58,4.58v1.6c0,2.53,2.05,4.58,4.58,4.58h125.52c2.53,0,4.58-2.05,4.58-4.58v-1.6" vector-effect="non-scaling-stroke"/>
      <path class="st7" d="M422.18,308.31c.75-1.6,2.12-2.88,3.35-4.8,15.71-24.49,17.75-54.66,4.18-80.46-8.73-16.61-21.87-28.81-39.4-36.6-15.69-6.97-35.53-8.52-51.84-3.79-17.38,5.03-33.49,15.85-43.84,30.99-19.82,28.99-18.51,65.33,1.37,93.9.44.63,1.38.63,1.81,0,10.47-15.32,29.54-23.44,47.58-26.07.81-.12.94-1.24.18-1.54-10.59-4.23-18.14-11.54-22.66-21.94-5.74-13.2-5.22-25.89,1.56-38.08,6.23-11.19,15.63-18.04,28.21-20.53,14.16-2.81,28.39,3.91,37.16,14.85,6.07,7.57,9.21,15.99,9.41,25.24.41,18.61-9.91,33.06-26.62,40.81-.75.35-.56,1.46.26,1.55,12.63,1.37,25.01,5.92,34.94,13.06,5.08,3.65,9.11,8.15,12.54,13.54.44.69,1.46.62,1.81-.12" vector-effect="non-scaling-stroke"/>
      <path class="st7" d="M360.41,266.17c13.46-.73,23.76-12.78,23-26.92-.76-14.14-12.3-25.01-25.77-24.28-13.46.73-23.76,12.78-23,26.92.76,14.14,12.3,25.01,25.77,24.28" vector-effect="non-scaling-stroke"/>
      <path class="st13" d="M359.32,337.91c18.28.05,36.09-6.34,50.29-17.71.31-.25.41-.68.24-1.04-.99-2.04-2.31-3.89-3.96-5.56-12.15-12.32-29.72-17.34-46.45-17.38-16.73-.05-34.33,4.87-46.54,17.11-1.66,1.66-2.99,3.51-4,5.54-.17.36-.07.79.23,1.04,14.14,11.45,31.91,17.95,50.19,18" vector-effect="non-scaling-stroke"/>
      <path class="st0" d="M751.33,173.63c0-2.58-2.09-4.67-4.67-4.67h-125.16c-2.58,0-4.67,2.09-4.67,4.67v1.48c0,2.58,2.09,4.67,4.67,4.67h125.16c2.58,0,4.67-2.09,4.67-4.67v-1.48" vector-effect="non-scaling-stroke"/>
      <path class="st0" d="M485.16,412.13c1.75-1.83,2.6-4.03,2.55-6.59-.1-4.84-3.71-5.26-8.14-6.01-1.49-.25-3.38-.39-5.67-.41-17.01-.17-32.31.23-49.49.08-22.43-.21-39.51-.13-51.26.22-15.94.47-34.18-.6-51.55-.02-11.26.37-22.68.53-34.25.48-22.44-.11-40.22-.01-53.35.3-5.3.12-7.86,2.8-7.67,8.03,0,.32.07.64.18.94.78,2.17,2,3.77,3.66,4.8.26.16.56.25.86.25,16.88.1,31.63-.46,47.96-.47,40.51-.03,80.66-.01,120.45.04,30.51.04,52.82-.65,81.24-.73,1.01,0,2.21-.14,3.58-.41.35-.07.66-.25.9-.5" vector-effect="non-scaling-stroke"/>
      <path class="st4" d="M556.04,537.49c-.29.31-.78.33-1.08.03-5.15-5.04-11.09-10.5-17.82-16.39-1.42-1.24-2.87-2.62-4.34-4.13-2.46-2.51-5.3-5.92-8.28-6.12-6-.39-9.94,2.32-11.83,8.13-1.49,4.58,3.53,8.58,6.63,11.43,9.57,8.78,18.81,17.47,27.72,26.06,3.43,3.31,6.14,5.16,8.13,5.55,3.39.66,6.35-.43,8.86-3.28,8.44-9.56,18.45-20.54,30.02-32.93,10.92-11.68,25.06-27.9,33.47-37.56,4.52-5.19,2.05-10.11-2.84-13.57-4.08-2.89-9.11-2.64-12.4,1.07-18.28,20.6-37.03,41.17-56.24,61.71" vector-effect="non-scaling-stroke"/>
    </g>
  </g>
  <path class="st16" d="M718.4,0c1.77.37,3.28,1.15,4.52,2.34,13.19,12.68,26.47,25.34,39.83,37.99,8,7.57,13.93,13.78,21.2,20.46,1.39,1.28,2.08,2.85,2.08,4.71-.1,58.15-.1,106.45,0,144.9.01,3.57-.18,7.71-1.03,10.34-3.59,11.14-13.55,11.92-23.5,11.26l-162.49-.28c-1.07-.8-2.36-1.25-3.85-1.35-.41-.03-.81-.13-1.18-.3l-4.04-1.86c-.22-.1-.38-.28-.45-.51-.23-.75-.9-1.43-1.99-2.04-.34-.19-.61-.48-.79-.83-1.67-3.32-2.5-5.43-2.51-6.34-.3-43.29,0-77.93-.23-121.49-.13-23.29-.1-39.28.08-47.95.28-12.93.09-25.17-.56-36.72,1.69-6.2,5.71-10,12.06-11.39,1.67-.37,3.36-.68,5.07-.94h117.77ZM711.95,14.52c-.86-.39-1.84-.58-2.95-.58-54.55-.03-84.53-.04-89.94-.04-6.57,0-12.76.08-18.57.26-.73.02-2.06.51-3.97,1.46-.28.14-.51.36-.65.64-1.7,3.41-1.03,6.98-1.03,10.77-.02,67.71,0,126.06.07,175.06,0,5.3-2.07,11.69,3.28,15.16.94.61,2.85.91,5.73.9,22.73-.07,64.27-.08,124.62-.02,12.26.02,24.74-.43,37.21.11,4.07.17,6.72-1.41,7.94-4.76.1-.27.16-.56.17-.86.29-7.28.36-13.89.2-19.84-.05-1.98-.05-6.15.01-12.51.19-22.26.19-56.54,0-102.85-.01-1.63-.58-2.84-1.71-3.62-.23-.16-.5-.24-.77-.25-9.79-.22-21.4-.23-34.83-.03-5.69.08-9.76-.18-12.21-.78-6.44-1.59-9.27-5.17-11.22-11.64-.11-.38-.17-.77-.18-1.17l-.52-44.36c-.01-.45-.27-.86-.68-1.05ZM724.16,23.95l.04,9.52.02,20.08c0,.29.05.58.14.86,2,5.81,6.4,6.84,12.57,6.83,6.89-.01,15.79,0,26.72.02.33,0,.49-.4.26-.63l-39.1-37.85c-.24-.23-.63-.1-.69.22-.05.3-.04.62.04.95Z"/>
  <path class="st15" d="M582.82,48.74c-.02,53.06-.03,106.15-.04,159.26,0,8.03-.23,13.87,4.26,18.92,2.87,3.23,6.86,4.83,11.98,4.8l162.49.28c.27,1.41.64,2.74,1.13,3.98,2.47,6.24,4.13,10.25,4.97,12.02,1.4,2.98,2.09,5.67,3.82,8.95.14.27.25.54.34.83.83,2.61,1.73,5.5,2.69,8.67,1.62,5.32,3.85,10.11,5.08,15.37,1.13,4.82,3.27,10,4.12,13.99,1.43,6.73,3.11,14.13,5.04,22.19.77,3.21,2.02,11.9,3.77,26.09.17,1.37.47,3.2.91,5.47.19.96.3,1.93.33,2.91.13,3.7.56,7.37,1.29,11.02v52.39l-1.66,14.55c-.01.07-.02.15-.04.23-.51,2.13-.82,3.68-.93,4.67-1.21,10.83-2.17,18.13-2.9,21.92-4.28,22.37-10.44,44.47-18.47,66.28-.93,2.52-3.72,9.07-8.37,19.66-.43,1-.69,2.56-1.18,3.51-.83,1.61-3.81,7.58-8.95,17.93-2.27,4.55-5.21,8.37-7.31,13.34-.32.76-.74,1.48-1.25,2.12-2.14,2.71-3.67,6.3-5.81,9.23-2.14,2.95-3.4,6-5.36,8.76-7.34,10.32-13.25,18.87-19.96,27.05-2.57,3.13-4.3,5.27-5.2,6.42-1.77,2.29-3.18,3.93-4.22,4.94-1.59,1.55-3.01,3.3-4.28,5.25-.35.55-.77,1.06-1.24,1.53-15.31,15.3-23.2,23.2-23.66,23.69-1.92,2.05-4.46,4.34-7.62,6.87-2.75,2.2-5.3,4.48-7.65,6.85-.31.31-.89.83-1.75,1.54-6.43,5.35-13.3,10.63-20.61,15.84-4.07,2.91-8.21,5.82-12.41,8.74-5.23,3.64-12.45,7.88-18.59,11.74-3.03,1.9-5.67,2.98-8.35,4.72-1.92,1.25-4.02,2.42-6.29,3.51-2.87,1.37-7.76,3.81-14.66,7.31-13.96,7.1-27.15,12.27-43.2,18.23-7.33,2.72-14.46,4.52-22.4,7.07-4.96,1.59-12.82,3.56-23.58,5.93-6.78,1.49-14.48,3.02-23.11,4.59-5.71,1.04-12.04,1.82-19.01,2.33-3.23.23-10.72,1.16-22.47,2.77h-50.64c-8.27-1.19-16.56-2.15-24.88-2.88-6.47-.57-13.68-1.63-21.63-3.16-11-2.13-18.07-3.56-21.22-4.3-5.47-1.29-14.08-3.62-25.83-6.99-8.33-2.39-16.4-5.1-24.21-8.13-11.16-4.33-19.06-7.58-23.69-9.76-14.71-6.92-25.52-12.32-32.43-16.19-16.53-9.28-32.75-19.96-48.66-32.05-2.24-1.7-4.01-3.55-6.19-4.88-2.02-1.23-3.34-3.23-5.51-4.54-1.15-.69-2.99-2.33-5.52-4.9-2.23-2.27-6.43-5.17-9.19-7.89-9.6-9.48-18.43-18.36-26.48-26.64-.36-.37-.68-.79-.95-1.24-1.05-1.75-2.41-3.33-4.06-4.74-.26-.22-.5-.46-.71-.73-4.84-6.07-8.96-11.24-12.37-15.52-5.27-6.62-8.43-11.31-13.05-17.81-4.54-6.4-8.61-13.51-13.11-20.43-2.13-3.29-3.74-7.18-5.45-9.95-3.23-5.21-6.02-10.45-8.37-15.7-1.45-3.23-3.62-6.18-4.62-9.27-.66-2.03-1.49-4.1-2.5-6.23-1.29-2.76-3.28-7.39-5.95-13.89-1.11-2.71-2.43-6.32-3.94-10.84-1.43-4.26-2.64-7.91-3.63-10.96-3.43-10.55-6.51-21.66-9.24-33.34-3.15-13.51-4.55-26.37-6.82-40.59-.66-4.15-.74-9.79-1.66-14.7v-53.64c.88-5.27.99-11.17,1.78-15.79,1.97-11.54,3.1-23.02,5.29-33.53.29-1.4,1.38-6.03,3.25-13.88,1.33-5.57,2.53-10.16,3.62-13.75,3.21-10.6,6.4-20.33,9.58-29.2,1.04-2.91,2.69-7.09,4.96-12.54.59-1.43,1.64-3.6,3.13-6.5.24-.46.44-.93.6-1.42,1.54-4.74,4.14-9.15,5.86-12.78,2.59-5.46,4.77-9.66,6.55-12.61,1.37-2.26,3.23-5.5,5.59-9.73,7.83-14.05,17.12-27.99,27.85-41.81,1.2-1.55,2.48-3.03,3.83-4.46.28-.3.52-.63.72-.99,1.08-1.89,2.42-3.53,4.01-4.91.19-.17.36-.36.5-.58l2.15-3.32c.32-.49.71-.92,1.17-1.26,2.03-1.54,3.58-3.26,4.65-5.15.35-.62.78-1.19,1.28-1.69,6.59-6.61,15.36-15.41,26.32-26.41,3.94-3.95,8.71-6.99,12.25-11.11.39-.45,1.34-1.1,2.85-1.93.51-.28.97-.64,1.35-1.08,1.28-1.47,2.63-2.6,4.05-3.41,1.35-.77,2.36-1.51,3.02-2.21,2.45-2.61,5.72-4.47,8.36-6.62,1.55-1.26,3.41-2.62,5.58-4.07,4.89-3.27,9.74-6.56,14.55-9.89,3.68-2.54,8.41-5.54,14.19-8.99,2.13-1.27,3.89-2.23,5.27-2.86,2.42-1.11,4.13-2.73,6.83-4.07,6.95-3.42,12.15-6.02,15.59-7.79,10.82-5.57,21.88-10.47,31.02-13.88,5.05-1.88,8.56-3.21,10.53-3.98,4.31-1.69,7.84-2.94,10.59-3.77,15.2-4.56,26.16-7.66,32.89-9.29,3.2-.78,13.41-2.81,30.64-6.1,2.59-.49,4.14-.74,4.65-.73,1.99,0,3.56-.18,4.69-.57,3.46-1.2,8.3,0,12.18-1.45.38-.15.78-.23,1.18-.24l8.15-.27c.5,0,.99-.15,1.43-.39,1.39-.76,2.88-1.13,4.47-1.1.25,0,19.75.01,58.48.02.33,0,.65.08.93.24l1.72,1c.2.11.43.18.67.19l8.61.26c.46,0,.91.11,1.34.28,3.57,1.42,7.7.57,11.28,1.33.03.01,2.85.38,8.47,1.13,2.51.34,5.32.82,8.43,1.43,14.73,2.93,24.03,4.86,27.91,5.81,4.45,1.08,13.84,3.78,28.16,8.11,3.87,1.17,7.98,2.62,12.31,4.37,3.94,1.58,8.04,3.07,12.3,4.48.17.05.51.26,1.03.61.36.25.74.45,1.14.61,9.46,3.7,16.79,6.9,22,9.6,4.09,2.13,7.11,3.55,9.04,4.27ZM162,628.52c2.09,1.89,4.3,3.34,6.65,4.33,5.5,2.96,11.7,4.44,18.6,4.44,117.41.02,234.83.02,352.25,0,7.86,0,15.61-2.55,23.26-7.64,1.4-.37,2.89-.71,4.35-.69,7.01.13,14-.26,20.95-1.15,4.2-.54,8.25-1.39,12.15-2.55,36.6-10.91,64.13-35.77,77.11-71.9,7.41-20.61,8.74-41.5,4.01-62.65-5.47-24.47-17.49-44.97-36.04-61.5-14.18-12.63-30.31-20.95-48.39-24.98-7.99-2.06-15.97-2.93-23.94-2.61-.44.01-.77-.41-.65-.84.34-1.19.51-2.36.51-3.53.01-10.54.02-92.99.03-247.34,0-8.07-.16-13.17-.48-15.28-2.24-14.87-13.21-27.35-27.43-31.31-3.79-1.06-10.98-1.59-21.59-1.58-47.99.03-155.81.04-323.46.02-11.77,0-18.68.17-20.73.52-14.39,2.45-25.98,13.14-29.99,26.99-.93,3.23-1.4,8.11-1.4,14.62-.01,142.66,0,290.7,0,444.11,0,8.09-.47,14.42,1.21,20.56,2.16,7.89,6.5,14.54,13.01,19.96Z"/>
  <path class="st20" d="M583.5,12.33c.65,11.55.84,23.79.56,36.72-.18,8.67-.21,24.66-.08,47.95.23,43.56-.07,78.2.23,121.49,0,.91.84,3.02,2.51,6.34.18.35.45.64.79.83,1.09.61,1.76,1.29,1.99,2.04.07.23.23.41.45.51l4.04,1.86c.37.17.77.27,1.18.3,1.49.1,2.78.55,3.85,1.35-5.12.03-9.11-1.57-11.98-4.8-4.49-5.05-4.26-10.89-4.26-18.92,0-53.11.02-106.2.04-159.26-.38-12.15-.15-24.28.68-36.41Z"/>
  <path class="st20" d="M712.63,15.57l.52,44.36c0,.4.07.79.18,1.17,1.95,6.47,4.78,10.05,11.22,11.64,2.45.6,6.52.86,12.21.78,13.43-.2,25.04-.19,34.83.03.27,0,.54.09.77.25,1.13.78,1.7,1.99,1.71,3.62.19,46.31.19,80.59,0,102.85-.06,6.36-.06,10.53-.01,12.51.16,5.95.09,12.56-.2,19.84-.01.3-.07.59-.17.86-1.22,3.35-3.87,4.93-7.94,4.76-12.47-.54-24.95-.09-37.21-.11-60.35-.06-101.89-.05-124.62.02-2.88.01-4.79-.29-5.73-.9-5.35-3.47-3.28-9.86-3.28-15.16-.07-49-.09-107.35-.07-175.06,0-3.79-.67-7.36,1.03-10.77.14-.28.37-.5.65-.64,1.91-.95,3.24-1.44,3.97-1.46,5.81-.18,12-.27,18.57-.26,5.41,0,35.39.01,89.94.04,1.11,0,2.09.19,2.95.58.41.19.67.6.68,1.05ZM710.7,15.26c-27.37-.01-63.09-.01-107.15-.01-6.86,0-7.58,2.3-7.57,8.51.07,76.67.07,139,0,186.99,0,5.77,4.14,6.26,8.63,6.31,1.72.01,54.68,0,158.89-.03,1.85,0,4.84.05,6.54-.88,1.57-.85,2.35-2.18,2.36-4,.13-44.85.14-90.23.03-136.12,0-.67-.54-1.21-1.2-1.21-15.73-.02-27.14.01-34.23.08-7.04.07-11.81-.37-14.31-1.33-4.81-1.85-8.2-5.14-10.15-9.89-.91-2.21-1.34-6.36-1.31-12.47.08-15.66.1-27.45.05-35.37,0-.32-.26-.58-.58-.58Z"/>
  <path class="st22" d="M711.28,15.84c.05,7.92.03,19.71-.05,35.37-.03,6.11.4,10.26,1.31,12.47,1.95,4.75,5.34,8.04,10.15,9.89,2.5.96,7.27,1.4,14.31,1.33,7.09-.07,18.5-.1,34.23-.08.66,0,1.2.54,1.2,1.21.11,45.89.1,91.27-.03,136.12-.01,1.82-.79,3.15-2.36,4-1.7.93-4.69.88-6.54.88-104.21.03-157.17.04-158.89.03-4.49-.05-8.63-.54-8.63-6.31.07-47.99.07-110.32,0-186.99-.01-6.21.71-8.51,7.57-8.51,44.06,0,79.78,0,107.15.01.32,0,.58.26.58.58ZM641.93,59.16c2.95-5.89,7.46-9.97,13.53-12.26,3.48-1.32,8.93-1.33,13.06-.68,2.89.46,8.11,3.49,11.24,2.79,2.37-.53,3.99-1.57,4.88-3.12,4.93-8.65-4.58-13.07-11.18-14.64-12.99-3.09-24.7-.56-35.15,7.6-5.78,4.51-9.9,10.21-12.37,17.08-.09.27-.49,1.34-1.19,3.21-.11.3-.38.5-.7.52-2.44.16-6.78-.44-7.76,2.57-1.67,5.16,2.02,7.08,6.3,6.85.65-.03,1.19.48,1.19,1.13v2.94c0,.75-.66,1.33-1.41,1.23-3.59-.46-6.73.84-6.59,4.99.16,5,5.62,4.29,9.19,4.6.41.03.77.28.95.65.31.63.74,1.6,1.3,2.92,8.3,19.55,32.24,28.52,51.73,19.93,6.41-2.82,10.69-10,3.25-15-4.24-2.85-10.67,1.67-15.29,2.31-9.54,1.31-17.2-2.05-22.99-10.08-.18-.25-.01-.61.3-.63,8.57-.56,16.38-.94,23.44-1.13,2.19-.07,3.68-.52,4.47-1.35,3.26-3.45-.61-6.72-3.93-6.78-7.82-.13-17.01-.48-27.56-1.05-.31-.02-.56-.28-.56-.6v-3.41c0-.4.32-.73.72-.75l30.17-.99c2.21-.08,4.07-1.69,4.44-3.87l.07-.41c.36-2.09-1.25-4-3.37-4h-29.83c-.29,0-.48-.31-.35-.57ZM752.75,133c0-3.26-2.65-5.91-5.91-5.91h-125.22c-3.26,0-5.91,2.65-5.91,5.91v1.34c0,3.26,2.65,5.91,5.91,5.91h125.22c3.26,0,5.91-2.65,5.91-5.91v-1.34ZM752.85,173.86c0-3.41-2.76-6.17-6.17-6.17h-124.78c-3.41,0-6.17,2.76-6.17,6.17v.96c0,3.41,2.76,6.17,6.17,6.17h124.78c3.41,0,6.17-2.76,6.17-6.17v-.96Z"/>
  <path class="st15" d="M724.2,33.47c.34-1.22.62-.63.84,1.78.11,1.26.04,4.45-.23,9.57-.18,3.51.17,6.23.58,9.77.04.32.14.63.29.91,1.59,2.91,4.05,4.45,7.39,4.63,4.72.25,10.66.26,17.83.03,3.2-.1,6.17.37,9.56.39.77,0,1.16-.94.6-1.48l-35.5-34.37c-.22-.21-.59-.05-.57.26.01.19-.02.37-.09.54-.17.42-.39.33-.64-.26-.16-.35-.19-.78-.1-1.29-.08-.33-.09-.65-.04-.95.06-.32.45-.45.69-.22l39.1,37.85c.23.23.07.63-.26.63-10.93-.02-19.83-.03-26.72-.02-6.17,0-10.57-1.02-12.57-6.83-.09-.28-.14-.57-.14-.86l-.02-20.08Z"/>
  <path class="st18" d="M724.16,23.95c-.09.51-.06.94.1,1.29.25.59.47.68.64.26.07-.17.1-.35.09-.54-.02-.31.35-.47.57-.26l35.5,34.37c.56.54.17,1.48-.6,1.48-3.39-.02-6.36-.49-9.56-.39-7.17.23-13.11.22-17.83-.03-3.34-.18-5.8-1.72-7.39-4.63-.15-.28-.25-.59-.29-.91-.41-3.54-.76-6.26-.58-9.77.27-5.12.34-8.31.23-9.57-.22-2.41-.5-3-.84-1.78l-.04-9.52Z"/>
  <path class="st21" d="M641.93,59.16c-.13.26.06.57.35.57h29.83c2.12,0,3.73,1.91,3.37,4l-.07.41c-.37,2.18-2.23,3.79-4.44,3.87l-30.17.99c-.4.02-.72.35-.72.75v3.41c0,.32.25.58.56.6,10.55.57,19.74.92,27.56,1.05,3.32.06,7.19,3.33,3.93,6.78-.79.83-2.28,1.28-4.47,1.35-7.06.19-14.87.57-23.44,1.13-.31.02-.48.38-.3.63,5.79,8.03,13.45,11.39,22.99,10.08,4.62-.64,11.05-5.16,15.29-2.31,7.44,5,3.16,12.18-3.25,15-19.49,8.59-43.43-.38-51.73-19.93-.56-1.32-.99-2.29-1.3-2.92-.18-.37-.54-.62-.95-.65-3.57-.31-9.03.4-9.19-4.6-.14-4.15,3-5.45,6.59-4.99.75.1,1.41-.48,1.41-1.23v-2.94c0-.65-.54-1.16-1.19-1.13-4.28.23-7.97-1.69-6.3-6.85.98-3.01,5.32-2.41,7.76-2.57.32-.02.59-.22.7-.52.7-1.87,1.1-2.94,1.19-3.21,2.47-6.87,6.59-12.57,12.37-17.08,10.45-8.16,22.16-10.69,35.15-7.6,6.6,1.57,16.11,5.99,11.18,14.64-.89,1.55-2.51,2.59-4.88,3.12-3.13.7-8.35-2.33-11.24-2.79-4.13-.65-9.58-.64-13.06.68-6.07,2.29-10.58,6.37-13.53,12.26Z"/>
  <path class="st20" d="M596.9,404.23c-5.77-.23-11.4-.74-16.9-1.53-.71-.1-2.84-.03-6.37.2-1.18.08-2.04-.65-2.59-2.19-.1-.28-.12-.59-.05-.88.4-1.82.59-2.4.63-4.28.38-20.06-.01-35.92.12-56.36.07-10.69.03-24.47-.12-41.33-.02-2.6.22-5.53.22-8.61-.04-40.12-.28-58.28.04-93.93.15-17.75.16-32.21.02-43.38-.1-7.81-.25-12.96-.45-15.44-.23-2.92-.69-5.28-1.37-7.09-1.87-4.98-3.91-10.05-7.58-14.02-4.56-4.93-11.88-10.21-18.33-10.72-2.97-.24-4.85-.63-5.64-1.16-.22-.14-.46-.24-.72-.28-2.03-.33-3.96-.49-5.81-.5-21.79-.12-89.17-.11-202.14.02-50.73.06-101.48-.51-145.1.19-1.12.02-3.04.54-5.76,1.56-.46.17-.94.28-1.42.33-2.45.22-3.89.46-4.33.73-2.42,1.46-4.83,2.6-7.24,3.42-.38.13-.73.3-1.06.53-11.4,7.85-16.7,18.81-15.91,32.89.02.25.02,5.04,0,14.38-.17,112.05-.17,227.79.01,347.22.04,29.25-.02,61.33-.17,96.26-.01,2.86.22,5.22.71,7.08.56,2.13,1.35,4.38,2.38,6.74.26.6,1,1.96,2.21,4.07.75,1.3,1.62,2.58,2.62,3.83,1.73,2.17,3.46,4.35,5.2,6.54-6.51-5.42-10.85-12.07-13.01-19.96-1.68-6.14-1.21-12.47-1.21-20.56,0-153.41-.02-301.45,0-444.11,0-6.51.47-11.39,1.4-14.62,4.01-13.85,15.6-24.54,29.99-26.99,2.05-.35,8.96-.52,20.73-.52,167.65.02,275.47,0,323.46-.02,10.61,0,17.8.52,21.59,1.58,14.22,3.96,25.19,16.44,27.43,31.31.32,2.11.48,7.21.48,15.28,0,154.35-.02,236.8-.03,247.34,0,1.17-.17,2.34-.51,3.53-.12.43.21.85.65.84,7.97-.32,15.95.55,23.94,2.61Z"/>
  <path class="st16" d="M596.9,404.23c18.08,4.03,34.21,12.35,48.39,24.98,18.55,16.53,30.57,37.03,36.04,61.5,4.73,21.15,3.4,42.04-4.01,62.65-12.98,36.13-40.51,60.99-77.11,71.9-3.9,1.16-7.95,2.01-12.15,2.55-6.95.89-13.94,1.28-20.95,1.15-1.46-.02-2.95.32-4.35.69-2.08.26-4.13,1.07-6.15,2.43-.23.16-.48.28-.75.36-5.2,1.67-9.55,3.78-14.61,3.86-5.49.09-11.09-.17-17.33-.17-116.47-.05-230.42-.03-341.83.06-.14,0-.28-.02-.41-.05l-13.03-3.29c-2.35-.99-4.56-2.44-6.65-4.33-1.74-2.19-3.47-4.37-5.2-6.54-1-1.25-1.87-2.53-2.62-3.83-1.21-2.11-1.95-3.47-2.21-4.07-1.03-2.36-1.82-4.61-2.38-6.74-.49-1.86-.72-4.22-.71-7.08.15-34.93.21-67.01.17-96.26-.18-119.43-.18-235.17-.01-347.22.02-9.34.02-14.13,0-14.38-.79-14.08,4.51-25.04,15.91-32.89.33-.23.68-.4,1.06-.53,2.41-.82,4.82-1.96,7.24-3.42.44-.27,1.88-.51,4.33-.73.48-.05.96-.16,1.42-.33,2.72-1.02,4.64-1.54,5.76-1.56,43.62-.7,94.37-.13,145.1-.19,112.97-.13,180.35-.14,202.14-.02,1.85,0,3.78.17,5.81.5.26.04.5.14.72.28.79.53,2.67.92,5.64,1.16,6.45.51,13.77,5.79,18.33,10.72,3.67,3.97,5.71,9.04,7.58,14.02.68,1.81,1.14,4.17,1.37,7.09.2,2.48.35,7.63.45,15.44.14,11.17.13,25.63-.02,43.38-.32,35.65-.08,53.81-.04,93.93,0,3.08-.24,6.01-.22,8.61.15,16.86.19,30.64.12,41.33-.13,20.44.26,36.3-.12,56.36-.04,1.88-.23,2.46-.63,4.28-.07.29-.05.6.05.88.55,1.54,1.41,2.27,2.59,2.19,3.53-.23,5.66-.3,6.37-.2,5.5.79,11.13,1.3,16.9,1.53ZM525.38,620.37c.41-.22.34-.55-.21-1,.19-.05.32-.17.41-.36.09-.19.01-.42-.18-.52-4.43-2.21-9.43-4.97-15-8.28-4.05-2.4-8.24-5.74-12.55-10.01-6.69-6.63-10.6-10.65-11.75-12.08-13.65-17.09-22.14-36.6-25.47-58.54-.91-5.99-.33-11.71-.58-17.49-.18-4.25.07-8.61.76-13.08,1.68-10.89,4.9-21.33,9.66-31.31,3.05-6.39,6.33-12.18,9.86-17.37.96-1.41,2.4-3.15,4.32-5.22.22-.23.41-.49.58-.77,1.28-2.14,3.09-4.29,5.42-6.46,3.63-3.37,7.35-7.72,11.55-11.06,10.6-8.41,22.68-14.88,36.24-19.41,5.95-1.99,11.65-3.28,17.1-3.88.69-.07,1.22-.66,1.22-1.36l.41-262.69c0-.1-.01-.2-.03-.3-2.08-10.25-5.9-17.98-16.62-20.01-4.58-.87-9.22-1.19-13.92-.98-1.94.09-4.34.13-7.21.13-121.63-.03-231.74-.03-330.34-.02-3.11,0-5.63.16-7.54.49-4.21.73-10.53,2.81-13,6.7-1.99,3.13-3.45,6.38-4.39,9.74-.54,1.92-.81,5.46-.81,10.61-.02,150.59-.02,300.88.01,450.88,0,5.67,1.81,11.06,5.44,16.17,4.58,6.44,13.62,8.3,20.99,8.54,2.53.09,8.19.13,17,.12,178.83-.09,269.83-.06,272.99.09.34.01,7.85-.06,22.52-.21,7.43-.08,14.96-.03,22.6.14.32.01.58-.25.56-.57l-.04-.63ZM560.31,613.34c53.29,5.89,101.34-33.24,107.31-87.4,5.98-54.15-32.37-102.82-85.66-108.71-53.29-5.89-101.34,33.24-107.31,87.4-5.98,54.15,32.37,102.82,85.66,108.71Z"/>
  <path class="st20" d="M525.17,619.37c-2.31-.83-4.55-1.84-6.73-3.04-25.13-13.92-42.8-34.34-53.01-61.27-5.84-15.41-7.82-32.41-6.51-49.73,2.25-29.63,17.06-57.48,39.4-76.84,16-13.88,35.87-22.93,56.87-26.14.36-.06.63-.37.62-.74-.07-19.69-.08-104.89-.02-255.6,0-7.47-1.01-15.59-6.21-20.93-3.77-3.86-11.04-5.48-16.45-5.48-32.71,0-147.63,0-344.78-.01-7.07,0-12.1,1.1-17.36,4.97-.37.27-.7.6-.96.98-3.72,5.17-5.58,10.67-5.58,16.48-.02,259.35-.02,410.34.01,452.97,0,7.11,2.59,17.38,9.12,21,5.24,2.91,10.96,4.35,17.17,4.33,30.93-.11,134.34-.12,310.25-.03,8.13.01,16.25.03,24.38.08l.04.63c.02.32-.24.58-.56.57-7.64-.17-15.17-.22-22.6-.14-14.67.15-22.18.22-22.52.21-3.16-.15-94.16-.18-272.99-.09-8.81.01-14.47-.03-17-.12-7.37-.24-16.41-2.1-20.99-8.54-3.63-5.11-5.44-10.5-5.44-16.17-.03-150-.03-300.29-.01-450.88,0-5.15.27-8.69.81-10.61.94-3.36,2.4-6.61,4.39-9.74,2.47-3.89,8.79-5.97,13-6.7,1.91-.33,4.43-.49,7.54-.49,98.6-.01,208.71-.01,330.34.02,2.87,0,5.27-.04,7.21-.13,4.7-.21,9.34.11,13.92.98,10.72,2.03,14.54,9.76,16.62,20.01.02.1.03.2.03.3l-.41,262.69c0,.7-.53,1.29-1.22,1.36-5.45.6-11.15,1.89-17.1,3.88-13.56,4.53-25.64,11-36.24,19.41-4.2,3.34-7.92,7.69-11.55,11.06-2.33,2.17-4.14,4.32-5.42,6.46-.17.28-.36.54-.58.77-1.92,2.07-3.36,3.81-4.32,5.22-3.53,5.19-6.81,10.98-9.86,17.37-4.76,9.98-7.98,20.42-9.66,31.31-.69,4.47-.94,8.83-.76,13.08.25,5.78-.33,11.5.58,17.49,3.33,21.94,11.82,41.45,25.47,58.54,1.15,1.43,5.06,5.45,11.75,12.08,4.31,4.27,8.5,7.61,12.55,10.01,5.57,3.31,10.57,6.07,15,8.28.19.1.27.33.18.52-.09.19-.22.31-.41.36Z"/>
  <path class="st22" d="M525.17,619.37c.55.45.62.78.21,1-8.13-.05-16.25-.07-24.38-.08-175.91-.09-279.32-.08-310.25.03-6.21.02-11.93-1.42-17.17-4.33-6.53-3.62-9.11-13.89-9.12-21-.03-42.63-.03-193.62-.01-452.97,0-5.81,1.86-11.31,5.58-16.48.26-.38.59-.71.96-.98,5.26-3.87,10.29-4.97,17.36-4.97,197.15.01,312.07.01,344.78.01,5.41,0,12.68,1.62,16.45,5.48,5.2,5.34,6.21,13.46,6.21,20.93-.06,150.71-.05,235.91.02,255.6.01.37-.26.68-.62.74-21,3.21-40.87,12.26-56.87,26.14-22.34,19.36-37.15,47.21-39.4,76.84-1.31,17.32.67,34.32,6.51,49.73,10.21,26.93,27.88,47.35,53.01,61.27,2.18,1.2,4.42,2.21,6.73,3.04ZM265.21,255.76c-.23,1.86-.28,4.11-.15,6.74.93,20.21,7.29,38.32,19.1,54.35,4.25,5.77,10.09,11.47,17.52,17.11,15.99,11.95,33.67,18.31,53.06,19.08,31.15,1.23,63.01-12.32,81.45-38.28,11.89-16.73,17.8-35.15,17.71-55.24-.09-20.53-6.05-38.82-17.87-54.87-15.3-20.79-35.82-34.26-61.06-38.51-37.11-6.25-72.59,9-93.78,40.52-9.89,14.7-15.21,31.07-15.98,49.1ZM489.01,405.84c-.02-4.42-3.62-8-8.04-7.98l-247.8.86c-4.42.02-8,3.62-7.98,8.04v.68c.02,4.42,3.62,8,8.04,7.98l247.8-.86c4.42-.02,8-3.62,7.98-8.04v-.68ZM401.31,476.85c8.22.11,16.46.1,24.71-.05,2.87-.05,4.96-.9,6.29-2.54,2.05-2.55,2.7-5.32,1.96-8.33-1.51-6.08-6.61-6.06-12.68-6.07-17.53-.02-28.61,0-33.22.07-16.31.24-27.39.29-33.23.16-9.41-.22-18.28-.22-26.59-.01-22.26.56-38.09.35-63.29.38-1.33,0-2.78.37-4.01.38-2.71.01-11.57,0-26.56-.04-5.4,0-9.92,2.8-9.33,8.87.49,5.04,3.54,7.59,9.13,7.65,7.7.08,14.26.06,19.68-.06,9.7-.22,16.26-.34,19.67-.35,18.29-.05,36.53-.05,54.72.01,23.27.08,48.48-.2,72.75-.07ZM228.97,524.17c-1.76.97-2.92,2.39-3.47,4.24-.52,1.73-.39,3.55.4,5.46,1.71,4.13,5.36,5.97,10.95,5.54,10.97.27,25.17-.27,32.88-.29,42.09-.11,67.01-.09,74.77.04,3.31.06,6.22-.25,8.74-.93,7.87-2.14,8.08-13.15.26-15.53-.36-.11-.74-.16-1.11-.16-42.89.17-64.65.26-65.28.29-3.75.13-21.79.18-54.11.15-1.39,0-2.73.4-4.03,1.19Z"/>
  <path class="st20" d="M752.75,134.34c0,3.26-2.65,5.91-5.91,5.91h-125.22c-3.26,0-5.91-2.65-5.91-5.91v-1.34c0-3.26,2.65-5.91,5.91-5.91h125.22c3.26,0,5.91,2.65,5.91,5.91v1.34ZM751.53,132.86c0-2.53-2.05-4.58-4.58-4.58h-125.52c-2.53,0-4.58,2.05-4.58,4.58v1.6c0,2.53,2.05,4.58,4.58,4.58h125.52c2.53,0,4.58-2.05,4.58-4.58v-1.6Z"/>
  <rect class="st16" x="616.85" y="128.28" width="134.68" height="10.76" rx="4.58" ry="4.58"/>
  <path class="st20" d="M301.68,333.96c-.1-.39-.11-.66-.02-.79.19-.32.62-.39.91-.17,17.26,13.08,37.67,19.61,59.45,18.77,5.25-.2,8.9-.5,10.95-.9,6.32-1.25,10.21-1.78,15.39-3.44,11.39-3.65,21.71-9.1,30.96-16.35,2.29-1.79,3.96-3.57,5.03-5.33.17-.28.37-.53.61-.76,4.09-3.84,6.37-6.15,6.86-6.92,1.57-2.51,3.61-5.4,6.12-8.69,1.03-1.34,1.28-2.45,2.14-3.61.57-.75,1.13-1.64,1.68-2.65,4.41-8.11,7.37-16.65,8.86-25.64,1.27-7.65,1.92-13.05,1.95-16.21.27-26.35-8.88-48.8-27.45-67.37-11.54-11.53-24.02-19.22-39.17-23.71-6.02-1.79-10.17-2.84-12.46-3.16-24.8-3.46-50.33,2.44-70.14,18.03-3.6,2.83-6.1,5.02-7.5,6.56-3.89,4.25-7.17,8.03-9.84,11.34-3.43,4.25-6.18,8.42-8.25,12.51-2.59,5.12-4.72,9.98-6.41,14.59-1.43,3.89-2.52,8.09-3.26,12.58-.69,4.22-1.21,8.54-1.55,12.95-.03.4-.25.63-.65.69-.18.02-.41-.15-.68-.52.77-18.03,6.09-34.4,15.98-49.1,21.19-31.52,56.67-46.77,93.78-40.52,25.24,4.25,45.76,17.72,61.06,38.51,11.82,16.05,17.78,34.34,17.87,54.87.09,20.09-5.82,38.51-17.71,55.24-18.44,25.96-50.3,39.51-81.45,38.28-19.39-.77-37.07-7.13-53.06-19.08Z"/>
  <path class="st16" d="M301.68,333.96c-7.43-5.64-13.27-11.34-17.52-17.11-11.81-16.03-18.17-34.14-19.1-54.35-.13-2.63-.08-4.88.15-6.74.27.37.5.54.68.52.4-.06.62-.29.65-.69.34-4.41.86-8.73,1.55-12.95.74-4.49,1.83-8.69,3.26-12.58,1.69-4.61,3.82-9.47,6.41-14.59,2.07-4.09,4.82-8.26,8.25-12.51,2.67-3.31,5.95-7.09,9.84-11.34,1.4-1.54,3.9-3.73,7.5-6.56,19.81-15.59,45.34-21.49,70.14-18.03,2.29.32,6.44,1.37,12.46,3.16,15.15,4.49,27.63,12.18,39.17,23.71,18.57,18.57,27.72,41.02,27.45,67.37-.03,3.16-.68,8.56-1.95,16.21-1.49,8.99-4.45,17.53-8.86,25.64-.55,1.01-1.11,1.9-1.68,2.65-.86,1.16-1.11,2.27-2.14,3.61-2.51,3.29-4.55,6.18-6.12,8.69-.49.77-2.77,3.08-6.86,6.92-.24.23-.44.48-.61.76-1.07,1.76-2.74,3.54-5.03,5.33-9.25,7.25-19.57,12.7-30.96,16.35-5.18,1.66-9.07,2.19-15.39,3.44-2.05.4-5.7.7-10.95.9-21.78.84-42.19-5.69-59.45-18.77-.29-.22-.72-.15-.91.17-.09.13-.08.4.02.79ZM422.18,308.31c.75-1.6,2.12-2.88,3.35-4.8,15.71-24.49,17.75-54.66,4.18-80.46-8.73-16.61-21.87-28.81-39.4-36.6-15.69-6.97-35.53-8.52-51.84-3.79-17.38,5.03-33.49,15.85-43.84,30.99-19.82,28.99-18.51,65.33,1.37,93.9.44.63,1.38.63,1.81,0,10.47-15.32,29.54-23.44,47.58-26.07.81-.12.94-1.24.18-1.54-10.59-4.23-18.14-11.54-22.66-21.94-5.74-13.2-5.22-25.89,1.56-38.08,6.23-11.19,15.63-18.04,28.21-20.53,14.16-2.81,28.39,3.91,37.16,14.85,6.07,7.57,9.21,15.99,9.41,25.24.41,18.61-9.91,33.06-26.62,40.81-.75.35-.56,1.46.26,1.55,12.63,1.37,25.01,5.92,34.94,13.06,5.08,3.65,9.11,8.15,12.54,13.54.44.69,1.46.62,1.81-.12ZM360.41,266.17c13.46-.73,23.76-12.78,23-26.92-.76-14.14-12.3-25.01-25.77-24.28-13.46.73-23.76,12.78-23,26.92.76,14.14,12.3,25.01,25.77,24.28ZM359.32,337.91c18.28.05,36.09-6.34,50.29-17.71.31-.25.41-.68.24-1.04-.99-2.04-2.31-3.89-3.96-5.56-12.15-12.32-29.72-17.34-46.45-17.38-16.73-.05-34.33,4.87-46.54,17.11-1.66,1.66-2.99,3.51-4,5.54-.17.36-.07.79.23,1.04,14.14,11.45,31.91,17.95,50.19,18Z"/>
  <path class="st20" d="M752.85,174.82c0,3.41-2.76,6.17-6.17,6.17h-124.78c-3.41,0-6.17-2.76-6.17-6.17v-.96c0-3.41,2.76-6.17,6.17-6.17h124.78c3.41,0,6.17,2.76,6.17,6.17v.96ZM751.33,173.63c0-2.58-2.09-4.67-4.67-4.67h-125.16c-2.58,0-4.67,2.09-4.67,4.67v1.48c0,2.58,2.09,4.67,4.67,4.67h125.16c2.58,0,4.67-2.09,4.67-4.67v-1.48Z"/>
  <rect class="st16" x="616.83" y="168.96" width="134.5" height="10.82" rx="4.67" ry="4.67"/>
  <path class="st19" d="M422.18,308.31c-.35.74-1.37.81-1.81.12-3.43-5.39-7.46-9.89-12.54-13.54-9.93-7.14-22.31-11.69-34.94-13.06-.82-.09-1.01-1.2-.26-1.55,16.71-7.75,27.03-22.2,26.62-40.81-.2-9.25-3.34-17.67-9.41-25.24-8.77-10.94-23-17.66-37.16-14.85-12.58,2.49-21.98,9.34-28.21,20.53-6.78,12.19-7.3,24.88-1.56,38.08,4.52,10.4,12.07,17.71,22.66,21.94.76.3.63,1.42-.18,1.54-18.04,2.63-37.11,10.75-47.58,26.07-.43.64-1.37.64-1.81,0-19.88-28.57-21.19-64.91-1.37-93.9,10.35-15.14,26.46-25.96,43.84-30.99,16.31-4.73,36.15-3.18,51.84,3.79,17.53,7.79,30.67,19.99,39.4,36.6,13.57,25.8,11.53,55.97-4.18,80.46-1.23,1.92-2.6,3.2-3.35,4.8Z"/>
  <ellipse class="st19" cx="359.02" cy="240.57" rx="24.42" ry="25.64" transform="translate(-12.48 19.77) rotate(-3.1)"/>
  <path class="st21" d="M359.44,296.22c16.73.04,34.3,5.06,46.45,17.38,1.65,1.67,2.97,3.52,3.96,5.56.17.36.07.79-.24,1.04-14.2,11.37-32.01,17.76-50.29,17.71-18.28-.05-36.05-6.55-50.19-18-.3-.25-.4-.68-.23-1.04,1.01-2.03,2.34-3.88,4-5.54,12.21-12.24,29.81-17.16,46.54-17.11Z"/>
  <path class="st20" d="M489.01,406.52c.02,4.42-3.56,8.02-7.98,8.04l-247.8.86c-4.42.02-8.02-3.56-8.04-7.98v-.68c-.02-4.42,3.56-8.02,7.98-8.04l247.8-.86c4.42-.02,8.02,3.56,8.04,7.98v.68ZM485.16,412.13c1.75-1.83,2.6-4.03,2.55-6.59-.1-4.84-3.71-5.26-8.14-6.01-1.49-.25-3.38-.39-5.67-.41-17.01-.17-32.31.23-49.49.08-22.43-.21-39.51-.13-51.26.22-15.94.47-34.18-.6-51.55-.02-11.26.37-22.68.53-34.25.48-22.44-.11-40.22-.01-53.35.3-5.3.12-7.86,2.8-7.67,8.03,0,.32.07.64.18.94.78,2.17,2,3.77,3.66,4.8.26.16.56.25.86.25,16.88.1,31.63-.46,47.96-.47,40.51-.03,80.66-.01,120.45.04,30.51.04,52.82-.65,81.24-.73,1.01,0,2.21-.14,3.58-.41.35-.07.66-.25.9-.5Z"/>
  <path class="st16" d="M484.26,412.63c-1.37.27-2.57.41-3.58.41-28.42.08-50.73.77-81.24.73-39.79-.05-79.94-.07-120.45-.04-16.33,0-31.08.57-47.96.47-.3,0-.6-.09-.86-.25-1.66-1.03-2.88-2.63-3.66-4.8-.11-.3-.17-.62-.18-.94-.19-5.23,2.37-7.91,7.67-8.03,13.13-.31,30.91-.41,53.35-.3,11.57.05,22.99-.11,34.25-.48,17.37-.58,35.61.49,51.55.02,11.75-.35,28.83-.43,51.26-.22,17.18.15,32.48-.25,49.49-.08,2.29.02,4.18.16,5.67.41,4.43.75,8.04,1.17,8.14,6.01.05,2.56-.8,4.76-2.55,6.59-.24.25-.55.43-.9.5Z"/>
  <path class="st17" d="M560.31,613.34c-53.28-5.88-91.63-54.55-85.66-108.71,5.97-54.16,54.02-93.29,107.31-87.4,53.28,5.88,91.63,54.55,85.66,108.71-5.97,54.16-54.02,93.29-107.31,87.4ZM556.04,537.49c-.29.31-.78.33-1.08.03-5.15-5.04-11.09-10.5-17.82-16.39-1.42-1.24-2.87-2.62-4.34-4.13-2.46-2.51-5.3-5.92-8.28-6.12-6-.39-9.94,2.32-11.83,8.13-1.49,4.58,3.53,8.58,6.63,11.43,9.57,8.78,18.81,17.47,27.72,26.06,3.43,3.31,6.14,5.16,8.13,5.55,3.39.66,6.35-.43,8.86-3.28,8.44-9.56,18.45-20.54,30.02-32.93,10.92-11.68,25.06-27.9,33.47-37.56,4.52-5.19,2.05-10.11-2.84-13.57-4.08-2.89-9.11-2.64-12.4,1.07-18.28,20.6-37.03,41.17-56.24,61.71Z"/>
  <path class="st20" d="M432.31,474.26c.62-3.83.81-6.61.58-8.33-.54-4.02-5.39-4.92-8.64-4.98-3.95-.09-15.26-.11-33.91-.07-10.34.02-21.3.6-33.33.34-19.56-.44-41.41.46-58.35.52-20.55.08-41.11.08-61.67.01-3.24-.01-5.36.19-6.35.6-4.67,1.94-5.25,7.74-2.55,11.39,1.25,1.69,3.3,2.52,6.16,2.51,19.9-.11,34.03-.81,54.4-.61,1.79.02,3.34-.04,4.67-.18,3.89-.41,7.81,0,11.68-.15,8.56-.33,13.56-.44,15-.34,12.4.82,23.9,1.09,34.5.8,15.49-.42,28.57-.52,39.25-.29,2.59.05,5.11.51,7.56,1.37-24.27-.13-49.48.15-72.75.07-18.19-.06-36.43-.06-54.72-.01-3.41.01-9.97.13-19.67.35-5.42.12-11.98.14-19.68.06-5.59-.06-8.64-2.61-9.13-7.65-.59-6.07,3.93-8.88,9.33-8.87,14.99.04,23.85.05,26.56.04,1.23-.01,2.68-.38,4.01-.38,25.2-.03,41.03.18,63.29-.38,8.31-.21,17.18-.21,26.59.01,5.84.13,16.92.08,33.23-.16,4.61-.07,15.69-.09,33.22-.07,6.07.01,11.17,0,12.68,6.07.74,3.01.09,5.78-1.96,8.33Z"/>
  <path class="st16" d="M432.31,474.26c-1.33,1.64-3.42,2.49-6.29,2.54-8.25.15-16.49.16-24.71.05-2.45-.86-4.97-1.32-7.56-1.37-10.68-.23-23.76-.13-39.25.29-10.6.29-22.1.02-34.5-.8-1.44-.1-6.44.01-15,.34-3.87.15-7.79-.26-11.68.15-1.33.14-2.88.2-4.67.18-20.37-.2-34.5.5-54.4.61-2.86.01-4.91-.82-6.16-2.51-2.7-3.65-2.12-9.45,2.55-11.39.99-.41,3.11-.61,6.35-.6,20.56.07,41.12.07,61.67-.01,16.94-.06,38.79-.96,58.35-.52,12.03.26,22.99-.32,33.33-.34,18.65-.04,29.96-.02,33.91.07,3.25.06,8.1.96,8.64,4.98.23,1.72.04,4.5-.58,8.33Z"/>
  <path class="st22" d="M556.04,537.49c19.21-20.54,37.96-41.11,56.24-61.71,3.29-3.71,8.32-3.96,12.4-1.07,4.89,3.46,7.36,8.38,2.84,13.57-8.41,9.66-22.55,25.88-33.47,37.56-11.57,12.39-21.58,23.37-30.02,32.93-2.51,2.85-5.47,3.94-8.86,3.28-1.99-.39-4.7-2.24-8.13-5.55-8.91-8.59-18.15-17.28-27.72-26.06-3.1-2.85-8.12-6.85-6.63-11.43,1.89-5.81,5.83-8.52,11.83-8.13,2.98.2,5.82,3.61,8.28,6.12,1.47,1.51,2.92,2.89,4.34,4.13,6.73,5.89,12.67,11.35,17.82,16.39.3.3.79.28,1.08-.03Z"/>
  <path class="st20" d="M236.85,539.41c3.25-.81,5.97-1.22,8.18-1.25,19.13-.22,53.78-.31,103.97-.28.52.01,1.03-.05,1.52-.18,2.98-.74,5.61-1.03,6.72-3.53,1.71-3.88,1.15-6.98-1.68-9.3-1.07-.88-2.22-1.31-3.47-1.3-16.53.23-32.73.32-48.59.27-10.09-.03-15.52-.04-16.28-.05-17.27-.12-34.5,0-51.69.37-.53.01-1.63.17-3.3.47-1.37.24-2.45.09-3.26-.46,1.3-.79,2.64-1.19,4.03-1.19,32.32.03,50.36-.02,54.11-.15.63-.03,22.39-.12,65.28-.29.37,0,.75.05,1.11.16,7.82,2.38,7.61,13.39-.26,15.53-2.52.68-5.43.99-8.74.93-7.76-.13-32.68-.15-74.77-.04-7.71.02-21.91.56-32.88.29Z"/>
  <path class="st16" d="M236.85,539.41c-5.59.43-9.24-1.41-10.95-5.54-.79-1.91-.92-3.73-.4-5.46.55-1.85,1.71-3.27,3.47-4.24.81.55,1.89.7,3.26.46,1.67-.3,2.77-.46,3.3-.47,17.19-.37,34.42-.49,51.69-.37.76.01,6.19.02,16.28.05,15.86.05,32.06-.04,48.59-.27,1.25-.01,2.4.42,3.47,1.3,2.83,2.32,3.39,5.42,1.68,9.3-1.11,2.5-3.74,2.79-6.72,3.53-.49.13-1,.19-1.52.18-50.19-.03-84.84.06-103.97.28-2.21.03-4.93.44-8.18,1.25Z"/>
  <path class="st20" d="M562.76,629.65c-7.65,5.09-15.4,7.64-23.26,7.64-117.42.02-234.84.02-352.25,0-6.9,0-13.1-1.48-18.6-4.44l13.03,3.29c.13.03.27.05.41.05,111.41-.09,225.36-.11,341.83-.06,6.24,0,11.84.26,17.33.17,5.06-.08,9.41-2.19,14.61-3.86.27-.08.52-.2.75-.36,2.02-1.36,4.07-2.17,6.15-2.43Z"/>
</svg>