<?xml version="1.0" encoding="UTF-8"?>
<svg id="Capa_1" xmlns="http://www.w3.org/2000/svg" version="1.1" xmlns:xlink="http://www.w3.org/1999/xlink" viewBox="0 0 263 292">
  <!-- Generator: Adobe Illustrator 29.4.0, SVG Export Plug-In . SVG Version: 2.1.0 Build 152)  -->
  <defs>
    <style>
      .st0 {
        stroke: #a59cd6;
      }

      .st0, .st1, .st2, .st3 {
        fill: none;
      }

      .st0, .st2, .st3 {
        stroke-width: 2px;
      }

      .st4 {
        fill: #1ebd32;
      }

      .st5 {
        fill: #fbfbfb;
      }

      .st2 {
        stroke: #8ddc97;
      }

      .st6 {
        fill: #4f3cb1;
      }

      .st7 {
        fill: #131413;
      }

      .st3 {
        stroke: #878887;
      }

      .st8 {
        clip-path: url(#clippath);
      }
    </style>
    <clipPath id="clippath">
      <rect class="st1" width="263" height="292"/>
    </clipPath>
  </defs>
  <g class="st8">
    <g>
      <path class="st3" d="M0,95.72c.81,5.48,1.06,11.06.77,16.74-.04.65.04,1.31.24,1.94.87,2.81.37,5.66.71,8.78,2.17,19.85,5.47,39.75,11.82,58.28,6.77,19.76,17.01,37.71,30.7,53.84,16.33,19.24,39.47,35.46,62.07,47.13,7.09,3.67,12.86,6.61,17.29,8.84.17.09.36.13.56.13h5.39c.32,0,.63-.07.91-.21,14.65-6.99,26.24-13.06,34.77-18.21,11.78-7.12,23.79-16.2,36.02-27.23,1.77-1.59,3.58-3.45,5.42-5.56.2-.23.52-.32.81-.22,5.39,1.78,8.67,2.67,9.82,2.68,1.04.01,3.75.05,8.14.11,3.04.04,5.72-.23,8.05-.82,11.89-3,22.55-13.24,26.41-24.81.96-2.88,1.64-5.14,2.03-6.79.03-.12.04-.24.05-.37l.06-8.62c0-.55-.1-1.09-.29-1.61-.19-.44-.42-1.26-.67-2.46-2.27-10.71-7.9-18.98-16.91-24.81-.27-.17-.4-.49-.33-.79,3.29-15.67,6.23-31.4,7.73-47.15.21-2.21.32-3.39.32-3.56.02-3.19.86-5.7.73-8.88-.14-3.55.07-6.59.63-9.11.03-.12.04-.24.04-.37v-43.3c0-.19-.02-.37-.07-.56-.97-3.74-.71-7.45-.52-11.09.12-2.22-.73-3.78-2.83-4.49-.24-.08-.49-.12-.74-.11-6.49.27-13.2-.09-20.12-1.07-9.21-1.31-17.67-3.01-25.4-5.1-25.59-6.93-51.83-18.92-73.44-35.64-.38-.29-.85-.45-1.34-.45h-3.79c-.45,0-.89.15-1.25.43-10.37,8.17-22.87,15.6-37.5,22.29-21.81,9.96-43.67,16.31-65.57,19.04-5.47.69-9.18.51-14.98.52-4.46,0-5.13,2.86-5.07,6.91.09,6.76.82,13.19-.67,19.02" vector-effect="non-scaling-stroke"/>
      <path class="st3" d="M205.14,150.2c7.66,2.92,18.15,9.1,22.45,16.35.13.22.35.38.6.43l8.71,1.77c.24.04.47-.11.53-.35,4.05-17.89,6.73-35.99,8.05-54.31.17-2.37-.03-4.17.33-6.35.64-3.9.35-6.13.57-10.48.75-14.73.8-26.82.15-36.27-.24-3.45-.29-6.6-.16-9.46.03-.62-.44-1.14-1.06-1.17-10.42-.49-20.45-1.67-30.09-3.54-32.05-6.22-61.22-18.94-87.49-38.16-.53-.39-1.25-.39-1.77.01-11.17,8.4-22.84,15.32-35.01,20.75-20.71,9.24-41.35,15.53-61.9,18.86-7.55,1.22-14.1,1.91-19.64,2.06-.89.03-1.59.75-1.59,1.63-.02,5.59-.14,10.7-.36,15.32-.56,11.99-.59,23.99-.1,35.98.55,13.25,1.6,25.2,3.16,35.85,5.66,38.44,21.32,75.17,49.5,102.16,19.49,18.66,40.84,30.23,66.35,43.01.35.18.75.18,1.1.02,12.85-6,23.07-11.15,30.65-15.44,10.4-5.89,21.15-13.56,32.26-23.01,3.46-2.95,6.07-5.85,10.1-9.86.27-.27.24-.71-.07-.94-13.69-10.14-17.53-26.05-12.88-42.22,3.94-13.73,16.78-23.39,30.73-25.42.3-.04.42-.42.19-.63-5.41-4.97-11.7-8.43-18.85-10.36-7.43-2.01-14.82-1.51-22.17,1.5-16.21,6.63-25.22,18.61-27.01,35.94-.19,1.86-1.9,3.18-3.75,2.9l-.17-.03c-1.93-.29-3.32-2.02-3.18-3.97,1.39-20.15,14.43-35.81,33.09-42.37.19-.07.22-.33.04-.44-8.17-4.82-12.99-11.38-14.44-19.67-2.74-15.69,5.95-29.68,21.47-33.41,10.55-2.54,19.45-.4,26.69,6.41,9.54,9,12.26,22.66,6.46,34.31-2.41,4.83-6.25,8.87-11.54,12.1-.2.12-.17.42.05.5" vector-effect="non-scaling-stroke"/>
      <path class="st3" d="M211.4,131.9c3.95-11.33-2.21-23.77-13.74-27.78-11.53-4.02-24.08,1.91-28.02,13.24-3.95,11.33,2.21,23.77,13.74,27.78,11.53,4.02,24.08-1.91,28.02-13.24" vector-effect="non-scaling-stroke"/>
      <path class="st3" d="M254.84,203.87c-.62-16.96-15.03-30.2-32.19-29.57-17.15.63-30.55,14.89-29.93,31.85.62,16.96,15.03,30.2,32.19,29.57,17.15-.63,30.55-14.89,29.93-31.85" vector-effect="non-scaling-stroke"/>
      <path class="st0" d="M64.17,81.77l-25.76,54.43c-.24.52-.81.82-1.38.73-2.06-.33-3.52.26-4.38,1.78-.17.3-.27.64-.3.98-.12,1.47.2,3.89.97,7.24,8.75,38.49,60.52,38.35,72.82,2.23,1.24-3.64,4.63-12.54-2.7-12.26-.75.03-1.45-.39-1.77-1.07l-25.53-54.33c-.07-.15.04-.32.21-.32h46.88c.26,0,.47.21.47.46v126.26c0,.37-.29.66-.66.67-3.07.04-6.46.03-10.17-.04-5.15-.09-8.71.16-10.7.73-6.99,2.01-11.39,6.92-13.18,14.75-.75,3.26-.28,6.96,3.52,6.96,7.15,0,29.21,0,66.17,0,3.65,0,6.56-.72,5.79-4.95-2.29-12.74-10.72-17.82-22.73-17.5-3.51.09-7.07.09-10.67,0-.16-.01-.29-.14-.29-.3v-126.7c0-.19.15-.34.34-.34h64.06c1.88,0,3.41-1.53,3.41-3.41v-.59c0-2-1.63-3.62-3.63-3.62h-63.62c-.21,0-.38-.17-.37-.37l.12-8.73c.03-2.06-1.57-3.77-3.63-3.89l-.3-.02c-1.97-.14-3.64,1.42-3.64,3.39v9.2c0,.24-.19.43-.43.43h-63.67c-1.89,0-3.5,1.39-3.76,3.27l-.04.32c-.3,2.13,1.36,4.03,3.5,4.02h4.68c.3,0,.5.32.37.59" vector-effect="non-scaling-stroke"/>
      <path class="st0" d="M45.92,136.98c-.1.22.05.47.3.47l47.12.08c.25,0,.41-.25.3-.47l-23.47-49.7c-.12-.25-.48-.25-.6,0l-23.65,49.62" vector-effect="non-scaling-stroke"/>
      <path class="st0" d="M99.38,144.19h-58.71c-.2,0-.34.18-.3.37,2.18,10.14,7.69,17.36,16.54,21.67,8.25,4.03,19.88,3.65,27.86-1.22,7.45-4.55,12.48-11.28,15.08-20.19.09-.32-.14-.63-.47-.63" vector-effect="non-scaling-stroke"/>
      <path class="st0" d="M126.25,224.22c18.08.02,28.1,0,30.05,0,.21-.01.34-.21.26-.4-2.26-5.35-6.37-8.16-12.32-8.44-.23,0-6.23-.02-17.98-.03-11.76-.02-17.76-.02-17.99,0-5.95.27-10.07,3.07-12.34,8.41-.08.19.05.4.26.4,1.95.03,11.97.06,30.06.08" vector-effect="non-scaling-stroke"/>
      <path class="st2" d="M217.36,212.32l-8.56-8.32c-1.34-1.3-3.5-1.21-4.72.2l-.12.15c-1.22,1.44-1.16,3.57.12,4.95,1.33,1.43,4.48,4.61,9.45,9.54,2.15,2.14,4.74,3.7,7.08,1.21,10.95-11.59,18.18-19.33,21.71-23.2,1.21-1.33,1.15-3.39-.14-4.64l-.09-.09c-1.4-1.37-3.66-1.32-5.01.1l-19.17,20.09c-.15.15-.4.16-.55.01" vector-effect="non-scaling-stroke"/>
    </g>
  </g>
  <path class="st7" d="M0,95.72v-26.71c1.49-5.83.76-12.26.67-19.02-.06-4.05.61-6.9,5.07-6.91,5.8-.01,9.51.17,14.98-.52,21.9-2.73,43.76-9.08,65.57-19.04,14.63-6.69,27.13-14.12,37.5-22.29.36-.28.8-.43,1.25-.43h3.79c.49,0,.96.16,1.34.45,21.61,16.72,47.85,28.71,73.44,35.64,7.73,2.09,16.19,3.79,25.4,5.1,6.92.98,13.63,1.34,20.12,1.07.25-.01.5.03.74.11,2.1.71,2.95,2.27,2.83,4.49-.19,3.64-.45,7.35.52,11.09.05.19.07.37.07.56v43.3c0,.13,0,.25-.04.37-.56,2.52-.77,5.56-.63,9.11.13,3.18-.71,5.69-.73,8.88,0,.17-.11,1.35-.32,3.56-1.5,15.75-4.44,31.48-7.73,47.15-.07.3.06.62.33.79,9.01,5.83,14.64,14.1,16.91,24.81.25,1.2.48,2.02.67,2.46.19.52.29,1.06.29,1.61l-.06,8.62c-.01.13-.02.25-.05.37-.39,1.65-1.07,3.91-2.03,6.79-3.86,11.57-14.52,21.81-26.41,24.81-2.33.59-5.01.86-8.05.82-4.39-.06-7.1-.1-8.14-.11-1.15,0-4.43-.9-9.82-2.68-.29-.1-.61,0-.81.22-1.84,2.11-3.65,3.97-5.42,5.56-12.23,11.03-24.24,20.11-36.02,27.23-8.53,5.15-20.12,11.22-34.77,18.21-.28.14-.59.21-.91.21h-5.39c-.2,0-.39-.04-.56-.13-4.43-2.23-10.2-5.17-17.29-8.84-22.6-11.67-45.74-27.89-62.07-47.13-13.69-16.13-23.93-34.08-30.7-53.84-6.35-18.53-9.65-38.43-11.82-58.28-.34-3.12.16-5.97-.71-8.78-.2-.63-.28-1.29-.24-1.94.29-5.68.04-11.26-.77-16.74ZM205.14,150.2c7.66,2.92,18.15,9.1,22.45,16.35.13.22.35.38.6.43l8.71,1.77c.24.04.47-.11.53-.35,4.05-17.89,6.73-35.99,8.05-54.31.17-2.37-.03-4.17.33-6.35.64-3.9.35-6.13.57-10.48.75-14.73.8-26.82.15-36.27-.24-3.45-.29-6.6-.16-9.46.03-.62-.44-1.14-1.06-1.17-10.42-.49-20.45-1.67-30.09-3.54-32.05-6.22-61.22-18.94-87.49-38.16-.53-.39-1.25-.39-1.77.01-11.17,8.4-22.84,15.32-35.01,20.75-20.71,9.24-41.35,15.53-61.9,18.86-7.55,1.22-14.1,1.91-19.64,2.06-.89.03-1.59.75-1.59,1.63-.02,5.59-.14,10.7-.36,15.32-.56,11.99-.59,23.99-.1,35.98.55,13.25,1.6,25.2,3.16,35.85,5.66,38.44,21.32,75.17,49.5,102.16,19.49,18.66,40.84,30.23,66.35,43.01.35.18.75.18,1.1.02,12.85-6,23.07-11.15,30.65-15.44,10.4-5.89,21.15-13.56,32.26-23.01,3.46-2.95,6.07-5.85,10.1-9.86.27-.27.24-.71-.07-.94-13.69-10.14-17.53-26.05-12.88-42.22,3.94-13.73,16.78-23.39,30.73-25.42.3-.04.42-.42.19-.63-5.41-4.97-11.7-8.43-18.85-10.36-7.43-2.01-14.82-1.51-22.17,1.5-16.21,6.63-25.22,18.61-27.01,35.94-.19,1.86-1.9,3.18-3.75,2.9l-.17-.03c-1.93-.29-3.32-2.02-3.18-3.97,1.39-20.15,14.43-35.81,33.09-42.37.19-.07.22-.33.04-.44-8.17-4.82-12.99-11.38-14.44-19.67-2.74-15.69,5.95-29.68,21.47-33.41,10.55-2.54,19.45-.4,26.69,6.41,9.54,9,12.26,22.66,6.46,34.31-2.41,4.83-6.25,8.87-11.54,12.1-.2.12-.17.42.05.5ZM211.4,131.9c3.95-11.33-2.21-23.77-13.74-27.78-11.53-4.02-24.08,1.91-28.02,13.24-3.95,11.33,2.21,23.77,13.74,27.78,11.53,4.02,24.08-1.91,28.02-13.24ZM254.84,203.87c-.62-16.96-15.03-30.2-32.19-29.57-17.15.63-30.55,14.89-29.93,31.85.62,16.96,15.03,30.2,32.19,29.57,17.15-.63,30.55-14.89,29.93-31.85Z"/>
  <path class="st5" d="M205.09,149.7c5.29-3.23,9.13-7.27,11.54-12.1,5.8-11.65,3.08-25.31-6.46-34.31-7.24-6.81-16.14-8.95-26.69-6.41-15.52,3.73-24.21,17.72-21.47,33.41,1.45,8.29,6.27,14.85,14.44,19.67.18.11.15.37-.04.44-18.66,6.56-31.7,22.22-33.09,42.37-.14,1.95,1.25,3.68,3.18,3.97l.17.03c1.85.28,3.56-1.04,3.75-2.9,1.79-17.33,10.8-29.31,27.01-35.94,7.35-3.01,14.74-3.51,22.17-1.5,7.15,1.93,13.44,5.39,18.85,10.36.23.21.11.59-.19.63-13.95,2.03-26.79,11.69-30.73,25.42-4.65,16.17-.81,32.08,12.88,42.22.31.23.34.67.07.94-4.03,4.01-6.64,6.91-10.1,9.86-11.11,9.45-21.86,17.12-32.26,23.01-7.58,4.29-17.8,9.44-30.65,15.44-.35.16-.75.16-1.1-.02-25.51-12.78-46.86-24.35-66.35-43.01-28.18-26.99-43.84-63.72-49.5-102.16-1.56-10.65-2.61-22.6-3.16-35.85-.49-11.99-.46-23.99.1-35.98.22-4.62.34-9.73.36-15.32,0-.88.7-1.6,1.59-1.63,5.54-.15,12.09-.84,19.64-2.06,20.55-3.33,41.19-9.62,61.9-18.86,12.17-5.43,23.84-12.35,35.01-20.75.52-.4,1.24-.4,1.77-.01,26.27,19.22,55.44,31.94,87.49,38.16,9.64,1.87,19.67,3.05,30.09,3.54.62.03,1.09.55,1.06,1.17-.13,2.86-.08,6.01.16,9.46.65,9.45.6,21.54-.15,36.27-.22,4.35.07,6.58-.57,10.48-.36,2.18-.16,3.98-.33,6.35-1.32,18.32-4,36.42-8.05,54.31-.06.24-.29.39-.53.35l-8.71-1.77c-.25-.05-.47-.21-.6-.43-4.3-7.25-14.79-13.43-22.45-16.35-.22-.08-.25-.38-.05-.5ZM64.17,81.77l-25.76,54.43c-.24.52-.81.82-1.38.73-2.06-.33-3.52.26-4.38,1.78-.17.3-.27.64-.3.98-.12,1.47.2,3.89.97,7.24,8.75,38.49,60.52,38.35,72.82,2.23,1.24-3.64,4.63-12.54-2.7-12.26-.75.03-1.45-.39-1.77-1.07l-25.53-54.33c-.07-.15.04-.32.21-.32h46.88c.26,0,.47.21.47.46v126.26c0,.37-.29.66-.66.67-3.07.04-6.46.03-10.17-.04-5.15-.09-8.71.16-10.7.73-6.99,2.01-11.39,6.92-13.18,14.75-.75,3.26-.28,6.96,3.52,6.96,7.15,0,29.21,0,66.17,0,3.65,0,6.56-.72,5.79-4.95-2.29-12.74-10.72-17.82-22.73-17.5-3.51.09-7.07.09-10.67,0-.16-.01-.29-.14-.29-.3v-126.7c0-.19.15-.34.34-.34h64.06c1.88,0,3.41-1.53,3.41-3.41v-.59c0-2-1.63-3.62-3.63-3.62h-63.62c-.21,0-.38-.17-.37-.37l.12-8.73c.03-2.06-1.57-3.77-3.63-3.89l-.3-.02c-1.97-.14-3.64,1.42-3.64,3.39v9.2c0,.24-.19.43-.43.43h-63.67c-1.89,0-3.5,1.39-3.76,3.27l-.04.32c-.3,2.13,1.36,4.03,3.5,4.02h4.68c.3,0,.5.32.37.59Z"/>
  <path class="st6" d="M64.17,81.77c.13-.27-.07-.59-.37-.59h-4.68c-2.14.01-3.8-1.89-3.5-4.02l.04-.32c.26-1.88,1.87-3.27,3.76-3.27h63.67c.24,0,.43-.19.43-.43v-9.2c0-1.97,1.67-3.53,3.64-3.39l.3.02c2.06.12,3.66,1.83,3.63,3.89l-.12,8.73c0,.2.16.37.37.37h63.62c2,0,3.63,1.62,3.63,3.62v.59c0,1.88-1.53,3.41-3.41,3.41h-64.06c-.19,0-.34.15-.34.34v126.7c0,.16.13.29.29.3,3.6.1,7.16.1,10.67,0,12.01-.32,20.44,4.76,22.73,17.5.77,4.23-2.14,4.95-5.79,4.95-36.96,0-59.02-.02-66.17,0-3.8,0-4.27-3.7-3.52-6.96,1.79-7.83,6.19-12.74,13.18-14.75,1.99-.57,5.55-.82,10.7-.73,3.71.07,7.1.08,10.17.04.37-.01.66-.3.66-.67v-126.26c0-.25-.21-.46-.47-.46h-46.88c-.17,0-.28.17-.21.32l25.53,54.33c.32.68,1.02,1.1,1.77,1.07,7.33-.28,3.94,8.62,2.7,12.26-12.3,36.12-64.07,36.26-72.82-2.23-.77-3.35-1.09-5.77-.97-7.24.03-.34.13-.68.3-.98.86-1.52,2.32-2.11,4.38-1.78.57.09,1.14-.21,1.38-.73l25.76-54.43ZM45.92,136.98c-.1.22.05.47.3.47l47.12.08c.25,0,.41-.25.3-.47l-23.47-49.7c-.12-.25-.48-.25-.6,0l-23.65,49.62ZM99.38,144.19h-58.71c-.2,0-.34.18-.3.37,2.18,10.14,7.69,17.36,16.54,21.67,8.25,4.03,19.88,3.65,27.86-1.22,7.45-4.55,12.48-11.28,15.08-20.19.09-.32-.14-.63-.47-.63ZM126.25,224.22c18.08.02,28.1,0,30.05,0,.21-.01.34-.21.26-.4-2.26-5.35-6.37-8.16-12.32-8.44-.23,0-6.23-.02-17.98-.03-11.76-.02-17.76-.02-17.99,0-5.95.27-10.07,3.07-12.34,8.41-.08.19.05.4.26.4,1.95.03,11.97.06,30.06.08Z"/>
  <path class="st5" d="M45.92,136.98l23.65-49.62c.12-.25.48-.25.6,0l23.47,49.7c.11.22-.05.47-.3.47l-47.12-.08c-.25,0-.4-.25-.3-.47Z"/>
  <ellipse class="st5" cx="190.52" cy="124.63" rx="21.72" ry="22.11" transform="translate(10.17 263.57) rotate(-70.8)"/>
  <path class="st5" d="M99.85,144.82c-2.6,8.91-7.63,15.64-15.08,20.19-7.98,4.87-19.61,5.25-27.86,1.22-8.85-4.31-14.36-11.53-16.54-21.67-.04-.19.1-.37.3-.37h58.71c.33,0,.56.31.47.63Z"/>
  <path class="st5" d="M254.84,203.87c.62,16.96-12.78,31.22-29.93,31.85-17.16.63-31.57-12.61-32.19-29.57-.62-16.96,12.78-31.22,29.93-31.85,17.16-.63,31.57,12.61,32.19,29.57ZM217.36,212.32l-8.56-8.32c-1.34-1.3-3.5-1.21-4.72.2l-.12.15c-1.22,1.44-1.16,3.57.12,4.95,1.33,1.43,4.48,4.61,9.45,9.54,2.15,2.14,4.74,3.7,7.08,1.21,10.95-11.59,18.18-19.33,21.71-23.2,1.21-1.33,1.15-3.39-.14-4.64l-.09-.09c-1.4-1.37-3.66-1.32-5.01.1l-19.17,20.09c-.15.15-.4.16-.55.01Z"/>
  <path class="st4" d="M217.36,212.32c.15.15.4.14.55-.01l19.17-20.09c1.35-1.42,3.61-1.47,5.01-.1l.09.09c1.29,1.25,1.35,3.31.14,4.64-3.53,3.87-10.76,11.61-21.71,23.2-2.34,2.49-4.93.93-7.08-1.21-4.97-4.93-8.12-8.11-9.45-9.54-1.28-1.38-1.34-3.51-.12-4.95l.12-.15c1.22-1.41,3.38-1.5,4.72-.2l8.56,8.32Z"/>
  <path class="st5" d="M126.26,215.34c11.75.01,17.75.02,17.98.03,5.95.28,10.06,3.09,12.32,8.44.08.19-.05.39-.26.4-1.95.02-11.97.03-30.05,0-18.09-.02-28.11-.05-30.06-.08-.21,0-.34-.21-.26-.4,2.27-5.34,6.39-8.14,12.34-8.41.23,0,6.23,0,17.99,0Z"/>
</svg>