<?xml version="1.0" encoding="UTF-8"?>
<svg id="Capa_1" xmlns="http://www.w3.org/2000/svg" version="1.1" xmlns:xlink="http://www.w3.org/1999/xlink" viewBox="0 0 289 267">
  <!-- Generator: Adobe Illustrator 29.4.0, SVG Export Plug-In . SVG Version: 2.1.0 Build 152)  -->
  <defs>
    <style>
      .st0 {
        stroke: #3b2ca5;
      }

      .st0, .st1, .st2, .st3, .st4 {
        fill: none;
      }

      .st0, .st2, .st3, .st4 {
        stroke-width: 2px;
      }

      .st5 {
        fill: #26149c;
      }

      .st2 {
        stroke: #7f7f7f;
      }

      .st6 {
        fill: #5043ad;
      }

      .st3 {
        stroke: #9289cd;
      }

      .st4 {
        stroke: #a7a0d5;
      }

      .st7 {
        clip-path: url(#clippath);
      }
    </style>
    <clipPath id="clippath">
      <rect class="st1" width="289" height="267"/>
    </clipPath>
  </defs>
  <g class="st7">
    <g>
      <path class="st4" d="M230.29,55.16c.09.09.1.22.01.39-.05.1-.17.17-.29.16-.15,0-.3-.08-.47-.19" vector-effect="non-scaling-stroke"/>
      <path class="st3" d="M229.54,55.52c-23.6-31.99-59.01-50.11-98.75-50.1-17.01,0-33.04,3.5-48.09,10.49-25.16,11.68-45.73,32.01-57.09,57.23-4.47,9.93-7.36,20.47-8.66,31.64-1.17,9.93-1.21,19.36-.13,28.27,2.1,17.41,7.57,33.18,16.41,47.31,19.56,31.25,51.46,50.91,88.34,54.23,33.27,2.99,66-7.84,90.05-31.21,20.54-19.95,32.14-44.33,34.8-73.13.25-2.72.36-9.28.32-19.67-.01-2.54-.75-5.08-3-5.84-6.68-2.25-8.54,2.55-8.53,8.42,0,9.17-.22,15.63-.67,19.36-2.17,17.97-8.15,33.83-17.94,47.57-14.24,19.98-33.1,33.24-56.58,39.77-22.27,6.2-47.8,4.49-68.98-4.58-31.37-13.43-54.36-41.15-61.33-74.75-3.22-15.56-3-30.71.66-45.45C39.7,57.5,68.86,28.84,106.32,19.85c34.36-8.24,70.1.94,96.48,23.8,6.04,5.23,11.43,11.5,16.89,18.39.32.4-.11.96-.58.75-6.06-2.71-11.32-4.95-15.79-6.74-4.77-1.91-8.9,2.64-7.48,7.41.1.33.26.64.47.92,1.29,1.64,2.62,2.75,4,3.33,12.71,5.31,22.07,9.28,28.07,11.91,4.3,1.89,8.21,2.84,10.78-1.38.18-.3.31-.64.39-.98.44-1.95.73-4.07.86-6.34.39-6.67,1.24-12.43,2.44-24.95.29-2.91.35-4.98.2-6.21-.74-5.92-8.76-6.77-11.08-1.14-.11.26-.17.53-.2.82l-1.48,15.72" vector-effect="non-scaling-stroke"/>
      <path class="st0" d="M229.54,55.52c-.29.51-.72.58-1.29.21-1.87-1.21-3.98-4.74-5.04-5.97-11.97-13.83-25.2-24.17-39.68-31.02-22.05-10.44-45.84-13.84-71.35-10.19-7.71,1.1-14.92,2.96-21.63,5.59-7.73,3.03-14.42,6.32-20.07,9.87-19.49,12.27-34.1,29.13-43.82,50.59-2.57,5.67-4.62,13.2-6.06,18.42-1.27,4.61-2.09,9.68-2.45,15.23-.85,13.1-.56,26.88,2.97,39.36,1.61,5.67,3.25,10.79,4.94,15.35.34.92,1.79,3.95,4.36,9.1,1.73,3.47,3.37,6.4,4.92,8.79,14.05,21.61,33.07,36.83,57.04,45.68,4.37,1.61,9.24,2.96,14.61,4.03,7.15,1.44,12.14,2.28,14.96,2.52,19.51,1.66,38.14-1.34,55.88-9.01,36.53-15.78,61.99-50.34,66.6-89.6.76-6.51,1.02-14.84.79-25.01-.05-2.09-1.77-3.76-3.87-3.75h-.18c-2.19.02-4,1.73-4.13,3.92-.23,3.95-.34,7.33-.34,10.12.01,10.83-1.24,20.73-3.76,29.71-.77,2.75-2.55,7.67-5.35,14.74-1.22,3.07-3.17,5.55-4.84,8.88-.93,1.85-2.26,4.01-3.98,6.48-6.11,8.77-13.39,16.62-21.86,23.56-3.38,2.77-7.78,5.15-10.12,6.84-2.56,1.85-5.21,3.35-7.95,4.5-4.12,1.73-10.63,5.08-15.88,6.31-2.65.62-6.39,1.44-11.21,2.45-10.91,2.31-21.91,2.67-32.98,1.08-9.06-1.3-16.09-2.89-21.08-4.78-5.03-1.91-9.38-3.72-13.03-5.45-2.71-1.27-4.87-2.72-7.21-4.1-11.16-6.61-20.73-15.01-28.71-25.2-12.37-15.81-19.78-33.62-22.25-53.44-.22-1.78-.34-4-.35-6.67-.03-5.83-.24-11.38.33-16.67,1.29-11.78,4.27-22.49,8.94-32.14,10.85-22.41,27.26-39.06,49.23-49.96,17.43-8.63,37.32-11.74,56.69-10.26,3.33.25,6.49,1.08,10.17,1.6,2.3.33,4.82.86,7.57,1.59,19.9,5.32,37.01,15.29,51.34,29.9,3.71,3.78,7.72,9.16,10.69,12.7.35.42.06,1.07-.43.96-.21-.05-.4.05-.59.28-.16.21-.2.49-.11.74.05.12.08.21.09.26.16.5-.34.95-.82.75l-16.74-7.03c-.11-.04-.21-.07-.32-.09-1.96-.36-3.37.15-4.22,1.53-3.62,5.88,4.96,8.39,10.03,10.37,7.1,2.78,13.93,5.92,19.94,8.42,3.92,1.63,9.83,4.18,10.38-2.61.87-10.57,1.96-21.66,3.29-33.26.25-2.2-1.11-4.27-3.23-4.93l-.26-.08c-2.02-.67-4.14.68-4.39,2.79l-1.83,15.21c-.07.59-.47,1.09-1.02,1.3-.04.02-.23-.27-.58-.87" vector-effect="non-scaling-stroke"/>
      <path class="st2" d="M83.29,122.62v4.12c-.02.38-.33.67-.71.67h-13.01c-.34,0-.61.28-.61.62v8.89c0,.36.29.65.64.65h14.89c.36,0,.69.23.8.58,7.09,21.71,25.74,34.82,48.44,35.71,16.6.65,31.41-3.99,42.31-16.42.08-.09.07-.23,0-.31l-11.18-11.18c-.26-.26-.69-.26-.95.01-8.41,8.95-18.88,12.65-31.41,11.12-12.29-1.5-21.32-7.76-27.08-18.77-.18-.33.06-.73.44-.73h39.44c.25,0,.45-.2.45-.45v-9.28c0-.24-.19-.43-.43-.43h-42.31c-.3,0-.55-.23-.58-.53-.15-1.42-.22-2.84-.22-4.27s.07-2.85.22-4.26c.03-.31.28-.54.58-.54h42.31c.24,0,.43-.19.43-.43v-9.28c0-.25-.2-.45-.45-.45h-39.44c-.38,0-.62-.4-.44-.73,5.76-11.01,14.78-17.27,27.07-18.77,12.54-1.54,23.01,2.17,31.42,11.12.25.26.68.27.95,0l11.17-11.18c.09-.08.09-.22,0-.31-10.9-12.43-25.71-17.06-42.31-16.41-22.7.89-41.35,14.01-48.43,35.72-.12.34-.44.58-.8.58h-14.89c-.36,0-.64.29-.64.65v8.89c0,.34.27.61.61.61h13.01c.38,0,.69.3.71.68v4.11" vector-effect="non-scaling-stroke"/>
    </g>
  </g>
  <path class="st5" d="M229.54,55.52c-.29.51-.72.58-1.29.21-1.87-1.21-3.98-4.74-5.04-5.97-11.97-13.83-25.2-24.17-39.68-31.02-22.05-10.44-45.84-13.84-71.35-10.19-7.71,1.1-14.92,2.96-21.63,5.59-7.73,3.03-14.42,6.32-20.07,9.87-19.49,12.27-34.1,29.13-43.82,50.59-2.57,5.67-4.62,13.2-6.06,18.42-1.27,4.61-2.09,9.68-2.45,15.23-.85,13.1-.56,26.88,2.97,39.36,1.61,5.67,3.25,10.79,4.94,15.35.34.92,1.79,3.95,4.36,9.1,1.73,3.47,3.37,6.4,4.92,8.79,14.05,21.61,33.07,36.83,57.04,45.68,4.37,1.61,9.24,2.96,14.61,4.03,7.15,1.44,12.14,2.28,14.96,2.52,19.51,1.66,38.14-1.34,55.88-9.01,36.53-15.78,61.99-50.34,66.6-89.6.76-6.51,1.02-14.84.79-25.01-.05-2.09-1.77-3.76-3.87-3.75h-.18c-2.19.02-4,1.73-4.13,3.92-.23,3.95-.34,7.33-.34,10.12.01,10.83-1.24,20.73-3.76,29.71-.77,2.75-2.55,7.67-5.35,14.74-1.22,3.07-3.17,5.55-4.84,8.88-.93,1.85-2.26,4.01-3.98,6.48-6.11,8.77-13.39,16.62-21.86,23.56-3.38,2.77-7.78,5.15-10.12,6.84-2.56,1.85-5.21,3.35-7.95,4.5-4.12,1.73-10.63,5.08-15.88,6.31-2.65.62-6.39,1.44-11.21,2.45-10.91,2.31-21.91,2.67-32.98,1.08-9.06-1.3-16.09-2.89-21.08-4.78-5.03-1.91-9.38-3.72-13.03-5.45-2.71-1.27-4.87-2.72-7.21-4.1-11.16-6.61-20.73-15.01-28.71-25.2-12.37-15.81-19.78-33.62-22.25-53.44-.22-1.78-.34-4-.35-6.67-.03-5.83-.24-11.38.33-16.67,1.29-11.78,4.27-22.49,8.94-32.14,10.85-22.41,27.26-39.06,49.23-49.96,17.43-8.63,37.32-11.74,56.69-10.26,3.33.25,6.49,1.08,10.17,1.6,2.3.33,4.82.86,7.57,1.59,19.9,5.32,37.01,15.29,51.34,29.9,3.71,3.78,7.72,9.16,10.69,12.7.35.42.06,1.07-.43.96-.21-.05-.4.05-.59.28-.16.21-.2.49-.11.74.05.12.08.21.09.26.16.5-.34.95-.82.75l-16.74-7.03c-.11-.04-.21-.07-.32-.09-1.96-.36-3.37.15-4.22,1.53-3.62,5.88,4.96,8.39,10.03,10.37,7.1,2.78,13.93,5.92,19.94,8.42,3.92,1.63,9.83,4.18,10.38-2.61.87-10.57,1.96-21.66,3.29-33.26.25-2.2-1.11-4.27-3.23-4.93l-.26-.08c-2.02-.67-4.14.68-4.39,2.79l-1.83,15.21c-.07.59-.47,1.09-1.02,1.3-.04.02-.23-.27-.58-.87l1.48-15.72c.03-.29.09-.56.2-.82,2.32-5.63,10.34-4.78,11.08,1.14.15,1.23.09,3.3-.2,6.21-1.2,12.52-2.05,18.28-2.44,24.95-.13,2.27-.42,4.39-.86,6.34-.08.34-.21.68-.39.98-2.57,4.22-6.48,3.27-10.78,1.38-6-2.63-15.36-6.6-28.07-11.91-1.38-.58-2.71-1.69-4-3.33-.21-.28-.37-.59-.47-.92-1.42-4.77,2.71-9.32,7.48-7.41,4.47,1.79,9.73,4.03,15.79,6.74.47.21.9-.35.58-.75-5.46-6.89-10.85-13.16-16.89-18.39-26.38-22.86-62.12-32.04-96.48-23.8C68.86,28.84,39.7,57.5,30.37,95.08c-3.66,14.74-3.88,29.89-.66,45.45,6.97,33.6,29.96,61.32,61.33,74.75,21.18,9.07,46.71,10.78,68.98,4.58,23.48-6.53,42.34-19.79,56.58-39.77,9.79-13.74,15.77-29.6,17.94-47.57.45-3.73.68-10.19.67-19.36-.01-5.87,1.85-10.67,8.53-8.42,2.25.76,2.99,3.3,3,5.84.04,10.39-.07,16.95-.32,19.67-2.66,28.8-14.26,53.18-34.8,73.13-24.05,23.37-56.78,34.2-90.05,31.21-36.88-3.32-68.78-22.98-88.34-54.23-8.84-14.13-14.31-29.9-16.41-47.31-1.08-8.91-1.04-18.34.13-28.27,1.3-11.17,4.19-21.71,8.66-31.64,11.36-25.22,31.93-45.55,57.09-57.23,15.05-6.99,31.08-10.49,48.09-10.49,39.74-.01,75.15,18.11,98.75,50.1Z"/>
  <path class="st6" d="M229.54,55.52c.17.11.32.18.47.19.12.01.24-.06.29-.16.09-.17.08-.3-.01-.39.35.6.54.89.58.87.55-.21.95-.71,1.02-1.3l1.83-15.21c.25-2.11,2.37-3.46,4.39-2.79l.26.08c2.12.66,3.48,2.73,3.23,4.93-1.33,11.6-2.42,22.69-3.29,33.26-.55,6.79-6.46,4.24-10.38,2.61-6.01-2.5-12.84-5.64-19.94-8.42-5.07-1.98-13.65-4.49-10.03-10.37.85-1.38,2.26-1.89,4.22-1.53.11.02.21.05.32.09l16.74,7.03c.48.2.98-.25.82-.75,0-.05-.04-.14-.09-.26-.09-.25-.05-.53.11-.74.19-.23.38-.33.59-.28.49.11.78-.54.43-.96-2.97-3.54-6.98-8.92-10.69-12.7-14.33-14.61-31.44-24.58-51.34-29.9-2.75-.73-5.27-1.26-7.57-1.59-3.68-.52-6.84-1.35-10.17-1.6-19.37-1.48-39.26,1.63-56.69,10.26-21.97,10.9-38.38,27.55-49.23,49.96-4.67,9.65-7.65,20.36-8.94,32.14-.57,5.29-.36,10.84-.33,16.67.01,2.67.13,4.89.35,6.67,2.47,19.82,9.88,37.63,22.25,53.44,7.98,10.19,17.55,18.59,28.71,25.2,2.34,1.38,4.5,2.83,7.21,4.1,3.65,1.73,8,3.54,13.03,5.45,4.99,1.89,12.02,3.48,21.08,4.78,11.07,1.59,22.07,1.23,32.98-1.08,4.82-1.01,8.56-1.83,11.21-2.45,5.25-1.23,11.76-4.58,15.88-6.31,2.74-1.15,5.39-2.65,7.95-4.5,2.34-1.69,6.74-4.07,10.12-6.84,8.47-6.94,15.75-14.79,21.86-23.56,1.72-2.47,3.05-4.63,3.98-6.48,1.67-3.33,3.62-5.81,4.84-8.88,2.8-7.07,4.58-11.99,5.35-14.74,2.52-8.98,3.77-18.88,3.76-29.71,0-2.79.11-6.17.34-10.12.13-2.19,1.94-3.9,4.13-3.92h.18c2.1-.01,3.82,1.66,3.87,3.75.23,10.17-.03,18.5-.79,25.01-4.61,39.26-30.07,73.82-66.6,89.6-17.74,7.67-36.37,10.67-55.88,9.01-2.82-.24-7.81-1.08-14.96-2.52-5.37-1.07-10.24-2.42-14.61-4.03-23.97-8.85-42.99-24.07-57.04-45.68-1.55-2.39-3.19-5.32-4.92-8.79-2.57-5.15-4.02-8.18-4.36-9.1-1.69-4.56-3.33-9.68-4.94-15.35-3.53-12.48-3.82-26.26-2.97-39.36.36-5.55,1.18-10.62,2.45-15.23,1.44-5.22,3.49-12.75,6.06-18.42,9.72-21.46,24.33-38.32,43.82-50.59,5.65-3.55,12.34-6.84,20.07-9.87,6.71-2.63,13.92-4.49,21.63-5.59,25.51-3.65,49.3-.25,71.35,10.19,14.48,6.85,27.71,17.19,39.68,31.02,1.06,1.23,3.17,4.76,5.04,5.97.57.37,1,.3,1.29-.21Z"/>
  <path d="M102.2,122.62c0,1.43.07,2.85.22,4.27.03.3.28.53.58.53h42.31c.24,0,.43.19.43.43v9.28c0,.25-.2.45-.45.45h-39.44c-.38,0-.62.4-.44.73,5.76,11.01,14.79,17.27,27.08,18.77,12.53,1.53,23-2.17,31.41-11.12.26-.27.69-.27.95-.01l11.18,11.18c.08.08.09.22,0,.31-10.9,12.43-25.71,17.07-42.31,16.42-22.7-.89-41.35-14-48.44-35.71-.11-.35-.44-.58-.8-.58h-14.89c-.35,0-.64-.29-.64-.65v-8.89c0-.34.27-.61.61-.61h13.01c.38,0,.69-.3.71-.68v-8.23c-.02-.38-.33-.67-.71-.67h-13.01c-.34,0-.61-.28-.61-.62v-8.89c0-.36.28-.65.64-.65h14.89c.36,0,.68-.24.8-.58,7.08-21.71,25.73-34.83,48.43-35.72,16.6-.65,31.41,3.98,42.31,16.41.08.09.08.23,0,.31l-11.17,11.18c-.27.27-.7.26-.95,0-8.41-8.95-18.88-12.66-31.42-11.12-12.29,1.5-21.31,7.76-27.07,18.77-.18.33.06.73.44.73h39.44c.25,0,.45.2.45.45v9.28c0,.24-.19.43-.43.43h-42.31c-.3,0-.55.23-.58.54-.15,1.41-.22,2.84-.22,4.26Z"/>
</svg>