<?xml version="1.0" encoding="UTF-8"?>
<svg id="Capa_1" xmlns="http://www.w3.org/2000/svg" version="1.1" xmlns:xlink="http://www.w3.org/1999/xlink" viewBox="0 0 307 374">
  <!-- Generator: Adobe Illustrator 29.4.0, SVG Export Plug-In . SVG Version: 2.1.0 Build 152)  -->
  <defs>
    <style>
      .st0 {
        fill: #1a7109;
      }

      .st1 {
        stroke: #b3a187;
      }

      .st1, .st2, .st3, .st4, .st5, .st6, .st7, .st8, .st9, .st10, .st11, .st12 {
        fill: none;
      }

      .st1, .st2, .st3, .st5, .st6, .st7, .st8, .st9, .st10, .st11, .st12 {
        stroke-width: 2px;
      }

      .st13 {
        fill: #fcfcfc;
      }

      .st2 {
        stroke: #8a8d8e;
      }

      .st3 {
        stroke: #5b4a2b;
      }

      .st14 {
        fill: #345535;
      }

      .st15 {
        fill: #d8a14e;
      }

      .st16 {
        fill: #c7cbd7;
      }

      .st5 {
        stroke: #bb8c43;
      }

      .st6 {
        stroke: #98a999;
      }

      .st17 {
        fill: #9e7637;
      }

      .st7 {
        stroke: #263a2a;
      }

      .st8 {
        stroke: #70757b;
      }

      .st18 {
        fill: #181e1f;
      }

      .st9 {
        stroke: #786037;
      }

      .st10 {
        stroke: #cdb99a;
      }

      .st19 {
        clip-path: url(#clippath);
      }

      .st11 {
        stroke: #27631f;
      }

      .st12 {
        stroke: #d0b693;
      }
    </style>
    <clipPath id="clippath">
      <rect class="st4" width="307" height="374"/>
    </clipPath>
  </defs>
  <g class="st19">
    <g>
      <path class="st2" d="M124.96,129.86c.07.26.07.43,0,.52-.2.25-.46.38-.78.38-37.6.01-58.11.01-61.54.02-.39,0-.78.06-1.16.18-2.65.87-5.04.32-7.52,1.19-7.93,2.79-13.08,7.87-15.46,15.22-.82,2.53-1.17,6.15-1.06,10.85.12,5.16.14,9.58.07,13.27,0,.57-.42,1.05-.97,1.15-6.4,1.22-10.88,4.6-13.43,10.15-.95,2.08-1.39,5.48-1.32,10.19.09,5.61.09,43.85,0,114.72-.01,8.71.49,14.51,1.5,17.4,2.19,6.24,6.11,11.21,11.77,14.9,2.14,1.39,6.5,3.28,8.69,3.27,81.13-.13,153.72-.09,217.75.12,12.52.04,21.87-9.53,24.75-21.16.04-.17.06-.35.06-.52l-.02-136.14s0-.07-.01-.1c-1.06-4.88-5.42-11.56-11-12.3-.43-.06-.56-.61-.21-.85,14.79-10.33,20.84-24.39,18.16-42.2-.22-1.45-.63-3.16-1.24-5.13-1.42-4.63-4.52-9.38-10.02-6.48-.25.13-.49.3-.7.49l-19.87,18.02c-.39.36-.95.46-1.44.27l-15.07-5.87c-.23-.09-.41-.26-.51-.47l-6.38-13.19c-.11-.23-.06-.5.11-.68l20.56-21.4c.62-.64.96-1.49.96-2.37v-3.6c0-.36-.14-.71-.4-.97-3.51-3.54-9.72-5.3-14.93-5.27-4.61.02-9.83.03-15.67.02-.5,0-.99.06-1.48.17-16.27,3.76-26.73,15.7-30.11,31.75-1.04,4.95-.55,9.81-.7,15.52,0,.23-.19.41-.42.41-20.05-.13-40.03-.2-59.92-.22-1.19,0-1.97-.39-2.35-1.14" vector-effect="non-scaling-stroke"/>
      <path class="st6" d="M133.65,129.98c0-1.13.37-1.72,1.1-1.77,21.68-1.52,39.06-10.37,52.13-26.55,5.81-7.19,10.02-15.41,12.65-24.66.63-2.24,1.12-3.96,1.45-5.15.21-.73.33-1.49.36-2.25.27-6.45.42-10.55.44-12.31.03-2.12-1.03-3.6-3.18-4.43-.24-.09-.49-.14-.75-.15-3.91-.12-6.44-.11-7.59.02-25.69,2.9-48.21,17.57-58.39,41.35-.67,1.57-1.12,3.11-1.35,4.62-.06.37-.58.4-.67.04-6.84-28.18-25.99-46.01-54.12-51.28-7.38-1.39-14.28-2.74-20.91-1.88-1.91.25-3.25,1.18-4,2.79-.13.28-.2.59-.22.9-.41,7.21.16,14.19,1.71,20.94,4.19,18.21,16.01,36.46,32.05,45.96,12.01,7.12,25.29,11.01,39.82,11.66.31,0,.56.24.6.55l.18,1.48" vector-effect="non-scaling-stroke"/>
      <path class="st7" d="M133.65,129.98l-8.69-.12" vector-effect="non-scaling-stroke"/>
      <path class="st11" d="M124.67,117.94c.22-1.3-.61-2.15-.72-3.38-.39-4.52-1.37-9.31-2.95-14.36-.17-.56-.32-1.39-.44-2.49-.03-.29-.1-.58-.2-.87-2.19-5.85-4.96-11.61-8.33-17.3-.15-.25-.33-.48-.54-.69-.78-.76-1.53-1.76-2.24-2.99-.2-.34-.47-.64-.79-.87-1.93-1.38-3.58-3-4.97-4.85-.17-.22-.36-.42-.58-.59-12.21-9.67-26.23-14.47-42.04-14.4-.36,0-.69.18-.88.48-.52.82-.66,1.95-.43,3.4,1.11,6.82,2.49,12.71,4.12,17.66,1.43,4.35,3.4,8.42,5.93,12.22,2.71,4.09,5.4,7.75,8.06,10.99.36.43.76.82,1.2,1.17,4.25,3.3,7.88,5.87,10.9,7.72,2.42,1.49,5.1,2.79,8.05,3.91.24.09.46.21.66.38.57.47,1.25.84,2.04,1.11,7.43,2.62,15.2,4.09,23.33,4.41.4.02.75-.27.82-.66" vector-effect="non-scaling-stroke"/>
      <path class="st11" d="M164.96,110.5c6.36-5.08,11.04-9.41,14.04-13,3.6-4.29,6.17-8.3,7.72-12.03,1.13-2.7,2.81-7.11,5.04-13.23.14-.37.15-.77.03-1.15-.31-.97-.17-1.93.4-2.86.16-.25.24-.55.24-.84v-4.87c0-.36-.27-.67-.63-.71-.74-.09-1.4.04-1.97.4-.04.03-.08.04-.13.05l-8.88,1.01c-.25.03-.48.16-.65.35-.28.32-.66.48-1.13.47-.4,0-.91.11-1.54.33-5.25,1.85-8.7,3.27-10.34,4.25-5.71,3.43-11.04,6.71-15.62,11.5-8.25,8.61-13.59,18.98-16.04,31.11-.61,3.03-.95,4.62-1,4.75-.46,1.12.32,2.35,1.53,2.42l5.33.29c.07.01.13,0,.2,0l11.64-2.68c.05-.01.09-.02.13-.04l11.57-5.48s.04-.02.06-.03" vector-effect="non-scaling-stroke"/>
      <path class="st3" d="M184.44,172.16c18.12.5,36.24.5,54.37-.01" vector-effect="non-scaling-stroke"/>
      <path class="st8" d="M238.81,172.15c4.29.51,9.05-.08,12.94-.38,2.75-.21,5.05-.58,6.9-1.1,13.66-3.88,22.31-12.82,25.95-26.82.02-.09.03-.18.03-.27l.11-11.13c0-.22-.06-.44-.17-.63-.55-.91-.77-1.92-.64-3.01.03-.26-.28-.43-.48-.25-5.84,5.14-11.49,10.45-16.94,15.94-2.47,2.49-4.8,2.15-8.39,1.81-.37-.04-.74-.13-1.09-.27-4.54-1.87-9.65-3.93-15.34-6.18-2.15-.85-3.45-1.74-3.9-2.66-2.22-4.57-5.04-10.23-8.45-16.99-.25-.49-.28-2.56-.09-6.21,0-.34.12-.67.32-.95.9-1.33,1.49-2.15,1.78-2.44,4.91-5.11,10.46-10.64,16.65-16.58.38-.36.22-1-.29-1.14l-3.96-1.04c-.05-.01-.1-.02-.15-.02-7.4-.25-11.8-.21-13.19.12-12.83,3.07-20.93,10.9-24.28,23.51-.67,2.52-.68,4.78-1.17,7.26-.21,1.05-.25,2.12-.11,3.18.52,3.93.52,6.26,1.12,9.13.51,2.4.58,5.25.22,8.56-.12,1.19-.64,2.29-1.46,3.15l-24.05,25.03c-.18.18-.04.49.21.48l3.55-.09" vector-effect="non-scaling-stroke"/>
      <path class="st1" d="M238.81,172.15c-18.13-.52-36.25-.52-54.37.01" vector-effect="non-scaling-stroke"/>
      <path class="st2" d="M125.44,141.12c0-.77-.62-1.4-1.39-1.4-10.87-.05-29.07-.06-54.58-.04-4.15,0-6.97.4-10.94.6-.35.02-.69.08-1.02.19-8.02,2.68-9.89,7.51-11.75,14.95-.04.15-.06.31-.06.47v15.46c0,.49.4.89.89.89h78.06c.44,0,.79-.35.79-.79v-30.33" vector-effect="non-scaling-stroke"/>
      <path class="st2" d="M198.03,140.57c.03-.33-.12-.49-.45-.49-21.31.08-42.33.08-63.08,0-.26,0-.47.21-.47.47v30.36c0,.67.55,1.22,1.22,1.21l29.27-.1c.13,0,.25,0,.37-.04,2.38-.58,4.57-1.84,6.58-3.79,7.87-7.66,16.62-16.66,26.24-26.99.19-.21.3-.42.32-.64" vector-effect="non-scaling-stroke"/>
      <path class="st8" d="M219.25,334.52l44.58-.38" vector-effect="non-scaling-stroke"/>
      <path class="st9" d="M263.83,334.14c9.18-1.75,14.22-9.99,14.27-18.64.07-12.77.08-53.64.03-122.61,0-2.76-.22-4.8-.66-6.13-1.98-5.98-6.41-5.96-12.95-5.95-51.88.07-104.74.18-158.57.33-4.37,0-10.61.51-15.79.27-4.37-.21-8.31-.25-11.82-.14-8.81.29-22.64.38-41.47.29-.25,0-.5.05-.74.14-3.47,1.38-5.21,4.14-5.2,8.28.03,66.27.04,108.61.01,127.02-.01,7.36,4.36,14.44,11.46,16.81,1.67.56,4.65.84,8.94.85,55.98.04,111.95-.01,167.91-.14" vector-effect="non-scaling-stroke"/>
      <path class="st12" d="M263.83,334.14c-.21-.21-.41-.32-.61-.33-14.67-.42-29.32-.18-43.97.71" vector-effect="non-scaling-stroke"/>
      <path class="st5" d="M153.86,265.55h41.39c9.65.01,17.55-2.24,21.36-11.51.91-2.23,1.36-5.16,1.34-8.78-.03-4.96-.08-7.98-.15-9.07-.01-.23-.05-.45-.11-.67-1.34-5.01-4.4-8.24-9.17-9.7-2.89-.89-4.98-1.34-6.27-1.36-3.98-.05-20.11-.07-48.39-.07s-44.42.03-48.4.08c-1.29.02-3.38.47-6.27,1.36-4.77,1.46-7.82,4.69-9.16,9.7-.06.22-.1.44-.11.67-.07,1.09-.12,4.11-.15,9.07-.02,3.62.43,6.55,1.34,8.78,3.81,9.27,11.71,11.52,21.36,11.51,14.18,0,27.98-.01,41.39-.01" vector-effect="non-scaling-stroke"/>
      <path class="st10" d="M205.55,233.9h-103.16c-2.26,0-4.09,1.83-4.09,4.09v8.86c0,5.46,4.53,9.89,10.12,9.89h91.1c5.59,0,10.12-4.43,10.12-9.89v-8.86c0-2.26-1.83-4.09-4.09-4.09" vector-effect="non-scaling-stroke"/>
    </g>
  </g>
  <path class="st14" d="M133.65,129.98l-8.69-.12-.18-1.48c-.04-.31-.29-.54-.6-.55-14.53-.65-27.81-4.54-39.82-11.66-16.04-9.5-27.86-27.75-32.05-45.96-1.55-6.75-2.12-13.73-1.71-20.94.02-.31.09-.62.22-.9.75-1.61,2.09-2.54,4-2.79,6.63-.86,13.53.49,20.91,1.88,28.13,5.27,47.28,23.1,54.12,51.28.09.36.61.33.67-.04.23-1.51.68-3.05,1.35-4.62,10.18-23.78,32.7-38.45,58.39-41.35,1.15-.13,3.68-.14,7.59-.02.26.01.51.06.75.15,2.15.83,3.21,2.31,3.18,4.43-.02,1.76-.17,5.86-.44,12.31-.03.76-.15,1.52-.36,2.25-.33,1.19-.82,2.91-1.45,5.15-2.63,9.25-6.84,17.47-12.65,24.66-13.07,16.18-30.45,25.03-52.13,26.55-.73.05-1.1.64-1.1,1.77ZM124.67,117.94c.22-1.3-.61-2.15-.72-3.38-.39-4.52-1.37-9.31-2.95-14.36-.17-.56-.32-1.39-.44-2.49-.03-.29-.1-.58-.2-.87-2.19-5.85-4.96-11.61-8.33-17.3-.15-.25-.33-.48-.54-.69-.78-.76-1.53-1.76-2.24-2.99-.2-.34-.47-.64-.79-.87-1.93-1.38-3.58-3-4.97-4.85-.17-.22-.36-.42-.58-.59-12.21-9.67-26.23-14.47-42.04-14.4-.36,0-.69.18-.88.48-.52.82-.66,1.95-.43,3.4,1.11,6.82,2.49,12.71,4.12,17.66,1.43,4.35,3.4,8.42,5.93,12.22,2.71,4.09,5.4,7.75,8.06,10.99.36.43.76.82,1.2,1.17,4.25,3.3,7.88,5.87,10.9,7.72,2.42,1.49,5.1,2.79,8.05,3.91.24.09.46.21.66.38.57.47,1.25.84,2.04,1.11,7.43,2.62,15.2,4.09,23.33,4.41.4.02.75-.27.82-.66ZM164.96,110.5c6.36-5.08,11.04-9.41,14.04-13,3.6-4.29,6.17-8.3,7.72-12.03,1.13-2.7,2.81-7.11,5.04-13.23.14-.37.15-.77.03-1.15-.31-.97-.17-1.93.4-2.86.16-.25.24-.55.24-.84v-4.87c0-.36-.27-.67-.63-.71-.74-.09-1.4.04-1.97.4-.04.03-.08.04-.13.05l-8.88,1.01c-.25.03-.48.16-.65.35-.28.32-.66.48-1.13.47-.4,0-.91.11-1.54.33-5.25,1.85-8.7,3.27-10.34,4.25-5.71,3.43-11.04,6.71-15.62,11.5-8.25,8.61-13.59,18.98-16.04,31.11-.61,3.03-.95,4.62-1,4.75-.46,1.12.32,2.35,1.53,2.42l5.33.29c.07.01.13,0,.2,0l11.64-2.68c.05-.01.09-.02.13-.04l11.57-5.48s.04-.02.06-.03Z"/>
  <path class="st0" d="M124.67,117.94c-.07.39-.42.68-.82.66-8.13-.32-15.9-1.79-23.33-4.41-.79-.27-1.47-.64-2.04-1.11-.2-.17-.42-.29-.66-.38-2.95-1.12-5.63-2.42-8.05-3.91-3.02-1.85-6.65-4.42-10.9-7.72-.44-.35-.84-.74-1.2-1.17-2.66-3.24-5.35-6.9-8.06-10.99-2.53-3.8-4.5-7.87-5.93-12.22-1.63-4.95-3.01-10.84-4.12-17.66-.23-1.45-.09-2.58.43-3.4.19-.3.52-.48.88-.48,15.81-.07,29.83,4.73,42.04,14.4.22.17.41.37.58.59,1.39,1.85,3.04,3.47,4.97,4.85.32.23.59.53.79.87.71,1.23,1.46,2.23,2.24,2.99.21.21.39.44.54.69,3.37,5.69,6.14,11.45,8.33,17.3.1.29.17.58.2.87.12,1.1.27,1.93.44,2.49,1.58,5.05,2.56,9.84,2.95,14.36.11,1.23.94,2.08.72,3.38Z"/>
  <path class="st0" d="M164.9,110.53l-11.57,5.48s-.08.03-.13.04l-11.64,2.68c-.07,0-.13.02-.2,0l-5.33-.29c-1.21-.07-1.99-1.3-1.53-2.42.05-.13.39-1.72,1-4.75,2.45-12.13,7.79-22.5,16.04-31.11,4.58-4.79,9.91-8.07,15.62-11.5,1.64-.98,5.09-2.4,10.34-4.25.63-.22,1.14-.33,1.54-.33.47.01.85-.15,1.13-.47.17-.19.4-.32.65-.35l8.88-1.01c.05,0,.09-.02.13-.05.57-.36,1.23-.49,1.97-.4.36.04.63.35.63.71v4.87c0,.29-.08.59-.24.84-.57.93-.71,1.89-.4,2.86.12.38.11.78-.03,1.15-2.23,6.12-3.91,10.53-5.04,13.23-1.55,3.73-4.12,7.74-7.72,12.03-3,3.59-7.68,7.92-14.04,13-.02.01-.04.02-.06.03Z"/>
  <path class="st18" d="M124.96,129.86l8.69.12c.38.75,1.16,1.13,2.35,1.14,19.89.02,39.87.09,59.92.22.23,0,.41-.18.42-.41.15-5.71-.34-10.57.7-15.52,3.38-16.05,13.84-27.99,30.11-31.75.49-.11.98-.17,1.48-.17,5.84.01,11.06,0,15.67-.02,5.21-.03,11.42,1.73,14.93,5.27.26.26.4.61.4.97v3.6c0,.88-.34,1.73-.96,2.37l-20.56,21.4c-.17.18-.22.45-.11.68l6.38,13.19c.1.21.28.38.51.47l15.07,5.87c.49.19,1.05.09,1.44-.27l19.87-18.02c.21-.19.45-.36.7-.49,5.5-2.9,8.6,1.85,10.02,6.48.61,1.97,1.02,3.68,1.24,5.13,2.68,17.81-3.37,31.87-18.16,42.2-.35.24-.22.79.21.85,5.58.74,9.94,7.42,11,12.3.01.03.01.07.01.1l.02,136.14c0,.17-.02.35-.06.52-2.88,11.63-12.23,21.2-24.75,21.16-64.03-.21-136.62-.25-217.75-.12-2.19.01-6.55-1.88-8.69-3.27-5.66-3.69-9.58-8.66-11.77-14.9-1.01-2.89-1.51-8.69-1.5-17.4.09-70.87.09-109.11,0-114.72-.07-4.71.37-8.11,1.32-10.19,2.55-5.55,7.03-8.93,13.43-10.15.55-.1.96-.58.97-1.15.07-3.69.05-8.11-.07-13.27-.11-4.7.24-8.32,1.06-10.85,2.38-7.35,7.53-12.43,15.46-15.22,2.48-.87,4.87-.32,7.52-1.19.38-.12.77-.18,1.16-.18,3.43,0,23.94,0,61.54-.02.32,0,.58-.13.78-.38.07-.09.07-.26,0-.52ZM184.44,172.16c18.12.5,36.24.5,54.37-.01,4.29.51,9.05-.08,12.94-.38,2.75-.21,5.05-.58,6.9-1.1,13.66-3.88,22.31-12.82,25.95-26.82.02-.09.03-.18.03-.27l.11-11.13c0-.22-.06-.44-.17-.63-.55-.91-.77-1.92-.64-3.01.03-.26-.28-.43-.48-.25-5.84,5.14-11.49,10.45-16.94,15.94-2.47,2.49-4.8,2.15-8.39,1.81-.37-.04-.74-.13-1.09-.27-4.54-1.87-9.65-3.93-15.34-6.18-2.15-.85-3.45-1.74-3.9-2.66-2.22-4.57-5.04-10.23-8.45-16.99-.25-.49-.28-2.56-.09-6.21,0-.34.12-.67.32-.95.9-1.33,1.49-2.15,1.78-2.44,4.91-5.11,10.46-10.64,16.65-16.58.38-.36.22-1-.29-1.14l-3.96-1.04c-.05-.01-.1-.02-.15-.02-7.4-.25-11.8-.21-13.19.12-12.83,3.07-20.93,10.9-24.28,23.51-.67,2.52-.68,4.78-1.17,7.26-.21,1.05-.25,2.12-.11,3.18.52,3.93.52,6.26,1.12,9.13.51,2.4.58,5.25.22,8.56-.12,1.19-.64,2.29-1.46,3.15l-24.05,25.03c-.18.18-.04.49.21.48l3.55-.09ZM125.44,141.12c0-.77-.62-1.4-1.39-1.4-10.87-.05-29.07-.06-54.58-.04-4.15,0-6.97.4-10.94.6-.35.02-.69.08-1.02.19-8.02,2.68-9.89,7.51-11.75,14.95-.04.15-.06.31-.06.47v15.46c0,.49.4.89.89.89h78.06c.44,0,.79-.35.79-.79v-30.33ZM198.03,140.57c.03-.33-.12-.49-.45-.49-21.31.08-42.33.08-63.08,0-.26,0-.47.21-.47.47v30.36c0,.67.55,1.22,1.22,1.21l29.27-.1c.13,0,.25,0,.37-.04,2.38-.58,4.57-1.84,6.58-3.79,7.87-7.66,16.62-16.66,26.24-26.99.19-.21.3-.42.32-.64ZM219.25,334.52l44.58-.38c9.18-1.75,14.22-9.99,14.27-18.64.07-12.77.08-53.64.03-122.61,0-2.76-.22-4.8-.66-6.13-1.98-5.98-6.41-5.96-12.95-5.95-51.88.07-104.74.18-158.57.33-4.37,0-10.61.51-15.79.27-4.37-.21-8.31-.25-11.82-.14-8.81.29-22.64.38-41.47.29-.25,0-.5.05-.74.14-3.47,1.38-5.21,4.14-5.2,8.28.03,66.27.04,108.61.01,127.02-.01,7.36,4.36,14.44,11.46,16.81,1.67.56,4.65.84,8.94.85,55.98.04,111.95-.01,167.91-.14Z"/>
  <path class="st16" d="M238.81,172.15c-18.13-.52-36.25-.52-54.37.01l-3.55.09c-.25,0-.39-.3-.21-.48l24.05-25.03c.82-.86,1.34-1.96,1.46-3.15.36-3.31.29-6.16-.22-8.56-.6-2.87-.6-5.2-1.12-9.13-.14-1.06-.1-2.13.11-3.18.49-2.48.5-4.74,1.17-7.26,3.35-12.61,11.45-20.44,24.28-23.51,1.39-.33,5.79-.37,13.19-.12.05,0,.1,0,.15.02l3.96,1.04c.51.14.67.78.29,1.14-6.19,5.94-11.74,11.47-16.65,16.58-.29.29-.88,1.11-1.78,2.44-.2.28-.31.61-.32.95-.19,3.65-.16,5.72.09,6.21,3.41,6.76,6.23,12.42,8.45,16.99.45.92,1.75,1.81,3.9,2.66,5.69,2.25,10.8,4.31,15.34,6.18.35.14.72.23,1.09.27,3.59.34,5.92.68,8.39-1.81,5.45-5.49,11.1-10.8,16.94-15.94.2-.18.51,0,.48.25-.13,1.09.09,2.1.64,3.01.11.19.17.41.17.63l-.11,11.13c0,.09-.01.18-.03.27-3.64,14-12.29,22.94-25.95,26.82-1.85.52-4.15.89-6.9,1.1-3.89.3-8.65.89-12.94.38Z"/>
  <path class="st13" d="M125.44,141.12v30.33c0,.44-.35.79-.79.79H46.59c-.49,0-.89-.4-.89-.89v-15.46c0-.16.02-.32.06-.47,1.86-7.44,3.73-12.27,11.75-14.95.33-.11.67-.17,1.02-.19,3.97-.2,6.79-.6,10.94-.6,25.51-.02,43.71,0,54.58.04.77,0,1.39.63,1.39,1.4Z"/>
  <path class="st13" d="M198.03,140.57c-.02.22-.13.43-.32.64-9.62,10.33-18.37,19.33-26.24,26.99-2.01,1.95-4.2,3.21-6.58,3.79-.12.03-.24.04-.37.04l-29.27.1c-.67,0-1.22-.54-1.22-1.21v-30.36c0-.26.21-.47.47-.47,20.75.07,41.77.07,63.08,0,.33,0,.48.16.45.49Z"/>
  <path class="st17" d="M238.81,172.15c-18.13.51-36.25.51-54.37.01,18.12-.53,36.24-.53,54.37-.01Z"/>
  <path class="st15" d="M263.83,334.14c-.21-.21-.41-.32-.61-.33-14.67-.42-29.32-.18-43.97.71-55.96.13-111.93.18-167.91.14-4.29-.01-7.27-.29-8.94-.85-7.1-2.37-11.47-9.45-11.46-16.81.03-18.41.02-60.75-.01-127.02-.01-4.14,1.73-6.9,5.2-8.28.24-.09.49-.14.74-.14,18.83.09,32.66,0,41.47-.29,3.51-.11,7.45-.07,11.82.14,5.18.24,11.42-.26,15.79-.27,53.83-.15,106.69-.26,158.57-.33,6.54,0,10.97-.03,12.95,5.95.44,1.33.66,3.37.66,6.13.05,68.97.04,109.84-.03,122.61-.05,8.65-5.09,16.89-14.27,18.64ZM153.86,265.55h41.39c9.65.01,17.55-2.24,21.36-11.51.91-2.23,1.36-5.16,1.34-8.78-.03-4.96-.08-7.98-.15-9.07-.01-.23-.05-.45-.11-.67-1.34-5.01-4.4-8.24-9.17-9.7-2.89-.89-4.98-1.34-6.27-1.36-3.98-.05-20.11-.07-48.39-.07s-44.42.03-48.4.08c-1.29.02-3.38.47-6.27,1.36-4.77,1.46-7.82,4.69-9.16,9.7-.06.22-.1.44-.11.67-.07,1.09-.12,4.11-.15,9.07-.02,3.62.43,6.55,1.34,8.78,3.81,9.27,11.71,11.52,21.36,11.51,14.18,0,27.98-.01,41.39-.01Z"/>
  <path class="st17" d="M153.86,224.39c28.28,0,44.41.02,48.39.07,1.29.02,3.38.47,6.27,1.36,4.77,1.46,7.83,4.69,9.17,9.7.06.22.1.44.11.67.07,1.09.12,4.11.15,9.07.02,3.62-.43,6.55-1.34,8.78-3.81,9.27-11.71,11.52-21.36,11.51h-41.39c-13.41,0-27.21.01-41.39.01-9.65.01-17.55-2.24-21.36-11.51-.91-2.23-1.36-5.16-1.34-8.78.03-4.96.08-7.98.15-9.07.01-.23.05-.45.11-.67,1.34-5.01,4.39-8.24,9.16-9.7,2.89-.89,4.98-1.34,6.27-1.36,3.98-.05,20.11-.08,48.4-.08ZM205.55,233.9h-103.16c-2.26,0-4.09,1.83-4.09,4.09v8.86c0,5.46,4.53,9.89,10.12,9.89h91.1c5.59,0,10.12-4.43,10.12-9.89v-8.86c0-2.26-1.83-4.09-4.09-4.09Z"/>
  <path class="st13" d="M205.55,233.9c2.26,0,4.09,1.83,4.09,4.09v8.86c0,5.46-4.53,9.89-10.12,9.89h-91.1c-5.59,0-10.12-4.43-10.12-9.89v-8.86c0-2.26,1.83-4.09,4.09-4.09h103.16Z"/>
  <path class="st16" d="M263.83,334.14l-44.58.38c14.65-.89,29.3-1.13,43.97-.71.2.01.4.12.61.33Z"/>
</svg>