<?xml version="1.0" encoding="UTF-8"?>
<svg id="Capa_1" xmlns="http://www.w3.org/2000/svg" version="1.1" xmlns:xlink="http://www.w3.org/1999/xlink" viewBox="0 0 257 224">
  <!-- Generator: Adobe Illustrator 29.4.0, SVG Export Plug-In . SVG Version: 2.1.0 Build 152)  -->
  <defs>
    <style>
      .st0 {
        fill: #5e4fea;
      }

      .st1 {
        stroke: gray;
      }

      .st1, .st2, .st3 {
        fill: none;
      }

      .st1, .st3 {
        stroke-width: 2px;
      }

      .st4 {
        fill: #fff;
      }

      .st3 {
        stroke: #afa7f5;
      }

      .st5 {
        clip-path: url(#clippath);
      }
    </style>
    <clipPath id="clippath">
      <rect class="st2" width="257" height="224"/>
    </clipPath>
  </defs>
  <g class="st5">
    <g>
      <path class="st1" d="M49.75,0c-8.88,1.9-16.99,7.85-11.34,18.07,5.51,9.96,11.4,20.45,17.68,31.47.25.44.08.99-.36,1.21-7.71,3.98-11.95,11.09-7.19,19.61.3.53.16,1.19-.33,1.55-20.64,15.13-35.13,34.9-43.46,59.31-2.31,6.78-3.61,12.41-3.9,16.9-.18,2.91-.46,5.82-.85,8.72" vector-effect="non-scaling-stroke"/>
      <path class="st1" d="M57.46,0c9.86,2.01,19.01,8.08,27.04,10.51,6.8,2.06,12.43.77,18.7-2.13,6.35-2.94,10.91-5,13.68-6.18,2.33-1,5.09-1.57,7.64-2.2" vector-effect="non-scaling-stroke"/>
      <path class="st1" d="M131.97,0c6.62,1.45,15.61,6.54,12.47,14.94-.87,2.33-2.14,5-3.79,7.99-4.84,8.75-9.91,17.69-15.2,26.8-.18.31-.09.71.21.91,1.47.95,3.26,1.65,4.52,2.77,4.9,4.34,6.53,10.84,2.99,16.67-.39.65-.22,1.49.39,1.94,14.89,10.89,26.67,24.29,35.36,40.2.26.47.84.65,1.32.41,11.9-5.95,24.43-7.77,37.58-5.46,33.6,5.88,56.05,39.11,46.05,72.44-6.12,20.42-21.41,35.58-42.04,40.75-18.87,4.72-38.55-.26-53.21-13.18-.4-.36-1-.4-1.46-.11-13.99,8.86-29.44,13.95-46.35,15.27-2.94.23-6.21.82-9.67.81-10.22-.03-15.99-.03-17.32,0-2.6.08-5.22-.09-7.86-.5-.07,0-2.69-.28-7.86-.79-19.61-1.95-40.06-9.39-53.25-23.98-8.01-8.87-13.28-20.25-14.16-32.52-.13-1.81-.36-3.6-.69-5.37" vector-effect="non-scaling-stroke"/>
      <path class="st1" d="M90.88,49.28c15.8,0,24.07.02,24.8.04.31.01.59-.16.74-.42l20.13-36.53c.32-.57.12-1.3-.45-1.63-4.92-2.94-12.01-2.2-17.13.1-9.16,4.1-18.29,9.48-28.08,9.48-9.79-.01-18.92-5.39-28.07-9.51-5.12-2.3-12.21-3.04-17.13-.11-.57.34-.77,1.06-.46,1.63l20.1,36.55c.15.26.43.42.74.42.73-.02,9-.03,24.81-.02" vector-effect="non-scaling-stroke"/>
      <path class="st1" d="M126.57,63.41c0-2.64-2.15-4.78-4.79-4.77l-61.82.11c-2.64,0-4.77,2.15-4.77,4.79v.18c0,2.64,2.15,4.78,4.79,4.77l61.82-.11c2.64,0,4.77-2.15,4.77-4.79v-.18" vector-effect="non-scaling-stroke"/>
      <path class="st1" d="M150.88,200.86c.21-.14.27-.43.12-.63-19.53-26.57-15.22-61.81,10.4-82.59.21-.17.27-.47.14-.71-8.53-15.93-20.25-28.98-35.16-39.15-.3-.2-.65-.34-1.01-.4-1.17-.17-2.62.44-4.39.43-22.14-.02-42.88-.02-62.23,0-.59.01-1.34-.13-2.25-.41-.35-.11-.73-.06-1.04.14-24,15.58-42.25,43.02-46.38,71.52-3.65,25.22,8.37,46.93,31.72,56.93,11.31,4.85,23.41,7.64,36.3,8.37,2.71.16,6.43.36,11.14.61,6.3.34,12.19-.18,19-.53,5.37-.27,11.82-1.32,19.35-3.15,8.89-2.15,16.98-5.63,24.29-10.43" vector-effect="non-scaling-stroke"/>
      <path class="st1" d="M247.57,164.33c.14-27.26-22.1-49.47-49.67-49.62-27.58-.14-50.05,21.84-50.19,49.1-.14,27.26,22.1,49.47,49.67,49.62,27.58.14,50.05-21.84,50.19-49.1" vector-effect="non-scaling-stroke"/>
      <path class="st3" d="M65.25,149.27c-3.79-.43-9.12-.21-7.64,5.04,1.23,4.33,6.04,2.58,9.19,2.87.31.03.58.23.7.51.87,2.13,1.34,3.27,1.4,3.42,5.09,13.1,20.07,17.94,33.04,14.8,3.02-.73,8.34-2.7,9.02-6.22.69-3.54-2.79-6.66-6.02-4.72-6.79,4.07-13.76,4.32-20.91.73-3.35-1.67-5.79-4.42-7.34-8.24-.05-.13.05-.28.2-.28l17.5.05c2.14.01,3.9-1.7,3.95-3.84v-.23c.05-2.22-1.73-4.04-3.95-4.04l-19.35.02c-.23,0-.42-.19-.42-.42v-5.56c0-.26.21-.47.46-.47h23.17c2.1,0,3.81-1.7,3.81-3.8v-.44c0-2.08-1.69-3.77-3.77-3.77h-21.24c-.33,0-.54-.36-.38-.65,4.44-7.9,11.1-11.37,19.98-10.4,3.07.33,5.9,2.09,8.52,3.1,2.13.83,4.53-.15,5.48-2.23v-.02c.97-2.1.18-4.59-1.82-5.75-14.43-8.4-34.07-3.15-40.36,12.84-.36.91-.69,1.75-.99,2.5-.15.38-.52.63-.93.63h-5.3c-2.04,0-3.71,1.63-3.76,3.68v.27c0,2.25,1.82,4.07,4.06,4.07h4c.34,0,.61.27.61.61v5.13c0,.49-.42.86-.91.81" vector-effect="non-scaling-stroke"/>
      <path class="st1" d="M197.37,194.46c3.19-.01,5-.02,5.44-.05.32-.02.57-.29.57-.61v-44.5c0-.21.24-.33.41-.21l23.75,16.86s.1,0,.1-.05v-11.79c0-.18-.09-.35-.24-.46-9.93-7.06-19.89-14.14-29.9-21.24-.05-.03-.13-.04-.24-.04s-.19.01-.23.04c-9.99,7.14-19.93,14.25-29.83,21.35-.15.11-.24.28-.24.46l.04,11.79c0,.05.06.08.1.05l23.69-16.95c.17-.12.41,0,.41.21l.16,44.5c0,.32.25.59.57.61.44.03,2.26.04,5.44.03" vector-effect="non-scaling-stroke"/>
    </g>
  </g>
  <path d="M57.46,0c9.86,2.01,19.01,8.08,27.04,10.51,6.8,2.06,12.43.77,18.7-2.13,6.35-2.94,10.91-5,13.68-6.18,2.33-1,5.09-1.57,7.64-2.2h7.45c6.62,1.45,15.61,6.54,12.47,14.94-.87,2.33-2.14,5-3.79,7.99-4.84,8.75-9.91,17.69-15.2,26.8-.18.31-.09.71.21.91,1.47.95,3.26,1.65,4.52,2.77,4.9,4.34,6.53,10.84,2.99,16.67-.39.65-.22,1.49.39,1.94,14.89,10.89,26.67,24.29,35.36,40.2.26.47.84.65,1.32.41,11.9-5.95,24.43-7.77,37.58-5.46,33.6,5.88,56.05,39.11,46.05,72.44-6.12,20.42-21.41,35.58-42.04,40.75-18.87,4.72-38.55-.26-53.21-13.18-.4-.36-1-.4-1.46-.11-13.99,8.86-29.44,13.95-46.35,15.27-2.94.23-6.21.82-9.67.81-10.22-.03-15.99-.03-17.32,0-2.6.08-5.22-.09-7.86-.5-.07,0-2.69-.28-7.86-.79-19.61-1.95-40.06-9.39-53.25-23.98-8.01-8.87-13.28-20.25-14.16-32.52-.13-1.81-.36-3.6-.69-5.37v-3.15c.39-2.9.67-5.81.85-8.72.29-4.49,1.59-10.12,3.9-16.9,8.33-24.41,22.82-44.18,43.46-59.31.49-.36.63-1.02.33-1.55-4.76-8.52-.52-15.63,7.19-19.61.44-.22.61-.77.36-1.21-6.28-11.02-12.17-21.51-17.68-31.47C32.76,7.85,40.87,1.9,49.75,0h7.71ZM90.88,49.28c15.8,0,24.07.02,24.8.04.31.01.59-.16.74-.42l20.13-36.53c.32-.57.12-1.3-.45-1.63-4.92-2.94-12.01-2.2-17.13.1-9.16,4.1-18.29,9.48-28.08,9.48-9.79-.01-18.92-5.39-28.07-9.51-5.12-2.3-12.21-3.04-17.13-.11-.57.34-.77,1.06-.46,1.63l20.1,36.55c.15.26.43.42.74.42.73-.02,9-.03,24.81-.02ZM126.57,63.41c0-2.64-2.15-4.78-4.79-4.77l-61.82.11c-2.64,0-4.77,2.15-4.77,4.79v.18c0,2.64,2.15,4.78,4.79,4.77l61.82-.11c2.64,0,4.77-2.15,4.77-4.79v-.18ZM150.88,200.86c.21-.14.27-.43.12-.63-19.53-26.57-15.22-61.81,10.4-82.59.21-.17.27-.47.14-.71-8.53-15.93-20.25-28.98-35.16-39.15-.3-.2-.65-.34-1.01-.4-1.17-.17-2.62.44-4.39.43-22.14-.02-42.88-.02-62.23,0-.59.01-1.34-.13-2.25-.41-.35-.11-.73-.06-1.04.14-24,15.58-42.25,43.02-46.38,71.52-3.65,25.22,8.37,46.93,31.72,56.93,11.31,4.85,23.41,7.64,36.3,8.37,2.71.16,6.43.36,11.14.61,6.3.34,12.19-.18,19-.53,5.37-.27,11.82-1.32,19.35-3.15,8.89-2.15,16.98-5.63,24.29-10.43ZM247.57,164.33c.14-27.26-22.1-49.47-49.67-49.62-27.58-.14-50.05,21.84-50.19,49.1-.14,27.26,22.1,49.47,49.67,49.62,27.58.14,50.05-21.84,50.19-49.1Z"/>
  <path class="st4" d="M90.89,20.32c9.79,0,18.92-5.38,28.08-9.48,5.12-2.3,12.21-3.04,17.13-.1.57.33.77,1.06.45,1.63l-20.13,36.53c-.15.26-.43.43-.74.42-.73-.02-9-.04-24.8-.04-15.81,0-24.08,0-24.81.02-.31,0-.59-.16-.74-.42L45.23,12.33c-.31-.57-.11-1.29.46-1.63,4.92-2.93,12.01-2.19,17.13.11,9.15,4.12,18.28,9.5,28.07,9.51Z"/>
  <rect class="st4" x="55.19" y="58.69" width="71.38" height="9.74" rx="4.78" ry="4.78" transform="translate(-.11 .16) rotate(-.1)"/>
  <path class="st4" d="M150.88,200.86c-7.31,4.8-15.4,8.28-24.29,10.43-7.53,1.83-13.98,2.88-19.35,3.15-6.81.35-12.7.87-19,.53-4.71-.25-8.43-.45-11.14-.61-12.89-.73-24.99-3.52-36.3-8.37-23.35-10-35.37-31.71-31.72-56.93,4.13-28.5,22.38-55.94,46.38-71.52.31-.2.69-.25,1.04-.14.91.28,1.66.42,2.25.41,19.35-.02,40.09-.02,62.23,0,1.77.01,3.22-.6,4.39-.43.36.06.71.2,1.01.4,14.91,10.17,26.63,23.22,35.16,39.15.13.24.07.54-.14.71-25.62,20.78-29.93,56.02-10.4,82.59.15.2.09.49-.12.63ZM65.25,149.27c-3.79-.43-9.12-.21-7.64,5.04,1.23,4.33,6.04,2.58,9.19,2.87.31.03.58.23.7.51.87,2.13,1.34,3.27,1.4,3.42,5.09,13.1,20.07,17.94,33.04,14.8,3.02-.73,8.34-2.7,9.02-6.22.69-3.54-2.79-6.66-6.02-4.72-6.79,4.07-13.76,4.32-20.91.73-3.35-1.67-5.79-4.42-7.34-8.24-.05-.13.05-.28.2-.28l17.5.05c2.14.01,3.9-1.7,3.95-3.84v-.23c.05-2.22-1.73-4.04-3.95-4.04l-19.35.02c-.23,0-.42-.19-.42-.42v-5.56c0-.26.21-.47.46-.47h23.17c2.1,0,3.81-1.7,3.81-3.8v-.44c0-2.08-1.69-3.77-3.77-3.77h-21.24c-.33,0-.54-.36-.38-.65,4.44-7.9,11.1-11.37,19.98-10.4,3.07.33,5.9,2.09,8.52,3.1,2.13.83,4.53-.15,5.48-2.23v-.02c.97-2.1.18-4.59-1.82-5.75-14.43-8.4-34.07-3.15-40.36,12.84-.36.91-.69,1.75-.99,2.5-.15.38-.52.63-.93.63h-5.3c-2.04,0-3.71,1.63-3.76,3.68v.27c0,2.25,1.82,4.07,4.06,4.07h4c.34,0,.61.27.61.61v5.13c0,.49-.42.86-.91.81Z"/>
  <path class="st4" d="M247.57,164.33c-.14,27.26-22.61,49.24-50.19,49.1-27.57-.15-49.81-22.36-49.67-49.62.14-27.26,22.61-49.24,50.19-49.1,27.57.15,49.81,22.36,49.67,49.62ZM197.37,194.46c3.19-.01,5-.02,5.44-.05.32-.02.57-.29.57-.61v-44.5c0-.21.24-.33.41-.21l23.75,16.86s.1,0,.1-.05v-11.79c0-.18-.09-.35-.24-.46-9.93-7.06-19.89-14.14-29.9-21.24-.05-.03-.13-.04-.24-.04s-.19.01-.23.04c-9.99,7.14-19.93,14.25-29.83,21.35-.15.11-.24.28-.24.46l.04,11.79c0,.05.06.08.1.05l23.69-16.95c.17-.12.41,0,.41.21l.16,44.5c0,.32.25.59.57.61.44.03,2.26.04,5.44.03Z"/>
  <path class="st0" d="M65.25,149.27c.49.05.91-.32.91-.81v-5.13c0-.34-.27-.61-.61-.61h-4c-2.24,0-4.06-1.82-4.06-4.07v-.27c.05-2.05,1.72-3.68,3.76-3.68h5.3c.41,0,.78-.25.93-.63.3-.75.63-1.59.99-2.5,6.29-15.99,25.93-21.24,40.36-12.84,2,1.16,2.79,3.65,1.83,5.75v.02c-.96,2.08-3.36,3.06-5.49,2.23-2.62-1.01-5.45-2.77-8.52-3.1-8.88-.97-15.54,2.5-19.98,10.4-.16.29.05.65.38.65h21.24c2.08,0,3.77,1.69,3.77,3.77v.44c0,2.1-1.71,3.8-3.81,3.8h-23.17c-.25,0-.46.21-.46.47v5.56c0,.23.19.42.42.42l19.35-.02c2.22,0,4,1.82,3.95,4.04v.23c-.05,2.14-1.81,3.85-3.95,3.84l-17.5-.05c-.15,0-.25.15-.2.28,1.55,3.82,3.99,6.57,7.34,8.24,7.15,3.59,14.12,3.34,20.91-.73,3.23-1.94,6.71,1.18,6.02,4.72-.68,3.52-6,5.49-9.02,6.22-12.97,3.14-27.95-1.7-33.04-14.8-.06-.15-.53-1.29-1.4-3.42-.12-.28-.39-.48-.7-.51-3.15-.29-7.96,1.46-9.19-2.87-1.48-5.25,3.85-5.47,7.64-5.04Z"/>
  <path d="M197.26,132.37c.11,0,.19.01.24.04,10.01,7.1,19.97,14.18,29.9,21.24.15.11.24.28.24.46v11.79c0,.05-.06.08-.1.05l-23.75-16.86c-.17-.12-.41,0-.41.21v44.5c0,.32-.25.59-.57.61-.44.03-2.25.04-5.44.05-3.18,0-5,0-5.44-.03-.32-.02-.57-.29-.57-.61l-.16-44.5c0-.21-.24-.33-.41-.21l-23.69,16.95s-.1,0-.1-.05l-.04-11.79c0-.18.09-.35.24-.46,9.9-7.1,19.84-14.21,29.83-21.35.04-.03.12-.04.23-.04Z"/>
</svg>