<?xml version="1.0" encoding="UTF-8"?>
<svg id="Capa_1" xmlns="http://www.w3.org/2000/svg" version="1.1" xmlns:xlink="http://www.w3.org/1999/xlink" viewBox="0 0 138 217">
  <!-- Generator: Adobe Illustrator 29.4.0, SVG Export Plug-In . SVG Version: 2.1.0 Build 152)  -->
  <defs>
    <style>
      .st0 {
        fill: #141313;
      }

      .st1 {
        fill: #5b5ce9;
      }

      .st2 {
        stroke: #ac5ea5;
      }

      .st2, .st3, .st4, .st5, .st6 {
        fill: none;
      }

      .st2, .st4, .st5, .st6 {
        stroke-width: 2px;
      }

      .st7 {
        fill: #fd5f60;
      }

      .st8 {
        fill: #fff;
      }

      .st4 {
        stroke: #8a8989;
      }

      .st5 {
        stroke: #adaef4;
      }

      .st6 {
        stroke: #89393a;
      }

      .st9 {
        clip-path: url(#clippath);
      }
    </style>
    <clipPath id="clippath">
      <rect class="st3" width="138" height="217"/>
    </clipPath>
  </defs>
  <g class="st9">
    <g>
      <path class="st4" d="M0,71.43c.75,9.4,2.48,17.01,5.21,22.82,3.22,6.86,5.73,11.79,7.52,14.79,10.9,18.27,22.34,36.18,34.33,53.74.21.31.02.72-.35.77-6.32.77-12.71,2.17-19.17,4.2-8.82,2.76-17.16,5.85-22.83,12.04-2,2.18-3.14,4.98-3.41,8.41-.02.28-.11.54-.25.77-.24.39-.22.81.07,1.27.18.3.29.65.3,1,.31,12.44,21.03,19.44,30.88,21.47,6.48,1.33,13.62,2.46,21.42,3.39,6.32.75,11.45.23,18.19.41,4.15.11,8.69-.11,13.64-.64,8.35-.91,16.16-2.29,23.43-4.13,9.37-2.37,25.25-8.7,27.17-18.88,1.99-10.5-5.75-17.24-14.47-21.14-9.6-4.28-19.65-7.13-30.16-8.54-.44-.06-.66-.56-.41-.92,11.04-16.07,24.45-36.26,35.35-55.29,4.67-8.15,8.02-16.96,10.06-26.42.63-2.89.93-6.12.92-9.67-.01-5.81-.07-9.06-.16-9.74-.32-2.49-1.39-6.9-3.21-13.21-1.07-3.7-2.51-7.13-4.34-10.3-2.89-5.02-4.88-8.22-5.95-9.61-8.91-11.45-22.49-21.65-36.68-25.1-2.87-.7-6.82-1.52-11.83-2.45-.85-.16-1.72-.24-2.59-.24h-8.75c-.25,0-.5.03-.74.09-.88.23-3.96.81-9.24,1.75-14.82,2.64-26.09,10.67-36.56,21.26-2.11,2.13-4.07,4.59-5.89,7.38C4.55,41.34.72,53.06,0,65.89" vector-effect="non-scaling-stroke"/>
      <path class="st6" d="M68.83,178.66c.23,0,.45-.13.65-.39,12.92-16.47,24.3-34.32,35.45-51.81,6.05-9.48,11-17.84,14.85-25.07,6.9-12.92,10.83-24.1,9.1-38.68-1.56-13.24-7.74-27.11-17.32-36.14-3.67-3.46-7.88-6.67-12.62-9.63-8.47-5.3-20.43-8.35-30.24-8.34-9.8,0-21.77,3.07-30.23,8.39-4.73,2.96-8.93,6.18-12.6,9.64-9.57,9.05-15.73,22.93-17.27,36.17-1.71,14.58,2.24,25.76,9.16,38.67,3.86,7.22,8.82,15.57,14.89,25.04,11.17,17.48,22.58,35.31,35.52,51.76.2.26.42.39.66.39" vector-effect="non-scaling-stroke"/>
      <path class="st4" d="M69.05,208.37c1.95,0,6.6-.29,13.95-.85,5.08-.39,9.88-1.05,14.4-1.98,10.82-2.22,19.63-4.37,27.15-9.98,3.81-2.84,5.78-7.4,1.56-11-2.51-2.13-5.35-3.87-8.54-5.23-10.53-4.49-20.32-6.43-31.67-8.51-.37-.07-.74.08-.97.38-3.75,5.12-7.45,9.93-11.08,14.42-1.14,1.42-2.76,2.13-4.87,2.14-2.1,0-3.73-.7-4.88-2.1-3.66-4.48-7.39-9.26-11.17-14.36-.23-.3-.61-.44-.97-.37-11.34,2.15-21.12,4.16-31.62,8.71-3.18,1.38-6.01,3.15-8.5,5.29-4.2,3.63-2.2,8.17,1.63,10.99,7.55,5.56,16.38,7.65,27.21,9.8,4.53.9,9.33,1.53,14.41,1.89,7.36.51,12.01.77,13.96.76" vector-effect="non-scaling-stroke"/>
      <path class="st2" d="M96.99,69.9c0-15.56-12.61-28.17-28.17-28.17s-28.17,12.61-28.17,28.17,12.61,28.17,28.17,28.17,28.17-12.61,28.17-28.17" vector-effect="non-scaling-stroke"/>
      <path class="st5" d="M88.37,69.88c0-10.81-8.76-19.57-19.57-19.57s-19.57,8.76-19.57,19.57,8.76,19.57,19.57,19.57,19.57-8.76,19.57-19.57" vector-effect="non-scaling-stroke"/>
    </g>
  </g>
  <path class="st0" d="M0,71.43v-5.54c.72-12.83,4.55-24.55,11.5-35.18,1.82-2.79,3.78-5.25,5.89-7.38C27.86,12.74,39.13,4.71,53.95,2.07c5.28-.94,8.36-1.52,9.24-1.75.24-.06.49-.09.74-.09h8.75c.87,0,1.74.08,2.59.24,5.01.93,8.96,1.75,11.83,2.45,14.19,3.45,27.77,13.65,36.68,25.1,1.07,1.39,3.06,4.59,5.95,9.61,1.83,3.17,3.27,6.6,4.34,10.3,1.82,6.31,2.89,10.72,3.21,13.21.09.68.15,3.93.16,9.74,0,3.55-.29,6.78-.92,9.67-2.04,9.46-5.39,18.27-10.06,26.42-10.9,19.03-24.31,39.22-35.35,55.29-.25.36-.03.86.41.92,10.51,1.41,20.56,4.26,30.16,8.54,8.72,3.9,16.46,10.64,14.47,21.14-1.92,10.18-17.8,16.51-27.17,18.88-7.27,1.84-15.08,3.22-23.43,4.13-4.95.53-9.49.75-13.64.64-6.74-.18-11.87.34-18.19-.41-7.8-.93-14.94-2.06-21.42-3.39-9.85-2.03-30.57-9.03-30.88-21.47,0-.35-.12-.7-.3-1-.29-.46-.31-.88-.07-1.27.14-.23.23-.49.25-.77.27-3.43,1.41-6.23,3.41-8.41,5.67-6.19,14.01-9.28,22.83-12.04,6.46-2.03,12.85-3.43,19.17-4.2.37-.05.56-.46.35-.77-11.99-17.56-23.43-35.47-34.33-53.74-1.79-3-4.3-7.93-7.52-14.79-2.73-5.81-4.46-13.42-5.21-22.82ZM68.83,178.66c.23,0,.45-.13.65-.39,12.92-16.47,24.3-34.32,35.45-51.81,6.05-9.48,11-17.84,14.85-25.07,6.9-12.92,10.83-24.1,9.1-38.68-1.56-13.24-7.74-27.11-17.32-36.14-3.67-3.46-7.88-6.67-12.62-9.63-8.47-5.3-20.43-8.35-30.24-8.34-9.8,0-21.77,3.07-30.23,8.39-4.73,2.96-8.93,6.18-12.6,9.64-9.57,9.05-15.73,22.93-17.27,36.17-1.71,14.58,2.24,25.76,9.16,38.67,3.86,7.22,8.82,15.57,14.89,25.04,11.17,17.48,22.58,35.31,35.52,51.76.2.26.42.39.66.39ZM69.05,208.37c1.95,0,6.6-.29,13.95-.85,5.08-.39,9.88-1.05,14.4-1.98,10.82-2.22,19.63-4.37,27.15-9.98,3.81-2.84,5.78-7.4,1.56-11-2.51-2.13-5.35-3.87-8.54-5.23-10.53-4.49-20.32-6.43-31.67-8.51-.37-.07-.74.08-.97.38-3.75,5.12-7.45,9.93-11.08,14.42-1.14,1.42-2.76,2.13-4.87,2.14-2.1,0-3.73-.7-4.88-2.1-3.66-4.48-7.39-9.26-11.17-14.36-.23-.3-.61-.44-.97-.37-11.34,2.15-21.12,4.16-31.62,8.71-3.18,1.38-6.01,3.15-8.5,5.29-4.2,3.63-2.2,8.17,1.63,10.99,7.55,5.56,16.38,7.65,27.21,9.8,4.53.9,9.33,1.53,14.41,1.89,7.36.51,12.01.77,13.96.76Z"/>
  <path class="st7" d="M68.7,8.6c9.81-.01,21.77,3.04,30.24,8.34,4.74,2.96,8.95,6.17,12.62,9.63,9.58,9.03,15.76,22.9,17.32,36.14,1.73,14.58-2.2,25.76-9.1,38.68-3.85,7.23-8.8,15.59-14.85,25.07-11.15,17.49-22.53,35.34-35.45,51.81-.2.26-.42.39-.65.39s-.46-.13-.66-.39c-12.94-16.45-24.35-34.28-35.52-51.76-6.07-9.47-11.03-17.82-14.89-25.04-6.92-12.91-10.87-24.09-9.16-38.67,1.54-13.24,7.7-27.12,17.27-36.17,3.67-3.46,7.87-6.68,12.6-9.64,8.46-5.32,20.43-8.38,30.23-8.39ZM96.99,69.9c0-15.56-12.61-28.17-28.17-28.17s-28.17,12.61-28.17,28.17,12.61,28.17,28.17,28.17,28.17-12.61,28.17-28.17Z"/>
  <path class="st1" d="M96.99,69.9c0,15.56-12.61,28.17-28.17,28.17s-28.17-12.61-28.17-28.17,12.61-28.17,28.17-28.17,28.17,12.61,28.17,28.17ZM88.37,69.88c0-10.81-8.76-19.57-19.57-19.57s-19.57,8.76-19.57,19.57,8.76,19.57,19.57,19.57,19.57-8.76,19.57-19.57Z"/>
  <circle class="st8" cx="68.8" cy="69.88" r="19.57"/>
  <path class="st8" d="M68.98,187.76c2.11,0,3.73-.72,4.87-2.14,3.63-4.49,7.33-9.3,11.08-14.42.23-.3.6-.45.97-.38,11.35,2.08,21.14,4.02,31.67,8.51,3.19,1.36,6.03,3.1,8.54,5.23,4.22,3.6,2.25,8.16-1.56,11-7.52,5.61-16.33,7.76-27.15,9.98-4.52.93-9.32,1.59-14.4,1.98-7.35.56-12,.85-13.95.85-1.95.01-6.6-.25-13.96-.76-5.08-.36-9.88-.99-14.41-1.89-10.83-2.15-19.66-4.24-27.21-9.8-3.83-2.82-5.83-7.36-1.63-10.99,2.49-2.14,5.32-3.91,8.5-5.29,10.5-4.55,20.28-6.56,31.62-8.71.36-.07.74.07.97.37,3.78,5.1,7.51,9.88,11.17,14.36,1.15,1.4,2.78,2.1,4.88,2.1Z"/>
</svg>