<?xml version="1.0" encoding="UTF-8"?>
<svg id="Capa_1" xmlns="http://www.w3.org/2000/svg" version="1.1" viewBox="0 0 1024 1536">
  <!-- Generator: Adobe Illustrator 29.4.0, SVG Export Plug-In . SVG Version: 2.1.0 Build 152)  -->
  <defs>
    <style>
      .st0 {
        fill: #1d2530;
      }

      .st1 {
        fill: #fdd03d;
      }

      .st2 {
        fill: #212a30;
      }

      .st3 {
        fill: #fecf3d;
      }

      .st4 {
        fill: #4b3433;
      }

      .st5 {
        fill: #fdcf3d;
      }

      .st6 {
        fill: #fecf3c;
      }

      .st7 {
        fill: #1e262e;
      }

      .st8 {
        fill: #222a30;
      }

      .st9 {
        fill: #1e272e;
      }

      .st10 {
        fill: #fdd03c;
      }

      .st11 {
        fill: #edf2fe;
      }

      .st12 {
        fill: none;
      }

      .st13 {
        fill: #20262e;
      }

      .st14 {
        fill: #0f1113;
      }

      .st15 {
        fill: #6a6696;
      }

      .st16 {
        fill: #20282e;
      }

      .st17 {
        fill: #e4e3e2;
      }

      .st18 {
        fill: #432f2f;
      }

      .st19 {
        fill: #fefcfc;
      }

      .st20 {
        fill: #222a31;
      }

      .st21 {
        fill: #f5a678;
      }

      .st22 {
        fill: #20292f;
      }

      .st23 {
        fill: #1f292f;
      }

      .st24 {
        fill: #1f282f;
      }

      .st25 {
        fill: #a66824;
      }

      .st26 {
        fill: #e3e2e2;
      }

      .st27 {
        fill: #1d252d;
      }

      .st28 {
        fill: #7c7ff5;
      }

      .st29 {
        fill: #aa95b9;
      }

      .st30 {
        fill: #4d46c3;
      }

      .st31 {
        fill: #fefefe;
      }

      .st32 {
        fill: #212b30;
      }

      .st33 {
        fill: #583713;
      }

      .st34 {
        fill: #4a3432;
      }

      .st35 {
        fill: #edf2fd;
      }

      .st36 {
        fill: #1f282e;
      }

      .st37 {
        fill: #1d252e;
      }
    </style>
  </defs>
  <g>
    <path class="st11" d="M627.23,405.39l1.01,14c1.53-.75,2.29-.86,3.99-.62,11.77,1.65,46.24,16.55,57.38,22.74,1.01.56,24.67,15.25,24.79,14.6l71.95,47.78,66.88,71.51c69.89,93.29,103.7,212.93,85.69,329.19-5.91,38.15-17.45,80.31-31.92,116.08-1.19,2.93-2.69,6.34-4.77,8.73-4.1-2.01-8.52-11.95-6-16-.07-1.86,1.6-3.42,5-4.68-11.64-36.52-25.34-72.52-39.87-107.74-11.86-28.76-25.19-53.16-40.28-80.1-1.11-1.98-1.52-4.26-1.86-6.48-8.58-35.77-33.78-80.47-76.61-73.22-8.87-5.3-18.57-9-29.22-8.06l-2.17-1.72-4.69-.42c-10.18-6.26-20.61-10.45-31.31-12.58.35-2.8.29-2.52-1.96-3.5-15.36-6.72-33.34-8.75-49.04-14.5l-3.76.69c-14.23-6.84-28.41-13.56-42.56-20.18l-1.69-2.51c-.63-.92-1.22-1.85-1.68-2.85s-.9-1.93-1.01-2.9c-2.45-22.16-3.95-43.88-4.27-66.18-.01-.99.31-1.99.64-3.02s.81-2.06,1.32-3.05c3.5-6.94,9.08-15.14,15-20l1.19-2.38c31.73-12.56,56.84-56.72,31.77-86.17l.05-2.44c-2.87-2.02-2.88-5.27,1-5,1.11-4.91,1.78-9.91,2-15-2.81-.45-2.66-2.07,0-3,.21-1.51-.29-2.8-1.42-3.89,2.88-17.66,5.01-35.42,4.51-53.35l1.9-3.77Z"/>
    <path class="st11" d="M325.09,473.72h0c.87.06,1.56.76,1.61,1.64l.54,10.83c.02.31.12.61.3.87,2.34,3.45,3.27,7.66,2.77,12.62-2.26,55.93-4.03,122.41,42.51,162.06,8.06,6.87,17.23,12.31,27.26,15.79.26.09.5.24.69.45l2.4,2.59c.06.07.12.13.17.2,1.07,1.52,1.46,4.15.07,5.35-.57.49-.65,1.33-.33,2.01,1.9,3.95,1.65,8.52-.71,12.37-.07.12-.13.24-.17.37l-.5,1.63c-.11.36-.33.67-.63.89-3.36,2.46-10.73,7.26-13.92,8.67-3.78,1.66-7.62,3.03-11.31,1.83-.38-.12-.79-.14-1.17,0-15.08,5.4-28.27,10.31-43.03,16.63-.25.11-.47.27-.65.48l-2.31,2.75c-.19.22-.43.4-.71.5-36.81,13.82-67.95,35.49-83.3,72.99-14.81,36.2-26.15,73.53-34.01,111.99,0,.05-.02.09-.03.13-.54,1.87-1.79,5.48-3.56,6.84-.77.59-1.88.39-2.44-.41h0c-.84-1.21-1.35-2.63-1.47-4.1l-.79-9.73c-.01-.13-.04-.25-.07-.37-8.69-27.15-6.3-52.8-1.94-80.51,0-.06.02-.12.02-.19,1.7-30.02-23.64-21.39-25.94.48-.05.49-.3.93-.69,1.22l-1.22.89c-.17.12-.31.28-.43.46-1.32,1.98-2.33,1.37-2.78-1.03-.03-.15-.08-.31-.14-.45l-1.25-2.56c-.08-.16-.13-.32-.16-.49-1.61-9.68-2.13-19.1-1.57-28.28.02-.36.16-.7.38-.98,15.92-20.46-.86-22.8-18.01-22.33-.64.02-1.23-.31-1.55-.87l-.43-.75c-.17-.29-.41-.54-.72-.68-2.12-.98-2.27-5.34-.3-6.58.46-.29.73-.79.75-1.32.35-10.3-.5-20.88-2.79-30.9-.13-.57-.55-1.04-1.11-1.24-.88-.32-.81-.91.12-1.46.48-.28.77-.81.79-1.36.32-6.54.08-13.87-1.75-20.03-.15-.52-.55-.95-1.06-1.11-.99-.31-.95-.92.02-1.49.49-.29.77-.83.79-1.39.1-2.45.03-4.99-.77-7.24-.16-.45-.53-.78-.96-.97-.97-.44-1.02-.99-.15-1.44.52-.27.88-.79.92-1.37.18-2.56-.09-4.95-.83-7.17-.15-.47-.53-.82-.98-1.03-.39-.18-.63-.38-.7-.59-.21-.56-.61-1.01-1.2-1.07-5.48-.54-4.29-6,3.62-5.56,347.74,19.38,148.13,577.38-31.85,208.09-16.22-33.28,12.94-186.7,16.54-200.44,18.17-69.2,91.22-162.28,165.98-202.98,4.08-2.22,28.38-16.75,30.65-16.08.56.16,1.57,1.36,2.22,2.25.3.41.77.67,1.27.7Z"/>
    <path class="st6" d="M526.8,180.36l-1.42,1.86c-2.86.35-18.33.81-18.99-1.15.96-24.8,5.3-48.98,13.04-72.53-1.35,4.81-3.16,9.38-5.42,13.73-1.31,1.09-28.45,1.76-30.17.92-.66-.32-1.23-.74-1.66-1.36-1.14-4.4-7.24-23.42-3.48-10.37,5.67,19.66,13.55,47.38,12.86,67.63-.15,4.46-16.68,3.64-20.26,3.14l-1.5-1.87c1.04-1.61,2.07,0,2.08-4.46.04-18.62-18.35-26.98-26.62-42.5-28.14-52.81,23.01-112.51,78.21-88.21,35.23,15.51,47.42,61.38,25.74,93.08-9.03,13.19-28.08,22.57-22.41,42.09Z"/>
    <path class="st2" d="M469.8,208.36c.77-.53,1.55-1.02,2.38-1.38s1.61-.67,2.41-.69c17.8-.42,35.77-.46,53.3-.17.48,1.33.45,2.75-.09,4.24-.89,2.29-3.44,5.78-5.63,6.87-2.83,1.42-6.23.69-7.22,1.29-.47.28-2.71,6.32-6.16,8.84-8.86,6.47-17.08,4.25-24-3.5-1.25-1.39-1.84-4.3-3-5-1.39-.84-3.56-.33-5.03-.97-4.69-2.03-5.9-5.06-6.97-9.53Z"/>
    <path class="st15" d="M469.8,180.36v11h58c.5,0-.36-8.73,0-10,1.77,2.21,1.11,14.2,1,18-1.42.91-2.44.23-3.06-2.05l-53.31.6c-.95.22-.78,4.2-.46,4.42l55.62-.94,1.22,1.98c-.19,3.21.24,3.81-1,7,.28-4.86.58-2.04-1.76-2.3-10.1-1.11-19.82.16-29.7.34-8.83.17-17.76-.29-26.54-.05-1.5-6.29-1.21-13.34-1-20,.1-3.11-.74-5.31,1-8Z"/>
    <path class="st23" d="M528.8,203.36l-58.99,1-.03-8.42,57.44-.65,1.57,4.07c-.04,1.33.08,2.68,0,4Z"/>
    <g>
      <path class="st0" d="M469.8,180.36c3.52-.68,19.02,1.6,19.93-1.62-2.18-24.83-6.43-48.59-14.78-72.08,5.64-9.16,7.38,14.19,9.46,14.76l27.75-.2c2.62-.65,5.45-21.14,9.63-16.86,1.58,1.61-9.63,37.47-10.7,43.79-1.8,10.65-1.96,21.51-3.29,32.2.67.67,16.05-.62,19,0,.51.11.72.65,1,1,.89,3.7.89,7.03,0,10-.08.79-.36,1.94-.92,1.97-15.82.62-34.55.8-50.32.03-3.64.68-5.9.01-6.76-2-.99-3.12-.71-7.5,0-11Z"/>
      <path class="st1" d="M511.8,125.36c-4.3,18.05-7.69,36.37-8,55l-9.44.04-8.57-55.04h26Z"/>
    </g>
    <g>
      <g>
        <path class="st28" d="M627.23,405.39c.75,23.42-1.47,38.56-5,61-18.3-10.49-37.51-19.41-57.64-26.76l-3.36-3.24c-32.39-21.06-66.41-38.37-104.85-49.18-42.93-12.08-79.47-13.59-123.38-14.99-2.36-.07-4.61-.95-6.77-1.83,16.25-56.17,63.45-94.16,121.51-99.99,88.15-8.85,176.41,39.54,179.49,134.99Z"/>
        <path class="st30" d="M326.23,370.39c75.12-2.38,153.01,12.35,216.92,52.58,6.1,3.84,13.36,8.15,18.08,13.42-7.06.97-17.54-1.4-23-6-1.59.66-3.25.94-4.96.81-64.37-15.41-133.76-31.34-198.99-12.42l-5.05-.39-1.51,2.62c-3.98,1.01-7.15,2.47-9.49,4.38-20.52-.52-43.07-1.42-63-6.5-11.68-2.98-28.29-9.05-18.84-23.84,12.8-20.02,68-23.97,89.84-24.66Z"/>
      </g>
      <path class="st17" d="M671.23,1303.39c.53,9-.69,18.69-.07,27.59.14,2.02.17,2.45,2.07,3.41-2.87.71-6.81,1.3-10,2l-2-32c1.37-3.08,8.09-3.88,10-1Z"/>
      <path class="st2" d="M666.23,1242.39c11.37,1.09,3.22,14.77,6.52,21.98.96,2.1,10.48,10.74,10.48,11.52v27.5c-3.97.15-8.03-.21-12,0-3.48.18-6.93.9-10,1-6.62.22-13.37.03-20,0-3.26,2.75-6.8,2.77-10,0-3.32-.06-6.68.04-10,0v-27.5c0-1.01,11.46-10.27,12.48-12.52,2.6-5.72-3.27-20.59,4.52-21.98l1.46-2.2c8.25-.59,16.63-.36,24.88.07l1.67,2.14Z"/>
      <path class="st10" d="M665.23,1205.39c.01,6.99-.02,14.01,0,21l1,14v2c-5.62-.54-22.95-.9-28,0v-38c9.14.8,17.77,1.29,27,1Z"/>
      <g>
        <path class="st19" d="M624.23,700.39c-4.36.71-4.17,5.57-6,9-2.07,1.69-3.4,4.02-4,7-10.7,21.44-18.59,46.83-25.5,70-10.55,35.4-17.87,71.74-26.46,107.54-42.83.54-85.74.85-128.58.5-2.36-.02-4.55-1.06-6.92-1.08-29.84-.26-59.71.28-89.54.04,7.09-52.5,16.63-104.9,30.5-156,1.33-4.89,6.32-16.78,6.5-20.59.11-2.22-1.69-1.52-3-2.41,3.46-1.24,6.98-1.75,10.37-3.13,5.83-2.38,10.4-8,16.63-9.87l2.11,2.63c2.88,67.77,84.18,59.62,127.87,33.8,18.72-11.06,46.42-34.38,46.22-57.55l1.81-1.88c9.46,2.18,18.08,8.3,26.98,12.52,6.76,3.2,14.05,6.92,21.02,9.48Z"/>
        <path class="st19" d="M327.23,731.39c-11.72,32.45-18.19,66.91-24.69,100.81-5.66,29.49-10.13,56.4-17.23,85.77-3.17,13.11-5.78,26.36-9.08,39.42l-2.04-3.43c-3.69-31.48-4.76-63.31-5.77-95.53-.09-2.72-3.12,10.49-1.61,11.93,1.19,30.33,3.63,61,7.31,92.01l-.9,14.02c.05.99-.01,2,0,3l-1,12c-2.06,15.22-2.55,31.3-3,47-.9,3.25-.67,6.72,0,10-.13,1.04-1.15,2.33-2,3l-1.44,1.67c-15.92-4.5-31.84-9.01-47.77-13.52l-3.79-3.15c-9.07-16.47-18.39-32.84-27-49.58,3.07-19.97,12.92-39,14-59.42l3.5-8c12.47-48.77,26.2-122.54,65.49-156.51,16.73-14.47,36.93-22.88,57.01-31.49Z"/>
        <path class="st31" d="M711.23,731.39c-28.77,4.92-56.47,54.49-67,79,4.03-18.19,9.62-36.17,15.73-53.77,3.09-8.9,10.39-31.74,15.27-38.23,2.66-3.53,5.34-1.17,9.26.24,8.84,3.17,18.75,7.93,26.74,12.76Z"/>
        <path class="st16" d="M276.23,957.39c-.04,6.21-1.09,13.06-3,19-1.71-31.08-7.2-62.91-8.08-94.52-.16-5.69-.79-18.28.1-22.96.32-1.68,1.22-2.52,2.49-3.52l2.48,2.5c.46,17.98.88,36.05,2.02,53.98.93,14.62,4.08,31.18,3.99,45.51Z"/>
      </g>
      <g>
        <path class="st33" d="M682.23,1204.39c10.52,25.12,26.88,48.43,49.49,64,1.11,1.86.4,5.66.51,8,.28,5.9,2.41,33.83.01,36.51-.72.81-8.28,4.16-10.05,4.95-14.23,6.38-33.81,12.81-48.97,16.53-3.3.13-3.72-.15-4.06-3.27-.77-6.99-.35-17.51.18-24.66l1.88-3.07c2.45-3.18,9.4-2.93,12,0-.78-.21-1.94-.54-2-1.15-.35-3.41-.63-22.44,0-24.92l2-1.44-2.19.37c-11.24-8.6-12.09-14.95-10.68-28.51l-4.14-5.35c-2.66-.32-2.54-1.24,0-2l-1-14c-2.5-7.04-2.48-13.95,0-21,2.76-3.19,13.87-3.83,17-1Z"/>
        <g>
          <path class="st25" d="M624.23,700.39l3.91-.76,39.3,10.84c8.47,2.05,11.07,4.69,7.8,7.92l1.08,1.94-4.01,8.04c-9.9,26.71-19.25,54.05-28.07,82.02l.02,5.15c-26.43,73.21-33.68,156.67-21.02,232.85l-1.29,2.21c-11.56,1.94-23.35,4.15-34.24,8.72-18.07,7.57-24.11,25.59-7,37.76l-.3,1.63c-9.17,12.14-10.91,27.25,3.31,36.23-4.97,14.48-3.9,27.28,11.33,34.18l1.87,2.22c-6.6,26.61,20.79,29.15,40.26,30.95l1.07,2.1c.69.09,1.98.28,2,.67.34,5.28.98,32.96,0,36.15l-2,1.17c-2.24,5.4-2.84,11.43-1.81,18.07-.02,1.66-.27,3.25-.93,4.79-1.11,2.61-11.19,12.21-14.26,11.65.78.21,1.94.54,2,1.15.29,3.04.55,23.07,0,24.92l-2,1.44c3.26-2.73,6.8-2.76,10,0l2.03.83.93,28.4c5.19,3.83,5.9-3.65,5.49-7.85l-.62-19.79,2.16-1.6c5.68-3.01,14.21-2.88,20,0,.78.04,1.95.21,2.05.77,1.04,5.98,2.32,23.8,1.85,29.65l-1.91,1.58c-99.28,21.9-257.29,20.45-355-8.5-5.7-1.69-33.43-10.6-34.81-15.19-1.02-3.4.06-10.64-.2-14.8-1.68-26.29-3.04-52.25-3.99-78.51-.59-2.03-1.15-4.07-1.56-6.14s-.8-4.11-.89-6.17c-2.13-49.55-3.67-101.23.14-149l2.3-1.69c-1.37-.81-2.03-2.48-2-5-1.71-2-.4-3.41,2-3-.69-3.27-.91-6.75,0-10-.49-.92-.94-1.84-1.25-2.81-1.64-5,.25-37.09,2.58-41.65.46-.9,2.05-10.28,2.68-11.09.07-4.04-.6.52,0-3.44.23-.63-.25-1.8,0-3l2.06-15.4.94-3.6c3.19-23.04,7.69-45.9,13.49-68.55,7.54-43.05,16.31-85.81,26.31-128.29,2-10.83,5.74-20.55,11.2-29.16.53-.78,1.08-1.53,1.74-2.19,2.96-2.98,35.28-15.43,39.51-15.24.92.04,1.84.22,2.75.43,3.43-.34,5.61-.36,4.84,3.81-16.61,49.89-27.23,109.03-35.25,163.81l-2.49,10.31c74.02-.66,148.38-.61,223.06.16,9.36-46.58,19.97-93.81,35.4-138.4,3.92-11.32,8.02-22.97,13.3-33.71.39-.8,1.06-1.48,1.76-2.15s3.59-7.08,4.44-7.63"/>
          <g>
            <path class="st33" d="M579.98,927.6c19.01-2.77,21.58,27.46,6.51,30.55-23.49,4.82-23.73-28.04-6.51-30.55Z"/>
            <path class="st33" d="M307.73,925.94c20.14,0,19.44,33.92-2.94,30.38-14.95-2.36-14.72-30.39,2.94-30.38Z"/>
            <path class="st26" d="M641.23,1304.39c-1.08,8.47,1.47,20.48-.03,28.47-.86,4.56-8.18,5.17-8.97,1.03l-1-29.5c3.32.06,6.68-.01,10,0Z"/>
          </g>
        </g>
      </g>
      <path class="st29" d="M666.23,1240.39c-1.85-3.77-.99-9.59-1-14,1.84,3.76,1,9.59,1,14Z"/>
      <g>
        <path class="st5" d="M729.23,1200.39l4.47,3.76c6.44,10.64,14.73,20.13,24.74,27.53l1.79,3.71,2.51.04c14.04,9.85,33.17,9.34,46.44-1.78l3.05-.26c7.56,1.83,20.71,3.2,29,4-18.28,43.59-67.55,62.21-107.51,33.01l-1.49,5.99c-1.87-1.12-2.53-3.37-1.97-6.74-18.96-13.54-40.76-38.27-48.19-60.6-.5-1.51-.18-3.15.16-4.66-.05-.77,0-1.95.5-2.07,3.84-.89,26.72-4.74,28.5-3.17,16.26,33.46,51.85,77.44,93.27,60.46-28.85,9.34-52.03-6.39-70.53-27.18-3.16-3.55-22.11-29.06-20.77-33.68.8-2.77,11.12-6.28,13.03-3.36.44,1.72,2.14,3.42,3,5Z"/>
        <path class="st6" d="M819.23,814.39l-2.6-.28c-11.21-18.03-25.4-32.46-42.59-43.27l-.81-2.45-1.29-.56c.05-7.61-16.17-2.02-20.82.46-41.37,22.04-61.87,105.35-66.84,146.95-5.33,44.62-2.78,89.62,2.09,133.99-1.29,1.07-32.27-.43-33.34-1.73-2.11-2.56-4.57-38.6-5.02-45.68-3.93-62.22,4.29-129.38,25.87-187.96-29.61,72.88-29.78,155.09-23.31,233.35-1.63,1.94-23.55,3.37-27.34,1.18-2.58.53-2.57-1.86-2.89-3.59-11.9-66.11-2.78-172.37,23.89-234.41,7.56-24.14,23.04-50.04,41.9-67.2,6.31-5.74,16.45-14.26,25.1-11.8,8.12-1.39,17.21.75,24.69,3.81,2.28.93,5.2,3.73,7.01,4.01,2.71.42,9.48-1.2,13.79-.81,33.37,3.04,56.39,41.52,62.85,71.16.32,1.46,1.55,3.87-.34,4.83Z"/>
        <path class="st22" d="M623.23,1048.39c8.48-1.22,17.44-1.41,26-2-6.25-58.02-6.35-118.7,5.48-176.02,7.98-38.64,28.5-100.81,64.61-121.39,1.27-.72,2.21-1.94,3.9-1.59-5.5,5.01-11.49,9.41-16.51,14.98-50.28,55.68-60.84,171.63-56.48,243.5.82,13.51,3.08,27.02,3.99,40.52,10.39-.2,20.8-.12,31,1.99-10.02-72.44-8.85-155.96,20.54-223.96,9.86-22.81,34.1-64.82,62.98-62.03,4.87.47,4.92,1.15,4.49,6l-1.92,1.52c-25.68-2.22-43.23,24.69-53.56,45.21-12.21,24.23-19.79,51.11-25.16,77.49l-2.36,1.78c-1.8-3.65-2.13-3.08-.98,1.7-8.45,46.76-6.03,92.69-1.75,139.62.5,5.51-1.11,4.69,0,1.96.07-.16.37-.23.74-.28.53,3.32,1.34,7.09,2.1,10.4.46,2,3.87,5.35.24,6.48-2.12.66-19.46-2.7-23.8-2.93-19.65-1.04-68.62,3.25-84.48,14.6-7.67,5.49-10.94,15-5.52,23.39.97,1.5,4.21,4.77,6.01,5.06,3.64.59,18.12-3.85,23.26-4.7,10.09-1.67,26.22-5,35.85-5.25,3.31-.08,7.83,1.02,4.35,4.45-1.74,1.7-32.52,4.75-38.22,5.78-13.79,2.48-31.75,4.07-31.79,22.21,0,4.62,4.81,14.25,9.02,16.04,1.3.55,23.48-4.75,27.64-5.37,9.42-1.41,22.72-3.85,31.86-4.17,4.09-.14,9.55.46,5.75,5.01-11.83,1.55-23.81,2.34-35.61,4.16-7.3,1.13-26.12,2.79-29.44,9.56-5.79,11.85,5.51,24.42,17.42,25.21s30.03-3.51,42.81-3.98c2.4-.09,9.55-.71,10.54,1.55,1.27,2.92-2.65,3.1-4.6,3.38-16.61,2.41-33.81,1.99-50.44,4.57-9.28,21.92,21.84,25.17,36.55,26.53,18.6,1.71,39.35.46,57.86-2.13,10.26-1.43,20.42-4.44,30.63-5.87.21,1.23-.27,2.92,0,4l-11.01,3.01c-1.59,1.61,9.96,19.11,11.78,21.72,17.66,25.24,44.77,48.56,77.76,37.32,1.71-.58,8.84-4.64,9.46-4.03-2.33,6.58-14.33,10.86-20.75,11.74-37.32,5.07-69.71-34.12-83.38-64.6-1.19-.75-23.98,3.5-27.86,3.85-4.99.46-12,.85-17,1-7.47,3.48-19.76,2.9-27-1-13.86-1.22-42.23-3.37-44-21.49-.3-3.07,1.17-9.89.89-10.85-.42-1.45-8.43-5.55-10.43-7.62-7.41-7.67-6.87-20-2.54-28.93-15.34-8.06-12.86-26.4-2.93-38.08-13.98-6.48-13.29-24.47-2.5-34.02,9.44-8.35,33.98-13.2,46.5-15Z"/>
        <path class="st31" d="M773.23,768.39c15.95,5.48,36.69,32.13,46,46,20.91,31.17,37.28,69,51.49,104.01,11.99,29.53,22.84,59.98,32.38,90.27-1.26,3.37-4.62,3.49-6.87,4.71-17.09,9.29-34.66,17.99-52.32,26.18-26.58,12.31-54.16,22.63-80.68,34.82-2.16,1.88-3.9.71-3-2-1.83.06-3.34-1.35-4.54-4.23l-18.31-33.72,6.3,13.86-.45,3.09c.65,2.4-.63,2.52-2.83,1.6.12,9.13-1.24,18.21-4.02,26.94-.96,2.54-2.3,2.19-4.16.46-13.72-16.45-25.39-34.4-44-46-7.2-45.84-6.64-94.36,2-140,6.48-36.08,28.99-114.41,68.98-125.52,4.56-1.27,9.44-2.05,14.02-.48Z"/>
        <path class="st35" d="M732.23,1080.39c2.47.5,2.17-1.11,2.69-2.76,1.4-4.36,2.72-11.17,3.29-15.76.13-1.08-.91-15.64,3-12.48.52,3.82,1.89,1.86,2.02,2l1.27-.6c4.89,7.08,9.55,13.84,13.99,20.28l1.74,1.32c.17.06,2.87,1.88,3,2,3.97,3.79,7.49,14.2,11,18.99l-32.29-.97c-3.25-3.97-6.42-8.08-9.71-12.02Z"/>
        <path class="st35" d="M783.23,1223.39l-.66,3.16c-4.81,4.37-16.33,11.41-22.34,8.84-13.12-8.88-23.33-20.89-31-35,18.13,7.24,35.67,16.23,54,23Z"/>
        <path class="st32" d="M812.23,1233.39c-13.92,13.36-32.94,14.15-49.36,4.84-1.56-.88-2.1-2.48-2.64-2.84,8.51-1.99,16.44-6.28,23-12,9,3.32,20.03,7.83,29,10Z"/>
        <path class="st14" d="M690.23,894.39c-7.72,42.99-8.38,96.81-2,140,.14.95-.15,2.06,0,3l-1,2.5c-5.85-49.12-6.01-99.13,2-147.99l1,2.49Z"/>
        <path class="st36" d="M760.23,1072.39c-.14-.04-1.34,1-2.34.76-3.95-.94-10.63-17.71-14.66-21.76-4.48-6.85-6.69-14.91-10.45-22.05-4.99-9.46-11.53-18.78-16.72-28.28-4.69-8.61-18.37-30.83-20.38-38.64-.96-3.72,1.24-5.47,3.56-2.54l60.99,112.51Z"/>
      </g>
      <g>
        <g>
          <path class="st34" d="M329.23,418.39l1.91,1.1c-1.94,22.28-3.88,44.57-5.81,66.86l-2.1,1.03c-.51-3.97-.89-9.61-3-13-.16-8.09-2.52-16.5-2.93-24.53s1.09-16.34.93-24.47c0-.5-1.55-1.58-.05-2.47,3.4-2.31,7.28-3.17,11.05-4.53Z"/>
          <path class="st4" d="M561.23,436.39c19.28,6.29,40.62,16.07,58.04,26.46,1.57.93,3.08,1.17,2.96,3.54-.15.94.12,2.04,0,3-.21,5.07-.88,10.07-2,15-.04.28-1.92,2.75-1,5-13.51-8.94-34.16-2.76-45.92,6.58-9.58,7.61-8.73,17.07-20.06,2.89-14.57-18.24-17.4-45.99-15.02-68.48,7.8,1.98,15.31,3.49,23,6Z"/>
          <path class="st31" d="M622.23,469.39c-.16,1.31.86,6.88-.14,9.36l-1.86,5.64c.67-4.79.27-10.21,2-15Z"/>
          <g>
            <path class="st21" d="M538.23,430.39l1.72,3c-1.72,24.34,1.56,55.27,22.04,70.82,10.51-11.63,23.59-20.75,40.3-21.15,5.52-.13,15.63.55,16.95,6.32,9.79,6.48,12.97,25.65,11.98,36.48-1.87,20.58-24.57,49.78-44.98,54.52-3.38,3.22-7.81,4.07-13.29,2.55,1.24,6.35.67,12.16-1.71,17.45.03,27.53,1.7,50.83,5,78,1.35,11.14-.97,13.66-6.58,22.92-25.4,41.89-92.78,70.49-139.4,51.57-24.27-9.85-31.26-26.62-32.02-51.48-.14-4.63-.07-9.37,0-14l3.47-.5c38.92,16.38,82.27-7.9,108.32-35.91-23.85,23.73-52.92,36.04-86.46,35.67-4.49-.05-19.02-.63-22.02-2.55-1.05-.67-1.85-1.53-2.31-2.7-48.02-14.34-70.99-66.29-74.99-112.51-2.35-27.11,2.28-55.75-1.01-81.49l6-69c61.61-22.11,146.94-3.74,209,12Z"/>
            <g>
              <path class="st18" d="M586.23,580.39c-3.59,7.22-8.95,14.78-15,20,0-5.16.16-10.37.02-15.53-.03-1.24-1-2.81-.98-2.99.22-2.03,4.35-.42,6.4-.43,3.71-.01,5.98-.23,9.56-1.06Z"/>
              <path class="st2" d="M399.23,681.39c17.82,5.32,42.21,3.63,60-1.5,20.38-5.88,37.7-18.69,52.52-33.49,2.06-.43,1.69.98,1.44,2.44-1.41,8.15-30,27.74-37.94,32.07-23,12.54-52.75,19.38-77.02,6.48.03-1.89-.68-4.91,1-6Z"/>
              <path class="st4" d="M381.23,558.39l2.28.86c10.31,19.17,37.6,9.51,52.72,1.14,11.36-2.4,22.31,1.87,31.48,9.02,12.52,9.76,28.49,38.96.13,35.87-3.04-.33-12.7-4.08-13.9-3.77s-7.67,6.55-11.02,8.07c-7.54,3.41-17.09,3.8-24.7.32-2.59-1.18-5.5-5.15-6.63-5.36-1.33-.26-8.08,4.75-11.3,5.41-7.7,1.59-14.29.58-21.07-3.04-2.19-1.17-8.1-6.26-8.62-6.36-3.54-.68-22.76,12.25-25.3-2.71-2.73-16.08,12.29-34.1,27.68-37.21,2.49-.5,8.81,1.24,8.26-2.24Z"/>
              <path class="st9" d="M436.23,560.39l-11.74,7.76c-9.71,3.72-18.16,5.65-28.47,2.95-7.27-1.9-13.16-4.99-14.79-12.71-4.76-22.62,8.75-40.42,18.38-59.12,1.34-2.6,5.71-15.37,8.11-14.87,4.02.83-1.12,11.88-2.02,13.96-9.48,21.91-22.32,31.2-19.46,58.53.61,5.8,1.84,6.18,6.74,8.26,18.34,7.78,26.89-1.29,43.25-4.75Z"/>
              <path class="st20" d="M498.15,453.31c-1.53,2.16-14.51-5.16-18.14-6.2s-9.62-2.28-13.41-2.59c-5.18-.43-16.75,1.55-19.66.67-1.67-.51-5.23-4.22-4.65-6.17.82-2.74,12.73-5.25,15.56-5.5,10.66-.94,29.08,3.05,36.87,10.89,1.83,1.84,5.21,6.41,3.44,8.9Z"/>
              <path class="st8" d="M463.95,476.58c17.06-3.73,17.07,33.51-.01,29.59-10.54-2.42-10.4-27.31.01-29.59Z"/>
              <path class="st2" d="M360.53,503.07c-9.91-8.97-2.08-36.82,10.72-26.21,12.05,10,.62,36.47-10.72,26.21Z"/>
              <path class="st8" d="M364,434.66c6.16-.71,17.42-.79,22.62,2.82,2.89,2.01.83,6.32-1.39,7.4-2.56,1.24-11.93-.65-16.38-.37-4.89.31-13.57,2.08-18.17,3.82-3.3,1.25-9.18,7.01-10.96,3.03-4.09-9.14,17.99-15.98,24.29-16.7Z"/>
              <path class="st7" d="M448.83,608.47c4.21-.63,1.48,4.36-.67,6.36-11,10.24-42.92,14.1-56.17,8.3-2.91-1.28-5.8-5.41-1.38-5.68,3.04-.19,11.87,2.62,16.12,2.94,12.95.95,21.25-.77,32.84-6.13,2.15-1,8.71-5.69,9.25-5.78Z"/>
              <path class="st27" d="M575.23,540.38c-.7-.7.33-3.43.95-4.54,2.29-4.07,20.6-24.69,24.62-28.37,3.17-2.9,8.04-2.68,5.42,1.41-2.14,3.34-24.32,29.3-26.45,30.55-1.1.64-3.88,1.61-4.55.94Z"/>
            </g>
          </g>
        </g>
        <g>
          <g>
            <path class="st21" d="M902.23,1029.39c13.02,36.65,34.28,93.31,32.04,131.54-3.04,52.1-42.39,81.35-93.04,76.46l-1.92,1.82c-8.66-.88-17.38-1.78-25.92-3.51l-1.16-2.31-3,1.18c-8.21-2.36-16.28-5.15-24.21-8.38l-1.8-2.81c-2.15.19-4.42.37-6.5-.35-13.46-4.64-29.66-12.12-42.57-18.47l-4.94-4.19c-3.14.54-5.31-2.55-3-5-1.3.05-2.31-.32-2.06-1.54-32.39,6.91-66.95,11.55-99.63,5.93-15.1-2.6-34.1-9.71-24.33-28.44,18.05-2,36.07-3.88,54.04-5.63-13.56-.24-27.21.89-40.96,3.37-31.69,6.05-47.29-34.57-8.37-37.1,15.33-2,30.28-4.02,44.85-6.07-21.18.81-42.18,3.8-63,8.97-16.85-6.03-16.68-32.3,1.68-37.78,18.78-4.12,37.71-7.47,56.8-10.03-.08-3.28-50.48,6.68-57.53,8.91-17.78,1.44-20.41-21.55-7.24-31.17,23.49-17.17,80.58-17.29,109.57-12.44l-1.64-4.01c-1.7-4.27-1.76-7.92-.18-10.96-1.15-.41-1.1-2.41,0-3,.74-.13,1.47-.22,2.2-.18,8.09.47,35.53,34.09,41.2,42.31l1.98,2.98c3.48,2.72,5.66,6.96,9.29,10.94.97.98,26.3,1.36,27.58.83.78-.32-7.09-13.56-8.02-14.79l.78-2.09,3.65-3.13c40.1-17.29,79.57-35.5,119.05-54.63,3.25-1.58,6.78-2.46,10.3-3.24,1.25,5.57,4.11,10.69,6,16Z"/>
            <path class="st13" d="M775.23,1097.38c0-1.07-.27-2.07.44-3.05,1.65-2.27,27.52-1.75,32.1-1.9,13.29-.44,25.35-1.73,38.95-.03,2.6.32,14.93,2.06,15.51,4.5,0,2.2-1.73,2.48-3.49,2.57-3.91.2-10.59-1.92-14.96-2.13-22.52-1.09-45.93.9-68.54.04Z"/>
          </g>
          <g>
            <path class="st21" d="M201.23,927.39c1.97,3.78,2.03,8.27.19,13.48-4.26,15.16-8.36,30.34-12.3,45.53l21.9,40.04c1.48,3.18,2.55,6.5,3.22,9.95.95.66,1.87,1.34,2.71,2.12s1.6,1.53,2.14,2.44c13.71,22.86,25.82,46.24,36.42,70.65-8.87-23.04-19.79-45.01-32.74-65.91.63-2.03.82-2.22,2.89-2.99s37.75,9.82,42.96,11.46l.63,2.24c-1.63,8.94-1.8,22.89-2.05,32.45-1.12,43.52.48,87.27,2.05,130.55-36.22,31.02-83.31,24.68-113.51-10.99-29.1-34.37-37.9-104.62-45.32-148.68-1.52-9.03-2.09-24.62-4.61-32.39-.98-3.02-16.56-21.73-19.97-27.03-11.41-17.69-31.65-54.58-29.62-75.45.24-2.44,2.05-4.56,2.02-5.99s-2.93-4.1-3.87-6.1c-2.13-4.53-3.12-10.53-1.67-15.42.88-2.96,7.22-8.76,7.28-9.44.06-.78-2.48-4.3-2.77-7-2.23-21.36,40.89-58.92,61.03-53.51.72-.32,1.43-.57,2.15-.58,9.2-.03,37.93,6.93,48.17,11.25,18.52,7.81,19.11,20.67,6.29,35.56-12.35-2.28-24.67-4.8-36.97-7.57-16.62-3.45-31.2.48-46.08,6.78-5.66,2.4-14.46,6.16-2.42,2.2,24.82-14.11,47.76-9.8,73.67-2.25,17.31,5.05,31.32,12.99,18.17,32.34,10.04-6.41,7.52-23.18-3.28-27.44-1.68-1.16-2.69-2.27-1.55-4.11,12.72-13.18,11.05-29.63-6.77-36.5l-1.37-2.69c1.02-26.84,32.52-36.8,30.04-1.47-1.17,16.69-5.41,29.9-4.07,48,1.21,16.32,7.99,28.48,7.04,46.46Z"/>
            <path class="st37" d="M165.23,833.39c.93.3,2.1.67,3,1,21.03,7.72,24.42,24.86,9,40.99,15.42,4.15,16.87,29.4,1,33.01-.21-4.74,4.51-7.48,5.56-11.92,1.43-6.06-.25-11.23-5.07-15.07-8.4-6.69-47.95-14.76-59.04-14.04-13.65.89-25.36,9.65-38.46,12.03.14-1.36-.64-3.12.62-4.09,2.43-1.86,18.63-8.16,22.42-9.37,24.69-7.84,45.93,1.49,69.95,6.02,20.54-27.73-6.55-33.02-27.98-38.07-9.42-2.22-19.33-4.16-28.01-6.49v-1c3.71-1.27,7.53-1.22,11.38-.87,8.6.77,27.17,5.19,35.62,7.87Z"/>
            <path class="st9" d="M267.23,1051.39c4.51,1.68,2.68,1.26,2,5l-44.99-12,16.51,28.98c3.67,7.01,18.14,36.51,17.49,42.51l-2.48.48c-7.63-14.37-13.35-29.63-21.01-43.99-6.51-12.19-13.88-23.91-20.52-35.98l53,15Z"/>
            <path class="st24" d="M161.32,975.47c.49,7.13,2.78,30.55-1.34,35.65-1.66,2.06-4.88,1.63-4.7-2.09.3-6.15,4.81-28.02-.05-32.15-1.47-1.25-24.65-6.06-27.52-5.96-6.35.21-12.28,6.53-18.98,5.47-1.91-2.83,1.03-3.75,3.13-4.88,20.9-11.3,26.18-1.53,45.13-.35,13.42.83,27.45-20.65,9.27-27.3-9.57-3.5-31.4-7.48-41.26-6.22s-23.56,8.34-32.7,8.36c-1.46,0-2.17-.67-2.06-2.1.38-1.68,17.25-6.9,20.23-7.78,16.44-4.83,20.7-5.21,37.79-2.26,9.67,1.67,26.06,3.64,30.48,13.52,6.14,13.72-4.51,25.24-17.42,28.09Z"/>
            <path class="st24" d="M82.23,914.38c-.56-.55.25-2.67.93-3.56,2.68-3.55,32.24-14.68,37.68-15.32,13.9-1.64,53.92,6.43,62.22,18.56,5.02,7.33,3.36,20.99-4.47,25.19-2.03,1.09-6.06,2.2-4.54-1.51,3.16-7.69,12.1-13.62,2.19-22.86-7.1-6.63-43.67-15.32-53.41-14.38-7.16.69-39.06,15.4-40.6,13.89Z"/>
          </g>
        </g>
      </g>
    </g>
    <g>
      <path class="st3" d="M163.58,834.37l-1.89,1.51c-14.71-4.49-30.03-7.31-45.11-8.51-.37-5.96.7-14.62-1.01-20.26-.52-1.73-8.89-4.96-9.91-13.33-1.66-13.64,11.68-14.11,21.92-14.41,2.61-.08,12.35,3.37,13-2,12.06,1.93,33.1-3.95,27.53,17.03-.91,3.45-6.34,8.38-6.54,10.48-.15,1.54.98,3.34,1.01,5,.14,8.22.64,16.3,1,24.49Z"/>
      <path class="st2" d="M127.58,779.37l-12.05-131.45c-1.32-4.03-6.18-6.8-6.89-11.11-.75-4.54.6-19.34.95-24.94.27-4.3,1.79-8.88.98-13.51,2.69,1.09,12.57-2.05,13.92-.9,1.47,1.25,6.61,32.99,9.03,37.52.11,3.84-3.45,6.6-4.67,10,1.47,14.76,7.15,66.06,4.73,44.39-.07-.66.66,4.04.73,4.7,1.08,2.73.68,3.04.27,6.3-.02.67-2.48-17.71-2.48-17.05,1.63,2.62,4.16,25.08,3.48,28.05.04.66-1.91-13.39-1.87-12.73,2.13,6.93,4.34,29.4,3.87,36.73.05.66-5.81-57.08-5.75-56.42,2.52,10.7,9.25,80.42,8.75,91.42.09,2.11.24,4.99,0,7,4.97,5.71-11.6,6.97-13,2Z"/>
    </g>
  </g>
  <line class="st12" x1="91.21" y1="719.82" x2="91.34" y2="719.63"/>
  <line class="st12" x1="143.47" y1="778.57" x2="131.09" y2="642.7"/>
</svg>