<?xml version="1.0" encoding="UTF-8"?>
<svg id="Capa_1" xmlns="http://www.w3.org/2000/svg" version="1.1" xmlns:xlink="http://www.w3.org/1999/xlink" viewBox="0 0 281 225">
  <!-- Generator: Adobe Illustrator 29.4.0, SVG Export Plug-In . SVG Version: 2.1.0 Build 152)  -->
  <defs>
    <style>
      .st0 {
        stroke: #3a3387;
      }

      .st0, .st1, .st2, .st3, .st4, .st5, .st6, .st7, .st8 {
        fill: none;
      }

      .st0, .st1, .st2, .st3, .st5, .st6, .st7, .st8 {
        stroke-width: 2px;
      }

      .st9 {
        fill: #1fbd32;
      }

      .st10 {
        fill: #fd5f60;
      }

      .st1 {
        stroke: #aea7fa;
      }

      .st2 {
        stroke: #a24fa4;
      }

      .st11 {
        fill: #131315;
      }

      .st12 {
        fill: #6052f8;
      }

      .st3 {
        stroke: #a19df1;
      }

      .st5 {
        stroke: #5448f0;
      }

      .st13 {
        fill: #fbfbfb;
      }

      .st6 {
        stroke: #8ddc97;
      }

      .st7 {
        stroke: #878788;
      }

      .st8 {
        stroke: #af59ac;
      }

      .st14 {
        fill: #473ee7;
      }

      .st15 {
        clip-path: url(#clippath);
      }
    </style>
    <clipPath id="clippath">
      <rect class="st4" width="281" height="225"/>
    </clipPath>
  </defs>
  <g class="st15">
    <g>
      <path class="st1" d="M0,184.2c1.3,7.29,4.86,12.14,10.67,14.55,2.43,1.01,6.38,1.53,11.86,1.55,14.09.07,28.18.03,42.27-.1" vector-effect="non-scaling-stroke"/>
      <path class="st3" d="M64.8,200.2l97.11.08" vector-effect="non-scaling-stroke"/>
      <path class="st1" d="M161.91,200.28c8.11,9.58,17.8,16.34,29.09,20.29,40.31,14.09,84.49-12.06,89.39-54.85,1.85-16.13-1.57-30.99-10.25-44.6-2.5-3.92-5.41-7.48-8.73-10.67" vector-effect="non-scaling-stroke"/>
      <path class="st3" d="M261.41,110.45c-17.9-17.92-41.76-23.85-66.02-17.29-.24.07-.48-.12-.48-.37l.08-5.25" vector-effect="non-scaling-stroke"/>
      <path class="st1" d="M194.99,87.54c0-16.63.02-33.27.06-49.9.02-6.32-.63-10.15-5.15-13.92-4.77-3.99-10.5-3.94-16.4-3.7" vector-effect="non-scaling-stroke"/>
      <path class="st3" d="M173.5,20.02l-11.06.08c-.35.01-.64-.28-.63-.62.01-2.38.03-4.02.06-4.92.17-6.9-4.14-13.67-11.64-14.15-4.19-.27-7.45,1.01-9.79,3.82-3.86,4.64-4.07,9.61-3.7,15.21.02.35-.25.65-.6.65H58.9c-.32,0-.58-.27-.56-.6.09-1.63.14-3.3.15-4.99.03-6.5-4.03-13.16-10.97-14.01-4.01-.49-7.24.45-9.7,2.82-5.02,4.83-4.78,9.95-4.62,16.38,0,.28-.22.51-.5.51-5.65,0-10.61-.04-14.87-.11-9.41-.15-16.03,3.58-17.83,13.31" vector-effect="non-scaling-stroke"/>
      <path class="st5" d="M173.5,20.02c1.47,1.97,1.88,4.26,1.25,6.86-.06.26.11.52.37.56,2.36.37,4.59,1.11,6.68,2.2" vector-effect="non-scaling-stroke"/>
      <path class="st2" d="M181.8,29.64h-18.46c-.28,0-.53.2-.58.47-.51,2.54-.81,5.32-.92,8.34-.13,3.69-.68,6.33-1.65,7.92-4.27,7.08-13.2,8.59-19.34,3.28-5.27-4.56-4.3-12.9-4.21-19.51,0-.3-.25-.55-.55-.55H58.83c-.26,0-.47.21-.46.47.07,3.75.64,10.2-.67,14.01-2.23,6.46-7.1,9.31-14.62,8.54-.36-.04-.71-.12-1.04-.25-10.17-3.8-8.98-13.28-8.88-22.21,0-.34-.27-.62-.61-.62-5.85.02-11.46.02-16.81,0-3.28-.01-6.43,1.2-6.61,4.79-.24,4.81-.26,14.07-.07,27.78,0,.31.25.55.56.55l172.61.02" vector-effect="non-scaling-stroke"/>
      <path class="st5" d="M182.23,62.67c-6.55.87-13.12,1.32-19.71,1.33-12.73.03-25.62.05-38.65.07-8.21.01-13.94.27-17.21.8-17.7,2.83-30.79,3.44-59.47,5.53-.19.01-.24.09-.13.23.02.03.05.04.08.04,16.29.21,25.83.27,28.64.18,12.93-.44,22.5-.54,28.72-.3,14.63.56,31.39.62,50.28.17,5.77-.14,12.19.07,19.24.62,3.21.25,6.96.06,11.27-.57.93-.13,1.79.5,1.93,1.43l1.78,11.41c0,.06.08.1.14.07l4.89-2.21c.15-.07.25-.22.25-.39-.13-9.72-.59-14.34.25-19.31.03-.19.05-.08.05.34-.11,8.49.03,16.96.41,25.43" vector-effect="non-scaling-stroke"/>
      <path class="st5" d="M261.41,110.45l-6.03-2.37c-.16-.06-.34-.06-.49,0l-2.55,1.15c-.45.2-.6.76-.32,1.17,2.02,2.96,4.25,5.72,6.68,8.27,1.22,1.27,3.19,4.1,5.91,8.48,2.19,3.54,3.42,7.13,3.68,10.78" vector-effect="non-scaling-stroke"/>
      <path class="st3" d="M268.29,137.94c-6.45-17.95-22.14-31.85-40.41-36.31-20.12-4.91-40.59.78-55.21,15.56-10.81,10.92-16.4,24.37-16.77,40.36" vector-effect="non-scaling-stroke"/>
      <path class="st5" d="M155.9,157.55c-2.77-16.77,7.12-31.73,17.43-43.95.19-.23.32-.5.39-.78l.88-3.6c.24-.99-.56-1.92-1.57-1.85-1.84-.02-6.42,3.15-8.11,4.17" vector-effect="non-scaling-stroke"/>
      <path class="st3" d="M164.92,111.54c5.93-6.41,12.83-11.38,20.68-14.93.4-.18.65-.57.65-1.01v-22.94c0-.22-.17-.39-.38-.39H9.48c-.2,0-.37.17-.37.37l.02,53.32" vector-effect="non-scaling-stroke"/>
      <path class="st5" d="M9.13,125.96l-.14,5.58c0,.08-.06.15-.15.16-.08.01-.16-.04-.18-.12-.47-1.63-1.2-3.05-2.18-4.25-.82-1.02-2.27-1.27-3.39-.58l-3.09,1.9" vector-effect="non-scaling-stroke"/>
      <path class="st8" d="M182.23,62.67l3.61.15c.28.01.52-.22.51-.5-.15-8.84-.18-17.7-.11-26.57.03-3.52-1.45-5.56-4.44-6.11" vector-effect="non-scaling-stroke"/>
      <path class="st1" d="M164.92,111.54l-4.05,5.09" vector-effect="non-scaling-stroke"/>
      <path class="st7" d="M160.87,116.63c.04-7.59,0-14.87-.16-21.84-.05-2.33-1.08-3.65-3.38-3.62-9.03.12-18.22.14-27.55.07-2.34-.02-3.6,1-3.79,3.05-.19,2.15-.17,10.19.06,24.12.05,3.19,1.14,5.4,3.29,6.63,1.33.77,3.84,1.14,7.54,1.11,5.63-.05,11.44-.09,17.43-.12" vector-effect="non-scaling-stroke"/>
      <path class="st1" d="M154.31,126.03c-4.29,8.69-6.77,17.65-7.46,26.9-1.01,13.59,1.84,26.3,8.56,38.15" vector-effect="non-scaling-stroke"/>
      <path class="st3" d="M155.41,191.08l-112.57.08" vector-effect="non-scaling-stroke"/>
      <path class="st1" d="M42.84,191.16c-8.67-.07-17.37-.11-26.08-.11-3.24,0-5.46-1.16-6.65-3.48-.66-1.29-.99-3.88-.98-7.77.03-17.96.03-35.91,0-53.84" vector-effect="non-scaling-stroke"/>
      <path class="st6" d="M38.13,126.89h28.56c1.98,0,3.59-1.61,3.59-3.59v-25.84c0-3.24-2.43-5.87-5.43-5.87h-24.88c-3,0-5.43,2.63-5.43,5.87v25.84c0,1.98,1.61,3.59,3.59,3.59" vector-effect="non-scaling-stroke"/>
      <path class="st7" d="M81.24,93.05c-.94.94-1.41,2.11-1.41,3.52-.03,13.38-.04,22.33-.02,26.86,0,.2.03.4.08.59.45,1.56,1.32,2.36,2.61,2.41,5.96.21,16.04.22,30.23.03.44,0,.87-.21,1.28-.62s.62-.84.62-1.28c.2-14.19.19-24.27,0-30.23-.05-1.29-.85-2.16-2.41-2.61-.19-.05-.39-.08-.59-.08-4.53-.02-13.48-.02-26.86,0-1.41.01-2.58.48-3.52,1.41" vector-effect="non-scaling-stroke"/>
      <path class="st7" d="M82.02,170.07c1.39,1.39,3.08,2.09,5.05,2.1,13.01.05,20.76.07,23.23.06,2.94,0,4.46-.48,4.47-3.72.03-8.06.02-17.48-.02-28.25-.01-.82-.3-1.52-.87-2.09-.57-.58-1.27-.86-2.09-.87-10.78-.03-20.19-.02-28.25,0-3.24.01-3.71,1.53-3.72,4.47,0,2.48.03,10.22.09,23.23,0,1.98.71,3.66,2.11,5.06" vector-effect="non-scaling-stroke"/>
      <path class="st7" d="M70.13,140.58c0-1.74-1.4-3.16-3.15-3.17l-29.12-.05c-1.74,0-3.16,1.41-3.17,3.15l-.05,28.46c0,1.74,1.4,3.16,3.15,3.17l29.12.05c1.74,0,3.16-1.41,3.17-3.15l.05-28.46" vector-effect="non-scaling-stroke"/>
      <path class="st0" d="M160.87,116.63l-6.56,9.4" vector-effect="non-scaling-stroke"/>
      <path class="st7" d="M152.2,100.68c0-.28-.22-.5-.5-.5h-16.7c-.28,0-.5.22-.5.5v16.14c0,.28.22.5.5.5h16.7c.28,0,.5-.22.5-.5v-16.14" vector-effect="non-scaling-stroke"/>
      <path class="st6" d="M61.12,101.19c0-.28-.23-.51-.51-.51h-16.74c-.28,0-.51.23-.51.51v16.14c0,.28.23.51.51.51h16.74c.28,0,.51-.23.51-.51v-16.14" vector-effect="non-scaling-stroke"/>
      <path class="st7" d="M106.11,101.14c0-.26-.21-.47-.47-.47h-16.74c-.26,0-.47.21-.47.47v16.24c0,.26.21.47.47.47h16.74c.26,0,.47-.21.47-.47v-16.24" vector-effect="non-scaling-stroke"/>
      <path class="st1" d="M268.29,137.94c7.05,21.18,2.85,43.01-12.32,59.11-13.69,14.54-34.34,21.07-53.76,17.2-9.77-1.94-18.63-6.33-26.58-13.16-12.55-10.78-19.12-25.29-19.73-43.54" vector-effect="non-scaling-stroke"/>
      <path class="st6" d="M205.06,171.17c-.25.31-.71.33-.98.04l-15.63-17.07c-1.64-1.79-4.42-1.91-6.21-.27l-.25.23c-1.83,1.67-1.98,4.51-.33,6.36,6.27,7.03,12.68,14.08,19.23,21.15,2.93,3.17,5.74,3.08,8.43-.27,8.17-10.19,19.4-24.34,33.67-42.45,1.57-1.99,1.32-4.87-.58-6.57l-.2-.19c-1.8-1.67-4.64-1.47-6.18.45l-30.97,38.59" vector-effect="non-scaling-stroke"/>
      <path class="st5" d="M161.91,200.28c-2.69-2.91-4.86-5.98-6.5-9.2" vector-effect="non-scaling-stroke"/>
      <path class="st5" d="M42.84,191.16l5.83,8.38c.17.24.44.38.73.39l15.4.27" vector-effect="non-scaling-stroke"/>
      <path class="st7" d="M106.1,146.85c0-.33-.26-.59-.59-.59h-16.5c-.33,0-.59.26-.59.59v15.94c0,.33.26.59.59.59h16.5c.33,0,.59-.26.59-.59v-15.94" vector-effect="non-scaling-stroke"/>
      <path class="st7" d="M61.12,146.78c0-.29-.22-.51-.51-.51l-16.72-.03c-.28,0-.51.22-.51.51l-.03,16.12c0,.29.22.51.51.51l16.72.03c.28,0,.51-.22.51-.51l.03-16.12" vector-effect="non-scaling-stroke"/>
    </g>
  </g>
  <path class="st14" d="M173.5,20.02c1.47,1.97,1.88,4.26,1.25,6.86-.06.26.11.52.37.56,2.36.37,4.59,1.11,6.68,2.2h-18.46c-.28,0-.53.2-.58.47-.51,2.54-.81,5.32-.92,8.34-.13,3.69-.68,6.33-1.65,7.92-4.27,7.08-13.2,8.59-19.34,3.28-5.27-4.56-4.3-12.9-4.21-19.51,0-.3-.25-.55-.55-.55H58.83c-.26,0-.47.21-.46.47.07,3.75.64,10.2-.67,14.01-2.23,6.46-7.1,9.31-14.62,8.54-.36-.04-.71-.12-1.04-.25-10.17-3.8-8.98-13.28-8.88-22.21,0-.34-.27-.62-.61-.62-5.85.02-11.46.02-16.81,0-3.28-.01-6.43,1.2-6.61,4.79-.24,4.81-.26,14.07-.07,27.78,0,.31.25.55.56.55l172.61.02c-6.55.87-13.12,1.32-19.71,1.33-12.73.03-25.62.05-38.65.07-8.21.01-13.94.27-17.21.8-17.7,2.83-30.79,3.44-59.47,5.53-.19.01-.24.09-.13.23.02.03.05.04.08.04,16.29.21,25.83.27,28.64.18,12.93-.44,22.5-.54,28.72-.3,14.63.56,31.39.62,50.28.17,5.77-.14,12.19.07,19.24.62,3.21.25,6.96.06,11.27-.57.93-.13,1.79.5,1.93,1.43l1.78,11.41c0,.06.08.1.14.07l4.89-2.21c.15-.07.25-.22.25-.39-.13-9.72-.59-14.34.25-19.31.03-.19.05-.08.05.34-.11,8.49.03,16.96.41,25.43l-.08,5.25c0,.25.24.44.48.37,24.26-6.56,48.12-.63,66.02,17.29l-6.03-2.37c-.16-.06-.34-.06-.49,0l-2.55,1.15c-.45.2-.6.76-.32,1.17,2.02,2.96,4.25,5.72,6.68,8.27,1.22,1.27,3.19,4.1,5.91,8.48,2.19,3.54,3.42,7.13,3.68,10.78-6.45-17.95-22.14-31.85-40.41-36.31-20.12-4.91-40.59.78-55.21,15.56-10.81,10.92-16.4,24.37-16.77,40.36-2.77-16.77,7.12-31.73,17.43-43.95.19-.23.32-.5.39-.78l.88-3.6c.24-.99-.56-1.92-1.57-1.85-1.84-.02-6.42,3.15-8.11,4.17,5.93-6.41,12.83-11.38,20.68-14.93.4-.18.65-.57.65-1.01v-22.94c0-.22-.17-.39-.38-.39H9.48c-.2,0-.37.17-.37.37l.02,53.32-.14,5.58c0,.08-.06.15-.15.16-.08.01-.16-.04-.18-.12-.47-1.63-1.2-3.05-2.18-4.25-.82-1.02-2.27-1.27-3.39-.58l-3.09,1.9V33.4c1.8-9.73,8.42-13.46,17.83-13.31,4.26.07,9.22.11,14.87.11.28,0,.51-.23.5-.51-.16-6.43-.4-11.55,4.62-16.38,2.46-2.37,5.69-3.31,9.7-2.82,6.94.85,11,7.51,10.97,14.01-.01,1.69-.06,3.36-.15,4.99-.02.33.24.6.56.6h77.24c.35,0,.62-.3.6-.65-.37-5.6-.16-10.57,3.7-15.21,2.34-2.81,5.6-4.09,9.79-3.82,7.5.48,11.81,7.25,11.64,14.15-.03.9-.05,2.54-.06,4.92,0,.34.28.63.63.62l11.06-.08Z"/>
  <path class="st12" d="M194.99,87.54c-.38-8.47-.52-16.94-.41-25.43,0-.42-.02-.53-.05-.34-.84,4.97-.38,9.59-.25,19.31,0,.17-.1.32-.25.39l-4.89,2.21c-.06.03-.13-.01-.14-.07l-1.78-11.41c-.14-.93-1-1.56-1.93-1.43-4.31.63-8.06.82-11.27.57-7.05-.55-13.47-.76-19.24-.62-18.89.45-35.65.39-50.28-.17-6.22-.24-15.79-.14-28.72.3-2.81.09-12.35.03-28.64-.18-.03,0-.06,0-.08-.04-.11-.14-.06-.22.13-.23,28.68-2.09,41.77-2.7,59.47-5.53,3.27-.53,9-.79,17.21-.8,13.03-.02,25.92-.04,38.65-.07,6.59,0,13.16-.46,19.71-1.33l3.61.15c.28.01.52-.22.51-.5-.15-8.84-.18-17.7-.11-26.57.03-3.52-1.45-5.56-4.44-6.11-2.09-1.09-4.32-1.83-6.68-2.2-.26-.04-.43-.3-.37-.56.63-2.6.22-4.89-1.25-6.86,5.9-.24,11.63-.29,16.4,3.7,4.52,3.77,5.17,7.6,5.15,13.92-.04,16.63-.06,33.27-.06,49.9Z"/>
  <path class="st10" d="M181.8,29.64c2.99.55,4.47,2.59,4.44,6.11-.07,8.87-.04,17.73.11,26.57,0,.28-.23.51-.51.5l-3.61-.15-172.61-.02c-.31,0-.55-.24-.56-.55-.19-13.71-.17-22.97.07-27.78.18-3.59,3.33-4.8,6.61-4.79,5.35.02,10.96.02,16.81,0,.34,0,.62.28.61.62-.1,8.93-1.29,18.41,8.88,22.21.33.13.68.21,1.04.25,7.52.77,12.39-2.08,14.62-8.54,1.31-3.81.74-10.26.67-14.01,0-.26.2-.47.46-.47h77.26c.3,0,.55.25.55.55-.09,6.61-1.06,14.95,4.21,19.51,6.14,5.31,15.07,3.8,19.34-3.28.97-1.59,1.52-4.23,1.65-7.92.11-3.02.41-5.8.92-8.34.05-.27.3-.47.58-.47h18.46Z"/>
  <path class="st13" d="M164.92,111.54l-4.05,5.09c.04-7.59,0-14.87-.16-21.84-.05-2.33-1.08-3.65-3.38-3.62-9.03.12-18.22.14-27.55.07-2.34-.02-3.6,1-3.79,3.05-.19,2.15-.17,10.19.06,24.12.05,3.19,1.14,5.4,3.29,6.63,1.33.77,3.84,1.14,7.54,1.11,5.63-.05,11.44-.09,17.43-.12-4.29,8.69-6.77,17.65-7.46,26.9-1.01,13.59,1.84,26.3,8.56,38.15l-112.57.08c-8.67-.07-17.37-.11-26.08-.11-3.24,0-5.46-1.16-6.65-3.48-.66-1.29-.99-3.88-.98-7.77.03-17.96.03-35.91,0-53.84l-.02-53.32c0-.2.17-.37.37-.37h176.39c.21,0,.38.17.38.39v22.94c0,.44-.25.83-.65,1.01-7.85,3.55-14.75,8.52-20.68,14.93ZM38.13,126.89h28.56c1.98,0,3.59-1.61,3.59-3.59v-25.84c0-3.24-2.43-5.87-5.43-5.87h-24.88c-3,0-5.43,2.63-5.43,5.87v25.84c0,1.98,1.61,3.59,3.59,3.59ZM81.24,93.05c-.94.94-1.41,2.11-1.41,3.52-.03,13.38-.04,22.33-.02,26.86,0,.2.03.4.08.59.45,1.56,1.32,2.36,2.61,2.41,5.96.21,16.04.22,30.23.03.44,0,.87-.21,1.28-.62s.62-.84.62-1.28c.2-14.19.19-24.27,0-30.23-.05-1.29-.85-2.16-2.41-2.61-.19-.05-.39-.08-.59-.08-4.53-.02-13.48-.02-26.86,0-1.41.01-2.58.48-3.52,1.41ZM82.02,170.07c1.39,1.39,3.08,2.09,5.05,2.1,13.01.05,20.76.07,23.23.06,2.94,0,4.46-.48,4.47-3.72.03-8.06.02-17.48-.02-28.25-.01-.82-.3-1.52-.87-2.09-.57-.58-1.27-.86-2.09-.87-10.78-.03-20.19-.02-28.25,0-3.24.01-3.71,1.53-3.72,4.47,0,2.48.03,10.22.09,23.23,0,1.98.71,3.66,2.11,5.06ZM70.13,140.58c0-1.74-1.4-3.16-3.15-3.17l-29.12-.05c-1.74,0-3.16,1.41-3.17,3.15l-.05,28.46c0,1.74,1.4,3.16,3.15,3.17l29.12.05c1.74,0,3.16-1.41,3.17-3.15l.05-28.46Z"/>
  <path class="st11" d="M160.87,116.63l-6.56,9.4c-5.99.03-11.8.07-17.43.12-3.7.03-6.21-.34-7.54-1.11-2.15-1.23-3.24-3.44-3.29-6.63-.23-13.93-.25-21.97-.06-24.12.19-2.05,1.45-3.07,3.79-3.05,9.33.07,18.52.05,27.55-.07,2.3-.03,3.33,1.29,3.38,3.62.15,6.97.2,14.25.16,21.84ZM152.2,100.68c0-.28-.22-.5-.5-.5h-16.7c-.28,0-.5.22-.5.5v16.14c0,.28.22.5.5.5h16.7c.28,0,.5-.22.5-.5v-16.14Z"/>
  <path class="st9" d="M38.13,126.89c-1.98,0-3.59-1.61-3.59-3.59v-25.84c0-3.24,2.43-5.87,5.43-5.87h24.88c3,0,5.43,2.63,5.43,5.87v25.84c0,1.98-1.61,3.59-3.59,3.59h-28.56ZM61.12,101.19c0-.28-.23-.51-.51-.51h-16.74c-.28,0-.51.23-.51.51v16.14c0,.28.23.51.51.51h16.74c.28,0,.51-.23.51-.51v-16.14Z"/>
  <path class="st11" d="M114.01,125.84c-.41.41-.84.62-1.28.62-14.19.19-24.27.18-30.23-.03-1.29-.05-2.16-.85-2.61-2.41-.05-.19-.08-.39-.08-.59-.02-4.53,0-13.48.02-26.86,0-1.41.47-2.58,1.41-3.52.94-.93,2.11-1.4,3.52-1.41,13.38-.02,22.33-.02,26.86,0,.2,0,.4.03.59.08,1.56.45,2.36,1.32,2.41,2.61.2,5.96.21,16.04,0,30.23,0,.44-.21.87-.62,1.28ZM106.11,101.14c0-.26-.21-.47-.47-.47h-16.74c-.26,0-.47.21-.47.47v16.24c0,.26.21.47.47.47h16.74c.26,0,.47-.21.47-.47v-16.24Z"/>
  <path class="st13" d="M268.29,137.94c7.05,21.18,2.85,43.01-12.32,59.11-13.69,14.54-34.34,21.07-53.76,17.2-9.77-1.94-18.63-6.33-26.58-13.16-12.55-10.78-19.12-25.29-19.73-43.54.37-15.99,5.96-29.44,16.77-40.36,14.62-14.78,35.09-20.47,55.21-15.56,18.27,4.46,33.96,18.36,40.41,36.31ZM205.06,171.17c-.25.31-.71.33-.98.04l-15.63-17.07c-1.64-1.79-4.42-1.91-6.21-.27l-.25.23c-1.83,1.67-1.98,4.51-.33,6.36,6.27,7.03,12.68,14.08,19.23,21.15,2.93,3.17,5.74,3.08,8.43-.27,8.17-10.19,19.4-24.34,33.67-42.45,1.57-1.99,1.32-4.87-.58-6.57l-.2-.19c-1.8-1.67-4.64-1.47-6.18.45l-30.97,38.59Z"/>
  <path class="st12" d="M155.9,157.55c.61,18.25,7.18,32.76,19.73,43.54,7.95,6.83,16.81,11.22,26.58,13.16,19.42,3.87,40.07-2.66,53.76-17.2,15.17-16.1,19.37-37.93,12.32-59.11-.26-3.65-1.49-7.24-3.68-10.78-2.72-4.38-4.69-7.21-5.91-8.48-2.43-2.55-4.66-5.31-6.68-8.27-.28-.41-.13-.97.32-1.17l2.55-1.15c.15-.07.33-.07.49,0l6.03,2.37c3.32,3.19,6.23,6.75,8.73,10.67,8.68,13.61,12.1,28.47,10.25,44.6-4.9,42.79-49.08,68.94-89.39,54.85-11.29-3.95-20.98-10.71-29.09-20.29-2.69-2.91-4.86-5.98-6.5-9.2-6.72-11.85-9.57-24.56-8.56-38.15.69-9.25,3.17-18.21,7.46-26.9l6.56-9.4,4.05-5.09c1.69-1.02,6.27-4.19,8.11-4.17,1.01-.07,1.81.86,1.57,1.85l-.88,3.6c-.07.28-.2.55-.39.78-10.31,12.22-20.2,27.18-17.43,43.95Z"/>
  <path class="st12" d="M9.13,125.96c.03,17.93.03,35.88,0,53.84-.01,3.89.32,6.48.98,7.77,1.19,2.32,3.41,3.48,6.65,3.48,8.71,0,17.41.04,26.08.11l5.83,8.38c.17.24.44.38.73.39l15.4.27c-14.09.13-28.18.17-42.27.1-5.48-.02-9.43-.54-11.86-1.55-5.81-2.41-9.37-7.26-10.67-14.55v-55.55l3.09-1.9c1.12-.69,2.57-.44,3.39.58.98,1.2,1.71,2.62,2.18,4.25.02.08.1.13.18.12.09,0,.15-.08.15-.16l.14-5.58Z"/>
  <path class="st9" d="M205.06,171.17l30.97-38.59c1.54-1.92,4.38-2.12,6.18-.45l.2.19c1.9,1.7,2.15,4.58.58,6.57-14.27,18.11-25.5,32.26-33.67,42.45-2.69,3.35-5.5,3.44-8.43.27-6.55-7.07-12.96-14.12-19.23-21.15-1.65-1.85-1.5-4.69.33-6.36l.25-.23c1.79-1.64,4.57-1.52,6.21.27l15.63,17.07c.27.29.73.27.98-.04Z"/>
  <path class="st11" d="M113.88,138.17c.57.57.86,1.27.87,2.09.04,10.77.05,20.19.02,28.25,0,3.24-1.53,3.71-4.47,3.72-2.47.01-10.22,0-23.23-.06-1.97,0-3.66-.71-5.05-2.1-1.4-1.4-2.1-3.08-2.11-5.06-.06-13.01-.09-20.75-.09-23.23.01-2.94.48-4.46,3.72-4.47,8.06-.03,17.47-.04,28.25,0,.82,0,1.52.29,2.09.87ZM106.1,146.85c0-.33-.26-.59-.59-.59h-16.5c-.33,0-.59.26-.59.59v15.94c0,.33.26.59.59.59h16.5c.33,0,.59-.26.59-.59v-15.94Z"/>
  <path class="st11" d="M70.09,169.04c0,1.75-1.43,3.16-3.17,3.15l-29.12-.05c-1.75,0-3.16-1.42-3.15-3.17l.05-28.46c0-1.75,1.43-3.16,3.17-3.15l29.12.05c1.75,0,3.16,1.42,3.15,3.17l-.05,28.46ZM61.12,146.78c0-.29-.22-.51-.51-.51l-16.72-.03c-.28,0-.51.22-.51.51l-.03,16.12c0,.29.22.51.51.51l16.72.03c.28,0,.51-.22.51-.51l.03-16.12Z"/>
  <path class="st14" d="M155.41,191.08c1.64,3.22,3.81,6.29,6.5,9.2l-97.11-.08-15.4-.27c-.29,0-.56-.15-.73-.39l-5.83-8.38,112.57-.08Z"/>
</svg>