<?xml version="1.0" encoding="UTF-8"?>
<svg id="Capa_1" xmlns="http://www.w3.org/2000/svg" version="1.1" viewBox="0 0 385 542">
  <!-- Generator: Adobe Illustrator 29.4.0, SVG Export Plug-In . SVG Version: 2.1.0 Build 152)  -->
  <defs>
    <style>
      .st0 {
        fill: #ffc059;
      }

      .st1 {
        stroke: #e5bda3;
      }

      .st1, .st2, .st3, .st4, .st5, .st6, .st7, .st8, .st9, .st10, .st11, .st12, .st13, .st14, .st15, .st16, .st17, .st18, .st19, .st20, .st21, .st22, .st23, .st24, .st25, .st26, .st27, .st28, .st29, .st30, .st31, .st32, .st33 {
        fill: none;
        stroke-width: 2px;
      }

      .st34 {
        fill: #ecf5fe;
      }

      .st2 {
        stroke: #8d9eb0;
      }

      .st3 {
        stroke: #7f8b97;
      }

      .st4 {
        stroke: #6e4e3b;
      }

      .st5 {
        stroke: #d5b19c;
      }

      .st35 {
        fill: #465ab3;
      }

      .st36 {
        fill: #11212f;
      }

      .st6 {
        stroke: #f6dbac;
      }

      .st7 {
        stroke: #793b32;
      }

      .st8 {
        stroke: #d79689;
      }

      .st9 {
        stroke: #e6ebee;
      }

      .st37 {
        fill: #fff;
      }

      .st10 {
        stroke: #dbb8a3;
      }

      .st38 {
        fill: #cdd6dd;
      }

      .st11 {
        stroke: #e6eef8;
      }

      .st12 {
        stroke: #2c3e71;
      }

      .st13 {
        stroke: #f0aa9a;
      }

      .st14 {
        stroke: #dde6ee;
      }

      .st15 {
        stroke: #a3add9;
      }

      .st16 {
        stroke: #886a7d;
      }

      .st39 {
        fill: #ca7a47;
      }

      .st40 {
        fill: #e15535;
      }

      .st17 {
        stroke: #8399b0;
      }

      .st18 {
        stroke: #f0f3f8;
      }

      .st19 {
        stroke: #d6683e;
      }

      .st20 {
        stroke: #cca892;
      }

      .st21 {
        stroke: #162f48;
      }

      .st41 {
        fill: #1a3c61;
      }

      .st22 {
        stroke: #74899f;
      }

      .st23 {
        stroke: #d7dfe7;
      }

      .st24 {
        stroke: #304b8a;
      }

      .st25 {
        stroke: #798490;
      }

      .st26 {
        stroke: #f6faff;
      }

      .st27 {
        stroke: #f0d4a5;
      }

      .st28 {
        stroke: #7d92a9;
      }

      .st29 {
        stroke: #e19e93;
      }

      .st30 {
        stroke: #6f7c86;
      }

      .st42 {
        fill: #e0e7f1;
      }

      .st31 {
        stroke: #ffe0ac;
      }

      .st32 {
        stroke: #e7a59a;
      }

      .st33 {
        stroke: #725b54;
      }
    </style>
  </defs>
  <g>
    <path class="st26" d="M199.6,129.49c-5.1,1.14-11.71,1.24-15.22,1.68-17.79,2.23-34.4,7.96-49.85,17.19-5.62,3.36-9.92,5.97-13.04,10.72" vector-effect="non-scaling-stroke"/>
    <path class="st9" d="M121.49,159.08c-19.82-.09-33.71-.11-41.67-.06-7.67.04-12.81,3.09-15.43,9.16-1.01,2.33-1.5,5.7-1.48,10.09.07,15.24.08,27.08.03,35.51,0,.34-.25.62-.58.67l-15.09,2.07c-.06.01-.12.03-.18.06-3.48,1.62-2.71,6.96-2.28,10.19" vector-effect="non-scaling-stroke"/>
    <path class="st18" d="M44.81,226.77c-7.6.1-15.22.14-22.85.11-2.1,0-4.95.62-5.02,2.92-.3,9.95-.93,18.57,2.32,25.89,5.19,11.68,15.1,18.86,26.87,23.41,8.16,3.15,17.31,5.2,27.44,6.14" vector-effect="non-scaling-stroke"/>
    <path class="st31" d="M73.57,285.24c-.09,21.13-.09,42.16,0,63.09.02,4.78.7,8.68-4.54,9.65-4.16.76-5.62-3.17-5.57-6.97.11-8.79.76-15.99-3.63-22.8-7.55-11.69-24.79-12.75-33.23-1.59-2.74,3.62-4.11,8.3-4.12,14.03-.03,18.19-.04,36.36-.02,54.49" vector-effect="non-scaling-stroke"/>
    <path class="st18" d="M22.46,395.14l-10.6-.28c-2.38-.07-4.37,1.81-4.45,4.2l-.02.41c-.08,2.43,1.88,4.45,4.31,4.45l126.31.18" vector-effect="non-scaling-stroke"/>
    <path class="st26" d="M138.01,404.1c1.59,2.17,3.44,4.03,5.53,5.59,39.28,29.29,88.76,37.45,135.19,21.36,12.43-4.31,24.82-10.83,37.18-19.58,3.24-2.29,5.76-4.68,7.56-7.16" vector-effect="non-scaling-stroke"/>
    <path class="st18" d="M323.47,404.31c10.47-.26,20.97.02,31.48-.3,3.09-.09,5.01-.47,6.05-3.4.93-2.61-1.52-5.62-4.01-5.68-3.89-.11-9.11-.14-15.66-.1-.49.01-1.25.33-2.29.97-.26.16-.54.27-.83.33-.39.08-1.6.13-3.64.15-4.64.04-12.98.01-25.03-.08-2.89-.03-3.47-.44-1.75-1.24" vector-effect="non-scaling-stroke"/>
    <path class="st2" d="M307.79,394.96l30.74-.09c.29,0,.52-.25.5-.54l-.48-5.58" vector-effect="non-scaling-stroke"/>
    <path class="st1" d="M338.55,388.75c6.22-1.48,12.2-2.86,18.42-4.96,5.13-1.74,8.88-3.65,11.23-5.73,7.04-6.22,8.69-15.28,8.22-24.41-.55-10.79-1.8-22.52-3.76-35.17" vector-effect="non-scaling-stroke"/>
    <path class="st9" d="M372.66,318.48c1.63-.22,3.04-.7,4.22-1.44.59-.37.86-1.08.68-1.74l-8.88-32.15" vector-effect="non-scaling-stroke"/>
    <path class="st26" d="M368.68,283.15c.91-2.58,1.38-4.69,1.39-6.33.07-6.98-.88-14.99-2.84-24.04-7.31-33.66-27.6-63.83-54.26-85.21-6.52-5.22-10.15-8.03-15.61-9.93" vector-effect="non-scaling-stroke"/>
    <path class="st1" d="M297.36,157.64c-.94-2.57-2.64-4.72-5.09-6.47" vector-effect="non-scaling-stroke"/>
    <path class="st15" d="M292.27,151.17l1.67-6.56" vector-effect="non-scaling-stroke"/>
    <path class="st2" d="M293.94,144.61c1.73-13-.07-26.02-9.24-35.91-10.83-11.69-24.32-16.54-40.46-14.55-12.58,1.55-22.23,7.73-28.94,18.54-.21.34-.59.53-.98.5-6.5-.48-25.43-1.71-27.06,6.88-.07.35-.03.72.1,1.05,1.77,4.57,7.57,7.16,12.24,8.37" vector-effect="non-scaling-stroke"/>
    <path class="st24" d="M293.94,144.61c-.38.17-.55.48-.5.91h0c0-1.68-.4-3.2-.27-4.64,1.77-18.81-5.54-32.53-21.93-41.16-3.83-2.02-7.24-3.35-10.22-4-4.55-.99-8.46-.72-13.91-.64-8.63.13-16.13,2.92-22.49,8.37-3.43,2.95-6.21,6.07-8.33,9.38-.14.21,0,.5.26.53,21.03,2.14,40.18,8.95,57.47,20.44,7.19,4.77,12.88,10.18,17.89,17,.19.26.18.43-.05.52" vector-effect="non-scaling-stroke"/>
    <path class="st33" d="M291.86,151.32c-.55.04-1.06-.12-1.52-.49" vector-effect="non-scaling-stroke"/>
    <path class="st21" d="M290.34,150.83c-.08-.58-.22-.92-.41-1.03-4.11-2.31-8.07-4.85-11.9-7.61-1.65-1.19-4.8-2.96-9.44-5.29" vector-effect="non-scaling-stroke"/>
    <path class="st33" d="M268.59,136.9c-.2-.1-.52-.26-.96-.49-9.58-4.91-18.97-8.37-28.18-10.37-8.8-1.91-19.15-3.47-27.52.04-1.56.66-2.41,1.78-2.55,3.35-.1,1.06-.26,1.74-.47,2.05" vector-effect="non-scaling-stroke"/>
    <path class="st17" d="M208.91,131.48l-9.31-1.99" vector-effect="non-scaling-stroke"/>
    <path class="st3" d="M206.12,176.27c.72,16.2,6.59,32.96,24.32,36.51" vector-effect="non-scaling-stroke"/>
    <path class="st14" d="M230.44,212.78c.22.09.34.31.35.65,0,.1-.02.21-.07.3l-4.89,8.75" vector-effect="non-scaling-stroke"/>
    <path class="st17" d="M225.83,222.48c-3.05.83-6.52,2.35-10.39,4.54-1.39.78-2.28,1.56-2.68,2.34" vector-effect="non-scaling-stroke"/>
    <path class="st14" d="M212.76,229.36c-.81-.29-1.46-.26-1.96.07-3.83,2.51-7.83,5.71-12,9.62-9.57,8.99-14.5,20.84-17.81,32.99-1.81,6.63-5.6,21.15-11.39,43.56-.22.86.11,1.77.83,2.29,1.45,1.05,3.06,1.82,4.83,2.31" vector-effect="non-scaling-stroke"/>
    <path class="st10" d="M175.26,320.2l-6.82,27.25" vector-effect="non-scaling-stroke"/>
    <path class="st3" d="M168.44,347.45l-1.17,1.14" vector-effect="non-scaling-stroke"/>
    <path class="st10" d="M167.27,348.59c-.83.65-1.49.7-1.97.15-.09-.1-.15-.24-.16-.38-.22-2.33-.74-4.99-1.56-7.97-.99-3.58-3.34-5.56-7.03-5.93-2.45-.25-4.18.59-5.17,2.5" vector-effect="non-scaling-stroke"/>
    <path class="st3" d="M151.38,336.96c-.15.19-.38.35-.68.47" vector-effect="non-scaling-stroke"/>
    <path class="st32" d="M150.7,337.43c-.2.17-.34.13-.41-.11-1.55-5.21-3.31-10.34-5.28-15.39-1.17-3.01-1.09-6.49.24-10.44" vector-effect="non-scaling-stroke"/>
    <path class="st3" d="M145.25,311.49c1.65,3.2,3.85,9.81,7.39,10.8,4.34,1.23,7.95-2.49,6.09-6.76-1.25-2.89-2.78-6.18-4.59-9.88-.2-.42-.22-.91-.04-1.34.49-1.17.58-2.31.28-3.42-.87-3.25-2.39-5.46-4.55-6.61" vector-effect="non-scaling-stroke"/>
    <path class="st32" d="M149.83,294.28c1.99-1.71,2.31-4,.97-6.85-1.19-2.55-2.43-5.04-3.72-7.48-1.45-2.75-3.33-4.02-5.64-3.81" vector-effect="non-scaling-stroke"/>
    <path class="st3" d="M141.44,276.14c-2.13-5.02-4.25-9.84-6.36-14.47-2.03-4.46-5.44-6.9-10.21-7.32-10.47-.92-25.33,8.36-27.03,19.18" vector-effect="non-scaling-stroke"/>
    <path class="st11" d="M97.84,273.53c-.46-10.3,11.59-17.42,20.27-19.87,14.82-4.17,18.71,8.89,23.42,19.47.7,1.58,2.58,2.23,4.11,1.43,3.9-2.04,8.83-5.16,11.72-8.25,9.22-9.86,10.39-23.58,8.84-36.72-.04-.32-.16-.62-.36-.88-.87-1.11-1.96-1.66-3.27-1.66-26.91-.02-53.83-.07-80.74-.14" vector-effect="non-scaling-stroke"/>
    <path class="st14" d="M81.83,226.91l-.03-5.26c0-.55.4-1.01.93-1.09l19.81-3.07c2.21-.34,3.66-2.51,3.11-4.69l-.08-.31c-.58-2.19-2.7-3.61-4.95-3.31l-18.31,2.47" vector-effect="non-scaling-stroke"/>
    <path class="st26" d="M82.31,211.65c-.03-2.17.28-3.92.92-5.25,6.66-13.76,15.27-26.29,25.82-37.58" vector-effect="non-scaling-stroke"/>
    <path class="st14" d="M109.05,168.82l31.65-.04c.37,0,.65.32.6.68-.34,2.66-.63,6.97,3.28,7,3.72.03,5.95,0,6.7-.08,1.48-.17,2.62-1.4,2.65-2.89l.09-3.62c.01-.45.33-.83.77-.92,6.23-1.31,4.54-9.79-1.73-9.73-10.49.11-21.02.06-31.57-.14" vector-effect="non-scaling-stroke"/>
    <path class="st4" d="M290.34,150.83c-7.69-.07-13.39,5.43-15.35,12.51-.27.95-.6,4.47-.99,10.55-.15,2.3-.64,6.21-1.48,11.72-2,13.13-10.18,21.87-22.75,25.75-5.65,1.74-11.57,2.3-17.78,1.68" vector-effect="non-scaling-stroke"/>
    <path class="st30" d="M231.99,213.04l-1.55-.26" vector-effect="non-scaling-stroke"/>
    <path class="st10" d="M297.36,157.64c1.01,4.01.76,7.95-.73,11.83-2.99,7.74-8.58,12.28-16.77,13.61-.6.1-1.03.63-1.01,1.24l.77,19.35" vector-effect="non-scaling-stroke"/>
    <path class="st20" d="M279.62,203.67c.17,3.13-.92,6.22-3.27,9.27-2.19,2.85-4.42,5.12-6.68,6.81-4.28,3.22-7.1,5.45-8.46,6.68-2.1,1.9-4.39,3.64-6.86,5.23-3.89,2.48-6.33,4.01-7.34,4.6-1.68.96-2.2,2.81-4.68,2.55-.35-.04-.68-.21-.9-.49-2.06-2.48-3.14-3.83-3.24-4.04-1.57-3.37-2.87-6.08-3.88-8.13-.29-.58-.48-1.21-.58-1.85l-1.74-11.26" vector-effect="non-scaling-stroke"/>
    <path class="st16" d="M292.27,151.17c-.05.04-.18.09-.41.15" vector-effect="non-scaling-stroke"/>
    <path class="st4" d="M268.59,136.9c.07,5.85.08,11.62.05,17.3-.05,8.23-.65,13.78-1.79,16.65-2.3,5.75-6.13,10.06-11.49,12.95-.48.26-1.09.01-1.24-.51-1.43-4.79-3.88-6.79-9.05-5.64-5.81,1.3-11.36,2.09-16.66,2.37-3.14.17-6.79-.39-9.7-.57-.34-.02-.68.05-.97.21-2.35,1.23-3.22,4-3.78,6.55-.13.57-.79.83-1.26.49-2.55-1.83-4.14-4.35-4.79-7.58-.39-1.94-.98-2.89-1.79-2.85" vector-effect="non-scaling-stroke"/>
    <path class="st10" d="M206.12,176.27c-.5-14.87.43-29.8,2.79-44.79" vector-effect="non-scaling-stroke"/>
    <path class="st7" d="M149.83,294.28l-13.19,7.55c-.43.24-.58.79-.33,1.22l3.3,5.72c.49.85,1.48,1.29,2.44,1.06l1.33-.3c.39-.09.79.04,1.04.34.45.52.73,1.06.83,1.62" vector-effect="non-scaling-stroke"/>
    <path class="st7" d="M150.7,337.43c-.56.91-.97,2-1.23,3.29-.07.33-.34.58-.67.62-1.45.17-2.87.13-4.24-.12-3.51-.64-7.01-1.3-10.5-1.97" vector-effect="non-scaling-stroke"/>
    <path class="st32" d="M134.06,339.25s-.02-.11.05-.26c.03-.08.03-.16,0-.23-1.13-1.85-1.88-3.23-2.23-4.14-3.41-8.97-6.93-17.78-10.54-26.43-.8-1.92-1.66-3.08-2.57-3.49-4.41-1.99-7.39-4.75-8.94-8.28" vector-effect="non-scaling-stroke"/>
    <path class="st8" d="M109.82,296.42c7.68-4.33,14.02-8.08,19.01-11.26.85-.55,1.09-1.23.72-2.04" vector-effect="non-scaling-stroke"/>
    <path class="st20" d="M198.8,328.63c-3.27-.82-6.44-1.73-9.51-2.72-4.74-1.53-9.42-3.44-14.03-5.71" vector-effect="non-scaling-stroke"/>
    <path class="st10" d="M200.84,375.98c-5.51,4.29-12.27,6.38-20.3,6.28-5.07-.07-9.23-.61-12.5-1.62" vector-effect="non-scaling-stroke"/>
    <path class="st19" d="M168.04,380.64l-6.86-18.31c-.15-.41-.66-.55-1-.27-.39.31-.71.76-.97,1.37" vector-effect="non-scaling-stroke"/>
    <path class="st4" d="M159.21,363.43c.03-1.27-.24-2.45-.8-3.56-.21-.42-.21-.92,0-1.34.83-1.7.65-3.6-.52-5.71-.2-.36-.19-.8.01-1.15l2.31-4c.15-.25.06-.58-.19-.73l-.31-.18c-.19-.11-.42-.04-.53.14l-2.02,3.49c-.12.21-.32.37-.55.44-2.57.75-4.26-.06-5.06-2.42-1.2-3.56-1.1-7.14.29-10.75.07-.19.07-.35-.02-.49-.09-.15-.23-.22-.43-.21" vector-effect="non-scaling-stroke"/>
    <path class="st4" d="M167.27,348.59c.11.49.38.69.82.6,6.47-1.32,12.24-.74,17.31,1.74.15.07.32.02.4-.12l.14-.24c.12-.2.04-.46-.17-.56-5.15-2.51-10.53-3.27-16.12-2.26-.38.07-.9-.1-1.21-.3" vector-effect="non-scaling-stroke"/>
    <path class="st7" d="M159.21,363.43c-.17,2.57-1.3,4.73-3.39,6.48" vector-effect="non-scaling-stroke"/>
    <path class="st4" d="M155.82,369.91c-5.45,3.07-11.28,4.39-17.51,3.98-.23-.02-.44-.15-.55-.35l-.23-.38c-.22-.39.08-.87.53-.83,5.15.49,10.3-.42,15.46-2.72,2.19-.98,3.76-2.97,4.2-5.33l.3-1.57c.3-1.61-1.36-2.87-2.82-2.15-5.35,2.62-12.2,3.84-20.55,3.66-.23-.01-.42-.19-.42-.42v-.29c0-.33.27-.6.6-.59,7.61.2,14.75-1.17,21.42-4.1.46-.21.82-.58,1.01-1.05.59-1.49.39-3.07-.6-4.76-.14-.23-.38-.37-.65-.37h-21.49c-.2,0-.39-.11-.5-.3l-.24-.41c-.16-.28.04-.63.36-.63h16.17c.44,0,.73-.47.52-.86-1.17-2.19-1.66-4.45-1.45-6.78.04-.43-.28-.81-.71-.84-3.13-.24-7.48-.9-13.06-1.99-1.15-.22-1.83-.69-2.03-1.41" vector-effect="non-scaling-stroke"/>
    <path class="st9" d="M109.05,168.82c-8.79-.06-17.61.26-26.37.08-6.37-.14-9.38,2.8-9.34,9.17.08,10.44.05,21.91-.09,34.41,0,.26.23.46.48.42l8.58-1.25" vector-effect="non-scaling-stroke"/>
    <path class="st23" d="M81.83,226.91l-37.02-.14" vector-effect="non-scaling-stroke"/>
    <path class="st22" d="M311.88,218.18c-7.87,14.69-12.96,30.36-15.27,47.01-.41,2.95-.27,5.55-.7,7.86-1.19,6.31-.79,13.93-.65,19.75.09,3.71.72,6,1.27,10.36.05.44.15.87.29,1.29,1.9,5.71,4.75,11.18,8.55,16.42,2.29,3.16,4.83,6.13,7.62,8.92,1.47,1.47,4.85,4.65,10.15,9.54.19.17.39.31.61.43,1.1.57,2.29,1.47,3.57,2.7" vector-effect="non-scaling-stroke"/>
    <path class="st33" d="M327.32,342.46c.59-.43,1.03-.19,1.32.73.45,1.43.71,2.51.77,3.23.02.23.24.4.47.35l10.97-2.53c.29-.07.57.12.62.41v.03c.07.24-.07.48-.31.55-6.29,1.98-12.86,3.02-18.98,5.21-20.15,7.22-43.14,16.91-56,22.57-5.37,2.36-12.91,1.24-21.84.97-4.23-.13-8.33.32-12.3,1.35-9.58,2.49-19.74,11.76-25.91,19.55" vector-effect="non-scaling-stroke"/>
    <path class="st17" d="M206.13,394.88l-3.44.13c-.47.02-.86-.34-.88-.81l-.97-18.22" vector-effect="non-scaling-stroke"/>
    <path class="st33" d="M200.84,375.98l-2.04-47.35" vector-effect="non-scaling-stroke"/>
    <path class="st22" d="M198.8,328.63c.47-4.25.56-8.39.25-12.42-.25-3.3-1.95-6.58-2.43-9.67-1.54-9.86-2.44-20.2-2.7-31.02-.05-1.99.02-3.98.21-5.97.01-.14.13-.25.27-.24h.02c.13.01.24.12.24.25-.03,13.29,1.01,26.42,3.12,39.37.06.39.42.68.82.65.39-.03.71-.35.72-.75.45-14.81,2.02-29.71,4.73-44.68,2.1-11.62,4.91-22.32,8.43-32.11.2-.57.29-1.47.28-2.68" vector-effect="non-scaling-stroke"/>
    <path class="st25" d="M97.84,273.53c-.18,1.46.1,2.23.84,2.32.08,0,.16-.01.23-.04l26.24-11.14c.38-.16.82.02.99.4l1.88,4.44c.15.35.06.76-.23,1.02-1.05.93-2.15,1.56-3.28,1.89-.46.14-.69.65-.49,1.08l4.17,8.97" vector-effect="non-scaling-stroke"/>
    <path class="st23" d="M128.19,282.47c-.77-.39-1.54-.99-2.3-1.78-.2-.21-.52-.27-.77-.13l-5.02,2.73" vector-effect="non-scaling-stroke"/>
    <path class="st11" d="M120.1,283.29c-3.88.58-7.72,1.74-11.36,2.09-6.01.59-12.09.79-18.24.6" vector-effect="non-scaling-stroke"/>
    <path class="st27" d="M90.5,285.98l-16.93-.74" vector-effect="non-scaling-stroke"/>
    <path class="st22" d="M299.12,215.51c-1.31,2.34-3.11,4.52-4.2,6.68-10.24,20.29-15.02,42.71-15.68,65.58-.02.63-.55,1.12-1.18,1.09l-60.44-3.58c-.91-.06-1.61-.81-1.6-1.72.03-2.95.18-5.67.43-8.15,1.07-10.47,2.7-20.98,4.9-31.55.31-1.54.83-4.84,1.56-9.91.55-3.87,1.52-7.69,2.92-11.47" vector-effect="non-scaling-stroke"/>
    <path class="st7" d="M141.44,276.14l-11.89,6.98" vector-effect="non-scaling-stroke"/>
    <path class="st30" d="M129.55,283.12c-.51.04-.97-.18-1.36-.65" vector-effect="non-scaling-stroke"/>
    <path class="st14" d="M368.68,283.15c-4.19-12.29-8.4-24.64-14.42-36.16-4.1-7.86-9.87-14.18-17.31-18.97-7.27-4.68-15.62-7.96-25.07-9.84" vector-effect="non-scaling-stroke"/>
    <path class="st17" d="M311.88,218.18l-12.76-2.67" vector-effect="non-scaling-stroke"/>
    <path class="st14" d="M299.12,215.51c-.55-.65-2.3-1.14-5.25-1.49-.19-.02-.37-.1-.51-.22-3.07-2.65-5.96-5.48-8.66-8.5-1.41-1.58-3.1-2.12-5.08-1.63" vector-effect="non-scaling-stroke"/>
    <path class="st14" d="M109.82,296.42l-1.99-3.8c-.52-.99-.17-2.23.81-2.79l11.46-6.54" vector-effect="non-scaling-stroke"/>
    <path class="st3" d="M134.06,339.25c.03.14-.13.2-.48.17" vector-effect="non-scaling-stroke"/>
    <path class="st10" d="M133.58,339.42c-1.44-.24-2.62,0-3.53.7-3.65,2.83-4.52,6.36-2.63,10.58.14.3.19.63.14.95-1.25,9.12.91,16.8,6.48,23.05,3.67,4.12,8.53,5.54,14.6,4.26" vector-effect="non-scaling-stroke"/>
    <path class="st3" d="M148.64,378.96c.21.06.43.12.64.18" vector-effect="non-scaling-stroke"/>
    <path class="st32" d="M149.28,379.14c2.58,8.46,5.04,15.1,7.38,19.93,2.85,5.87,7.42,6.71,13.69,2.5" vector-effect="non-scaling-stroke"/>
    <path class="st11" d="M170.35,401.57c.04.73,0,1.3-.14,1.71-.11.35.15.7.51.7,11.73.05,23.43.01,35.09-.12,3.29-.03,6.12-.36,8.49-.98" vector-effect="non-scaling-stroke"/>
    <path class="st10" d="M214.3,402.88c1.48,1.31,3.61,1.25,6.4-.18.36-.18.8-.03.96.34,2.57,5.92,8.59,2.13,12.59.27" vector-effect="non-scaling-stroke"/>
    <path class="st11" d="M234.25,403.31l89.22,1" vector-effect="non-scaling-stroke"/>
    <path class="st11" d="M138.01,404.1l20.14-.03c.15,0,.24-.16.16-.29l-4.85-8.4c-.1-.17-.28-.28-.47-.28l-12.62-.19" vector-effect="non-scaling-stroke"/>
    <path class="st26" d="M140.37,394.91c-1.97-1.67-3.95-3.26-5.93-4.79-18.68-14.37-32.95-34.58-41.64-56.45-.58-1.46-1.34-2.88-2.28-4.26" vector-effect="non-scaling-stroke"/>
    <path class="st6" d="M90.52,329.41l-.02-43.43" vector-effect="non-scaling-stroke"/>
    <path class="st32" d="M168.04,380.64l5.19,14.87" vector-effect="non-scaling-stroke"/>
    <path class="st29" d="M173.23,395.51c-.43,2.63-1.39,4.65-2.88,6.06" vector-effect="non-scaling-stroke"/>
    <path class="st7" d="M149.28,379.14c1.18-.51,2.67-1.28,4.47-2.33,1.99-1.17,3.21-2.91,3.65-5.24.06-.29-.19-.54-.48-.48-.14.03-.21.2-.21.53" vector-effect="non-scaling-stroke"/>
    <path class="st11" d="M206.02,396.95c-2.83-1.01-5.26-1.61-7.31-1.8-8-.71-16.49-.59-25.48.36" vector-effect="non-scaling-stroke"/>
    <path class="st19" d="M155.82,369.91c.41.37.71.94.89,1.71" vector-effect="non-scaling-stroke"/>
    <path class="st4" d="M156.71,371.62c-1.23,3.17-3.9,5.22-8,6.15-.61.14-.64.54-.07,1.19" vector-effect="non-scaling-stroke"/>
    <path class="st20" d="M372.66,318.48c-12.91,4.83-26.11,8.45-39.6,10.86-.53.09-.95.11-1.26.05-.35-.07-.71.04-.97.28-.73.67-1.78.9-3.16.67-.33-.06-.65.17-.71.5-.3,1.71-.1,3.13.6,4.26.15.25.22.55.2.84l-.44,6.52" vector-effect="non-scaling-stroke"/>
    <path class="st33" d="M338.55,388.75c-11.69,2.09-19.69,3.39-23.98,3.92-4.79.58-13.2,1.22-25.21,1.92" vector-effect="non-scaling-stroke"/>
    <path class="st5" d="M289.36,394.59l-12.01.91c-.82.07-1.61.29-2.34.67-5.74,3-12.14,4.25-19.21,3.75-9-.64-14.27-.88-21.55,3.39" vector-effect="non-scaling-stroke"/>
    <path class="st5" d="M214.3,402.88l-1.15-2.5c-.13-.29-.46-.41-.75-.28-.64.31-.85.82-1.76.84-2.59.07-4.13-1.26-4.62-3.99" vector-effect="non-scaling-stroke"/>
    <path class="st10" d="M206.02,396.95c.25-.76.29-1.45.11-2.07" vector-effect="non-scaling-stroke"/>
    <path class="st31" d="M90.52,329.41c-.11,7.26-.1,14.51.01,21.75.23,14.56-10.74,25.45-25.63,22.84-8.06-1.42-13.89-7.07-16.33-14.72-1.88-5.89-.49-16.28-1.06-20.98-.29-2.35-2.41-4.03-4.76-3.77l-.22.02c-2.43.27-4.27,2.33-4.28,4.78l-.1,55.58" vector-effect="non-scaling-stroke"/>
    <path class="st27" d="M38.15,394.91l-15.69.23" vector-effect="non-scaling-stroke"/>
    <path class="st18" d="M140.37,394.91H38.15" vector-effect="non-scaling-stroke"/>
    <path class="st28" d="M307.79,394.96l-18.43-.37" vector-effect="non-scaling-stroke"/>
    <path class="st4" d="M217.25,141.51c2.03-.43,4-.71,5.89-.82.88-.06,1.22-1.17.52-1.71-2.16-1.63-4.76-1.55-7.18-1.03s-4.82,1.52-6.12,3.89c-.42.78.35,1.65,1.17,1.34,1.78-.67,3.68-1.23,5.72-1.67" vector-effect="non-scaling-stroke"/>
    <path class="st4" d="M247.05,143.27c2.23.68,4.3,1.47,6.22,2.39.89.43,1.82-.48,1.43-1.38-1.23-2.77-3.81-4.11-6.47-4.91-2.65-.81-5.54-1.14-8.1.49-.83.53-.55,1.8.42,1.94,2.11.31,4.27.8,6.5,1.47" vector-effect="non-scaling-stroke"/>
    <path class="st4" d="M233.41,174.52c-3.25,1.39-6.19,1.98-8.8,1.76-7.09-.58-2.47-9.59-.66-13.12,2.46-4.8,3.99-10.02,4.6-15.65.04-.4-.24-.77-.64-.83l-.14-.03c-.4-.06-.76.24-.79.64-.34,4.8-1.25,8.82-2.73,12.07-2.17,4.73-9.65,17.51.47,18.19,3.57.24,6.6-.52,9.1-2.28.18-.13.24-.37.13-.56-.1-.2-.34-.28-.54-.19" vector-effect="non-scaling-stroke"/>
    <path class="st4" d="M216.97,157.68c1.37-.02,2.46-1.8,2.43-3.98-.03-2.18-1.16-3.94-2.53-3.92-1.37.02-2.46,1.8-2.43,3.98.03,2.18,1.16,3.94,2.53,3.92" vector-effect="non-scaling-stroke"/>
    <path class="st4" d="M246.55,158.71c1.51,0,2.72-1.8,2.71-4.01-.01-2.21-1.23-4-2.73-3.99-1.51.01-2.72,1.8-2.71,4.01,0,2.21,1.23,4,2.73,3.99" vector-effect="non-scaling-stroke"/>
    <path class="st4" d="M220.87,185.53c.07,3.99,1.38,7.58,3.91,10.76,3.96,4.96,11.47,4.89,16.66,1.68,5.24-3.23,6.44-8.57,4.86-14.32-.08-.28-.37-.45-.65-.37-7.8,2.28-15.95,2.93-24.46,1.95-.17-.02-.33.12-.32.3" vector-effect="non-scaling-stroke"/>
    <path class="st4" d="M281.89,162.17l1.88-1.08c.34-.2.78-.06.93.3,2.28,5.25,1.15,9.61-3.4,13.1-.04.03-.05.08-.03.13l.13.23c.12.21.39.28.6.16,4.93-2.72,6.82-9.18,3.77-13.97-.27-.43-.13-.99.31-1.24l2-1.16c.2-.12.29-.37.2-.59-.09-.21-.33-.33-.56-.27-2.57.7-4.67,1.96-6.31,3.79-.13.14-.13.36-.02.51.12.15.33.19.5.09" vector-effect="non-scaling-stroke"/>
    <path class="st4" d="M226.61,190.71c.03.08.09.14.16.17,4.39,2.01,8.68,2.05,12.89.13,1.21-.55,2.41-1.81,3.6-3.78.1-.18.05-.4-.13-.5l-.34-.2c-.21-.12-.48-.05-.6.16-3.07,5.39-10.66,4.98-15.54,2.67-.27-.13-.56.15-.44.42l.4.93" vector-effect="non-scaling-stroke"/>
    <path class="st30" d="M286.1,228.89l-16.24,19.08c-.28.33-.76.39-1.12.16-3.01-1.95-5.96-3.87-8.87-5.77-3.65-2.39-6.93-4.23-11.02-2.6-3.91,1.57-7.98,3.85-8.57,8.63-.77,6.29-1.41,14.11-1.93,23.46,0,.15.11.27.26.27h.35c.18,0,.32-.14.33-.31.19-3.99.75-11.29,1.68-21.91.46-5.27,3.99-8.26,9.05-9.77,2.11-.63,4.38-.07,6.06,1.02,5.92,3.84,10.1,6.49,12.55,7.96.4.24.9.18,1.24-.14,6.34-5.97,11.78-12.64,16.31-20.02.01-.02.01-.05,0-.07-.02,0-.05,0-.07.01" vector-effect="non-scaling-stroke"/>
    <path class="st30" d="M241.7,241.66c-1.42-1.92-5.7-4.67-8.19-3.69-3.02,1.19-6.72,4.13-9.28,6.6-.11.11-.11.28-.01.39.09.1.24.12.35.04,1.56-1.2,6.11-5.09,9.65-6.6.4-.17.86-.16,1.26,0,2.25.98,4.18,2.27,5.77,3.87.09.09.24.1.34.02h.02c.2-.16.23-.44.09-.64" vector-effect="non-scaling-stroke"/>
    <path class="st30" d="M247.68,256.58c0-.98-.79-1.77-1.77-1.77s-1.77.79-1.77,1.77.79,1.77,1.77,1.77,1.77-.79,1.77-1.77" vector-effect="non-scaling-stroke"/>
    <path class="st21" d="M216.53,307.67c-.07,19.83.07,33.5.42,40.99.13,2.8.53,4.81,1.2,6.02,2.83,5.13,7.18,8.75,13.04,10.84,2.09.75,5.59,1.08,10.49.99,3.65-.07,7.21-.05,10.69.07,5.03.17,8.64-.05,10.83-.65,7.56-2.06,14.17-6.97,14.03-15.73-.15-9.49-.27-22.27-.37-38.33-.01-1.73-.83-2.62-2.48-2.68-20.23-.71-39.15-1.56-56.74-2.56-.6-.03-1.1.44-1.11,1.04" vector-effect="non-scaling-stroke"/>
    <path class="st22" d="M323.54,329.24c-6.07-18.09-10.56-36.59-13.49-55.49t-.01-.01l-.48-.17c-.2-.06-.4.1-.37.31,2.77,18.99,7.24,37.57,13.41,55.72.08.25.35.38.6.3h.02c.27-.1.41-.39.32-.66" vector-effect="non-scaling-stroke"/>
    <path class="st23" d="M124.3,266.24l-23.76,10.09c-.98.41-1.43,1.54-1.02,2.51l.23.54c.57,1.33,2.1,1.97,3.44,1.43l19.16-7.67c.15-.06.29-.15.4-.27,1.08-1.17,2.22-2.04,3.43-2.61.32-.15.47-.53.33-.86l-1.16-2.74c-.18-.4-.65-.59-1.05-.42" vector-effect="non-scaling-stroke"/>
    <path class="st12" d="M246.55,256.74c.07-.65-.52-1.18-1.16-1.05-.32.06-.37.41-.14,1.06.19.53.84.71,1.11.3.13-.19.19-.29.19-.31" vector-effect="non-scaling-stroke"/>
    <path class="st7" d="M142.93,284.45c-.17-.29-.55-.4-.84-.24l-24.01,13.53c-.3.17-.4.54-.24.84l.02.03c.17.29.55.4.84.24l24.01-13.53c.3-.17.4-.54.24-.84l-.02-.03" vector-effect="non-scaling-stroke"/>
    <path class="st21" d="M217.84,308.39c.1,9.27.24,22.51.41,39.72.07,7.45,4.5,12.17,10.84,15.36,2.33,1.17,5.95,1.81,10.85,1.92,10.62.23,16.9.26,18.84.09,5.77-.53,10.55-2.89,14.33-7.08,1.77-1.97,2.65-4.67,2.62-8.11-.02-3.44-.01-16.44.03-39,0-.4-.31-.72-.71-.74l-56.83-2.52c-.21-.01-.38.15-.38.36" vector-effect="non-scaling-stroke"/>
    <path class="st4" d="M223.08,388.55c-2.35,1.65-5.2,4.16-8.55,7.55-.47.47-.75.96-.86,1.45-.08.35.35.58.6.33,3.25-3.27,5.93-5.9,9.48-8.38,3.55-2.48,6.93-4.1,11.12-6.04.32-.15.25-.63-.1-.67-.5-.07-1.06.03-1.66.31-4.33,1.99-7.67,3.8-10.03,5.45" vector-effect="non-scaling-stroke"/>
    <path class="st4" d="M230.76,393.62c-2.29,1.44-5.1,3.67-8.41,6.7-.47.42-.76.86-.88,1.32-.09.33.29.57.54.34,3.22-2.92,5.88-5.27,9.33-7.43,3.46-2.17,6.73-3.53,10.77-5.16.31-.12.26-.58-.07-.64-.47-.09-.99-.01-1.57.22-4.18,1.66-7.41,3.21-9.71,4.65" vector-effect="non-scaling-stroke"/>
    <path class="st13" d="M164.68,396.96l2.13-1.14c.42-.21.58-.73.36-1.14l-3.61-6.83c-1.16-2.19-2.83-3.58-3.73-3.1l-.39.2c-.9.48-.69,2.64.47,4.83l3.62,6.82c.22.42.73.58,1.15.36" vector-effect="non-scaling-stroke"/>
  </g>
  <path class="st41" d="M293.94,144.61c-.38.17-.55.48-.5.91h0c0-1.68-.4-3.2-.27-4.64,1.77-18.81-5.54-32.53-21.93-41.16-3.83-2.02-7.24-3.35-10.22-4-4.55-.99-8.46-.72-13.91-.64-8.63.13-16.13,2.92-22.49,8.37-3.43,2.95-6.21,6.07-8.33,9.38-.14.21,0,.5.26.53,21.03,2.14,40.18,8.95,57.47,20.44,7.19,4.77,12.88,10.18,17.89,17,.19.26.18.43-.05.52-.55.04-1.06-.12-1.52-.49-.08-.58-.22-.92-.41-1.03-4.11-2.31-8.07-4.85-11.9-7.61-1.65-1.19-4.8-2.96-9.44-5.29-.2-.1-.52-.26-.96-.49-9.58-4.91-18.97-8.37-28.18-10.37-8.8-1.91-19.15-3.47-27.52.04-1.56.66-2.41,1.78-2.55,3.35-.1,1.06-.26,1.74-.47,2.05l-9.31-1.99c-4.67-1.21-10.47-3.8-12.24-8.37-.13-.33-.17-.7-.1-1.05,1.63-8.59,20.56-7.36,27.06-6.88.39.03.77-.16.98-.5,6.71-10.81,16.36-16.99,28.94-18.54,16.14-1.99,29.63,2.86,40.46,14.55,9.17,9.89,10.97,22.91,9.24,35.91Z"/>
  <path class="st35" d="M293.94,144.61l-1.67,6.56c-.05.04-.18.09-.41.15.23-.09.24-.26.05-.52-5.01-6.82-10.7-12.23-17.89-17-17.29-11.49-36.44-18.3-57.47-20.44-.26-.03-.4-.32-.26-.53,2.12-3.31,4.9-6.43,8.33-9.38,6.36-5.45,13.86-8.24,22.49-8.37,5.45-.08,9.36-.35,13.91.64,2.98.65,6.39,1.98,10.22,4,16.39,8.63,23.7,22.35,21.93,41.16-.13,1.44.27,2.96.27,4.65h0c-.05-.44.12-.75.5-.92Z"/>
  <path class="st39" d="M268.59,136.9c.07,5.85.08,11.62.05,17.3-.05,8.23-.65,13.78-1.79,16.65-2.3,5.75-6.13,10.06-11.49,12.95-.48.26-1.09.01-1.24-.51-1.43-4.79-3.88-6.79-9.05-5.64-5.81,1.3-11.36,2.09-16.66,2.37-3.14.17-6.79-.39-9.7-.57-.34-.02-.68.05-.97.21-2.35,1.23-3.22,4-3.78,6.55-.13.57-.79.83-1.26.49-2.55-1.83-4.14-4.35-4.79-7.58-.39-1.94-.98-2.89-1.79-2.85-.5-14.87.43-29.8,2.79-44.79.21-.31.37-.99.47-2.05.14-1.57.99-2.69,2.55-3.35,8.37-3.51,18.72-1.95,27.52-.04,9.21,2,18.6,5.46,28.18,10.37.44.23.76.39.96.49ZM217.25,141.51c2.03-.43,4-.71,5.89-.82.88-.06,1.22-1.17.52-1.71-2.16-1.63-4.76-1.55-7.18-1.03s-4.82,1.52-6.12,3.89c-.42.78.35,1.65,1.17,1.34,1.78-.67,3.68-1.23,5.72-1.67ZM247.05,143.27c2.23.68,4.3,1.47,6.22,2.39.89.43,1.82-.48,1.43-1.38-1.23-2.77-3.81-4.11-6.47-4.91-2.65-.81-5.54-1.14-8.1.49-.83.53-.55,1.8.42,1.94,2.11.31,4.27.8,6.5,1.47ZM233.41,174.52c-3.25,1.39-6.19,1.98-8.8,1.76-7.09-.58-2.47-9.59-.66-13.12,2.46-4.8,3.99-10.02,4.6-15.65.04-.4-.24-.77-.64-.83l-.14-.03c-.4-.06-.76.24-.79.64-.34,4.8-1.25,8.82-2.73,12.07-2.17,4.73-9.65,17.51.47,18.19,3.57.24,6.6-.52,9.1-2.28.18-.13.24-.37.13-.56-.1-.2-.34-.28-.54-.19ZM216.97,157.68c1.37-.02,2.46-1.8,2.43-3.98-.03-2.18-1.16-3.94-2.53-3.92-1.37.02-2.46,1.8-2.43,3.98.03,2.18,1.16,3.94,2.53,3.92ZM246.55,158.71c1.51,0,2.72-1.8,2.71-4.01-.01-2.21-1.23-4-2.73-3.99-1.51.01-2.72,1.8-2.71,4.01,0,2.21,1.23,4,2.73,3.99Z"/>
  <path class="st34" d="M208.91,131.48c-2.36,14.99-3.29,29.92-2.79,44.79.72,16.2,6.59,32.96,24.32,36.51.22.09.34.31.35.65,0,.1-.02.21-.07.3l-4.89,8.75c-3.05.83-6.52,2.35-10.39,4.54-1.39.78-2.28,1.56-2.68,2.34-.81-.29-1.46-.26-1.96.07-3.83,2.51-7.83,5.71-12,9.62-9.57,8.99-14.5,20.84-17.81,32.99-1.81,6.63-5.6,21.15-11.39,43.56-.22.86.11,1.77.83,2.29,1.45,1.05,3.06,1.82,4.83,2.31l-6.82,27.25-1.17,1.14c-.83.65-1.49.7-1.97.15-.09-.1-.15-.24-.16-.38-.22-2.33-.74-4.99-1.56-7.97-.99-3.58-3.34-5.56-7.03-5.93-2.45-.25-4.18.59-5.17,2.5-.15.19-.38.35-.68.47-.2.17-.34.13-.41-.11-1.55-5.21-3.31-10.34-5.28-15.39-1.17-3.01-1.09-6.49.24-10.44,1.65,3.2,3.85,9.81,7.39,10.8,4.34,1.23,7.95-2.49,6.09-6.76-1.25-2.89-2.78-6.18-4.59-9.88-.2-.42-.22-.91-.04-1.34.49-1.17.58-2.31.28-3.42-.87-3.25-2.39-5.46-4.55-6.61,1.99-1.71,2.31-4,.97-6.85-1.19-2.55-2.43-5.04-3.72-7.48-1.45-2.75-3.33-4.02-5.64-3.81-2.13-5.02-4.25-9.84-6.36-14.47-2.03-4.46-5.44-6.9-10.21-7.32-10.47-.92-25.33,8.36-27.03,19.18-.46-10.3,11.59-17.42,20.27-19.87,14.82-4.17,18.71,8.89,23.42,19.47.7,1.58,2.58,2.23,4.11,1.43,3.9-2.04,8.83-5.16,11.72-8.25,9.22-9.86,10.39-23.58,8.84-36.72-.04-.32-.16-.62-.36-.88-.87-1.11-1.96-1.66-3.27-1.66-26.91-.02-53.83-.07-80.74-.14l-.03-5.26c0-.55.4-1.01.93-1.09l19.81-3.07c2.21-.34,3.66-2.51,3.11-4.69l-.08-.31c-.58-2.19-2.7-3.61-4.95-3.31l-18.31,2.47c-.03-2.17.28-3.92.92-5.25,6.66-13.76,15.27-26.29,25.82-37.58l31.65-.04c.37,0,.65.32.6.68-.34,2.66-.63,6.97,3.28,7,3.72.03,5.95,0,6.7-.08,1.48-.17,2.62-1.4,2.65-2.89l.09-3.62c.01-.45.33-.83.77-.92,6.23-1.31,4.54-9.79-1.73-9.73-10.49.11-21.02.06-31.57-.14,3.12-4.75,7.42-7.36,13.04-10.72,15.45-9.23,32.06-14.96,49.85-17.19,3.51-.44,10.12-.54,15.22-1.68l9.31,1.99Z"/>
  <path class="st36" d="M290.34,150.83c-7.69-.07-13.39,5.43-15.35,12.51-.27.95-.6,4.47-.99,10.55-.15,2.3-.64,6.21-1.48,11.72-2,13.13-10.18,21.87-22.75,25.75-5.65,1.74-11.57,2.3-17.78,1.68l-1.55-.26c-17.73-3.55-23.6-20.31-24.32-36.51.81-.04,1.4.91,1.79,2.85.65,3.23,2.24,5.75,4.79,7.58.47.34,1.13.08,1.26-.49.56-2.55,1.43-5.32,3.78-6.55.29-.16.63-.23.97-.21,2.91.18,6.56.74,9.7.57,5.3-.28,10.85-1.07,16.66-2.37,5.17-1.15,7.62.85,9.05,5.64.15.52.76.77,1.24.51,5.36-2.89,9.19-7.2,11.49-12.95,1.14-2.87,1.74-8.42,1.79-16.65.03-5.68.02-11.45-.05-17.3,4.64,2.33,7.79,4.1,9.44,5.29,3.83,2.76,7.79,5.3,11.9,7.61.19.11.33.45.41,1.03ZM220.87,185.53c.07,3.99,1.38,7.58,3.91,10.76,3.96,4.96,11.47,4.89,16.66,1.68,5.24-3.23,6.44-8.57,4.86-14.32-.08-.28-.37-.45-.65-.37-7.8,2.28-15.95,2.93-24.46,1.95-.17-.02-.33.12-.32.3Z"/>
  <path class="st36" d="M217.25,141.51c-2.04.44-3.94,1-5.72,1.67-.82.31-1.59-.56-1.17-1.34,1.3-2.37,3.7-3.37,6.12-3.89s5.02-.6,7.18,1.03c.7.54.36,1.65-.52,1.71-1.89.11-3.86.39-5.89.82Z"/>
  <path class="st36" d="M248.23,139.37c2.66.8,5.24,2.14,6.47,4.91.39.9-.54,1.81-1.43,1.38-1.92-.92-3.99-1.71-6.22-2.39-2.23-.67-4.39-1.16-6.5-1.47-.97-.14-1.25-1.41-.42-1.94,2.56-1.63,5.45-1.3,8.1-.49Z"/>
  <path class="st36" d="M233.41,174.52c.2-.09.44,0,.54.19.11.19.05.43-.13.56-2.5,1.76-5.53,2.52-9.1,2.28-10.12-.68-2.64-13.46-.47-18.19,1.48-3.25,2.39-7.27,2.73-12.07.03-.4.39-.7.79-.64l.14.03c.4.06.68.43.64.83-.61,5.63-2.14,10.85-4.6,15.65-1.81,3.53-6.43,12.54.66,13.12,2.61.22,5.55-.37,8.8-1.76Z"/>
  <ellipse class="st36" cx="216.92" cy="153.73" rx="2.48" ry="3.95" transform="translate(-1.86 2.66) rotate(-.7)"/>
  <ellipse class="st36" cx="246.54" cy="154.71" rx="2.72" ry="4" transform="translate(-.54 .86) rotate(-.2)"/>
  <path class="st39" d="M290.34,150.83c.46.37.97.53,1.52.49.23-.06.36-.11.41-.15,2.45,1.75,4.15,3.9,5.09,6.47,1.01,4.01.76,7.95-.73,11.83-2.99,7.74-8.58,12.28-16.77,13.61-.6.1-1.03.63-1.01,1.24l.77,19.35c.17,3.13-.92,6.22-3.27,9.27-2.19,2.85-4.42,5.12-6.68,6.81-4.28,3.22-7.1,5.45-8.46,6.68-2.1,1.9-4.39,3.64-6.86,5.23-3.89,2.48-6.33,4.01-7.34,4.6-1.68.96-2.2,2.81-4.68,2.55-.35-.04-.68-.21-.9-.49-2.06-2.48-3.14-3.83-3.24-4.04-1.57-3.37-2.87-6.08-3.88-8.13-.29-.58-.48-1.21-.58-1.85l-1.74-11.26c6.21.62,12.13.06,17.78-1.68,12.57-3.88,20.75-12.62,22.75-25.75.84-5.51,1.33-9.42,1.48-11.72.39-6.08.72-9.6.99-10.55,1.96-7.08,7.66-12.58,15.35-12.51ZM281.89,162.17l1.88-1.08c.34-.2.78-.06.93.3,2.28,5.25,1.15,9.61-3.4,13.1-.04.03-.05.08-.03.13l.13.23c.12.21.39.28.6.16,4.93-2.72,6.82-9.18,3.77-13.97-.27-.43-.13-.99.31-1.24l2-1.16c.2-.12.29-.37.2-.59-.09-.21-.33-.33-.56-.27-2.57.7-4.67,1.96-6.31,3.79-.13.14-.13.36-.02.51.12.15.33.19.5.09Z"/>
  <path class="st36" d="M281.89,162.17c-.17.1-.38.06-.5-.09-.11-.15-.11-.37.02-.51,1.64-1.83,3.74-3.09,6.31-3.79.23-.06.47.06.56.27.09.22,0,.47-.2.59l-2,1.16c-.44.25-.58.81-.31,1.24,3.05,4.79,1.16,11.25-3.77,13.97-.21.12-.48.05-.6-.16l-.13-.23c-.02-.05-.01-.1.03-.13,4.55-3.49,5.68-7.85,3.4-13.1-.15-.36-.59-.5-.93-.3l-1.88,1.08Z"/>
  <path class="st34" d="M368.68,283.15c-4.19-12.29-8.4-24.64-14.42-36.16-4.1-7.86-9.87-14.18-17.31-18.97-7.27-4.68-15.62-7.96-25.07-9.84l-12.76-2.67c-.55-.65-2.3-1.14-5.25-1.49-.19-.02-.37-.1-.51-.22-3.07-2.65-5.96-5.48-8.66-8.5-1.41-1.58-3.1-2.12-5.08-1.63l-.77-19.35c-.02-.61.41-1.14,1.01-1.24,8.19-1.33,13.78-5.87,16.77-13.61,1.49-3.88,1.74-7.82.73-11.83,5.46,1.9,9.09,4.71,15.61,9.93,26.66,21.38,46.95,51.55,54.26,85.21,1.96,9.05,2.91,17.06,2.84,24.04-.01,1.64-.48,3.75-1.39,6.33Z"/>
  <path class="st38" d="M121.49,159.08c10.55.2,21.08.25,31.57.14,6.27-.06,7.96,8.42,1.73,9.73-.44.09-.76.47-.77.92l-.09,3.62c-.03,1.49-1.17,2.72-2.65,2.89-.75.08-2.98.11-6.7.08-3.91-.03-3.62-4.34-3.28-7,.05-.36-.23-.68-.6-.68l-31.65.04c-8.79-.06-17.61.26-26.37.08-6.37-.14-9.38,2.8-9.34,9.17.08,10.44.05,21.91-.09,34.41,0,.26.23.46.48.42l8.58-1.25,18.31-2.47c2.25-.3,4.37,1.12,4.95,3.31l.08.31c.55,2.18-.9,4.35-3.11,4.69l-19.81,3.07c-.53.08-.93.54-.93,1.09l.03,5.26-37.02-.14c-.43-3.23-1.2-8.57,2.28-10.19.06-.03.12-.05.18-.06l15.09-2.07c.33-.05.58-.33.58-.67.05-8.43.04-20.27-.03-35.51-.02-4.39.47-7.76,1.48-10.09,2.62-6.07,7.76-9.12,15.43-9.16,7.96-.05,21.85-.03,41.67.06Z"/>
  <path class="st39" d="M220.87,185.53c-.01-.18.15-.32.32-.3,8.51.98,16.66.33,24.46-1.95.28-.08.57.09.65.37,1.58,5.75.38,11.09-4.86,14.32-5.19,3.21-12.7,3.28-16.66-1.68-2.53-3.18-3.84-6.77-3.91-10.76ZM226.61,190.71c.03.08.09.14.16.17,4.39,2.01,8.68,2.05,12.89.13,1.21-.55,2.41-1.81,3.6-3.78.1-.18.05-.4-.13-.5l-.34-.2c-.21-.12-.48-.05-.6.16-3.07,5.39-10.66,4.98-15.54,2.67-.27-.13-.56.15-.44.42l.4.93Z"/>
  <path class="st36" d="M226.65,189.36c4.88,2.31,12.47,2.72,15.54-2.67.12-.21.39-.28.6-.16l.34.2c.18.1.23.32.13.5-1.19,1.97-2.39,3.23-3.6,3.78-4.21,1.92-8.5,1.88-12.89-.13-.07-.03-.13-.09-.16-.17l-.4-.93c-.12-.27.17-.55.44-.42Z"/>
  <path class="st38" d="M299.12,215.51c-1.31,2.34-3.11,4.52-4.2,6.68-10.24,20.29-15.02,42.71-15.68,65.58-.02.63-.55,1.12-1.18,1.09l-60.44-3.58c-.91-.06-1.61-.81-1.6-1.72.03-2.95.18-5.67.43-8.15,1.07-10.47,2.7-20.98,4.9-31.55.31-1.54.83-4.84,1.56-9.91.55-3.87,1.52-7.69,2.92-11.47l4.89-8.75c.05-.09.08-.2.07-.3,0-.34-.13-.56-.35-.65l1.55.26,1.74,11.26c.1.64.29,1.27.58,1.85,1.01,2.05,2.31,4.76,3.88,8.13.1.21,1.18,1.56,3.24,4.04.22.28.55.45.9.49,2.48.26,3-1.59,4.68-2.55,1.01-.59,3.45-2.12,7.34-4.6,2.47-1.59,4.76-3.33,6.86-5.23,1.36-1.23,4.18-3.46,8.46-6.68,2.26-1.69,4.49-3.96,6.68-6.81,2.35-3.05,3.44-6.14,3.27-9.27,1.98-.49,3.67.05,5.08,1.63,2.7,3.02,5.59,5.85,8.66,8.5.14.12.32.2.51.22,2.95.35,4.7.84,5.25,1.49ZM286.1,228.89l-16.24,19.08c-.28.33-.76.39-1.12.16-3.01-1.95-5.96-3.87-8.87-5.77-3.65-2.39-6.93-4.23-11.02-2.6-3.91,1.57-7.98,3.85-8.57,8.63-.77,6.29-1.41,14.11-1.93,23.46,0,.15.11.27.26.27h.35c.18,0,.32-.14.33-.31.19-3.99.75-11.29,1.68-21.91.46-5.27,3.99-8.26,9.05-9.77,2.11-.63,4.38-.07,6.06,1.02,5.92,3.84,10.1,6.49,12.55,7.96.4.24.9.18,1.24-.14,6.34-5.97,11.78-12.64,16.31-20.02.01-.02.01-.05,0-.07-.02,0-.05,0-.07.01ZM241.7,241.66c-1.42-1.92-5.7-4.67-8.19-3.69-3.02,1.19-6.72,4.13-9.28,6.6-.11.11-.11.28-.01.39.09.1.24.12.35.04,1.56-1.2,6.11-5.09,9.65-6.6.4-.17.86-.16,1.26,0,2.25.98,4.18,2.27,5.77,3.87.09.09.24.1.34.02h.02c.2-.16.23-.44.09-.64ZM247.68,256.58c0-.98-.79-1.77-1.77-1.77s-1.77.79-1.77,1.77.79,1.77,1.77,1.77,1.77-.79,1.77-1.77Z"/>
  <path class="st41" d="M299.12,215.51l12.76,2.67c-7.87,14.69-12.96,30.36-15.27,47.01-.41,2.95-.27,5.55-.7,7.86-1.19,6.31-.79,13.93-.65,19.75.09,3.71.72,6,1.27,10.36.05.44.15.87.29,1.29,1.9,5.71,4.75,11.18,8.55,16.42,2.29,3.16,4.83,6.13,7.62,8.92,1.47,1.47,4.85,4.65,10.15,9.54.19.17.39.31.61.43,1.1.57,2.29,1.47,3.57,2.7.59-.43,1.03-.19,1.32.73.45,1.43.71,2.51.77,3.23.02.23.24.4.47.35l10.97-2.53c.29-.07.57.12.62.41v.03c.07.24-.07.48-.31.55-6.29,1.98-12.86,3.02-18.98,5.21-20.15,7.22-43.14,16.91-56,22.57-5.37,2.36-12.91,1.24-21.84.97-4.23-.13-8.33.32-12.3,1.35-9.58,2.49-19.74,11.76-25.91,19.55l-3.44.13c-.47.02-.86-.34-.88-.81l-.97-18.22-2.04-47.35c.47-4.25.56-8.39.25-12.42-.25-3.3-1.95-6.58-2.43-9.67-1.54-9.86-2.44-20.2-2.7-31.02-.05-1.99.02-3.98.21-5.97.01-.14.13-.25.27-.24h.02c.13.01.24.12.24.25-.03,13.29,1.01,26.42,3.12,39.37.06.39.42.68.82.65.39-.03.71-.35.72-.75.45-14.81,2.02-29.71,4.73-44.68,2.1-11.62,4.91-22.32,8.43-32.11.2-.57.29-1.47.28-2.68.4-.78,1.29-1.56,2.68-2.34,3.87-2.19,7.34-3.71,10.39-4.54-1.4,3.78-2.37,7.6-2.92,11.47-.73,5.07-1.25,8.37-1.56,9.91-2.2,10.57-3.83,21.08-4.9,31.55-.25,2.48-.4,5.2-.43,8.15,0,.91.69,1.66,1.6,1.72l60.44,3.58c.63.03,1.16-.46,1.18-1.09.66-22.87,5.44-45.29,15.68-65.58,1.09-2.16,2.89-4.34,4.2-6.68ZM216.53,307.67c-.07,19.83.07,33.5.42,40.99.13,2.8.53,4.81,1.2,6.02,2.83,5.13,7.18,8.75,13.04,10.84,2.09.75,5.59,1.08,10.49.99,3.65-.07,7.21-.05,10.69.07,5.03.17,8.64-.05,10.83-.65,7.56-2.06,14.17-6.97,14.03-15.73-.15-9.49-.27-22.27-.37-38.33-.01-1.73-.83-2.62-2.48-2.68-20.23-.71-39.15-1.56-56.74-2.56-.6-.03-1.1.44-1.11,1.04Z"/>
  <path class="st38" d="M368.68,283.15l8.88,32.15c.18.66-.09,1.37-.68,1.74-1.18.74-2.59,1.22-4.22,1.44-12.91,4.83-26.11,8.45-39.6,10.86-.53.09-.95.11-1.26.05-.35-.07-.71.04-.97.28-.73.67-1.78.9-3.16.67-.33-.06-.65.17-.71.5-.3,1.71-.1,3.13.6,4.26.15.25.22.55.2.84l-.44,6.52c-1.28-1.23-2.47-2.13-3.57-2.7-.22-.12-.42-.26-.61-.43-5.3-4.89-8.68-8.07-10.15-9.54-2.79-2.79-5.33-5.76-7.62-8.92-3.8-5.24-6.65-10.71-8.55-16.42-.14-.42-.24-.85-.29-1.29-.55-4.36-1.18-6.65-1.27-10.36-.14-5.82-.54-13.44.65-19.75.43-2.31.29-4.91.7-7.86,2.31-16.65,7.4-32.32,15.27-47.01,9.45,1.88,17.8,5.16,25.07,9.84,7.44,4.79,13.21,11.11,17.31,18.97,6.02,11.52,10.23,23.87,14.42,36.16ZM323.54,329.24c-6.07-18.09-10.56-36.59-13.49-55.49t-.01-.01l-.48-.17c-.2-.06-.4.1-.37.31,2.77,18.99,7.24,37.57,13.41,55.72.08.25.35.38.6.3h.02c.27-.1.41-.39.32-.66Z"/>
  <path class="st42" d="M81.83,226.91c26.91.07,53.83.12,80.74.14,1.31,0,2.4.55,3.27,1.66.2.26.32.56.36.88,1.55,13.14.38,26.86-8.84,36.72-2.89,3.09-7.82,6.21-11.72,8.25-1.53.8-3.41.15-4.11-1.43-4.71-10.58-8.6-23.64-23.42-19.47-8.68,2.45-20.73,9.57-20.27,19.87-.18,1.46.1,2.23.84,2.32.08,0,.16-.01.23-.04l26.24-11.14c.38-.16.82.02.99.4l1.88,4.44c.15.35.06.76-.23,1.02-1.05.93-2.15,1.56-3.28,1.89-.46.14-.69.65-.49,1.08l4.17,8.97c-.77-.39-1.54-.99-2.3-1.78-.2-.21-.52-.27-.77-.13l-5.02,2.73c-3.88.58-7.72,1.74-11.36,2.09-6.01.59-12.09.79-18.24.6l-16.93-.74c-10.13-.94-19.28-2.99-27.44-6.14-11.77-4.55-21.68-11.73-26.87-23.41-3.25-7.32-2.62-15.94-2.32-25.89.07-2.3,2.92-2.93,5.02-2.92,7.63.03,15.25,0,22.85-.11l37.02.14ZM124.3,266.24l-23.76,10.09c-.98.41-1.43,1.54-1.02,2.51l.23.54c.57,1.33,2.1,1.97,3.44,1.43l19.16-7.67c.15-.06.29-.15.4-.27,1.08-1.17,2.22-2.04,3.43-2.61.32-.15.47-.53.33-.86l-1.16-2.74c-.18-.4-.65-.59-1.05-.42Z"/>
  <path class="st36" d="M286.18,228.95c-4.53,7.38-9.97,14.05-16.31,20.02-.34.32-.84.38-1.24.14-2.45-1.47-6.63-4.12-12.55-7.96-1.68-1.09-3.95-1.65-6.06-1.02-5.06,1.51-8.59,4.5-9.05,9.77-.93,10.62-1.49,17.92-1.68,21.91,0,.17-.15.31-.33.31h-.35c-.15,0-.27-.12-.26-.27.52-9.35,1.16-17.17,1.93-23.46.59-4.78,4.66-7.06,8.57-8.63,4.09-1.63,7.37.21,11.02,2.6,2.91,1.9,5.86,3.82,8.87,5.77.36.23.84.17,1.12-.16l16.24-19.08s.05-.02.07-.01c.02.02.02.05,0,.07Z"/>
  <path class="st38" d="M212.76,229.36c0,1.21-.08,2.11-.28,2.68-3.52,9.79-6.33,20.49-8.43,32.11-2.71,14.97-4.28,29.87-4.73,44.68,0,.4-.33.72-.72.75-.4.03-.76-.26-.82-.65-2.11-12.95-3.15-26.08-3.12-39.37,0-.13-.11-.24-.24-.25h-.02c-.14-.01-.26.1-.27.24-.19,1.99-.26,3.98-.21,5.97.26,10.82,1.16,21.16,2.7,31.02.48,3.09,2.18,6.37,2.43,9.67.31,4.03.22,8.17-.25,12.42-3.27-.82-6.44-1.73-9.51-2.72-4.74-1.53-9.42-3.44-14.03-5.71-1.77-.49-3.38-1.26-4.83-2.31-.72-.52-1.05-1.43-.83-2.29,5.79-22.41,9.58-36.93,11.39-43.56,3.31-12.15,8.24-24,17.81-32.99,4.17-3.91,8.17-7.11,12-9.62.5-.33,1.15-.36,1.96-.07Z"/>
  <path class="st36" d="M241.7,241.66c.14.2.11.48-.09.63h-.02c-.1.09-.25.08-.34,0-1.59-1.6-3.52-2.89-5.77-3.87-.4-.17-.86-.18-1.26,0-3.54,1.51-8.09,5.4-9.65,6.6-.11.08-.26.06-.35-.04-.1-.11-.1-.28.01-.39,2.56-2.47,6.26-5.41,9.28-6.6,2.49-.98,6.77,1.77,8.19,3.69Z"/>
  <path class="st36" d="M141.44,276.14l-11.89,6.98c-.51.04-.97-.18-1.36-.65l-4.17-8.97c-.2-.43.03-.94.49-1.08,1.13-.33,2.23-.96,3.28-1.89.29-.26.38-.67.23-1.02l-1.88-4.44c-.17-.38-.61-.56-.99-.4l-26.24,11.14c-.07.03-.15.05-.23.04-.74-.09-1.02-.86-.84-2.32,1.7-10.82,16.56-20.1,27.03-19.18,4.77.42,8.18,2.86,10.21,7.32,2.11,4.63,4.23,9.45,6.36,14.47Z"/>
  <path class="st36" d="M247.68,256.58c0,.98-.79,1.77-1.77,1.77s-1.77-.79-1.77-1.77.79-1.77,1.77-1.77,1.77.79,1.77,1.77ZM246.55,256.74c.07-.65-.52-1.18-1.16-1.05-.32.06-.37.41-.14,1.06.19.53.84.71,1.11.3.13-.19.19-.29.19-.31Z"/>
  <path class="st35" d="M246.55,256.74s-.06.12-.19.31c-.27.41-.92.23-1.11-.3-.23-.65-.18-1,.14-1.06.64-.13,1.23.4,1.16,1.05Z"/>
  <path class="st38" d="M124.3,266.24c.4-.17.87.02,1.05.42l1.16,2.74c.14.33-.01.71-.33.86-1.21.57-2.35,1.44-3.43,2.61-.11.12-.25.21-.4.27l-19.16,7.67c-1.34.54-2.87-.1-3.44-1.43l-.23-.54c-.41-.97.04-2.1,1.02-2.51l23.76-10.09Z"/>
  <path class="st41" d="M323.54,329.24c.09.27-.05.56-.32.65h-.02c-.25.09-.52-.04-.6-.29-6.17-18.15-10.64-36.73-13.41-55.72-.03-.21.17-.37.37-.31l.48.17s.01,0,.01.01c2.93,18.9,7.42,37.4,13.49,55.49Z"/>
  <path class="st40" d="M149.83,294.28l-13.19,7.55c-.43.24-.58.79-.33,1.22l3.3,5.72c.49.85,1.48,1.29,2.44,1.06l1.33-.3c.39-.09.79.04,1.04.34.45.52.73,1.06.83,1.62-1.33,3.95-1.41,7.43-.24,10.44,1.97,5.05,3.73,10.18,5.28,15.39.07.24.21.28.41.11-.56.91-.97,2-1.23,3.29-.07.33-.34.58-.67.62-1.45.17-2.87.13-4.24-.12-3.51-.64-7.01-1.3-10.5-1.97-.03-.03-.02-.11.05-.26.03-.08.03-.16,0-.23-1.13-1.85-1.88-3.23-2.23-4.14-3.41-8.97-6.93-17.78-10.54-26.43-.8-1.92-1.66-3.08-2.57-3.49-4.41-1.99-7.39-4.75-8.94-8.28,7.68-4.33,14.02-8.08,19.01-11.26.85-.55,1.09-1.23.72-2.04l11.89-6.98c2.31-.21,4.19,1.06,5.64,3.81,1.29,2.44,2.53,4.93,3.72,7.48,1.34,2.85,1.02,5.14-.97,6.85ZM142.93,284.45c-.17-.29-.55-.4-.84-.24l-24.01,13.53c-.3.17-.4.54-.24.84l.02.03c.17.29.55.4.84.24l24.01-13.53c.3-.17.4-.54.24-.84l-.02-.03Z"/>
  <path class="st38" d="M128.19,282.47c.39.47.85.69,1.36.65.37.81.13,1.49-.72,2.04-4.99,3.18-11.33,6.93-19.01,11.26l-1.99-3.8c-.52-.99-.17-2.23.81-2.79l11.46-6.54,5.02-2.73c.25-.14.57-.08.77.13.76.79,1.53,1.39,2.3,1.78Z"/>
  <path class="st34" d="M120.1,283.29l-11.46,6.54c-.98.56-1.33,1.8-.81,2.79l1.99,3.8c1.55,3.53,4.53,6.29,8.94,8.28.91.41,1.77,1.57,2.57,3.49,3.61,8.65,7.13,17.46,10.54,26.43.35.91,1.1,2.29,2.23,4.14.04.07.04.15,0,.23-.07.15-.08.23-.05.26.03.14-.13.2-.48.17-1.44-.24-2.62,0-3.53.7-3.65,2.83-4.52,6.36-2.63,10.58.14.3.19.63.14.95-1.25,9.12.91,16.8,6.48,23.05,3.67,4.12,8.53,5.54,14.6,4.26.21.06.43.12.64.18,2.58,8.46,5.04,15.1,7.38,19.93,2.85,5.87,7.42,6.71,13.69,2.5.04.73,0,1.3-.14,1.71-.11.35.15.7.51.7,11.73.05,23.43.01,35.09-.12,3.29-.03,6.12-.36,8.49-.98,1.48,1.31,3.61,1.25,6.4-.18.36-.18.8-.03.96.34,2.57,5.92,8.59,2.13,12.59.27l89.22,1c-1.8,2.48-4.32,4.87-7.56,7.16-12.36,8.75-24.75,15.27-37.18,19.58-46.43,16.09-95.91,7.93-135.19-21.36-2.09-1.56-3.94-3.42-5.53-5.59l20.14-.03c.15,0,.24-.16.16-.29l-4.85-8.4c-.1-.17-.28-.28-.47-.28l-12.62-.19c-1.97-1.67-3.95-3.26-5.93-4.79-18.68-14.37-32.95-34.58-41.64-56.45-.58-1.46-1.34-2.88-2.28-4.26l-.02-43.43c6.15.19,12.23,0,18.24-.6,3.64-.35,7.48-1.51,11.36-2.09Z"/>
  <rect class="st36" x="116" y="290.89" width="28.8" height="1.28" rx=".62" ry=".62" transform="translate(-126.32 101.56) rotate(-29.4)"/>
  <path class="st0" d="M90.5,285.98l.02,43.43c-.11,7.26-.1,14.51.01,21.75.23,14.56-10.74,25.45-25.63,22.84-8.06-1.42-13.89-7.07-16.33-14.72-1.88-5.89-.49-16.28-1.06-20.98-.29-2.35-2.41-4.03-4.76-3.77l-.22.02c-2.43.27-4.27,2.33-4.28,4.78l-.1,55.58-15.69.23c-.02-18.13-.01-36.3.02-54.49.01-5.73,1.38-10.41,4.12-14.03,8.44-11.16,25.68-10.1,33.23,1.59,4.39,6.81,3.74,14.01,3.63,22.8-.05,3.8,1.41,7.73,5.57,6.97,5.24-.97,4.56-4.87,4.54-9.65-.09-20.93-.09-41.96,0-63.09l16.93.74Z"/>
  <path class="st36" d="M149.83,294.28c2.16,1.15,3.68,3.36,4.55,6.61.3,1.11.21,2.25-.28,3.42-.18.43-.16.92.04,1.34,1.81,3.7,3.34,6.99,4.59,9.88,1.86,4.27-1.75,7.99-6.09,6.76-3.54-.99-5.74-7.6-7.39-10.8-.1-.56-.38-1.1-.83-1.62-.25-.3-.65-.43-1.04-.34l-1.33.3c-.96.23-1.95-.21-2.44-1.06l-3.3-5.72c-.25-.43-.1-.98.33-1.22l13.19-7.55Z"/>
  <path class="st36" d="M216.53,307.67c0-.6.51-1.07,1.11-1.04,17.59,1,36.51,1.85,56.74,2.56,1.65.06,2.47.95,2.48,2.68.1,16.06.22,28.84.37,38.33.14,8.76-6.47,13.67-14.03,15.73-2.19.6-5.8.82-10.83.65-3.48-.12-7.04-.14-10.69-.07-4.9.09-8.4-.24-10.49-.99-5.86-2.09-10.21-5.71-13.04-10.84-.67-1.21-1.07-3.22-1.2-6.02-.35-7.49-.49-21.16-.42-40.99ZM217.84,308.39c.1,9.27.24,22.51.41,39.72.07,7.45,4.5,12.17,10.84,15.36,2.33,1.17,5.95,1.81,10.85,1.92,10.62.23,16.9.26,18.84.09,5.77-.53,10.55-2.89,14.33-7.08,1.77-1.97,2.65-4.67,2.62-8.11-.02-3.44-.01-16.44.03-39,0-.4-.31-.72-.71-.74l-56.83-2.52c-.21-.01-.38.15-.38.36Z"/>
  <path class="st41" d="M217.84,308.39c0-.21.17-.37.38-.36l56.83,2.52c.4.02.71.34.71.74-.04,22.56-.05,35.56-.03,39,.03,3.44-.85,6.14-2.62,8.11-3.78,4.19-8.56,6.55-14.33,7.08-1.94.17-8.22.14-18.84-.09-4.9-.11-8.52-.75-10.85-1.92-6.34-3.19-10.77-7.91-10.84-15.36-.17-17.21-.31-30.45-.41-39.72Z"/>
  <path class="st39" d="M372.66,318.48c1.96,12.65,3.21,24.38,3.76,35.17.47,9.13-1.18,18.19-8.22,24.41-2.35,2.08-6.1,3.99-11.23,5.73-6.22,2.1-12.2,3.48-18.42,4.96-11.69,2.09-19.69,3.39-23.98,3.92-4.79.58-13.2,1.22-25.21,1.92l-12.01.91c-.82.07-1.61.29-2.34.67-5.74,3-12.14,4.25-19.21,3.75-9-.64-14.27-.88-21.55,3.39-4,1.86-10.02,5.65-12.59-.27-.16-.37-.6-.52-.96-.34-2.79,1.43-4.92,1.49-6.4.18l-1.15-2.5c-.13-.29-.46-.41-.75-.28-.64.31-.85.82-1.76.84-2.59.07-4.13-1.26-4.62-3.99.25-.76.29-1.45.11-2.07,6.17-7.79,16.33-17.06,25.91-19.55,3.97-1.03,8.07-1.48,12.3-1.35,8.93.27,16.47,1.39,21.84-.97,12.86-5.66,35.85-15.35,56-22.57,6.12-2.19,12.69-3.23,18.98-5.21.24-.07.38-.31.32-.55v-.03c-.06-.29-.34-.48-.63-.41l-10.97,2.53c-.23.05-.45-.12-.47-.35-.06-.72-.32-1.8-.77-3.23-.29-.92-.73-1.16-1.32-.73l.44-6.52c.02-.29-.05-.59-.2-.84-.7-1.13-.9-2.55-.6-4.26.06-.33.38-.56.71-.5,1.38.23,2.43,0,3.16-.67.26-.24.62-.35.97-.28.31.06.73.04,1.26-.05,13.49-2.41,26.69-6.03,39.6-10.86ZM223.08,388.55c-2.35,1.65-5.2,4.16-8.55,7.55-.47.47-.75.96-.86,1.45-.08.35.35.58.6.33,3.25-3.27,5.93-5.9,9.48-8.38,3.55-2.48,6.93-4.1,11.12-6.04.32-.15.25-.63-.1-.67-.5-.07-1.06.03-1.66.31-4.33,1.99-7.67,3.8-10.03,5.45ZM230.76,393.62c-2.29,1.44-5.1,3.67-8.41,6.7-.47.42-.76.86-.88,1.32-.09.33.29.57.54.34,3.22-2.92,5.88-5.27,9.33-7.43,3.46-2.17,6.73-3.53,10.77-5.16.31-.12.26-.58-.07-.64-.47-.09-.99-.01-1.57.22-4.18,1.66-7.41,3.21-9.71,4.65Z"/>
  <path class="st39" d="M198.8,328.63l2.04,47.35c-5.51,4.29-12.27,6.38-20.3,6.28-5.07-.07-9.23-.61-12.5-1.62l-6.86-18.31c-.15-.41-.66-.55-1-.27-.39.31-.71.76-.97,1.37.03-1.27-.24-2.45-.8-3.56-.21-.42-.21-.92,0-1.34.83-1.7.65-3.6-.52-5.71-.2-.36-.19-.8.01-1.15l2.31-4c.15-.25.06-.58-.19-.73l-.31-.18c-.19-.11-.42-.04-.53.14l-2.02,3.49c-.12.21-.32.37-.55.44-2.57.75-4.26-.06-5.06-2.42-1.2-3.56-1.1-7.14.29-10.75.07-.19.07-.35-.02-.49-.09-.15-.23-.22-.43-.21.99-1.91,2.72-2.75,5.17-2.5,3.69.37,6.04,2.35,7.03,5.93.82,2.98,1.34,5.64,1.56,7.97,0,.14.07.28.16.38.48.55,1.14.5,1.97-.15.11.49.38.69.82.6,6.47-1.32,12.24-.74,17.31,1.74.15.07.32.02.4-.12l.14-.24c.12-.2.04-.46-.17-.56-5.15-2.51-10.53-3.27-16.12-2.26-.38.07-.9-.1-1.21-.3l6.82-27.25c4.61,2.27,9.29,4.18,14.03,5.71,3.07.99,6.24,1.9,9.51,2.72Z"/>
  <path class="st36" d="M159.21,363.43c-.17,2.57-1.3,4.73-3.39,6.48-5.45,3.07-11.28,4.39-17.51,3.98-.23-.02-.44-.15-.55-.35l-.23-.38c-.22-.39.08-.87.53-.83,5.15.49,10.3-.42,15.46-2.72,2.19-.98,3.76-2.97,4.2-5.33l.3-1.57c.3-1.61-1.36-2.87-2.82-2.15-5.35,2.62-12.2,3.84-20.55,3.66-.23-.01-.42-.19-.42-.42v-.29c0-.33.27-.6.6-.59,7.61.2,14.75-1.17,21.42-4.1.46-.21.82-.58,1.01-1.05.59-1.49.39-3.07-.6-4.76-.14-.23-.38-.37-.65-.37h-21.49c-.2,0-.39-.11-.5-.3l-.24-.41c-.16-.28.04-.63.36-.63h16.17c.44,0,.73-.47.52-.86-1.17-2.19-1.66-4.45-1.45-6.78.04-.43-.28-.81-.71-.84-3.13-.24-7.48-.9-13.06-1.99-1.15-.22-1.83-.69-2.03-1.41.35.03.51-.03.48-.17,3.49.67,6.99,1.33,10.5,1.97,1.37.25,2.79.29,4.24.12.33-.04.6-.29.67-.62.26-1.29.67-2.38,1.23-3.29.3-.12.53-.28.68-.47.2-.01.34.06.43.21.09.14.09.3.02.49-1.39,3.61-1.49,7.19-.29,10.75.8,2.36,2.49,3.17,5.06,2.42.23-.07.43-.23.55-.44l2.02-3.49c.11-.18.34-.25.53-.14l.31.18c.25.15.34.48.19.73l-2.31,4c-.2.35-.21.79-.01,1.15,1.17,2.11,1.35,4.01.52,5.71-.2.42-.2.92,0,1.34.56,1.11.83,2.29.8,3.56Z"/>
  <path class="st39" d="M133.58,339.42c.2.72.88,1.19,2.03,1.41,5.58,1.09,9.93,1.75,13.06,1.99.43.03.75.41.71.84-.21,2.33.28,4.59,1.45,6.78.21.39-.08.86-.52.86h-16.17c-.32,0-.52.35-.36.63l.24.41c.11.19.3.3.5.3h21.49c.27,0,.51.14.65.37.99,1.69,1.19,3.27.6,4.76-.19.47-.55.84-1.01,1.05-6.67,2.93-13.81,4.3-21.42,4.1-.33,0-.6.26-.6.59v.29c0,.23.19.41.42.42,8.35.18,15.2-1.04,20.55-3.66,1.46-.72,3.12.54,2.82,2.15l-.3,1.57c-.44,2.36-2.01,4.35-4.2,5.33-5.16,2.3-10.31,3.21-15.46,2.72-.45-.04-.75.44-.53.83l.23.38c.11.2.32.33.55.35,6.23.41,12.06-.91,17.51-3.98.41.37.71.94.89,1.71-1.23,3.17-3.9,5.22-8,6.15-.61.14-.64.54-.07,1.19-6.07,1.28-10.93-.14-14.6-4.26-5.57-6.25-7.73-13.93-6.48-23.05.05-.32,0-.65-.14-.95-1.89-4.22-1.02-7.75,2.63-10.58.91-.71,2.09-.94,3.53-.7Z"/>
  <path class="st36" d="M168.44,347.45c.31.2.83.37,1.21.3,5.59-1.01,10.97-.25,16.12,2.26.21.1.29.36.17.56l-.14.24c-.08.14-.25.19-.4.12-5.07-2.48-10.84-3.06-17.31-1.74-.44.09-.71-.11-.82-.6l1.17-1.14Z"/>
  <path class="st40" d="M168.04,380.64l5.19,14.87c-.43,2.63-1.39,4.65-2.88,6.06-6.27,4.21-10.84,3.37-13.69-2.5-2.34-4.83-4.8-11.47-7.38-19.93,1.18-.51,2.67-1.28,4.47-2.33,1.99-1.17,3.21-2.91,3.65-5.24.06-.29-.19-.54-.48-.48-.14.03-.21.2-.21.53-.18-.77-.48-1.34-.89-1.71,2.09-1.75,3.22-3.91,3.39-6.48.26-.61.58-1.06.97-1.37.34-.28.85-.14,1,.27l6.86,18.31ZM164.68,396.96l2.13-1.14c.42-.21.58-.73.36-1.14l-3.61-6.83c-1.16-2.19-2.83-3.58-3.73-3.1l-.39.2c-.9.48-.69,2.64.47,4.83l3.62,6.82c.22.42.73.58,1.15.36Z"/>
  <path class="st36" d="M149.28,379.14c-.21-.06-.43-.12-.64-.18-.57-.65-.54-1.05.07-1.19,4.1-.93,6.77-2.98,8-6.15,0-.33.07-.5.21-.53.29-.06.54.19.48.48-.44,2.33-1.66,4.07-3.65,5.24-1.8,1.05-3.29,1.82-4.47,2.33Z"/>
  <path class="st34" d="M200.84,375.98l.97,18.22c.02.47.41.83.88.81l3.44-.13c.18.62.14,1.31-.11,2.07-2.83-1.01-5.26-1.61-7.31-1.8-8-.71-16.49-.59-25.48.36l-5.19-14.87c3.27,1.01,7.43,1.55,12.5,1.62,8.03.1,14.79-1.99,20.3-6.28Z"/>
  <path class="st36" d="M223.75,389.5c-3.55,2.48-6.23,5.11-9.48,8.38-.25.25-.68.02-.6-.33.11-.49.39-.98.86-1.45,3.35-3.39,6.2-5.9,8.55-7.55,2.36-1.65,5.7-3.46,10.03-5.45.6-.28,1.16-.38,1.66-.31.35.04.42.52.1.67-4.19,1.94-7.57,3.56-11.12,6.04Z"/>
  <path class="st37" d="M164.68,396.96c-.42.22-.93.06-1.15-.36l-3.62-6.82c-1.16-2.19-1.37-4.35-.47-4.83l.39-.2c.9-.48,2.57.91,3.73,3.1l3.61,6.83c.22.41.06.93-.36,1.14l-2.13,1.14Z"/>
  <path class="st36" d="M230.76,393.62c2.3-1.44,5.53-2.99,9.71-4.65.58-.23,1.1-.31,1.57-.22.33.06.38.52.07.64-4.04,1.63-7.31,2.99-10.77,5.16-3.45,2.16-6.11,4.51-9.33,7.43-.25.23-.63,0-.54-.34.12-.46.41-.9.88-1.32,3.31-3.03,6.12-5.26,8.41-6.7Z"/>
  <path class="st41" d="M338.55,388.75l.48,5.58c.02.29-.21.54-.5.54l-30.74.09-18.43-.37c12.01-.7,20.42-1.34,25.21-1.92,4.29-.53,12.29-1.83,23.98-3.92Z"/>
  <path class="st42" d="M22.46,395.14l15.69-.23h102.22l12.62.19c.19,0,.37.11.47.28l4.85,8.4c.08.13-.01.29-.16.29l-20.14.03-126.31-.18c-2.43,0-4.39-2.02-4.31-4.45l.02-.41c.08-2.39,2.07-4.27,4.45-4.2l10.6.28Z"/>
  <path class="st42" d="M206.02,396.95c.49,2.73,2.03,4.06,4.62,3.99.91-.02,1.12-.53,1.76-.84.29-.13.62-.01.75.28l1.15,2.5c-2.37.62-5.2.95-8.49.98-11.66.13-23.36.17-35.09.12-.36,0-.62-.35-.51-.7.13-.41.18-.98.14-1.71,1.49-1.41,2.45-3.43,2.88-6.06,8.99-.95,17.48-1.07,25.48-.36,2.05.19,4.48.79,7.31,1.8Z"/>
  <path class="st42" d="M289.36,394.59l18.43.37c-1.72.8-1.14,1.21,1.75,1.24,12.05.09,20.39.12,25.03.08,2.04-.02,3.25-.07,3.64-.15.29-.06.57-.17.83-.33,1.04-.64,1.8-.96,2.29-.97,6.55-.04,11.77,0,15.66.1,2.49.06,4.94,3.07,4.01,5.68-1.04,2.93-2.96,3.31-6.05,3.4-10.51.32-21.01.04-31.48.3l-89.22-1c7.28-4.27,12.55-4.03,21.55-3.39,7.07.5,13.47-.75,19.21-3.75.73-.38,1.52-.6,2.34-.67l12.01-.91Z"/>
</svg>