<?xml version="1.0" encoding="UTF-8"?>
<svg id="Capa_1" xmlns="http://www.w3.org/2000/svg" version="1.1" viewBox="0 0 1477 1338">
  <!-- Generator: Adobe Illustrator 29.4.0, SVG Export Plug-In . SVG Version: 2.1.0 Build 152)  -->
  <defs>
    <style>
      .st0 {
        stroke: #8ca5ae;
      }

      .st0, .st1, .st2, .st3, .st4, .st5, .st6, .st7, .st8, .st9, .st10, .st11, .st12, .st13, .st14, .st15, .st16, .st17, .st18, .st19, .st20, .st21, .st22, .st23, .st24 {
        fill: none;
        stroke-width: 2px;
      }

      .st25 {
        fill: #f8d256;
      }

      .st1 {
        stroke: #e8caa8;
      }

      .st2 {
        stroke: #7c634e;
      }

      .st3 {
        stroke: #2f4144;
      }

      .st4 {
        stroke: #ecbd6d;
      }

      .st26 {
        fill: #d2e6ed;
      }

      .st5 {
        stroke: #c8c479;
      }

      .st6 {
        stroke: #f0d4c1;
      }

      .st7 {
        stroke: #8b8e8c;
      }

      .st27 {
        fill: #7eb9c3;
      }

      .st8 {
        stroke: #a8d0d8;
      }

      .st9 {
        stroke: #887838;
      }

      .st10 {
        stroke: #bcaf8f;
      }

      .st11 {
        stroke: #b5cec4;
      }

      .st28 {
        fill: #efeccd;
      }

      .st29 {
        fill: #46646e;
      }

      .st30 {
        fill: #171d19;
      }

      .st12 {
        stroke: #e1e9dd;
      }

      .st31 {
        fill: #98b59b;
      }

      .st13 {
        stroke: #f7f6e6;
      }

      .st14 {
        stroke: #6f8d85;
      }

      .st32 {
        fill: #e0a883;
      }

      .st15 {
        stroke: #838573;
      }

      .st16 {
        stroke: #fce9ab;
      }

      .st17 {
        stroke: #c4d1b4;
      }

      .st18 {
        stroke: #628f99;
      }

      .st19 {
        stroke: #e9f3f6;
      }

      .st20 {
        stroke: #e5dca2;
      }

      .st21 {
        stroke: #d9c7b8;
      }

      .st22 {
        stroke: #938679;
      }

      .st23 {
        stroke: #4b6b6e;
      }

      .st24 {
        stroke: #758283;
      }
    </style>
  </defs>
  <g>
    <path class="st19" d="M566.59,303.19l-.1.95c-.04.4-.55.53-.78.21-3.95-5.54-5.08-12.76-6.29-19.49-.13-.73-.84-1.21-1.57-1.05-2.53.57-4.96,1.32-7.29,2.26-10.35,4.15-19.19,7.53-27.44,11.8-7.61,3.94-15.39,7.46-23.37,12.11-22.08,12.89-41.82,26.91-59.23,42.06-2.65,2.31-4.49,3.84-5.5,4.61-.7.53-1.35,1.11-1.96,1.76-3.8,4.01-8.29,7.26-12.12,11.09-5.16,5.15-9.61,9.63-13.36,13.42-.36.36-.86.96-1.5,1.8-2.53,3.31-5.58,5.94-8.14,9.18-2.09,2.64-4.39,5.12-6.67,7.6-1.99,2.19-7.07,8.69-15.23,19.52-4.64,6.16-12.03,17.11-22.16,32.86-.62.96-1.08,2.09-1.39,3.4-.14.56.17,1.13.72,1.32l14.78,5.17c.4.14.77.35,1.09.62,1.9,1.58,3.13,2.45,3.69,2.62,2.69.81,4.83,1.6,6.43,2.37.25.13.27.44.04.95" vector-effect="non-scaling-stroke"/>
    <path class="st7" d="M379.24,470.33c-3.34-1.19-6.7-2.31-10.08-3.36-20.43-6.38-40-13.73-47.1-16.03-1.77-.57-3.23-.83-4.38-.77-1.37.08-2.55,1-2.96,2.31-2.23,7.23-5.38,16.93-9.45,29.12-.99,2.98-1.78,6.74-3.02,10.41-.89,2.65.13,4.44,3.08,5.35,9.58,2.97,17.05,5.35,22.42,7.15,6.56,2.19,5.39,6.4,2.83,11.35-2.73,5.29-6.09,10.38-10.08,15.28" vector-effect="non-scaling-stroke"/>
    <path class="st19" d="M320.5,531.14l9.3-20.45c.44-.98.01-2.13-.96-2.58l-2.96-1.35c-.89-.41-1.94.06-2.22,1-2.41,7.99-4.91,16.14-7.48,24.47-.49,1.59-.13,2.87,1.07,3.82" vector-effect="non-scaling-stroke"/>
    <path class="st7" d="M317.25,536.05c-5.75,7.77-11.94,15.24-18.56,22.4-5.53,5.97-8.54,9.28-9.05,9.93-2.09,2.65-3.35,5.44-1.34,8.19,6.74,9.23,22.05-2.03,27.87-6.91,9.95-8.34,19.31-18.73,28.08-31.17,2.95-4.19,5.66-9.07,8.12-14.65.12-.27.47-.33.68-.12,2.88,2.89,5.63,6.01,8.24,9.36,3.55,4.56,5.11,9.9,4.67,16.03-.6,8.41-1.25,13.55-1.96,15.42-.13.33.05.7.38.81l51.61,17.15" vector-effect="non-scaling-stroke"/>
    <path class="st19" d="M415.99,582.49l-.3.86" vector-effect="non-scaling-stroke"/>
    <path class="st7" d="M415.69,583.35c-17.59-5.69-35.15-11.49-52.68-17.38-7.34-2.46-10.72,3.96-12.92,9.64-2.32,6-4.02,11.05-5.09,15.14-1.2,4.54-2.64,8.51,2.55,10.42.55.2.81.83.57,1.36l-5.3,11.55c-.66,1.44-2.04,2.42-3.62,2.57-7.78.75-17.07,6.99-22.61,12.31-5.01,4.81-9.58,10.18-13.69,16.11" vector-effect="non-scaling-stroke"/>
    <path class="st19" d="M302.9,645.07c4.7-9.31,11.33-16.9,19.9-22.75,5.09-3.47,11.18-6.04,18.27-7.7.25-.06.45-.22.56-.45l4.91-10.7c.27-.58.07-1.26-.46-1.62-1.35-.92-2.41-2.09-3.18-3.5-.17-.3-.27-.63-.32-.97-.15-1.05.26-3.24,1.25-6.57,2.32-7.83,4.55-14.07,6.69-18.72,2.46-5.37,5.71-8.41,11.51-7.43.38.07.74-.16.84-.53,1.31-4.94,1.8-10.43,1.47-16.46-.49-9.12-4.37-15.22-10.67-20.74-.37-.33-.96-.21-1.19.24-7.65,15.01-17.74,28.02-30.25,39.05-4.2,3.7-8.01,6.83-11.42,9.38-.25.19-.48.42-.67.67-1.46,1.99-4.61,3.41-5.3,5.94-.66,2.39-.9,5.3-1.25,6.93-1.91,9.06-3.28,18.5-4.09,28.32-.9,10.91-1.36,16.42-1.37,16.55-.36,4.97-.39,10.51-.09,16.61.03.51.61.79,1.01.48.17-.12.35.19.53.94" vector-effect="non-scaling-stroke"/>
    <path class="st7" d="M299.58,652.04l-1.75,5.65" vector-effect="non-scaling-stroke"/>
    <path class="st6" d="M297.83,657.69c-7.69-3.07-14.3-2.48-19.81,1.77-8.21,6.35-9.94,16.96-6.43,26.55" vector-effect="non-scaling-stroke"/>
    <path class="st7" d="M271.59,686.01c-.39.42-.61,1.04-.67,1.86" vector-effect="non-scaling-stroke"/>
    <path class="st6" d="M270.92,687.87c-7.9,2.79-13.41,11.07-14.78,18.75-1.17,6.62.31,12.51,4.45,17.66" vector-effect="non-scaling-stroke"/>
    <path class="st7" d="M260.59,724.28c.11.67-.26,1.43-1.13,2.26" vector-effect="non-scaling-stroke"/>
    <path class="st6" d="M259.46,726.54c-6.45,2.96-9.94,8.28-10.45,15.96-.55,8.33,2.4,14.42,8.85,18.27" vector-effect="non-scaling-stroke"/>
    <path class="st7" d="M257.86,760.77c-2.15,5.69-4.44,12.75-6.89,21.18-4.1,14.14-6.88,24.28-8.35,30.43-1.41,5.91-2.3,11.44-2.66,16.59-.97,13.79,9.13,21.49,20.54,26.57,11.79,5.25,23.74,9.63,35.86,13.15,11.46,3.33,23.04,6.29,34.73,8.87" vector-effect="non-scaling-stroke"/>
    <path class="st6" d="M331.09,877.56c-.18.9-.21,1.62-.08,2.17,3.18,14.45,6.26,26.55,9.24,36.28,7.66,25.07,17.14,49.17,31.27,70.74,15.38,23.47,37.18,43.91,66.06,47.94" vector-effect="non-scaling-stroke"/>
    <path class="st19" d="M437.58,1034.69c1.96,2.16,3.65,4.14,5.95,6,14.49,11.79,26.04,20.5,34.64,26.13,7.84,5.13,16.12,10.52,24.83,16.17" vector-effect="non-scaling-stroke"/>
    <path class="st13" d="M503,1082.99c-1.89,12.49-3.8,25.06-5.73,37.7-2.25,14.67-4.04,27.26-5.37,37.77-2.01,15.87-4.04,32.44-6.09,49.72-1.2,10.11-1.77,20.59-2.84,29.33-1.13,9.19,12.39,14.4,18.04,17.89,1.85,1.14,3.89,2.1,6.14,2.87.12.05,2.2.99,6.23,2.83,5,2.29,11.82,4.87,20.47,7.73,6.77,2.24,12.58,3.47,19.25,5.6,3.69,1.18,8.54,2.4,14.56,3.67,21.67,4.57,41.85,8.06,60.53,10.47,3.87.5,14.29,1.58,31.25,3.23,3.65.36,7.05.1,10.29.66,5.32.93,11.78.37,17.09,1.05,3.05.39,6.17.58,9.38.56,13.65-.08,35.33-.1,65.05-.05,4.47.01,8.34-.16,11.62-.51,3.16-.33,5.91-.49,8.24-.48,4.26.03,8.82.27,12.88-.43,3.7-.63,7.27-.43,11.41-.82,27.83-2.6,49.83-5.32,66.02-8.17,11.37-2.01,25.2-4.92,41.48-8.73,4.41-1.03,10.18-2.65,17.33-4.85,10.3-3.18,16.03-4.98,17.18-5.4,10.13-3.69,20.12-8.1,29.97-13.24,4.81-2.51,9.36-5.65,13.66-9.4.33-.29.57-.67.67-1.09.37-1.49.47-3.04.28-4.65-7.31-62.39-16.44-121.65-29.63-181.91-.98-4.45-2.08-8.66-3.29-12.61-.05-.16-.07-.34-.05-.51.07-.92.5-1.32,1.27-1.2" vector-effect="non-scaling-stroke"/>
    <path class="st19" d="M960.29,1040.02c4.86-3.43,9.95-7.5,15.27-12.23,2.35-2.09,4.02-3.79,4.99-5.1.25-.33.37-.75.33-1.16-.09-1.18-.58-2.42-1.47-3.73-.19-.28-.3-.59-.33-.93-.05-.54.07-.83.38-.87" vector-effect="non-scaling-stroke"/>
    <path class="st6" d="M979.46,1016c2.93,5.19,6.64,10.91,11.13,17.18,18.82,26.24,48.15,39.21,80.4,33.75,6.58-1.12,13.79-3.71,21.64-7.76" vector-effect="non-scaling-stroke"/>
    <path class="st7" d="M1092.63,1059.17c8.67-2.22,16.13-7.03,22.36-14.44,15.36-18.27,22.78-43.07,20.69-66.9-1.42-16.15-4.97-31.38-9.78-47.26-6.51-21.46-13.9-41.63-21.03-62.27-1.91-5.55-2.51-10.26-1.26-15.42,2.73-11.39,6.36-24.34,10.89-38.85,2.47-7.93,4.38-16.26,5.73-25.01,1.97-12.75.99-25.08-2.94-37-3.55-10.79-9.44-20.81-17.65-30.04" vector-effect="non-scaling-stroke"/>
    <path class="st16" d="M1099.64,721.98l.88-.83" vector-effect="non-scaling-stroke"/>
    <path class="st19" d="M1100.52,721.15c5.79,6.6,10.54,13.87,14.26,21.81.28.6.7,1.13,1.21,1.55,1.47,1.19,2.56,2.71,3.27,4.56.12.3.55.25.6-.07.63-4.34,1.42-10.82,2.39-19.45.37-3.34.65-7.89.82-13.64.15-4.63.49-9.18,1.02-13.65.47-3.97.31-13.03-.48-27.2" vector-effect="non-scaling-stroke"/>
    <path class="st16" d="M1123.61,675.06c.71-3.05,1.32-5.16,1.85-6.32,13.48-29.49,16.92-62.08-3.25-89.71-1.27-1.75-4.11-5.23-8.51-10.45" vector-effect="non-scaling-stroke"/>
    <path class="st19" d="M1113.7,568.58c-.07-5.12-.34-9.11-.81-11.96-6.07-36.08-16.85-70.79-32.35-104.12-.65-1.41-1.25-2.67-1.8-3.8-11.37-23.33-25.94-45.92-43.72-67.77-2.28-2.81-5.01-5.37-6.94-8.18-.28-.4-.62-.76-1.02-1.05-.79-.57-3.18-3.26-7.17-8.09-1.46-1.77-6.45-6.85-14.97-15.24-1.05-1.05-2.14-1.97-3.27-2.76-2.73-1.92-4.94-4.56-7.36-6.61-14.59-12.33-28.07-22.44-40.42-30.34-10.61-6.79-22.44-13.81-35.49-21.05-1.23-.69-2.42-1.18-3.57-1.49-.45-.12-.89.22-.88.69.06,5.76.08,10.56.05,14.39-.02,3.34-1.02,5.59-1.02,9.01,0,1.69-.29,4.21-.87,7.58-.19,1.11-.75,2.7-1.66,4.77-.66,1.49-1.13,3.12-1.42,4.88-.28,1.71-.93,2.93-1.95,3.66" vector-effect="non-scaling-stroke"/>
    <path class="st7" d="M907.06,331.1c4.36-19.67,4.79-39.32,3.52-59.27-2.85-44.72-20.96-88.52-53.03-120.13-25.55-25.19-59.71-40.19-94.96-46.34-10.63-1.85-22.43-2.67-35.38-2.47-12.59.19-24.4,1.17-35.43,2.93-47.85,7.65-94.38,39.26-116.5,82.57-7.77,15.21-12.58,30.67-14.44,46.38-2.64,22.29-.72,45.09,5.75,68.42" vector-effect="non-scaling-stroke"/>
    <path class="st24" d="M907.06,331.1c-1.41,3.19-2.28,6.61-2.59,10.26" vector-effect="non-scaling-stroke"/>
    <path class="st2" d="M904.47,341.36c-.07.33-.1.53-.1.77,0-.07,0-.13-.01-.19-1.11-8.14-4.47-16.61-10.56-22.03-7.86-7.01-17.47-9.97-28.82-8.9-12.23,1.16-21.7,12.51-28.27,21.95-.53.76-1.57.93-2.32.39-3.55-2.59-7.16-5.73-10.83-9.42-15.93-16.04-27.16-34.86-33.7-56.47-2.49-8.25-3.96-13.64-5.93-21.79-.26-1.1-.99-2.02-2-2.53-24.11-12.1-46.97-26.1-68.57-42-16.79-12.35-32.45-26.61-43.86-44.67-.26-.41-.84-.48-1.19-.13-21.28,21.51-44.09,41.11-68.95,57.77-2.72,1.82-7.5,4.44-14.33,7.85-2.76,1.38-3.35,2.13-4.2,5.1-4.58,15.97-7.89,32.08-9.94,48.33-1.22,9.66-2.43,19.3-3.64,28.93-.01.07-.09.12-.16.1-.13-.03-.2-.1-.21-.19" vector-effect="non-scaling-stroke"/>
    <path class="st24" d="M566.88,304.23l-.29-1.04" vector-effect="non-scaling-stroke"/>
    <path class="st24" d="M657.02,520.11l.42,3.33" vector-effect="non-scaling-stroke"/>
    <path class="st11" d="M655.52,545.63c-1.69.34-3.19.66-4.48.96-1,.24-2.04.7-3.12,1.38" vector-effect="non-scaling-stroke"/>
    <path class="st12" d="M647.92,547.97c-.34-.43-.82-.57-1.43-.4-14.91,4.03-28.99,8.63-42.23,13.8" vector-effect="non-scaling-stroke"/>
    <path class="st11" d="M604.26,561.37c-16.51,6.76-32.15,14-46.9,21.73-15.69,8.21-30.64,18.01-44.87,29.38-.26.21-.57.57-.92,1.08" vector-effect="non-scaling-stroke"/>
    <path class="st0" d="M511.57,613.56c-8.11,6.43-15.34,13.75-21.67,21.94" vector-effect="non-scaling-stroke"/>
    <path class="st11" d="M489.9,635.5c-.41.15-.65.46-.71.93" vector-effect="non-scaling-stroke"/>
    <path class="st0" d="M489.19,636.43l-2.99,4.29" vector-effect="non-scaling-stroke"/>
    <path class="st11" d="M486.2,640.72c-1.94,2.65-3.41,6.13-4.86,8.45-7.67,12.31-13.68,23.36-18.01,33.15-6.76,15.25-12.94,31.49-18.55,48.73-.4,1.21-.62,2.48-.67,3.76-.31,7.92-1.39,16.05-3.23,24.4-2.99,13.64-6.88,27-11.67,40.07-.44,1.2-.47,2.51-.1,3.74.54,1.78,1.31,3.54,2.3,5.28,4.64,8.1,9.58,16.2,14.82,24.3.15.22.34.42.56.58l1.42,1.05" vector-effect="non-scaling-stroke"/>
    <path class="st21" d="M448.21,834.23l-1.98.26" vector-effect="non-scaling-stroke"/>
    <path class="st24" d="M446.23,834.49c-5.69-8.9-11.16-17.93-16.39-27.09-1.88-3.29-2.24-6.5-1.09-9.65,5.73-15.66,9.74-29.85,12.03-42.56,2.5-13.85,3.11-27.35.47-39.9-2.49-11.85-7.52-22.29-19.69-26.56-.48-.17-.82-.62-.85-1.13-.74-14.65-3.98-26.89-8.33-42.37-1.47-5.25-1.4-14.92,1.43-21.31.26-.59.73-1.07,1.31-1.34,4.86-2.27,6.25-7.23,8.18-12.74,2.02-5.74,4.48-12.65,3.3-18.42-.73-3.59-2.87-5.83-6.43-6.72-1.53-.39-3.02-.84-4.48-1.35" vector-effect="non-scaling-stroke"/>
    <path class="st24" d="M415.99,582.49c1.01.41,1.99.46,2.93.14.3-.1.57-.31.75-.58,6.91-10.49,13.79-18.08,27.57-16.62,6.49.69,15.23,2.5,22.97,1.58,7.85-.94,13.76-7.03,11.47-15.51-1.07-3.97-2.57-7.94-4.5-11.91-5.79-11.89-11.04-22.04-15.76-30.45-2.69-4.81-6.23-8.99-10.61-12.54-4.12-3.34-10.06-5.65-15.09-7.34-18.83-6.3-37.66-12.61-56.48-18.93" vector-effect="non-scaling-stroke"/>
    <path class="st20" d="M1113.7,568.58c-22.03-20.85-47.94-33.59-77.73-38.22-15.87-2.47-31.54-1.64-47.03,2.47-9.07,2.41-16.67,5.68-22.79,9.82-11.03,7.45-19.65,17.87-25.84,31.24" vector-effect="non-scaling-stroke"/>
    <path class="st11" d="M940.31,573.89l-51.9-21.88" vector-effect="non-scaling-stroke"/>
    <path class="st12" d="M888.41,552.01l-35.56-12.83" vector-effect="non-scaling-stroke"/>
    <path class="st24" d="M828.82,490.24c14.78,22.28,38.09,36.55,64.64,37.85,24.4,1.19,48.28-8.33,64.33-26.54,16.39-18.61,23.36-40.79,20.93-66.56-3.25-34.35-27.64-64.2-62.05-71.1-3.56-.71-8-.96-12.18-1.6" vector-effect="non-scaling-stroke"/>
    <path class="st21" d="M904.47,341.36c.46,2.41.73,5.37.82,8.89.12,4.59-.15,8.61-.8,12.04" vector-effect="non-scaling-stroke"/>
    <path class="st2" d="M904.49,362.29c-2.99,16.14-9.97,29.78-20.96,40.93-5.97,6.05-11.78,10.06-17.42,12.02-7.23,2.5-14.26,2.94-21.1,1.31-4.25-1.02-6.17-3.12-9.58-6.67-.84-.87-2.25-.81-3.01.14l-.22.26c-.9,1.13-.81,2.75.21,3.77l2.72,2.72c.74.74,1.07,1.81.87,2.84-3.13,15.92-5.39,31.63-6.8,47.14-.51,5.59-.63,13.42-.38,23.49" vector-effect="non-scaling-stroke"/>
    <path class="st21" d="M828.82,490.24c-.05,5.63.05,12.97.31,22,.23,8.27,3.21,15.16,8.93,20.69,1.42,1.37,2.93,2.36,4.52,2.98,2.91,1.13,6.33,2.22,10.27,3.27" vector-effect="non-scaling-stroke"/>
    <path class="st1" d="M852.85,539.18c.03.44.02.75-.03.92-2.81,9.15-5.32,18.39-7.52,27.71-4.55,19.19-9.11,38.38-13.68,57.56-1.15,4.85-2.33,9.75-3.54,14.7" vector-effect="non-scaling-stroke"/>
    <path class="st10" d="M828.08,640.07c.89-5.54,2-11.03,3.34-16.46,2.64-10.69,3.98-16.12,4.02-16.3,5.26-23.25,10.76-45.49,16.49-66.72.13-.48-.14-.98-.61-1.13l-10.4-3.37c-.38-.12-.77.11-.84.5-1.05,5.87-2.88,11.71-5.49,17.53-5.27,11.79-12.36,22.76-21.51,32.03-5.09,5.15-7.96,8-8.62,8.55-13.16,11.05-27.18,18.14-45.05,24.28-3.31,1.14-7,2.09-11.09,2.85-6.66,1.24-10.43,1.88-11.32,1.92-10.16.45-16.32.69-18.49.71-17.65.13-37.64-4.46-50.78-16.29-6.9-6.21-11.76-14.74-14.59-25.58-1.39-5.31-1.26-10.82-.46-16.1,1.07-7.01,2.01-13.96,2.84-20.86" vector-effect="non-scaling-stroke"/>
    <path class="st21" d="M655.52,545.63c.47-5.43.64-10.81.53-16.12-.05-2.25.41-4.27,1.39-6.07" vector-effect="non-scaling-stroke"/>
    <path class="st2" d="M657.44,523.44c6.23,5.09,12.53,8.24,18.92,9.47,16.38,3.16,32.5.84,48.37-6.97,10.37-5.1,21.47-11.44,29.92-19.38" vector-effect="non-scaling-stroke"/>
    <path class="st22" d="M754.65,506.56c3.88-2.5,7.34-5.3,10.37-8.4" vector-effect="non-scaling-stroke"/>
    <path class="st2" d="M765.02,498.16c1.05-1.13,1.25-2.15.61-3.06-1.11-1.6-2.39-1.69-3.82-.27-6.71,6.63-14.34,11.91-22.89,15.85-26.14,12.05-53.44,15.19-81.9,9.43" vector-effect="non-scaling-stroke"/>
    <path class="st21" d="M657.02,520.11c-1.88-.43-3.81-.91-5.78-1.46-14.87-4.12-28.09-11.1-39.68-20.95-13.71-11.64-24.06-25.45-31.07-41.44-9.57-21.86-14.08-46.4-16.07-69.96-.49-5.85-1.5-16.93-1.36-25.07.07-3.74.08-8.53.03-14.37-.04-5.06.71-9.64.88-14.43.32-9.24,1.82-18.87,2.91-28.2" vector-effect="non-scaling-stroke"/>
    <path class="st10" d="M491.45,846.74c-.68.66-1.3.8-1.85.43-.73-.49-1.13-.75-1.2-.78-4.59-1.69-9.68-2.45-13.43-3.68-3.91-1.29-9.41-2.93-16.92-5.1-3.33-.97-6.61-2.09-9.84-3.38" vector-effect="non-scaling-stroke"/>
    <path class="st14" d="M486.2,640.72c1.26-1.2,2.26-2.63,2.99-4.29" vector-effect="non-scaling-stroke"/>
    <path class="st14" d="M489.9,635.5c6.87-7.67,14.09-14.99,21.67-21.94" vector-effect="non-scaling-stroke"/>
    <path class="st2" d="M446.23,834.49c9.87,15.68,19.81,31.32,29.8,46.91,4.91,7.67,8.52,14.08,10.82,19.25,1.31,2.93,3.04,8.95-2.43,8.4-.84-.08-1.57-.62-1.9-1.41-2.55-6.25-5.86-12.57-9.91-18.98-21.76-34.39-35.4-56.08-40.93-65.09-4.07-6.64-7.19-12.18-9.34-16.63-1.33-2.75-1.56-5.34-.69-7.77,4.65-12.89,8.53-26.05,11.62-39.48,1.33-5.74,2.19-11.43,2.58-17.08.57-8.2.75-16.88-1.02-24.91-2.03-9.22-6.08-20.44-16.09-22.92-6.59-1.63-13.92-2.8-21.99-3.51-7.89-.69-18.98-.63-24.03,6.39-3.98,5.52-1.31,13.98,2.38,18.76,5.17,6.71,11.68,10.95,19.53,12.73,4.31.98,8.9,2.01,13.76,3.09.35.08.68.26.93.53,1.15,1.21,1.21,2.76.18,4.65-.2.38-.6.62-1.04.62h-1.68c-.42,0-.78.28-.88.69-7.29,30.07-11.81,48.61-13.56,55.63-3.53,14.21-9,33.65-16.41,58.32-4.65,15.46-11.04,28.31-29.92,27.28-5.1-.28-10.07-1.08-14.92-2.4" vector-effect="non-scaling-stroke"/>
    <path class="st2" d="M257.86,760.77c1.05-1.2,2.39-1.33,4.02-.4,9.66,5.54,17.91,9.55,24.75,12.04,7.16,2.6,15.75,2.67,21.09-3.53,3.83-4.45,2.54-10.5-1.48-14.38-3.04-2.92-5.9-4.77-10.03-6.77-12.63-6.1-24.88-13.16-36.75-21.19" vector-effect="non-scaling-stroke"/>
    <path class="st2" d="M260.59,724.28c3.96-.84,7.59-.27,10.89,1.72,13.55,8.17,23.6,13.87,30.14,17.12,5.11,2.54,12.02,3.31,16.52-.64,11.91-10.46-.27-23.98-9.61-29.76-14.1-8.75-25.72-16.05-34.87-21.88-1.27-.81-2.18-1.8-2.74-2.97" vector-effect="non-scaling-stroke"/>
    <path class="st2" d="M271.59,686.01c3.03-1.29,5.66-1.23,7.91.2,19.13,12.13,29.98,18.97,32.54,20.51,2.79,1.67,5.63,1.7,8.51.11,6.61-3.66,8.88-10.48,7.27-17.83-1.37-6.25-8.08-12.85-13.23-16.84-5.81-4.49-11.39-9.32-16.76-14.47" vector-effect="non-scaling-stroke"/>
    <path class="st2" d="M492.38,846.75c2.9,24.34,8.52,48.48,14.6,74.04,3.91,16.45,8.7,32.02,14.37,46.69" vector-effect="non-scaling-stroke"/>
    <path class="st21" d="M517.39,998.52c-12.67,14.54-27.01,24.89-43.03,31.06-9.23,3.56-18.78,5.54-28.67,5.32-2.75-.07-5.46-.14-8.11-.21" vector-effect="non-scaling-stroke"/>
    <path class="st24" d="M317.25,536.05l3.25-4.91" vector-effect="non-scaling-stroke"/>
    <path class="st17" d="M888.41,552.01c-5.47,28.74-10.72,62.03-15.73,99.88-5.89,44.5-8.1,86.55-8.39,129.36-.1,14.98.32,29.98,1.25,45,.92,14.83,2.59,28.39,5.02,40.68,3.33,16.81,6.92,29.99,10.78,39.55,5.42,13.43,13.22,25.71,23.4,36.83,11.43,12.48,26.33,22.54,43.6,24.22" vector-effect="non-scaling-stroke"/>
    <path class="st12" d="M948.34,967.53c-.55,8.18-.67,13.5-.37,15.97.89,7.32,1.54,11.93,1.94,13.83,1.88,8.89,5.34,23.12,10.38,42.69" vector-effect="non-scaling-stroke"/>
    <path class="st12" d="M503,1082.99c.91-9.88,2.56-20.3,4.96-31.27,3.43-15.71,6.58-33.44,9.43-53.2" vector-effect="non-scaling-stroke"/>
    <path class="st1" d="M517.39,998.52c.15-.93.42-2.29.81-4.08.33-1.47.57-2.84.74-4.09,1.01-7.61,1.81-15.23,2.41-22.87" vector-effect="non-scaling-stroke"/>
    <path class="st15" d="M521.35,967.48c1.21-7.13,1.12-13.14-.29-18.04-4.69-16.27-8.08-29.02-10.18-38.26-4.72-20.75-9.85-42.75-12.64-63.68-3.82-28.65-1.27-57.73,5.43-86.29,4.47-19.06,10.17-38.01,17.09-56.85.48-1.32-.17-2.79-1.48-3.31l-.09-.03c-1.29-.52-2.76.12-3.25,1.42-9.92,25.8-17.22,52.33-21.89,79.58-1.51,8.78-2.51,19.94-3,33.48-.41,11.08.04,21.5,1.33,31.25" vector-effect="non-scaling-stroke"/>
    <path class="st1" d="M492.38,846.75c-.46.27-.77.26-.93-.01" vector-effect="non-scaling-stroke"/>
    <path class="st17" d="M491.45,846.74c-.99-8.48-1.44-15.14-1.37-19.99.13-9.4.01-18.81.78-27.49.39-4.42.9-8.74,1.54-12.97,4.15-27.32,11.67-55.28,22.56-83.88.67-1.76,2.62-2.66,4.39-2.03l.13.05c1.79.63,2.72,2.59,2.1,4.38-5.25,14.91-9.55,28.44-12.9,40.58-2.74,9.92-5.22,20.74-7.44,32.46-.65,3.47-1.29,8.11-1.92,13.91-.88,8.24-1.33,12.9-1.36,13.99-.23,9.04-.37,15.76-.41,20.16-.06,5.83.42,12.53,1.45,20.09,3.17,23.28,7.87,43.08,13.45,67.61,2.42,10.64,6.27,22.17,8.97,33.22.04.15.18.25.33.23s.26-.15.26-.3c-.08-8.21.05-12.63-.53-19.33-.92-10.48-2.52-22.67-4.81-36.56-2.24-13.63-3.35-26.67-3.33-39.12,0-2.94.13-7.66.38-14.17.22-5.86.53-10.57.94-14.13,3.35-29.47,10.76-58.35,19.89-87.44,14.31-45.63,31.43-91.09,51.34-136.39,5.65-12.84,11.77-25.59,18.37-38.25" vector-effect="non-scaling-stroke"/>
    <path class="st17" d="M828.08,640.07c-6.14,24.17-11.58,48.43-16.32,72.79-.07.37-.39.65-.78.66-31.59.9-67.58,1.01-107.97.32-19.51-.33-39.6-.99-60.25-1.98-13.65-.65-29.56-1.6-47.72-2.86-.34-.03-.59-.32-.56-.66.32-3.66,1.21-8.66,2.67-15.01,8.74-38.05,20.93-76.26,36.56-114.62,3.78-9.27,8.52-19.51,14.21-30.74" vector-effect="non-scaling-stroke"/>
    <path class="st3" d="M765.02,498.16c-.03-1.47-.44-2.42-1.23-2.86-.27-.16-.62-.12-.86.1-2.41,2.24-4.78,4.46-7.11,6.67-1.33,1.26-1.72,2.76-1.17,4.49" vector-effect="non-scaling-stroke"/>
    <path class="st10" d="M946.55,904.4l5.89,32.19" vector-effect="non-scaling-stroke"/>
    <path class="st11" d="M952.44,936.59c-.77,2.5-1.21,4.16-1.33,4.99-1.21,8.63-2.14,17.28-2.77,25.95" vector-effect="non-scaling-stroke"/>
    <path class="st20" d="M1123.61,675.06c-7.1,15.22-14.27,29.82-21.5,43.81-.37.71-.9,1.47-1.59,2.28" vector-effect="non-scaling-stroke"/>
    <path class="st9" d="M1099.64,721.98c-18.02-17.69-41.38-27.04-66.1-33.32-4.15-1.05-8.91-1.86-14.27-2.42-10.1-1.07-21.24,4.82-21.25,15.94-.01,5.24,2.61,9.98,6.27,13.8.24.25.05.67-.3.66-2.75-.1-6.21-.09-10.4.04-11.71.36-21.69,6.78-21.33,19.52.11,3.99,1.57,7.14,3.5,10.62.22.39.11.88-.25,1.15-4.57,3.43-8.3,7.98-8.61,13.88-.41,7.64,2.16,14.03,7.7,19.18.22.2.17.56-.1.7-14.41,7.24-4.78,24.18,2.53,32.49,8.69,9.87,18.22,18.19,28.59,24.95,1.07.7,1.63,1.97,1.42,3.23-3.08,18.84-4.75,39.32,4.25,56.84" vector-effect="non-scaling-stroke"/>
    <path class="st4" d="M1011.29,899.24c-.13,1.45-.68,2.32-1.67,2.61-1.89.57-3.41,1.15-4.58,1.74" vector-effect="non-scaling-stroke"/>
    <path class="st9" d="M1005.04,903.59c-2.92.07-5.37.89-7.36,2.46" vector-effect="non-scaling-stroke"/>
    <path class="st4" d="M997.68,906.05c-9.17,1.95-18.06,2.6-26.68,1.96-7.51-.56-15.66-1.76-24.45-3.61" vector-effect="non-scaling-stroke"/>
    <path class="st5" d="M946.55,904.4c-5.61-1.69-9.44-2.91-11.5-3.68-12.31-4.57-22.98-10.8-31.99-18.71-15.69-13.77-23.76-31.42-24.19-52.95-.32-16.1,2.68-32.71,9.11-47.71,5.27-12.3,8.41-18.01,16.21-32.36,7.57-13.94,12.88-28.86,14.53-44.54,1.42-13.48,1.16-27.72,1.6-39.68.69-18.71,3.25-37.37,7.69-55.99,2.89-12.15,6.99-23.78,12.3-34.89" vector-effect="non-scaling-stroke"/>
    <path class="st24" d="M302.9,645.07l-3.32,6.97" vector-effect="non-scaling-stroke"/>
    <path class="st21" d="M979.46,1016c-7.56-14.69-13.82-30.74-18.79-48.13-3.69-12.9-6.43-23.33-8.23-31.28" vector-effect="non-scaling-stroke"/>
    <path class="st2" d="M997.68,906.05c-1.31,6.3-2.69,14.79-4.14,25.46-3.21,23.62-2.38,46.43,2.48,68.42.36,1.6,1.89,2.67,3.52,2.44h.1c1.58-.23,2.65-1.74,2.34-3.31-1.81-9.02-2.94-16.46-3.39-22.31-1.55-19.73-.47-39.48,3.24-59.24.84-4.45,1.91-9.09,3.21-13.92" vector-effect="non-scaling-stroke"/>
    <path class="st2" d="M1092.63,1059.17c2.55-3.39,5.45-6.43,8.7-9.12,4.09-3.39,6.5-5.48,7.22-6.28,5.82-6.48,10.47-13.82,13.94-22.01,6.63-15.68,8.87-31.59,6.7-47.73-2.79-20.85-8.8-41.89-15.39-61.58-2.05-6.13-6.91-20.03-14.58-41.69-1.41-3.98-2.15-7.39-2.24-10.24-.07-2.48.43-6.32,1.5-11.53,2.9-14.08,9.25-31.43,12.55-44.19,2.03-7.82,3.26-13.84,3.7-18.06.96-9.23.78-19.66-1.96-28.72-4.51-14.91-12.51-27.31-24-37.22-5.87-5.06-14.3-9.97-21.23-13.31-12.59-6.06-25.7-10.52-39.35-13.38-3.84-.81-8.14-1.23-12.91-1.26-7.86-.05-14.01,5.38-10.12,13.49,3.13,6.5,8.92,11.16,15.88,13.53,4.73,1.61,11.55,3.76,16.05,5.64,19.01,7.94,35.8,19.7,50.35,35.27,1.22,1.31,1.45,3.27.55,4.82l-.07.12c-.77,1.34-2.6,1.58-3.7.5-2.39-2.36-4.18-4.13-5.37-5.31-8.07-8.01-17.58-15.23-28.55-21.66-12.83-7.53-27.88-12.82-45.15-15.88-9.46-1.67-26.66-1.83-26.7,11.89-.02,8.19,5.99,10.95,13.58,12.87,5.05,1.28,8.59,2.26,10.64,2.94,24.85,8.23,46.11,22.69,64.52,41.36,1.04,1.06.98,2.78-.14,3.76l-.14.12c-1.19,1.05-2.98,1-4.12-.1-20.4-19.67-45.99-36.11-73.82-42.32-6.67-1.49-14.04-1.94-15.67,5.93-2.02,9.77,5.21,18.67,14,22.17,20.47,8.15,39.12,20,55.93,35.53,1.11,1.02,1.07,2.79-.09,3.75l-.09.08c-1.26,1.05-3.08,1.06-4.35.04-6.95-5.61-13.35-10.49-19.19-14.64-10.02-7.11-20.57-12.89-31.65-17.34-2.51-1.01-5.3-1.7-8.37-2.07-6.8-.82-6.71,6-5.1,10.31.97,2.61,2.53,5.38,4.68,8.32,8.54,11.69,19.86,20.57,32.1,28.96,2.58,1.77,3.11,3.54,2.43,6.76-3.61,16.97-4.58,36.54,2.24,52.7.51,1.21,2.01,3.62,4.48,7.25,2.29,3.35-1.5,7.5-4.54,4.07-1.55-1.75-3.05-3.9-4.49-6.47" vector-effect="non-scaling-stroke"/>
    <path class="st7" d="M301.54,487.97c.42.14.88-.1,1.01-.52.73-2.39,3.81-11.88,9.22-28.45.58-1.78.04-2.92-1.63-3.41-8.13-2.39-16.49-4.18-25.06-5.37-.64-.09-1.28.21-1.61.76-3.55,5.85-5.97,12.27-7.28,19.25-.29,1.53-.19,2.82.28,3.88.14.31.35.58.61.8,7.17,5.81,15.33,10.17,24.46,13.06" vector-effect="non-scaling-stroke"/>
    <path class="st2" d="M583.07,276.18c.68,3.95,4.34,4.99,7.26,2.68,11.49-9.07,21.87-14.48,37.03-11.89,3.81.65,6.83-2.49,6.87-6.35.09-9.42-14.89-8.94-20.98-7.65-10.28,2.16-19.18,6.82-26.69,13.97-2.91,2.77-4.08,5.85-3.49,9.24" vector-effect="non-scaling-stroke"/>
    <path class="st2" d="M751.67,285.43c1.8,1.47,4.86,2.46,6.95.61,4.37-3.86,1.09-9.93-2.3-13.13-6.82-6.43-16.53-11.34-25.05-13.96-6.63-2.04-26.56-5.38-29.74,3.86-1.39,4.04,1.3,9.02,5.52,8.63,4.23-.4,7.46-.61,9.71-.64,13.43-.15,24.25,5.95,34.91,14.63" vector-effect="non-scaling-stroke"/>
    <path class="st2" d="M613.33,342.71c5.76.14,10.65-8.94,10.93-20.3.27-11.35-4.17-20.66-9.92-20.81-5.76-.14-10.65,8.94-10.93,20.3-.27,11.35,4.17,20.66,9.92,20.81" vector-effect="non-scaling-stroke"/>
    <path class="st2" d="M720.93,347.68c6.14.16,11.35-8.9,11.64-20.24.29-11.34-4.44-20.66-10.57-20.82-6.14-.16-11.35,8.9-11.64,20.24-.29,11.34,4.44,20.66,10.57,20.82" vector-effect="non-scaling-stroke"/>
    <path class="st2" d="M658.61,326.01l-.6-.6c-.95-.95-2.57-.65-3.11.59-7.29,16.6-17.14,34.41-23.62,46.78-1.14,2.19-2.11,4.81-2.9,7.84-1.64,6.34.25,11.21,5.28,15.73,8.46,7.6,18.33,8.47,29.56,7.58,4.19-.33,8.64-1.66,13.35-3.97,1.32-.65,1.93-2.19,1.41-3.57l-.09-.23c-.53-1.4-2.12-2.07-3.49-1.47-8.68,3.84-17.76,4.7-27.23,2.57-7.87-1.77-16.26-8.74-12.85-17.72,1.14-3,1.86-4.76,2.16-5.28,8.52-14.82,16.11-29.76,22.77-44.82.51-1.17.26-2.53-.64-3.43" vector-effect="non-scaling-stroke"/>
    <path class="st2" d="M852.46,352.91c.63,1.17,2.24,1.34,3.09.32,6.29-7.5,14.92-15.11,24.72-8.98,1.23.77,2.84-.03,2.96-1.48l.03-.31c.16-1.9-.83-3.71-2.51-4.61-2.73-1.46-5.08-2.09-7.05-1.9-8.88.88-15.9,5.04-21.05,12.49-.9,1.29-1,2.98-.25,4.37l.06.1" vector-effect="non-scaling-stroke"/>
    <path class="st2" d="M726.98,411.73c4.25,5.32,8.1,11.97,10.69,17.78.59,1.33,2.13,1.97,3.49,1.44l.3-.11c1.38-.54,2.01-2.12,1.39-3.46-3.22-6.87-6.82-13.43-11.43-19.2-4.61-5.77-10.2-10.72-16.19-15.38-1.17-.91-2.86-.64-3.69.58l-.17.27c-.81,1.21-.54,2.85.63,3.73,5.1,3.8,10.73,9.03,14.98,14.35" vector-effect="non-scaling-stroke"/>
    <path class="st2" d="M714.6,424.15c-1.65-.73-3.59-.4-4.9.85-15.96,15.15-39.64,18.7-60.12,11.69-4.18-1.43-8.19-3.98-12.03-7.63-1.3-1.24-3.37-1.16-4.58.16l-.05.06c-1.23,1.34-1.1,3.43.28,4.62,11.49,9.88,24.27,12.53,39.09,12.21,13.48-.29,25.74-4.4,36.77-12.35,3.57-2.57,5.81-4.54,6.74-5.92.85-1.27.35-3-1.05-3.62l-.15-.07" vector-effect="non-scaling-stroke"/>
    <path class="st15" d="M572.42,1003.06c-.45,1.39.39,2.87,1.82,3.18,21.26,4.65,42.6,8.06,64.01,10.25,15.83,1.61,30,2.78,42.5,3.5,15.82.91,33.9,1.55,54.25,1.92,12.92.24,29.85-.5,47.99-1.04,7.74-.23,17.35-.85,28.84-1.87,1.29-.11,2.23-1.27,2.08-2.56l-.02-.15c-.16-1.34-1.34-2.31-2.68-2.21-23.86,1.79-47.18,2.53-69.96,2.24-17.05-.23-26.64-.33-28.79-.32-9.42.03-16.56-.66-28.35-1.23-36.03-1.74-73.45-5.94-109.24-13.56-.98-.21-1.97.35-2.28,1.31l-.17.54" vector-effect="non-scaling-stroke"/>
    <path class="st3" d="M330.09,705.59c-2.96,3.49-6.26,6.01-9.89,7.58-.26.12-.34.46-.14.67,5.85,6.16,10.48,12.27,8.91,21.18-1.5,8.48-6.75,13.84-15.76,16.08-.33.09-.49.46-.33.76l1.84,3.41c.23.42.4.87.5,1.34,1.36,6.29.45,13.76-4.59,18.12-13.62,11.8-34.61.39-47.57-6.9-.52-.29-1.18-.04-1.37.53-5.88,17.86-11.18,34.46-15.14,52.15-.76,3.38-.85,6.85-.97,10.24-.37,10.56,8.13,16.08,16.93,19.81,23.08,9.78,46.83,16.46,70.67,21.24,10.06,2.02,23.64,3.79,30.3-6.3,1.77-2.67,2.94-4.86,3.52-6.56,1.81-5.3,4.8-15.05,8.99-29.24,8.95-30.3,15.38-58.29,23.72-92.75.07-.31-.12-.62-.43-.7-3.05-.73-5.87-1.42-8.46-2.06-13.43-3.3-22.22-11.38-26.39-24.24" vector-effect="non-scaling-stroke"/>
    <path class="st24" d="M364.43,709.95c-3.09-17.15,9-25.08,24.07-25.27,8.19-.1,16.59.62,25.2,2.15.22.04.41-.13.4-.35-.54-12.49-3.33-22.25-7.06-37.48-1.49-6.1-1.53-13.24-.12-21.43.28-1.57,1.52-4.65,1.76-5.99.05-.3-.12-.59-.41-.68l-25.54-8.28c-.27-.09-.57.07-.65.34-9.4,30.87-17.89,62.08-25.46,93.63-.04.15-.01.38.1.69" vector-effect="non-scaling-stroke"/>
    <path class="st3" d="M356.72,707.28c-.33.69-.59,1.42-.76,2.17-11.1,47.73-24.95,95.04-43.6,140.28-.49,1.2-1.75,1.9-3.03,1.7h-.08c-1.21-.2-1.98-1.41-1.63-2.58,1.09-3.63,2.33-7.21,3.74-10.74,5.19-12.99,10.1-26.57,14.71-40.75,8.59-26.44,15.97-53.1,22.13-79.99" vector-effect="non-scaling-stroke"/>
    <path class="st23" d="M348.2,717.37l1.38-6.35" vector-effect="non-scaling-stroke"/>
    <path class="st3" d="M349.58,711.02c.79-1.75.99-3.44.6-5.07" vector-effect="non-scaling-stroke"/>
    <path class="st24" d="M350.18,705.95c.43-.02.7-.26.81-.71,7.7-31.31,16-62.76,24.89-94.36.07-.28-.08-.56-.35-.65l-20.87-6.76c-.21-.07-.44.05-.5.26-2.06,7.3-4.82,13.85-10.99,18.29-.25.18-3.11,1.33-8.58,3.44-5.74,2.22-10.49,5.2-14.26,8.93-6.5,6.44-11.85,13.96-16.04,22.57-.1.2-.03.44.16.56,9.16,5.74,16.84,11.14,23.8,19.02,3.87,4.4,6.05,9.55,6.53,15.46.41,5.01-1.15,9.54-4.69,13.59" vector-effect="non-scaling-stroke"/>
    <path class="st0" d="M350.18,705.95c-.07-.3-.3-.49-.67-.58-6.65-1.56-13.13-1.49-19.42.22" vector-effect="non-scaling-stroke"/>
    <path class="st18" d="M349.58,711.02c.11-.28.14-.53.08-.74-.07-.26-.44-.27-.53-.01-.83,2.42-1.14,4.79-.93,7.1" vector-effect="non-scaling-stroke"/>
    <path class="st18" d="M362.73,708.2l-5.13-1.12" vector-effect="non-scaling-stroke"/>
    <path class="st0" d="M364.43,709.95c-.51-.76-1.08-1.34-1.7-1.75" vector-effect="non-scaling-stroke"/>
    <path class="st8" d="M362.73,708.2c-.46-12.41,5.14-20.16,16.79-23.27,4.73-1.26,9.46-1.75,14.21-1.47,5.98.36,11.98,1.01,18,1.95.77.12,1.44-.53,1.34-1.3-1.34-10.63-3.47-21.29-6.38-31.98-2.69-9.89-2.53-19.69.49-29.38.18-.56-.14-1.17-.7-1.35l-22.6-7.33c-.51-.17-1.06.12-1.23.63-2.65,7.99-5.13,16.2-7.44,24.63-4.55,16.56-6.83,24.87-6.85,24.92-3.88,14.22-7.47,28.5-10.76,42.83" vector-effect="non-scaling-stroke"/>
    <path class="st0" d="M357.6,707.08c-.16.13-.45.19-.88.2" vector-effect="non-scaling-stroke"/>
    <path class="st8" d="M333.26,703.61c.65.15,1.57.19,2.75.11,4.55-.33,8.95,0,13.18.96.52.12,1.04-.21,1.17-.73,6.19-26.06,13.24-51.82,20.34-78.5,1.22-4.6,2.54-8.92,3.95-12.95.26-.76-.15-1.58-.91-1.83l-17.68-5.73c-.64-.21-1.33.15-1.53.8-1.95,6.32-4.83,12.77-10.56,16.84-1.07.76-3.81,1.88-8.2,3.36-13.63,4.59-23.31,17.1-29.78,29.78-.23.46-.16,1.01.19,1.39.87.92,1.82,1.7,2.87,2.35,13.83,8.5,34.14,24.91,23.91,43.48-.15.27,0,.6.3.67" vector-effect="non-scaling-stroke"/>
  </g>
  <path class="st30" d="M907.06,331.1c-1.41,3.19-2.28,6.61-2.59,10.26-.07.33-.1.53-.1.77,0-.07,0-.13-.01-.19-1.11-8.14-4.47-16.61-10.56-22.03-7.86-7.01-17.47-9.97-28.82-8.9-12.23,1.16-21.7,12.51-28.27,21.95-.53.76-1.57.93-2.32.39-3.55-2.59-7.16-5.73-10.83-9.42-15.93-16.04-27.16-34.86-33.7-56.47-2.49-8.25-3.96-13.64-5.93-21.79-.26-1.1-.99-2.02-2-2.53-24.11-12.1-46.97-26.1-68.57-42-16.79-12.35-32.45-26.61-43.86-44.67-.26-.41-.84-.48-1.19-.13-21.28,21.51-44.09,41.11-68.95,57.77-2.72,1.82-7.5,4.44-14.33,7.85-2.76,1.38-3.35,2.13-4.2,5.1-4.58,15.97-7.89,32.08-9.94,48.33-1.22,9.66-2.43,19.3-3.64,28.93-.01.07-.09.12-.16.1-.13-.03-.2-.1-.21-.19l-.29-1.04c-6.47-23.33-8.39-46.13-5.75-68.42,1.86-15.71,6.67-31.17,14.44-46.38,22.12-43.31,68.65-74.92,116.5-82.57,11.03-1.76,22.84-2.74,35.43-2.93,12.95-.2,24.75.62,35.38,2.47,35.25,6.15,69.41,21.15,94.96,46.34,32.07,31.61,50.18,75.41,53.03,120.13,1.27,19.95.84,39.6-3.52,59.27Z"/>
  <path class="st32" d="M904.47,341.36c.46,2.41.73,5.37.82,8.89.12,4.59-.15,8.61-.8,12.04-2.99,16.14-9.97,29.78-20.96,40.93-5.97,6.05-11.78,10.06-17.42,12.02-7.23,2.5-14.26,2.94-21.1,1.31-4.25-1.02-6.17-3.12-9.58-6.67-.84-.87-2.25-.81-3.01.14l-.22.26c-.9,1.13-.81,2.75.21,3.77l2.72,2.72c.74.74,1.07,1.81.87,2.84-3.13,15.92-5.39,31.63-6.8,47.14-.51,5.59-.63,13.42-.38,23.49-.05,5.63.05,12.97.31,22,.23,8.27,3.21,15.16,8.93,20.69,1.42,1.37,2.93,2.36,4.52,2.98,2.91,1.13,6.33,2.22,10.27,3.27.03.44.02.75-.03.92-2.81,9.15-5.32,18.39-7.52,27.71-4.55,19.19-9.11,38.38-13.68,57.56-1.15,4.85-2.33,9.75-3.54,14.7.89-5.54,2-11.03,3.34-16.46,2.64-10.69,3.98-16.12,4.02-16.3,5.26-23.25,10.76-45.49,16.49-66.72.13-.48-.14-.98-.61-1.13l-10.4-3.37c-.38-.12-.77.11-.84.5-1.05,5.87-2.88,11.71-5.49,17.53-5.27,11.79-12.36,22.76-21.51,32.03-5.09,5.15-7.96,8-8.62,8.55-13.16,11.05-27.18,18.14-45.05,24.28-3.31,1.14-7,2.09-11.09,2.85-6.66,1.24-10.43,1.88-11.32,1.92-10.16.45-16.32.69-18.49.71-17.65.13-37.64-4.46-50.78-16.29-6.9-6.21-11.76-14.74-14.59-25.58-1.39-5.31-1.26-10.82-.46-16.1,1.07-7.01,2.01-13.96,2.84-20.86.47-5.43.64-10.81.53-16.12-.05-2.25.41-4.27,1.39-6.07,6.23,5.09,12.53,8.24,18.92,9.47,16.38,3.16,32.5.84,48.37-6.97,10.37-5.1,21.47-11.44,29.92-19.38,3.88-2.5,7.34-5.3,10.37-8.4,1.05-1.13,1.25-2.15.61-3.06-1.11-1.6-2.39-1.69-3.82-.27-6.71,6.63-14.34,11.91-22.89,15.85-26.14,12.05-53.44,15.19-81.9,9.43-1.88-.43-3.81-.91-5.78-1.46-14.87-4.12-28.09-11.1-39.68-20.95-13.71-11.64-24.06-25.45-31.07-41.44-9.57-21.86-14.08-46.4-16.07-69.96-.49-5.85-1.5-16.93-1.36-25.07.07-3.74.08-8.53.03-14.37-.04-5.06.71-9.64.88-14.43.32-9.24,1.82-18.87,2.91-28.2.01.09.08.16.21.19.07.02.15-.03.16-.1,1.21-9.63,2.42-19.27,3.64-28.93,2.05-16.25,5.36-32.36,9.94-48.33.85-2.97,1.44-3.72,4.2-5.1,6.83-3.41,11.61-6.03,14.33-7.85,24.86-16.66,47.67-36.26,68.95-57.77.35-.35.93-.28,1.19.13,11.41,18.06,27.07,32.32,43.86,44.67,21.6,15.9,44.46,29.9,68.57,42,1.01.51,1.74,1.43,2,2.53,1.97,8.15,3.44,13.54,5.93,21.79,6.54,21.61,17.77,40.43,33.7,56.47,3.67,3.69,7.28,6.83,10.83,9.42.75.54,1.79.37,2.32-.39,6.57-9.44,16.04-20.79,28.27-21.95,11.35-1.07,20.96,1.89,28.82,8.9,6.09,5.42,9.45,13.89,10.56,22.03.01.06.01.12.01.19,0-.24.03-.44.1-.77ZM583.07,276.18c.68,3.95,4.34,4.99,7.26,2.68,11.49-9.07,21.87-14.48,37.03-11.89,3.81.65,6.83-2.49,6.87-6.35.09-9.42-14.89-8.94-20.98-7.65-10.28,2.16-19.18,6.82-26.69,13.97-2.91,2.77-4.08,5.85-3.49,9.24ZM751.67,285.43c1.8,1.47,4.86,2.46,6.95.61,4.37-3.86,1.09-9.93-2.3-13.13-6.82-6.43-16.53-11.34-25.05-13.96-6.63-2.04-26.56-5.38-29.74,3.86-1.39,4.04,1.3,9.02,5.52,8.63,4.23-.4,7.46-.61,9.71-.64,13.43-.15,24.25,5.95,34.91,14.63ZM613.33,342.71c5.76.14,10.65-8.94,10.93-20.3.27-11.35-4.17-20.66-9.92-20.81-5.76-.14-10.65,8.94-10.93,20.3-.27,11.35,4.17,20.66,9.92,20.81ZM720.93,347.68c6.14.16,11.35-8.9,11.64-20.24.29-11.34-4.44-20.66-10.57-20.82-6.14-.16-11.35,8.9-11.64,20.24-.29,11.34,4.44,20.66,10.57,20.82ZM658.61,326.01l-.6-.6c-.95-.95-2.57-.65-3.11.59-7.29,16.6-17.14,34.41-23.62,46.78-1.14,2.19-2.11,4.81-2.9,7.84-1.64,6.34.25,11.21,5.28,15.73,8.46,7.6,18.33,8.47,29.56,7.58,4.19-.33,8.64-1.66,13.35-3.97,1.32-.65,1.93-2.19,1.41-3.57l-.09-.23c-.53-1.4-2.12-2.07-3.49-1.47-8.68,3.84-17.76,4.7-27.23,2.57-7.87-1.77-16.26-8.74-12.85-17.72,1.14-3,1.86-4.76,2.16-5.28,8.52-14.82,16.11-29.76,22.77-44.82.51-1.17.26-2.53-.64-3.43ZM852.46,352.91c.63,1.17,2.24,1.34,3.09.32,6.29-7.5,14.92-15.11,24.72-8.98,1.23.77,2.84-.03,2.96-1.48l.03-.31c.16-1.9-.83-3.71-2.51-4.61-2.73-1.46-5.08-2.09-7.05-1.9-8.88.88-15.9,5.04-21.05,12.49-.9,1.29-1,2.98-.25,4.37l.06.1ZM726.98,411.73c4.25,5.32,8.1,11.97,10.69,17.78.59,1.33,2.13,1.97,3.49,1.44l.3-.11c1.38-.54,2.01-2.12,1.39-3.46-3.22-6.87-6.82-13.43-11.43-19.2-4.61-5.77-10.2-10.72-16.19-15.38-1.17-.91-2.86-.64-3.69.58l-.17.27c-.81,1.21-.54,2.85.63,3.73,5.1,3.8,10.73,9.03,14.98,14.35ZM714.6,424.15c-1.65-.73-3.59-.4-4.9.85-15.96,15.15-39.64,18.7-60.12,11.69-4.18-1.43-8.19-3.98-12.03-7.63-1.3-1.24-3.37-1.16-4.58.16l-.05.06c-1.23,1.34-1.1,3.43.28,4.62,11.49,9.88,24.27,12.53,39.09,12.21,13.48-.29,25.74-4.4,36.77-12.35,3.57-2.57,5.81-4.54,6.74-5.92.85-1.27.35-3-1.05-3.62l-.15-.07Z"/>
  <path class="st30" d="M590.33,278.86c-2.92,2.31-6.58,1.27-7.26-2.68-.59-3.39.58-6.47,3.49-9.24,7.51-7.15,16.41-11.81,26.69-13.97,6.09-1.29,21.07-1.77,20.98,7.65-.04,3.86-3.06,7-6.87,6.35-15.16-2.59-25.54,2.82-37.03,11.89Z"/>
  <path class="st30" d="M758.62,286.04c-2.09,1.85-5.15.86-6.95-.61-10.66-8.68-21.48-14.78-34.91-14.63-2.25.03-5.48.24-9.71.64-4.22.39-6.91-4.59-5.52-8.63,3.18-9.24,23.11-5.9,29.74-3.86,8.52,2.62,18.23,7.53,25.05,13.96,3.39,3.2,6.67,9.27,2.3,13.13Z"/>
  <path class="st26" d="M566.59,303.19l.29,1.04c-1.09,9.33-2.59,18.96-2.91,28.2-.17,4.79-.92,9.37-.88,14.43.05,5.84.04,10.63-.03,14.37-.14,8.14.87,19.22,1.36,25.07,1.99,23.56,6.5,48.1,16.07,69.96,7.01,15.99,17.36,29.8,31.07,41.44,11.59,9.85,24.81,16.83,39.68,20.95,1.97.55,3.9,1.03,5.78,1.46l.42,3.33c-.98,1.8-1.44,3.82-1.39,6.07.11,5.31-.06,10.69-.53,16.12-1.69.34-3.19.66-4.48.96-1,.24-2.04.7-3.12,1.38-.34-.43-.82-.57-1.43-.4-14.91,4.03-28.99,8.63-42.23,13.8-16.51,6.76-32.15,14-46.9,21.73-15.69,8.21-30.64,18.01-44.87,29.38-.26.21-.57.57-.92,1.08-8.11,6.43-15.34,13.75-21.67,21.94-.41.15-.65.46-.71.93l-2.99,4.29c-1.94,2.65-3.41,6.13-4.86,8.45-7.67,12.31-13.68,23.36-18.01,33.15-6.76,15.25-12.94,31.49-18.55,48.73-.4,1.21-.62,2.48-.67,3.76-.31,7.92-1.39,16.05-3.23,24.4-2.99,13.64-6.88,27-11.67,40.07-.44,1.2-.47,2.51-.1,3.74.54,1.78,1.31,3.54,2.3,5.28,4.64,8.1,9.58,16.2,14.82,24.3.15.22.34.42.56.58l1.42,1.05-1.98.26c-5.69-8.9-11.16-17.93-16.39-27.09-1.88-3.29-2.24-6.5-1.09-9.65,5.73-15.66,9.74-29.85,12.03-42.56,2.5-13.85,3.11-27.35.47-39.9-2.49-11.85-7.52-22.29-19.69-26.56-.48-.17-.82-.62-.85-1.13-.74-14.65-3.98-26.89-8.33-42.37-1.47-5.25-1.4-14.92,1.43-21.31.26-.59.73-1.07,1.31-1.34,4.86-2.27,6.25-7.23,8.18-12.74,2.02-5.74,4.48-12.65,3.3-18.42-.73-3.59-2.87-5.83-6.43-6.72-1.53-.39-3.02-.84-4.48-1.35l.3-.86c1.01.41,1.99.46,2.93.14.3-.1.57-.31.75-.58,6.91-10.49,13.79-18.08,27.57-16.62,6.49.69,15.23,2.5,22.97,1.58,7.85-.94,13.76-7.03,11.47-15.51-1.07-3.97-2.57-7.94-4.5-11.91-5.79-11.89-11.04-22.04-15.76-30.45-2.69-4.81-6.23-8.99-10.61-12.54-4.12-3.34-10.06-5.65-15.09-7.34-18.83-6.3-37.66-12.61-56.48-18.93.23-.51.21-.82-.04-.95-1.6-.77-3.74-1.56-6.43-2.37-.56-.17-1.79-1.04-3.69-2.62-.32-.27-.69-.48-1.09-.62l-14.78-5.17c-.55-.19-.86-.76-.72-1.32.31-1.31.77-2.44,1.39-3.4,10.13-15.75,17.52-26.7,22.16-32.86,8.16-10.83,13.24-17.33,15.23-19.52,2.28-2.48,4.58-4.96,6.67-7.6,2.56-3.24,5.61-5.87,8.14-9.18.64-.84,1.14-1.44,1.5-1.8,3.75-3.79,8.2-8.27,13.36-13.42,3.83-3.83,8.32-7.08,12.12-11.09.61-.65,1.26-1.23,1.96-1.76,1.01-.77,2.85-2.3,5.5-4.61,17.41-15.15,37.15-29.17,59.23-42.06,7.98-4.65,15.76-8.17,23.37-12.11,8.25-4.27,17.09-7.65,27.44-11.8,2.33-.94,4.76-1.69,7.29-2.26.73-.16,1.44.32,1.57,1.05,1.21,6.73,2.34,13.95,6.29,19.49.23.32.74.19.78-.21l.1-.95Z"/>
  <path class="st26" d="M1113.7,568.58c-22.03-20.85-47.94-33.59-77.73-38.22-15.87-2.47-31.54-1.64-47.03,2.47-9.07,2.41-16.67,5.68-22.79,9.82-11.03,7.45-19.65,17.87-25.84,31.24l-51.9-21.88-35.56-12.83c-3.94-1.05-7.36-2.14-10.27-3.27-1.59-.62-3.1-1.61-4.52-2.98-5.72-5.53-8.7-12.42-8.93-20.69-.26-9.03-.36-16.37-.31-22,14.78,22.28,38.09,36.55,64.64,37.85,24.4,1.19,48.28-8.33,64.33-26.54,16.39-18.61,23.36-40.79,20.93-66.56-3.25-34.35-27.64-64.2-62.05-71.1-3.56-.71-8-.96-12.18-1.6.65-3.43.92-7.45.8-12.04-.09-3.52-.36-6.48-.82-8.89.31-3.65,1.18-7.07,2.59-10.26,1.02-.73,1.67-1.95,1.95-3.66.29-1.76.76-3.39,1.42-4.88.91-2.07,1.47-3.66,1.66-4.77.58-3.37.87-5.89.87-7.58,0-3.42,1-5.67,1.02-9.01.03-3.83.01-8.63-.05-14.39-.01-.47.43-.81.88-.69,1.15.31,2.34.8,3.57,1.49,13.05,7.24,24.88,14.26,35.49,21.05,12.35,7.9,25.83,18.01,40.42,30.34,2.42,2.05,4.63,4.69,7.36,6.61,1.13.79,2.22,1.71,3.27,2.76,8.52,8.39,13.51,13.47,14.97,15.24,3.99,4.83,6.38,7.52,7.17,8.09.4.29.74.65,1.02,1.05,1.93,2.81,4.66,5.37,6.94,8.18,17.78,21.85,32.35,44.44,43.72,67.77.55,1.13,1.15,2.39,1.8,3.8,15.5,33.33,26.28,68.04,32.35,104.12.47,2.85.74,6.84.81,11.96Z"/>
  <ellipse class="st30" cx="613.83" cy="322.16" rx="20.56" ry="10.43" transform="translate(276.77 927.94) rotate(-88.6)"/>
  <ellipse class="st30" cx="721.47" cy="327.15" rx="20.54" ry="11.11" transform="translate(375.55 1039.81) rotate(-88.5)"/>
  <path class="st30" d="M658.61,326.01c.9.9,1.15,2.26.64,3.43-6.66,15.06-14.25,30-22.77,44.82-.3.52-1.02,2.28-2.16,5.28-3.41,8.98,4.98,15.95,12.85,17.72,9.47,2.13,18.55,1.27,27.23-2.57,1.37-.6,2.96.07,3.49,1.47l.09.23c.52,1.38-.09,2.92-1.41,3.57-4.71,2.31-9.16,3.64-13.35,3.97-11.23.89-21.1.02-29.56-7.58-5.03-4.52-6.92-9.39-5.28-15.73.79-3.03,1.76-5.65,2.9-7.84,6.48-12.37,16.33-30.18,23.62-46.78.54-1.24,2.16-1.54,3.11-.59l.6.6Z"/>
  <path class="st30" d="M852.46,352.91l-.06-.1c-.75-1.39-.65-3.08.25-4.37,5.15-7.45,12.17-11.61,21.05-12.49,1.97-.19,4.32.44,7.05,1.9,1.68.9,2.67,2.71,2.51,4.61l-.03.31c-.12,1.45-1.73,2.25-2.96,1.48-9.8-6.13-18.43,1.48-24.72,8.98-.85,1.02-2.46.85-3.09-.32Z"/>
  <path class="st30" d="M904.49,362.29c4.18.64,8.62.89,12.18,1.6,34.41,6.9,58.8,36.75,62.05,71.1,2.43,25.77-4.54,47.95-20.93,66.56-16.05,18.21-39.93,27.73-64.33,26.54-26.55-1.3-49.86-15.57-64.64-37.85-.25-10.07-.13-17.9.38-23.49,1.41-15.51,3.67-31.22,6.8-47.14.2-1.03-.13-2.1-.87-2.84l-2.72-2.72c-1.02-1.02-1.11-2.64-.21-3.77l.22-.26c.76-.95,2.17-1.01,3.01-.14,3.41,3.55,5.33,5.65,9.58,6.67,6.84,1.63,13.87,1.19,21.1-1.31,5.64-1.96,11.45-5.97,17.42-12.02,10.99-11.15,17.97-24.79,20.96-40.93Z"/>
  <path class="st30" d="M731.42,408.18c4.61,5.77,8.21,12.33,11.43,19.2.62,1.34,0,2.92-1.39,3.46l-.3.11c-1.36.53-2.9-.11-3.49-1.44-2.59-5.81-6.44-12.46-10.69-17.78-4.25-5.32-9.88-10.55-14.98-14.35-1.17-.88-1.44-2.52-.63-3.73l.17-.27c.83-1.22,2.52-1.49,3.69-.58,5.99,4.66,11.58,9.61,16.19,15.38Z"/>
  <path class="st30" d="M714.6,424.15l.15.07c1.4.62,1.9,2.35,1.05,3.62-.93,1.38-3.17,3.35-6.74,5.92-11.03,7.95-23.29,12.06-36.77,12.35-14.82.32-27.6-2.33-39.09-12.21-1.38-1.19-1.51-3.28-.28-4.62l.05-.06c1.21-1.32,3.28-1.4,4.58-.16,3.84,3.65,7.85,6.2,12.03,7.63,20.48,7.01,44.16,3.46,60.12-11.69,1.31-1.25,3.25-1.58,4.9-.85Z"/>
  <path class="st30" d="M379.24,470.33c18.82,6.32,37.65,12.63,56.48,18.93,5.03,1.69,10.97,4,15.09,7.34,4.38,3.55,7.92,7.73,10.61,12.54,4.72,8.41,9.97,18.56,15.76,30.45,1.93,3.97,3.43,7.94,4.5,11.91,2.29,8.48-3.62,14.57-11.47,15.51-7.74.92-16.48-.89-22.97-1.58-13.78-1.46-20.66,6.13-27.57,16.62-.18.27-.45.48-.75.58-.94.32-1.92.27-2.93-.14l-51.61-17.15c-.33-.11-.51-.48-.38-.81.71-1.87,1.36-7.01,1.96-15.42.44-6.13-1.12-11.47-4.67-16.03-2.61-3.35-5.36-6.47-8.24-9.36-.21-.21-.56-.15-.68.12-2.46,5.58-5.17,10.46-8.12,14.65-8.77,12.44-18.13,22.83-28.08,31.17-5.82,4.88-21.13,16.14-27.87,6.91-2.01-2.75-.75-5.54,1.34-8.19.51-.65,3.52-3.96,9.05-9.93,6.62-7.16,12.81-14.63,18.56-22.4l3.25-4.91c3.99-4.9,7.35-9.99,10.08-15.28,2.56-4.95,3.73-9.16-2.83-11.35-5.37-1.8-12.84-4.18-22.42-7.15-2.95-.91-3.97-2.7-3.08-5.35,1.24-3.67,2.03-7.43,3.02-10.41,4.07-12.19,7.22-21.89,9.45-29.12.41-1.31,1.59-2.23,2.96-2.31,1.15-.06,2.61.2,4.38.77,7.1,2.3,26.67,9.65,47.1,16.03,3.38,1.05,6.74,2.17,10.08,3.36Z"/>
  <path class="st30" d="M301.54,487.97c-9.13-2.89-17.29-7.25-24.46-13.06-.26-.22-.47-.49-.61-.8-.47-1.06-.57-2.35-.28-3.88,1.31-6.98,3.73-13.4,7.28-19.25.33-.55.97-.85,1.61-.76,8.57,1.19,16.93,2.98,25.06,5.37,1.67.49,2.21,1.63,1.63,3.41-5.41,16.57-8.49,26.06-9.22,28.45-.13.42-.59.66-1.01.52Z"/>
  <path class="st30" d="M765.02,498.16c-.03-1.47-.44-2.42-1.23-2.86-.27-.16-.62-.12-.86.1-2.41,2.24-4.78,4.46-7.11,6.67-1.33,1.26-1.72,2.76-1.17,4.49-8.45,7.94-19.55,14.28-29.92,19.38-15.87,7.81-31.99,10.13-48.37,6.97-6.39-1.23-12.69-4.38-18.92-9.47l-.42-3.33c28.46,5.76,55.76,2.62,81.9-9.43,8.55-3.94,16.18-9.22,22.89-15.85,1.43-1.42,2.71-1.33,3.82.27.64.91.44,1.93-.61,3.06Z"/>
  <path class="st29" d="M765.02,498.16c-3.03,3.1-6.49,5.9-10.37,8.4-.55-1.73-.16-3.23,1.17-4.49,2.33-2.21,4.7-4.43,7.11-6.67.24-.22.59-.26.86-.1.79.44,1.2,1.39,1.23,2.86Z"/>
  <path class="st26" d="M320.5,531.14l-3.25,4.91c-1.2-.95-1.56-2.23-1.07-3.82,2.57-8.33,5.07-16.48,7.48-24.47.28-.94,1.33-1.41,2.22-1l2.96,1.35c.97.45,1.4,1.6.96,2.58l-9.3,20.45Z"/>
  <path class="st26" d="M302.9,645.07l-3.32,6.97c-.18-.75-.36-1.06-.53-.94-.4.31-.98.03-1.01-.48-.3-6.1-.27-11.64.09-16.61.01-.13.47-5.64,1.37-16.55.81-9.82,2.18-19.26,4.09-28.32.35-1.63.59-4.54,1.25-6.93.69-2.53,3.84-3.95,5.3-5.94.19-.25.42-.48.67-.67,3.41-2.55,7.22-5.68,11.42-9.38,12.51-11.03,22.6-24.04,30.25-39.05.23-.45.82-.57,1.19-.24,6.3,5.52,10.18,11.62,10.67,20.74.33,6.03-.16,11.52-1.47,16.46-.1.37-.46.6-.84.53-5.8-.98-9.05,2.06-11.51,7.43-2.14,4.65-4.37,10.89-6.69,18.72-.99,3.33-1.4,5.52-1.25,6.57.05.34.15.67.32.97.77,1.41,1.83,2.58,3.18,3.5.53.36.73,1.04.46,1.62l-4.91,10.7c-.11.23-.31.39-.56.45-7.09,1.66-13.18,4.23-18.27,7.7-8.57,5.85-15.2,13.44-19.9,22.75Z"/>
  <path class="st25" d="M1113.7,568.58c4.4,5.22,7.24,8.7,8.51,10.45,20.17,27.63,16.73,60.22,3.25,89.71-.53,1.16-1.14,3.27-1.85,6.32-7.1,15.22-14.27,29.82-21.5,43.81-.37.71-.9,1.47-1.59,2.28l-.88.83c-18.02-17.69-41.38-27.04-66.1-33.32-4.15-1.05-8.91-1.86-14.27-2.42-10.1-1.07-21.24,4.82-21.25,15.94-.01,5.24,2.61,9.98,6.27,13.8.24.25.05.67-.3.66-2.75-.1-6.21-.09-10.4.04-11.71.36-21.69,6.78-21.33,19.52.11,3.99,1.57,7.14,3.5,10.62.22.39.11.88-.25,1.15-4.57,3.43-8.3,7.98-8.61,13.88-.41,7.64,2.16,14.03,7.7,19.18.22.2.17.56-.1.7-14.41,7.24-4.78,24.18,2.53,32.49,8.69,9.87,18.22,18.19,28.59,24.95,1.07.7,1.63,1.97,1.42,3.23-3.08,18.84-4.75,39.32,4.25,56.84-.13,1.45-.68,2.32-1.67,2.61-1.89.57-3.41,1.15-4.58,1.74-2.92.07-5.37.89-7.36,2.46-9.17,1.95-18.06,2.6-26.68,1.96-7.51-.56-15.66-1.76-24.45-3.61-5.61-1.69-9.44-2.91-11.5-3.68-12.31-4.57-22.98-10.8-31.99-18.71-15.69-13.77-23.76-31.42-24.19-52.95-.32-16.1,2.68-32.71,9.11-47.71,5.27-12.3,8.41-18.01,16.21-32.36,7.57-13.94,12.88-28.86,14.53-44.54,1.42-13.48,1.16-27.72,1.6-39.68.69-18.71,3.25-37.37,7.69-55.99,2.89-12.15,6.99-23.78,12.3-34.89,6.19-13.37,14.81-23.79,25.84-31.24,6.12-4.14,13.72-7.41,22.79-9.82,15.49-4.11,31.16-4.94,47.03-2.47,29.79,4.63,55.7,17.37,77.73,38.22Z"/>
  <path class="st31" d="M828.08,640.07c-6.14,24.17-11.58,48.43-16.32,72.79-.07.37-.39.65-.78.66-31.59.9-67.58,1.01-107.97.32-19.51-.33-39.6-.99-60.25-1.98-13.65-.65-29.56-1.6-47.72-2.86-.34-.03-.59-.32-.56-.66.32-3.66,1.21-8.66,2.67-15.01,8.74-38.05,20.93-76.26,36.56-114.62,3.78-9.27,8.52-19.51,14.21-30.74,1.08-.68,2.12-1.14,3.12-1.38,1.29-.3,2.79-.62,4.48-.96-.83,6.9-1.77,13.85-2.84,20.86-.8,5.28-.93,10.79.46,16.1,2.83,10.84,7.69,19.37,14.59,25.58,13.14,11.83,33.13,16.42,50.78,16.29,2.17-.02,8.33-.26,18.49-.71.89-.04,4.66-.68,11.32-1.92,4.09-.76,7.78-1.71,11.09-2.85,17.87-6.14,31.89-13.23,45.05-24.28.66-.55,3.53-3.4,8.62-8.55,9.15-9.27,16.24-20.24,21.51-32.03,2.61-5.82,4.44-11.66,5.49-17.53.07-.39.46-.62.84-.5l10.4,3.37c.47.15.74.65.61,1.13-5.73,21.23-11.23,43.47-16.49,66.72-.04.18-1.38,5.61-4.02,16.3-1.34,5.43-2.45,10.92-3.34,16.46Z"/>
  <path class="st28" d="M888.41,552.01c-5.47,28.74-10.72,62.03-15.73,99.88-5.89,44.5-8.1,86.55-8.39,129.36-.1,14.98.32,29.98,1.25,45,.92,14.83,2.59,28.39,5.02,40.68,3.33,16.81,6.92,29.99,10.78,39.55,5.42,13.43,13.22,25.71,23.4,36.83,11.43,12.48,26.33,22.54,43.6,24.22-.55,8.18-.67,13.5-.37,15.97.89,7.32,1.54,11.93,1.94,13.83,1.88,8.89,5.34,23.12,10.38,42.69-.77-.12-1.2.28-1.27,1.2-.02.17,0,.35.05.51,1.21,3.95,2.31,8.16,3.29,12.61,13.19,60.26,22.32,119.52,29.63,181.91.19,1.61.09,3.16-.28,4.65-.1.42-.34.8-.67,1.09-4.3,3.75-8.85,6.89-13.66,9.4-9.85,5.14-19.84,9.55-29.97,13.24-1.15.42-6.88,2.22-17.18,5.4-7.15,2.2-12.92,3.82-17.33,4.85-16.28,3.81-30.11,6.72-41.48,8.73-16.19,2.85-38.19,5.57-66.02,8.17-4.14.39-7.71.19-11.41.82-4.06.7-8.62.46-12.88.43-2.33-.01-5.08.15-8.24.48-3.28.35-7.15.52-11.62.51-29.72-.05-51.4-.03-65.05.05-3.21.02-6.33-.17-9.38-.56-5.31-.68-11.77-.12-17.09-1.05-3.24-.56-6.64-.3-10.29-.66-16.96-1.65-27.38-2.73-31.25-3.23-18.68-2.41-38.86-5.9-60.53-10.47-6.02-1.27-10.87-2.49-14.56-3.67-6.67-2.13-12.48-3.36-19.25-5.6-8.65-2.86-15.47-5.44-20.47-7.73-4.03-1.84-6.11-2.78-6.23-2.83-2.25-.77-4.29-1.73-6.14-2.87-5.65-3.49-19.17-8.7-18.04-17.89,1.07-8.74,1.64-19.22,2.84-29.33,2.05-17.28,4.08-33.85,6.09-49.72,1.33-10.51,3.12-23.1,5.37-37.77,1.93-12.64,3.84-25.21,5.73-37.7.91-9.88,2.56-20.3,4.96-31.27,3.43-15.71,6.58-33.44,9.43-53.2.15-.93.42-2.29.81-4.08.33-1.47.57-2.84.74-4.09,1.01-7.61,1.81-15.23,2.41-22.87,1.21-7.13,1.12-13.14-.29-18.04-4.69-16.27-8.08-29.02-10.18-38.26-4.72-20.75-9.85-42.75-12.64-63.68-3.82-28.65-1.27-57.73,5.43-86.29,4.47-19.06,10.17-38.01,17.09-56.85.48-1.32-.17-2.79-1.48-3.31l-.09-.03c-1.29-.52-2.76.12-3.25,1.42-9.92,25.8-17.22,52.33-21.89,79.58-1.51,8.78-2.51,19.94-3,33.48-.41,11.08.04,21.5,1.33,31.25-.46.27-.77.26-.93-.01-.99-8.48-1.44-15.14-1.37-19.99.13-9.4.01-18.81.78-27.49.39-4.42.9-8.74,1.54-12.97,4.15-27.32,11.67-55.28,22.56-83.88.67-1.76,2.62-2.66,4.39-2.03l.13.05c1.79.63,2.72,2.59,2.1,4.38-5.25,14.91-9.55,28.44-12.9,40.58-2.74,9.92-5.22,20.74-7.44,32.46-.65,3.47-1.29,8.11-1.92,13.91-.88,8.24-1.33,12.9-1.36,13.99-.23,9.04-.37,15.76-.41,20.16-.06,5.83.42,12.53,1.45,20.09,3.17,23.28,7.87,43.08,13.45,67.61,2.42,10.64,6.27,22.17,8.97,33.22.04.15.18.25.33.23s.26-.15.26-.3c-.08-8.21.05-12.63-.53-19.33-.92-10.48-2.52-22.67-4.81-36.56-2.24-13.63-3.35-26.67-3.33-39.12,0-2.94.13-7.66.38-14.17.22-5.86.53-10.57.94-14.13,3.35-29.47,10.76-58.35,19.89-87.44,14.31-45.63,31.43-91.09,51.34-136.39,5.65-12.84,11.77-25.59,18.37-38.25,13.24-5.17,27.32-9.77,42.23-13.8.61-.17,1.09-.03,1.43.4-5.69,11.23-10.43,21.47-14.21,30.74-15.63,38.36-27.82,76.57-36.56,114.62-1.46,6.35-2.35,11.35-2.67,15.01-.03.34.22.63.56.66,18.16,1.26,34.07,2.21,47.72,2.86,20.65.99,40.74,1.65,60.25,1.98,40.39.69,76.38.58,107.97-.32.39-.01.71-.29.78-.66,4.74-24.36,10.18-48.62,16.32-72.79,1.21-4.95,2.39-9.85,3.54-14.7,4.57-19.18,9.13-38.37,13.68-57.56,2.2-9.32,4.71-18.56,7.52-27.71.05-.17.06-.48.03-.92l35.56,12.83ZM572.42,1003.06c-.45,1.39.39,2.87,1.82,3.18,21.26,4.65,42.6,8.06,64.01,10.25,15.83,1.61,30,2.78,42.5,3.5,15.82.91,33.9,1.55,54.25,1.92,12.92.24,29.85-.5,47.99-1.04,7.74-.23,17.35-.85,28.84-1.87,1.29-.11,2.23-1.27,2.08-2.56l-.02-.15c-.16-1.34-1.34-2.31-2.68-2.21-23.86,1.79-47.18,2.53-69.96,2.24-17.05-.23-26.64-.33-28.79-.32-9.42.03-16.56-.66-28.35-1.23-36.03-1.74-73.45-5.94-109.24-13.56-.98-.21-1.97.35-2.28,1.31l-.17.54Z"/>
  <path class="st31" d="M940.31,573.89c-5.31,11.11-9.41,22.74-12.3,34.89-4.44,18.62-7,37.28-7.69,55.99-.44,11.96-.18,26.2-1.6,39.68-1.65,15.68-6.96,30.6-14.53,44.54-7.8,14.35-10.94,20.06-16.21,32.36-6.43,15-9.43,31.61-9.11,47.71.43,21.53,8.5,39.18,24.19,52.95,9.01,7.91,19.68,14.14,31.99,18.71,2.06.77,5.89,1.99,11.5,3.68l5.89,32.19c-.77,2.5-1.21,4.16-1.33,4.99-1.21,8.63-2.14,17.28-2.77,25.95-17.27-1.68-32.17-11.74-43.6-24.22-10.18-11.12-17.98-23.4-23.4-36.83-3.86-9.56-7.45-22.74-10.78-39.55-2.43-12.29-4.1-25.85-5.02-40.68-.93-15.02-1.35-30.02-1.25-45,.29-42.81,2.5-84.86,8.39-129.36,5.01-37.85,10.26-71.14,15.73-99.88l51.9,21.88Z"/>
  <path class="st31" d="M604.26,561.37c-6.6,12.66-12.72,25.41-18.37,38.25-19.91,45.3-37.03,90.76-51.34,136.39-9.13,29.09-16.54,57.97-19.89,87.44-.41,3.56-.72,8.27-.94,14.13-.25,6.51-.37,11.23-.38,14.17-.02,12.45,1.09,25.49,3.33,39.12,2.29,13.89,3.89,26.08,4.81,36.56.58,6.7.45,11.12.53,19.33,0,.15-.11.28-.26.3s-.29-.08-.33-.23c-2.7-11.05-6.55-22.58-8.97-33.22-5.58-24.53-10.28-44.33-13.45-67.61-1.03-7.56-1.51-14.26-1.45-20.09.04-4.4.18-11.12.41-20.16.03-1.09.48-5.75,1.36-13.99.63-5.8,1.27-10.44,1.92-13.91,2.22-11.72,4.7-22.54,7.44-32.46,3.35-12.14,7.65-25.67,12.9-40.58.62-1.79-.31-3.75-2.1-4.38l-.13-.05c-1.77-.63-3.72.27-4.39,2.03-10.89,28.6-18.41,56.56-22.56,83.88-.64,4.23-1.15,8.55-1.54,12.97-.77,8.68-.65,18.09-.78,27.49-.07,4.85.38,11.51,1.37,19.99-.68.66-1.3.8-1.85.43-.73-.49-1.13-.75-1.2-.78-4.59-1.69-9.68-2.45-13.43-3.68-3.91-1.29-9.41-2.93-16.92-5.1-3.33-.97-6.61-2.09-9.84-3.38l-1.42-1.05c-.22-.16-.41-.36-.56-.58-5.24-8.1-10.18-16.2-14.82-24.3-.99-1.74-1.76-3.5-2.3-5.28-.37-1.23-.34-2.54.1-3.74,4.79-13.07,8.68-26.43,11.67-40.07,1.84-8.35,2.92-16.48,3.23-24.4.05-1.28.27-2.55.67-3.76,5.61-17.24,11.79-33.48,18.55-48.73,4.33-9.79,10.34-20.84,18.01-33.15,1.45-2.32,2.92-5.8,4.86-8.45,1.26-1.2,2.26-2.63,2.99-4.29.06-.47.3-.78.71-.93,6.87-7.67,14.09-14.99,21.67-21.94.35-.51.66-.87.92-1.08,14.23-11.37,29.18-21.17,44.87-29.38,14.75-7.73,30.39-14.97,46.9-21.73Z"/>
  <path class="st30" d="M415.69,583.35c1.46.51,2.95.96,4.48,1.35,3.56.89,5.7,3.13,6.43,6.72,1.18,5.77-1.28,12.68-3.3,18.42-1.93,5.51-3.32,10.47-8.18,12.74-.58.27-1.05.75-1.31,1.34-2.83,6.39-2.9,16.06-1.43,21.31,4.35,15.48,7.59,27.72,8.33,42.37.03.51.37.96.85,1.13,12.17,4.27,17.2,14.71,19.69,26.56,2.64,12.55,2.03,26.05-.47,39.9-2.29,12.71-6.3,26.9-12.03,42.56-1.15,3.15-.79,6.36,1.09,9.65,5.23,9.16,10.7,18.19,16.39,27.09,9.87,15.68,19.81,31.32,29.8,46.91,4.91,7.67,8.52,14.08,10.82,19.25,1.31,2.93,3.04,8.95-2.43,8.4-.84-.08-1.57-.62-1.9-1.41-2.55-6.25-5.86-12.57-9.91-18.98-21.76-34.39-35.4-56.08-40.93-65.09-4.07-6.64-7.19-12.18-9.34-16.63-1.33-2.75-1.56-5.34-.69-7.77,4.65-12.89,8.53-26.05,11.62-39.48,1.33-5.74,2.19-11.43,2.58-17.08.57-8.2.75-16.88-1.02-24.91-2.03-9.22-6.08-20.44-16.09-22.92-6.59-1.63-13.92-2.8-21.99-3.51-7.89-.69-18.98-.63-24.03,6.39-3.98,5.52-1.31,13.98,2.38,18.76,5.17,6.71,11.68,10.95,19.53,12.73,4.31.98,8.9,2.01,13.76,3.09.35.08.68.26.93.53,1.15,1.21,1.21,2.76.18,4.65-.2.38-.6.62-1.04.62h-1.68c-.42,0-.78.28-.88.69-7.29,30.07-11.81,48.61-13.56,55.63-3.53,14.21-9,33.65-16.41,58.32-4.65,15.46-11.04,28.31-29.92,27.28-5.1-.28-10.07-1.08-14.92-2.4-11.69-2.58-23.27-5.54-34.73-8.87-12.12-3.52-24.07-7.9-35.86-13.15-11.41-5.08-21.51-12.78-20.54-26.57.36-5.15,1.25-10.68,2.66-16.59,1.47-6.15,4.25-16.29,8.35-30.43,2.45-8.43,4.74-15.49,6.89-21.18,1.05-1.2,2.39-1.33,4.02-.4,9.66,5.54,17.91,9.55,24.75,12.04,7.16,2.6,15.75,2.67,21.09-3.53,3.83-4.45,2.54-10.5-1.48-14.38-3.04-2.92-5.9-4.77-10.03-6.77-12.63-6.1-24.88-13.16-36.75-21.19.87-.83,1.24-1.59,1.13-2.26,3.96-.84,7.59-.27,10.89,1.72,13.55,8.17,23.6,13.87,30.14,17.12,5.11,2.54,12.02,3.31,16.52-.64,11.91-10.46-.27-23.98-9.61-29.76-14.1-8.75-25.72-16.05-34.87-21.88-1.27-.81-2.18-1.8-2.74-2.97.06-.82.28-1.44.67-1.86,3.03-1.29,5.66-1.23,7.91.2,19.13,12.13,29.98,18.97,32.54,20.51,2.79,1.67,5.63,1.7,8.51.11,6.61-3.66,8.88-10.48,7.27-17.83-1.37-6.25-8.08-12.85-13.23-16.84-5.81-4.49-11.39-9.32-16.76-14.47l1.75-5.65,3.32-6.97c4.11-5.93,8.68-11.3,13.69-16.11,5.54-5.32,14.83-11.56,22.61-12.31,1.58-.15,2.96-1.13,3.62-2.57l5.3-11.55c.24-.53-.02-1.16-.57-1.36-5.19-1.91-3.75-5.88-2.55-10.42,1.07-4.09,2.77-9.14,5.09-15.14,2.2-5.68,5.58-12.1,12.92-9.64,17.53,5.89,35.09,11.69,52.68,17.38ZM330.09,705.59c-2.96,3.49-6.26,6.01-9.89,7.58-.26.12-.34.46-.14.67,5.85,6.16,10.48,12.27,8.91,21.18-1.5,8.48-6.75,13.84-15.76,16.08-.33.09-.49.46-.33.76l1.84,3.41c.23.42.4.87.5,1.34,1.36,6.29.45,13.76-4.59,18.12-13.62,11.8-34.61.39-47.57-6.9-.52-.29-1.18-.04-1.37.53-5.88,17.86-11.18,34.46-15.14,52.15-.76,3.38-.85,6.85-.97,10.24-.37,10.56,8.13,16.08,16.93,19.81,23.08,9.78,46.83,16.46,70.67,21.24,10.06,2.02,23.64,3.79,30.3-6.3,1.77-2.67,2.94-4.86,3.52-6.56,1.81-5.3,4.8-15.05,8.99-29.24,8.95-30.3,15.38-58.29,23.72-92.75.07-.31-.12-.62-.43-.7-3.05-.73-5.87-1.42-8.46-2.06-13.43-3.3-22.22-11.38-26.39-24.24-3.09-17.15,9-25.08,24.07-25.27,8.19-.1,16.59.62,25.2,2.15.22.04.41-.13.4-.35-.54-12.49-3.33-22.25-7.06-37.48-1.49-6.1-1.53-13.24-.12-21.43.28-1.57,1.52-4.65,1.76-5.99.05-.3-.12-.59-.41-.68l-25.54-8.28c-.27-.09-.57.07-.65.34-9.4,30.87-17.89,62.08-25.46,93.63-.04.15-.01.38.1.69-.33.69-.59,1.42-.76,2.17-11.1,47.73-24.95,95.04-43.6,140.28-.49,1.2-1.75,1.9-3.03,1.7h-.08c-1.21-.2-1.98-1.41-1.63-2.58,1.09-3.63,2.33-7.21,3.74-10.74,5.19-12.99,10.1-26.57,14.71-40.75,8.59-26.44,15.97-53.1,22.13-79.99l1.38-6.35c.79-1.75.99-3.44.6-5.07.43-.02.7-.26.81-.71,7.7-31.31,16-62.76,24.89-94.36.07-.28-.08-.56-.35-.65l-20.87-6.76c-.21-.07-.44.05-.5.26-2.06,7.3-4.82,13.85-10.99,18.29-.25.18-3.11,1.33-8.58,3.44-5.74,2.22-10.49,5.2-14.26,8.93-6.5,6.44-11.85,13.96-16.04,22.57-.1.2-.03.44.16.56,9.16,5.74,16.84,11.14,23.8,19.02,3.87,4.4,6.05,9.55,6.53,15.46.41,5.01-1.15,9.54-4.69,13.59Z"/>
  <path class="st26" d="M350.18,705.95c-.07-.3-.3-.49-.67-.58-6.65-1.56-13.13-1.49-19.42.22,3.54-4.05,5.1-8.58,4.69-13.59-.48-5.91-2.66-11.06-6.53-15.46-6.96-7.88-14.64-13.28-23.8-19.02-.19-.12-.26-.36-.16-.56,4.19-8.61,9.54-16.13,16.04-22.57,3.77-3.73,8.52-6.71,14.26-8.93,5.47-2.11,8.33-3.26,8.58-3.44,6.17-4.44,8.93-10.99,10.99-18.29.06-.21.29-.33.5-.26l20.87,6.76c.27.09.42.37.35.65-8.89,31.6-17.19,63.05-24.89,94.36-.11.45-.38.69-.81.71ZM333.26,703.61c.65.15,1.57.19,2.75.11,4.55-.33,8.95,0,13.18.96.52.12,1.04-.21,1.17-.73,6.19-26.06,13.24-51.82,20.34-78.5,1.22-4.6,2.54-8.92,3.95-12.95.26-.76-.15-1.58-.91-1.83l-17.68-5.73c-.64-.21-1.33.15-1.53.8-1.95,6.32-4.83,12.77-10.56,16.84-1.07.76-3.81,1.88-8.2,3.36-13.63,4.59-23.31,17.1-29.78,29.78-.23.46-.16,1.01.19,1.39.87.92,1.82,1.7,2.87,2.35,13.83,8.5,34.14,24.91,23.91,43.48-.15.27,0,.6.3.67Z"/>
  <path class="st27" d="M332.96,702.94c10.23-18.57-10.08-34.98-23.91-43.48-1.05-.65-2-1.43-2.87-2.35-.35-.38-.42-.93-.19-1.39,6.47-12.68,16.15-25.19,29.78-29.78,4.39-1.48,7.13-2.6,8.2-3.36,5.73-4.07,8.61-10.52,10.56-16.84.2-.65.89-1.01,1.53-.8l17.68,5.73c.76.25,1.17,1.07.91,1.83-1.41,4.03-2.73,8.35-3.95,12.95-7.1,26.68-14.15,52.44-20.34,78.5-.13.52-.65.85-1.17.73-4.23-.97-8.63-1.29-13.18-.96-1.18.08-2.1.04-2.75-.11-.3-.07-.45-.4-.3-.67Z"/>
  <path class="st26" d="M364.43,709.95c-.51-.76-1.08-1.34-1.7-1.75-.46-12.41,5.14-20.16,16.79-23.27,4.73-1.26,9.46-1.75,14.21-1.47,5.98.36,11.98,1.01,18,1.95.77.12,1.44-.53,1.34-1.3-1.34-10.63-3.47-21.29-6.38-31.98-2.69-9.89-2.53-19.69.49-29.38.18-.56-.14-1.17-.7-1.35l-22.6-7.33c-.51-.17-1.06.12-1.23.63-2.65,7.99-5.13,16.2-7.44,24.63-4.55,16.56-6.83,24.87-6.85,24.92-3.88,14.22-7.47,28.5-10.76,42.83-.16.13-.45.19-.88.2-.11-.31-.14-.54-.1-.69,7.57-31.55,16.06-62.76,25.46-93.63.08-.27.38-.43.65-.34l25.54,8.28c.29.09.46.38.41.68-.24,1.34-1.48,4.42-1.76,5.99-1.41,8.19-1.37,15.33.12,21.43,3.73,15.23,6.52,24.99,7.06,37.48,0,.22-.18.39-.4.35-8.61-1.53-17.01-2.25-25.2-2.15-15.07.19-27.16,8.12-24.07,25.27Z"/>
  <path class="st29" d="M511.57,613.56c-7.58,6.95-14.8,14.27-21.67,21.94,6.33-8.19,13.56-15.51,21.67-21.94Z"/>
  <path class="st27" d="M362.73,708.2l-5.13-1.12c3.29-14.33,6.88-28.61,10.76-42.83.02-.05,2.3-8.36,6.85-24.92,2.31-8.43,4.79-16.64,7.44-24.63.17-.51.72-.8,1.23-.63l22.6,7.33c.56.18.88.79.7,1.35-3.02,9.69-3.18,19.49-.49,29.38,2.91,10.69,5.04,21.35,6.38,31.98.1.77-.57,1.42-1.34,1.3-6.02-.94-12.02-1.59-18-1.95-4.75-.28-9.48.21-14.21,1.47-11.65,3.11-17.25,10.86-16.79,23.27Z"/>
  <path class="st29" d="M489.19,636.43c-.73,1.66-1.73,3.09-2.99,4.29l2.99-4.29Z"/>
  <path class="st32" d="M297.83,657.69c5.37,5.15,10.95,9.98,16.76,14.47,5.15,3.99,11.86,10.59,13.23,16.84,1.61,7.35-.66,14.17-7.27,17.83-2.88,1.59-5.72,1.56-8.51-.11-2.56-1.54-13.41-8.38-32.54-20.51-2.25-1.43-4.88-1.49-7.91-.2-3.51-9.59-1.78-20.2,6.43-26.55,5.51-4.25,12.12-4.84,19.81-1.77Z"/>
  <path class="st26" d="M1123.61,675.06c.79,14.17.95,23.23.48,27.2-.53,4.47-.87,9.02-1.02,13.65-.17,5.75-.45,10.3-.82,13.64-.97,8.63-1.76,15.11-2.39,19.45-.05.32-.48.37-.6.07-.71-1.85-1.8-3.37-3.27-4.56-.51-.42-.93-.95-1.21-1.55-3.72-7.94-8.47-15.21-14.26-21.81.69-.81,1.22-1.57,1.59-2.28,7.23-13.99,14.4-28.59,21.5-43.81Z"/>
  <path class="st30" d="M1099.64,721.98c8.21,9.23,14.1,19.25,17.65,30.04,3.93,11.92,4.91,24.25,2.94,37-1.35,8.75-3.26,17.08-5.73,25.01-4.53,14.51-8.16,27.46-10.89,38.85-1.25,5.16-.65,9.87,1.26,15.42,7.13,20.64,14.52,40.81,21.03,62.27,4.81,15.88,8.36,31.11,9.78,47.26,2.09,23.83-5.33,48.63-20.69,66.9-6.23,7.41-13.69,12.22-22.36,14.44,2.55-3.39,5.45-6.43,8.7-9.12,4.09-3.39,6.5-5.48,7.22-6.28,5.82-6.48,10.47-13.82,13.94-22.01,6.63-15.68,8.87-31.59,6.7-47.73-2.79-20.85-8.8-41.89-15.39-61.58-2.05-6.13-6.91-20.03-14.58-41.69-1.41-3.98-2.15-7.39-2.24-10.24-.07-2.48.43-6.32,1.5-11.53,2.9-14.08,9.25-31.43,12.55-44.19,2.03-7.82,3.26-13.84,3.7-18.06.96-9.23.78-19.66-1.96-28.72-4.51-14.91-12.51-27.31-24-37.22-5.87-5.06-14.3-9.97-21.23-13.31-12.59-6.06-25.7-10.52-39.35-13.38-3.84-.81-8.14-1.23-12.91-1.26-7.86-.05-14.01,5.38-10.12,13.49,3.13,6.5,8.92,11.16,15.88,13.53,4.73,1.61,11.55,3.76,16.05,5.64,19.01,7.94,35.8,19.7,50.35,35.27,1.22,1.31,1.45,3.27.55,4.82l-.07.12c-.77,1.34-2.6,1.58-3.7.5-2.39-2.36-4.18-4.13-5.37-5.31-8.07-8.01-17.58-15.23-28.55-21.66-12.83-7.53-27.88-12.82-45.15-15.88-9.46-1.67-26.66-1.83-26.7,11.89-.02,8.19,5.99,10.95,13.58,12.87,5.05,1.28,8.59,2.26,10.64,2.94,24.85,8.23,46.11,22.69,64.52,41.36,1.04,1.06.98,2.78-.14,3.76l-.14.12c-1.19,1.05-2.98,1-4.12-.1-20.4-19.67-45.99-36.11-73.82-42.32-6.67-1.49-14.04-1.94-15.67,5.93-2.02,9.77,5.21,18.67,14,22.17,20.47,8.15,39.12,20,55.93,35.53,1.11,1.02,1.07,2.79-.09,3.75l-.09.08c-1.26,1.05-3.08,1.06-4.35.04-6.95-5.61-13.35-10.49-19.19-14.64-10.02-7.11-20.57-12.89-31.65-17.34-2.51-1.01-5.3-1.7-8.37-2.07-6.8-.82-6.71,6-5.1,10.31.97,2.61,2.53,5.38,4.68,8.32,8.54,11.69,19.86,20.57,32.1,28.96,2.58,1.77,3.11,3.54,2.43,6.76-3.61,16.97-4.58,36.54,2.24,52.7.51,1.21,2.01,3.62,4.48,7.25,2.29,3.35-1.5,7.5-4.54,4.07-1.55-1.75-3.05-3.9-4.49-6.47-9-17.52-7.33-38-4.25-56.84.21-1.26-.35-2.53-1.42-3.23-10.37-6.76-19.9-15.08-28.59-24.95-7.31-8.31-16.94-25.25-2.53-32.49.27-.14.32-.5.1-.7-5.54-5.15-8.11-11.54-7.7-19.18.31-5.9,4.04-10.45,8.61-13.88.36-.27.47-.76.25-1.15-1.93-3.48-3.39-6.63-3.5-10.62-.36-12.74,9.62-19.16,21.33-19.52,4.19-.13,7.65-.14,10.4-.04.35.01.54-.41.3-.66-3.66-3.82-6.28-8.56-6.27-13.8.01-11.12,11.15-17.01,21.25-15.94,5.36.56,10.12,1.37,14.27,2.42,24.72,6.28,48.08,15.63,66.1,33.32Z"/>
  <path class="st32" d="M270.92,687.87c.56,1.17,1.47,2.16,2.74,2.97,9.15,5.83,20.77,13.13,34.87,21.88,9.34,5.78,21.52,19.3,9.61,29.76-4.5,3.95-11.41,3.18-16.52.64-6.54-3.25-16.59-8.95-30.14-17.12-3.3-1.99-6.93-2.56-10.89-1.72-4.14-5.15-5.62-11.04-4.45-17.66,1.37-7.68,6.88-15.96,14.78-18.75Z"/>
  <path class="st32" d="M446.23,834.49l1.98-.26c3.23,1.29,6.51,2.41,9.84,3.38,7.51,2.17,13.01,3.81,16.92,5.1,3.75,1.23,8.84,1.99,13.43,3.68.07.03.47.29,1.2.78.55.37,1.17.23,1.85-.43.16.27.47.28.93.01,2.9,24.34,8.52,48.48,14.6,74.04,3.91,16.45,8.7,32.02,14.37,46.69-.6,7.64-1.4,15.26-2.41,22.87-.17,1.25-.41,2.62-.74,4.09-.39,1.79-.66,3.15-.81,4.08-12.67,14.54-27.01,24.89-43.03,31.06-9.23,3.56-18.78,5.54-28.67,5.32-2.75-.07-5.46-.14-8.11-.21-28.88-4.03-50.68-24.47-66.06-47.94-14.13-21.57-23.61-45.67-31.27-70.74-2.98-9.73-6.06-21.83-9.24-36.28-.13-.55-.1-1.27.08-2.17,4.85,1.32,9.82,2.12,14.92,2.4,18.88,1.03,25.27-11.82,29.92-27.28,7.41-24.67,12.88-44.11,16.41-58.32,1.75-7.02,6.27-25.56,13.56-55.63.1-.41.46-.69.88-.69h1.68c.44,0,.84-.24,1.04-.62,1.03-1.89.97-3.44-.18-4.65-.25-.27-.58-.45-.93-.53-4.86-1.08-9.45-2.11-13.76-3.09-7.85-1.78-14.36-6.02-19.53-12.73-3.69-4.78-6.36-13.24-2.38-18.76,5.05-7.02,16.14-7.08,24.03-6.39,8.07.71,15.4,1.88,21.99,3.51,10.01,2.48,14.06,13.7,16.09,22.92,1.77,8.03,1.59,16.71,1.02,24.91-.39,5.65-1.25,11.34-2.58,17.08-3.09,13.43-6.97,26.59-11.62,39.48-.87,2.43-.64,5.02.69,7.77,2.15,4.45,5.27,9.99,9.34,16.63,5.53,9.01,19.17,30.7,40.93,65.09,4.05,6.41,7.36,12.73,9.91,18.98.33.79,1.06,1.33,1.9,1.41,5.47.55,3.74-5.47,2.43-8.4-2.3-5.17-5.91-11.58-10.82-19.25-9.99-15.59-19.93-31.23-29.8-46.91Z"/>
  <path class="st32" d="M1092.63,1059.17c-7.85,4.05-15.06,6.64-21.64,7.76-32.25,5.46-61.58-7.51-80.4-33.75-4.49-6.27-8.2-11.99-11.13-17.18-7.56-14.69-13.82-30.74-18.79-48.13-3.69-12.9-6.43-23.33-8.23-31.28l-5.89-32.19c8.79,1.85,16.94,3.05,24.45,3.61,8.62.64,17.51-.01,26.68-1.96-1.31,6.3-2.69,14.79-4.14,25.46-3.21,23.62-2.38,46.43,2.48,68.42.36,1.6,1.89,2.67,3.52,2.44h.1c1.58-.23,2.65-1.74,2.34-3.31-1.81-9.02-2.94-16.46-3.39-22.31-1.55-19.73-.47-39.48,3.24-59.24.84-4.45,1.91-9.09,3.21-13.92,1.17-.59,2.69-1.17,4.58-1.74.99-.29,1.54-1.16,1.67-2.61,1.44,2.57,2.94,4.72,4.49,6.47,3.04,3.43,6.83-.72,4.54-4.07-2.47-3.63-3.97-6.04-4.48-7.25-6.82-16.16-5.85-35.73-2.24-52.7.68-3.22.15-4.99-2.43-6.76-12.24-8.39-23.56-17.27-32.1-28.96-2.15-2.94-3.71-5.71-4.68-8.32-1.61-4.31-1.7-11.13,5.1-10.31,3.07.37,5.86,1.06,8.37,2.07,11.08,4.45,21.63,10.23,31.65,17.34,5.84,4.15,12.24,9.03,19.19,14.64,1.27,1.02,3.09,1.01,4.35-.04l.09-.08c1.16-.96,1.2-2.73.09-3.75-16.81-15.53-35.46-27.38-55.93-35.53-8.79-3.5-16.02-12.4-14-22.17,1.63-7.87,9-7.42,15.67-5.93,27.83,6.21,53.42,22.65,73.82,42.32,1.14,1.1,2.93,1.15,4.12.1l.14-.12c1.12-.98,1.18-2.7.14-3.76-18.41-18.67-39.67-33.13-64.52-41.36-2.05-.68-5.59-1.66-10.64-2.94-7.59-1.92-13.6-4.68-13.58-12.87.04-13.72,17.24-13.56,26.7-11.89,17.27,3.06,32.32,8.35,45.15,15.88,10.97,6.43,20.48,13.65,28.55,21.66,1.19,1.18,2.98,2.95,5.37,5.31,1.1,1.08,2.93.84,3.7-.5l.07-.12c.9-1.55.67-3.51-.55-4.82-14.55-15.57-31.34-27.33-50.35-35.27-4.5-1.88-11.32-4.03-16.05-5.64-6.96-2.37-12.75-7.03-15.88-13.53-3.89-8.11,2.26-13.54,10.12-13.49,4.77.03,9.07.45,12.91,1.26,13.65,2.86,26.76,7.32,39.35,13.38,6.93,3.34,15.36,8.25,21.23,13.31,11.49,9.91,19.49,22.31,24,37.22,2.74,9.06,2.92,19.49,1.96,28.72-.44,4.22-1.67,10.24-3.7,18.06-3.3,12.76-9.65,30.11-12.55,44.19-1.07,5.21-1.57,9.05-1.5,11.53.09,2.85.83,6.26,2.24,10.24,7.67,21.66,12.53,35.56,14.58,41.69,6.59,19.69,12.6,40.73,15.39,61.58,2.17,16.14-.07,32.05-6.7,47.73-3.47,8.19-8.12,15.53-13.94,22.01-.72.8-3.13,2.89-7.22,6.28-3.25,2.69-6.15,5.73-8.7,9.12Z"/>
  <path class="st30" d="M521.35,967.48c-5.67-14.67-10.46-30.24-14.37-46.69-6.08-25.56-11.7-49.7-14.6-74.04-1.29-9.75-1.74-20.17-1.33-31.25.49-13.54,1.49-24.7,3-33.48,4.67-27.25,11.97-53.78,21.89-79.58.49-1.3,1.96-1.94,3.25-1.42l.09.03c1.31.52,1.96,1.99,1.48,3.31-6.92,18.84-12.62,37.79-17.09,56.85-6.7,28.56-9.25,57.64-5.43,86.29,2.79,20.93,7.92,42.93,12.64,63.68,2.1,9.24,5.49,21.99,10.18,38.26,1.41,4.9,1.5,10.91.29,18.04Z"/>
  <path class="st29" d="M350.18,705.95c.39,1.63.19,3.32-.6,5.07.11-.28.14-.53.08-.74-.07-.26-.44-.27-.53-.01-.83,2.42-1.14,4.79-.93,7.1-6.16,26.89-13.54,53.55-22.13,79.99-4.61,14.18-9.52,27.76-14.71,40.75-1.41,3.53-2.65,7.11-3.74,10.74-.35,1.17.42,2.38,1.63,2.57h.08c1.28.21,2.54-.49,3.03-1.69,18.65-45.24,32.5-92.55,43.6-140.28.17-.75.43-1.48.76-2.17.43-.01.72-.07.88-.2l5.13,1.12c.62.41,1.19.99,1.7,1.75,4.17,12.86,12.96,20.94,26.39,24.24,2.59.64,5.41,1.33,8.46,2.06.31.08.5.39.43.7-8.34,34.46-14.77,62.45-23.72,92.75-4.19,14.19-7.18,23.94-8.99,29.24-.58,1.7-1.75,3.89-3.52,6.56-6.66,10.09-20.24,8.32-30.3,6.3-23.84-4.78-47.59-11.46-70.67-21.24-8.8-3.73-17.3-9.25-16.93-19.81.12-3.39.21-6.86.97-10.24,3.96-17.69,9.26-34.29,15.14-52.15.19-.57.85-.82,1.37-.53,12.96,7.29,33.95,18.7,47.57,6.9,5.04-4.36,5.95-11.83,4.59-18.12-.1-.47-.27-.92-.5-1.34l-1.84-3.41c-.16-.3,0-.67.33-.76,9.01-2.24,14.26-7.6,15.76-16.08,1.57-8.91-3.06-15.02-8.91-21.18-.2-.21-.12-.55.14-.67,3.63-1.57,6.93-4.09,9.89-7.58,6.29-1.71,12.77-1.78,19.42-.22.37.09.6.28.67.58Z"/>
  <path class="st27" d="M349.58,711.02l-1.38,6.35c-.21-2.31.1-4.68.93-7.1.09-.26.46-.25.53.01.06.21.03.46-.08.74Z"/>
  <path class="st32" d="M259.46,726.54c11.87,8.03,24.12,15.09,36.75,21.19,4.13,2,6.99,3.85,10.03,6.77,4.02,3.88,5.31,9.93,1.48,14.38-5.34,6.2-13.93,6.13-21.09,3.53-6.84-2.49-15.09-6.5-24.75-12.04-1.63-.93-2.97-.8-4.02.4-6.45-3.85-9.4-9.94-8.85-18.27.51-7.68,4-13,10.45-15.96Z"/>
  <path class="st30" d="M1005.04,903.59c-1.3,4.83-2.37,9.47-3.21,13.92-3.71,19.76-4.79,39.51-3.24,59.24.45,5.85,1.58,13.29,3.39,22.31.31,1.57-.76,3.08-2.34,3.3h-.1c-1.63.24-3.16-.83-3.52-2.43-4.86-21.99-5.69-44.8-2.48-68.42,1.45-10.67,2.83-19.16,4.14-25.46,1.99-1.57,4.44-2.39,7.36-2.46Z"/>
  <path class="st26" d="M952.44,936.59c1.8,7.95,4.54,18.38,8.23,31.28,4.97,17.39,11.23,33.44,18.79,48.13-.31.04-.43.33-.38.87.03.34.14.65.33.93.89,1.31,1.38,2.55,1.47,3.73.04.41-.08.83-.33,1.16-.97,1.31-2.64,3.01-4.99,5.1-5.32,4.73-10.41,8.8-15.27,12.23-5.04-19.57-8.5-33.8-10.38-42.69-.4-1.9-1.05-6.51-1.94-13.83-.3-2.47-.18-7.79.37-15.97.63-8.67,1.56-17.32,2.77-25.95.12-.83.56-2.49,1.33-4.99Z"/>
  <path class="st26" d="M517.39,998.52c-2.85,19.76-6,37.49-9.43,53.2-2.4,10.97-4.05,21.39-4.96,31.27-8.71-5.65-16.99-11.04-24.83-16.17-8.6-5.63-20.15-14.34-34.64-26.13-2.3-1.86-3.99-3.84-5.95-6,2.65.07,5.36.14,8.11.21,9.89.22,19.44-1.76,28.67-5.32,16.02-6.17,30.36-16.52,43.03-31.06Z"/>
  <path class="st30" d="M572.42,1003.06l.17-.54c.31-.96,1.3-1.52,2.28-1.31,35.79,7.62,73.21,11.82,109.24,13.56,11.79.57,18.93,1.26,28.35,1.23,2.15-.01,11.74.09,28.79.32,22.78.29,46.1-.45,69.96-2.24,1.34-.1,2.52.87,2.68,2.21l.02.15c.15,1.29-.79,2.45-2.08,2.56-11.49,1.02-21.1,1.64-28.84,1.87-18.14.54-35.07,1.28-47.99,1.04-20.35-.37-38.43-1.01-54.25-1.92-12.5-.72-26.67-1.89-42.5-3.5-21.41-2.19-42.75-5.6-64.01-10.25-1.43-.31-2.27-1.79-1.82-3.18Z"/>
</svg>